<?xml version="1.0" encoding="UTF-8" standalone="no"?>
<!DOCTYPE svg PUBLIC "-//W3C//DTD SVG 1.1//EN"
 "http://www.w3.org/Graphics/SVG/1.1/DTD/svg11.dtd">
<!-- Generated by graphviz version 2.36.0 (20140111.2315)
 -->
<!-- Title: commands.twochildren.EqualCommand.toString Pages: 1 -->
<svg width="590pt" height="38pt"
 viewBox="0.00 0.00 590.00 38.00" xmlns="http://www.w3.org/2000/svg" xmlns:xlink="http://www.w3.org/1999/xlink">
<g id="graph0" class="graph" transform="scale(1 1) rotate(0) translate(4 34)">
<title>commands.twochildren.EqualCommand.toString</title>
<polygon fill="white" stroke="none" points="-4,4 -4,-34 586,-34 586,4 -4,4"/>
<!-- Node1 -->
<g id="node1" class="node"><title>Node1</title>
<polygon fill="#bfbfbf" stroke="black" points="0.5,-0 0.5,-30 157.5,-30 157.5,-0 0.5,-0"/>
<text text-anchor="start" x="8.5" y="-18" font-family="Helvetica,sans-Serif" font-size="10.00">commands.twochildren.Equal</text>
<text text-anchor="middle" x="79" y="-7" font-family="Helvetica,sans-Serif" font-size="10.00">Command.toString</text>
</g>
<!-- Node2 -->
<g id="node2" class="node"><title>Node2</title>
<g id="a_node2"><a xlink:href="../../d5/da8/classcommands_1_1twochildren_1_1_equal_command.html#a41a21271c3eb2be9537067763c36c511" target="_top" xlink:title="commands.twochildren.Equal\lCommand.execute">
<polygon fill="white" stroke="black" points="194.5,-0 194.5,-30 351.5,-30 351.5,-0 194.5,-0"/>
<text text-anchor="start" x="202.5" y="-18" font-family="Helvetica,sans-Serif" font-size="10.00">commands.twochildren.Equal</text>
<text text-anchor="middle" x="273" y="-7" font-family="Helvetica,sans-Serif" font-size="10.00">Command.execute</text>
</a>
</g>
</g>
<!-- Node1&#45;&gt;Node2 -->
<g id="edge1" class="edge"><title>Node1&#45;&gt;Node2</title>
<path fill="none" stroke="midnightblue" d="M157.54,-15C166.388,-15 175.452,-15 184.418,-15"/>
<polygon fill="midnightblue" stroke="midnightblue" points="184.482,-18.5001 194.482,-15 184.482,-11.5001 184.482,-18.5001"/>
</g>
<!-- Node3 -->
<g id="node3" class="node"><title>Node3</title>
<g id="a_node3"><a xlink:href="../../d5/d62/classcommands_1_1templates_1_1_command.html#ae48716b79da0af7e6815fbe6fc113075" target="_top" xlink:title="commands.templates.Command.get\lMyChildren">
<polygon fill="white" stroke="black" points="388,-0 388,-30 582,-30 582,-0 388,-0"/>
<text text-anchor="start" x="396" y="-18" font-family="Helvetica,sans-Serif" font-size="10.00">commands.templates.Command.get</text>
<text text-anchor="middle" x="485" y="-7" font-family="Helvetica,sans-Serif" font-size="10.00">MyChildren</text>
</a>
</g>
</g>
<!-- Node2&#45;&gt;Node3 -->
<g id="edge2" class="edge"><title>Node2&#45;&gt;Node3</title>
<path fill="none" stroke="midnightblue" d="M351.6,-15C360.081,-15 368.82,-15 377.571,-15"/>
<polygon fill="midnightblue" stroke="midnightblue" points="377.836,-18.5001 387.836,-15 377.836,-11.5001 377.836,-18.5001"/>
</g>
</g>
</svg>
