<?xml version="1.0" encoding="UTF-8" standalone="no"?>
<!DOCTYPE svg PUBLIC "-//W3C//DTD SVG 1.1//EN"
 "http://www.w3.org/Graphics/SVG/1.1/DTD/svg11.dtd">
<!-- Generated by graphviz version 2.36.0 (20140111.2315)
 -->
<!-- Title: backEnd.turtle.Turtle.getOrientation Pages: 1 -->
<svg width="528pt" height="87pt"
 viewBox="0.00 0.00 528.00 87.00" xmlns="http://www.w3.org/2000/svg" xmlns:xlink="http://www.w3.org/1999/xlink">
<g id="graph0" class="graph" transform="scale(1 1) rotate(0) translate(4 83)">
<title>backEnd.turtle.Turtle.getOrientation</title>
<polygon fill="white" stroke="none" points="-4,4 -4,-83 524,-83 524,4 -4,4"/>
<!-- Node1 -->
<g id="node1" class="node"><title>Node1</title>
<polygon fill="#bfbfbf" stroke="black" points="0.5,-24 0.5,-54 133.5,-54 133.5,-24 0.5,-24"/>
<text text-anchor="start" x="8.5" y="-42" font-family="Helvetica,sans-Serif" font-size="10.00">backEnd.turtle.Turtle.get</text>
<text text-anchor="middle" x="67" y="-31" font-family="Helvetica,sans-Serif" font-size="10.00">Orientation</text>
</g>
<!-- Node2 -->
<g id="node2" class="node"><title>Node2</title>
<g id="a_node2"><a xlink:href="../../d8/d32/classback_end_1_1turtle_1_1_turtle.html#a52ebe2b7a75e91579e282a4061d5b421" target="_top" xlink:title="backEnd.turtle.Turtle.movement\lHelper">
<polygon fill="white" stroke="black" points="170,-49 170,-79 340,-79 340,-49 170,-49"/>
<text text-anchor="start" x="178" y="-67" font-family="Helvetica,sans-Serif" font-size="10.00">backEnd.turtle.Turtle.movement</text>
<text text-anchor="middle" x="255" y="-56" font-family="Helvetica,sans-Serif" font-size="10.00">Helper</text>
</a>
</g>
</g>
<!-- Node1&#45;&gt;Node2 -->
<g id="edge1" class="edge"><title>Node1&#45;&gt;Node2</title>
<path fill="none" stroke="midnightblue" d="M143.593,-49.1604C152.223,-50.3202 161.06,-51.508 169.792,-52.6817"/>
<polygon fill="midnightblue" stroke="midnightblue" points="143.954,-45.6775 133.577,-47.8141 143.021,-52.6151 143.954,-45.6775"/>
</g>
<!-- Node4 -->
<g id="node4" class="node"><title>Node4</title>
<g id="a_node4"><a xlink:href="../../d8/d32/classback_end_1_1turtle_1_1_turtle.html#a0274006366ab00d8b0a28e1a17026c3c" target="_top" xlink:title="backEnd.turtle.Turtle.turn\lTurtle">
<polygon fill="white" stroke="black" points="186.5,-0 186.5,-30 323.5,-30 323.5,-0 186.5,-0"/>
<text text-anchor="start" x="194.5" y="-18" font-family="Helvetica,sans-Serif" font-size="10.00">backEnd.turtle.Turtle.turn</text>
<text text-anchor="middle" x="255" y="-7" font-family="Helvetica,sans-Serif" font-size="10.00">Turtle</text>
</a>
</g>
</g>
<!-- Node1&#45;&gt;Node4 -->
<g id="edge3" class="edge"><title>Node1&#45;&gt;Node4</title>
<path fill="none" stroke="midnightblue" d="M143.701,-29.2321C157.765,-27.4175 172.375,-25.5322 186.185,-23.7504"/>
<polygon fill="midnightblue" stroke="midnightblue" points="143.046,-25.7875 133.577,-30.5385 143.942,-32.7299 143.046,-25.7875"/>
</g>
<!-- Node3 -->
<g id="node3" class="node"><title>Node3</title>
<g id="a_node3"><a xlink:href="../../d8/d32/classback_end_1_1turtle_1_1_turtle.html#a5a93690c08c2a024ea6eaf75293f7111" target="_top" xlink:title="backEnd.turtle.Turtle.move\lTurtle">
<polygon fill="white" stroke="black" points="376,-49 376,-79 520,-79 520,-49 376,-49"/>
<text text-anchor="start" x="384" y="-67" font-family="Helvetica,sans-Serif" font-size="10.00">backEnd.turtle.Turtle.move</text>
<text text-anchor="middle" x="448" y="-56" font-family="Helvetica,sans-Serif" font-size="10.00">Turtle</text>
</a>
</g>
</g>
<!-- Node2&#45;&gt;Node3 -->
<g id="edge2" class="edge"><title>Node2&#45;&gt;Node3</title>
<path fill="none" stroke="midnightblue" d="M350.143,-64C358.758,-64 367.387,-64 375.751,-64"/>
<polygon fill="midnightblue" stroke="midnightblue" points="350.053,-60.5001 340.053,-64 350.053,-67.5001 350.053,-60.5001"/>
</g>
</g>
</svg>
