<?xml version="1.0" encoding="UTF-8" standalone="no"?>
<!DOCTYPE svg PUBLIC "-//W3C//DTD SVG 1.1//EN"
 "http://www.w3.org/Graphics/SVG/1.1/DTD/svg11.dtd">
<!-- Generated by graphviz version 2.36.0 (20140111.2315)
 -->
<!-- Title: backEnd.turtle.Turtle.Turtle Pages: 1 -->
<svg width="352pt" height="66pt"
 viewBox="0.00 0.00 352.00 66.00" xmlns="http://www.w3.org/2000/svg" xmlns:xlink="http://www.w3.org/1999/xlink">
<g id="graph0" class="graph" transform="scale(1 1) rotate(0) translate(4 62)">
<title>backEnd.turtle.Turtle.Turtle</title>
<polygon fill="white" stroke="none" points="-4,4 -4,-62 348,-62 348,4 -4,4"/>
<!-- Node1 -->
<g id="node1" class="node"><title>Node1</title>
<polygon fill="#bfbfbf" stroke="black" points="0.5,-19.5 0.5,-38.5 143.5,-38.5 143.5,-19.5 0.5,-19.5"/>
<text text-anchor="middle" x="72" y="-26.5" font-family="Helvetica,sans-Serif" font-size="10.00">backEnd.turtle.Turtle.Turtle</text>
</g>
<!-- Node2 -->
<g id="node2" class="node"><title>Node2</title>
<g id="a_node2"><a xlink:href="../../de/d6c/classback_end_1_1turtle_1_1_turtle_point.html#aeeb9ec0f75154354c67b92cf9486fff6" target="_top" xlink:title="backEnd.turtle.TurtlePoint.getX">
<polygon fill="white" stroke="black" points="180.5,-38.5 180.5,-57.5 343.5,-57.5 343.5,-38.5 180.5,-38.5"/>
<text text-anchor="middle" x="262" y="-45.5" font-family="Helvetica,sans-Serif" font-size="10.00">backEnd.turtle.TurtlePoint.getX</text>
</a>
</g>
</g>
<!-- Node1&#45;&gt;Node2 -->
<g id="edge1" class="edge"><title>Node1&#45;&gt;Node2</title>
<path fill="none" stroke="midnightblue" d="M143.539,-36.129C152.245,-37.0088 161.237,-37.9176 170.191,-38.8225"/>
<polygon fill="midnightblue" stroke="midnightblue" points="169.965,-42.3174 180.266,-39.8408 170.669,-35.3529 169.965,-42.3174"/>
</g>
<!-- Node3 -->
<g id="node3" class="node"><title>Node3</title>
<g id="a_node3"><a xlink:href="../../de/d6c/classback_end_1_1turtle_1_1_turtle_point.html#ae14b87fea2bc327ead4d0277aa9fc63d" target="_top" xlink:title="backEnd.turtle.TurtlePoint.getY">
<polygon fill="white" stroke="black" points="181,-0.5 181,-19.5 343,-19.5 343,-0.5 181,-0.5"/>
<text text-anchor="middle" x="262" y="-7.5" font-family="Helvetica,sans-Serif" font-size="10.00">backEnd.turtle.TurtlePoint.getY</text>
</a>
</g>
</g>
<!-- Node1&#45;&gt;Node3 -->
<g id="edge2" class="edge"><title>Node1&#45;&gt;Node3</title>
<path fill="none" stroke="midnightblue" d="M143.539,-21.871C152.491,-20.9663 161.747,-20.0309 170.952,-19.1006"/>
<polygon fill="midnightblue" stroke="midnightblue" points="171.306,-22.5827 180.904,-18.0948 170.602,-15.6182 171.306,-22.5827"/>
</g>
</g>
</svg>
