<?xml version="1.0" encoding="UTF-8" standalone="no"?>
<!DOCTYPE svg PUBLIC "-//W3C//DTD SVG 1.1//EN"
 "http://www.w3.org/Graphics/SVG/1.1/DTD/svg11.dtd">
<!-- Generated by graphviz version 2.36.0 (20140111.2315)
 -->
<!-- Title: backEnd.turtle.Turtle.movementHelper Pages: 1 -->
<!--zoomable 202 -->
<svg id="main" version="1.1" xmlns="http://www.w3.org/2000/svg" xmlns:xlink="http://www.w3.org/1999/xlink" xml:space="preserve" onload="init(evt)">
<style type="text/css"><![CDATA[
.edge:hover path { stroke: red; }
.edge:hover polygon { stroke: red; fill: red; }
]]></style>
<script type="text/javascript"><![CDATA[
var edges = document.getElementsByTagName('g');
if (edges && edges.length) {
  for (var i=0;i<edges.length;i++) {
    if (edges[i].id.substr(0,4)=='edge') {
      edges[i].setAttribute('class','edge');
    }
  }
}
]]></script>
        <defs>
                <circle id="rim" cx="0" cy="0" r="7"/>
                <circle id="rim2" cx="0" cy="0" r="3.5"/>
                <g id="zoomPlus">
                        <use xlink:href="#rim" fill="#404040">
                                <set attributeName="fill" to="#808080" begin="zoomplus.mouseover" end="zoomplus.mouseout"/>
                        </use>
                        <path d="M-4,0h8M0,-4v8" fill="none" stroke="white" stroke-width="1.5" pointer-events="none"/>
                </g>
                <g id="zoomMin">
                        <use xlink:href="#rim" fill="#404040">
                                <set attributeName="fill" to="#808080" begin="zoomminus.mouseover" end="zoomminus.mouseout"/>
                        </use>
                        <path d="M-4,0h8" fill="none" stroke="white" stroke-width="1.5" pointer-events="none"/>
                </g>
                <g id="dirArrow">
                        <path fill="none" stroke="white" stroke-width="1.5" d="M0,-3.0v7 M-2.5,-0.5L0,-3.0L2.5,-0.5"/>
                </g>
               <g id="resetDef">
                       <use xlink:href="#rim2" fill="#404040">
                               <set attributeName="fill" to="#808080" begin="reset.mouseover" end="reset.mouseout"/>
                       </use>
               </g>
        </defs>

<script type="text/javascript">
var viewWidth = 762;
var viewHeight = 202;
var sectionId = 'dynsection-9';
</script>
<script xlink:href="../../svgpan.js"/>
<svg id="graph" class="graph">
<g id="viewport">
<title>backEnd.turtle.Turtle.movementHelper</title>
<polygon fill="white" stroke="none" points="-4,4 -4,-198 758,-198 758,4 -4,4"/>
<!-- Node1 -->
<g id="node1" class="node"><title>Node1</title>
<polygon fill="#bfbfbf" stroke="black" points="0,-120 0,-150 170,-150 170,-120 0,-120"/>
<text text-anchor="start" x="8" y="-138" font-family="Helvetica,sans-Serif" font-size="10.00">backEnd.turtle.Turtle.movement</text>
<text text-anchor="middle" x="85" y="-127" font-family="Helvetica,sans-Serif" font-size="10.00">Helper</text>
</g>
<!-- Node2 -->
<g id="node2" class="node"><title>Node2</title>
<g id="a_node2"><a xlink:href="../../d8/d32/classback_end_1_1turtle_1_1_turtle.html#a2f7c26eedf8b3a2b6e4521360600d567" target="_top" xlink:title="backEnd.turtle.Turtle.get\lOrientation">
<polygon fill="white" stroke="black" points="216.5,-164 216.5,-194 349.5,-194 349.5,-164 216.5,-164"/>
<text text-anchor="start" x="224.5" y="-182" font-family="Helvetica,sans-Serif" font-size="10.00">backEnd.turtle.Turtle.get</text>
<text text-anchor="middle" x="283" y="-171" font-family="Helvetica,sans-Serif" font-size="10.00">Orientation</text>
</a>
</g>
</g>
<!-- Node1&#45;&gt;Node2 -->
<g id="edge1" class="edge"><title>Node1&#45;&gt;Node2</title>
<path fill="none" stroke="midnightblue" d="M152.904,-150.019C170.054,-153.869 188.622,-158.038 206.186,-161.98"/>
<polygon fill="midnightblue" stroke="midnightblue" points="205.869,-165.496 216.393,-164.272 207.403,-158.666 205.869,-165.496"/>
</g>
<!-- Node3 -->
<g id="node3" class="node"><title>Node3</title>
<g id="a_node3"><a xlink:href="../../d8/d32/classback_end_1_1turtle_1_1_turtle.html#a8ba08c4207fb7f8cec9a3b1aa5f2be56" target="_top" xlink:title="backEnd.turtle.Turtle.togglePen">
<polygon fill="white" stroke="black" points="396.5,-125.5 396.5,-144.5 561.5,-144.5 561.5,-125.5 396.5,-125.5"/>
<text text-anchor="middle" x="479" y="-132.5" font-family="Helvetica,sans-Serif" font-size="10.00">backEnd.turtle.Turtle.togglePen</text>
</a>
</g>
</g>
<!-- Node1&#45;&gt;Node3 -->
<g id="edge2" class="edge"><title>Node1&#45;&gt;Node3</title>
<path fill="none" stroke="midnightblue" d="M170.094,-135C233.623,-135 320.74,-135 386.099,-135"/>
<polygon fill="midnightblue" stroke="midnightblue" points="386.395,-138.5 396.395,-135 386.395,-131.5 386.395,-138.5"/>
</g>
<!-- Node4 -->
<g id="node4" class="node"><title>Node4</title>
<g id="a_node4"><a xlink:href="../../d8/d32/classback_end_1_1turtle_1_1_turtle.html#a4be1100fd698e6701dd14a9660d891f0" target="_top" xlink:title="backEnd.turtle.Turtle.toroidal\lMovement">
<polygon fill="white" stroke="black" points="206.5,-76 206.5,-106 359.5,-106 359.5,-76 206.5,-76"/>
<text text-anchor="start" x="214.5" y="-94" font-family="Helvetica,sans-Serif" font-size="10.00">backEnd.turtle.Turtle.toroidal</text>
<text text-anchor="middle" x="283" y="-83" font-family="Helvetica,sans-Serif" font-size="10.00">Movement</text>
</a>
</g>
</g>
<!-- Node1&#45;&gt;Node4 -->
<g id="edge3" class="edge"><title>Node1&#45;&gt;Node4</title>
<path fill="none" stroke="midnightblue" d="M152.904,-119.981C169.683,-116.214 187.819,-112.143 205.045,-108.276"/>
<polygon fill="midnightblue" stroke="midnightblue" points="206.075,-111.632 215.065,-106.026 204.541,-104.802 206.075,-111.632"/>
</g>
<!-- Node4&#45;&gt;Node3 -->
<g id="edge6" class="edge"><title>Node4&#45;&gt;Node3</title>
<path fill="none" stroke="midnightblue" d="M350.221,-106.019C374.986,-111.636 402.737,-117.93 426.033,-123.214"/>
<polygon fill="midnightblue" stroke="midnightblue" points="425.532,-126.689 436.059,-125.488 427.081,-119.862 425.532,-126.689"/>
</g>
<!-- Node5 -->
<g id="node5" class="node"><title>Node5</title>
<g id="a_node5"><a xlink:href="../../de/d6c/classback_end_1_1turtle_1_1_turtle_point.html#aeeb9ec0f75154354c67b92cf9486fff6" target="_top" xlink:title="backEnd.turtle.TurtlePoint.getX">
<polygon fill="white" stroke="black" points="397.5,-87.5 397.5,-106.5 560.5,-106.5 560.5,-87.5 397.5,-87.5"/>
<text text-anchor="middle" x="479" y="-94.5" font-family="Helvetica,sans-Serif" font-size="10.00">backEnd.turtle.TurtlePoint.getX</text>
</a>
</g>
</g>
<!-- Node4&#45;&gt;Node5 -->
<g id="edge4" class="edge"><title>Node4&#45;&gt;Node5</title>
<path fill="none" stroke="midnightblue" d="M359.561,-93.3369C368.528,-93.6143 377.752,-93.8995 386.905,-94.1826"/>
<polygon fill="midnightblue" stroke="midnightblue" points="387.089,-97.6899 397.193,-94.5008 387.306,-90.6933 387.089,-97.6899"/>
</g>
<!-- Node6 -->
<g id="node6" class="node"><title>Node6</title>
<g id="a_node6"><a xlink:href="../../de/d6c/classback_end_1_1turtle_1_1_turtle_point.html#ae14b87fea2bc327ead4d0277aa9fc63d" target="_top" xlink:title="backEnd.turtle.TurtlePoint.getY">
<polygon fill="white" stroke="black" points="398,-49.5 398,-68.5 560,-68.5 560,-49.5 398,-49.5"/>
<text text-anchor="middle" x="479" y="-56.5" font-family="Helvetica,sans-Serif" font-size="10.00">backEnd.turtle.TurtlePoint.getY</text>
</a>
</g>
</g>
<!-- Node4&#45;&gt;Node6 -->
<g id="edge5" class="edge"><title>Node4&#45;&gt;Node6</title>
<path fill="none" stroke="midnightblue" d="M359.561,-78.5363C376.301,-75.7751 393.937,-72.866 410.339,-70.1606"/>
<polygon fill="midnightblue" stroke="midnightblue" points="411.075,-73.5865 420.372,-68.5056 409.936,-66.6799 411.075,-73.5865"/>
</g>
<!-- Node7 -->
<g id="node7" class="node"><title>Node7</title>
<g id="a_node7"><a xlink:href="../../d8/d32/classback_end_1_1turtle_1_1_turtle.html#a39c7f943510ef25a95dd13e465e1ea09" target="_top" xlink:title="backEnd.turtle.Turtle.set\lPosition">
<polygon fill="white" stroke="black" points="413,-0 413,-30 545,-30 545,-0 413,-0"/>
<text text-anchor="start" x="421" y="-18" font-family="Helvetica,sans-Serif" font-size="10.00">backEnd.turtle.Turtle.set</text>
<text text-anchor="middle" x="479" y="-7" font-family="Helvetica,sans-Serif" font-size="10.00">Position</text>
</a>
</g>
</g>
<!-- Node4&#45;&gt;Node7 -->
<g id="edge7" class="edge"><title>Node4&#45;&gt;Node7</title>
<path fill="none" stroke="midnightblue" d="M314.44,-75.8236C336.708,-65.0468 367.823,-50.6578 396,-40 402.173,-37.6651 408.668,-35.389 415.187,-33.2214"/>
<polygon fill="midnightblue" stroke="midnightblue" points="416.291,-36.5432 424.723,-30.129 414.131,-29.8846 416.291,-36.5432"/>
</g>
<!-- Node8 -->
<g id="node8" class="node"><title>Node8</title>
<g id="a_node8"><a xlink:href="../../de/d6c/classback_end_1_1turtle_1_1_turtle_point.html#a2ab4d0602812df7e0a720c026d446941" target="_top" xlink:title="backEnd.turtle.TurtlePoint.set">
<polygon fill="white" stroke="black" points="598,-5.5 598,-24.5 754,-24.5 754,-5.5 598,-5.5"/>
<text text-anchor="middle" x="676" y="-12.5" font-family="Helvetica,sans-Serif" font-size="10.00">backEnd.turtle.TurtlePoint.set</text>
</a>
</g>
</g>
<!-- Node7&#45;&gt;Node8 -->
<g id="edge8" class="edge"><title>Node7&#45;&gt;Node8</title>
<path fill="none" stroke="midnightblue" d="M545.203,-15C558.746,-15 573.225,-15 587.421,-15"/>
<polygon fill="midnightblue" stroke="midnightblue" points="587.69,-18.5001 597.69,-15 587.69,-11.5001 587.69,-18.5001"/>
</g>
</g>
</svg>
        <g id="navigator" transform="translate(0 0)" fill="#404254">
                <rect fill="#f2f5e9" fill-opacity="0.5" stroke="#606060" stroke-width=".5" x="0" y="0" width="60" height="60"/>
                <use id="zoomplus" xlink:href="#zoomPlus" x="17" y="9" onmousedown="handleZoom(evt,'in')"/>
                <use id="zoomminus" xlink:href="#zoomMin" x="42" y="9" onmousedown="handleZoom(evt,'out')"/>
                <use id="reset" xlink:href="#resetDef" x="30" y="36" onmousedown="handleReset()"/>
                <g id="arrowUp" xlink:href="#dirArrow" transform="translate(30 24)" onmousedown="handlePan(0,-1)">
                  <use xlink:href="#rim" fill="#404040">
                        <set attributeName="fill" to="#808080" begin="arrowUp.mouseover" end="arrowUp.mouseout"/>
                  </use>
                  <path fill="none" stroke="white" stroke-width="1.5" d="M0,-3.0v7 M-2.5,-0.5L0,-3.0L2.5,-0.5"/>
                </g>
                <g id="arrowRight" xlink:href="#dirArrow" transform="rotate(90) translate(36 -43)" onmousedown="handlePan(1,0)">
                  <use xlink:href="#rim" fill="#404040">
                        <set attributeName="fill" to="#808080" begin="arrowRight.mouseover" end="arrowRight.mouseout"/>
                  </use>
                  <path fill="none" stroke="white" stroke-width="1.5" d="M0,-3.0v7 M-2.5,-0.5L0,-3.0L2.5,-0.5"/>
                </g>
                <g id="arrowDown" xlink:href="#dirArrow" transform="rotate(180) translate(-30 -48)" onmousedown="handlePan(0,1)">
                  <use xlink:href="#rim" fill="#404040">
                        <set attributeName="fill" to="#808080" begin="arrowDown.mouseover" end="arrowDown.mouseout"/>
                  </use>
                  <path fill="none" stroke="white" stroke-width="1.5" d="M0,-3.0v7 M-2.5,-0.5L0,-3.0L2.5,-0.5"/>
                </g>
                <g id="arrowLeft" xlink:href="#dirArrow" transform="rotate(270) translate(-36 17)" onmousedown="handlePan(-1,0)">
                  <use xlink:href="#rim" fill="#404040">
                        <set attributeName="fill" to="#808080" begin="arrowLeft.mouseover" end="arrowLeft.mouseout"/>
                  </use>
                  <path fill="none" stroke="white" stroke-width="1.5" d="M0,-3.0v7 M-2.5,-0.5L0,-3.0L2.5,-0.5"/>
                </g>
        </g>
        <svg viewBox="0 0 15 15" width="100%" height="30px" preserveAspectRatio="xMaxYMin meet">
         <g id="arrow_out" transform="scale(0.3 0.3)">
          <a xlink:href="classback_end_1_1turtle_1_1_turtle_a52ebe2b7a75e91579e282a4061d5b421_cgraph_org.svg" target="_base">
           <rect id="button" ry="5" rx="5" y="6" x="6" height="38" width="38"
                fill="#f2f5e9" fill-opacity="0.5" stroke="#606060" stroke-width="1.0"/>
           <path id="arrow"
             d="M 11.500037,31.436501 C 11.940474,20.09759 22.043105,11.32322 32.158766,21.979434 L 37.068811,17.246167 C 37.068811,17.246167 37.088388,32 37.088388,32 L 22.160133,31.978069 C 22.160133,31.978069 26.997745,27.140456 26.997745,27.140456 C 18.528582,18.264221 13.291696,25.230495 11.500037,31.436501 z"
             style="fill:#404040;"/>
          </a>
         </g>
        </svg>
</svg>
