<?xml version="1.0" encoding="UTF-8" standalone="no"?>
<!DOCTYPE svg PUBLIC "-//W3C//DTD SVG 1.1//EN"
 "http://www.w3.org/Graphics/SVG/1.1/DTD/svg11.dtd">
<!-- Generated by graphviz version 2.36.0 (20140111.2315)
 -->
<!-- Title: backEnd.turtle.Turtle.toroidalMovement Pages: 1 -->
<svg width="556pt" height="154pt"
 viewBox="0.00 0.00 556.00 154.00" xmlns="http://www.w3.org/2000/svg" xmlns:xlink="http://www.w3.org/1999/xlink">
<g id="graph0" class="graph" transform="scale(1 1) rotate(0) translate(4 150)">
<title>backEnd.turtle.Turtle.toroidalMovement</title>
<polygon fill="white" stroke="none" points="-4,4 -4,-150 552,-150 552,4 -4,4"/>
<!-- Node1 -->
<g id="node1" class="node"><title>Node1</title>
<polygon fill="#bfbfbf" stroke="black" points="0.5,-61 0.5,-91 153.5,-91 153.5,-61 0.5,-61"/>
<text text-anchor="start" x="8.5" y="-79" font-family="Helvetica,sans-Serif" font-size="10.00">backEnd.turtle.Turtle.toroidal</text>
<text text-anchor="middle" x="77" y="-68" font-family="Helvetica,sans-Serif" font-size="10.00">Movement</text>
</g>
<!-- Node2 -->
<g id="node2" class="node"><title>Node2</title>
<g id="a_node2"><a xlink:href="../../de/d6c/classback_end_1_1turtle_1_1_turtle_point.html#aeeb9ec0f75154354c67b92cf9486fff6" target="_top" xlink:title="backEnd.turtle.TurtlePoint.getX">
<polygon fill="white" stroke="black" points="191.5,-126.5 191.5,-145.5 354.5,-145.5 354.5,-126.5 191.5,-126.5"/>
<text text-anchor="middle" x="273" y="-133.5" font-family="Helvetica,sans-Serif" font-size="10.00">backEnd.turtle.TurtlePoint.getX</text>
</a>
</g>
</g>
<!-- Node1&#45;&gt;Node2 -->
<g id="edge1" class="edge"><title>Node1&#45;&gt;Node2</title>
<path fill="none" stroke="midnightblue" d="M115.457,-91.0253C137.035,-99.3487 164.796,-109.498 190,-117 198.446,-119.514 207.463,-121.898 216.314,-124.074"/>
<polygon fill="midnightblue" stroke="midnightblue" points="215.656,-127.515 226.196,-126.437 217.285,-120.707 215.656,-127.515"/>
</g>
<!-- Node3 -->
<g id="node3" class="node"><title>Node3</title>
<g id="a_node3"><a xlink:href="../../de/d6c/classback_end_1_1turtle_1_1_turtle_point.html#ae14b87fea2bc327ead4d0277aa9fc63d" target="_top" xlink:title="backEnd.turtle.TurtlePoint.getY">
<polygon fill="white" stroke="black" points="192,-88.5 192,-107.5 354,-107.5 354,-88.5 192,-88.5"/>
<text text-anchor="middle" x="273" y="-95.5" font-family="Helvetica,sans-Serif" font-size="10.00">backEnd.turtle.TurtlePoint.getY</text>
</a>
</g>
</g>
<!-- Node1&#45;&gt;Node3 -->
<g id="edge2" class="edge"><title>Node1&#45;&gt;Node3</title>
<path fill="none" stroke="midnightblue" d="M153.561,-84.5688C162.78,-85.6143 172.272,-86.6906 181.679,-87.7574"/>
<polygon fill="midnightblue" stroke="midnightblue" points="181.506,-91.2602 191.837,-88.9093 182.295,-84.3048 181.506,-91.2602"/>
</g>
<!-- Node4 -->
<g id="node4" class="node"><title>Node4</title>
<g id="a_node4"><a xlink:href="../../d8/d32/classback_end_1_1turtle_1_1_turtle.html#a39c7f943510ef25a95dd13e465e1ea09" target="_top" xlink:title="backEnd.turtle.Turtle.set\lPosition">
<polygon fill="white" stroke="black" points="207,-39 207,-69 339,-69 339,-39 207,-39"/>
<text text-anchor="start" x="215" y="-57" font-family="Helvetica,sans-Serif" font-size="10.00">backEnd.turtle.Turtle.set</text>
<text text-anchor="middle" x="273" y="-46" font-family="Helvetica,sans-Serif" font-size="10.00">Position</text>
</a>
</g>
</g>
<!-- Node1&#45;&gt;Node4 -->
<g id="edge3" class="edge"><title>Node1&#45;&gt;Node4</title>
<path fill="none" stroke="midnightblue" d="M153.561,-67.4312C167.687,-65.8293 182.451,-64.155 196.573,-62.5536"/>
<polygon fill="midnightblue" stroke="midnightblue" points="197.182,-66.007 206.724,-61.4024 196.393,-59.0516 197.182,-66.007"/>
</g>
<!-- Node6 -->
<g id="node6" class="node"><title>Node6</title>
<g id="a_node6"><a xlink:href="../../d8/d32/classback_end_1_1turtle_1_1_turtle.html#a8ba08c4207fb7f8cec9a3b1aa5f2be56" target="_top" xlink:title="backEnd.turtle.Turtle.togglePen">
<polygon fill="white" stroke="black" points="190.5,-0.5 190.5,-19.5 355.5,-19.5 355.5,-0.5 190.5,-0.5"/>
<text text-anchor="middle" x="273" y="-7.5" font-family="Helvetica,sans-Serif" font-size="10.00">backEnd.turtle.Turtle.togglePen</text>
</a>
</g>
</g>
<!-- Node1&#45;&gt;Node6 -->
<g id="edge5" class="edge"><title>Node1&#45;&gt;Node6</title>
<path fill="none" stroke="midnightblue" d="M110.836,-60.9823C132.904,-51.2724 162.814,-38.8426 190,-30 198.801,-27.1374 208.25,-24.47 217.492,-22.0757"/>
<polygon fill="midnightblue" stroke="midnightblue" points="218.552,-25.4183 227.399,-19.5885 216.847,-18.629 218.552,-25.4183"/>
</g>
<!-- Node5 -->
<g id="node5" class="node"><title>Node5</title>
<g id="a_node5"><a xlink:href="../../de/d6c/classback_end_1_1turtle_1_1_turtle_point.html#a2ab4d0602812df7e0a720c026d446941" target="_top" xlink:title="backEnd.turtle.TurtlePoint.set">
<polygon fill="white" stroke="black" points="392,-44.5 392,-63.5 548,-63.5 548,-44.5 392,-44.5"/>
<text text-anchor="middle" x="470" y="-51.5" font-family="Helvetica,sans-Serif" font-size="10.00">backEnd.turtle.TurtlePoint.set</text>
</a>
</g>
</g>
<!-- Node4&#45;&gt;Node5 -->
<g id="edge4" class="edge"><title>Node4&#45;&gt;Node5</title>
<path fill="none" stroke="midnightblue" d="M339.203,-54C352.746,-54 367.225,-54 381.421,-54"/>
<polygon fill="midnightblue" stroke="midnightblue" points="381.69,-57.5001 391.69,-54 381.69,-50.5001 381.69,-57.5001"/>
</g>
</g>
</svg>
