<?xml version="1.0" encoding="UTF-8" standalone="no"?>
<!DOCTYPE svg PUBLIC "-//W3C//DTD SVG 1.1//EN"
 "http://www.w3.org/Graphics/SVG/1.1/DTD/svg11.dtd">
<!-- Generated by graphviz version 2.36.0 (20140111.2315)
 -->
<!-- Title: backEnd.turtle.Turtle.goTo Pages: 1 -->
<svg width="366pt" height="66pt"
 viewBox="0.00 0.00 366.00 66.00" xmlns="http://www.w3.org/2000/svg" xmlns:xlink="http://www.w3.org/1999/xlink">
<g id="graph0" class="graph" transform="scale(1 1) rotate(0) translate(4 62)">
<title>backEnd.turtle.Turtle.goTo</title>
<polygon fill="white" stroke="none" points="-4,4 -4,-62 362,-62 362,4 -4,4"/>
<!-- Node1 -->
<g id="node1" class="node"><title>Node1</title>
<polygon fill="#bfbfbf" stroke="black" points="0.5,-19.5 0.5,-38.5 139.5,-38.5 139.5,-19.5 0.5,-19.5"/>
<text text-anchor="middle" x="70" y="-26.5" font-family="Helvetica,sans-Serif" font-size="10.00">backEnd.turtle.Turtle.goTo</text>
</g>
<!-- Node2 -->
<g id="node2" class="node"><title>Node2</title>
<g id="a_node2"><a xlink:href="../../de/d6c/classback_end_1_1turtle_1_1_turtle_point.html#ab5daa76e1996024fc47f038e7c5dcccb" target="_top" xlink:title="backEnd.turtle.TurtlePoint.distance">
<polygon fill="white" stroke="black" points="176,-38.5 176,-57.5 358,-57.5 358,-38.5 176,-38.5"/>
<text text-anchor="middle" x="267" y="-45.5" font-family="Helvetica,sans-Serif" font-size="10.00">backEnd.turtle.TurtlePoint.distance</text>
</a>
</g>
</g>
<!-- Node1&#45;&gt;Node2 -->
<g id="edge1" class="edge"><title>Node1&#45;&gt;Node2</title>
<path fill="none" stroke="midnightblue" d="M139.75,-35.6987C148.104,-36.5127 156.767,-37.3568 165.463,-38.2041"/>
<polygon fill="midnightblue" stroke="midnightblue" points="165.377,-41.7122 175.669,-39.1985 166.055,-34.7451 165.377,-41.7122"/>
</g>
<!-- Node3 -->
<g id="node3" class="node"><title>Node3</title>
<g id="a_node3"><a xlink:href="../../de/d6c/classback_end_1_1turtle_1_1_turtle_point.html#a2ab4d0602812df7e0a720c026d446941" target="_top" xlink:title="backEnd.turtle.TurtlePoint.set">
<polygon fill="white" stroke="black" points="189,-0.5 189,-19.5 345,-19.5 345,-0.5 189,-0.5"/>
<text text-anchor="middle" x="267" y="-7.5" font-family="Helvetica,sans-Serif" font-size="10.00">backEnd.turtle.TurtlePoint.set</text>
</a>
</g>
</g>
<!-- Node1&#45;&gt;Node3 -->
<g id="edge2" class="edge"><title>Node1&#45;&gt;Node3</title>
<path fill="none" stroke="midnightblue" d="M139.75,-22.3013C152.42,-21.0668 165.801,-19.763 178.927,-18.484"/>
<polygon fill="midnightblue" stroke="midnightblue" points="179.286,-21.9658 188.899,-17.5124 178.607,-14.9987 179.286,-21.9658"/>
</g>
</g>
</svg>
