<?xml version="1.0" encoding="UTF-8" standalone="no"?>
<!DOCTYPE svg PUBLIC "-//W3C//DTD SVG 1.1//EN"
 "http://www.w3.org/Graphics/SVG/1.1/DTD/svg11.dtd">
<!-- Generated by graphviz version 2.36.0 (20140111.2315)
 -->
<!-- Title: backEnd.turtle.Turtle.setOrientation Pages: 1 -->
<svg width="314pt" height="87pt"
 viewBox="0.00 0.00 314.00 87.00" xmlns="http://www.w3.org/2000/svg" xmlns:xlink="http://www.w3.org/1999/xlink">
<g id="graph0" class="graph" transform="scale(1 1) rotate(0) translate(4 83)">
<title>backEnd.turtle.Turtle.setOrientation</title>
<polygon fill="white" stroke="none" points="-4,4 -4,-83 310,-83 310,4 -4,4"/>
<!-- Node1 -->
<g id="node1" class="node"><title>Node1</title>
<polygon fill="#bfbfbf" stroke="black" points="0,-24 0,-54 132,-54 132,-24 0,-24"/>
<text text-anchor="start" x="8" y="-42" font-family="Helvetica,sans-Serif" font-size="10.00">backEnd.turtle.Turtle.set</text>
<text text-anchor="middle" x="66" y="-31" font-family="Helvetica,sans-Serif" font-size="10.00">Orientation</text>
</g>
<!-- Node2 -->
<g id="node2" class="node"><title>Node2</title>
<g id="a_node2"><a xlink:href="../../d8/d32/classback_end_1_1turtle_1_1_turtle.html#a4547aed4983f4ef942df0e3376fc11b3" target="_top" xlink:title="backEnd.turtle.Turtle.turn\lTowards">
<polygon fill="white" stroke="black" points="168.5,-49 168.5,-79 305.5,-79 305.5,-49 168.5,-49"/>
<text text-anchor="start" x="176.5" y="-67" font-family="Helvetica,sans-Serif" font-size="10.00">backEnd.turtle.Turtle.turn</text>
<text text-anchor="middle" x="237" y="-56" font-family="Helvetica,sans-Serif" font-size="10.00">Towards</text>
</a>
</g>
</g>
<!-- Node1&#45;&gt;Node2 -->
<g id="edge1" class="edge"><title>Node1&#45;&gt;Node2</title>
<path fill="none" stroke="midnightblue" d="M142.396,-50.1532C151.031,-51.4306 159.794,-52.727 168.32,-53.9881"/>
<polygon fill="midnightblue" stroke="midnightblue" points="142.744,-46.6668 132.34,-48.6657 141.72,-53.5914 142.744,-46.6668"/>
</g>
<!-- Node3 -->
<g id="node3" class="node"><title>Node3</title>
<g id="a_node3"><a xlink:href="../../d8/d32/classback_end_1_1turtle_1_1_turtle.html#a0274006366ab00d8b0a28e1a17026c3c" target="_top" xlink:title="backEnd.turtle.Turtle.turn\lTurtle">
<polygon fill="white" stroke="black" points="168.5,-0 168.5,-30 305.5,-30 305.5,-0 168.5,-0"/>
<text text-anchor="start" x="176.5" y="-18" font-family="Helvetica,sans-Serif" font-size="10.00">backEnd.turtle.Turtle.turn</text>
<text text-anchor="middle" x="237" y="-7" font-family="Helvetica,sans-Serif" font-size="10.00">Turtle</text>
</a>
</g>
</g>
<!-- Node1&#45;&gt;Node3 -->
<g id="edge2" class="edge"><title>Node1&#45;&gt;Node3</title>
<path fill="none" stroke="midnightblue" d="M142.396,-28.2929C151.031,-27.0666 159.794,-25.8221 168.32,-24.6114"/>
<polygon fill="midnightblue" stroke="midnightblue" points="141.748,-24.8496 132.34,-29.721 142.733,-31.7801 141.748,-24.8496"/>
</g>
</g>
</svg>
