<?xml version="1.0" encoding="UTF-8" standalone="no"?>
<!DOCTYPE svg PUBLIC "-//W3C//DTD SVG 1.1//EN"
 "http://www.w3.org/Graphics/SVG/1.1/DTD/svg11.dtd">
<!-- Generated by graphviz version 2.36.0 (20140111.2315)
 -->
<!-- Title: backEnd.turtle.Turtle.moveTurtle Pages: 1 -->
<svg width="942pt" height="207pt"
 viewBox="0.00 0.00 942.00 207.00" xmlns="http://www.w3.org/2000/svg" xmlns:xlink="http://www.w3.org/1999/xlink">
<g id="graph0" class="graph" transform="scale(1 1) rotate(0) translate(4 203)">
<title>backEnd.turtle.Turtle.moveTurtle</title>
<polygon fill="white" stroke="none" points="-4,4 -4,-203 938,-203 938,4 -4,4"/>
<!-- Node1 -->
<g id="node1" class="node"><title>Node1</title>
<polygon fill="#bfbfbf" stroke="black" points="0,-144 0,-174 144,-174 144,-144 0,-144"/>
<text text-anchor="start" x="8" y="-162" font-family="Helvetica,sans-Serif" font-size="10.00">backEnd.turtle.Turtle.move</text>
<text text-anchor="middle" x="72" y="-151" font-family="Helvetica,sans-Serif" font-size="10.00">Turtle</text>
</g>
<!-- Node2 -->
<g id="node2" class="node"><title>Node2</title>
<g id="a_node2"><a xlink:href="../../d8/d32/classback_end_1_1turtle_1_1_turtle.html#aa1f8502163affe21e6654bc2bf1d4a12" target="_top" xlink:title="backEnd.turtle.Turtle.is\lPenDown">
<polygon fill="white" stroke="black" points="202.5,-169 202.5,-199 327.5,-199 327.5,-169 202.5,-169"/>
<text text-anchor="start" x="210.5" y="-187" font-family="Helvetica,sans-Serif" font-size="10.00">backEnd.turtle.Turtle.is</text>
<text text-anchor="middle" x="265" y="-176" font-family="Helvetica,sans-Serif" font-size="10.00">PenDown</text>
</a>
</g>
</g>
<!-- Node1&#45;&gt;Node2 -->
<g id="edge1" class="edge"><title>Node1&#45;&gt;Node2</title>
<path fill="none" stroke="midnightblue" d="M144.121,-168.309C159.782,-170.359 176.38,-172.531 192.073,-174.585"/>
<polygon fill="midnightblue" stroke="midnightblue" points="191.865,-178.088 202.235,-175.916 192.774,-171.147 191.865,-178.088"/>
</g>
<!-- Node3 -->
<g id="node3" class="node"><title>Node3</title>
<g id="a_node3"><a xlink:href="../../d8/d32/classback_end_1_1turtle_1_1_turtle.html#a52ebe2b7a75e91579e282a4061d5b421" target="_top" xlink:title="backEnd.turtle.Turtle.movement\lHelper">
<polygon fill="white" stroke="black" points="180,-120 180,-150 350,-150 350,-120 180,-120"/>
<text text-anchor="start" x="188" y="-138" font-family="Helvetica,sans-Serif" font-size="10.00">backEnd.turtle.Turtle.movement</text>
<text text-anchor="middle" x="265" y="-127" font-family="Helvetica,sans-Serif" font-size="10.00">Helper</text>
</a>
</g>
</g>
<!-- Node1&#45;&gt;Node3 -->
<g id="edge2" class="edge"><title>Node1&#45;&gt;Node3</title>
<path fill="none" stroke="midnightblue" d="M144.121,-150.063C152.507,-149.01 161.161,-147.922 169.801,-146.836"/>
<polygon fill="midnightblue" stroke="midnightblue" points="170.435,-150.284 179.921,-145.565 169.562,-143.339 170.435,-150.284"/>
</g>
<!-- Node4 -->
<g id="node4" class="node"><title>Node4</title>
<g id="a_node4"><a xlink:href="../../d8/d32/classback_end_1_1turtle_1_1_turtle.html#a2f7c26eedf8b3a2b6e4521360600d567" target="_top" xlink:title="backEnd.turtle.Turtle.get\lOrientation">
<polygon fill="white" stroke="black" points="396.5,-164 396.5,-194 529.5,-194 529.5,-164 396.5,-164"/>
<text text-anchor="start" x="404.5" y="-182" font-family="Helvetica,sans-Serif" font-size="10.00">backEnd.turtle.Turtle.get</text>
<text text-anchor="middle" x="463" y="-171" font-family="Helvetica,sans-Serif" font-size="10.00">Orientation</text>
</a>
</g>
</g>
<!-- Node3&#45;&gt;Node4 -->
<g id="edge3" class="edge"><title>Node3&#45;&gt;Node4</title>
<path fill="none" stroke="midnightblue" d="M332.904,-150.019C350.054,-153.869 368.622,-158.038 386.186,-161.98"/>
<polygon fill="midnightblue" stroke="midnightblue" points="385.869,-165.496 396.393,-164.272 387.403,-158.666 385.869,-165.496"/>
</g>
<!-- Node5 -->
<g id="node5" class="node"><title>Node5</title>
<g id="a_node5"><a xlink:href="../../d8/d32/classback_end_1_1turtle_1_1_turtle.html#a8ba08c4207fb7f8cec9a3b1aa5f2be56" target="_top" xlink:title="backEnd.turtle.Turtle.togglePen">
<polygon fill="white" stroke="black" points="576.5,-125.5 576.5,-144.5 741.5,-144.5 741.5,-125.5 576.5,-125.5"/>
<text text-anchor="middle" x="659" y="-132.5" font-family="Helvetica,sans-Serif" font-size="10.00">backEnd.turtle.Turtle.togglePen</text>
</a>
</g>
</g>
<!-- Node3&#45;&gt;Node5 -->
<g id="edge4" class="edge"><title>Node3&#45;&gt;Node5</title>
<path fill="none" stroke="midnightblue" d="M350.094,-135C413.623,-135 500.74,-135 566.099,-135"/>
<polygon fill="midnightblue" stroke="midnightblue" points="566.395,-138.5 576.395,-135 566.395,-131.5 566.395,-138.5"/>
</g>
<!-- Node6 -->
<g id="node6" class="node"><title>Node6</title>
<g id="a_node6"><a xlink:href="../../d8/d32/classback_end_1_1turtle_1_1_turtle.html#a4be1100fd698e6701dd14a9660d891f0" target="_top" xlink:title="backEnd.turtle.Turtle.toroidal\lMovement">
<polygon fill="white" stroke="black" points="386.5,-76 386.5,-106 539.5,-106 539.5,-76 386.5,-76"/>
<text text-anchor="start" x="394.5" y="-94" font-family="Helvetica,sans-Serif" font-size="10.00">backEnd.turtle.Turtle.toroidal</text>
<text text-anchor="middle" x="463" y="-83" font-family="Helvetica,sans-Serif" font-size="10.00">Movement</text>
</a>
</g>
</g>
<!-- Node3&#45;&gt;Node6 -->
<g id="edge5" class="edge"><title>Node3&#45;&gt;Node6</title>
<path fill="none" stroke="midnightblue" d="M332.904,-119.981C349.683,-116.214 367.819,-112.143 385.045,-108.276"/>
<polygon fill="midnightblue" stroke="midnightblue" points="386.075,-111.632 395.065,-106.026 384.541,-104.802 386.075,-111.632"/>
</g>
<!-- Node6&#45;&gt;Node5 -->
<g id="edge8" class="edge"><title>Node6&#45;&gt;Node5</title>
<path fill="none" stroke="midnightblue" d="M530.221,-106.019C554.986,-111.636 582.737,-117.93 606.033,-123.214"/>
<polygon fill="midnightblue" stroke="midnightblue" points="605.532,-126.689 616.059,-125.488 607.081,-119.862 605.532,-126.689"/>
</g>
<!-- Node7 -->
<g id="node7" class="node"><title>Node7</title>
<g id="a_node7"><a xlink:href="../../de/d6c/classback_end_1_1turtle_1_1_turtle_point.html#aeeb9ec0f75154354c67b92cf9486fff6" target="_top" xlink:title="backEnd.turtle.TurtlePoint.getX">
<polygon fill="white" stroke="black" points="577.5,-87.5 577.5,-106.5 740.5,-106.5 740.5,-87.5 577.5,-87.5"/>
<text text-anchor="middle" x="659" y="-94.5" font-family="Helvetica,sans-Serif" font-size="10.00">backEnd.turtle.TurtlePoint.getX</text>
</a>
</g>
</g>
<!-- Node6&#45;&gt;Node7 -->
<g id="edge6" class="edge"><title>Node6&#45;&gt;Node7</title>
<path fill="none" stroke="midnightblue" d="M539.561,-93.3369C548.528,-93.6143 557.752,-93.8995 566.905,-94.1826"/>
<polygon fill="midnightblue" stroke="midnightblue" points="567.089,-97.6899 577.193,-94.5008 567.306,-90.6933 567.089,-97.6899"/>
</g>
<!-- Node8 -->
<g id="node8" class="node"><title>Node8</title>
<g id="a_node8"><a xlink:href="../../de/d6c/classback_end_1_1turtle_1_1_turtle_point.html#ae14b87fea2bc327ead4d0277aa9fc63d" target="_top" xlink:title="backEnd.turtle.TurtlePoint.getY">
<polygon fill="white" stroke="black" points="578,-49.5 578,-68.5 740,-68.5 740,-49.5 578,-49.5"/>
<text text-anchor="middle" x="659" y="-56.5" font-family="Helvetica,sans-Serif" font-size="10.00">backEnd.turtle.TurtlePoint.getY</text>
</a>
</g>
</g>
<!-- Node6&#45;&gt;Node8 -->
<g id="edge7" class="edge"><title>Node6&#45;&gt;Node8</title>
<path fill="none" stroke="midnightblue" d="M539.561,-78.5363C556.301,-75.7751 573.937,-72.866 590.339,-70.1606"/>
<polygon fill="midnightblue" stroke="midnightblue" points="591.075,-73.5865 600.372,-68.5056 589.936,-66.6799 591.075,-73.5865"/>
</g>
<!-- Node9 -->
<g id="node9" class="node"><title>Node9</title>
<g id="a_node9"><a xlink:href="../../d8/d32/classback_end_1_1turtle_1_1_turtle.html#a39c7f943510ef25a95dd13e465e1ea09" target="_top" xlink:title="backEnd.turtle.Turtle.set\lPosition">
<polygon fill="white" stroke="black" points="593,-0 593,-30 725,-30 725,-0 593,-0"/>
<text text-anchor="start" x="601" y="-18" font-family="Helvetica,sans-Serif" font-size="10.00">backEnd.turtle.Turtle.set</text>
<text text-anchor="middle" x="659" y="-7" font-family="Helvetica,sans-Serif" font-size="10.00">Position</text>
</a>
</g>
</g>
<!-- Node6&#45;&gt;Node9 -->
<g id="edge9" class="edge"><title>Node6&#45;&gt;Node9</title>
<path fill="none" stroke="midnightblue" d="M494.44,-75.8236C516.708,-65.0468 547.823,-50.6578 576,-40 582.173,-37.6651 588.668,-35.389 595.187,-33.2214"/>
<polygon fill="midnightblue" stroke="midnightblue" points="596.291,-36.5432 604.723,-30.129 594.131,-29.8846 596.291,-36.5432"/>
</g>
<!-- Node10 -->
<g id="node10" class="node"><title>Node10</title>
<g id="a_node10"><a xlink:href="../../de/d6c/classback_end_1_1turtle_1_1_turtle_point.html#a2ab4d0602812df7e0a720c026d446941" target="_top" xlink:title="backEnd.turtle.TurtlePoint.set">
<polygon fill="white" stroke="black" points="778,-5.5 778,-24.5 934,-24.5 934,-5.5 778,-5.5"/>
<text text-anchor="middle" x="856" y="-12.5" font-family="Helvetica,sans-Serif" font-size="10.00">backEnd.turtle.TurtlePoint.set</text>
</a>
</g>
</g>
<!-- Node9&#45;&gt;Node10 -->
<g id="edge10" class="edge"><title>Node9&#45;&gt;Node10</title>
<path fill="none" stroke="midnightblue" d="M725.203,-15C738.746,-15 753.225,-15 767.421,-15"/>
<polygon fill="midnightblue" stroke="midnightblue" points="767.69,-18.5001 777.69,-15 767.69,-11.5001 767.69,-18.5001"/>
</g>
</g>
</svg>
