<?xml version="1.0" encoding="UTF-8" standalone="no"?>
<!DOCTYPE svg PUBLIC "-//W3C//DTD SVG 1.1//EN"
 "http://www.w3.org/Graphics/SVG/1.1/DTD/svg11.dtd">
<!-- Generated by graphviz version 2.36.0 (20140111.2315)
 -->
<!-- Title: backEnd.turtle.Turtle.setPosition Pages: 1 -->
<svg width="716pt" height="38pt"
 viewBox="0.00 0.00 716.00 38.00" xmlns="http://www.w3.org/2000/svg" xmlns:xlink="http://www.w3.org/1999/xlink">
<g id="graph0" class="graph" transform="scale(1 1) rotate(0) translate(4 34)">
<title>backEnd.turtle.Turtle.setPosition</title>
<polygon fill="white" stroke="none" points="-4,4 -4,-34 712,-34 712,4 -4,4"/>
<!-- Node1 -->
<g id="node1" class="node"><title>Node1</title>
<polygon fill="#bfbfbf" stroke="black" points="0,-0 0,-30 132,-30 132,-0 0,-0"/>
<text text-anchor="start" x="8" y="-18" font-family="Helvetica,sans-Serif" font-size="10.00">backEnd.turtle.Turtle.set</text>
<text text-anchor="middle" x="66" y="-7" font-family="Helvetica,sans-Serif" font-size="10.00">Position</text>
</g>
<!-- Node2 -->
<g id="node2" class="node"><title>Node2</title>
<g id="a_node2"><a xlink:href="../../d8/d32/classback_end_1_1turtle_1_1_turtle.html#a4be1100fd698e6701dd14a9660d891f0" target="_top" xlink:title="backEnd.turtle.Turtle.toroidal\lMovement">
<polygon fill="white" stroke="black" points="168.5,-0 168.5,-30 321.5,-30 321.5,-0 168.5,-0"/>
<text text-anchor="start" x="176.5" y="-18" font-family="Helvetica,sans-Serif" font-size="10.00">backEnd.turtle.Turtle.toroidal</text>
<text text-anchor="middle" x="245" y="-7" font-family="Helvetica,sans-Serif" font-size="10.00">Movement</text>
</a>
</g>
</g>
<!-- Node1&#45;&gt;Node2 -->
<g id="edge1" class="edge"><title>Node1&#45;&gt;Node2</title>
<path fill="none" stroke="midnightblue" d="M142.171,-15C150.789,-15 159.579,-15 168.204,-15"/>
<polygon fill="midnightblue" stroke="midnightblue" points="142.154,-11.5001 132.154,-15 142.154,-18.5001 142.154,-11.5001"/>
</g>
<!-- Node3 -->
<g id="node3" class="node"><title>Node3</title>
<g id="a_node3"><a xlink:href="../../d8/d32/classback_end_1_1turtle_1_1_turtle.html#a52ebe2b7a75e91579e282a4061d5b421" target="_top" xlink:title="backEnd.turtle.Turtle.movement\lHelper">
<polygon fill="white" stroke="black" points="358,-0 358,-30 528,-30 528,-0 358,-0"/>
<text text-anchor="start" x="366" y="-18" font-family="Helvetica,sans-Serif" font-size="10.00">backEnd.turtle.Turtle.movement</text>
<text text-anchor="middle" x="443" y="-7" font-family="Helvetica,sans-Serif" font-size="10.00">Helper</text>
</a>
</g>
</g>
<!-- Node2&#45;&gt;Node3 -->
<g id="edge2" class="edge"><title>Node2&#45;&gt;Node3</title>
<path fill="none" stroke="midnightblue" d="M331.869,-15C340.528,-15 349.316,-15 357.957,-15"/>
<polygon fill="midnightblue" stroke="midnightblue" points="331.779,-11.5001 321.779,-15 331.779,-18.5001 331.779,-11.5001"/>
</g>
<!-- Node4 -->
<g id="node4" class="node"><title>Node4</title>
<g id="a_node4"><a xlink:href="../../d8/d32/classback_end_1_1turtle_1_1_turtle.html#a5a93690c08c2a024ea6eaf75293f7111" target="_top" xlink:title="backEnd.turtle.Turtle.move\lTurtle">
<polygon fill="white" stroke="black" points="564,-0 564,-30 708,-30 708,-0 564,-0"/>
<text text-anchor="start" x="572" y="-18" font-family="Helvetica,sans-Serif" font-size="10.00">backEnd.turtle.Turtle.move</text>
<text text-anchor="middle" x="636" y="-7" font-family="Helvetica,sans-Serif" font-size="10.00">Turtle</text>
</a>
</g>
</g>
<!-- Node3&#45;&gt;Node4 -->
<g id="edge3" class="edge"><title>Node3&#45;&gt;Node4</title>
<path fill="none" stroke="midnightblue" d="M538.143,-15C546.758,-15 555.387,-15 563.751,-15"/>
<polygon fill="midnightblue" stroke="midnightblue" points="538.053,-11.5001 528.053,-15 538.053,-18.5001 538.053,-11.5001"/>
</g>
</g>
</svg>
