<?xml version="1.0" encoding="UTF-8" standalone="no"?>
<!DOCTYPE svg PUBLIC "-//W3C//DTD SVG 1.1//EN"
 "http://www.w3.org/Graphics/SVG/1.1/DTD/svg11.dtd">
<!-- Generated by graphviz version 2.36.0 (20140111.2315)
 -->
<!-- Title: backEnd.turtle.Turtle.turnTowards Pages: 1 -->
<svg width="346pt" height="115pt"
 viewBox="0.00 0.00 346.00 115.00" xmlns="http://www.w3.org/2000/svg" xmlns:xlink="http://www.w3.org/1999/xlink">
<g id="graph0" class="graph" transform="scale(1 1) rotate(0) translate(4 111)">
<title>backEnd.turtle.Turtle.turnTowards</title>
<polygon fill="white" stroke="none" points="-4,4 -4,-111 342,-111 342,4 -4,4"/>
<!-- Node1 -->
<g id="node1" class="node"><title>Node1</title>
<polygon fill="#bfbfbf" stroke="black" points="0.5,-44 0.5,-74 137.5,-74 137.5,-44 0.5,-44"/>
<text text-anchor="start" x="8.5" y="-62" font-family="Helvetica,sans-Serif" font-size="10.00">backEnd.turtle.Turtle.turn</text>
<text text-anchor="middle" x="69" y="-51" font-family="Helvetica,sans-Serif" font-size="10.00">Towards</text>
</g>
<!-- Node2 -->
<g id="node2" class="node"><title>Node2</title>
<g id="a_node2"><a xlink:href="../../de/d6c/classback_end_1_1turtle_1_1_turtle_point.html#aeeb9ec0f75154354c67b92cf9486fff6" target="_top" xlink:title="backEnd.turtle.TurtlePoint.getX">
<polygon fill="white" stroke="black" points="174.5,-87.5 174.5,-106.5 337.5,-106.5 337.5,-87.5 174.5,-87.5"/>
<text text-anchor="middle" x="256" y="-94.5" font-family="Helvetica,sans-Serif" font-size="10.00">backEnd.turtle.TurtlePoint.getX</text>
</a>
</g>
</g>
<!-- Node1&#45;&gt;Node2 -->
<g id="edge1" class="edge"><title>Node1&#45;&gt;Node2</title>
<path fill="none" stroke="midnightblue" d="M137.575,-72.8802C157.703,-77.0147 179.533,-81.4986 198.848,-85.4661"/>
<polygon fill="midnightblue" stroke="midnightblue" points="198.198,-88.9055 208.698,-87.4892 199.606,-82.0487 198.198,-88.9055"/>
</g>
<!-- Node3 -->
<g id="node3" class="node"><title>Node3</title>
<g id="a_node3"><a xlink:href="../../de/d6c/classback_end_1_1turtle_1_1_turtle_point.html#ae14b87fea2bc327ead4d0277aa9fc63d" target="_top" xlink:title="backEnd.turtle.TurtlePoint.getY">
<polygon fill="white" stroke="black" points="175,-49.5 175,-68.5 337,-68.5 337,-49.5 175,-49.5"/>
<text text-anchor="middle" x="256" y="-56.5" font-family="Helvetica,sans-Serif" font-size="10.00">backEnd.turtle.TurtlePoint.getY</text>
</a>
</g>
</g>
<!-- Node1&#45;&gt;Node3 -->
<g id="edge2" class="edge"><title>Node1&#45;&gt;Node3</title>
<path fill="none" stroke="midnightblue" d="M137.575,-59C146.349,-59 155.447,-59 164.518,-59"/>
<polygon fill="midnightblue" stroke="midnightblue" points="164.731,-62.5001 174.731,-59 164.731,-55.5001 164.731,-62.5001"/>
</g>
<!-- Node4 -->
<g id="node4" class="node"><title>Node4</title>
<g id="a_node4"><a xlink:href="../../d8/d32/classback_end_1_1turtle_1_1_turtle.html#aec5888b31c85cb08b17e0970c7eeae97" target="_top" xlink:title="backEnd.turtle.Turtle.set\lOrientation">
<polygon fill="white" stroke="black" points="190,-0 190,-30 322,-30 322,-0 190,-0"/>
<text text-anchor="start" x="198" y="-18" font-family="Helvetica,sans-Serif" font-size="10.00">backEnd.turtle.Turtle.set</text>
<text text-anchor="middle" x="256" y="-7" font-family="Helvetica,sans-Serif" font-size="10.00">Orientation</text>
</a>
</g>
</g>
<!-- Node1&#45;&gt;Node4 -->
<g id="edge3" class="edge"><title>Node1&#45;&gt;Node4</title>
<path fill="none" stroke="midnightblue" d="M133.149,-43.9808C148.839,-40.2492 165.785,-36.2186 181.908,-32.384"/>
<polygon fill="midnightblue" stroke="midnightblue" points="182.903,-35.7451 191.822,-30.0262 181.283,-28.9351 182.903,-35.7451"/>
</g>
</g>
</svg>
