<?xml version="1.0" encoding="UTF-8" standalone="no"?>
<!DOCTYPE svg PUBLIC "-//W3C//DTD SVG 1.1//EN"
 "http://www.w3.org/Graphics/SVG/1.1/DTD/svg11.dtd">
<!-- Generated by graphviz version 2.36.0 (20140111.2315)
 -->
<!-- Title: backEnd.turtle.Turtle.turnTurtle Pages: 1 -->
<svg width="316pt" height="87pt"
 viewBox="0.00 0.00 316.00 87.00" xmlns="http://www.w3.org/2000/svg" xmlns:xlink="http://www.w3.org/1999/xlink">
<g id="graph0" class="graph" transform="scale(1 1) rotate(0) translate(4 83)">
<title>backEnd.turtle.Turtle.turnTurtle</title>
<polygon fill="white" stroke="none" points="-4,4 -4,-83 312,-83 312,4 -4,4"/>
<!-- Node1 -->
<g id="node1" class="node"><title>Node1</title>
<polygon fill="#bfbfbf" stroke="black" points="0.5,-24 0.5,-54 137.5,-54 137.5,-24 0.5,-24"/>
<text text-anchor="start" x="8.5" y="-42" font-family="Helvetica,sans-Serif" font-size="10.00">backEnd.turtle.Turtle.turn</text>
<text text-anchor="middle" x="69" y="-31" font-family="Helvetica,sans-Serif" font-size="10.00">Turtle</text>
</g>
<!-- Node2 -->
<g id="node2" class="node"><title>Node2</title>
<g id="a_node2"><a xlink:href="../../d8/d32/classback_end_1_1turtle_1_1_turtle.html#a2f7c26eedf8b3a2b6e4521360600d567" target="_top" xlink:title="backEnd.turtle.Turtle.get\lOrientation">
<polygon fill="white" stroke="black" points="174.5,-49 174.5,-79 307.5,-79 307.5,-49 174.5,-49"/>
<text text-anchor="start" x="182.5" y="-67" font-family="Helvetica,sans-Serif" font-size="10.00">backEnd.turtle.Turtle.get</text>
<text text-anchor="middle" x="241" y="-56" font-family="Helvetica,sans-Serif" font-size="10.00">Orientation</text>
</a>
</g>
</g>
<!-- Node1&#45;&gt;Node2 -->
<g id="edge1" class="edge"><title>Node1&#45;&gt;Node2</title>
<path fill="none" stroke="midnightblue" d="M137.677,-48.9525C146.49,-50.2485 155.562,-51.5827 164.493,-52.8961"/>
<polygon fill="midnightblue" stroke="midnightblue" points="164.092,-56.3746 174.495,-54.3669 165.111,-49.4491 164.092,-56.3746"/>
</g>
<!-- Node3 -->
<g id="node3" class="node"><title>Node3</title>
<g id="a_node3"><a xlink:href="../../d8/d32/classback_end_1_1turtle_1_1_turtle.html#aec5888b31c85cb08b17e0970c7eeae97" target="_top" xlink:title="backEnd.turtle.Turtle.set\lOrientation">
<polygon fill="white" stroke="black" points="175,-0 175,-30 307,-30 307,-0 175,-0"/>
<text text-anchor="start" x="183" y="-18" font-family="Helvetica,sans-Serif" font-size="10.00">backEnd.turtle.Turtle.set</text>
<text text-anchor="middle" x="241" y="-7" font-family="Helvetica,sans-Serif" font-size="10.00">Orientation</text>
</a>
</g>
</g>
<!-- Node1&#45;&gt;Node3 -->
<g id="edge2" class="edge"><title>Node1&#45;&gt;Node3</title>
<path fill="none" stroke="midnightblue" d="M137.677,-29.4456C146.557,-28.1919 155.701,-26.9011 164.698,-25.6309"/>
<polygon fill="midnightblue" stroke="midnightblue" points="165.359,-29.0724 174.771,-24.2088 164.38,-22.1411 165.359,-29.0724"/>
</g>
</g>
</svg>
