<?xml version="1.0" encoding="UTF-8" standalone="no"?>
<!DOCTYPE svg PUBLIC "-//W3C//DTD SVG 1.1//EN"
 "http://www.w3.org/Graphics/SVG/1.1/DTD/svg11.dtd">
<!-- Generated by graphviz version 2.36.0 (20140111.2315)
 -->
<!-- Title: main.MasterMenuBar.buildNewWorkspaceMenuItem Pages: 1 -->
<svg width="966pt" height="103pt"
 viewBox="0.00 0.00 966.00 103.00" xmlns="http://www.w3.org/2000/svg" xmlns:xlink="http://www.w3.org/1999/xlink">
<g id="graph0" class="graph" transform="scale(1 1) rotate(0) translate(4 99)">
<title>main.MasterMenuBar.buildNewWorkspaceMenuItem</title>
<polygon fill="white" stroke="none" points="-4,4 -4,-99 962,-99 962,4 -4,4"/>
<!-- Node1 -->
<g id="node1" class="node"><title>Node1</title>
<polygon fill="#bfbfbf" stroke="black" points="0,-44 0,-74 144,-74 144,-44 0,-44"/>
<text text-anchor="start" x="8" y="-62" font-family="Helvetica,sans-Serif" font-size="10.00">main.MasterMenuBar.build</text>
<text text-anchor="middle" x="72" y="-51" font-family="Helvetica,sans-Serif" font-size="10.00">NewWorkspaceMenuItem</text>
</g>
<!-- Node2 -->
<g id="node2" class="node"><title>Node2</title>
<g id="a_node2"><a xlink:href="../../d7/d6c/classmain_1_1_master_window.html#afa6d7e233487e201b5da782358fd522f" target="_top" xlink:title="main.MasterWindow.buildWorkspace">
<polygon fill="white" stroke="black" points="180,-49.5 180,-68.5 368,-68.5 368,-49.5 180,-49.5"/>
<text text-anchor="middle" x="274" y="-56.5" font-family="Helvetica,sans-Serif" font-size="10.00">main.MasterWindow.buildWorkspace</text>
</a>
</g>
</g>
<!-- Node1&#45;&gt;Node2 -->
<g id="edge1" class="edge"><title>Node1&#45;&gt;Node2</title>
<path fill="none" stroke="midnightblue" d="M144.076,-59C152.388,-59 160.991,-59 169.629,-59"/>
<polygon fill="midnightblue" stroke="midnightblue" points="169.768,-62.5001 179.768,-59 169.768,-55.5001 169.768,-62.5001"/>
</g>
<!-- Node3 -->
<g id="node3" class="node"><title>Node3</title>
<g id="a_node3"><a xlink:href="../../d7/d6c/classmain_1_1_master_window.html#a791f641d5cb2a36b6ec1e9b5e1c0615a" target="_top" xlink:title="main.MasterWindow.setKey\lListener">
<polygon fill="white" stroke="black" points="622,-65 622,-95 768,-95 768,-65 622,-65"/>
<text text-anchor="start" x="630" y="-83" font-family="Helvetica,sans-Serif" font-size="10.00">main.MasterWindow.setKey</text>
<text text-anchor="middle" x="695" y="-72" font-family="Helvetica,sans-Serif" font-size="10.00">Listener</text>
</a>
</g>
</g>
<!-- Node2&#45;&gt;Node3 -->
<g id="edge2" class="edge"><title>Node2&#45;&gt;Node3</title>
<path fill="none" stroke="midnightblue" d="M328.161,-68.5316C351.366,-72.2506 378.946,-76.078 404,-78 473.852,-83.3588 553.445,-83.483 611.554,-82.4799"/>
<polygon fill="midnightblue" stroke="midnightblue" points="611.849,-85.9751 621.781,-82.2879 611.717,-78.9763 611.849,-85.9751"/>
</g>
<!-- Node5 -->
<g id="node5" class="node"><title>Node5</title>
<g id="a_node5"><a xlink:href="../../d7/d6c/classmain_1_1_master_window.html#a27163b7cb277c62142db5916aae078c0" target="_top" xlink:title="main.MasterWindow.setMouse\lListener">
<polygon fill="white" stroke="black" points="410.5,-0 410.5,-30 571.5,-30 571.5,-0 410.5,-0"/>
<text text-anchor="start" x="418.5" y="-18" font-family="Helvetica,sans-Serif" font-size="10.00">main.MasterWindow.setMouse</text>
<text text-anchor="middle" x="491" y="-7" font-family="Helvetica,sans-Serif" font-size="10.00">Listener</text>
</a>
</g>
</g>
<!-- Node2&#45;&gt;Node5 -->
<g id="edge4" class="edge"><title>Node2&#45;&gt;Node5</title>
<path fill="none" stroke="midnightblue" d="M321.652,-49.4527C346.399,-44.3882 377.56,-38.011 406.325,-32.1242"/>
<polygon fill="midnightblue" stroke="midnightblue" points="407.29,-35.4993 416.385,-30.0654 405.886,-28.6415 407.29,-35.4993"/>
</g>
<!-- Node7 -->
<g id="node7" class="node"><title>Node7</title>
<g id="a_node7"><a xlink:href="../../d7/d6c/classmain_1_1_master_window.html#abee1c5dad0269124eb93728730b4b3a8" target="_top" xlink:title="main.MasterWindow.tabChanged">
<polygon fill="white" stroke="black" points="404.5,-49.5 404.5,-68.5 577.5,-68.5 577.5,-49.5 404.5,-49.5"/>
<text text-anchor="middle" x="491" y="-56.5" font-family="Helvetica,sans-Serif" font-size="10.00">main.MasterWindow.tabChanged</text>
</a>
</g>
</g>
<!-- Node2&#45;&gt;Node7 -->
<g id="edge6" class="edge"><title>Node2&#45;&gt;Node7</title>
<path fill="none" stroke="midnightblue" d="M368.052,-59C376.698,-59 385.472,-59 394.143,-59"/>
<polygon fill="midnightblue" stroke="midnightblue" points="394.261,-62.5001 404.261,-59 394.261,-55.5001 394.261,-62.5001"/>
</g>
<!-- Node4 -->
<g id="node4" class="node"><title>Node4</title>
<g id="a_node4"><a xlink:href="../../d3/d21/classfront_end_1_1_workspace.html#af3ac2c0c8f0256e4a26281bacdfbc6b2" target="_top" xlink:title="frontEnd.Workspace.getKey\lListener">
<polygon fill="white" stroke="black" points="812,-65 812,-95 958,-95 958,-65 812,-65"/>
<text text-anchor="start" x="820" y="-83" font-family="Helvetica,sans-Serif" font-size="10.00">frontEnd.Workspace.getKey</text>
<text text-anchor="middle" x="885" y="-72" font-family="Helvetica,sans-Serif" font-size="10.00">Listener</text>
</a>
</g>
</g>
<!-- Node3&#45;&gt;Node4 -->
<g id="edge3" class="edge"><title>Node3&#45;&gt;Node4</title>
<path fill="none" stroke="midnightblue" d="M768.148,-80C779.089,-80 790.447,-80 801.586,-80"/>
<polygon fill="midnightblue" stroke="midnightblue" points="801.734,-83.5001 811.734,-80 801.734,-76.5001 801.734,-83.5001"/>
</g>
<!-- Node6 -->
<g id="node6" class="node"><title>Node6</title>
<g id="a_node6"><a xlink:href="../../d3/d21/classfront_end_1_1_workspace.html#a6c55c52266ada6b68172fb5ff6204211" target="_top" xlink:title="frontEnd.Workspace.getMouse\lListener">
<polygon fill="white" stroke="black" points="614.5,-0 614.5,-30 775.5,-30 775.5,-0 614.5,-0"/>
<text text-anchor="start" x="622.5" y="-18" font-family="Helvetica,sans-Serif" font-size="10.00">frontEnd.Workspace.getMouse</text>
<text text-anchor="middle" x="695" y="-7" font-family="Helvetica,sans-Serif" font-size="10.00">Listener</text>
</a>
</g>
</g>
<!-- Node5&#45;&gt;Node6 -->
<g id="edge5" class="edge"><title>Node5&#45;&gt;Node6</title>
<path fill="none" stroke="midnightblue" d="M571.546,-15C582.171,-15 593.129,-15 603.919,-15"/>
<polygon fill="midnightblue" stroke="midnightblue" points="604.195,-18.5001 614.195,-15 604.195,-11.5001 604.195,-18.5001"/>
</g>
<!-- Node7&#45;&gt;Node3 -->
<g id="edge7" class="edge"><title>Node7&#45;&gt;Node3</title>
<path fill="none" stroke="midnightblue" d="M577.666,-67.9059C588.945,-69.0784 600.485,-70.2781 611.706,-71.4447"/>
<polygon fill="midnightblue" stroke="midnightblue" points="611.596,-74.952 621.904,-72.5049 612.32,-67.9896 611.596,-74.952"/>
</g>
</g>
</svg>
