<?xml version="1.0" encoding="UTF-8" standalone="no"?>
<!DOCTYPE svg PUBLIC "-//W3C//DTD SVG 1.1//EN"
 "http://www.w3.org/Graphics/SVG/1.1/DTD/svg11.dtd">
<!-- Generated by graphviz version 2.36.0 (20140111.2315)
 -->
<!-- Title: main.MasterMenuBar.buildNewWorkspaceMenuItem Pages: 1 -->
<svg width="524pt" height="38pt"
 viewBox="0.00 0.00 524.00 38.00" xmlns="http://www.w3.org/2000/svg" xmlns:xlink="http://www.w3.org/1999/xlink">
<g id="graph0" class="graph" transform="scale(1 1) rotate(0) translate(4 34)">
<title>main.MasterMenuBar.buildNewWorkspaceMenuItem</title>
<polygon fill="white" stroke="none" points="-4,4 -4,-34 520,-34 520,4 -4,4"/>
<!-- Node1 -->
<g id="node1" class="node"><title>Node1</title>
<polygon fill="#bfbfbf" stroke="black" points="0,-0 0,-30 144,-30 144,-0 0,-0"/>
<text text-anchor="start" x="8" y="-18" font-family="Helvetica,sans-Serif" font-size="10.00">main.MasterMenuBar.build</text>
<text text-anchor="middle" x="72" y="-7" font-family="Helvetica,sans-Serif" font-size="10.00">NewWorkspaceMenuItem</text>
</g>
<!-- Node2 -->
<g id="node2" class="node"><title>Node2</title>
<g id="a_node2"><a xlink:href="../../de/d44/classmain_1_1_master_menu_bar.html#a8ac360f52791db57913d7a4303e18867" target="_top" xlink:title="main.MasterMenuBar.build\lFileMenu">
<polygon fill="white" stroke="black" points="180,-0 180,-30 324,-30 324,-0 180,-0"/>
<text text-anchor="start" x="188" y="-18" font-family="Helvetica,sans-Serif" font-size="10.00">main.MasterMenuBar.build</text>
<text text-anchor="middle" x="252" y="-7" font-family="Helvetica,sans-Serif" font-size="10.00">FileMenu</text>
</a>
</g>
</g>
<!-- Node1&#45;&gt;Node2 -->
<g id="edge1" class="edge"><title>Node1&#45;&gt;Node2</title>
<path fill="none" stroke="midnightblue" d="M154.17,-15C162.789,-15 171.506,-15 179.995,-15"/>
<polygon fill="midnightblue" stroke="midnightblue" points="154.118,-11.5001 144.118,-15 154.118,-18.5001 154.118,-11.5001"/>
</g>
<!-- Node3 -->
<g id="node3" class="node"><title>Node3</title>
<g id="a_node3"><a xlink:href="../../de/d44/classmain_1_1_master_menu_bar.html#a1baeeae18c6cf1bb2c48541b48afe20c" target="_top" xlink:title="main.MasterMenuBar.Master\lMenuBar">
<polygon fill="white" stroke="black" points="360.5,-0 360.5,-30 515.5,-30 515.5,-0 360.5,-0"/>
<text text-anchor="start" x="368.5" y="-18" font-family="Helvetica,sans-Serif" font-size="10.00">main.MasterMenuBar.Master</text>
<text text-anchor="middle" x="438" y="-7" font-family="Helvetica,sans-Serif" font-size="10.00">MenuBar</text>
</a>
</g>
</g>
<!-- Node2&#45;&gt;Node3 -->
<g id="edge2" class="edge"><title>Node2&#45;&gt;Node3</title>
<path fill="none" stroke="midnightblue" d="M334.219,-15C342.872,-15 351.654,-15 360.253,-15"/>
<polygon fill="midnightblue" stroke="midnightblue" points="334.139,-11.5001 324.139,-15 334.139,-18.5001 334.139,-11.5001"/>
</g>
</g>
</svg>
