<?xml version="1.0" encoding="UTF-8" standalone="no"?>
<!DOCTYPE svg PUBLIC "-//W3C//DTD SVG 1.1//EN"
 "http://www.w3.org/Graphics/SVG/1.1/DTD/svg11.dtd">
<!-- Generated by graphviz version 2.36.0 (20140111.2315)
 -->
<!-- Title: main.MasterMenuBar.MasterMenuBar Pages: 1 -->
<svg width="1826pt" height="284pt"
 viewBox="0.00 0.00 1826.00 284.00" xmlns="http://www.w3.org/2000/svg" xmlns:xlink="http://www.w3.org/1999/xlink">
<g id="graph0" class="graph" transform="scale(1 1) rotate(0) translate(4 280)">
<title>main.MasterMenuBar.MasterMenuBar</title>
<polygon fill="white" stroke="none" points="-4,4 -4,-280 1822,-280 1822,4 -4,4"/>
<!-- Node1 -->
<g id="node1" class="node"><title>Node1</title>
<polygon fill="#bfbfbf" stroke="black" points="0.5,-130 0.5,-160 155.5,-160 155.5,-130 0.5,-130"/>
<text text-anchor="start" x="8.5" y="-148" font-family="Helvetica,sans-Serif" font-size="10.00">main.MasterMenuBar.Master</text>
<text text-anchor="middle" x="78" y="-137" font-family="Helvetica,sans-Serif" font-size="10.00">MenuBar</text>
</g>
<!-- Node2 -->
<g id="node2" class="node"><title>Node2</title>
<g id="a_node2"><a xlink:href="../../de/d44/classmain_1_1_master_menu_bar.html#a81ecd4aa2113ce11bf3ba108b1a10f22" target="_top" xlink:title="main.MasterMenuBar.build\lEditMenu">
<polygon fill="white" stroke="black" points="192,-178 192,-208 336,-208 336,-178 192,-178"/>
<text text-anchor="start" x="200" y="-196" font-family="Helvetica,sans-Serif" font-size="10.00">main.MasterMenuBar.build</text>
<text text-anchor="middle" x="264" y="-185" font-family="Helvetica,sans-Serif" font-size="10.00">EditMenu</text>
</a>
</g>
</g>
<!-- Node1&#45;&gt;Node2 -->
<g id="edge1" class="edge"><title>Node1&#45;&gt;Node2</title>
<path fill="none" stroke="midnightblue" d="M136.714,-160.056C155.382,-164.926 176.247,-170.369 195.556,-175.406"/>
<polygon fill="midnightblue" stroke="midnightblue" points="194.931,-178.86 205.491,-177.998 196.698,-172.087 194.931,-178.86"/>
</g>
<!-- Node8 -->
<g id="node8" class="node"><title>Node8</title>
<g id="a_node8"><a xlink:href="../../de/d44/classmain_1_1_master_menu_bar.html#a8ac360f52791db57913d7a4303e18867" target="_top" xlink:title="main.MasterMenuBar.build\lFileMenu">
<polygon fill="white" stroke="black" points="192,-82 192,-112 336,-112 336,-82 192,-82"/>
<text text-anchor="start" x="200" y="-100" font-family="Helvetica,sans-Serif" font-size="10.00">main.MasterMenuBar.build</text>
<text text-anchor="middle" x="264" y="-89" font-family="Helvetica,sans-Serif" font-size="10.00">FileMenu</text>
</a>
</g>
</g>
<!-- Node1&#45;&gt;Node8 -->
<g id="edge7" class="edge"><title>Node1&#45;&gt;Node8</title>
<path fill="none" stroke="midnightblue" d="M136.714,-129.944C155.382,-125.074 176.247,-119.631 195.556,-114.594"/>
<polygon fill="midnightblue" stroke="midnightblue" points="196.698,-117.913 205.491,-112.002 194.931,-111.14 196.698,-117.913"/>
</g>
<!-- Node3 -->
<g id="node3" class="node"><title>Node3</title>
<g id="a_node3"><a xlink:href="../../de/d44/classmain_1_1_master_menu_bar.html#ada4d188668609ed6aed3c7ce08d69fea" target="_top" xlink:title="main.MasterMenuBar.build\lLanguageChooserMenuItem">
<polygon fill="white" stroke="black" points="372,-202 372,-232 524,-232 524,-202 372,-202"/>
<text text-anchor="start" x="380" y="-220" font-family="Helvetica,sans-Serif" font-size="10.00">main.MasterMenuBar.build</text>
<text text-anchor="middle" x="448" y="-209" font-family="Helvetica,sans-Serif" font-size="10.00">LanguageChooserMenuItem</text>
</a>
</g>
</g>
<!-- Node2&#45;&gt;Node3 -->
<g id="edge2" class="edge"><title>Node2&#45;&gt;Node3</title>
<path fill="none" stroke="midnightblue" d="M336.148,-202.382C344.604,-203.497 353.3,-204.644 361.924,-205.781"/>
<polygon fill="midnightblue" stroke="midnightblue" points="361.626,-209.272 371.998,-207.11 362.541,-202.332 361.626,-209.272"/>
</g>
<!-- Node4 -->
<g id="node4" class="node"><title>Node4</title>
<g id="a_node4"><a xlink:href="../../d8/de9/classmain_1_1_resource_finder.html#a0f4de9c5f13d6fafdd41a4c321dc2bf3" target="_top" xlink:title="main.ResourceFinder.getPossible\lLanguages">
<polygon fill="white" stroke="black" points="571.5,-246 571.5,-276 744.5,-276 744.5,-246 571.5,-246"/>
<text text-anchor="start" x="579.5" y="-264" font-family="Helvetica,sans-Serif" font-size="10.00">main.ResourceFinder.getPossible</text>
<text text-anchor="middle" x="658" y="-253" font-family="Helvetica,sans-Serif" font-size="10.00">Languages</text>
</a>
</g>
</g>
<!-- Node3&#45;&gt;Node4 -->
<g id="edge3" class="edge"><title>Node3&#45;&gt;Node4</title>
<path fill="none" stroke="midnightblue" d="M520,-232.019C538.056,-235.839 557.593,-239.972 576.102,-243.887"/>
<polygon fill="midnightblue" stroke="midnightblue" points="575.459,-247.328 585.967,-245.974 576.908,-240.48 575.459,-247.328"/>
</g>
<!-- Node5 -->
<g id="node5" class="node"><title>Node5</title>
<g id="a_node5"><a xlink:href="../../de/d44/classmain_1_1_master_menu_bar.html#a73a854a507abefec9cc1c19cee6a3721" target="_top" xlink:title="main.MasterMenuBar.setLanguage">
<polygon fill="white" stroke="black" points="566,-207.5 566,-226.5 750,-226.5 750,-207.5 566,-207.5"/>
<text text-anchor="middle" x="658" y="-214.5" font-family="Helvetica,sans-Serif" font-size="10.00">main.MasterMenuBar.setLanguage</text>
</a>
</g>
</g>
<!-- Node3&#45;&gt;Node5 -->
<g id="edge4" class="edge"><title>Node3&#45;&gt;Node5</title>
<path fill="none" stroke="midnightblue" d="M524.093,-217C534.322,-217 544.957,-217 555.556,-217"/>
<polygon fill="midnightblue" stroke="midnightblue" points="555.693,-220.5 565.693,-217 555.692,-213.5 555.693,-220.5"/>
</g>
<!-- Node6 -->
<g id="node6" class="node"><title>Node6</title>
<g id="a_node6"><a xlink:href="../../d8/de9/classmain_1_1_resource_finder.html#ac263547def40ea1a80625e448fddc7a9" target="_top" xlink:title="main.ResourceFinder.setLanguage">
<polygon fill="white" stroke="black" points="796,-223.5 796,-242.5 976,-242.5 976,-223.5 796,-223.5"/>
<text text-anchor="middle" x="886" y="-230.5" font-family="Helvetica,sans-Serif" font-size="10.00">main.ResourceFinder.setLanguage</text>
</a>
</g>
</g>
<!-- Node5&#45;&gt;Node6 -->
<g id="edge5" class="edge"><title>Node5&#45;&gt;Node6</title>
<path fill="none" stroke="midnightblue" d="M750.271,-223.462C761.926,-224.287 773.901,-225.135 785.674,-225.968"/>
<polygon fill="midnightblue" stroke="midnightblue" points="785.734,-229.481 795.956,-226.696 786.229,-222.498 785.734,-229.481"/>
</g>
<!-- Node7 -->
<g id="node7" class="node"><title>Node7</title>
<g id="a_node7"><a xlink:href="../../d8/de9/classmain_1_1_resource_finder.html#a26e58d0569f1ceaa3c7f4262d7d53b7a" target="_top" xlink:title="main.ResourceFinder.setMy\lLanguageResources">
<polygon fill="white" stroke="black" points="1036,-218 1036,-248 1182,-248 1182,-218 1036,-218"/>
<text text-anchor="start" x="1044" y="-236" font-family="Helvetica,sans-Serif" font-size="10.00">main.ResourceFinder.setMy</text>
<text text-anchor="middle" x="1109" y="-225" font-family="Helvetica,sans-Serif" font-size="10.00">LanguageResources</text>
</a>
</g>
</g>
<!-- Node6&#45;&gt;Node7 -->
<g id="edge6" class="edge"><title>Node6&#45;&gt;Node7</title>
<path fill="none" stroke="midnightblue" d="M976.252,-233C992.467,-233 1009.32,-233 1025.33,-233"/>
<polygon fill="midnightblue" stroke="midnightblue" points="1025.72,-236.5 1035.72,-233 1025.72,-229.5 1025.72,-236.5"/>
</g>
<!-- Node9 -->
<g id="node9" class="node"><title>Node9</title>
<g id="a_node9"><a xlink:href="../../de/d44/classmain_1_1_master_menu_bar.html#a05672abefed58f8f5e4a3704fca7f4e5" target="_top" xlink:title="main.MasterMenuBar.build\lNewWorkspaceMenuItem">
<polygon fill="white" stroke="black" points="376,-127 376,-157 520,-157 520,-127 376,-127"/>
<text text-anchor="start" x="384" y="-145" font-family="Helvetica,sans-Serif" font-size="10.00">main.MasterMenuBar.build</text>
<text text-anchor="middle" x="448" y="-134" font-family="Helvetica,sans-Serif" font-size="10.00">NewWorkspaceMenuItem</text>
</a>
</g>
</g>
<!-- Node8&#45;&gt;Node9 -->
<g id="edge8" class="edge"><title>Node8&#45;&gt;Node9</title>
<path fill="none" stroke="midnightblue" d="M325.856,-112.047C342.097,-116.062 359.781,-120.435 376.492,-124.567"/>
<polygon fill="midnightblue" stroke="midnightblue" points="375.653,-127.965 386.201,-126.967 377.333,-121.169 375.653,-127.965"/>
</g>
<!-- Node16 -->
<g id="node16" class="node"><title>Node16</title>
<g id="a_node16"><a xlink:href="../../de/d44/classmain_1_1_master_menu_bar.html#a035108ff7b484d9883d62cef618156da" target="_top" xlink:title="main.MasterMenuBar.build\lLoadPreferencesMenuItem">
<polygon fill="white" stroke="black" points="375.5,-59 375.5,-89 520.5,-89 520.5,-59 375.5,-59"/>
<text text-anchor="start" x="383.5" y="-77" font-family="Helvetica,sans-Serif" font-size="10.00">main.MasterMenuBar.build</text>
<text text-anchor="middle" x="448" y="-66" font-family="Helvetica,sans-Serif" font-size="10.00">LoadPreferencesMenuItem</text>
</a>
</g>
</g>
<!-- Node8&#45;&gt;Node16 -->
<g id="edge16" class="edge"><title>Node8&#45;&gt;Node16</title>
<path fill="none" stroke="midnightblue" d="M336.148,-88.0088C345.693,-86.8025 355.545,-85.5575 365.255,-84.3305"/>
<polygon fill="midnightblue" stroke="midnightblue" points="365.821,-87.7868 375.303,-83.0606 364.943,-80.8421 365.821,-87.7868"/>
</g>
<!-- Node24 -->
<g id="node24" class="node"><title>Node24</title>
<g id="a_node24"><a xlink:href="../../de/d44/classmain_1_1_master_menu_bar.html#acb0484fe23459ec4b49c4db8c09ee067" target="_top" xlink:title="main.MasterMenuBar.build\lSavePreferencesMenuItem">
<polygon fill="white" stroke="black" points="375,-10 375,-40 521,-40 521,-10 375,-10"/>
<text text-anchor="start" x="383" y="-28" font-family="Helvetica,sans-Serif" font-size="10.00">main.MasterMenuBar.build</text>
<text text-anchor="middle" x="448" y="-17" font-family="Helvetica,sans-Serif" font-size="10.00">SavePreferencesMenuItem</text>
</a>
</g>
</g>
<!-- Node8&#45;&gt;Node24 -->
<g id="edge24" class="edge"><title>Node8&#45;&gt;Node24</title>
<path fill="none" stroke="midnightblue" d="M295.981,-81.993C317.139,-72.02 345.951,-58.9745 372,-49 377.027,-47.075 382.282,-45.1744 387.576,-43.3363"/>
<polygon fill="midnightblue" stroke="midnightblue" points="388.76,-46.6304 397.106,-40.1032 386.511,-40.0015 388.76,-46.6304"/>
</g>
<!-- Node10 -->
<g id="node10" class="node"><title>Node10</title>
<g id="a_node10"><a xlink:href="../../d7/d6c/classmain_1_1_master_window.html#afa6d7e233487e201b5da782358fd522f" target="_top" xlink:title="main.MasterWindow.buildWorkspace">
<polygon fill="white" stroke="black" points="564,-137.5 564,-156.5 752,-156.5 752,-137.5 564,-137.5"/>
<text text-anchor="middle" x="658" y="-144.5" font-family="Helvetica,sans-Serif" font-size="10.00">main.MasterWindow.buildWorkspace</text>
</a>
</g>
</g>
<!-- Node9&#45;&gt;Node10 -->
<g id="edge9" class="edge"><title>Node9&#45;&gt;Node10</title>
<path fill="none" stroke="midnightblue" d="M520,-143.707C530.923,-143.969 542.388,-144.245 553.839,-144.52"/>
<polygon fill="midnightblue" stroke="midnightblue" points="553.803,-148.02 563.884,-144.762 553.971,-141.022 553.803,-148.02"/>
</g>
<!-- Node11 -->
<g id="node11" class="node"><title>Node11</title>
<g id="a_node11"><a xlink:href="../../d7/d6c/classmain_1_1_master_window.html#a791f641d5cb2a36b6ec1e9b5e1c0615a" target="_top" xlink:title="main.MasterWindow.setKey\lListener">
<polygon fill="white" stroke="black" points="1036,-158 1036,-188 1182,-188 1182,-158 1036,-158"/>
<text text-anchor="start" x="1044" y="-176" font-family="Helvetica,sans-Serif" font-size="10.00">main.MasterWindow.setKey</text>
<text text-anchor="middle" x="1109" y="-165" font-family="Helvetica,sans-Serif" font-size="10.00">Listener</text>
</a>
</g>
</g>
<!-- Node10&#45;&gt;Node11 -->
<g id="edge10" class="edge"><title>Node10&#45;&gt;Node11</title>
<path fill="none" stroke="midnightblue" d="M693.114,-156.558C719.786,-163.513 757.93,-172.329 792,-176 871.091,-184.523 961.959,-182.429 1025.89,-179.01"/>
<polygon fill="midnightblue" stroke="midnightblue" points="1026.13,-182.503 1035.92,-178.452 1025.74,-175.514 1026.13,-182.503"/>
</g>
<!-- Node13 -->
<g id="node13" class="node"><title>Node13</title>
<g id="a_node13"><a xlink:href="../../d7/d6c/classmain_1_1_master_window.html#a27163b7cb277c62142db5916aae078c0" target="_top" xlink:title="main.MasterWindow.setMouse\lListener">
<polygon fill="white" stroke="black" points="805.5,-98 805.5,-128 966.5,-128 966.5,-98 805.5,-98"/>
<text text-anchor="start" x="813.5" y="-116" font-family="Helvetica,sans-Serif" font-size="10.00">main.MasterWindow.setMouse</text>
<text text-anchor="middle" x="886" y="-105" font-family="Helvetica,sans-Serif" font-size="10.00">Listener</text>
</a>
</g>
</g>
<!-- Node10&#45;&gt;Node13 -->
<g id="edge12" class="edge"><title>Node10&#45;&gt;Node13</title>
<path fill="none" stroke="midnightblue" d="M722.254,-137.484C744.864,-134.082 770.793,-130.182 795.212,-126.508"/>
<polygon fill="midnightblue" stroke="midnightblue" points="795.838,-129.953 805.206,-125.004 794.797,-123.031 795.838,-129.953"/>
</g>
<!-- Node15 -->
<g id="node15" class="node"><title>Node15</title>
<g id="a_node15"><a xlink:href="../../d7/d6c/classmain_1_1_master_window.html#abee1c5dad0269124eb93728730b4b3a8" target="_top" xlink:title="main.MasterWindow.tabChanged">
<polygon fill="white" stroke="black" points="799.5,-147.5 799.5,-166.5 972.5,-166.5 972.5,-147.5 799.5,-147.5"/>
<text text-anchor="middle" x="886" y="-154.5" font-family="Helvetica,sans-Serif" font-size="10.00">main.MasterWindow.tabChanged</text>
</a>
</g>
</g>
<!-- Node10&#45;&gt;Node15 -->
<g id="edge14" class="edge"><title>Node10&#45;&gt;Node15</title>
<path fill="none" stroke="midnightblue" d="M752.228,-151.125C764.387,-151.663 776.861,-152.215 789.063,-152.755"/>
<polygon fill="midnightblue" stroke="midnightblue" points="789.092,-156.26 799.237,-153.205 789.401,-149.266 789.092,-156.26"/>
</g>
<!-- Node12 -->
<g id="node12" class="node"><title>Node12</title>
<g id="a_node12"><a xlink:href="../../d3/d21/classfront_end_1_1_workspace.html#af3ac2c0c8f0256e4a26281bacdfbc6b2" target="_top" xlink:title="frontEnd.Workspace.getKey\lListener">
<polygon fill="white" stroke="black" points="1251,-158 1251,-188 1397,-188 1397,-158 1251,-158"/>
<text text-anchor="start" x="1259" y="-176" font-family="Helvetica,sans-Serif" font-size="10.00">frontEnd.Workspace.getKey</text>
<text text-anchor="middle" x="1324" y="-165" font-family="Helvetica,sans-Serif" font-size="10.00">Listener</text>
</a>
</g>
</g>
<!-- Node11&#45;&gt;Node12 -->
<g id="edge11" class="edge"><title>Node11&#45;&gt;Node12</title>
<path fill="none" stroke="midnightblue" d="M1182.11,-173C1201.02,-173 1221.55,-173 1240.94,-173"/>
<polygon fill="midnightblue" stroke="midnightblue" points="1240.96,-176.5 1250.96,-173 1240.96,-169.5 1240.96,-176.5"/>
</g>
<!-- Node14 -->
<g id="node14" class="node"><title>Node14</title>
<g id="a_node14"><a xlink:href="../../d3/d21/classfront_end_1_1_workspace.html#a6c55c52266ada6b68172fb5ff6204211" target="_top" xlink:title="frontEnd.Workspace.getMouse\lListener">
<polygon fill="white" stroke="black" points="1028.5,-98 1028.5,-128 1189.5,-128 1189.5,-98 1028.5,-98"/>
<text text-anchor="start" x="1036.5" y="-116" font-family="Helvetica,sans-Serif" font-size="10.00">frontEnd.Workspace.getMouse</text>
<text text-anchor="middle" x="1109" y="-105" font-family="Helvetica,sans-Serif" font-size="10.00">Listener</text>
</a>
</g>
</g>
<!-- Node13&#45;&gt;Node14 -->
<g id="edge13" class="edge"><title>Node13&#45;&gt;Node14</title>
<path fill="none" stroke="midnightblue" d="M966.786,-113C983.373,-113 1000.96,-113 1017.89,-113"/>
<polygon fill="midnightblue" stroke="midnightblue" points="1018.33,-116.5 1028.33,-113 1018.33,-109.5 1018.33,-116.5"/>
</g>
<!-- Node15&#45;&gt;Node11 -->
<g id="edge15" class="edge"><title>Node15&#45;&gt;Node11</title>
<path fill="none" stroke="midnightblue" d="M972.761,-163.209C990.206,-164.472 1008.52,-165.798 1025.83,-167.051"/>
<polygon fill="midnightblue" stroke="midnightblue" points="1025.67,-170.549 1035.9,-167.78 1026.18,-163.567 1025.67,-170.549"/>
</g>
<!-- Node17 -->
<g id="node17" class="node"><title>Node17</title>
<g id="a_node17"><a xlink:href="../../de/d44/classmain_1_1_master_menu_bar.html#a73c9d9af24d1ec86213ff7e56bafda6f" target="_top" xlink:title="main.MasterMenuBar.loadWorkspace\lPreferences">
<polygon fill="white" stroke="black" points="561.5,-49 561.5,-79 754.5,-79 754.5,-49 561.5,-49"/>
<text text-anchor="start" x="569.5" y="-67" font-family="Helvetica,sans-Serif" font-size="10.00">main.MasterMenuBar.loadWorkspace</text>
<text text-anchor="middle" x="658" y="-56" font-family="Helvetica,sans-Serif" font-size="10.00">Preferences</text>
</a>
</g>
</g>
<!-- Node16&#45;&gt;Node17 -->
<g id="edge17" class="edge"><title>Node16&#45;&gt;Node17</title>
<path fill="none" stroke="midnightblue" d="M520.582,-70.5586C530.556,-70.079 540.972,-69.5783 551.409,-69.0765"/>
<polygon fill="midnightblue" stroke="midnightblue" points="551.588,-72.572 561.409,-68.5957 551.252,-65.5801 551.588,-72.572"/>
</g>
<!-- Node18 -->
<g id="node18" class="node"><title>Node18</title>
<g id="a_node18"><a xlink:href="../../d7/d6c/classmain_1_1_master_window.html#a4438aa75b2c8333790b6dbe970e233f8" target="_top" xlink:title="main.MasterWindow.loadWorkspace\lPreferences">
<polygon fill="white" stroke="black" points="793.5,-49 793.5,-79 978.5,-79 978.5,-49 793.5,-49"/>
<text text-anchor="start" x="801.5" y="-67" font-family="Helvetica,sans-Serif" font-size="10.00">main.MasterWindow.loadWorkspace</text>
<text text-anchor="middle" x="886" y="-56" font-family="Helvetica,sans-Serif" font-size="10.00">Preferences</text>
</a>
</g>
</g>
<!-- Node17&#45;&gt;Node18 -->
<g id="edge18" class="edge"><title>Node17&#45;&gt;Node18</title>
<path fill="none" stroke="midnightblue" d="M754.517,-64C763.983,-64 773.617,-64 783.144,-64"/>
<polygon fill="midnightblue" stroke="midnightblue" points="783.428,-67.5001 793.428,-64 783.428,-60.5001 783.428,-67.5001"/>
</g>
<!-- Node19 -->
<g id="node19" class="node"><title>Node19</title>
<g id="a_node19"><a xlink:href="../../d3/d21/classfront_end_1_1_workspace.html#a8c4cac9cc8769a62ea233aa2b8714100" target="_top" xlink:title="frontEnd.Workspace.loadProperties\lFromFile">
<polygon fill="white" stroke="black" points="1017.5,-49 1017.5,-79 1200.5,-79 1200.5,-49 1017.5,-49"/>
<text text-anchor="start" x="1025.5" y="-67" font-family="Helvetica,sans-Serif" font-size="10.00">frontEnd.Workspace.loadProperties</text>
<text text-anchor="middle" x="1109" y="-56" font-family="Helvetica,sans-Serif" font-size="10.00">FromFile</text>
</a>
</g>
</g>
<!-- Node18&#45;&gt;Node19 -->
<g id="edge19" class="edge"><title>Node18&#45;&gt;Node19</title>
<path fill="none" stroke="midnightblue" d="M978.804,-64C988.123,-64 997.624,-64 1007.03,-64"/>
<polygon fill="midnightblue" stroke="midnightblue" points="1007.19,-67.5001 1017.19,-64 1007.19,-60.5001 1007.19,-67.5001"/>
</g>
<!-- Node20 -->
<g id="node20" class="node"><title>Node20</title>
<g id="a_node20"><a xlink:href="../../d3/d21/classfront_end_1_1_workspace.html#aa58474f37d15d3aeabc3f2c465128897" target="_top" xlink:title="frontEnd.Workspace.loadDisplay\lProperties">
<polygon fill="white" stroke="black" points="1239.5,-98 1239.5,-128 1408.5,-128 1408.5,-98 1239.5,-98"/>
<text text-anchor="start" x="1247.5" y="-116" font-family="Helvetica,sans-Serif" font-size="10.00">frontEnd.Workspace.loadDisplay</text>
<text text-anchor="middle" x="1324" y="-105" font-family="Helvetica,sans-Serif" font-size="10.00">Properties</text>
</a>
</g>
</g>
<!-- Node19&#45;&gt;Node20 -->
<g id="edge20" class="edge"><title>Node19&#45;&gt;Node20</title>
<path fill="none" stroke="midnightblue" d="M1175.35,-79.0346C1198.25,-84.3024 1224.15,-90.2601 1247.79,-95.6984"/>
<polygon fill="midnightblue" stroke="midnightblue" points="1247.24,-99.1627 1257.77,-97.9938 1248.81,-92.3409 1247.24,-99.1627"/>
</g>
<!-- Node23 -->
<g id="node23" class="node"><title>Node23</title>
<g id="a_node23"><a xlink:href="../../d3/d21/classfront_end_1_1_workspace.html#a3212e0fc8e35130808c0ed6f7188593c" target="_top" xlink:title="frontEnd.Workspace.print\lProps">
<polygon fill="white" stroke="black" points="1256,-49 1256,-79 1392,-79 1392,-49 1256,-49"/>
<text text-anchor="start" x="1264" y="-67" font-family="Helvetica,sans-Serif" font-size="10.00">frontEnd.Workspace.print</text>
<text text-anchor="middle" x="1324" y="-56" font-family="Helvetica,sans-Serif" font-size="10.00">Props</text>
</a>
</g>
</g>
<!-- Node19&#45;&gt;Node23 -->
<g id="edge23" class="edge"><title>Node19&#45;&gt;Node23</title>
<path fill="none" stroke="midnightblue" d="M1200.64,-64C1215.73,-64 1231.25,-64 1245.96,-64"/>
<polygon fill="midnightblue" stroke="midnightblue" points="1246,-67.5001 1256,-64 1246,-60.5001 1246,-67.5001"/>
</g>
<!-- Node21 -->
<g id="node21" class="node"><title>Node21</title>
<g id="a_node21"><a xlink:href="../../d8/d1f/classfront_end_1_1_view.html#a2d6539ed8834e0dcc613be8ea607804c" target="_top" xlink:title="frontEnd.View.changeBackground\lColor">
<polygon fill="white" stroke="black" points="1446,-98 1446,-128 1622,-128 1622,-98 1446,-98"/>
<text text-anchor="start" x="1454" y="-116" font-family="Helvetica,sans-Serif" font-size="10.00">frontEnd.View.changeBackground</text>
<text text-anchor="middle" x="1534" y="-105" font-family="Helvetica,sans-Serif" font-size="10.00">Color</text>
</a>
</g>
</g>
<!-- Node20&#45;&gt;Node21 -->
<g id="edge21" class="edge"><title>Node20&#45;&gt;Node21</title>
<path fill="none" stroke="midnightblue" d="M1408.7,-113C1417.56,-113 1426.62,-113 1435.62,-113"/>
<polygon fill="midnightblue" stroke="midnightblue" points="1435.73,-116.5 1445.73,-113 1435.73,-109.5 1435.73,-116.5"/>
</g>
<!-- Node22 -->
<g id="node22" class="node"><title>Node22</title>
<g id="a_node22"><a xlink:href="../../d5/df1/classfront_end_1_1_turtle_canvas.html#a222a37326fc072937d76f29f5fe27bdc" target="_top" xlink:title="frontEnd.TurtleCanvas.change\lBackgroundColor">
<polygon fill="white" stroke="black" points="1658.5,-98 1658.5,-128 1817.5,-128 1817.5,-98 1658.5,-98"/>
<text text-anchor="start" x="1666.5" y="-116" font-family="Helvetica,sans-Serif" font-size="10.00">frontEnd.TurtleCanvas.change</text>
<text text-anchor="middle" x="1738" y="-105" font-family="Helvetica,sans-Serif" font-size="10.00">BackgroundColor</text>
</a>
</g>
</g>
<!-- Node21&#45;&gt;Node22 -->
<g id="edge22" class="edge"><title>Node21&#45;&gt;Node22</title>
<path fill="none" stroke="midnightblue" d="M1622.13,-113C1630.8,-113 1639.62,-113 1648.3,-113"/>
<polygon fill="midnightblue" stroke="midnightblue" points="1648.43,-116.5 1658.43,-113 1648.43,-109.5 1648.43,-116.5"/>
</g>
<!-- Node25 -->
<g id="node25" class="node"><title>Node25</title>
<g id="a_node25"><a xlink:href="../../de/d44/classmain_1_1_master_menu_bar.html#a249553b44a3e0ed097a3b350b7711f49" target="_top" xlink:title="main.MasterMenuBar.saveWorkspace\lPreferences">
<polygon fill="white" stroke="black" points="560.5,-0 560.5,-30 755.5,-30 755.5,-0 560.5,-0"/>
<text text-anchor="start" x="568.5" y="-18" font-family="Helvetica,sans-Serif" font-size="10.00">main.MasterMenuBar.saveWorkspace</text>
<text text-anchor="middle" x="658" y="-7" font-family="Helvetica,sans-Serif" font-size="10.00">Preferences</text>
</a>
</g>
</g>
<!-- Node24&#45;&gt;Node25 -->
<g id="edge25" class="edge"><title>Node24&#45;&gt;Node25</title>
<path fill="none" stroke="midnightblue" d="M521.165,-21.5305C530.57,-21.0784 540.359,-20.6077 550.182,-20.1355"/>
<polygon fill="midnightblue" stroke="midnightblue" points="550.596,-23.6197 560.416,-19.6434 550.26,-16.6278 550.596,-23.6197"/>
</g>
<!-- Node26 -->
<g id="node26" class="node"><title>Node26</title>
<g id="a_node26"><a xlink:href="../../d7/d6c/classmain_1_1_master_window.html#a9caa01ef95b15769b285ffda84e8f56c" target="_top" xlink:title="main.MasterWindow.saveWorkspace\lPreferences">
<polygon fill="white" stroke="black" points="792,-0 792,-30 980,-30 980,-0 792,-0"/>
<text text-anchor="start" x="800" y="-18" font-family="Helvetica,sans-Serif" font-size="10.00">main.MasterWindow.saveWorkspace</text>
<text text-anchor="middle" x="886" y="-7" font-family="Helvetica,sans-Serif" font-size="10.00">Preferences</text>
</a>
</g>
</g>
<!-- Node25&#45;&gt;Node26 -->
<g id="edge26" class="edge"><title>Node25&#45;&gt;Node26</title>
<path fill="none" stroke="midnightblue" d="M755.828,-15C764.439,-15 773.178,-15 781.839,-15"/>
<polygon fill="midnightblue" stroke="midnightblue" points="781.959,-18.5001 791.959,-15 781.959,-11.5001 781.959,-18.5001"/>
</g>
<!-- Node27 -->
<g id="node27" class="node"><title>Node27</title>
<g id="a_node27"><a xlink:href="../../d3/d21/classfront_end_1_1_workspace.html#a897ddb52dc6c71e7fce97d198343692d" target="_top" xlink:title="frontEnd.Workspace.saveProperties\lToFile">
<polygon fill="white" stroke="black" points="1016.5,-0 1016.5,-30 1201.5,-30 1201.5,-0 1016.5,-0"/>
<text text-anchor="start" x="1024.5" y="-18" font-family="Helvetica,sans-Serif" font-size="10.00">frontEnd.Workspace.saveProperties</text>
<text text-anchor="middle" x="1109" y="-7" font-family="Helvetica,sans-Serif" font-size="10.00">ToFile</text>
</a>
</g>
</g>
<!-- Node26&#45;&gt;Node27 -->
<g id="edge27" class="edge"><title>Node26&#45;&gt;Node27</title>
<path fill="none" stroke="midnightblue" d="M980.083,-15C988.732,-15 997.526,-15 1006.25,-15"/>
<polygon fill="midnightblue" stroke="midnightblue" points="1006.44,-18.5001 1016.44,-15 1006.44,-11.5001 1006.44,-18.5001"/>
</g>
<!-- Node28 -->
<g id="node28" class="node"><title>Node28</title>
<g id="a_node28"><a xlink:href="../../d3/d21/classfront_end_1_1_workspace.html#a483993a49176099425a0eca9c8da73ca" target="_top" xlink:title="frontEnd.Workspace.saveDisplay\lProperties">
<polygon fill="white" stroke="black" points="1238.5,-0 1238.5,-30 1409.5,-30 1409.5,-0 1238.5,-0"/>
<text text-anchor="start" x="1246.5" y="-18" font-family="Helvetica,sans-Serif" font-size="10.00">frontEnd.Workspace.saveDisplay</text>
<text text-anchor="middle" x="1324" y="-7" font-family="Helvetica,sans-Serif" font-size="10.00">Properties</text>
</a>
</g>
</g>
<!-- Node27&#45;&gt;Node28 -->
<g id="edge28" class="edge"><title>Node27&#45;&gt;Node28</title>
<path fill="none" stroke="midnightblue" d="M1201.57,-15C1210.32,-15 1219.21,-15 1227.99,-15"/>
<polygon fill="midnightblue" stroke="midnightblue" points="1228.24,-18.5001 1238.24,-15 1228.24,-11.5001 1228.24,-18.5001"/>
</g>
<!-- Node29 -->
<g id="node29" class="node"><title>Node29</title>
<g id="a_node29"><a xlink:href="../../d8/d1f/classfront_end_1_1_view.html#a1b425074f6c6cd928ea31c5edddfe04b" target="_top" xlink:title="frontEnd.View.getBackground\lColor">
<polygon fill="white" stroke="black" points="1455.5,-0 1455.5,-30 1612.5,-30 1612.5,-0 1455.5,-0"/>
<text text-anchor="start" x="1463.5" y="-18" font-family="Helvetica,sans-Serif" font-size="10.00">frontEnd.View.getBackground</text>
<text text-anchor="middle" x="1534" y="-7" font-family="Helvetica,sans-Serif" font-size="10.00">Color</text>
</a>
</g>
</g>
<!-- Node28&#45;&gt;Node29 -->
<g id="edge29" class="edge"><title>Node28&#45;&gt;Node29</title>
<path fill="none" stroke="midnightblue" d="M1409.6,-15C1421.26,-15 1433.25,-15 1444.97,-15"/>
<polygon fill="midnightblue" stroke="midnightblue" points="1445.18,-18.5001 1455.18,-15 1445.18,-11.5001 1445.18,-18.5001"/>
</g>
<!-- Node30 -->
<g id="node30" class="node"><title>Node30</title>
<g id="a_node30"><a xlink:href="../../d5/df1/classfront_end_1_1_turtle_canvas.html#a83c9d8f63e6b94f271fdd7f039c7895f" target="_top" xlink:title="frontEnd.TurtleCanvas.get\lBackgroundColor">
<polygon fill="white" stroke="black" points="1668,-0 1668,-30 1808,-30 1808,-0 1668,-0"/>
<text text-anchor="start" x="1676" y="-18" font-family="Helvetica,sans-Serif" font-size="10.00">frontEnd.TurtleCanvas.get</text>
<text text-anchor="middle" x="1738" y="-7" font-family="Helvetica,sans-Serif" font-size="10.00">BackgroundColor</text>
</a>
</g>
</g>
<!-- Node29&#45;&gt;Node30 -->
<g id="edge30" class="edge"><title>Node29&#45;&gt;Node30</title>
<path fill="none" stroke="midnightblue" d="M1612.52,-15C1627.35,-15 1642.89,-15 1657.76,-15"/>
<polygon fill="midnightblue" stroke="midnightblue" points="1657.94,-18.5001 1667.94,-15 1657.94,-11.5001 1657.94,-18.5001"/>
</g>
</g>
</svg>
