<?xml version="1.0" encoding="UTF-8" standalone="no"?>
<!DOCTYPE svg PUBLIC "-//W3C//DTD SVG 1.1//EN"
 "http://www.w3.org/Graphics/SVG/1.1/DTD/svg11.dtd">
<!-- Generated by graphviz version 2.36.0 (20140111.2315)
 -->
<!-- Title: main.MasterMenuBar.setLanguage Pages: 1 -->
<svg width="752pt" height="38pt"
 viewBox="0.00 0.00 752.00 38.00" xmlns="http://www.w3.org/2000/svg" xmlns:xlink="http://www.w3.org/1999/xlink">
<g id="graph0" class="graph" transform="scale(1 1) rotate(0) translate(4 34)">
<title>main.MasterMenuBar.setLanguage</title>
<polygon fill="white" stroke="none" points="-4,4 -4,-34 748,-34 748,4 -4,4"/>
<!-- Node1 -->
<g id="node1" class="node"><title>Node1</title>
<polygon fill="#bfbfbf" stroke="black" points="0,-5.5 0,-24.5 184,-24.5 184,-5.5 0,-5.5"/>
<text text-anchor="middle" x="92" y="-12.5" font-family="Helvetica,sans-Serif" font-size="10.00">main.MasterMenuBar.setLanguage</text>
</g>
<!-- Node2 -->
<g id="node2" class="node"><title>Node2</title>
<g id="a_node2"><a xlink:href="../../de/d44/classmain_1_1_master_menu_bar.html#ada4d188668609ed6aed3c7ce08d69fea" target="_top" xlink:title="main.MasterMenuBar.build\lLanguageChooserMenuItem">
<polygon fill="white" stroke="black" points="220,-0 220,-30 372,-30 372,-0 220,-0"/>
<text text-anchor="start" x="228" y="-18" font-family="Helvetica,sans-Serif" font-size="10.00">main.MasterMenuBar.build</text>
<text text-anchor="middle" x="296" y="-7" font-family="Helvetica,sans-Serif" font-size="10.00">LanguageChooserMenuItem</text>
</a>
</g>
</g>
<!-- Node1&#45;&gt;Node2 -->
<g id="edge1" class="edge"><title>Node1&#45;&gt;Node2</title>
<path fill="none" stroke="midnightblue" d="M194.334,-15C202.937,-15 211.536,-15 219.882,-15"/>
<polygon fill="midnightblue" stroke="midnightblue" points="194.249,-11.5001 184.249,-15 194.249,-18.5001 194.249,-11.5001"/>
</g>
<!-- Node3 -->
<g id="node3" class="node"><title>Node3</title>
<g id="a_node3"><a xlink:href="../../de/d44/classmain_1_1_master_menu_bar.html#a81ecd4aa2113ce11bf3ba108b1a10f22" target="_top" xlink:title="main.MasterMenuBar.build\lEditMenu">
<polygon fill="white" stroke="black" points="408,-0 408,-30 552,-30 552,-0 408,-0"/>
<text text-anchor="start" x="416" y="-18" font-family="Helvetica,sans-Serif" font-size="10.00">main.MasterMenuBar.build</text>
<text text-anchor="middle" x="480" y="-7" font-family="Helvetica,sans-Serif" font-size="10.00">EditMenu</text>
</a>
</g>
</g>
<!-- Node2&#45;&gt;Node3 -->
<g id="edge2" class="edge"><title>Node2&#45;&gt;Node3</title>
<path fill="none" stroke="midnightblue" d="M382.144,-15C390.762,-15 399.451,-15 407.899,-15"/>
<polygon fill="midnightblue" stroke="midnightblue" points="382.077,-11.5001 372.077,-15 382.077,-18.5001 382.077,-11.5001"/>
</g>
<!-- Node4 -->
<g id="node4" class="node"><title>Node4</title>
<g id="a_node4"><a xlink:href="../../de/d44/classmain_1_1_master_menu_bar.html#a1baeeae18c6cf1bb2c48541b48afe20c" target="_top" xlink:title="main.MasterMenuBar.Master\lMenuBar">
<polygon fill="white" stroke="black" points="588.5,-0 588.5,-30 743.5,-30 743.5,-0 588.5,-0"/>
<text text-anchor="start" x="596.5" y="-18" font-family="Helvetica,sans-Serif" font-size="10.00">main.MasterMenuBar.Master</text>
<text text-anchor="middle" x="666" y="-7" font-family="Helvetica,sans-Serif" font-size="10.00">MenuBar</text>
</a>
</g>
</g>
<!-- Node3&#45;&gt;Node4 -->
<g id="edge3" class="edge"><title>Node3&#45;&gt;Node4</title>
<path fill="none" stroke="midnightblue" d="M562.219,-15C570.872,-15 579.654,-15 588.253,-15"/>
<polygon fill="midnightblue" stroke="midnightblue" points="562.139,-11.5001 552.139,-15 562.139,-18.5001 562.139,-11.5001"/>
</g>
</g>
</svg>
