<?xml version="1.0" encoding="UTF-8" standalone="no"?>
<!DOCTYPE svg PUBLIC "-//W3C//DTD SVG 1.1//EN"
 "http://www.w3.org/Graphics/SVG/1.1/DTD/svg11.dtd">
<!-- Generated by graphviz version 2.36.0 (20140111.2315)
 -->
<!-- Title: main.MasterMenuBar.buildLoadPreferencesMenuItem Pages: 1 -->
<svg width="1440pt" height="87pt"
 viewBox="0.00 0.00 1440.00 87.00" xmlns="http://www.w3.org/2000/svg" xmlns:xlink="http://www.w3.org/1999/xlink">
<g id="graph0" class="graph" transform="scale(1 1) rotate(0) translate(4 83)">
<title>main.MasterMenuBar.buildLoadPreferencesMenuItem</title>
<polygon fill="white" stroke="none" points="-4,4 -4,-83 1436,-83 1436,4 -4,4"/>
<!-- Node1 -->
<g id="node1" class="node"><title>Node1</title>
<polygon fill="#bfbfbf" stroke="black" points="0.5,-24 0.5,-54 145.5,-54 145.5,-24 0.5,-24"/>
<text text-anchor="start" x="8.5" y="-42" font-family="Helvetica,sans-Serif" font-size="10.00">main.MasterMenuBar.build</text>
<text text-anchor="middle" x="73" y="-31" font-family="Helvetica,sans-Serif" font-size="10.00">LoadPreferencesMenuItem</text>
</g>
<!-- Node2 -->
<g id="node2" class="node"><title>Node2</title>
<g id="a_node2"><a xlink:href="../../de/d44/classmain_1_1_master_menu_bar.html#a73c9d9af24d1ec86213ff7e56bafda6f" target="_top" xlink:title="main.MasterMenuBar.loadWorkspace\lPreferences">
<polygon fill="white" stroke="black" points="182.5,-24 182.5,-54 375.5,-54 375.5,-24 182.5,-24"/>
<text text-anchor="start" x="190.5" y="-42" font-family="Helvetica,sans-Serif" font-size="10.00">main.MasterMenuBar.loadWorkspace</text>
<text text-anchor="middle" x="279" y="-31" font-family="Helvetica,sans-Serif" font-size="10.00">Preferences</text>
</a>
</g>
</g>
<!-- Node1&#45;&gt;Node2 -->
<g id="edge1" class="edge"><title>Node1&#45;&gt;Node2</title>
<path fill="none" stroke="midnightblue" d="M145.636,-39C154.228,-39 163.135,-39 172.083,-39"/>
<polygon fill="midnightblue" stroke="midnightblue" points="172.189,-42.5001 182.189,-39 172.189,-35.5001 172.189,-42.5001"/>
</g>
<!-- Node3 -->
<g id="node3" class="node"><title>Node3</title>
<g id="a_node3"><a xlink:href="../../d7/d6c/classmain_1_1_master_window.html#a4438aa75b2c8333790b6dbe970e233f8" target="_top" xlink:title="main.MasterWindow.loadWorkspace\lPreferences">
<polygon fill="white" stroke="black" points="412.5,-24 412.5,-54 597.5,-54 597.5,-24 412.5,-24"/>
<text text-anchor="start" x="420.5" y="-42" font-family="Helvetica,sans-Serif" font-size="10.00">main.MasterWindow.loadWorkspace</text>
<text text-anchor="middle" x="505" y="-31" font-family="Helvetica,sans-Serif" font-size="10.00">Preferences</text>
</a>
</g>
</g>
<!-- Node2&#45;&gt;Node3 -->
<g id="edge2" class="edge"><title>Node2&#45;&gt;Node3</title>
<path fill="none" stroke="midnightblue" d="M375.646,-39C384.364,-39 393.216,-39 401.987,-39"/>
<polygon fill="midnightblue" stroke="midnightblue" points="402.232,-42.5001 412.232,-39 402.232,-35.5001 402.232,-42.5001"/>
</g>
<!-- Node4 -->
<g id="node4" class="node"><title>Node4</title>
<g id="a_node4"><a xlink:href="../../d3/d21/classfront_end_1_1_workspace.html#a8c4cac9cc8769a62ea233aa2b8714100" target="_top" xlink:title="frontEnd.Workspace.loadProperties\lFromFile">
<polygon fill="white" stroke="black" points="634.5,-24 634.5,-54 817.5,-54 817.5,-24 634.5,-24"/>
<text text-anchor="start" x="642.5" y="-42" font-family="Helvetica,sans-Serif" font-size="10.00">frontEnd.Workspace.loadProperties</text>
<text text-anchor="middle" x="726" y="-31" font-family="Helvetica,sans-Serif" font-size="10.00">FromFile</text>
</a>
</g>
</g>
<!-- Node3&#45;&gt;Node4 -->
<g id="edge3" class="edge"><title>Node3&#45;&gt;Node4</title>
<path fill="none" stroke="midnightblue" d="M597.607,-39C606.463,-39 615.481,-39 624.418,-39"/>
<polygon fill="midnightblue" stroke="midnightblue" points="624.462,-42.5001 634.462,-39 624.462,-35.5001 624.462,-42.5001"/>
</g>
<!-- Node5 -->
<g id="node5" class="node"><title>Node5</title>
<g id="a_node5"><a xlink:href="../../d3/d21/classfront_end_1_1_workspace.html#aa58474f37d15d3aeabc3f2c465128897" target="_top" xlink:title="frontEnd.Workspace.loadDisplay\lProperties">
<polygon fill="white" stroke="black" points="854.5,-49 854.5,-79 1023.5,-79 1023.5,-49 854.5,-49"/>
<text text-anchor="start" x="862.5" y="-67" font-family="Helvetica,sans-Serif" font-size="10.00">frontEnd.Workspace.loadDisplay</text>
<text text-anchor="middle" x="939" y="-56" font-family="Helvetica,sans-Serif" font-size="10.00">Properties</text>
</a>
</g>
</g>
<!-- Node4&#45;&gt;Node5 -->
<g id="edge4" class="edge"><title>Node4&#45;&gt;Node5</title>
<path fill="none" stroke="midnightblue" d="M817.708,-49.7473C826.553,-50.7954 835.541,-51.8603 844.414,-52.9116"/>
<polygon fill="midnightblue" stroke="midnightblue" points="844.028,-56.3903 854.37,-54.0913 844.852,-49.4389 844.028,-56.3903"/>
</g>
<!-- Node8 -->
<g id="node8" class="node"><title>Node8</title>
<g id="a_node8"><a xlink:href="../../d3/d21/classfront_end_1_1_workspace.html#a3212e0fc8e35130808c0ed6f7188593c" target="_top" xlink:title="frontEnd.Workspace.print\lProps">
<polygon fill="white" stroke="black" points="871,-0 871,-30 1007,-30 1007,-0 871,-0"/>
<text text-anchor="start" x="879" y="-18" font-family="Helvetica,sans-Serif" font-size="10.00">frontEnd.Workspace.print</text>
<text text-anchor="middle" x="939" y="-7" font-family="Helvetica,sans-Serif" font-size="10.00">Props</text>
</a>
</g>
</g>
<!-- Node4&#45;&gt;Node8 -->
<g id="edge7" class="edge"><title>Node4&#45;&gt;Node8</title>
<path fill="none" stroke="midnightblue" d="M817.708,-28.6826C832.088,-27.0468 846.843,-25.3685 860.875,-23.7725"/>
<polygon fill="midnightblue" stroke="midnightblue" points="861.408,-27.2345 870.948,-22.6267 860.617,-20.2794 861.408,-27.2345"/>
</g>
<!-- Node6 -->
<g id="node6" class="node"><title>Node6</title>
<g id="a_node6"><a xlink:href="../../d8/d1f/classfront_end_1_1_view.html#a2d6539ed8834e0dcc613be8ea607804c" target="_top" xlink:title="frontEnd.View.changeBackground\lColor">
<polygon fill="white" stroke="black" points="1060,-49 1060,-79 1236,-79 1236,-49 1060,-49"/>
<text text-anchor="start" x="1068" y="-67" font-family="Helvetica,sans-Serif" font-size="10.00">frontEnd.View.changeBackground</text>
<text text-anchor="middle" x="1148" y="-56" font-family="Helvetica,sans-Serif" font-size="10.00">Color</text>
</a>
</g>
</g>
<!-- Node5&#45;&gt;Node6 -->
<g id="edge5" class="edge"><title>Node5&#45;&gt;Node6</title>
<path fill="none" stroke="midnightblue" d="M1023.6,-64C1032.15,-64 1040.88,-64 1049.56,-64"/>
<polygon fill="midnightblue" stroke="midnightblue" points="1049.71,-67.5001 1059.71,-64 1049.71,-60.5001 1049.71,-67.5001"/>
</g>
<!-- Node7 -->
<g id="node7" class="node"><title>Node7</title>
<g id="a_node7"><a xlink:href="../../d5/df1/classfront_end_1_1_turtle_canvas.html#a222a37326fc072937d76f29f5fe27bdc" target="_top" xlink:title="frontEnd.TurtleCanvas.change\lBackgroundColor">
<polygon fill="white" stroke="black" points="1272.5,-49 1272.5,-79 1431.5,-79 1431.5,-49 1272.5,-49"/>
<text text-anchor="start" x="1280.5" y="-67" font-family="Helvetica,sans-Serif" font-size="10.00">frontEnd.TurtleCanvas.change</text>
<text text-anchor="middle" x="1352" y="-56" font-family="Helvetica,sans-Serif" font-size="10.00">BackgroundColor</text>
</a>
</g>
</g>
<!-- Node6&#45;&gt;Node7 -->
<g id="edge6" class="edge"><title>Node6&#45;&gt;Node7</title>
<path fill="none" stroke="midnightblue" d="M1236.13,-64C1244.8,-64 1253.62,-64 1262.3,-64"/>
<polygon fill="midnightblue" stroke="midnightblue" points="1262.43,-67.5001 1272.43,-64 1262.43,-60.5001 1262.43,-67.5001"/>
</g>
</g>
</svg>
