<?xml version="1.0" encoding="UTF-8" standalone="no"?>
<!DOCTYPE svg PUBLIC "-//W3C//DTD SVG 1.1//EN"
 "http://www.w3.org/Graphics/SVG/1.1/DTD/svg11.dtd">
<!-- Generated by graphviz version 2.36.0 (20140111.2315)
 -->
<!-- Title: main.MasterMenuBar.saveWorkspacePreferences Pages: 1 -->
<svg width="758pt" height="38pt"
 viewBox="0.00 0.00 758.00 38.00" xmlns="http://www.w3.org/2000/svg" xmlns:xlink="http://www.w3.org/1999/xlink">
<g id="graph0" class="graph" transform="scale(1 1) rotate(0) translate(4 34)">
<title>main.MasterMenuBar.saveWorkspacePreferences</title>
<polygon fill="white" stroke="none" points="-4,4 -4,-34 754,-34 754,4 -4,4"/>
<!-- Node1 -->
<g id="node1" class="node"><title>Node1</title>
<polygon fill="#bfbfbf" stroke="black" points="0.5,-0 0.5,-30 195.5,-30 195.5,-0 0.5,-0"/>
<text text-anchor="start" x="8.5" y="-18" font-family="Helvetica,sans-Serif" font-size="10.00">main.MasterMenuBar.saveWorkspace</text>
<text text-anchor="middle" x="98" y="-7" font-family="Helvetica,sans-Serif" font-size="10.00">Preferences</text>
</g>
<!-- Node2 -->
<g id="node2" class="node"><title>Node2</title>
<g id="a_node2"><a xlink:href="../../de/d44/classmain_1_1_master_menu_bar.html#acb0484fe23459ec4b49c4db8c09ee067" target="_top" xlink:title="main.MasterMenuBar.build\lSavePreferencesMenuItem">
<polygon fill="white" stroke="black" points="232,-0 232,-30 378,-30 378,-0 232,-0"/>
<text text-anchor="start" x="240" y="-18" font-family="Helvetica,sans-Serif" font-size="10.00">main.MasterMenuBar.build</text>
<text text-anchor="middle" x="305" y="-7" font-family="Helvetica,sans-Serif" font-size="10.00">SavePreferencesMenuItem</text>
</a>
</g>
</g>
<!-- Node1&#45;&gt;Node2 -->
<g id="edge1" class="edge"><title>Node1&#45;&gt;Node2</title>
<path fill="none" stroke="midnightblue" d="M206.041,-15C214.764,-15 223.442,-15 231.823,-15"/>
<polygon fill="midnightblue" stroke="midnightblue" points="205.797,-11.5001 195.797,-15 205.797,-18.5001 205.797,-11.5001"/>
</g>
<!-- Node3 -->
<g id="node3" class="node"><title>Node3</title>
<g id="a_node3"><a xlink:href="../../de/d44/classmain_1_1_master_menu_bar.html#a8ac360f52791db57913d7a4303e18867" target="_top" xlink:title="main.MasterMenuBar.build\lFileMenu">
<polygon fill="white" stroke="black" points="414,-0 414,-30 558,-30 558,-0 414,-0"/>
<text text-anchor="start" x="422" y="-18" font-family="Helvetica,sans-Serif" font-size="10.00">main.MasterMenuBar.build</text>
<text text-anchor="middle" x="486" y="-7" font-family="Helvetica,sans-Serif" font-size="10.00">FileMenu</text>
</a>
</g>
</g>
<!-- Node2&#45;&gt;Node3 -->
<g id="edge2" class="edge"><title>Node2&#45;&gt;Node3</title>
<path fill="none" stroke="midnightblue" d="M388.114,-15C396.755,-15 405.488,-15 413.988,-15"/>
<polygon fill="midnightblue" stroke="midnightblue" points="388.032,-11.5001 378.032,-15 388.032,-18.5001 388.032,-11.5001"/>
</g>
<!-- Node4 -->
<g id="node4" class="node"><title>Node4</title>
<g id="a_node4"><a xlink:href="../../de/d44/classmain_1_1_master_menu_bar.html#a1baeeae18c6cf1bb2c48541b48afe20c" target="_top" xlink:title="main.MasterMenuBar.Master\lMenuBar">
<polygon fill="white" stroke="black" points="594.5,-0 594.5,-30 749.5,-30 749.5,-0 594.5,-0"/>
<text text-anchor="start" x="602.5" y="-18" font-family="Helvetica,sans-Serif" font-size="10.00">main.MasterMenuBar.Master</text>
<text text-anchor="middle" x="672" y="-7" font-family="Helvetica,sans-Serif" font-size="10.00">MenuBar</text>
</a>
</g>
</g>
<!-- Node3&#45;&gt;Node4 -->
<g id="edge3" class="edge"><title>Node3&#45;&gt;Node4</title>
<path fill="none" stroke="midnightblue" d="M568.219,-15C576.872,-15 585.654,-15 594.253,-15"/>
<polygon fill="midnightblue" stroke="midnightblue" points="568.139,-11.5001 558.139,-15 568.139,-18.5001 568.139,-11.5001"/>
</g>
</g>
</svg>
