<?xml version="1.0" encoding="UTF-8" standalone="no"?>
<!DOCTYPE svg PUBLIC "-//W3C//DTD SVG 1.1//EN"
 "http://www.w3.org/Graphics/SVG/1.1/DTD/svg11.dtd">
<!-- Generated by graphviz version 2.36.0 (20140111.2315)
 -->
<!-- Title: main.MasterMenuBar.buildEditMenu Pages: 1 -->
<svg width="958pt" height="82pt"
 viewBox="0.00 0.00 958.00 82.00" xmlns="http://www.w3.org/2000/svg" xmlns:xlink="http://www.w3.org/1999/xlink">
<g id="graph0" class="graph" transform="scale(1 1) rotate(0) translate(4 78)">
<title>main.MasterMenuBar.buildEditMenu</title>
<polygon fill="white" stroke="none" points="-4,4 -4,-78 954,-78 954,4 -4,4"/>
<!-- Node1 -->
<g id="node1" class="node"><title>Node1</title>
<polygon fill="#bfbfbf" stroke="black" points="0,-22 0,-52 144,-52 144,-22 0,-22"/>
<text text-anchor="start" x="8" y="-40" font-family="Helvetica,sans-Serif" font-size="10.00">main.MasterMenuBar.build</text>
<text text-anchor="middle" x="72" y="-29" font-family="Helvetica,sans-Serif" font-size="10.00">EditMenu</text>
</g>
<!-- Node2 -->
<g id="node2" class="node"><title>Node2</title>
<g id="a_node2"><a xlink:href="../../de/d44/classmain_1_1_master_menu_bar.html#ada4d188668609ed6aed3c7ce08d69fea" target="_top" xlink:title="main.MasterMenuBar.build\lLanguageChooserMenuItem">
<polygon fill="white" stroke="black" points="180,-22 180,-52 332,-52 332,-22 180,-22"/>
<text text-anchor="start" x="188" y="-40" font-family="Helvetica,sans-Serif" font-size="10.00">main.MasterMenuBar.build</text>
<text text-anchor="middle" x="256" y="-29" font-family="Helvetica,sans-Serif" font-size="10.00">LanguageChooserMenuItem</text>
</a>
</g>
</g>
<!-- Node1&#45;&gt;Node2 -->
<g id="edge1" class="edge"><title>Node1&#45;&gt;Node2</title>
<path fill="none" stroke="midnightblue" d="M144.148,-37C152.604,-37 161.3,-37 169.924,-37"/>
<polygon fill="midnightblue" stroke="midnightblue" points="169.998,-40.5001 179.998,-37 169.998,-33.5001 169.998,-40.5001"/>
</g>
<!-- Node3 -->
<g id="node3" class="node"><title>Node3</title>
<g id="a_node3"><a xlink:href="../../d8/de9/classmain_1_1_resource_finder.html#a0f4de9c5f13d6fafdd41a4c321dc2bf3" target="_top" xlink:title="main.ResourceFinder.getPossible\lLanguages">
<polygon fill="white" stroke="black" points="373.5,-44 373.5,-74 546.5,-74 546.5,-44 373.5,-44"/>
<text text-anchor="start" x="381.5" y="-62" font-family="Helvetica,sans-Serif" font-size="10.00">main.ResourceFinder.getPossible</text>
<text text-anchor="middle" x="460" y="-51" font-family="Helvetica,sans-Serif" font-size="10.00">Languages</text>
</a>
</g>
</g>
<!-- Node2&#45;&gt;Node3 -->
<g id="edge2" class="edge"><title>Node2&#45;&gt;Node3</title>
<path fill="none" stroke="midnightblue" d="M332.217,-45.192C342.333,-46.2937 352.818,-47.4356 363.229,-48.5695"/>
<polygon fill="midnightblue" stroke="midnightblue" points="362.853,-52.0492 373.174,-49.6526 363.611,-45.0904 362.853,-52.0492"/>
</g>
<!-- Node4 -->
<g id="node4" class="node"><title>Node4</title>
<g id="a_node4"><a xlink:href="../../de/d44/classmain_1_1_master_menu_bar.html#a73a854a507abefec9cc1c19cee6a3721" target="_top" xlink:title="main.MasterMenuBar.setLanguage">
<polygon fill="white" stroke="black" points="368,-5.5 368,-24.5 552,-24.5 552,-5.5 368,-5.5"/>
<text text-anchor="middle" x="460" y="-12.5" font-family="Helvetica,sans-Serif" font-size="10.00">main.MasterMenuBar.setLanguage</text>
</a>
</g>
</g>
<!-- Node2&#45;&gt;Node4 -->
<g id="edge3" class="edge"><title>Node2&#45;&gt;Node4</title>
<path fill="none" stroke="midnightblue" d="M332.217,-28.808C341.708,-27.7744 351.524,-26.7053 361.299,-25.6407"/>
<polygon fill="midnightblue" stroke="midnightblue" points="361.893,-29.0968 371.455,-24.5346 361.135,-22.1379 361.893,-29.0968"/>
</g>
<!-- Node5 -->
<g id="node5" class="node"><title>Node5</title>
<g id="a_node5"><a xlink:href="../../d8/de9/classmain_1_1_resource_finder.html#ac263547def40ea1a80625e448fddc7a9" target="_top" xlink:title="main.ResourceFinder.setLanguage">
<polygon fill="white" stroke="black" points="588,-5.5 588,-24.5 768,-24.5 768,-5.5 588,-5.5"/>
<text text-anchor="middle" x="678" y="-12.5" font-family="Helvetica,sans-Serif" font-size="10.00">main.ResourceFinder.setLanguage</text>
</a>
</g>
</g>
<!-- Node4&#45;&gt;Node5 -->
<g id="edge4" class="edge"><title>Node4&#45;&gt;Node5</title>
<path fill="none" stroke="midnightblue" d="M552.29,-15C560.64,-15 569.126,-15 577.542,-15"/>
<polygon fill="midnightblue" stroke="midnightblue" points="577.76,-18.5001 587.76,-15 577.76,-11.5001 577.76,-18.5001"/>
</g>
<!-- Node6 -->
<g id="node6" class="node"><title>Node6</title>
<g id="a_node6"><a xlink:href="../../d8/de9/classmain_1_1_resource_finder.html#a26e58d0569f1ceaa3c7f4262d7d53b7a" target="_top" xlink:title="main.ResourceFinder.setMy\lLanguageResources">
<polygon fill="white" stroke="black" points="804,-0 804,-30 950,-30 950,-0 804,-0"/>
<text text-anchor="start" x="812" y="-18" font-family="Helvetica,sans-Serif" font-size="10.00">main.ResourceFinder.setMy</text>
<text text-anchor="middle" x="877" y="-7" font-family="Helvetica,sans-Serif" font-size="10.00">LanguageResources</text>
</a>
</g>
</g>
<!-- Node5&#45;&gt;Node6 -->
<g id="edge5" class="edge"><title>Node5&#45;&gt;Node6</title>
<path fill="none" stroke="midnightblue" d="M768.278,-15C776.746,-15 785.305,-15 793.704,-15"/>
<polygon fill="midnightblue" stroke="midnightblue" points="793.85,-18.5001 803.85,-15 793.85,-11.5001 793.85,-18.5001"/>
</g>
</g>
</svg>
