<?xml version="1.0" encoding="UTF-8" standalone="no"?>
<!DOCTYPE svg PUBLIC "-//W3C//DTD SVG 1.1//EN"
 "http://www.w3.org/Graphics/SVG/1.1/DTD/svg11.dtd">
<!-- Generated by graphviz version 2.36.0 (20140111.2315)
 -->
<!-- Title: main.MasterMenuBar.buildLanguageChooserMenuItem Pages: 1 -->
<svg width="778pt" height="82pt"
 viewBox="0.00 0.00 778.00 82.00" xmlns="http://www.w3.org/2000/svg" xmlns:xlink="http://www.w3.org/1999/xlink">
<g id="graph0" class="graph" transform="scale(1 1) rotate(0) translate(4 78)">
<title>main.MasterMenuBar.buildLanguageChooserMenuItem</title>
<polygon fill="white" stroke="none" points="-4,4 -4,-78 774,-78 774,4 -4,4"/>
<!-- Node1 -->
<g id="node1" class="node"><title>Node1</title>
<polygon fill="#bfbfbf" stroke="black" points="0,-22 0,-52 152,-52 152,-22 0,-22"/>
<text text-anchor="start" x="8" y="-40" font-family="Helvetica,sans-Serif" font-size="10.00">main.MasterMenuBar.build</text>
<text text-anchor="middle" x="76" y="-29" font-family="Helvetica,sans-Serif" font-size="10.00">LanguageChooserMenuItem</text>
</g>
<!-- Node2 -->
<g id="node2" class="node"><title>Node2</title>
<g id="a_node2"><a xlink:href="../../d8/de9/classmain_1_1_resource_finder.html#a0f4de9c5f13d6fafdd41a4c321dc2bf3" target="_top" xlink:title="main.ResourceFinder.getPossible\lLanguages">
<polygon fill="white" stroke="black" points="193.5,-44 193.5,-74 366.5,-74 366.5,-44 193.5,-44"/>
<text text-anchor="start" x="201.5" y="-62" font-family="Helvetica,sans-Serif" font-size="10.00">main.ResourceFinder.getPossible</text>
<text text-anchor="middle" x="280" y="-51" font-family="Helvetica,sans-Serif" font-size="10.00">Languages</text>
</a>
</g>
</g>
<!-- Node1&#45;&gt;Node2 -->
<g id="edge1" class="edge"><title>Node1&#45;&gt;Node2</title>
<path fill="none" stroke="midnightblue" d="M152.217,-45.192C162.333,-46.2937 172.818,-47.4356 183.229,-48.5695"/>
<polygon fill="midnightblue" stroke="midnightblue" points="182.853,-52.0492 193.174,-49.6526 183.611,-45.0904 182.853,-52.0492"/>
</g>
<!-- Node3 -->
<g id="node3" class="node"><title>Node3</title>
<g id="a_node3"><a xlink:href="../../de/d44/classmain_1_1_master_menu_bar.html#a73a854a507abefec9cc1c19cee6a3721" target="_top" xlink:title="main.MasterMenuBar.setLanguage">
<polygon fill="white" stroke="black" points="188,-5.5 188,-24.5 372,-24.5 372,-5.5 188,-5.5"/>
<text text-anchor="middle" x="280" y="-12.5" font-family="Helvetica,sans-Serif" font-size="10.00">main.MasterMenuBar.setLanguage</text>
</a>
</g>
</g>
<!-- Node1&#45;&gt;Node3 -->
<g id="edge2" class="edge"><title>Node1&#45;&gt;Node3</title>
<path fill="none" stroke="midnightblue" d="M152.217,-28.808C161.708,-27.7744 171.524,-26.7053 181.299,-25.6407"/>
<polygon fill="midnightblue" stroke="midnightblue" points="181.893,-29.0968 191.455,-24.5346 181.135,-22.1379 181.893,-29.0968"/>
</g>
<!-- Node4 -->
<g id="node4" class="node"><title>Node4</title>
<g id="a_node4"><a xlink:href="../../d8/de9/classmain_1_1_resource_finder.html#ac263547def40ea1a80625e448fddc7a9" target="_top" xlink:title="main.ResourceFinder.setLanguage">
<polygon fill="white" stroke="black" points="408,-5.5 408,-24.5 588,-24.5 588,-5.5 408,-5.5"/>
<text text-anchor="middle" x="498" y="-12.5" font-family="Helvetica,sans-Serif" font-size="10.00">main.ResourceFinder.setLanguage</text>
</a>
</g>
</g>
<!-- Node3&#45;&gt;Node4 -->
<g id="edge3" class="edge"><title>Node3&#45;&gt;Node4</title>
<path fill="none" stroke="midnightblue" d="M372.29,-15C380.64,-15 389.126,-15 397.542,-15"/>
<polygon fill="midnightblue" stroke="midnightblue" points="397.76,-18.5001 407.76,-15 397.76,-11.5001 397.76,-18.5001"/>
</g>
<!-- Node5 -->
<g id="node5" class="node"><title>Node5</title>
<g id="a_node5"><a xlink:href="../../d8/de9/classmain_1_1_resource_finder.html#a26e58d0569f1ceaa3c7f4262d7d53b7a" target="_top" xlink:title="main.ResourceFinder.setMy\lLanguageResources">
<polygon fill="white" stroke="black" points="624,-0 624,-30 770,-30 770,-0 624,-0"/>
<text text-anchor="start" x="632" y="-18" font-family="Helvetica,sans-Serif" font-size="10.00">main.ResourceFinder.setMy</text>
<text text-anchor="middle" x="697" y="-7" font-family="Helvetica,sans-Serif" font-size="10.00">LanguageResources</text>
</a>
</g>
</g>
<!-- Node4&#45;&gt;Node5 -->
<g id="edge4" class="edge"><title>Node4&#45;&gt;Node5</title>
<path fill="none" stroke="midnightblue" d="M588.278,-15C596.746,-15 605.305,-15 613.704,-15"/>
<polygon fill="midnightblue" stroke="midnightblue" points="613.85,-18.5001 623.85,-15 613.85,-11.5001 613.85,-18.5001"/>
</g>
</g>
</svg>
