<?xml version="1.0" encoding="UTF-8" standalone="no"?>
<!DOCTYPE svg PUBLIC "-//W3C//DTD SVG 1.1//EN"
 "http://www.w3.org/Graphics/SVG/1.1/DTD/svg11.dtd">
<!-- Generated by graphviz version 2.36.0 (20140111.2315)
 -->
<!-- Title: main.MasterMenuBar.buildFileMenu Pages: 1 -->
<svg width="1628pt" height="255pt"
 viewBox="0.00 0.00 1628.00 255.00" xmlns="http://www.w3.org/2000/svg" xmlns:xlink="http://www.w3.org/1999/xlink">
<g id="graph0" class="graph" transform="scale(1 1) rotate(0) translate(4 251)">
<title>main.MasterMenuBar.buildFileMenu</title>
<polygon fill="white" stroke="none" points="-4,4 -4,-251 1624,-251 1624,4 -4,4"/>
<!-- Node1 -->
<g id="node1" class="node"><title>Node1</title>
<polygon fill="#bfbfbf" stroke="black" points="0,-93 0,-123 144,-123 144,-93 0,-93"/>
<text text-anchor="start" x="8" y="-111" font-family="Helvetica,sans-Serif" font-size="10.00">main.MasterMenuBar.build</text>
<text text-anchor="middle" x="72" y="-100" font-family="Helvetica,sans-Serif" font-size="10.00">FileMenu</text>
</g>
<!-- Node2 -->
<g id="node2" class="node"><title>Node2</title>
<g id="a_node2"><a xlink:href="../../de/d44/classmain_1_1_master_menu_bar.html#a035108ff7b484d9883d62cef618156da" target="_top" xlink:title="main.MasterMenuBar.build\lLoadPreferencesMenuItem">
<polygon fill="white" stroke="black" points="180.5,-150 180.5,-180 325.5,-180 325.5,-150 180.5,-150"/>
<text text-anchor="start" x="188.5" y="-168" font-family="Helvetica,sans-Serif" font-size="10.00">main.MasterMenuBar.build</text>
<text text-anchor="middle" x="253" y="-157" font-family="Helvetica,sans-Serif" font-size="10.00">LoadPreferencesMenuItem</text>
</a>
</g>
</g>
<!-- Node1&#45;&gt;Node2 -->
<g id="edge1" class="edge"><title>Node1&#45;&gt;Node2</title>
<path fill="none" stroke="midnightblue" d="M120.499,-123.125C143.348,-130.401 170.92,-139.181 194.903,-146.818"/>
<polygon fill="midnightblue" stroke="midnightblue" points="194,-150.204 204.59,-149.903 196.124,-143.534 194,-150.204"/>
</g>
<!-- Node10 -->
<g id="node10" class="node"><title>Node10</title>
<g id="a_node10"><a xlink:href="../../de/d44/classmain_1_1_master_menu_bar.html#a05672abefed58f8f5e4a3704fca7f4e5" target="_top" xlink:title="main.MasterMenuBar.build\lNewWorkspaceMenuItem">
<polygon fill="white" stroke="black" points="181,-93 181,-123 325,-123 325,-93 181,-93"/>
<text text-anchor="start" x="189" y="-111" font-family="Helvetica,sans-Serif" font-size="10.00">main.MasterMenuBar.build</text>
<text text-anchor="middle" x="253" y="-100" font-family="Helvetica,sans-Serif" font-size="10.00">NewWorkspaceMenuItem</text>
</a>
</g>
</g>
<!-- Node1&#45;&gt;Node10 -->
<g id="edge9" class="edge"><title>Node1&#45;&gt;Node10</title>
<path fill="none" stroke="midnightblue" d="M144.003,-108C152.797,-108 161.84,-108 170.772,-108"/>
<polygon fill="midnightblue" stroke="midnightblue" points="170.79,-111.5 180.79,-108 170.79,-104.5 170.79,-111.5"/>
</g>
<!-- Node17 -->
<g id="node17" class="node"><title>Node17</title>
<g id="a_node17"><a xlink:href="../../de/d44/classmain_1_1_master_menu_bar.html#acb0484fe23459ec4b49c4db8c09ee067" target="_top" xlink:title="main.MasterMenuBar.build\lSavePreferencesMenuItem">
<polygon fill="white" stroke="black" points="180,-33 180,-63 326,-63 326,-33 180,-33"/>
<text text-anchor="start" x="188" y="-51" font-family="Helvetica,sans-Serif" font-size="10.00">main.MasterMenuBar.build</text>
<text text-anchor="middle" x="253" y="-40" font-family="Helvetica,sans-Serif" font-size="10.00">SavePreferencesMenuItem</text>
</a>
</g>
</g>
<!-- Node1&#45;&gt;Node17 -->
<g id="edge17" class="edge"><title>Node1&#45;&gt;Node17</title>
<path fill="none" stroke="midnightblue" d="M118.169,-92.8595C142.322,-84.7635 172.238,-74.7359 197.656,-66.216"/>
<polygon fill="midnightblue" stroke="midnightblue" points="198.786,-69.5284 207.156,-63.0317 196.562,-62.8914 198.786,-69.5284"/>
</g>
<!-- Node3 -->
<g id="node3" class="node"><title>Node3</title>
<g id="a_node3"><a xlink:href="../../de/d44/classmain_1_1_master_menu_bar.html#a73c9d9af24d1ec86213ff7e56bafda6f" target="_top" xlink:title="main.MasterMenuBar.loadWorkspace\lPreferences">
<polygon fill="white" stroke="black" points="363.5,-166 363.5,-196 556.5,-196 556.5,-166 363.5,-166"/>
<text text-anchor="start" x="371.5" y="-184" font-family="Helvetica,sans-Serif" font-size="10.00">main.MasterMenuBar.loadWorkspace</text>
<text text-anchor="middle" x="460" y="-173" font-family="Helvetica,sans-Serif" font-size="10.00">Preferences</text>
</a>
</g>
</g>
<!-- Node2&#45;&gt;Node3 -->
<g id="edge2" class="edge"><title>Node2&#45;&gt;Node3</title>
<path fill="none" stroke="midnightblue" d="M325.699,-170.596C334.602,-171.291 343.847,-172.012 353.129,-172.737"/>
<polygon fill="midnightblue" stroke="midnightblue" points="352.959,-176.234 363.201,-173.523 353.503,-169.255 352.959,-176.234"/>
</g>
<!-- Node4 -->
<g id="node4" class="node"><title>Node4</title>
<g id="a_node4"><a xlink:href="../../d7/d6c/classmain_1_1_master_window.html#a4438aa75b2c8333790b6dbe970e233f8" target="_top" xlink:title="main.MasterWindow.loadWorkspace\lPreferences">
<polygon fill="white" stroke="black" points="595.5,-175 595.5,-205 780.5,-205 780.5,-175 595.5,-175"/>
<text text-anchor="start" x="603.5" y="-193" font-family="Helvetica,sans-Serif" font-size="10.00">main.MasterWindow.loadWorkspace</text>
<text text-anchor="middle" x="688" y="-182" font-family="Helvetica,sans-Serif" font-size="10.00">Preferences</text>
</a>
</g>
</g>
<!-- Node3&#45;&gt;Node4 -->
<g id="edge3" class="edge"><title>Node3&#45;&gt;Node4</title>
<path fill="none" stroke="midnightblue" d="M556.517,-184.804C565.983,-185.181 575.617,-185.564 585.144,-185.944"/>
<polygon fill="midnightblue" stroke="midnightblue" points="585.296,-189.453 595.428,-186.353 585.575,-182.458 585.296,-189.453"/>
</g>
<!-- Node5 -->
<g id="node5" class="node"><title>Node5</title>
<g id="a_node5"><a xlink:href="../../d3/d21/classfront_end_1_1_workspace.html#a8c4cac9cc8769a62ea233aa2b8714100" target="_top" xlink:title="frontEnd.Workspace.loadProperties\lFromFile">
<polygon fill="white" stroke="black" points="819.5,-175 819.5,-205 1002.5,-205 1002.5,-175 819.5,-175"/>
<text text-anchor="start" x="827.5" y="-193" font-family="Helvetica,sans-Serif" font-size="10.00">frontEnd.Workspace.loadProperties</text>
<text text-anchor="middle" x="911" y="-182" font-family="Helvetica,sans-Serif" font-size="10.00">FromFile</text>
</a>
</g>
</g>
<!-- Node4&#45;&gt;Node5 -->
<g id="edge4" class="edge"><title>Node4&#45;&gt;Node5</title>
<path fill="none" stroke="midnightblue" d="M780.804,-190C790.123,-190 799.624,-190 809.033,-190"/>
<polygon fill="midnightblue" stroke="midnightblue" points="809.193,-193.5 819.193,-190 809.193,-186.5 809.193,-193.5"/>
</g>
<!-- Node6 -->
<g id="node6" class="node"><title>Node6</title>
<g id="a_node6"><a xlink:href="../../d3/d21/classfront_end_1_1_workspace.html#aa58474f37d15d3aeabc3f2c465128897" target="_top" xlink:title="frontEnd.Workspace.loadDisplay\lProperties">
<polygon fill="white" stroke="black" points="1041.5,-217 1041.5,-247 1210.5,-247 1210.5,-217 1041.5,-217"/>
<text text-anchor="start" x="1049.5" y="-235" font-family="Helvetica,sans-Serif" font-size="10.00">frontEnd.Workspace.loadDisplay</text>
<text text-anchor="middle" x="1126" y="-224" font-family="Helvetica,sans-Serif" font-size="10.00">Properties</text>
</a>
</g>
</g>
<!-- Node5&#45;&gt;Node6 -->
<g id="edge5" class="edge"><title>Node5&#45;&gt;Node6</title>
<path fill="none" stroke="midnightblue" d="M988.296,-205.044C1004.61,-208.261 1021.95,-211.68 1038.61,-214.965"/>
<polygon fill="midnightblue" stroke="midnightblue" points="1038.39,-218.489 1048.88,-216.99 1039.74,-211.622 1038.39,-218.489"/>
</g>
<!-- Node9 -->
<g id="node9" class="node"><title>Node9</title>
<g id="a_node9"><a xlink:href="../../d3/d21/classfront_end_1_1_workspace.html#a3212e0fc8e35130808c0ed6f7188593c" target="_top" xlink:title="frontEnd.Workspace.print\lProps">
<polygon fill="white" stroke="black" points="1058,-168 1058,-198 1194,-198 1194,-168 1058,-168"/>
<text text-anchor="start" x="1066" y="-186" font-family="Helvetica,sans-Serif" font-size="10.00">frontEnd.Workspace.print</text>
<text text-anchor="middle" x="1126" y="-175" font-family="Helvetica,sans-Serif" font-size="10.00">Props</text>
</a>
</g>
</g>
<!-- Node5&#45;&gt;Node9 -->
<g id="edge8" class="edge"><title>Node5&#45;&gt;Node9</title>
<path fill="none" stroke="midnightblue" d="M1002.64,-187.021C1017.73,-186.525 1033.25,-186.015 1047.96,-185.532"/>
<polygon fill="midnightblue" stroke="midnightblue" points="1048.12,-189.029 1058,-185.202 1047.89,-182.032 1048.12,-189.029"/>
</g>
<!-- Node7 -->
<g id="node7" class="node"><title>Node7</title>
<g id="a_node7"><a xlink:href="../../d8/d1f/classfront_end_1_1_view.html#a2d6539ed8834e0dcc613be8ea607804c" target="_top" xlink:title="frontEnd.View.changeBackground\lColor">
<polygon fill="white" stroke="black" points="1248,-217 1248,-247 1424,-247 1424,-217 1248,-217"/>
<text text-anchor="start" x="1256" y="-235" font-family="Helvetica,sans-Serif" font-size="10.00">frontEnd.View.changeBackground</text>
<text text-anchor="middle" x="1336" y="-224" font-family="Helvetica,sans-Serif" font-size="10.00">Color</text>
</a>
</g>
</g>
<!-- Node6&#45;&gt;Node7 -->
<g id="edge6" class="edge"><title>Node6&#45;&gt;Node7</title>
<path fill="none" stroke="midnightblue" d="M1210.7,-232C1219.56,-232 1228.62,-232 1237.62,-232"/>
<polygon fill="midnightblue" stroke="midnightblue" points="1237.73,-235.5 1247.73,-232 1237.73,-228.5 1237.73,-235.5"/>
</g>
<!-- Node8 -->
<g id="node8" class="node"><title>Node8</title>
<g id="a_node8"><a xlink:href="../../d5/df1/classfront_end_1_1_turtle_canvas.html#a222a37326fc072937d76f29f5fe27bdc" target="_top" xlink:title="frontEnd.TurtleCanvas.change\lBackgroundColor">
<polygon fill="white" stroke="black" points="1460.5,-217 1460.5,-247 1619.5,-247 1619.5,-217 1460.5,-217"/>
<text text-anchor="start" x="1468.5" y="-235" font-family="Helvetica,sans-Serif" font-size="10.00">frontEnd.TurtleCanvas.change</text>
<text text-anchor="middle" x="1540" y="-224" font-family="Helvetica,sans-Serif" font-size="10.00">BackgroundColor</text>
</a>
</g>
</g>
<!-- Node7&#45;&gt;Node8 -->
<g id="edge7" class="edge"><title>Node7&#45;&gt;Node8</title>
<path fill="none" stroke="midnightblue" d="M1424.13,-232C1432.8,-232 1441.62,-232 1450.3,-232"/>
<polygon fill="midnightblue" stroke="midnightblue" points="1450.43,-235.5 1460.43,-232 1450.43,-228.5 1450.43,-235.5"/>
</g>
<!-- Node11 -->
<g id="node11" class="node"><title>Node11</title>
<g id="a_node11"><a xlink:href="../../d7/d6c/classmain_1_1_master_window.html#afa6d7e233487e201b5da782358fd522f" target="_top" xlink:title="main.MasterWindow.buildWorkspace">
<polygon fill="white" stroke="black" points="366,-98.5 366,-117.5 554,-117.5 554,-98.5 366,-98.5"/>
<text text-anchor="middle" x="460" y="-105.5" font-family="Helvetica,sans-Serif" font-size="10.00">main.MasterWindow.buildWorkspace</text>
</a>
</g>
</g>
<!-- Node10&#45;&gt;Node11 -->
<g id="edge10" class="edge"><title>Node10&#45;&gt;Node11</title>
<path fill="none" stroke="midnightblue" d="M325.124,-108C335.011,-108 345.33,-108 355.66,-108"/>
<polygon fill="midnightblue" stroke="midnightblue" points="355.978,-111.5 365.978,-108 355.978,-104.5 355.978,-111.5"/>
</g>
<!-- Node12 -->
<g id="node12" class="node"><title>Node12</title>
<g id="a_node12"><a xlink:href="../../d7/d6c/classmain_1_1_master_window.html#a791f641d5cb2a36b6ec1e9b5e1c0615a" target="_top" xlink:title="main.MasterWindow.setKey\lListener">
<polygon fill="white" stroke="black" points="838,-105 838,-135 984,-135 984,-105 838,-105"/>
<text text-anchor="start" x="846" y="-123" font-family="Helvetica,sans-Serif" font-size="10.00">main.MasterWindow.setKey</text>
<text text-anchor="middle" x="911" y="-112" font-family="Helvetica,sans-Serif" font-size="10.00">Listener</text>
</a>
</g>
</g>
<!-- Node11&#45;&gt;Node12 -->
<g id="edge11" class="edge"><title>Node11&#45;&gt;Node12</title>
<path fill="none" stroke="midnightblue" d="M515.169,-117.514C539.228,-121.28 567.942,-125.148 594,-127 677.345,-132.923 698.476,-129.282 782,-127 796.732,-126.597 812.407,-125.935 827.551,-125.174"/>
<polygon fill="midnightblue" stroke="midnightblue" points="828.128,-128.648 837.933,-124.633 827.764,-121.658 828.128,-128.648"/>
</g>
<!-- Node14 -->
<g id="node14" class="node"><title>Node14</title>
<g id="a_node14"><a xlink:href="../../d7/d6c/classmain_1_1_master_window.html#a27163b7cb277c62142db5916aae078c0" target="_top" xlink:title="main.MasterWindow.setMouse\lListener">
<polygon fill="white" stroke="black" points="607.5,-49 607.5,-79 768.5,-79 768.5,-49 607.5,-49"/>
<text text-anchor="start" x="615.5" y="-67" font-family="Helvetica,sans-Serif" font-size="10.00">main.MasterWindow.setMouse</text>
<text text-anchor="middle" x="688" y="-56" font-family="Helvetica,sans-Serif" font-size="10.00">Listener</text>
</a>
</g>
</g>
<!-- Node11&#45;&gt;Node14 -->
<g id="edge13" class="edge"><title>Node11&#45;&gt;Node14</title>
<path fill="none" stroke="midnightblue" d="M510.039,-98.4527C536.165,-93.3661 569.093,-86.9553 599.44,-81.0471"/>
<polygon fill="midnightblue" stroke="midnightblue" points="600.472,-84.412 609.619,-79.0654 599.134,-77.541 600.472,-84.412"/>
</g>
<!-- Node16 -->
<g id="node16" class="node"><title>Node16</title>
<g id="a_node16"><a xlink:href="../../d7/d6c/classmain_1_1_master_window.html#abee1c5dad0269124eb93728730b4b3a8" target="_top" xlink:title="main.MasterWindow.tabChanged">
<polygon fill="white" stroke="black" points="601.5,-98.5 601.5,-117.5 774.5,-117.5 774.5,-98.5 601.5,-98.5"/>
<text text-anchor="middle" x="688" y="-105.5" font-family="Helvetica,sans-Serif" font-size="10.00">main.MasterWindow.tabChanged</text>
</a>
</g>
</g>
<!-- Node11&#45;&gt;Node16 -->
<g id="edge15" class="edge"><title>Node11&#45;&gt;Node16</title>
<path fill="none" stroke="midnightblue" d="M554.228,-108C566.387,-108 578.861,-108 591.063,-108"/>
<polygon fill="midnightblue" stroke="midnightblue" points="591.237,-111.5 601.237,-108 591.237,-104.5 591.237,-111.5"/>
</g>
<!-- Node13 -->
<g id="node13" class="node"><title>Node13</title>
<g id="a_node13"><a xlink:href="../../d3/d21/classfront_end_1_1_workspace.html#af3ac2c0c8f0256e4a26281bacdfbc6b2" target="_top" xlink:title="frontEnd.Workspace.getKey\lListener">
<polygon fill="white" stroke="black" points="1053,-105 1053,-135 1199,-135 1199,-105 1053,-105"/>
<text text-anchor="start" x="1061" y="-123" font-family="Helvetica,sans-Serif" font-size="10.00">frontEnd.Workspace.getKey</text>
<text text-anchor="middle" x="1126" y="-112" font-family="Helvetica,sans-Serif" font-size="10.00">Listener</text>
</a>
</g>
</g>
<!-- Node12&#45;&gt;Node13 -->
<g id="edge12" class="edge"><title>Node12&#45;&gt;Node13</title>
<path fill="none" stroke="midnightblue" d="M984.112,-120C1003.02,-120 1023.55,-120 1042.94,-120"/>
<polygon fill="midnightblue" stroke="midnightblue" points="1042.96,-123.5 1052.96,-120 1042.96,-116.5 1042.96,-123.5"/>
</g>
<!-- Node15 -->
<g id="node15" class="node"><title>Node15</title>
<g id="a_node15"><a xlink:href="../../d3/d21/classfront_end_1_1_workspace.html#a6c55c52266ada6b68172fb5ff6204211" target="_top" xlink:title="frontEnd.Workspace.getMouse\lListener">
<polygon fill="white" stroke="black" points="830.5,-49 830.5,-79 991.5,-79 991.5,-49 830.5,-49"/>
<text text-anchor="start" x="838.5" y="-67" font-family="Helvetica,sans-Serif" font-size="10.00">frontEnd.Workspace.getMouse</text>
<text text-anchor="middle" x="911" y="-56" font-family="Helvetica,sans-Serif" font-size="10.00">Listener</text>
</a>
</g>
</g>
<!-- Node14&#45;&gt;Node15 -->
<g id="edge14" class="edge"><title>Node14&#45;&gt;Node15</title>
<path fill="none" stroke="midnightblue" d="M768.786,-64C785.373,-64 802.963,-64 819.891,-64"/>
<polygon fill="midnightblue" stroke="midnightblue" points="820.331,-67.5001 830.331,-64 820.331,-60.5001 820.331,-67.5001"/>
</g>
<!-- Node16&#45;&gt;Node12 -->
<g id="edge16" class="edge"><title>Node16&#45;&gt;Node12</title>
<path fill="none" stroke="midnightblue" d="M774.761,-112.657C792.206,-113.604 810.518,-114.598 827.835,-115.539"/>
<polygon fill="midnightblue" stroke="midnightblue" points="827.726,-119.038 837.902,-116.085 828.106,-112.048 827.726,-119.038"/>
</g>
<!-- Node18 -->
<g id="node18" class="node"><title>Node18</title>
<g id="a_node18"><a xlink:href="../../de/d44/classmain_1_1_master_menu_bar.html#a249553b44a3e0ed097a3b350b7711f49" target="_top" xlink:title="main.MasterMenuBar.saveWorkspace\lPreferences">
<polygon fill="white" stroke="black" points="362.5,-11 362.5,-41 557.5,-41 557.5,-11 362.5,-11"/>
<text text-anchor="start" x="370.5" y="-29" font-family="Helvetica,sans-Serif" font-size="10.00">main.MasterMenuBar.saveWorkspace</text>
<text text-anchor="middle" x="460" y="-18" font-family="Helvetica,sans-Serif" font-size="10.00">Preferences</text>
</a>
</g>
</g>
<!-- Node17&#45;&gt;Node18 -->
<g id="edge18" class="edge"><title>Node17&#45;&gt;Node18</title>
<path fill="none" stroke="midnightblue" d="M326.275,-40.2436C334.644,-39.3456 343.307,-38.4158 352.014,-37.4815"/>
<polygon fill="midnightblue" stroke="midnightblue" points="352.67,-40.9312 362.239,-36.3841 351.923,-33.9712 352.67,-40.9312"/>
</g>
<!-- Node19 -->
<g id="node19" class="node"><title>Node19</title>
<g id="a_node19"><a xlink:href="../../d7/d6c/classmain_1_1_master_window.html#a9caa01ef95b15769b285ffda84e8f56c" target="_top" xlink:title="main.MasterWindow.saveWorkspace\lPreferences">
<polygon fill="white" stroke="black" points="594,-0 594,-30 782,-30 782,-0 594,-0"/>
<text text-anchor="start" x="602" y="-18" font-family="Helvetica,sans-Serif" font-size="10.00">main.MasterWindow.saveWorkspace</text>
<text text-anchor="middle" x="688" y="-7" font-family="Helvetica,sans-Serif" font-size="10.00">Preferences</text>
</a>
</g>
</g>
<!-- Node18&#45;&gt;Node19 -->
<g id="edge19" class="edge"><title>Node18&#45;&gt;Node19</title>
<path fill="none" stroke="midnightblue" d="M557.828,-21.2871C566.439,-20.868 575.178,-20.4427 583.839,-20.0211"/>
<polygon fill="midnightblue" stroke="midnightblue" points="584.141,-23.5107 593.959,-19.5286 583.8,-16.5189 584.141,-23.5107"/>
</g>
<!-- Node20 -->
<g id="node20" class="node"><title>Node20</title>
<g id="a_node20"><a xlink:href="../../d3/d21/classfront_end_1_1_workspace.html#a897ddb52dc6c71e7fce97d198343692d" target="_top" xlink:title="frontEnd.Workspace.saveProperties\lToFile">
<polygon fill="white" stroke="black" points="818.5,-0 818.5,-30 1003.5,-30 1003.5,-0 818.5,-0"/>
<text text-anchor="start" x="826.5" y="-18" font-family="Helvetica,sans-Serif" font-size="10.00">frontEnd.Workspace.saveProperties</text>
<text text-anchor="middle" x="911" y="-7" font-family="Helvetica,sans-Serif" font-size="10.00">ToFile</text>
</a>
</g>
</g>
<!-- Node19&#45;&gt;Node20 -->
<g id="edge20" class="edge"><title>Node19&#45;&gt;Node20</title>
<path fill="none" stroke="midnightblue" d="M782.083,-15C790.732,-15 799.526,-15 808.247,-15"/>
<polygon fill="midnightblue" stroke="midnightblue" points="808.438,-18.5001 818.438,-15 808.438,-11.5001 808.438,-18.5001"/>
</g>
<!-- Node21 -->
<g id="node21" class="node"><title>Node21</title>
<g id="a_node21"><a xlink:href="../../d3/d21/classfront_end_1_1_workspace.html#a483993a49176099425a0eca9c8da73ca" target="_top" xlink:title="frontEnd.Workspace.saveDisplay\lProperties">
<polygon fill="white" stroke="black" points="1040.5,-0 1040.5,-30 1211.5,-30 1211.5,-0 1040.5,-0"/>
<text text-anchor="start" x="1048.5" y="-18" font-family="Helvetica,sans-Serif" font-size="10.00">frontEnd.Workspace.saveDisplay</text>
<text text-anchor="middle" x="1126" y="-7" font-family="Helvetica,sans-Serif" font-size="10.00">Properties</text>
</a>
</g>
</g>
<!-- Node20&#45;&gt;Node21 -->
<g id="edge21" class="edge"><title>Node20&#45;&gt;Node21</title>
<path fill="none" stroke="midnightblue" d="M1003.57,-15C1012.32,-15 1021.21,-15 1029.99,-15"/>
<polygon fill="midnightblue" stroke="midnightblue" points="1030.24,-18.5001 1040.24,-15 1030.24,-11.5001 1030.24,-18.5001"/>
</g>
<!-- Node22 -->
<g id="node22" class="node"><title>Node22</title>
<g id="a_node22"><a xlink:href="../../d8/d1f/classfront_end_1_1_view.html#a1b425074f6c6cd928ea31c5edddfe04b" target="_top" xlink:title="frontEnd.View.getBackground\lColor">
<polygon fill="white" stroke="black" points="1257.5,-0 1257.5,-30 1414.5,-30 1414.5,-0 1257.5,-0"/>
<text text-anchor="start" x="1265.5" y="-18" font-family="Helvetica,sans-Serif" font-size="10.00">frontEnd.View.getBackground</text>
<text text-anchor="middle" x="1336" y="-7" font-family="Helvetica,sans-Serif" font-size="10.00">Color</text>
</a>
</g>
</g>
<!-- Node21&#45;&gt;Node22 -->
<g id="edge22" class="edge"><title>Node21&#45;&gt;Node22</title>
<path fill="none" stroke="midnightblue" d="M1211.6,-15C1223.26,-15 1235.25,-15 1246.97,-15"/>
<polygon fill="midnightblue" stroke="midnightblue" points="1247.18,-18.5001 1257.18,-15 1247.18,-11.5001 1247.18,-18.5001"/>
</g>
<!-- Node23 -->
<g id="node23" class="node"><title>Node23</title>
<g id="a_node23"><a xlink:href="../../d5/df1/classfront_end_1_1_turtle_canvas.html#a83c9d8f63e6b94f271fdd7f039c7895f" target="_top" xlink:title="frontEnd.TurtleCanvas.get\lBackgroundColor">
<polygon fill="white" stroke="black" points="1470,-0 1470,-30 1610,-30 1610,-0 1470,-0"/>
<text text-anchor="start" x="1478" y="-18" font-family="Helvetica,sans-Serif" font-size="10.00">frontEnd.TurtleCanvas.get</text>
<text text-anchor="middle" x="1540" y="-7" font-family="Helvetica,sans-Serif" font-size="10.00">BackgroundColor</text>
</a>
</g>
</g>
<!-- Node22&#45;&gt;Node23 -->
<g id="edge23" class="edge"><title>Node22&#45;&gt;Node23</title>
<path fill="none" stroke="midnightblue" d="M1414.52,-15C1429.35,-15 1444.89,-15 1459.76,-15"/>
<polygon fill="midnightblue" stroke="midnightblue" points="1459.94,-18.5001 1469.94,-15 1459.94,-11.5001 1459.94,-18.5001"/>
</g>
</g>
</svg>
