<?xml version="1.0" encoding="UTF-8" standalone="no"?>
<!DOCTYPE svg PUBLIC "-//W3C//DTD SVG 1.1//EN"
 "http://www.w3.org/Graphics/SVG/1.1/DTD/svg11.dtd">
<!-- Generated by graphviz version 2.36.0 (20140111.2315)
 -->
<!-- Title: main.MasterMenuBar.setLanguage Pages: 1 -->
<svg width="590pt" height="38pt"
 viewBox="0.00 0.00 590.00 38.00" xmlns="http://www.w3.org/2000/svg" xmlns:xlink="http://www.w3.org/1999/xlink">
<g id="graph0" class="graph" transform="scale(1 1) rotate(0) translate(4 34)">
<title>main.MasterMenuBar.setLanguage</title>
<polygon fill="white" stroke="none" points="-4,4 -4,-34 586,-34 586,4 -4,4"/>
<!-- Node1 -->
<g id="node1" class="node"><title>Node1</title>
<polygon fill="#bfbfbf" stroke="black" points="0,-5.5 0,-24.5 184,-24.5 184,-5.5 0,-5.5"/>
<text text-anchor="middle" x="92" y="-12.5" font-family="Helvetica,sans-Serif" font-size="10.00">main.MasterMenuBar.setLanguage</text>
</g>
<!-- Node2 -->
<g id="node2" class="node"><title>Node2</title>
<g id="a_node2"><a xlink:href="../../d8/de9/classmain_1_1_resource_finder.html#ac263547def40ea1a80625e448fddc7a9" target="_top" xlink:title="main.ResourceFinder.setLanguage">
<polygon fill="white" stroke="black" points="220,-5.5 220,-24.5 400,-24.5 400,-5.5 220,-5.5"/>
<text text-anchor="middle" x="310" y="-12.5" font-family="Helvetica,sans-Serif" font-size="10.00">main.ResourceFinder.setLanguage</text>
</a>
</g>
</g>
<!-- Node1&#45;&gt;Node2 -->
<g id="edge1" class="edge"><title>Node1&#45;&gt;Node2</title>
<path fill="none" stroke="midnightblue" d="M184.29,-15C192.64,-15 201.126,-15 209.542,-15"/>
<polygon fill="midnightblue" stroke="midnightblue" points="209.76,-18.5001 219.76,-15 209.76,-11.5001 209.76,-18.5001"/>
</g>
<!-- Node3 -->
<g id="node3" class="node"><title>Node3</title>
<g id="a_node3"><a xlink:href="../../d8/de9/classmain_1_1_resource_finder.html#a26e58d0569f1ceaa3c7f4262d7d53b7a" target="_top" xlink:title="main.ResourceFinder.setMy\lLanguageResources">
<polygon fill="white" stroke="black" points="436,-0 436,-30 582,-30 582,-0 436,-0"/>
<text text-anchor="start" x="444" y="-18" font-family="Helvetica,sans-Serif" font-size="10.00">main.ResourceFinder.setMy</text>
<text text-anchor="middle" x="509" y="-7" font-family="Helvetica,sans-Serif" font-size="10.00">LanguageResources</text>
</a>
</g>
</g>
<!-- Node2&#45;&gt;Node3 -->
<g id="edge2" class="edge"><title>Node2&#45;&gt;Node3</title>
<path fill="none" stroke="midnightblue" d="M400.278,-15C408.746,-15 417.305,-15 425.704,-15"/>
<polygon fill="midnightblue" stroke="midnightblue" points="425.85,-18.5001 435.85,-15 425.85,-11.5001 425.85,-18.5001"/>
</g>
</g>
</svg>
