<?xml version="1.0" encoding="UTF-8" standalone="no"?>
<!DOCTYPE svg PUBLIC "-//W3C//DTD SVG 1.1//EN"
 "http://www.w3.org/Graphics/SVG/1.1/DTD/svg11.dtd">
<!-- Generated by graphviz version 2.36.0 (20140111.2315)
 -->
<!-- Title: titlePanes.HelpTitlePane.launchBrowser Pages: 1 -->
<svg width="542pt" height="38pt"
 viewBox="0.00 0.00 542.00 38.00" xmlns="http://www.w3.org/2000/svg" xmlns:xlink="http://www.w3.org/1999/xlink">
<g id="graph0" class="graph" transform="scale(1 1) rotate(0) translate(4 34)">
<title>titlePanes.HelpTitlePane.launchBrowser</title>
<polygon fill="white" stroke="none" points="-4,4 -4,-34 538,-34 538,4 -4,4"/>
<!-- Node1 -->
<g id="node1" class="node"><title>Node1</title>
<polygon fill="#bfbfbf" stroke="black" points="0.5,-0 0.5,-30 165.5,-30 165.5,-0 0.5,-0"/>
<text text-anchor="start" x="8.5" y="-18" font-family="Helvetica,sans-Serif" font-size="10.00">titlePanes.HelpTitlePane.launch</text>
<text text-anchor="middle" x="83" y="-7" font-family="Helvetica,sans-Serif" font-size="10.00">Browser</text>
</g>
<!-- Node2 -->
<g id="node2" class="node"><title>Node2</title>
<g id="a_node2"><a xlink:href="../../d1/dd4/classtitle_panes_1_1_help_title_pane.html#a17fb154f8c02a8756af452010f153cfa" target="_top" xlink:title="titlePanes.HelpTitlePane.setup\lHyperlink">
<polygon fill="white" stroke="black" points="202.5,-0 202.5,-30 363.5,-30 363.5,-0 202.5,-0"/>
<text text-anchor="start" x="210.5" y="-18" font-family="Helvetica,sans-Serif" font-size="10.00">titlePanes.HelpTitlePane.setup</text>
<text text-anchor="middle" x="283" y="-7" font-family="Helvetica,sans-Serif" font-size="10.00">Hyperlink</text>
</a>
</g>
</g>
<!-- Node1&#45;&gt;Node2 -->
<g id="edge1" class="edge"><title>Node1&#45;&gt;Node2</title>
<path fill="none" stroke="midnightblue" d="M175.704,-15C184.629,-15 193.633,-15 202.424,-15"/>
<polygon fill="midnightblue" stroke="midnightblue" points="175.677,-11.5001 165.677,-15 175.677,-18.5001 175.677,-11.5001"/>
</g>
<!-- Node3 -->
<g id="node3" class="node"><title>Node3</title>
<g id="a_node3"><a xlink:href="../../d1/dd4/classtitle_panes_1_1_help_title_pane.html#a8d79a52aab35a37ecef4a55512b10197" target="_top" xlink:title="titlePanes.HelpTitlePane.\lHelpTitlePane">
<polygon fill="white" stroke="black" points="400,-0 400,-30 534,-30 534,-0 400,-0"/>
<text text-anchor="start" x="408" y="-18" font-family="Helvetica,sans-Serif" font-size="10.00">titlePanes.HelpTitlePane.</text>
<text text-anchor="middle" x="467" y="-7" font-family="Helvetica,sans-Serif" font-size="10.00">HelpTitlePane</text>
</a>
</g>
</g>
<!-- Node2&#45;&gt;Node3 -->
<g id="edge2" class="edge"><title>Node2&#45;&gt;Node3</title>
<path fill="none" stroke="midnightblue" d="M373.572,-15C382.46,-15 391.366,-15 399.951,-15"/>
<polygon fill="midnightblue" stroke="midnightblue" points="373.563,-11.5001 363.563,-15 373.563,-18.5001 373.563,-11.5001"/>
</g>
</g>
</svg>
