<?xml version="1.0" encoding="UTF-8" standalone="no"?>
<!DOCTYPE svg PUBLIC "-//W3C//DTD SVG 1.1//EN"
 "http://www.w3.org/Graphics/SVG/1.1/DTD/svg11.dtd">
<!-- Generated by graphviz version 2.36.0 (20140111.2315)
 -->
<!-- Title: titlePanes.HelpTitlePane.HelpTitlePane Pages: 1 -->
<svg width="542pt" height="38pt"
 viewBox="0.00 0.00 542.00 38.00" xmlns="http://www.w3.org/2000/svg" xmlns:xlink="http://www.w3.org/1999/xlink">
<g id="graph0" class="graph" transform="scale(1 1) rotate(0) translate(4 34)">
<title>titlePanes.HelpTitlePane.HelpTitlePane</title>
<polygon fill="white" stroke="none" points="-4,4 -4,-34 538,-34 538,4 -4,4"/>
<!-- Node1 -->
<g id="node1" class="node"><title>Node1</title>
<polygon fill="#bfbfbf" stroke="black" points="0,-0 0,-30 134,-30 134,-0 0,-0"/>
<text text-anchor="start" x="8" y="-18" font-family="Helvetica,sans-Serif" font-size="10.00">titlePanes.HelpTitlePane.</text>
<text text-anchor="middle" x="67" y="-7" font-family="Helvetica,sans-Serif" font-size="10.00">HelpTitlePane</text>
</g>
<!-- Node2 -->
<g id="node2" class="node"><title>Node2</title>
<g id="a_node2"><a xlink:href="../../d1/dd4/classtitle_panes_1_1_help_title_pane.html#a17fb154f8c02a8756af452010f153cfa" target="_top" xlink:title="titlePanes.HelpTitlePane.setup\lHyperlink">
<polygon fill="white" stroke="black" points="170.5,-0 170.5,-30 331.5,-30 331.5,-0 170.5,-0"/>
<text text-anchor="start" x="178.5" y="-18" font-family="Helvetica,sans-Serif" font-size="10.00">titlePanes.HelpTitlePane.setup</text>
<text text-anchor="middle" x="251" y="-7" font-family="Helvetica,sans-Serif" font-size="10.00">Hyperlink</text>
</a>
</g>
</g>
<!-- Node1&#45;&gt;Node2 -->
<g id="edge1" class="edge"><title>Node1&#45;&gt;Node2</title>
<path fill="none" stroke="midnightblue" d="M134.221,-15C142.622,-15 151.328,-15 160.021,-15"/>
<polygon fill="midnightblue" stroke="midnightblue" points="160.202,-18.5001 170.202,-15 160.202,-11.5001 160.202,-18.5001"/>
</g>
<!-- Node3 -->
<g id="node3" class="node"><title>Node3</title>
<g id="a_node3"><a xlink:href="../../d1/dd4/classtitle_panes_1_1_help_title_pane.html#a788db4668be79dd6f2d83edc04345ebd" target="_top" xlink:title="titlePanes.HelpTitlePane.launch\lBrowser">
<polygon fill="white" stroke="black" points="368.5,-0 368.5,-30 533.5,-30 533.5,-0 368.5,-0"/>
<text text-anchor="start" x="376.5" y="-18" font-family="Helvetica,sans-Serif" font-size="10.00">titlePanes.HelpTitlePane.launch</text>
<text text-anchor="middle" x="451" y="-7" font-family="Helvetica,sans-Serif" font-size="10.00">Browser</text>
</a>
</g>
</g>
<!-- Node2&#45;&gt;Node3 -->
<g id="edge2" class="edge"><title>Node2&#45;&gt;Node3</title>
<path fill="none" stroke="midnightblue" d="M331.678,-15C340.329,-15 349.184,-15 357.966,-15"/>
<polygon fill="midnightblue" stroke="midnightblue" points="358.224,-18.5001 368.224,-15 358.224,-11.5001 358.224,-18.5001"/>
</g>
</g>
</svg>
