<?xml version="1.0" encoding="UTF-8" standalone="no"?>
<!DOCTYPE svg PUBLIC "-//W3C//DTD SVG 1.1//EN"
 "http://www.w3.org/Graphics/SVG/1.1/DTD/svg11.dtd">
<!-- Generated by graphviz version 2.36.0 (20140111.2315)
 -->
<!-- Title: main.ResourceFinder.getPossibleLanguages Pages: 1 -->
<svg width="742pt" height="77pt"
 viewBox="0.00 0.00 742.00 77.00" xmlns="http://www.w3.org/2000/svg" xmlns:xlink="http://www.w3.org/1999/xlink">
<g id="graph0" class="graph" transform="scale(1 1) rotate(0) translate(4 73)">
<title>main.ResourceFinder.getPossibleLanguages</title>
<polygon fill="white" stroke="none" points="-4,4 -4,-73 738,-73 738,4 -4,4"/>
<!-- Node1 -->
<g id="node1" class="node"><title>Node1</title>
<polygon fill="#bfbfbf" stroke="black" points="0.5,-17 0.5,-47 173.5,-47 173.5,-17 0.5,-17"/>
<text text-anchor="start" x="8.5" y="-35" font-family="Helvetica,sans-Serif" font-size="10.00">main.ResourceFinder.getPossible</text>
<text text-anchor="middle" x="87" y="-24" font-family="Helvetica,sans-Serif" font-size="10.00">Languages</text>
</g>
<!-- Node2 -->
<g id="node2" class="node"><title>Node2</title>
<g id="a_node2"><a xlink:href="../../de/d44/classmain_1_1_master_menu_bar.html#ada4d188668609ed6aed3c7ce08d69fea" target="_top" xlink:title="main.MasterMenuBar.build\lLanguageChooserMenuItem">
<polygon fill="white" stroke="black" points="210,-39 210,-69 362,-69 362,-39 210,-39"/>
<text text-anchor="start" x="218" y="-57" font-family="Helvetica,sans-Serif" font-size="10.00">main.MasterMenuBar.build</text>
<text text-anchor="middle" x="286" y="-46" font-family="Helvetica,sans-Serif" font-size="10.00">LanguageChooserMenuItem</text>
</a>
</g>
</g>
<!-- Node1&#45;&gt;Node2 -->
<g id="edge1" class="edge"><title>Node1&#45;&gt;Node2</title>
<path fill="none" stroke="midnightblue" d="M183.757,-42.6936C192.479,-43.6677 201.229,-44.6449 209.734,-45.5947"/>
<polygon fill="midnightblue" stroke="midnightblue" points="183.874,-39.1851 173.548,-41.5535 183.097,-46.1419 183.874,-39.1851"/>
</g>
<!-- Node5 -->
<g id="node5" class="node"><title>Node5</title>
<g id="a_node5"><a xlink:href="../../db/dd6/classtests_1_1_language_tester.html#a36050167ab3267e24e1ace0e3daafc88" target="_top" xlink:title="tests.LanguageTester.main">
<polygon fill="white" stroke="black" points="213,-0.5 213,-19.5 359,-19.5 359,-0.5 213,-0.5"/>
<text text-anchor="middle" x="286" y="-7.5" font-family="Helvetica,sans-Serif" font-size="10.00">tests.LanguageTester.main</text>
</a>
</g>
</g>
<!-- Node1&#45;&gt;Node5 -->
<g id="edge4" class="edge"><title>Node1&#45;&gt;Node5</title>
<path fill="none" stroke="midnightblue" d="M183.713,-21.3113C193.495,-20.2188 203.314,-19.1223 212.784,-18.0648"/>
<polygon fill="midnightblue" stroke="midnightblue" points="183.097,-17.8581 173.548,-22.4465 183.874,-24.8149 183.097,-17.8581"/>
</g>
<!-- Node3 -->
<g id="node3" class="node"><title>Node3</title>
<g id="a_node3"><a xlink:href="../../de/d44/classmain_1_1_master_menu_bar.html#a81ecd4aa2113ce11bf3ba108b1a10f22" target="_top" xlink:title="main.MasterMenuBar.build\lEditMenu">
<polygon fill="white" stroke="black" points="398,-39 398,-69 542,-69 542,-39 398,-39"/>
<text text-anchor="start" x="406" y="-57" font-family="Helvetica,sans-Serif" font-size="10.00">main.MasterMenuBar.build</text>
<text text-anchor="middle" x="470" y="-46" font-family="Helvetica,sans-Serif" font-size="10.00">EditMenu</text>
</a>
</g>
</g>
<!-- Node2&#45;&gt;Node3 -->
<g id="edge2" class="edge"><title>Node2&#45;&gt;Node3</title>
<path fill="none" stroke="midnightblue" d="M372.144,-54C380.762,-54 389.451,-54 397.899,-54"/>
<polygon fill="midnightblue" stroke="midnightblue" points="372.077,-50.5001 362.077,-54 372.077,-57.5001 372.077,-50.5001"/>
</g>
<!-- Node4 -->
<g id="node4" class="node"><title>Node4</title>
<g id="a_node4"><a xlink:href="../../de/d44/classmain_1_1_master_menu_bar.html#a1baeeae18c6cf1bb2c48541b48afe20c" target="_top" xlink:title="main.MasterMenuBar.Master\lMenuBar">
<polygon fill="white" stroke="black" points="578.5,-39 578.5,-69 733.5,-69 733.5,-39 578.5,-39"/>
<text text-anchor="start" x="586.5" y="-57" font-family="Helvetica,sans-Serif" font-size="10.00">main.MasterMenuBar.Master</text>
<text text-anchor="middle" x="656" y="-46" font-family="Helvetica,sans-Serif" font-size="10.00">MenuBar</text>
</a>
</g>
</g>
<!-- Node3&#45;&gt;Node4 -->
<g id="edge3" class="edge"><title>Node3&#45;&gt;Node4</title>
<path fill="none" stroke="midnightblue" d="M552.219,-54C560.872,-54 569.654,-54 578.253,-54"/>
<polygon fill="midnightblue" stroke="midnightblue" points="552.139,-50.5001 542.139,-54 552.139,-57.5001 552.139,-50.5001"/>
</g>
</g>
</svg>
