<?xml version="1.0" encoding="UTF-8" standalone="no"?>
<!DOCTYPE svg PUBLIC "-//W3C//DTD SVG 1.1//EN"
 "http://www.w3.org/Graphics/SVG/1.1/DTD/svg11.dtd">
<!-- Generated by graphviz version 2.36.0 (20140111.2315)
 -->
<!-- Title: main.ResourceFinder.setLanguage Pages: 1 -->
<svg width="968pt" height="38pt"
 viewBox="0.00 0.00 968.00 38.00" xmlns="http://www.w3.org/2000/svg" xmlns:xlink="http://www.w3.org/1999/xlink">
<g id="graph0" class="graph" transform="scale(1 1) rotate(0) translate(4 34)">
<title>main.ResourceFinder.setLanguage</title>
<polygon fill="white" stroke="none" points="-4,4 -4,-34 964,-34 964,4 -4,4"/>
<!-- Node1 -->
<g id="node1" class="node"><title>Node1</title>
<polygon fill="#bfbfbf" stroke="black" points="0,-5.5 0,-24.5 180,-24.5 180,-5.5 0,-5.5"/>
<text text-anchor="middle" x="90" y="-12.5" font-family="Helvetica,sans-Serif" font-size="10.00">main.ResourceFinder.setLanguage</text>
</g>
<!-- Node2 -->
<g id="node2" class="node"><title>Node2</title>
<g id="a_node2"><a xlink:href="../../de/d44/classmain_1_1_master_menu_bar.html#a73a854a507abefec9cc1c19cee6a3721" target="_top" xlink:title="main.MasterMenuBar.setLanguage">
<polygon fill="white" stroke="black" points="216,-5.5 216,-24.5 400,-24.5 400,-5.5 216,-5.5"/>
<text text-anchor="middle" x="308" y="-12.5" font-family="Helvetica,sans-Serif" font-size="10.00">main.MasterMenuBar.setLanguage</text>
</a>
</g>
</g>
<!-- Node1&#45;&gt;Node2 -->
<g id="edge1" class="edge"><title>Node1&#45;&gt;Node2</title>
<path fill="none" stroke="midnightblue" d="M190.344,-15C198.78,-15 207.288,-15 215.658,-15"/>
<polygon fill="midnightblue" stroke="midnightblue" points="190.103,-11.5001 180.103,-15 190.102,-18.5001 190.103,-11.5001"/>
</g>
<!-- Node3 -->
<g id="node3" class="node"><title>Node3</title>
<g id="a_node3"><a xlink:href="../../de/d44/classmain_1_1_master_menu_bar.html#ada4d188668609ed6aed3c7ce08d69fea" target="_top" xlink:title="main.MasterMenuBar.build\lLanguageChooserMenuItem">
<polygon fill="white" stroke="black" points="436,-0 436,-30 588,-30 588,-0 436,-0"/>
<text text-anchor="start" x="444" y="-18" font-family="Helvetica,sans-Serif" font-size="10.00">main.MasterMenuBar.build</text>
<text text-anchor="middle" x="512" y="-7" font-family="Helvetica,sans-Serif" font-size="10.00">LanguageChooserMenuItem</text>
</a>
</g>
</g>
<!-- Node2&#45;&gt;Node3 -->
<g id="edge2" class="edge"><title>Node2&#45;&gt;Node3</title>
<path fill="none" stroke="midnightblue" d="M410.334,-15C418.937,-15 427.536,-15 435.882,-15"/>
<polygon fill="midnightblue" stroke="midnightblue" points="410.249,-11.5001 400.249,-15 410.249,-18.5001 410.249,-11.5001"/>
</g>
<!-- Node4 -->
<g id="node4" class="node"><title>Node4</title>
<g id="a_node4"><a xlink:href="../../de/d44/classmain_1_1_master_menu_bar.html#a81ecd4aa2113ce11bf3ba108b1a10f22" target="_top" xlink:title="main.MasterMenuBar.build\lEditMenu">
<polygon fill="white" stroke="black" points="624,-0 624,-30 768,-30 768,-0 624,-0"/>
<text text-anchor="start" x="632" y="-18" font-family="Helvetica,sans-Serif" font-size="10.00">main.MasterMenuBar.build</text>
<text text-anchor="middle" x="696" y="-7" font-family="Helvetica,sans-Serif" font-size="10.00">EditMenu</text>
</a>
</g>
</g>
<!-- Node3&#45;&gt;Node4 -->
<g id="edge3" class="edge"><title>Node3&#45;&gt;Node4</title>
<path fill="none" stroke="midnightblue" d="M598.144,-15C606.762,-15 615.451,-15 623.899,-15"/>
<polygon fill="midnightblue" stroke="midnightblue" points="598.077,-11.5001 588.077,-15 598.077,-18.5001 598.077,-11.5001"/>
</g>
<!-- Node5 -->
<g id="node5" class="node"><title>Node5</title>
<g id="a_node5"><a xlink:href="../../de/d44/classmain_1_1_master_menu_bar.html#a1baeeae18c6cf1bb2c48541b48afe20c" target="_top" xlink:title="main.MasterMenuBar.Master\lMenuBar">
<polygon fill="white" stroke="black" points="804.5,-0 804.5,-30 959.5,-30 959.5,-0 804.5,-0"/>
<text text-anchor="start" x="812.5" y="-18" font-family="Helvetica,sans-Serif" font-size="10.00">main.MasterMenuBar.Master</text>
<text text-anchor="middle" x="882" y="-7" font-family="Helvetica,sans-Serif" font-size="10.00">MenuBar</text>
</a>
</g>
</g>
<!-- Node4&#45;&gt;Node5 -->
<g id="edge4" class="edge"><title>Node4&#45;&gt;Node5</title>
<path fill="none" stroke="midnightblue" d="M778.219,-15C786.872,-15 795.654,-15 804.253,-15"/>
<polygon fill="midnightblue" stroke="midnightblue" points="778.139,-11.5001 768.139,-15 778.139,-18.5001 778.139,-11.5001"/>
</g>
</g>
</svg>
