<?xml version="1.0" encoding="UTF-8" standalone="no"?>
<!DOCTYPE svg PUBLIC "-//W3C//DTD SVG 1.1//EN"
 "http://www.w3.org/Graphics/SVG/1.1/DTD/svg11.dtd">
<!-- Generated by graphviz version 2.36.0 (20140111.2315)
 -->
<!-- Title: commands.turtle_commands.TowardsCommand.execute Pages: 1 -->
<svg width="658pt" height="207pt"
 viewBox="0.00 0.00 658.00 207.00" xmlns="http://www.w3.org/2000/svg" xmlns:xlink="http://www.w3.org/1999/xlink">
<g id="graph0" class="graph" transform="scale(1 1) rotate(0) translate(4 203)">
<title>commands.turtle_commands.TowardsCommand.execute</title>
<polygon fill="white" stroke="none" points="-4,4 -4,-203 654,-203 654,4 -4,4"/>
<!-- Node1 -->
<g id="node1" class="node"><title>Node1</title>
<polygon fill="#bfbfbf" stroke="black" points="0.5,-73 0.5,-103 161.5,-103 161.5,-73 0.5,-73"/>
<text text-anchor="start" x="8.5" y="-91" font-family="Helvetica,sans-Serif" font-size="10.00">commands.turtle_commands.</text>
<text text-anchor="middle" x="81" y="-80" font-family="Helvetica,sans-Serif" font-size="10.00">TowardsCommand.execute</text>
</g>
<!-- Node2 -->
<g id="node2" class="node"><title>Node2</title>
<g id="a_node2"><a xlink:href="../../db/d90/classcommands_1_1turtle__commands_1_1_towards_command.html#afc72967a871441377946f43e8ff47895" target="_top" xlink:title="commands.turtle_commands.\lTowardsCommand.executeTurtleCommand">
<polygon fill="white" stroke="black" points="198.5,-98 198.5,-128 419.5,-128 419.5,-98 198.5,-98"/>
<text text-anchor="start" x="206.5" y="-116" font-family="Helvetica,sans-Serif" font-size="10.00">commands.turtle_commands.</text>
<text text-anchor="middle" x="309" y="-105" font-family="Helvetica,sans-Serif" font-size="10.00">TowardsCommand.executeTurtleCommand</text>
</a>
</g>
</g>
<!-- Node1&#45;&gt;Node2 -->
<g id="edge1" class="edge"><title>Node1&#45;&gt;Node2</title>
<path fill="none" stroke="midnightblue" d="M161.679,-90.332C180.726,-92.1242 201.159,-94.3471 220.536,-96.7304"/>
<polygon fill="midnightblue" stroke="midnightblue" points="220.201,-100.216 230.56,-97.9899 221.074,-93.2703 220.201,-100.216"/>
</g>
<!-- Node6 -->
<g id="node6" class="node"><title>Node6</title>
<g id="a_node6"><a xlink:href="../../dc/d36/classcommands_1_1templates_1_1_turtle_command.html#ae4d2a640c2db20e624d831deed30484d" target="_top" xlink:title="commands.templates.Turtle\lCommand.getMyTurtleManager">
<polygon fill="white" stroke="black" points="225.5,-49 225.5,-79 392.5,-79 392.5,-49 225.5,-49"/>
<text text-anchor="start" x="233.5" y="-67" font-family="Helvetica,sans-Serif" font-size="10.00">commands.templates.Turtle</text>
<text text-anchor="middle" x="309" y="-56" font-family="Helvetica,sans-Serif" font-size="10.00">Command.getMyTurtleManager</text>
</a>
</g>
</g>
<!-- Node1&#45;&gt;Node6 -->
<g id="edge6" class="edge"><title>Node1&#45;&gt;Node6</title>
<path fill="none" stroke="midnightblue" d="M161.679,-79.5385C178.889,-77.7109 197.231,-75.763 214.903,-73.8864"/>
<polygon fill="midnightblue" stroke="midnightblue" points="215.642,-77.3277 225.217,-72.7911 214.903,-70.3668 215.642,-77.3277"/>
</g>
<!-- Node8 -->
<g id="node8" class="node"><title>Node8</title>
<g id="a_node8"><a xlink:href="../../d5/d62/classcommands_1_1templates_1_1_command.html#a97358158dd12c0a83a49df3c1e379790" target="_top" xlink:title="commands.templates.Command.get\lValue">
<polygon fill="white" stroke="black" points="212,-0 212,-30 406,-30 406,-0 212,-0"/>
<text text-anchor="start" x="220" y="-18" font-family="Helvetica,sans-Serif" font-size="10.00">commands.templates.Command.get</text>
<text text-anchor="middle" x="309" y="-7" font-family="Helvetica,sans-Serif" font-size="10.00">Value</text>
</a>
</g>
</g>
<!-- Node1&#45;&gt;Node8 -->
<g id="edge8" class="edge"><title>Node1&#45;&gt;Node8</title>
<path fill="none" stroke="midnightblue" d="M113.407,-72.8635C136.413,-62.2405 168.618,-48.3227 198,-39 205.271,-36.6931 212.88,-34.5318 220.557,-32.5254"/>
<polygon fill="midnightblue" stroke="midnightblue" points="221.457,-35.9081 230.297,-30.0674 219.744,-29.1209 221.457,-35.9081"/>
</g>
<!-- Node2&#45;&gt;Node1 -->
<g id="edge5" class="edge"><title>Node2&#45;&gt;Node1</title>
<path fill="none" stroke="midnightblue" d="M198.265,-107.609C188.636,-106.558 178.975,-105.439 169.563,-104.282"/>
<polygon fill="midnightblue" stroke="midnightblue" points="169.818,-100.786 159.46,-103.013 168.946,-107.732 169.818,-100.786"/>
</g>
<!-- Node3 -->
<g id="node3" class="node"><title>Node3</title>
<g id="a_node3"><a xlink:href="../../d4/d07/classback_end_1_1turtle_1_1_turtle_manager.html#abd8e7545c1f29c7714bc7aaf59d3875b" target="_top" xlink:title="backEnd.turtle.TurtleManager.get\lTurtleList">
<polygon fill="white" stroke="black" points="466,-169 466,-199 640,-199 640,-169 466,-169"/>
<text text-anchor="start" x="474" y="-187" font-family="Helvetica,sans-Serif" font-size="10.00">backEnd.turtle.TurtleManager.get</text>
<text text-anchor="middle" x="553" y="-176" font-family="Helvetica,sans-Serif" font-size="10.00">TurtleList</text>
</a>
</g>
</g>
<!-- Node2&#45;&gt;Node3 -->
<g id="edge2" class="edge"><title>Node2&#45;&gt;Node3</title>
<path fill="none" stroke="midnightblue" d="M355.85,-128.099C384.523,-137.379 422.286,-149.306 456,-159 464.63,-161.482 473.727,-163.989 482.743,-166.41"/>
<polygon fill="midnightblue" stroke="midnightblue" points="481.905,-169.808 492.468,-168.996 483.704,-163.044 481.905,-169.808"/>
</g>
<!-- Node4 -->
<g id="node4" class="node"><title>Node4</title>
<g id="a_node4"><a xlink:href="../../d5/d62/classcommands_1_1templates_1_1_command.html#a632193b631b368f6ffbc514865f062e5" target="_top" xlink:title="commands.templates.Command.set\lValue">
<polygon fill="white" stroke="black" points="456,-120 456,-150 650,-150 650,-120 456,-120"/>
<text text-anchor="start" x="464" y="-138" font-family="Helvetica,sans-Serif" font-size="10.00">commands.templates.Command.set</text>
<text text-anchor="middle" x="553" y="-127" font-family="Helvetica,sans-Serif" font-size="10.00">Value</text>
</a>
</g>
</g>
<!-- Node2&#45;&gt;Node4 -->
<g id="edge3" class="edge"><title>Node2&#45;&gt;Node4</title>
<path fill="none" stroke="midnightblue" d="M419.671,-122.97C428.3,-123.755 437.007,-124.546 445.613,-125.328"/>
<polygon fill="midnightblue" stroke="midnightblue" points="445.384,-128.822 455.66,-126.242 446.018,-121.851 445.384,-128.822"/>
</g>
<!-- Node5 -->
<g id="node5" class="node"><title>Node5</title>
<g id="a_node5"><a xlink:href="../../d5/d62/classcommands_1_1templates_1_1_command.html#ae48716b79da0af7e6815fbe6fc113075" target="_top" xlink:title="commands.templates.Command.get\lMyChildren">
<polygon fill="white" stroke="black" points="456,-71 456,-101 650,-101 650,-71 456,-71"/>
<text text-anchor="start" x="464" y="-89" font-family="Helvetica,sans-Serif" font-size="10.00">commands.templates.Command.get</text>
<text text-anchor="middle" x="553" y="-78" font-family="Helvetica,sans-Serif" font-size="10.00">MyChildren</text>
</a>
</g>
</g>
<!-- Node2&#45;&gt;Node5 -->
<g id="edge4" class="edge"><title>Node2&#45;&gt;Node5</title>
<path fill="none" stroke="midnightblue" d="M419.671,-100.764C428.3,-99.8012 437.007,-98.8298 445.613,-97.8696"/>
<polygon fill="midnightblue" stroke="midnightblue" points="446.11,-101.336 455.66,-96.7487 445.333,-94.3792 446.11,-101.336"/>
</g>
<!-- Node7 -->
<g id="node7" class="node"><title>Node7</title>
<g id="a_node7"><a xlink:href="../../d9/d98/classback_end_1_1_model.html#a1f54b1acaee5f2f608376ce454fa82f2" target="_top" xlink:title="backEnd.Model.getTurtleManager">
<polygon fill="white" stroke="black" points="465.5,-32.5 465.5,-51.5 640.5,-51.5 640.5,-32.5 465.5,-32.5"/>
<text text-anchor="middle" x="553" y="-39.5" font-family="Helvetica,sans-Serif" font-size="10.00">backEnd.Model.getTurtleManager</text>
</a>
</g>
</g>
<!-- Node6&#45;&gt;Node7 -->
<g id="edge7" class="edge"><title>Node6&#45;&gt;Node7</title>
<path fill="none" stroke="midnightblue" d="M392.606,-56.4904C412.727,-54.6611 434.429,-52.6883 455.147,-50.8049"/>
<polygon fill="midnightblue" stroke="midnightblue" points="455.585,-54.2796 465.227,-49.8885 454.951,-47.3083 455.585,-54.2796"/>
</g>
</g>
</svg>
