<?xml version="1.0" encoding="UTF-8" standalone="no"?>
<!DOCTYPE svg PUBLIC "-//W3C//DTD SVG 1.1//EN"
 "http://www.w3.org/Graphics/SVG/1.1/DTD/svg11.dtd">
<!-- Generated by graphviz version 2.36.0 (20140111.2315)
 -->
<!-- Title: commands.turtle_commands.TowardsCommand.executeTurtleCommand Pages: 1 -->
<svg width="902pt" height="209pt"
 viewBox="0.00 0.00 902.00 209.00" xmlns="http://www.w3.org/2000/svg" xmlns:xlink="http://www.w3.org/1999/xlink">
<g id="graph0" class="graph" transform="scale(1 1) rotate(0) translate(4 205)">
<title>commands.turtle_commands.TowardsCommand.executeTurtleCommand</title>
<polygon fill="white" stroke="none" points="-4,4 -4,-205 898,-205 898,4 -4,4"/>
<!-- Node1 -->
<g id="node1" class="node"><title>Node1</title>
<polygon fill="#bfbfbf" stroke="black" points="0.5,-98 0.5,-128 221.5,-128 221.5,-98 0.5,-98"/>
<text text-anchor="start" x="8.5" y="-116" font-family="Helvetica,sans-Serif" font-size="10.00">commands.turtle_commands.</text>
<text text-anchor="middle" x="111" y="-105" font-family="Helvetica,sans-Serif" font-size="10.00">TowardsCommand.executeTurtleCommand</text>
</g>
<!-- Node2 -->
<g id="node2" class="node"><title>Node2</title>
<g id="a_node2"><a xlink:href="../../db/d90/classcommands_1_1turtle__commands_1_1_towards_command.html#a8cd9a083d87b20c53a805b4fe8e0aa06" target="_top" xlink:title="commands.turtle_commands.\lTowardsCommand.execute">
<polygon fill="white" stroke="black" points="274.5,-147 274.5,-177 435.5,-177 435.5,-147 274.5,-147"/>
<text text-anchor="start" x="282.5" y="-165" font-family="Helvetica,sans-Serif" font-size="10.00">commands.turtle_commands.</text>
<text text-anchor="middle" x="355" y="-154" font-family="Helvetica,sans-Serif" font-size="10.00">TowardsCommand.execute</text>
</a>
</g>
</g>
<!-- Node1&#45;&gt;Node2 -->
<g id="edge1" class="edge"><title>Node1&#45;&gt;Node2</title>
<path fill="none" stroke="midnightblue" d="M219.554,-128.065C246.165,-133.305 273.654,-139.164 296.787,-144.58"/>
<polygon fill="midnightblue" stroke="midnightblue" points="296.216,-148.042 306.754,-146.952 297.836,-141.232 296.216,-148.042"/>
</g>
<!-- Node6 -->
<g id="node6" class="node"><title>Node6</title>
<g id="a_node6"><a xlink:href="../../d5/d62/classcommands_1_1templates_1_1_command.html#ae48716b79da0af7e6815fbe6fc113075" target="_top" xlink:title="commands.templates.Command.get\lMyChildren">
<polygon fill="white" stroke="black" points="258,-98 258,-128 452,-128 452,-98 258,-98"/>
<text text-anchor="start" x="266" y="-116" font-family="Helvetica,sans-Serif" font-size="10.00">commands.templates.Command.get</text>
<text text-anchor="middle" x="355" y="-105" font-family="Helvetica,sans-Serif" font-size="10.00">MyChildren</text>
</a>
</g>
</g>
<!-- Node1&#45;&gt;Node6 -->
<g id="edge6" class="edge"><title>Node1&#45;&gt;Node6</title>
<path fill="none" stroke="midnightblue" d="M221.671,-113C230.3,-113 239.007,-113 247.613,-113"/>
<polygon fill="midnightblue" stroke="midnightblue" points="247.66,-116.5 257.66,-113 247.66,-109.5 247.66,-116.5"/>
</g>
<!-- Node7 -->
<g id="node7" class="node"><title>Node7</title>
<g id="a_node7"><a xlink:href="../../d4/d07/classback_end_1_1turtle_1_1_turtle_manager.html#abd8e7545c1f29c7714bc7aaf59d3875b" target="_top" xlink:title="backEnd.turtle.TurtleManager.get\lTurtleList">
<polygon fill="white" stroke="black" points="268,-49 268,-79 442,-79 442,-49 268,-49"/>
<text text-anchor="start" x="276" y="-67" font-family="Helvetica,sans-Serif" font-size="10.00">backEnd.turtle.TurtleManager.get</text>
<text text-anchor="middle" x="355" y="-56" font-family="Helvetica,sans-Serif" font-size="10.00">TurtleList</text>
</a>
</g>
</g>
<!-- Node1&#45;&gt;Node7 -->
<g id="edge7" class="edge"><title>Node1&#45;&gt;Node7</title>
<path fill="none" stroke="midnightblue" d="M186.253,-97.9654C212.734,-92.6035 242.744,-86.5269 269.988,-81.0108"/>
<polygon fill="midnightblue" stroke="midnightblue" points="270.781,-84.4212 279.888,-79.0062 269.392,-77.5604 270.781,-84.4212"/>
</g>
<!-- Node8 -->
<g id="node8" class="node"><title>Node8</title>
<g id="a_node8"><a xlink:href="../../d5/d62/classcommands_1_1templates_1_1_command.html#a632193b631b368f6ffbc514865f062e5" target="_top" xlink:title="commands.templates.Command.set\lValue">
<polygon fill="white" stroke="black" points="258,-0 258,-30 452,-30 452,-0 258,-0"/>
<text text-anchor="start" x="266" y="-18" font-family="Helvetica,sans-Serif" font-size="10.00">commands.templates.Command.set</text>
<text text-anchor="middle" x="355" y="-7" font-family="Helvetica,sans-Serif" font-size="10.00">Value</text>
</a>
</g>
</g>
<!-- Node1&#45;&gt;Node8 -->
<g id="edge8" class="edge"><title>Node1&#45;&gt;Node8</title>
<path fill="none" stroke="midnightblue" d="M137.896,-97.9696C166.518,-81.8567 214.358,-56.3875 258,-40 264.706,-37.4818 271.768,-35.122 278.892,-32.9355"/>
<polygon fill="midnightblue" stroke="midnightblue" points="280.018,-36.2522 288.617,-30.0628 278.036,-29.5389 280.018,-36.2522"/>
</g>
<!-- Node2&#45;&gt;Node1 -->
<g id="edge2" class="edge"><title>Node2&#45;&gt;Node1</title>
<path fill="none" stroke="midnightblue" d="M274.49,-152.285C240.082,-145.948 200.581,-137.766 169.142,-130.403"/>
<polygon fill="midnightblue" stroke="midnightblue" points="169.773,-126.956 159.235,-128.045 168.152,-133.766 169.773,-126.956"/>
</g>
<!-- Node3 -->
<g id="node3" class="node"><title>Node3</title>
<g id="a_node3"><a xlink:href="../../dc/d36/classcommands_1_1templates_1_1_turtle_command.html#ae4d2a640c2db20e624d831deed30484d" target="_top" xlink:title="commands.templates.Turtle\lCommand.getMyTurtleManager">
<polygon fill="white" stroke="black" points="501.5,-171 501.5,-201 668.5,-201 668.5,-171 501.5,-171"/>
<text text-anchor="start" x="509.5" y="-189" font-family="Helvetica,sans-Serif" font-size="10.00">commands.templates.Turtle</text>
<text text-anchor="middle" x="585" y="-178" font-family="Helvetica,sans-Serif" font-size="10.00">Command.getMyTurtleManager</text>
</a>
</g>
</g>
<!-- Node2&#45;&gt;Node3 -->
<g id="edge3" class="edge"><title>Node2&#45;&gt;Node3</title>
<path fill="none" stroke="midnightblue" d="M435.743,-170.394C453.621,-172.276 472.738,-174.288 491.098,-176.221"/>
<polygon fill="midnightblue" stroke="midnightblue" points="490.897,-179.719 501.208,-177.285 491.63,-172.757 490.897,-179.719"/>
</g>
<!-- Node5 -->
<g id="node5" class="node"><title>Node5</title>
<g id="a_node5"><a xlink:href="../../d5/d62/classcommands_1_1templates_1_1_command.html#a97358158dd12c0a83a49df3c1e379790" target="_top" xlink:title="commands.templates.Command.get\lValue">
<polygon fill="white" stroke="black" points="488,-122 488,-152 682,-152 682,-122 488,-122"/>
<text text-anchor="start" x="496" y="-140" font-family="Helvetica,sans-Serif" font-size="10.00">commands.templates.Command.get</text>
<text text-anchor="middle" x="585" y="-129" font-family="Helvetica,sans-Serif" font-size="10.00">Value</text>
</a>
</g>
</g>
<!-- Node2&#45;&gt;Node5 -->
<g id="edge5" class="edge"><title>Node2&#45;&gt;Node5</title>
<path fill="none" stroke="midnightblue" d="M435.743,-153.256C449.28,-151.772 463.527,-150.21 477.619,-148.665"/>
<polygon fill="midnightblue" stroke="midnightblue" points="478.28,-152.113 487.839,-147.544 477.517,-145.155 478.28,-152.113"/>
</g>
<!-- Node4 -->
<g id="node4" class="node"><title>Node4</title>
<g id="a_node4"><a xlink:href="../../d9/d98/classback_end_1_1_model.html#a1f54b1acaee5f2f608376ce454fa82f2" target="_top" xlink:title="backEnd.Model.getTurtleManager">
<polygon fill="white" stroke="black" points="718.5,-176.5 718.5,-195.5 893.5,-195.5 893.5,-176.5 718.5,-176.5"/>
<text text-anchor="middle" x="806" y="-183.5" font-family="Helvetica,sans-Serif" font-size="10.00">backEnd.Model.getTurtleManager</text>
</a>
</g>
</g>
<!-- Node3&#45;&gt;Node4 -->
<g id="edge4" class="edge"><title>Node3&#45;&gt;Node4</title>
<path fill="none" stroke="midnightblue" d="M668.795,-186C681.729,-186 695.192,-186 708.402,-186"/>
<polygon fill="midnightblue" stroke="midnightblue" points="708.441,-189.5 718.44,-186 708.44,-182.5 708.441,-189.5"/>
</g>
</g>
</svg>
