<?xml version="1.0" encoding="UTF-8" standalone="no"?>
<!DOCTYPE svg PUBLIC "-//W3C//DTD SVG 1.1//EN"
 "http://www.w3.org/Graphics/SVG/1.1/DTD/svg11.dtd">
<!-- Generated by graphviz version 2.36.0 (20140111.2315)
 -->
<!-- Title: commands.turtle_commands.TowardsCommand.executeTurtleCommand Pages: 1 -->
<svg width="428pt" height="38pt"
 viewBox="0.00 0.00 428.00 38.00" xmlns="http://www.w3.org/2000/svg" xmlns:xlink="http://www.w3.org/1999/xlink">
<g id="graph0" class="graph" transform="scale(1 1) rotate(0) translate(4 34)">
<title>commands.turtle_commands.TowardsCommand.executeTurtleCommand</title>
<polygon fill="white" stroke="none" points="-4,4 -4,-34 424,-34 424,4 -4,4"/>
<!-- Node1 -->
<g id="node1" class="node"><title>Node1</title>
<polygon fill="#bfbfbf" stroke="black" points="0.5,-0 0.5,-30 221.5,-30 221.5,-0 0.5,-0"/>
<text text-anchor="start" x="8.5" y="-18" font-family="Helvetica,sans-Serif" font-size="10.00">commands.turtle_commands.</text>
<text text-anchor="middle" x="111" y="-7" font-family="Helvetica,sans-Serif" font-size="10.00">TowardsCommand.executeTurtleCommand</text>
</g>
<!-- Node2 -->
<g id="node2" class="node"><title>Node2</title>
<g id="a_node2"><a xlink:href="../../db/d90/classcommands_1_1turtle__commands_1_1_towards_command.html#a8cd9a083d87b20c53a805b4fe8e0aa06" target="_top" xlink:title="commands.turtle_commands.\lTowardsCommand.execute">
<polygon fill="white" stroke="black" points="258.5,-0 258.5,-30 419.5,-30 419.5,-0 258.5,-0"/>
<text text-anchor="start" x="266.5" y="-18" font-family="Helvetica,sans-Serif" font-size="10.00">commands.turtle_commands.</text>
<text text-anchor="middle" x="339" y="-7" font-family="Helvetica,sans-Serif" font-size="10.00">TowardsCommand.execute</text>
</a>
</g>
</g>
<!-- Node1&#45;&gt;Node2 -->
<g id="edge1" class="edge"><title>Node1&#45;&gt;Node2</title>
<path fill="none" stroke="midnightblue" d="M231.838,-8.261C240.815,-8.2899 249.734,-8.3758 258.368,-8.51868"/>
<polygon fill="midnightblue" stroke="midnightblue" points="231.693,-4.76097 221.69,-8.25257 231.687,-11.761 231.693,-4.76097"/>
</g>
<!-- Node2&#45;&gt;Node1 -->
<g id="edge2" class="edge"><title>Node2&#45;&gt;Node1</title>
<path fill="none" stroke="midnightblue" d="M248.227,-21.6216C239.501,-21.7193 230.582,-21.7613 221.69,-21.7474"/>
<polygon fill="midnightblue" stroke="midnightblue" points="248.417,-25.1194 258.368,-21.4813 248.321,-18.1201 248.417,-25.1194"/>
</g>
</g>
</svg>
