<?xml version="1.0" encoding="UTF-8" standalone="no"?>
<!DOCTYPE svg PUBLIC "-//W3C//DTD SVG 1.1//EN"
 "http://www.w3.org/Graphics/SVG/1.1/DTD/svg11.dtd">
<!-- Generated by graphviz version 2.36.0 (20140111.2315)
 -->
<!-- Title: backEnd.Parser Pages: 1 -->
<svg width="466pt" height="164pt"
 viewBox="0.00 0.00 466.00 164.00" xmlns="http://www.w3.org/2000/svg" xmlns:xlink="http://www.w3.org/1999/xlink">
<g id="graph0" class="graph" transform="scale(1 1) rotate(0) translate(4 160)">
<title>backEnd.Parser</title>
<polygon fill="white" stroke="none" points="-4,4 -4,-160 462,-160 462,4 -4,4"/>
<!-- Node1 -->
<g id="node1" class="node"><title>Node1</title>
<polygon fill="#bfbfbf" stroke="black" points="140,-0.5 140,-19.5 230,-19.5 230,-0.5 140,-0.5"/>
<text text-anchor="middle" x="185" y="-7.5" font-family="Helvetica,sans-Serif" font-size="10.00">backEnd.Parser</text>
</g>
<!-- Node2 -->
<g id="node2" class="node"><title>Node2</title>
<polygon fill="white" stroke="#bfbfbf" points="-0.5,-68.5 -0.5,-87.5 88.5,-87.5 88.5,-68.5 -0.5,-68.5"/>
<text text-anchor="middle" x="44" y="-75.5" font-family="Helvetica,sans-Serif" font-size="10.00">StringTokenizer</text>
</g>
<!-- Node2&#45;&gt;Node1 -->
<g id="edge1" class="edge"><title>Node2&#45;&gt;Node1</title>
<path fill="none" stroke="#9a32cd" stroke-dasharray="5,2" d="M64.4883,-62.7085C76.5025,-54.7434 92.1875,-45.0419 107,-38 122.53,-30.6168 140.64,-24.2228 155.498,-19.5128"/>
<polygon fill="#9a32cd" stroke="#9a32cd" points="62.4137,-59.8862 56.0917,-68.3882 66.3357,-65.6843 62.4137,-59.8862"/>
<text text-anchor="middle" x="144" y="-41.5" font-family="Helvetica,sans-Serif" font-size="10.00"> myInstructions</text>
</g>
<!-- Node3 -->
<g id="node3" class="node"><title>Node3</title>
<g id="a_node3"><a xlink:href="../../d5/d1d/classcommands_1_1_command_factory.html" target="_top" xlink:title="commands.CommandFactory">
<polygon fill="white" stroke="black" points="106,-68.5 106,-87.5 264,-87.5 264,-68.5 106,-68.5"/>
<text text-anchor="middle" x="185" y="-75.5" font-family="Helvetica,sans-Serif" font-size="10.00">commands.CommandFactory</text>
</a>
</g>
</g>
<!-- Node3&#45;&gt;Node1 -->
<g id="edge2" class="edge"><title>Node3&#45;&gt;Node1</title>
<path fill="none" stroke="#9a32cd" stroke-dasharray="5,2" d="M185,-58.0413C185,-45.4724 185,-29.5631 185,-19.8411"/>
<polygon fill="#9a32cd" stroke="#9a32cd" points="181.5,-58.3716 185,-68.3717 188.5,-58.3717 181.5,-58.3716"/>
<text text-anchor="middle" x="211.5" y="-41.5" font-family="Helvetica,sans-Serif" font-size="10.00"> myFactory</text>
</g>
<!-- Node4 -->
<g id="node4" class="node"><title>Node4</title>
<g id="a_node4"><a xlink:href="../../d8/d6a/classback_end_1_1_variable_manager.html" target="_top" xlink:title="backEnd.VariableManager">
<polygon fill="white" stroke="black" points="282,-68.5 282,-87.5 422,-87.5 422,-68.5 282,-68.5"/>
<text text-anchor="middle" x="352" y="-75.5" font-family="Helvetica,sans-Serif" font-size="10.00">backEnd.VariableManager</text>
</a>
</g>
</g>
<!-- Node4&#45;&gt;Node1 -->
<g id="edge3" class="edge"><title>Node4&#45;&gt;Node1</title>
<path fill="none" stroke="#9a32cd" stroke-dasharray="5,2" d="M320.463,-64.5361C287.15,-51.3706 235.523,-30.9673 206.573,-19.5259"/>
<polygon fill="#9a32cd" stroke="#9a32cd" points="319.581,-67.9511 330.168,-68.3717 322.154,-61.4411 319.581,-67.9511"/>
<text text-anchor="middle" x="332.5" y="-41.5" font-family="Helvetica,sans-Serif" font-size="10.00"> myVariableManager</text>
</g>
<!-- Node5 -->
<g id="node5" class="node"><title>Node5</title>
<polygon fill="white" stroke="#bfbfbf" points="235.5,-136.5 235.5,-155.5 350.5,-155.5 350.5,-136.5 235.5,-136.5"/>
<text text-anchor="middle" x="293" y="-143.5" font-family="Helvetica,sans-Serif" font-size="10.00">Stack&lt; Properties &gt;</text>
</g>
<!-- Node5&#45;&gt;Node4 -->
<g id="edge4" class="edge"><title>Node5&#45;&gt;Node4</title>
<path fill="none" stroke="#9a32cd" stroke-dasharray="5,2" d="M287.021,-126.526C285.895,-119.597 286.092,-111.964 290,-106 295.598,-97.4566 304.552,-91.6017 313.934,-87.5946"/>
<polygon fill="#9a32cd" stroke="#9a32cd" points="283.697,-127.656 289.539,-136.494 290.484,-125.942 283.697,-127.656"/>
<text text-anchor="middle" x="337" y="-109.5" font-family="Helvetica,sans-Serif" font-size="10.00"> myStoredVariables</text>
</g>
<!-- Node6 -->
<g id="node6" class="node"><title>Node6</title>
<polygon fill="white" stroke="#bfbfbf" points="377.5,-136.5 377.5,-155.5 442.5,-155.5 442.5,-136.5 377.5,-136.5"/>
<text text-anchor="middle" x="410" y="-143.5" font-family="Helvetica,sans-Serif" font-size="10.00">Properties</text>
</g>
<!-- Node6&#45;&gt;Node4 -->
<g id="edge5" class="edge"><title>Node6&#45;&gt;Node4</title>
<path fill="none" stroke="#9a32cd" stroke-dasharray="5,2" d="M401.807,-126.931C398.156,-119.966 393.444,-112.202 388,-106 381.712,-98.8372 373.241,-92.3694 366.096,-87.561"/>
<polygon fill="#9a32cd" stroke="#9a32cd" points="398.837,-128.826 406.359,-136.288 405.132,-125.764 398.837,-128.826"/>
<text text-anchor="middle" x="427" y="-109.5" font-family="Helvetica,sans-Serif" font-size="10.00"> myVariables</text>
</g>
</g>
</svg>
