<?xml version="1.0" encoding="UTF-8" standalone="no"?>
<!DOCTYPE svg PUBLIC "-//W3C//DTD SVG 1.1//EN"
 "http://www.w3.org/Graphics/SVG/1.1/DTD/svg11.dtd">
<!-- Generated by graphviz version 2.36.0 (20140111.2315)
 -->
<!-- Title: panels.ScriptPanel Pages: 1 -->
<svg width="141pt" height="96pt"
 viewBox="0.00 0.00 141.00 96.00" xmlns="http://www.w3.org/2000/svg" xmlns:xlink="http://www.w3.org/1999/xlink">
<g id="graph0" class="graph" transform="scale(1 1) rotate(0) translate(4 92)">
<title>panels.ScriptPanel</title>
<polygon fill="white" stroke="none" points="-4,4 -4,-92 137,-92 137,4 -4,4"/>
<!-- Node1 -->
<g id="node1" class="node"><title>Node1</title>
<polygon fill="#bfbfbf" stroke="black" points="1,-0.5 1,-19.5 105,-19.5 105,-0.5 1,-0.5"/>
<text text-anchor="middle" x="53" y="-7.5" font-family="Helvetica,sans-Serif" font-size="10.00">panels.ScriptPanel</text>
</g>
<!-- Node2 -->
<g id="node2" class="node"><title>Node2</title>
<polygon fill="white" stroke="#bfbfbf" points="0,-68.5 0,-87.5 40,-87.5 40,-68.5 0,-68.5"/>
<text text-anchor="middle" x="20" y="-75.5" font-family="Helvetica,sans-Serif" font-size="10.00">Pane</text>
</g>
<!-- Node2&#45;&gt;Node1 -->
<g id="edge1" class="edge"><title>Node2&#45;&gt;Node1</title>
<path fill="none" stroke="midnightblue" d="M28.907,-59.1859C35.2739,-46.4523 43.5696,-29.8607 48.5794,-19.8411"/>
<polygon fill="midnightblue" stroke="midnightblue" points="25.6559,-57.8621 24.3142,-68.3717 31.9169,-60.9926 25.6559,-57.8621"/>
</g>
<!-- Node3 -->
<g id="node3" class="node"><title>Node3</title>
<polygon fill="white" stroke="#bfbfbf" points="58,-68.5 58,-87.5 116,-87.5 116,-68.5 58,-68.5"/>
<text text-anchor="middle" x="87" y="-75.5" font-family="Helvetica,sans-Serif" font-size="10.00">TextArea</text>
</g>
<!-- Node3&#45;&gt;Node1 -->
<g id="edge2" class="edge"><title>Node3&#45;&gt;Node1</title>
<path fill="none" stroke="#9a32cd" stroke-dasharray="5,2" d="M77.823,-59.1859C71.2633,-46.4523 62.7161,-29.8607 57.5545,-19.8411"/>
<polygon fill="#9a32cd" stroke="#9a32cd" points="74.8641,-61.0848 82.5551,-68.3717 81.0869,-57.879 74.8641,-61.0848"/>
<text text-anchor="middle" x="103" y="-41.5" font-family="Helvetica,sans-Serif" font-size="10.00"> myTextArea</text>
</g>
</g>
</svg>
