<?xml version="1.0" encoding="UTF-8" standalone="no"?>
<!DOCTYPE svg PUBLIC "-//W3C//DTD SVG 1.1//EN"
 "http://www.w3.org/Graphics/SVG/1.1/DTD/svg11.dtd">
<!-- Generated by graphviz version 2.36.0 (20140111.2315)
 -->
<!-- Title: commands.turtle_commands.IdCommand.execute Pages: 1 -->
<svg width="630pt" height="182pt"
 viewBox="0.00 0.00 630.00 182.00" xmlns="http://www.w3.org/2000/svg" xmlns:xlink="http://www.w3.org/1999/xlink">
<g id="graph0" class="graph" transform="scale(1 1) rotate(0) translate(4 178)">
<title>commands.turtle_commands.IdCommand.execute</title>
<polygon fill="white" stroke="none" points="-4,4 -4,-178 626,-178 626,4 -4,4"/>
<!-- Node1 -->
<g id="node1" class="node"><title>Node1</title>
<polygon fill="#bfbfbf" stroke="black" points="0.5,-49 0.5,-79 161.5,-79 161.5,-49 0.5,-49"/>
<text text-anchor="start" x="8.5" y="-67" font-family="Helvetica,sans-Serif" font-size="10.00">commands.turtle_commands.</text>
<text text-anchor="middle" x="81" y="-56" font-family="Helvetica,sans-Serif" font-size="10.00">IdCommand.execute</text>
</g>
<!-- Node2 -->
<g id="node2" class="node"><title>Node2</title>
<g id="a_node2"><a xlink:href="../../df/d62/classcommands_1_1turtle__commands_1_1_id_command.html#a734d6947bf78eb5baba4225f96368016" target="_top" xlink:title="commands.turtle_commands.\lIdCommand.executeTurtleCommand">
<polygon fill="white" stroke="black" points="199,-98 199,-128 391,-128 391,-98 199,-98"/>
<text text-anchor="start" x="207" y="-116" font-family="Helvetica,sans-Serif" font-size="10.00">commands.turtle_commands.</text>
<text text-anchor="middle" x="295" y="-105" font-family="Helvetica,sans-Serif" font-size="10.00">IdCommand.executeTurtleCommand</text>
</a>
</g>
</g>
<!-- Node1&#45;&gt;Node2 -->
<g id="edge1" class="edge"><title>Node1&#45;&gt;Node2</title>
<path fill="none" stroke="midnightblue" d="M147.048,-79.0346C169.839,-84.3024 195.615,-90.2601 219.144,-95.6984"/>
<polygon fill="midnightblue" stroke="midnightblue" points="218.544,-99.1519 229.075,-97.9938 220.12,-92.3317 218.544,-99.1519"/>
</g>
<!-- Node5 -->
<g id="node5" class="node"><title>Node5</title>
<g id="a_node5"><a xlink:href="../../dc/d36/classcommands_1_1templates_1_1_turtle_command.html#ae4d2a640c2db20e624d831deed30484d" target="_top" xlink:title="commands.templates.Turtle\lCommand.getMyTurtleManager">
<polygon fill="white" stroke="black" points="211.5,-49 211.5,-79 378.5,-79 378.5,-49 211.5,-49"/>
<text text-anchor="start" x="219.5" y="-67" font-family="Helvetica,sans-Serif" font-size="10.00">commands.templates.Turtle</text>
<text text-anchor="middle" x="295" y="-56" font-family="Helvetica,sans-Serif" font-size="10.00">Command.getMyTurtleManager</text>
</a>
</g>
</g>
<!-- Node1&#45;&gt;Node5 -->
<g id="edge4" class="edge"><title>Node1&#45;&gt;Node5</title>
<path fill="none" stroke="midnightblue" d="M161.544,-64C174.465,-64 187.945,-64 201.149,-64"/>
<polygon fill="midnightblue" stroke="midnightblue" points="201.179,-67.5001 211.179,-64 201.179,-60.5001 201.179,-67.5001"/>
</g>
<!-- Node7 -->
<g id="node7" class="node"><title>Node7</title>
<g id="a_node7"><a xlink:href="../../d5/d62/classcommands_1_1templates_1_1_command.html#a97358158dd12c0a83a49df3c1e379790" target="_top" xlink:title="commands.templates.Command.get\lValue">
<polygon fill="white" stroke="black" points="198,-0 198,-30 392,-30 392,-0 198,-0"/>
<text text-anchor="start" x="206" y="-18" font-family="Helvetica,sans-Serif" font-size="10.00">commands.templates.Command.get</text>
<text text-anchor="middle" x="295" y="-7" font-family="Helvetica,sans-Serif" font-size="10.00">Value</text>
</a>
</g>
</g>
<!-- Node1&#45;&gt;Node7 -->
<g id="edge6" class="edge"><title>Node1&#45;&gt;Node7</title>
<path fill="none" stroke="midnightblue" d="M147.048,-48.9654C169.839,-43.6976 195.615,-37.7399 219.144,-32.3016"/>
<polygon fill="midnightblue" stroke="midnightblue" points="220.12,-35.6683 229.075,-30.0062 218.544,-28.8481 220.12,-35.6683"/>
</g>
<!-- Node3 -->
<g id="node3" class="node"><title>Node3</title>
<g id="a_node3"><a xlink:href="../../d4/d07/classback_end_1_1turtle_1_1_turtle_manager.html#abd8e7545c1f29c7714bc7aaf59d3875b" target="_top" xlink:title="backEnd.turtle.TurtleManager.get\lTurtleList">
<polygon fill="white" stroke="black" points="438,-144 438,-174 612,-174 612,-144 438,-144"/>
<text text-anchor="start" x="446" y="-162" font-family="Helvetica,sans-Serif" font-size="10.00">backEnd.turtle.TurtleManager.get</text>
<text text-anchor="middle" x="525" y="-151" font-family="Helvetica,sans-Serif" font-size="10.00">TurtleList</text>
</a>
</g>
</g>
<!-- Node2&#45;&gt;Node3 -->
<g id="edge2" class="edge"><title>Node2&#45;&gt;Node3</title>
<path fill="none" stroke="midnightblue" d="M370.656,-128.062C392.716,-132.513 417.017,-137.416 439.644,-141.981"/>
<polygon fill="midnightblue" stroke="midnightblue" points="439.071,-145.436 449.566,-143.983 440.456,-138.574 439.071,-145.436"/>
</g>
<!-- Node4 -->
<g id="node4" class="node"><title>Node4</title>
<g id="a_node4"><a xlink:href="../../d5/d62/classcommands_1_1templates_1_1_command.html#a632193b631b368f6ffbc514865f062e5" target="_top" xlink:title="commands.templates.Command.set\lValue">
<polygon fill="white" stroke="black" points="428,-95 428,-125 622,-125 622,-95 428,-95"/>
<text text-anchor="start" x="436" y="-113" font-family="Helvetica,sans-Serif" font-size="10.00">commands.templates.Command.set</text>
<text text-anchor="middle" x="525" y="-102" font-family="Helvetica,sans-Serif" font-size="10.00">Value</text>
</a>
</g>
</g>
<!-- Node2&#45;&gt;Node4 -->
<g id="edge3" class="edge"><title>Node2&#45;&gt;Node4</title>
<path fill="none" stroke="midnightblue" d="M391.042,-111.749C399.736,-111.635 408.582,-111.519 417.369,-111.403"/>
<polygon fill="midnightblue" stroke="midnightblue" points="417.692,-114.899 427.645,-111.268 417.6,-107.9 417.692,-114.899"/>
</g>
<!-- Node6 -->
<g id="node6" class="node"><title>Node6</title>
<g id="a_node6"><a xlink:href="../../d9/d98/classback_end_1_1_model.html#a1f54b1acaee5f2f608376ce454fa82f2" target="_top" xlink:title="backEnd.Model.getTurtleManager">
<polygon fill="white" stroke="black" points="437.5,-54.5 437.5,-73.5 612.5,-73.5 612.5,-54.5 437.5,-54.5"/>
<text text-anchor="middle" x="525" y="-61.5" font-family="Helvetica,sans-Serif" font-size="10.00">backEnd.Model.getTurtleManager</text>
</a>
</g>
</g>
<!-- Node5&#45;&gt;Node6 -->
<g id="edge5" class="edge"><title>Node5&#45;&gt;Node6</title>
<path fill="none" stroke="midnightblue" d="M378.636,-64C394.466,-64 411.172,-64 427.396,-64"/>
<polygon fill="midnightblue" stroke="midnightblue" points="427.423,-67.5001 437.423,-64 427.423,-60.5001 427.423,-67.5001"/>
</g>
</g>
</svg>
