<?xml version="1.0" encoding="UTF-8" standalone="no"?>
<!DOCTYPE svg PUBLIC "-//W3C//DTD SVG 1.1//EN"
 "http://www.w3.org/Graphics/SVG/1.1/DTD/svg11.dtd">
<!-- Generated by graphviz version 2.36.0 (20140111.2315)
 -->
<!-- Title: exceptions.UndefinedVariableException Pages: 1 -->
<svg width="193pt" height="166pt"
 viewBox="0.00 0.00 193.00 166.00" xmlns="http://www.w3.org/2000/svg" xmlns:xlink="http://www.w3.org/1999/xlink">
<g id="graph0" class="graph" transform="scale(1 1) rotate(0) translate(4 162)">
<title>exceptions.UndefinedVariableException</title>
<polygon fill="white" stroke="none" points="-4,4 -4,-162 189,-162 189,4 -4,4"/>
<!-- Node1 -->
<g id="node1" class="node"><title>Node1</title>
<polygon fill="#bfbfbf" stroke="black" points="23,-1 23,-31 181,-31 181,-1 23,-1"/>
<text text-anchor="start" x="31" y="-19" font-family="Helvetica,sans-Serif" font-size="10.00">exceptions.UndefinedVariable</text>
<text text-anchor="middle" x="102" y="-8" font-family="Helvetica,sans-Serif" font-size="10.00">Exception</text>
</g>
<!-- Node2 -->
<g id="node2" class="node"><title>Node2</title>
<g id="a_node2"><a xlink:href="../../dc/db4/classexceptions_1_1_s_logo_exception.html" target="_top" xlink:title="exceptions.SLogoException">
<polygon fill="white" stroke="black" points="28,-70.5 28,-89.5 176,-89.5 176,-70.5 28,-70.5"/>
<text text-anchor="middle" x="102" y="-77.5" font-family="Helvetica,sans-Serif" font-size="10.00">exceptions.SLogoException</text>
</a>
</g>
</g>
<!-- Node2&#45;&gt;Node1 -->
<g id="edge1" class="edge"><title>Node2&#45;&gt;Node1</title>
<path fill="none" stroke="midnightblue" d="M102,-60.1826C102,-50.8859 102,-39.8507 102,-31.263"/>
<polygon fill="midnightblue" stroke="midnightblue" points="98.5001,-60.3791 102,-70.3792 105.5,-60.3792 98.5001,-60.3791"/>
</g>
<!-- Node3 -->
<g id="node3" class="node"><title>Node3</title>
<polygon fill="white" stroke="#bfbfbf" points="0,-138.5 0,-157.5 102,-157.5 102,-138.5 0,-138.5"/>
<text text-anchor="middle" x="51" y="-145.5" font-family="Helvetica,sans-Serif" font-size="10.00">RuntimeException</text>
</g>
<!-- Node3&#45;&gt;Node2 -->
<g id="edge2" class="edge"><title>Node3&#45;&gt;Node2</title>
<path fill="none" stroke="midnightblue" d="M63.8967,-130.31C73.8389,-117.444 87.1958,-100.158 95.1682,-89.8411"/>
<polygon fill="midnightblue" stroke="midnightblue" points="61.0124,-128.319 57.6674,-138.372 66.5514,-132.599 61.0124,-128.319"/>
</g>
<!-- Node4 -->
<g id="node4" class="node"><title>Node4</title>
<polygon fill="white" stroke="#bfbfbf" points="120.5,-138.5 120.5,-157.5 185.5,-157.5 185.5,-138.5 120.5,-138.5"/>
<text text-anchor="middle" x="153" y="-145.5" font-family="Helvetica,sans-Serif" font-size="10.00">Formatter</text>
</g>
<!-- Node4&#45;&gt;Node2 -->
<g id="edge3" class="edge"><title>Node4&#45;&gt;Node2</title>
<path fill="none" stroke="#9a32cd" stroke-dasharray="5,2" d="M140.103,-130.31C130.161,-117.444 116.804,-100.158 108.832,-89.8411"/>
<polygon fill="#9a32cd" stroke="#9a32cd" points="137.449,-132.599 146.333,-138.372 142.988,-128.319 137.449,-132.599"/>
<text text-anchor="middle" x="157.5" y="-111.5" font-family="Helvetica,sans-Serif" font-size="10.00"> formatter</text>
</g>
</g>
</svg>
