<?xml version="1.0" encoding="UTF-8" standalone="no"?>
<!DOCTYPE svg PUBLIC "-//W3C//DTD SVG 1.1//EN"
 "http://www.w3.org/Graphics/SVG/1.1/DTD/svg11.dtd">
<!-- Generated by graphviz version 2.36.0 (20140111.2315)
 -->
<!-- Title: commands.onechild.CosineCommand.toString Pages: 1 -->
<svg width="574pt" height="61pt"
 viewBox="0.00 0.00 574.00 61.00" xmlns="http://www.w3.org/2000/svg" xmlns:xlink="http://www.w3.org/1999/xlink">
<g id="graph0" class="graph" transform="scale(1 1) rotate(0) translate(4 57)">
<title>commands.onechild.CosineCommand.toString</title>
<polygon fill="white" stroke="none" points="-4,4 -4,-57 570,-57 570,4 -4,4"/>
<!-- Node1 -->
<g id="node1" class="node"><title>Node1</title>
<polygon fill="#bfbfbf" stroke="black" points="0.5,-1 0.5,-31 149.5,-31 149.5,-1 0.5,-1"/>
<text text-anchor="start" x="8.5" y="-19" font-family="Helvetica,sans-Serif" font-size="10.00">commands.onechild.Cosine</text>
<text text-anchor="middle" x="75" y="-8" font-family="Helvetica,sans-Serif" font-size="10.00">Command.toString</text>
</g>
<!-- Node2 -->
<g id="node2" class="node"><title>Node2</title>
<g id="a_node2"><a xlink:href="../../d8/d47/classcommands_1_1onechild_1_1_cosine_command.html#a2d0d85518b7c0320582a3424d3b06f14" target="_top" xlink:title="commands.onechild.Cosine\lCommand.execute">
<polygon fill="white" stroke="black" points="186.5,-23 186.5,-53 335.5,-53 335.5,-23 186.5,-23"/>
<text text-anchor="start" x="194.5" y="-41" font-family="Helvetica,sans-Serif" font-size="10.00">commands.onechild.Cosine</text>
<text text-anchor="middle" x="261" y="-30" font-family="Helvetica,sans-Serif" font-size="10.00">Command.execute</text>
</a>
</g>
</g>
<!-- Node1&#45;&gt;Node2 -->
<g id="edge1" class="edge"><title>Node1&#45;&gt;Node2</title>
<path fill="none" stroke="midnightblue" d="M149.515,-24.7898C158.315,-25.842 167.351,-26.9224 176.281,-27.9902"/>
<polygon fill="midnightblue" stroke="midnightblue" points="175.957,-31.4762 186.302,-29.1882 176.788,-24.5257 175.957,-31.4762"/>
</g>
<!-- Node3 -->
<g id="node3" class="node"><title>Node3</title>
<g id="a_node3"><a xlink:href="../../d5/d62/classcommands_1_1templates_1_1_command.html#ae48716b79da0af7e6815fbe6fc113075" target="_top" xlink:title="commands.templates.Command.get\lMyChildren">
<polygon fill="white" stroke="black" points="372,-1 372,-31 566,-31 566,-1 372,-1"/>
<text text-anchor="start" x="380" y="-19" font-family="Helvetica,sans-Serif" font-size="10.00">commands.templates.Command.get</text>
<text text-anchor="middle" x="469" y="-8" font-family="Helvetica,sans-Serif" font-size="10.00">MyChildren</text>
</a>
</g>
</g>
<!-- Node1&#45;&gt;Node3 -->
<g id="edge3" class="edge"><title>Node1&#45;&gt;Node3</title>
<path fill="none" stroke="midnightblue" d="M149.664,-14.4757C161.803,-14.2777 174.254,-14.1068 186,-14 252.664,-13.394 269.335,-13.495 336,-14 344.319,-14.063 352.932,-14.1484 361.589,-14.2485"/>
<polygon fill="midnightblue" stroke="midnightblue" points="361.715,-17.7502 371.757,-14.3723 361.801,-10.7507 361.715,-17.7502"/>
</g>
<!-- Node2&#45;&gt;Node3 -->
<g id="edge2" class="edge"><title>Node2&#45;&gt;Node3</title>
<path fill="none" stroke="midnightblue" d="M335.789,-30.1196C344.17,-29.2246 352.832,-28.2995 361.527,-27.3709"/>
<polygon fill="midnightblue" stroke="midnightblue" points="362.163,-30.823 371.735,-26.2808 361.419,-23.8626 362.163,-30.823"/>
</g>
</g>
</svg>
