<?xml version="1.0" encoding="UTF-8" standalone="no"?>
<!DOCTYPE svg PUBLIC "-//W3C//DTD SVG 1.1//EN"
 "http://www.w3.org/Graphics/SVG/1.1/DTD/svg11.dtd">
<!-- Generated by graphviz version 2.36.0 (20140111.2315)
 -->
<!-- Title: titlePanes.HistoryTitlePane Pages: 1 -->
<svg width="150pt" height="96pt"
 viewBox="0.00 0.00 150.00 96.00" xmlns="http://www.w3.org/2000/svg" xmlns:xlink="http://www.w3.org/1999/xlink">
<g id="graph0" class="graph" transform="scale(1 1) rotate(0) translate(4 92)">
<title>titlePanes.HistoryTitlePane</title>
<polygon fill="white" stroke="none" points="-4,4 -4,-92 146,-92 146,4 -4,4"/>
<!-- Node1 -->
<g id="node1" class="node"><title>Node1</title>
<polygon fill="#bfbfbf" stroke="black" points="-0.5,-0.5 -0.5,-19.5 142.5,-19.5 142.5,-0.5 -0.5,-0.5"/>
<text text-anchor="middle" x="71" y="-7.5" font-family="Helvetica,sans-Serif" font-size="10.00">titlePanes.HistoryTitlePane</text>
</g>
<!-- Node2 -->
<g id="node2" class="node"><title>Node2</title>
<polygon fill="white" stroke="#bfbfbf" points="3.5,-68.5 3.5,-87.5 68.5,-87.5 68.5,-68.5 3.5,-68.5"/>
<text text-anchor="middle" x="36" y="-75.5" font-family="Helvetica,sans-Serif" font-size="10.00">TitledPane</text>
</g>
<!-- Node2&#45;&gt;Node1 -->
<g id="edge1" class="edge"><title>Node2&#45;&gt;Node1</title>
<path fill="none" stroke="midnightblue" d="M45.4469,-59.1859C52.1995,-46.4523 60.9981,-29.8607 66.3115,-19.8411"/>
<polygon fill="midnightblue" stroke="midnightblue" points="42.1686,-57.8972 40.5756,-68.3717 48.3528,-61.1768 42.1686,-57.8972"/>
</g>
<!-- Node3 -->
<g id="node3" class="node"><title>Node3</title>
<polygon fill="white" stroke="#bfbfbf" points="86.5,-68.5 86.5,-87.5 127.5,-87.5 127.5,-68.5 86.5,-68.5"/>
<text text-anchor="middle" x="107" y="-75.5" font-family="Helvetica,sans-Serif" font-size="10.00">VBox</text>
</g>
<!-- Node3&#45;&gt;Node1 -->
<g id="edge2" class="edge"><title>Node3&#45;&gt;Node1</title>
<path fill="none" stroke="#9a32cd" stroke-dasharray="5,2" d="M97.4889,-59.563C90.5172,-46.7815 81.3418,-29.9599 75.8224,-19.8411"/>
<polygon fill="#9a32cd" stroke="#9a32cd" points="94.4324,-61.2687 102.294,-68.3717 100.578,-57.9167 94.4324,-61.2687"/>
<text text-anchor="middle" x="112" y="-41.5" font-family="Helvetica,sans-Serif" font-size="10.00"> myRoot</text>
</g>
</g>
</svg>
