<?xml version="1.0" encoding="UTF-8" standalone="no"?>
<!DOCTYPE svg PUBLIC "-//W3C//DTD SVG 1.1//EN"
 "http://www.w3.org/Graphics/SVG/1.1/DTD/svg11.dtd">
<!-- Generated by graphviz version 2.36.0 (20140111.2315)
 -->
<!-- Title: commands.turtle_commands.ShowTurtleCommand.ShowTurtleCommand Pages: 1 -->
<svg width="460pt" height="38pt"
 viewBox="0.00 0.00 460.00 38.00" xmlns="http://www.w3.org/2000/svg" xmlns:xlink="http://www.w3.org/1999/xlink">
<g id="graph0" class="graph" transform="scale(1 1) rotate(0) translate(4 34)">
<title>commands.turtle_commands.ShowTurtleCommand.ShowTurtleCommand</title>
<polygon fill="white" stroke="none" points="-4,4 -4,-34 456,-34 456,4 -4,4"/>
<!-- Node1 -->
<g id="node1" class="node"><title>Node1</title>
<polygon fill="#bfbfbf" stroke="black" points="0,-0 0,-30 222,-30 222,-0 0,-0"/>
<text text-anchor="start" x="8" y="-18" font-family="Helvetica,sans-Serif" font-size="10.00">commands.turtle_commands.</text>
<text text-anchor="middle" x="111" y="-7" font-family="Helvetica,sans-Serif" font-size="10.00">ShowTurtleCommand.ShowTurtleCommand</text>
</g>
<!-- Node2 -->
<g id="node2" class="node"><title>Node2</title>
<g id="a_node2"><a xlink:href="../../d5/d62/classcommands_1_1templates_1_1_command.html#a33bda544b01bcac7892fcc146fc67107" target="_top" xlink:title="commands.templates.Command.set\lNumChildren">
<polygon fill="white" stroke="black" points="258,-0 258,-30 452,-30 452,-0 258,-0"/>
<text text-anchor="start" x="266" y="-18" font-family="Helvetica,sans-Serif" font-size="10.00">commands.templates.Command.set</text>
<text text-anchor="middle" x="355" y="-7" font-family="Helvetica,sans-Serif" font-size="10.00">NumChildren</text>
</a>
</g>
</g>
<!-- Node1&#45;&gt;Node2 -->
<g id="edge1" class="edge"><title>Node1&#45;&gt;Node2</title>
<path fill="none" stroke="midnightblue" d="M222.024,-15C230.639,-15 239.33,-15 247.918,-15"/>
<polygon fill="midnightblue" stroke="midnightblue" points="247.942,-18.5001 257.942,-15 247.942,-11.5001 247.942,-18.5001"/>
</g>
</g>
</svg>
