<?xml version="1.0" encoding="UTF-8" standalone="no"?>
<!DOCTYPE svg PUBLIC "-//W3C//DTD SVG 1.1//EN"
 "http://www.w3.org/Graphics/SVG/1.1/DTD/svg11.dtd">
<!-- Generated by graphviz version 2.36.0 (20140111.2315)
 -->
<!-- Title: commands.turtle_commands.ShowTurtleCommand.execute Pages: 1 -->
<svg width="604pt" height="97pt"
 viewBox="0.00 0.00 604.00 97.00" xmlns="http://www.w3.org/2000/svg" xmlns:xlink="http://www.w3.org/1999/xlink">
<g id="graph0" class="graph" transform="scale(1 1) rotate(0) translate(4 93)">
<title>commands.turtle_commands.ShowTurtleCommand.execute</title>
<polygon fill="white" stroke="none" points="-4,4 -4,-93 600,-93 600,4 -4,4"/>
<!-- Node1 -->
<g id="node1" class="node"><title>Node1</title>
<polygon fill="#bfbfbf" stroke="black" points="0.5,-27 0.5,-57 161.5,-57 161.5,-27 0.5,-27"/>
<text text-anchor="start" x="8.5" y="-45" font-family="Helvetica,sans-Serif" font-size="10.00">commands.turtle_commands.</text>
<text text-anchor="middle" x="81" y="-34" font-family="Helvetica,sans-Serif" font-size="10.00">ShowTurtleCommand.execute</text>
</g>
<!-- Node2 -->
<g id="node2" class="node"><title>Node2</title>
<g id="a_node2"><a xlink:href="../../d7/dda/classcommands_1_1turtle__commands_1_1_show_turtle_command.html#adcce437b5d12157840a27a0119d964e0" target="_top" xlink:title="commands.turtle_commands.\lShowTurtleCommand.executeTurtle\lCommand">
<polygon fill="white" stroke="black" points="198.5,-48.5 198.5,-89.5 383.5,-89.5 383.5,-48.5 198.5,-48.5"/>
<text text-anchor="start" x="206.5" y="-77.5" font-family="Helvetica,sans-Serif" font-size="10.00">commands.turtle_commands.</text>
<text text-anchor="start" x="206.5" y="-66.5" font-family="Helvetica,sans-Serif" font-size="10.00">ShowTurtleCommand.executeTurtle</text>
<text text-anchor="middle" x="291" y="-55.5" font-family="Helvetica,sans-Serif" font-size="10.00">Command</text>
</a>
</g>
</g>
<!-- Node1&#45;&gt;Node2 -->
<g id="edge1" class="edge"><title>Node1&#45;&gt;Node2</title>
<path fill="none" stroke="midnightblue" d="M161.526,-52.3231C170.275,-53.4588 179.27,-54.6264 188.242,-55.791"/>
<polygon fill="midnightblue" stroke="midnightblue" points="187.98,-59.2864 198.348,-57.1028 188.882,-52.3446 187.98,-59.2864"/>
</g>
<!-- Node4 -->
<g id="node4" class="node"><title>Node4</title>
<g id="a_node4"><a xlink:href="../../dc/d36/classcommands_1_1templates_1_1_turtle_command.html#ae4d2a640c2db20e624d831deed30484d" target="_top" xlink:title="commands.templates.Turtle\lCommand.getMyTurtleManager">
<polygon fill="white" stroke="black" points="207.5,-0 207.5,-30 374.5,-30 374.5,-0 207.5,-0"/>
<text text-anchor="start" x="215.5" y="-18" font-family="Helvetica,sans-Serif" font-size="10.00">commands.templates.Turtle</text>
<text text-anchor="middle" x="291" y="-7" font-family="Helvetica,sans-Serif" font-size="10.00">Command.getMyTurtleManager</text>
</a>
</g>
</g>
<!-- Node1&#45;&gt;Node4 -->
<g id="edge3" class="edge"><title>Node1&#45;&gt;Node4</title>
<path fill="none" stroke="midnightblue" d="M161.526,-31.6769C173.264,-30.1533 185.442,-28.5724 197.416,-27.0181"/>
<polygon fill="midnightblue" stroke="midnightblue" points="197.946,-30.4788 207.412,-25.7206 197.044,-23.5371 197.946,-30.4788"/>
</g>
<!-- Node3 -->
<g id="node3" class="node"><title>Node3</title>
<g id="a_node3"><a xlink:href="../../d4/d07/classback_end_1_1turtle_1_1_turtle_manager.html#abd8e7545c1f29c7714bc7aaf59d3875b" target="_top" xlink:title="backEnd.turtle.TurtleManager.get\lTurtleList">
<polygon fill="white" stroke="black" points="421,-54 421,-84 595,-84 595,-54 421,-54"/>
<text text-anchor="start" x="429" y="-72" font-family="Helvetica,sans-Serif" font-size="10.00">backEnd.turtle.TurtleManager.get</text>
<text text-anchor="middle" x="508" y="-61" font-family="Helvetica,sans-Serif" font-size="10.00">TurtleList</text>
</a>
</g>
</g>
<!-- Node2&#45;&gt;Node3 -->
<g id="edge2" class="edge"><title>Node2&#45;&gt;Node3</title>
<path fill="none" stroke="midnightblue" d="M383.803,-69C392.759,-69 401.863,-69 410.86,-69"/>
<polygon fill="midnightblue" stroke="midnightblue" points="410.959,-72.5001 420.959,-69 410.959,-65.5001 410.959,-72.5001"/>
</g>
<!-- Node5 -->
<g id="node5" class="node"><title>Node5</title>
<g id="a_node5"><a xlink:href="../../d9/d98/classback_end_1_1_model.html#a1f54b1acaee5f2f608376ce454fa82f2" target="_top" xlink:title="backEnd.Model.getTurtleManager">
<polygon fill="white" stroke="black" points="420.5,-5.5 420.5,-24.5 595.5,-24.5 595.5,-5.5 420.5,-5.5"/>
<text text-anchor="middle" x="508" y="-12.5" font-family="Helvetica,sans-Serif" font-size="10.00">backEnd.Model.getTurtleManager</text>
</a>
</g>
</g>
<!-- Node4&#45;&gt;Node5 -->
<g id="edge4" class="edge"><title>Node4&#45;&gt;Node5</title>
<path fill="none" stroke="midnightblue" d="M374.51,-15C386.259,-15 398.43,-15 410.419,-15"/>
<polygon fill="midnightblue" stroke="midnightblue" points="410.432,-18.5001 420.432,-15 410.432,-11.5001 410.432,-18.5001"/>
</g>
</g>
</svg>
