<?xml version="1.0" encoding="UTF-8" standalone="no"?>
<!DOCTYPE svg PUBLIC "-//W3C//DTD SVG 1.1//EN"
 "http://www.w3.org/Graphics/SVG/1.1/DTD/svg11.dtd">
<!-- Generated by graphviz version 2.36.0 (20140111.2315)
 -->
<!-- Title: commands.turtle_commands.ShowTurtleCommand.executeTurtleCommand Pages: 1 -->
<svg width="392pt" height="48pt"
 viewBox="0.00 0.00 392.00 48.00" xmlns="http://www.w3.org/2000/svg" xmlns:xlink="http://www.w3.org/1999/xlink">
<g id="graph0" class="graph" transform="scale(1 1) rotate(0) translate(4 44)">
<title>commands.turtle_commands.ShowTurtleCommand.executeTurtleCommand</title>
<polygon fill="white" stroke="none" points="-4,4 -4,-44 388,-44 388,4 -4,4"/>
<!-- Node1 -->
<g id="node1" class="node"><title>Node1</title>
<polygon fill="#bfbfbf" stroke="black" points="0.5,0.5 0.5,-40.5 185.5,-40.5 185.5,0.5 0.5,0.5"/>
<text text-anchor="start" x="8.5" y="-28.5" font-family="Helvetica,sans-Serif" font-size="10.00">commands.turtle_commands.</text>
<text text-anchor="start" x="8.5" y="-17.5" font-family="Helvetica,sans-Serif" font-size="10.00">ShowTurtleCommand.executeTurtle</text>
<text text-anchor="middle" x="93" y="-6.5" font-family="Helvetica,sans-Serif" font-size="10.00">Command</text>
</g>
<!-- Node2 -->
<g id="node2" class="node"><title>Node2</title>
<g id="a_node2"><a xlink:href="../../d7/dda/classcommands_1_1turtle__commands_1_1_show_turtle_command.html#a0a886f8c26945d74cd640875b9a84b28" target="_top" xlink:title="commands.turtle_commands.\lShowTurtleCommand.execute">
<polygon fill="white" stroke="black" points="222.5,-5 222.5,-35 383.5,-35 383.5,-5 222.5,-5"/>
<text text-anchor="start" x="230.5" y="-23" font-family="Helvetica,sans-Serif" font-size="10.00">commands.turtle_commands.</text>
<text text-anchor="middle" x="303" y="-12" font-family="Helvetica,sans-Serif" font-size="10.00">ShowTurtleCommand.execute</text>
</a>
</g>
</g>
<!-- Node1&#45;&gt;Node2 -->
<g id="edge1" class="edge"><title>Node1&#45;&gt;Node2</title>
<path fill="none" stroke="midnightblue" d="M195.676,-20C204.68,-20 213.708,-20 222.488,-20"/>
<polygon fill="midnightblue" stroke="midnightblue" points="195.535,-16.5001 185.535,-20 195.534,-23.5001 195.535,-16.5001"/>
</g>
</g>
</svg>
