<?xml version="1.0" encoding="UTF-8" standalone="no"?>
<!DOCTYPE svg PUBLIC "-//W3C//DTD SVG 1.1//EN"
 "http://www.w3.org/Graphics/SVG/1.1/DTD/svg11.dtd">
<!-- Generated by graphviz version 2.36.0 (20140111.2315)
 -->
<!-- Title: panels.ScriptPanel.handler Pages: 1 -->
<svg width="1634pt" height="448pt"
 viewBox="0.00 0.00 1634.00 448.00" xmlns="http://www.w3.org/2000/svg" xmlns:xlink="http://www.w3.org/1999/xlink">
<g id="graph0" class="graph" transform="scale(1 1) rotate(0) translate(4 444)">
<title>panels.ScriptPanel.handler</title>
<polygon fill="white" stroke="none" points="-4,4 -4,-444 1630,-444 1630,4 -4,4"/>
<!-- Node1 -->
<g id="node1" class="node"><title>Node1</title>
<polygon fill="#bfbfbf" stroke="black" points="0.5,-345.5 0.5,-364.5 143.5,-364.5 143.5,-345.5 0.5,-345.5"/>
<text text-anchor="middle" x="72" y="-352.5" font-family="Helvetica,sans-Serif" font-size="10.00">panels.ScriptPanel.handler</text>
</g>
<!-- Node2 -->
<g id="node2" class="node"><title>Node2</title>
<g id="a_node2"><a xlink:href="../../d9/d49/classback_end_1_1_controller.html#ad650f48d236eaf11c2d8591b04831900" target="_top" xlink:title="backEnd.Controller.runScript">
<polygon fill="white" stroke="black" points="180,-345.5 180,-364.5 332,-364.5 332,-345.5 180,-345.5"/>
<text text-anchor="middle" x="256" y="-352.5" font-family="Helvetica,sans-Serif" font-size="10.00">backEnd.Controller.runScript</text>
</a>
</g>
</g>
<!-- Node1&#45;&gt;Node2 -->
<g id="edge1" class="edge"><title>Node1&#45;&gt;Node2</title>
<path fill="none" stroke="midnightblue" d="M143.626,-355C152.173,-355 160.972,-355 169.7,-355"/>
<polygon fill="midnightblue" stroke="midnightblue" points="169.896,-358.5 179.896,-355 169.896,-351.5 169.896,-358.5"/>
</g>
<!-- Node3 -->
<g id="node3" class="node"><title>Node3</title>
<g id="a_node3"><a xlink:href="../../d8/d1f/classfront_end_1_1_view.html#a88014d18898a5c72ba7893e0d865a218" target="_top" xlink:title="frontEnd.View.addToHistory">
<polygon fill="white" stroke="black" points="376,-407.5 376,-426.5 522,-426.5 522,-407.5 376,-407.5"/>
<text text-anchor="middle" x="449" y="-414.5" font-family="Helvetica,sans-Serif" font-size="10.00">frontEnd.View.addToHistory</text>
</a>
</g>
</g>
<!-- Node2&#45;&gt;Node3 -->
<g id="edge2" class="edge"><title>Node2&#45;&gt;Node3</title>
<path fill="none" stroke="midnightblue" d="M286.425,-364.552C319.233,-375.201 372.447,-392.475 408.774,-404.267"/>
<polygon fill="midnightblue" stroke="midnightblue" points="407.949,-407.679 418.541,-407.438 410.111,-401.021 407.949,-407.679"/>
</g>
<!-- Node6 -->
<g id="node6" class="node"><title>Node6</title>
<g id="a_node6"><a xlink:href="../../d8/d1f/classfront_end_1_1_view.html#a22669dd74ac845d66d5b59ddeba13b5e" target="_top" xlink:title="frontEnd.View.printException">
<polygon fill="white" stroke="black" points="572,-364.5 572,-383.5 724,-383.5 724,-364.5 572,-364.5"/>
<text text-anchor="middle" x="648" y="-371.5" font-family="Helvetica,sans-Serif" font-size="10.00">frontEnd.View.printException</text>
</a>
</g>
</g>
<!-- Node2&#45;&gt;Node6 -->
<g id="edge5" class="edge"><title>Node2&#45;&gt;Node6</title>
<path fill="none" stroke="midnightblue" d="M332.196,-358.663C397.779,-361.858 492.88,-366.492 561.373,-369.828"/>
<polygon fill="midnightblue" stroke="midnightblue" points="561.545,-373.341 571.703,-370.332 561.885,-366.349 561.545,-373.341"/>
</g>
<!-- Node8 -->
<g id="node8" class="node"><title>Node8</title>
<g id="a_node8"><a xlink:href="../../d9/d98/classback_end_1_1_model.html#ade764fd1c85a48fabb9abf3dfe8b8ceb" target="_top" xlink:title="backEnd.Model.runScript">
<polygon fill="white" stroke="black" points="381.5,-251.5 381.5,-270.5 516.5,-270.5 516.5,-251.5 381.5,-251.5"/>
<text text-anchor="middle" x="449" y="-258.5" font-family="Helvetica,sans-Serif" font-size="10.00">backEnd.Model.runScript</text>
</a>
</g>
</g>
<!-- Node2&#45;&gt;Node8 -->
<g id="edge7" class="edge"><title>Node2&#45;&gt;Node8</title>
<path fill="none" stroke="midnightblue" d="M276.365,-345.469C310.113,-328.861 379.857,-294.537 419.26,-275.144"/>
<polygon fill="midnightblue" stroke="midnightblue" points="421.157,-278.112 428.584,-270.556 418.066,-271.831 421.157,-278.112"/>
</g>
<!-- Node24 -->
<g id="node24" class="node"><title>Node24</title>
<g id="a_node24"><a xlink:href="../../d8/d1f/classfront_end_1_1_view.html#a59fa2dbe984da3217324979184d00559" target="_top" xlink:title="frontEnd.View.updateVariables">
<polygon fill="white" stroke="black" points="368.5,-326.5 368.5,-345.5 529.5,-345.5 529.5,-326.5 368.5,-326.5"/>
<text text-anchor="middle" x="449" y="-333.5" font-family="Helvetica,sans-Serif" font-size="10.00">frontEnd.View.updateVariables</text>
</a>
</g>
</g>
<!-- Node2&#45;&gt;Node24 -->
<g id="edge25" class="edge"><title>Node2&#45;&gt;Node24</title>
<path fill="none" stroke="midnightblue" d="M332.214,-347.518C340.768,-346.667 349.549,-345.794 358.266,-344.926"/>
<polygon fill="midnightblue" stroke="midnightblue" points="358.848,-348.386 368.452,-343.913 358.155,-341.42 358.848,-348.386"/>
</g>
<!-- Node4 -->
<g id="node4" class="node"><title>Node4</title>
<g id="a_node4"><a xlink:href="../../d8/dfc/classpanels_1_1_parameter_panel.html#a5f64bf2acdef3d7ca882a87ba8c78bf3" target="_top" xlink:title="panels.ParameterPanel.add\lToHistory">
<polygon fill="white" stroke="black" points="574,-407 574,-437 722,-437 722,-407 574,-407"/>
<text text-anchor="start" x="582" y="-425" font-family="Helvetica,sans-Serif" font-size="10.00">panels.ParameterPanel.add</text>
<text text-anchor="middle" x="648" y="-414" font-family="Helvetica,sans-Serif" font-size="10.00">ToHistory</text>
</a>
</g>
</g>
<!-- Node3&#45;&gt;Node4 -->
<g id="edge3" class="edge"><title>Node3&#45;&gt;Node4</title>
<path fill="none" stroke="midnightblue" d="M522.237,-418.833C535.625,-419.173 549.712,-419.531 563.406,-419.878"/>
<polygon fill="midnightblue" stroke="midnightblue" points="563.697,-423.387 573.782,-420.142 563.874,-416.389 563.697,-423.387"/>
</g>
<!-- Node5 -->
<g id="node5" class="node"><title>Node5</title>
<g id="a_node5"><a xlink:href="../../de/dff/classtitle_panes_1_1_history_title_pane.html#a14fe295c9a982a88b2f96e93758e021d" target="_top" xlink:title="titlePanes.HistoryTitlePane.add\lToHistory">
<polygon fill="white" stroke="black" points="778,-410 778,-440 942,-440 942,-410 778,-410"/>
<text text-anchor="start" x="786" y="-428" font-family="Helvetica,sans-Serif" font-size="10.00">titlePanes.HistoryTitlePane.add</text>
<text text-anchor="middle" x="860" y="-417" font-family="Helvetica,sans-Serif" font-size="10.00">ToHistory</text>
</a>
</g>
</g>
<!-- Node4&#45;&gt;Node5 -->
<g id="edge4" class="edge"><title>Node4&#45;&gt;Node5</title>
<path fill="none" stroke="midnightblue" d="M722.153,-423.045C736.772,-423.254 752.3,-423.476 767.449,-423.692"/>
<polygon fill="midnightblue" stroke="midnightblue" points="767.811,-427.198 777.86,-423.841 767.911,-420.198 767.811,-427.198"/>
</g>
<!-- Node7 -->
<g id="node7" class="node"><title>Node7</title>
<g id="a_node7"><a xlink:href="../../de/d03/classpanels_1_1_script_panel.html#acf94d4284961d6d9eabc8af4db9abe87" target="_top" xlink:title="panels.ScriptPanel.print\lException">
<polygon fill="white" stroke="black" points="795.5,-361 795.5,-391 924.5,-391 924.5,-361 795.5,-361"/>
<text text-anchor="start" x="803.5" y="-379" font-family="Helvetica,sans-Serif" font-size="10.00">panels.ScriptPanel.print</text>
<text text-anchor="middle" x="860" y="-368" font-family="Helvetica,sans-Serif" font-size="10.00">Exception</text>
</a>
</g>
</g>
<!-- Node6&#45;&gt;Node7 -->
<g id="edge6" class="edge"><title>Node6&#45;&gt;Node7</title>
<path fill="none" stroke="midnightblue" d="M724.222,-374.716C744.065,-374.905 765.456,-375.109 785.222,-375.297"/>
<polygon fill="midnightblue" stroke="midnightblue" points="785.361,-378.799 795.394,-375.394 785.428,-371.799 785.361,-378.799"/>
</g>
<!-- Node9 -->
<g id="node9" class="node"><title>Node9</title>
<g id="a_node9"><a xlink:href="../../d9/d1e/classback_end_1_1_parser.html#a163b8afd814babc8e7df59993f0d6440" target="_top" xlink:title="backEnd.Parser.parseScript">
<polygon fill="white" stroke="black" points="574.5,-213.5 574.5,-232.5 721.5,-232.5 721.5,-213.5 574.5,-213.5"/>
<text text-anchor="middle" x="648" y="-220.5" font-family="Helvetica,sans-Serif" font-size="10.00">backEnd.Parser.parseScript</text>
</a>
</g>
</g>
<!-- Node8&#45;&gt;Node9 -->
<g id="edge8" class="edge"><title>Node8&#45;&gt;Node9</title>
<path fill="none" stroke="midnightblue" d="M499.457,-251.46C526.154,-246.31 559.304,-239.916 587.415,-234.494"/>
<polygon fill="midnightblue" stroke="midnightblue" points="588.366,-237.875 597.523,-232.544 587.041,-231.001 588.366,-237.875"/>
</g>
<!-- Node10 -->
<g id="node10" class="node"><title>Node10</title>
<g id="a_node10"><a xlink:href="../../d9/d98/classback_end_1_1_model.html#a6b39dd199a5957068c032bb023f4b613" target="_top" xlink:title="backEnd.Model.getCommandsMap">
<polygon fill="white" stroke="black" points="1241.5,-273.5 1241.5,-292.5 1424.5,-292.5 1424.5,-273.5 1241.5,-273.5"/>
<text text-anchor="middle" x="1333" y="-280.5" font-family="Helvetica,sans-Serif" font-size="10.00">backEnd.Model.getCommandsMap</text>
</a>
</g>
</g>
<!-- Node9&#45;&gt;Node10 -->
<g id="edge9" class="edge"><title>Node9&#45;&gt;Node10</title>
<path fill="none" stroke="midnightblue" d="M703.971,-232.506C723.522,-235.734 745.714,-239.223 766,-242 865.248,-255.588 890.138,-259.1 990,-267 1070.88,-273.399 1162.73,-277.522 1230.87,-279.978"/>
<polygon fill="midnightblue" stroke="midnightblue" points="1231.05,-283.487 1241.17,-280.343 1231.3,-276.491 1231.05,-283.487"/>
</g>
<!-- Node11 -->
<g id="node11" class="node"><title>Node11</title>
<g id="a_node11"><a xlink:href="../../d9/d1e/classback_end_1_1_parser.html#a653298ad53a1eea540beded2bb558ab4" target="_top" xlink:title="backEnd.Parser.makeTree">
<polygon fill="white" stroke="black" points="790.5,-213.5 790.5,-232.5 929.5,-232.5 929.5,-213.5 790.5,-213.5"/>
<text text-anchor="middle" x="860" y="-220.5" font-family="Helvetica,sans-Serif" font-size="10.00">backEnd.Parser.makeTree</text>
</a>
</g>
</g>
<!-- Node9&#45;&gt;Node11 -->
<g id="edge10" class="edge"><title>Node9&#45;&gt;Node11</title>
<path fill="none" stroke="midnightblue" d="M721.564,-223C740.457,-223 760.903,-223 780.106,-223"/>
<polygon fill="midnightblue" stroke="midnightblue" points="780.322,-226.5 790.322,-223 780.322,-219.5 780.322,-226.5"/>
</g>
<!-- Node22 -->
<g id="node22" class="node"><title>Node22</title>
<g id="a_node22"><a xlink:href="../../d9/d1e/classback_end_1_1_parser.html#a71653c0a9d02d4b400e357b978260de6" target="_top" xlink:title="backEnd.Parser.removeComments">
<polygon fill="white" stroke="black" points="769,-175.5 769,-194.5 951,-194.5 951,-175.5 769,-175.5"/>
<text text-anchor="middle" x="860" y="-182.5" font-family="Helvetica,sans-Serif" font-size="10.00">backEnd.Parser.removeComments</text>
</a>
</g>
</g>
<!-- Node9&#45;&gt;Node22 -->
<g id="edge23" class="edge"><title>Node9&#45;&gt;Node22</title>
<path fill="none" stroke="midnightblue" d="M701.721,-213.46C730.429,-208.265 766.137,-201.804 796.27,-196.351"/>
<polygon fill="midnightblue" stroke="midnightblue" points="797.041,-199.769 806.258,-194.544 795.794,-192.88 797.041,-199.769"/>
</g>
<!-- Node23 -->
<g id="node23" class="node"><title>Node23</title>
<g id="a_node23"><a xlink:href="../../d5/d62/classcommands_1_1templates_1_1_command.html#aa1c27b6285999798be609159ee5c7a83" target="_top" xlink:title="commands.templates.Command.to\lString">
<polygon fill="white" stroke="black" points="766,-126 766,-156 954,-156 954,-126 766,-126"/>
<text text-anchor="start" x="774" y="-144" font-family="Helvetica,sans-Serif" font-size="10.00">commands.templates.Command.to</text>
<text text-anchor="middle" x="860" y="-133" font-family="Helvetica,sans-Serif" font-size="10.00">String</text>
</a>
</g>
</g>
<!-- Node9&#45;&gt;Node23 -->
<g id="edge24" class="edge"><title>Node9&#45;&gt;Node23</title>
<path fill="none" stroke="midnightblue" d="M665.988,-213.442C688.359,-201.157 729.177,-179.775 766,-166 772.675,-163.503 779.705,-161.145 786.787,-158.948"/>
<polygon fill="midnightblue" stroke="midnightblue" points="787.874,-162.276 796.449,-156.054 785.865,-155.57 787.874,-162.276"/>
</g>
<!-- Node11&#45;&gt;Node10 -->
<g id="edge21" class="edge"><title>Node11&#45;&gt;Node10</title>
<path fill="none" stroke="midnightblue" d="M929.739,-231.757C1013.91,-242.479 1156.44,-260.636 1247.29,-272.209"/>
<polygon fill="midnightblue" stroke="midnightblue" points="1246.93,-275.691 1257.29,-273.483 1247.81,-268.747 1246.93,-275.691"/>
</g>
<!-- Node12 -->
<g id="node12" class="node"><title>Node12</title>
<g id="a_node12"><a xlink:href="../../d5/d62/classcommands_1_1templates_1_1_command.html#a9ab84f2a1491a7283311891b8a6082dc" target="_top" xlink:title="commands.templates.Command.add\lChild">
<polygon fill="white" stroke="black" points="990.5,-137 990.5,-167 1187.5,-167 1187.5,-137 990.5,-137"/>
<text text-anchor="start" x="998.5" y="-155" font-family="Helvetica,sans-Serif" font-size="10.00">commands.templates.Command.add</text>
<text text-anchor="middle" x="1089" y="-144" font-family="Helvetica,sans-Serif" font-size="10.00">Child</text>
</a>
</g>
</g>
<!-- Node11&#45;&gt;Node12 -->
<g id="edge11" class="edge"><title>Node11&#45;&gt;Node12</title>
<path fill="none" stroke="midnightblue" d="M927.246,-213.394C936.451,-210.937 945.617,-207.858 954,-204 972.414,-195.526 971.753,-184.828 990,-176 994.102,-174.015 998.383,-172.186 1002.76,-170.501"/>
<polygon fill="midnightblue" stroke="midnightblue" points="1004.24,-173.693 1012.48,-167.04 1001.89,-167.098 1004.24,-173.693"/>
</g>
<!-- Node13 -->
<g id="node13" class="node"><title>Node13</title>
<g id="a_node13"><a xlink:href="../../d5/d1d/classcommands_1_1_command_factory.html#ac77125dd466e3e01fce01fc527e7f815" target="_top" xlink:title="commands.CommandFactory.build\lCommand">
<polygon fill="white" stroke="black" points="998,-186 998,-216 1180,-216 1180,-186 998,-186"/>
<text text-anchor="start" x="1006" y="-204" font-family="Helvetica,sans-Serif" font-size="10.00">commands.CommandFactory.build</text>
<text text-anchor="middle" x="1089" y="-193" font-family="Helvetica,sans-Serif" font-size="10.00">Command</text>
</a>
</g>
</g>
<!-- Node11&#45;&gt;Node13 -->
<g id="edge12" class="edge"><title>Node11&#45;&gt;Node13</title>
<path fill="none" stroke="midnightblue" d="M929.724,-216.34C947.948,-214.573 968.006,-212.629 987.542,-210.736"/>
<polygon fill="midnightblue" stroke="midnightblue" points="988.082,-214.2 997.698,-209.752 987.407,-207.233 988.082,-214.2"/>
</g>
<!-- Node21 -->
<g id="node21" class="node"><title>Node21</title>
<g id="a_node21"><a xlink:href="../../d5/d62/classcommands_1_1templates_1_1_command.html#a0ca025dffda489d73ba4b6c12c7118fe" target="_top" xlink:title="commands.templates.Command.get\lNumChildrenNeeded">
<polygon fill="white" stroke="black" points="992,-88 992,-118 1186,-118 1186,-88 992,-88"/>
<text text-anchor="start" x="1000" y="-106" font-family="Helvetica,sans-Serif" font-size="10.00">commands.templates.Command.get</text>
<text text-anchor="middle" x="1089" y="-95" font-family="Helvetica,sans-Serif" font-size="10.00">NumChildrenNeeded</text>
</a>
</g>
</g>
<!-- Node11&#45;&gt;Node21 -->
<g id="edge22" class="edge"><title>Node11&#45;&gt;Node21</title>
<path fill="none" stroke="midnightblue" d="M929.802,-216.63C938.529,-213.687 946.882,-209.611 954,-204 983.67,-180.615 960.788,-150.954 990,-127 991.575,-125.709 993.208,-124.485 994.892,-123.326"/>
<polygon fill="midnightblue" stroke="midnightblue" points="996.916,-126.194 1003.69,-118.05 993.317,-120.19 996.916,-126.194"/>
</g>
<!-- Node13&#45;&gt;Node10 -->
<g id="edge18" class="edge"><title>Node13&#45;&gt;Node10</title>
<path fill="none" stroke="midnightblue" d="M1153.94,-216.056C1165.66,-220.061 1177.5,-224.993 1188,-231 1206.84,-241.776 1204.53,-254.402 1224,-264 1228.91,-266.42 1234.08,-268.537 1239.39,-270.387"/>
<polygon fill="midnightblue" stroke="midnightblue" points="1238.48,-273.769 1249.06,-273.438 1240.58,-267.093 1238.48,-273.769"/>
</g>
<!-- Node14 -->
<g id="node14" class="node"><title>Node14</title>
<g id="a_node14"><a xlink:href="../../d5/d1d/classcommands_1_1_command_factory.html#adcf456039b5d7285082f1e009f3d30b6" target="_top" xlink:title="commands.CommandFactory.checkCaps">
<polygon fill="white" stroke="black" points="1227,-235.5 1227,-254.5 1439,-254.5 1439,-235.5 1227,-235.5"/>
<text text-anchor="middle" x="1333" y="-242.5" font-family="Helvetica,sans-Serif" font-size="10.00">commands.CommandFactory.checkCaps</text>
</a>
</g>
</g>
<!-- Node13&#45;&gt;Node14 -->
<g id="edge13" class="edge"><title>Node13&#45;&gt;Node14</title>
<path fill="none" stroke="midnightblue" d="M1172.61,-216.019C1204.33,-221.787 1239.98,-228.269 1269.51,-233.638"/>
<polygon fill="midnightblue" stroke="midnightblue" points="1269.22,-237.142 1279.68,-235.488 1270.47,-230.255 1269.22,-237.142"/>
</g>
<!-- Node15 -->
<g id="node15" class="node"><title>Node15</title>
<g id="a_node15"><a xlink:href="../../d5/d1d/classcommands_1_1_command_factory.html#acae1571442d9f8e040df95c8a2742d8d" target="_top" xlink:title="commands.CommandFactory.check\lLanguage">
<polygon fill="white" stroke="black" points="1239,-186 1239,-216 1427,-216 1427,-186 1239,-186"/>
<text text-anchor="start" x="1247" y="-204" font-family="Helvetica,sans-Serif" font-size="10.00">commands.CommandFactory.check</text>
<text text-anchor="middle" x="1333" y="-193" font-family="Helvetica,sans-Serif" font-size="10.00">Language</text>
</a>
</g>
</g>
<!-- Node13&#45;&gt;Node15 -->
<g id="edge14" class="edge"><title>Node13&#45;&gt;Node15</title>
<path fill="none" stroke="midnightblue" d="M1180.11,-201C1196.03,-201 1212.7,-201 1228.94,-201"/>
<polygon fill="midnightblue" stroke="midnightblue" points="1228.98,-204.5 1238.98,-201 1228.98,-197.5 1228.98,-204.5"/>
</g>
<!-- Node17 -->
<g id="node17" class="node"><title>Node17</title>
<g id="a_node17"><a xlink:href="../../d5/d1d/classcommands_1_1_command_factory.html#a9206a1ef0f863c61cb5c894da3133ef8" target="_top" xlink:title="commands.CommandFactory.check\lUserCommand">
<polygon fill="white" stroke="black" points="1239,-137 1239,-167 1427,-167 1427,-137 1239,-137"/>
<text text-anchor="start" x="1247" y="-155" font-family="Helvetica,sans-Serif" font-size="10.00">commands.CommandFactory.check</text>
<text text-anchor="middle" x="1333" y="-144" font-family="Helvetica,sans-Serif" font-size="10.00">UserCommand</text>
</a>
</g>
</g>
<!-- Node13&#45;&gt;Node17 -->
<g id="edge16" class="edge"><title>Node13&#45;&gt;Node17</title>
<path fill="none" stroke="midnightblue" d="M1164.25,-185.965C1190.73,-180.604 1220.74,-174.527 1247.99,-169.011"/>
<polygon fill="midnightblue" stroke="midnightblue" points="1248.78,-172.421 1257.89,-167.006 1247.39,-165.56 1248.78,-172.421"/>
</g>
<!-- Node18 -->
<g id="node18" class="node"><title>Node18</title>
<g id="a_node18"><a xlink:href="../../d5/d1d/classcommands_1_1_command_factory.html#a221a82baff222f4552a38b521efd78b6" target="_top" xlink:title="commands.CommandFactory.checkVar">
<polygon fill="white" stroke="black" points="1231.5,-98.5 1231.5,-117.5 1434.5,-117.5 1434.5,-98.5 1231.5,-98.5"/>
<text text-anchor="middle" x="1333" y="-105.5" font-family="Helvetica,sans-Serif" font-size="10.00">commands.CommandFactory.checkVar</text>
</a>
</g>
</g>
<!-- Node13&#45;&gt;Node18 -->
<g id="edge17" class="edge"><title>Node13&#45;&gt;Node18</title>
<path fill="none" stroke="midnightblue" d="M1169.63,-185.819C1176.1,-183.073 1182.32,-179.83 1188,-176 1210.4,-160.887 1201.04,-141.255 1224,-127 1227.36,-124.913 1230.89,-123.04 1234.53,-121.359"/>
<polygon fill="midnightblue" stroke="midnightblue" points="1235.87,-124.592 1243.8,-117.566 1233.22,-118.113 1235.87,-124.592"/>
</g>
<!-- Node19 -->
<g id="node19" class="node"><title>Node19</title>
<g id="a_node19"><a xlink:href="../../d5/d62/classcommands_1_1templates_1_1_command.html#a20741a5e32e24ff113701f7b2957e658" target="_top" xlink:title="commands.templates.Command.initialize\lCommand">
<polygon fill="white" stroke="black" points="1224.5,-49 1224.5,-79 1441.5,-79 1441.5,-49 1224.5,-49"/>
<text text-anchor="start" x="1232.5" y="-67" font-family="Helvetica,sans-Serif" font-size="10.00">commands.templates.Command.initialize</text>
<text text-anchor="middle" x="1333" y="-56" font-family="Helvetica,sans-Serif" font-size="10.00">Command</text>
</a>
</g>
</g>
<!-- Node13&#45;&gt;Node19 -->
<g id="edge19" class="edge"><title>Node13&#45;&gt;Node19</title>
<path fill="none" stroke="midnightblue" d="M1173.57,-185.778C1178.74,-183.027 1183.62,-179.795 1188,-176 1219.62,-148.593 1192.07,-116.053 1224,-89 1225.99,-87.3125 1228.07,-85.7337 1230.24,-84.2567"/>
<polygon fill="midnightblue" stroke="midnightblue" points="1232.14,-87.1955 1238.92,-79.0506 1228.54,-81.1924 1232.14,-87.1955"/>
</g>
<!-- Node20 -->
<g id="node20" class="node"><title>Node20</title>
<g id="a_node20"><a xlink:href="../../d5/d1d/classcommands_1_1_command_factory.html#aa562012b61b9b1701eada2bea8caa1d8" target="_top" xlink:title="commands.CommandFactory.is\lNumeric">
<polygon fill="white" stroke="black" points="1249.5,-0 1249.5,-30 1416.5,-30 1416.5,-0 1249.5,-0"/>
<text text-anchor="start" x="1257.5" y="-18" font-family="Helvetica,sans-Serif" font-size="10.00">commands.CommandFactory.is</text>
<text text-anchor="middle" x="1333" y="-7" font-family="Helvetica,sans-Serif" font-size="10.00">Numeric</text>
</a>
</g>
</g>
<!-- Node13&#45;&gt;Node20 -->
<g id="edge20" class="edge"><title>Node13&#45;&gt;Node20</title>
<path fill="none" stroke="midnightblue" d="M1175.09,-185.899C1179.77,-183.108 1184.14,-179.835 1188,-176 1232.68,-131.644 1178.64,-82.6561 1224,-39 1228.72,-34.4548 1234.11,-30.695 1239.89,-27.5918"/>
<polygon fill="midnightblue" stroke="midnightblue" points="1241.67,-30.623 1249.27,-23.2374 1238.72,-24.2738 1241.67,-30.623"/>
</g>
<!-- Node16 -->
<g id="node16" class="node"><title>Node16</title>
<g id="a_node16"><a xlink:href="../../d8/de9/classmain_1_1_resource_finder.html#abbbd9c7b9078fd263f546d15bba68d22" target="_top" xlink:title="main.ResourceFinder.getMy\lLanguageResources">
<polygon fill="white" stroke="black" points="1478.5,-186 1478.5,-216 1625.5,-216 1625.5,-186 1478.5,-186"/>
<text text-anchor="start" x="1486.5" y="-204" font-family="Helvetica,sans-Serif" font-size="10.00">main.ResourceFinder.getMy</text>
<text text-anchor="middle" x="1552" y="-193" font-family="Helvetica,sans-Serif" font-size="10.00">LanguageResources</text>
</a>
</g>
</g>
<!-- Node15&#45;&gt;Node16 -->
<g id="edge15" class="edge"><title>Node15&#45;&gt;Node16</title>
<path fill="none" stroke="midnightblue" d="M1427.29,-201C1440.93,-201 1454.89,-201 1468.3,-201"/>
<polygon fill="midnightblue" stroke="midnightblue" points="1468.43,-204.5 1478.43,-201 1468.43,-197.5 1468.43,-204.5"/>
</g>
<!-- Node24&#45;&gt;Node6 -->
<g id="edge26" class="edge"><title>Node24&#45;&gt;Node6</title>
<path fill="none" stroke="midnightblue" d="M499.457,-345.54C526.154,-350.69 559.304,-357.084 587.415,-362.506"/>
<polygon fill="midnightblue" stroke="midnightblue" points="587.041,-365.999 597.523,-364.456 588.366,-359.125 587.041,-365.999"/>
</g>
<!-- Node25 -->
<g id="node25" class="node"><title>Node25</title>
<g id="a_node25"><a xlink:href="../../d8/dfc/classpanels_1_1_parameter_panel.html#a0bf8e32fe635c48c8a057062e0534b62" target="_top" xlink:title="panels.ParameterPanel.update\lVariables">
<polygon fill="white" stroke="black" points="566,-313 566,-343 730,-343 730,-313 566,-313"/>
<text text-anchor="start" x="574" y="-331" font-family="Helvetica,sans-Serif" font-size="10.00">panels.ParameterPanel.update</text>
<text text-anchor="middle" x="648" y="-320" font-family="Helvetica,sans-Serif" font-size="10.00">Variables</text>
</a>
</g>
</g>
<!-- Node24&#45;&gt;Node25 -->
<g id="edge27" class="edge"><title>Node24&#45;&gt;Node25</title>
<path fill="none" stroke="midnightblue" d="M529.56,-332.769C538.156,-332.42 546.952,-332.063 555.673,-331.709"/>
<polygon fill="midnightblue" stroke="midnightblue" points="556.01,-335.198 565.86,-331.295 555.726,-328.204 556.01,-335.198"/>
</g>
<!-- Node26 -->
<g id="node26" class="node"><title>Node26</title>
<g id="a_node26"><a xlink:href="../../d0/d8f/classtitle_panes_1_1_variable_title_pane.html#a395dd58ae72e6111fce8e99be3c03842" target="_top" xlink:title="titlePanes.VariableTitle\lPane.updateVariables">
<polygon fill="white" stroke="black" points="798,-312 798,-342 922,-342 922,-312 798,-312"/>
<text text-anchor="start" x="806" y="-330" font-family="Helvetica,sans-Serif" font-size="10.00">titlePanes.VariableTitle</text>
<text text-anchor="middle" x="860" y="-319" font-family="Helvetica,sans-Serif" font-size="10.00">Pane.updateVariables</text>
</a>
</g>
</g>
<!-- Node25&#45;&gt;Node26 -->
<g id="edge28" class="edge"><title>Node25&#45;&gt;Node26</title>
<path fill="none" stroke="midnightblue" d="M730.191,-327.613C749.181,-327.523 769.268,-327.427 787.785,-327.339"/>
<polygon fill="midnightblue" stroke="midnightblue" points="787.911,-330.839 797.895,-327.291 787.878,-323.839 787.911,-330.839"/>
</g>
<!-- Node27 -->
<g id="node27" class="node"><title>Node27</title>
<g id="a_node27"><a xlink:href="../../d0/d8f/classtitle_panes_1_1_variable_title_pane.html#a007ec1abdc73761490261f283e07338e" target="_top" xlink:title="titlePanes.VariableTitle\lPane.writeVariables">
<polygon fill="white" stroke="black" points="1027,-312 1027,-342 1151,-342 1151,-312 1027,-312"/>
<text text-anchor="start" x="1035" y="-330" font-family="Helvetica,sans-Serif" font-size="10.00">titlePanes.VariableTitle</text>
<text text-anchor="middle" x="1089" y="-319" font-family="Helvetica,sans-Serif" font-size="10.00">Pane.writeVariables</text>
</a>
</g>
</g>
<!-- Node26&#45;&gt;Node27 -->
<g id="edge29" class="edge"><title>Node26&#45;&gt;Node27</title>
<path fill="none" stroke="midnightblue" d="M922.13,-327C951.271,-327 986.311,-327 1016.66,-327"/>
<polygon fill="midnightblue" stroke="midnightblue" points="1016.76,-330.5 1026.76,-327 1016.76,-323.5 1016.76,-330.5"/>
</g>
</g>
</svg>
