<?xml version="1.0" encoding="UTF-8" standalone="no"?>
<!DOCTYPE svg PUBLIC "-//W3C//DTD SVG 1.1//EN"
 "http://www.w3.org/Graphics/SVG/1.1/DTD/svg11.dtd">
<!-- Generated by graphviz version 2.36.0 (20140111.2315)
 -->
<!-- Title: panels.ScriptPanel.addTextToScript Pages: 1 -->
<svg width="726pt" height="38pt"
 viewBox="0.00 0.00 726.00 38.00" xmlns="http://www.w3.org/2000/svg" xmlns:xlink="http://www.w3.org/1999/xlink">
<g id="graph0" class="graph" transform="scale(1 1) rotate(0) translate(4 34)">
<title>panels.ScriptPanel.addTextToScript</title>
<polygon fill="white" stroke="none" points="-4,4 -4,-34 722,-34 722,4 -4,4"/>
<!-- Node1 -->
<g id="node1" class="node"><title>Node1</title>
<polygon fill="#bfbfbf" stroke="black" points="0,-0 0,-30 144,-30 144,-0 0,-0"/>
<text text-anchor="start" x="8" y="-18" font-family="Helvetica,sans-Serif" font-size="10.00">panels.ScriptPanel.addText</text>
<text text-anchor="middle" x="72" y="-7" font-family="Helvetica,sans-Serif" font-size="10.00">ToScript</text>
</g>
<!-- Node2 -->
<g id="node2" class="node"><title>Node2</title>
<g id="a_node2"><a xlink:href="../../d8/d1f/classfront_end_1_1_view.html#a6eecae39002da8aa43937c2e3ba0ac6f" target="_top" xlink:title="frontEnd.View.addTextToScript">
<polygon fill="white" stroke="black" points="180,-5.5 180,-24.5 338,-24.5 338,-5.5 180,-5.5"/>
<text text-anchor="middle" x="259" y="-12.5" font-family="Helvetica,sans-Serif" font-size="10.00">frontEnd.View.addTextToScript</text>
</a>
</g>
</g>
<!-- Node1&#45;&gt;Node2 -->
<g id="edge1" class="edge"><title>Node1&#45;&gt;Node2</title>
<path fill="none" stroke="midnightblue" d="M154.423,-15C162.82,-15 171.34,-15 179.702,-15"/>
<polygon fill="midnightblue" stroke="midnightblue" points="154.261,-11.5001 144.261,-15 154.261,-18.5001 154.261,-11.5001"/>
</g>
<!-- Node3 -->
<g id="node3" class="node"><title>Node3</title>
<g id="a_node3"><a xlink:href="../../d9/d49/classback_end_1_1_controller.html#a9bac47210a2b80f3d1ae6338283a09bc" target="_top" xlink:title="backEnd.Controller.addText\lToScript">
<polygon fill="white" stroke="black" points="374,-0 374,-30 520,-30 520,-0 374,-0"/>
<text text-anchor="start" x="382" y="-18" font-family="Helvetica,sans-Serif" font-size="10.00">backEnd.Controller.addText</text>
<text text-anchor="middle" x="447" y="-7" font-family="Helvetica,sans-Serif" font-size="10.00">ToScript</text>
</a>
</g>
</g>
<!-- Node2&#45;&gt;Node3 -->
<g id="edge2" class="edge"><title>Node2&#45;&gt;Node3</title>
<path fill="none" stroke="midnightblue" d="M348.115,-15C356.707,-15 365.355,-15 373.764,-15"/>
<polygon fill="midnightblue" stroke="midnightblue" points="348.072,-11.5001 338.072,-15 348.072,-18.5001 348.072,-11.5001"/>
</g>
<!-- Node4 -->
<g id="node4" class="node"><title>Node4</title>
<g id="a_node4"><a xlink:href="../../da/d59/classtitle_panes_1_1_command_title_pane.html#a5ea67081716a74d0cc1b8343ccfacaca" target="_top" xlink:title="titlePanes.CommandTitlePane.\lCommandTitlePane">
<polygon fill="white" stroke="black" points="556,-0 556,-30 718,-30 718,-0 556,-0"/>
<text text-anchor="start" x="564" y="-18" font-family="Helvetica,sans-Serif" font-size="10.00">titlePanes.CommandTitlePane.</text>
<text text-anchor="middle" x="637" y="-7" font-family="Helvetica,sans-Serif" font-size="10.00">CommandTitlePane</text>
</a>
</g>
</g>
<!-- Node3&#45;&gt;Node4 -->
<g id="edge3" class="edge"><title>Node3&#45;&gt;Node4</title>
<path fill="none" stroke="midnightblue" d="M530.396,-15C538.865,-15 547.461,-15 555.905,-15"/>
<polygon fill="midnightblue" stroke="midnightblue" points="530.148,-11.5001 520.148,-15 530.148,-18.5001 530.148,-11.5001"/>
</g>
</g>
</svg>
