<?xml version="1.0" encoding="UTF-8" standalone="no"?>
<!DOCTYPE svg PUBLIC "-//W3C//DTD SVG 1.1//EN"
 "http://www.w3.org/Graphics/SVG/1.1/DTD/svg11.dtd">
<!-- Generated by graphviz version 2.36.0 (20140111.2315)
 -->
<!-- Title: panels.ScriptPanel.ScriptPanel Pages: 1 -->
<!--zoomable 448 -->
<svg id="main" version="1.1" xmlns="http://www.w3.org/2000/svg" xmlns:xlink="http://www.w3.org/1999/xlink" xml:space="preserve" onload="init(evt)">
<style type="text/css"><![CDATA[
.edge:hover path { stroke: red; }
.edge:hover polygon { stroke: red; fill: red; }
]]></style>
<script type="text/javascript"><![CDATA[
var edges = document.getElementsByTagName('g');
if (edges && edges.length) {
  for (var i=0;i<edges.length;i++) {
    if (edges[i].id.substr(0,4)=='edge') {
      edges[i].setAttribute('class','edge');
    }
  }
}
]]></script>
        <defs>
                <circle id="rim" cx="0" cy="0" r="7"/>
                <circle id="rim2" cx="0" cy="0" r="3.5"/>
                <g id="zoomPlus">
                        <use xlink:href="#rim" fill="#404040">
                                <set attributeName="fill" to="#808080" begin="zoomplus.mouseover" end="zoomplus.mouseout"/>
                        </use>
                        <path d="M-4,0h8M0,-4v8" fill="none" stroke="white" stroke-width="1.5" pointer-events="none"/>
                </g>
                <g id="zoomMin">
                        <use xlink:href="#rim" fill="#404040">
                                <set attributeName="fill" to="#808080" begin="zoomminus.mouseover" end="zoomminus.mouseout"/>
                        </use>
                        <path d="M-4,0h8" fill="none" stroke="white" stroke-width="1.5" pointer-events="none"/>
                </g>
                <g id="dirArrow">
                        <path fill="none" stroke="white" stroke-width="1.5" d="M0,-3.0v7 M-2.5,-0.5L0,-3.0L2.5,-0.5"/>
                </g>
               <g id="resetDef">
                       <use xlink:href="#rim2" fill="#404040">
                               <set attributeName="fill" to="#808080" begin="reset.mouseover" end="reset.mouseout"/>
                       </use>
               </g>
        </defs>

<script type="text/javascript">
var viewWidth = 1806;
var viewHeight = 448;
var sectionId = 'dynsection-2';
</script>
<script xlink:href="../../svgpan.js"/>
<svg id="graph" class="graph">
<g id="viewport">
<title>panels.ScriptPanel.ScriptPanel</title>
<polygon fill="white" stroke="none" points="-4,4 -4,-444 1802,-444 1802,4 -4,4"/>
<!-- Node1 -->
<g id="node1" class="node"><title>Node1</title>
<polygon fill="#bfbfbf" stroke="black" points="0.5,-340 0.5,-370 135.5,-370 135.5,-340 0.5,-340"/>
<text text-anchor="start" x="8.5" y="-358" font-family="Helvetica,sans-Serif" font-size="10.00">panels.ScriptPanel.Script</text>
<text text-anchor="middle" x="68" y="-347" font-family="Helvetica,sans-Serif" font-size="10.00">Panel</text>
</g>
<!-- Node2 -->
<g id="node2" class="node"><title>Node2</title>
<g id="a_node2"><a xlink:href="../../de/d03/classpanels_1_1_script_panel.html#ae6ae56472ef1a975597bad69844662c6" target="_top" xlink:title="panels.ScriptPanel.handler">
<polygon fill="white" stroke="black" points="172.5,-345.5 172.5,-364.5 315.5,-364.5 315.5,-345.5 172.5,-345.5"/>
<text text-anchor="middle" x="244" y="-352.5" font-family="Helvetica,sans-Serif" font-size="10.00">panels.ScriptPanel.handler</text>
</a>
</g>
</g>
<!-- Node1&#45;&gt;Node2 -->
<g id="edge1" class="edge"><title>Node1&#45;&gt;Node2</title>
<path fill="none" stroke="midnightblue" d="M135.775,-355C144.386,-355 153.276,-355 162.083,-355"/>
<polygon fill="midnightblue" stroke="midnightblue" points="162.361,-358.5 172.361,-355 162.361,-351.5 162.361,-358.5"/>
</g>
<!-- Node3 -->
<g id="node3" class="node"><title>Node3</title>
<g id="a_node3"><a xlink:href="../../d9/d49/classback_end_1_1_controller.html#ad650f48d236eaf11c2d8591b04831900" target="_top" xlink:title="backEnd.Controller.runScript">
<polygon fill="white" stroke="black" points="352,-345.5 352,-364.5 504,-364.5 504,-345.5 352,-345.5"/>
<text text-anchor="middle" x="428" y="-352.5" font-family="Helvetica,sans-Serif" font-size="10.00">backEnd.Controller.runScript</text>
</a>
</g>
</g>
<!-- Node2&#45;&gt;Node3 -->
<g id="edge2" class="edge"><title>Node2&#45;&gt;Node3</title>
<path fill="none" stroke="midnightblue" d="M315.626,-355C324.173,-355 332.972,-355 341.7,-355"/>
<polygon fill="midnightblue" stroke="midnightblue" points="341.896,-358.5 351.896,-355 341.896,-351.5 341.896,-358.5"/>
</g>
<!-- Node4 -->
<g id="node4" class="node"><title>Node4</title>
<g id="a_node4"><a xlink:href="../../d8/d1f/classfront_end_1_1_view.html#a88014d18898a5c72ba7893e0d865a218" target="_top" xlink:title="frontEnd.View.addToHistory">
<polygon fill="white" stroke="black" points="548,-407.5 548,-426.5 694,-426.5 694,-407.5 548,-407.5"/>
<text text-anchor="middle" x="621" y="-414.5" font-family="Helvetica,sans-Serif" font-size="10.00">frontEnd.View.addToHistory</text>
</a>
</g>
</g>
<!-- Node3&#45;&gt;Node4 -->
<g id="edge3" class="edge"><title>Node3&#45;&gt;Node4</title>
<path fill="none" stroke="midnightblue" d="M458.425,-364.552C491.233,-375.201 544.447,-392.475 580.774,-404.267"/>
<polygon fill="midnightblue" stroke="midnightblue" points="579.949,-407.679 590.541,-407.438 582.111,-401.021 579.949,-407.679"/>
</g>
<!-- Node7 -->
<g id="node7" class="node"><title>Node7</title>
<g id="a_node7"><a xlink:href="../../d8/d1f/classfront_end_1_1_view.html#a22669dd74ac845d66d5b59ddeba13b5e" target="_top" xlink:title="frontEnd.View.printException">
<polygon fill="white" stroke="black" points="744,-364.5 744,-383.5 896,-383.5 896,-364.5 744,-364.5"/>
<text text-anchor="middle" x="820" y="-371.5" font-family="Helvetica,sans-Serif" font-size="10.00">frontEnd.View.printException</text>
</a>
</g>
</g>
<!-- Node3&#45;&gt;Node7 -->
<g id="edge6" class="edge"><title>Node3&#45;&gt;Node7</title>
<path fill="none" stroke="midnightblue" d="M504.196,-358.663C569.779,-361.858 664.88,-366.492 733.373,-369.828"/>
<polygon fill="midnightblue" stroke="midnightblue" points="733.545,-373.341 743.703,-370.332 733.885,-366.349 733.545,-373.341"/>
</g>
<!-- Node9 -->
<g id="node9" class="node"><title>Node9</title>
<g id="a_node9"><a xlink:href="../../d9/d98/classback_end_1_1_model.html#ade764fd1c85a48fabb9abf3dfe8b8ceb" target="_top" xlink:title="backEnd.Model.runScript">
<polygon fill="white" stroke="black" points="553.5,-251.5 553.5,-270.5 688.5,-270.5 688.5,-251.5 553.5,-251.5"/>
<text text-anchor="middle" x="621" y="-258.5" font-family="Helvetica,sans-Serif" font-size="10.00">backEnd.Model.runScript</text>
</a>
</g>
</g>
<!-- Node3&#45;&gt;Node9 -->
<g id="edge8" class="edge"><title>Node3&#45;&gt;Node9</title>
<path fill="none" stroke="midnightblue" d="M448.365,-345.469C482.113,-328.861 551.857,-294.537 591.26,-275.144"/>
<polygon fill="midnightblue" stroke="midnightblue" points="593.157,-278.112 600.584,-270.556 590.066,-271.831 593.157,-278.112"/>
</g>
<!-- Node25 -->
<g id="node25" class="node"><title>Node25</title>
<g id="a_node25"><a xlink:href="../../d8/d1f/classfront_end_1_1_view.html#a59fa2dbe984da3217324979184d00559" target="_top" xlink:title="frontEnd.View.updateVariables">
<polygon fill="white" stroke="black" points="540.5,-326.5 540.5,-345.5 701.5,-345.5 701.5,-326.5 540.5,-326.5"/>
<text text-anchor="middle" x="621" y="-333.5" font-family="Helvetica,sans-Serif" font-size="10.00">frontEnd.View.updateVariables</text>
</a>
</g>
</g>
<!-- Node3&#45;&gt;Node25 -->
<g id="edge26" class="edge"><title>Node3&#45;&gt;Node25</title>
<path fill="none" stroke="midnightblue" d="M504.214,-347.518C512.768,-346.667 521.549,-345.794 530.266,-344.926"/>
<polygon fill="midnightblue" stroke="midnightblue" points="530.848,-348.386 540.452,-343.913 530.155,-341.42 530.848,-348.386"/>
</g>
<!-- Node5 -->
<g id="node5" class="node"><title>Node5</title>
<g id="a_node5"><a xlink:href="../../d8/dfc/classpanels_1_1_parameter_panel.html#a5f64bf2acdef3d7ca882a87ba8c78bf3" target="_top" xlink:title="panels.ParameterPanel.add\lToHistory">
<polygon fill="white" stroke="black" points="746,-407 746,-437 894,-437 894,-407 746,-407"/>
<text text-anchor="start" x="754" y="-425" font-family="Helvetica,sans-Serif" font-size="10.00">panels.ParameterPanel.add</text>
<text text-anchor="middle" x="820" y="-414" font-family="Helvetica,sans-Serif" font-size="10.00">ToHistory</text>
</a>
</g>
</g>
<!-- Node4&#45;&gt;Node5 -->
<g id="edge4" class="edge"><title>Node4&#45;&gt;Node5</title>
<path fill="none" stroke="midnightblue" d="M694.237,-418.833C707.625,-419.173 721.712,-419.531 735.406,-419.878"/>
<polygon fill="midnightblue" stroke="midnightblue" points="735.697,-423.387 745.782,-420.142 735.874,-416.389 735.697,-423.387"/>
</g>
<!-- Node6 -->
<g id="node6" class="node"><title>Node6</title>
<g id="a_node6"><a xlink:href="../../de/dff/classtitle_panes_1_1_history_title_pane.html#a14fe295c9a982a88b2f96e93758e021d" target="_top" xlink:title="titlePanes.HistoryTitlePane.add\lToHistory">
<polygon fill="white" stroke="black" points="950,-410 950,-440 1114,-440 1114,-410 950,-410"/>
<text text-anchor="start" x="958" y="-428" font-family="Helvetica,sans-Serif" font-size="10.00">titlePanes.HistoryTitlePane.add</text>
<text text-anchor="middle" x="1032" y="-417" font-family="Helvetica,sans-Serif" font-size="10.00">ToHistory</text>
</a>
</g>
</g>
<!-- Node5&#45;&gt;Node6 -->
<g id="edge5" class="edge"><title>Node5&#45;&gt;Node6</title>
<path fill="none" stroke="midnightblue" d="M894.153,-423.045C908.772,-423.254 924.3,-423.476 939.449,-423.692"/>
<polygon fill="midnightblue" stroke="midnightblue" points="939.811,-427.198 949.86,-423.841 939.911,-420.198 939.811,-427.198"/>
</g>
<!-- Node8 -->
<g id="node8" class="node"><title>Node8</title>
<g id="a_node8"><a xlink:href="../../de/d03/classpanels_1_1_script_panel.html#acf94d4284961d6d9eabc8af4db9abe87" target="_top" xlink:title="panels.ScriptPanel.print\lException">
<polygon fill="white" stroke="black" points="967.5,-361 967.5,-391 1096.5,-391 1096.5,-361 967.5,-361"/>
<text text-anchor="start" x="975.5" y="-379" font-family="Helvetica,sans-Serif" font-size="10.00">panels.ScriptPanel.print</text>
<text text-anchor="middle" x="1032" y="-368" font-family="Helvetica,sans-Serif" font-size="10.00">Exception</text>
</a>
</g>
</g>
<!-- Node7&#45;&gt;Node8 -->
<g id="edge7" class="edge"><title>Node7&#45;&gt;Node8</title>
<path fill="none" stroke="midnightblue" d="M896.222,-374.716C916.065,-374.905 937.456,-375.109 957.222,-375.297"/>
<polygon fill="midnightblue" stroke="midnightblue" points="957.361,-378.799 967.394,-375.394 957.428,-371.799 957.361,-378.799"/>
</g>
<!-- Node10 -->
<g id="node10" class="node"><title>Node10</title>
<g id="a_node10"><a xlink:href="../../d9/d1e/classback_end_1_1_parser.html#a163b8afd814babc8e7df59993f0d6440" target="_top" xlink:title="backEnd.Parser.parseScript">
<polygon fill="white" stroke="black" points="746.5,-213.5 746.5,-232.5 893.5,-232.5 893.5,-213.5 746.5,-213.5"/>
<text text-anchor="middle" x="820" y="-220.5" font-family="Helvetica,sans-Serif" font-size="10.00">backEnd.Parser.parseScript</text>
</a>
</g>
</g>
<!-- Node9&#45;&gt;Node10 -->
<g id="edge9" class="edge"><title>Node9&#45;&gt;Node10</title>
<path fill="none" stroke="midnightblue" d="M671.457,-251.46C698.154,-246.31 731.304,-239.916 759.415,-234.494"/>
<polygon fill="midnightblue" stroke="midnightblue" points="760.366,-237.875 769.523,-232.544 759.041,-231.001 760.366,-237.875"/>
</g>
<!-- Node11 -->
<g id="node11" class="node"><title>Node11</title>
<g id="a_node11"><a xlink:href="../../d9/d98/classback_end_1_1_model.html#a6b39dd199a5957068c032bb023f4b613" target="_top" xlink:title="backEnd.Model.getCommandsMap">
<polygon fill="white" stroke="black" points="1413.5,-273.5 1413.5,-292.5 1596.5,-292.5 1596.5,-273.5 1413.5,-273.5"/>
<text text-anchor="middle" x="1505" y="-280.5" font-family="Helvetica,sans-Serif" font-size="10.00">backEnd.Model.getCommandsMap</text>
</a>
</g>
</g>
<!-- Node10&#45;&gt;Node11 -->
<g id="edge10" class="edge"><title>Node10&#45;&gt;Node11</title>
<path fill="none" stroke="midnightblue" d="M875.971,-232.506C895.522,-235.734 917.714,-239.223 938,-242 1037.25,-255.588 1062.14,-259.1 1162,-267 1242.88,-273.399 1334.73,-277.522 1402.87,-279.978"/>
<polygon fill="midnightblue" stroke="midnightblue" points="1403.05,-283.487 1413.17,-280.343 1403.3,-276.491 1403.05,-283.487"/>
</g>
<!-- Node12 -->
<g id="node12" class="node"><title>Node12</title>
<g id="a_node12"><a xlink:href="../../d9/d1e/classback_end_1_1_parser.html#a653298ad53a1eea540beded2bb558ab4" target="_top" xlink:title="backEnd.Parser.makeTree">
<polygon fill="white" stroke="black" points="962.5,-213.5 962.5,-232.5 1101.5,-232.5 1101.5,-213.5 962.5,-213.5"/>
<text text-anchor="middle" x="1032" y="-220.5" font-family="Helvetica,sans-Serif" font-size="10.00">backEnd.Parser.makeTree</text>
</a>
</g>
</g>
<!-- Node10&#45;&gt;Node12 -->
<g id="edge11" class="edge"><title>Node10&#45;&gt;Node12</title>
<path fill="none" stroke="midnightblue" d="M893.564,-223C912.457,-223 932.903,-223 952.106,-223"/>
<polygon fill="midnightblue" stroke="midnightblue" points="952.322,-226.5 962.322,-223 952.322,-219.5 952.322,-226.5"/>
</g>
<!-- Node23 -->
<g id="node23" class="node"><title>Node23</title>
<g id="a_node23"><a xlink:href="../../d9/d1e/classback_end_1_1_parser.html#a71653c0a9d02d4b400e357b978260de6" target="_top" xlink:title="backEnd.Parser.removeComments">
<polygon fill="white" stroke="black" points="941,-175.5 941,-194.5 1123,-194.5 1123,-175.5 941,-175.5"/>
<text text-anchor="middle" x="1032" y="-182.5" font-family="Helvetica,sans-Serif" font-size="10.00">backEnd.Parser.removeComments</text>
</a>
</g>
</g>
<!-- Node10&#45;&gt;Node23 -->
<g id="edge24" class="edge"><title>Node10&#45;&gt;Node23</title>
<path fill="none" stroke="midnightblue" d="M873.721,-213.46C902.429,-208.265 938.137,-201.804 968.27,-196.351"/>
<polygon fill="midnightblue" stroke="midnightblue" points="969.041,-199.769 978.258,-194.544 967.794,-192.88 969.041,-199.769"/>
</g>
<!-- Node24 -->
<g id="node24" class="node"><title>Node24</title>
<g id="a_node24"><a xlink:href="../../d5/d62/classcommands_1_1templates_1_1_command.html#aa1c27b6285999798be609159ee5c7a83" target="_top" xlink:title="commands.templates.Command.to\lString">
<polygon fill="white" stroke="black" points="938,-126 938,-156 1126,-156 1126,-126 938,-126"/>
<text text-anchor="start" x="946" y="-144" font-family="Helvetica,sans-Serif" font-size="10.00">commands.templates.Command.to</text>
<text text-anchor="middle" x="1032" y="-133" font-family="Helvetica,sans-Serif" font-size="10.00">String</text>
</a>
</g>
</g>
<!-- Node10&#45;&gt;Node24 -->
<g id="edge25" class="edge"><title>Node10&#45;&gt;Node24</title>
<path fill="none" stroke="midnightblue" d="M837.988,-213.442C860.359,-201.157 901.177,-179.775 938,-166 944.675,-163.503 951.705,-161.145 958.787,-158.948"/>
<polygon fill="midnightblue" stroke="midnightblue" points="959.874,-162.276 968.449,-156.054 957.865,-155.57 959.874,-162.276"/>
</g>
<!-- Node12&#45;&gt;Node11 -->
<g id="edge22" class="edge"><title>Node12&#45;&gt;Node11</title>
<path fill="none" stroke="midnightblue" d="M1101.74,-231.757C1185.91,-242.479 1328.44,-260.636 1419.29,-272.209"/>
<polygon fill="midnightblue" stroke="midnightblue" points="1418.93,-275.691 1429.29,-273.483 1419.81,-268.747 1418.93,-275.691"/>
</g>
<!-- Node13 -->
<g id="node13" class="node"><title>Node13</title>
<g id="a_node13"><a xlink:href="../../d5/d62/classcommands_1_1templates_1_1_command.html#a9ab84f2a1491a7283311891b8a6082dc" target="_top" xlink:title="commands.templates.Command.add\lChild">
<polygon fill="white" stroke="black" points="1162.5,-137 1162.5,-167 1359.5,-167 1359.5,-137 1162.5,-137"/>
<text text-anchor="start" x="1170.5" y="-155" font-family="Helvetica,sans-Serif" font-size="10.00">commands.templates.Command.add</text>
<text text-anchor="middle" x="1261" y="-144" font-family="Helvetica,sans-Serif" font-size="10.00">Child</text>
</a>
</g>
</g>
<!-- Node12&#45;&gt;Node13 -->
<g id="edge12" class="edge"><title>Node12&#45;&gt;Node13</title>
<path fill="none" stroke="midnightblue" d="M1099.25,-213.394C1108.45,-210.937 1117.62,-207.858 1126,-204 1144.41,-195.526 1143.75,-184.828 1162,-176 1166.1,-174.015 1170.38,-172.186 1174.76,-170.501"/>
<polygon fill="midnightblue" stroke="midnightblue" points="1176.24,-173.693 1184.48,-167.04 1173.89,-167.098 1176.24,-173.693"/>
</g>
<!-- Node14 -->
<g id="node14" class="node"><title>Node14</title>
<g id="a_node14"><a xlink:href="../../d5/d1d/classcommands_1_1_command_factory.html#ac77125dd466e3e01fce01fc527e7f815" target="_top" xlink:title="commands.CommandFactory.build\lCommand">
<polygon fill="white" stroke="black" points="1170,-186 1170,-216 1352,-216 1352,-186 1170,-186"/>
<text text-anchor="start" x="1178" y="-204" font-family="Helvetica,sans-Serif" font-size="10.00">commands.CommandFactory.build</text>
<text text-anchor="middle" x="1261" y="-193" font-family="Helvetica,sans-Serif" font-size="10.00">Command</text>
</a>
</g>
</g>
<!-- Node12&#45;&gt;Node14 -->
<g id="edge13" class="edge"><title>Node12&#45;&gt;Node14</title>
<path fill="none" stroke="midnightblue" d="M1101.72,-216.34C1119.95,-214.573 1140.01,-212.629 1159.54,-210.736"/>
<polygon fill="midnightblue" stroke="midnightblue" points="1160.08,-214.2 1169.7,-209.752 1159.41,-207.233 1160.08,-214.2"/>
</g>
<!-- Node22 -->
<g id="node22" class="node"><title>Node22</title>
<g id="a_node22"><a xlink:href="../../d5/d62/classcommands_1_1templates_1_1_command.html#a0ca025dffda489d73ba4b6c12c7118fe" target="_top" xlink:title="commands.templates.Command.get\lNumChildrenNeeded">
<polygon fill="white" stroke="black" points="1164,-88 1164,-118 1358,-118 1358,-88 1164,-88"/>
<text text-anchor="start" x="1172" y="-106" font-family="Helvetica,sans-Serif" font-size="10.00">commands.templates.Command.get</text>
<text text-anchor="middle" x="1261" y="-95" font-family="Helvetica,sans-Serif" font-size="10.00">NumChildrenNeeded</text>
</a>
</g>
</g>
<!-- Node12&#45;&gt;Node22 -->
<g id="edge23" class="edge"><title>Node12&#45;&gt;Node22</title>
<path fill="none" stroke="midnightblue" d="M1101.8,-216.63C1110.53,-213.687 1118.88,-209.611 1126,-204 1155.67,-180.615 1132.79,-150.954 1162,-127 1163.57,-125.709 1165.21,-124.485 1166.89,-123.326"/>
<polygon fill="midnightblue" stroke="midnightblue" points="1168.92,-126.194 1175.69,-118.05 1165.32,-120.19 1168.92,-126.194"/>
</g>
<!-- Node14&#45;&gt;Node11 -->
<g id="edge19" class="edge"><title>Node14&#45;&gt;Node11</title>
<path fill="none" stroke="midnightblue" d="M1325.94,-216.056C1337.66,-220.061 1349.5,-224.993 1360,-231 1378.84,-241.776 1376.53,-254.402 1396,-264 1400.91,-266.42 1406.08,-268.537 1411.39,-270.387"/>
<polygon fill="midnightblue" stroke="midnightblue" points="1410.48,-273.769 1421.06,-273.438 1412.58,-267.093 1410.48,-273.769"/>
</g>
<!-- Node15 -->
<g id="node15" class="node"><title>Node15</title>
<g id="a_node15"><a xlink:href="../../d5/d1d/classcommands_1_1_command_factory.html#adcf456039b5d7285082f1e009f3d30b6" target="_top" xlink:title="commands.CommandFactory.checkCaps">
<polygon fill="white" stroke="black" points="1399,-235.5 1399,-254.5 1611,-254.5 1611,-235.5 1399,-235.5"/>
<text text-anchor="middle" x="1505" y="-242.5" font-family="Helvetica,sans-Serif" font-size="10.00">commands.CommandFactory.checkCaps</text>
</a>
</g>
</g>
<!-- Node14&#45;&gt;Node15 -->
<g id="edge14" class="edge"><title>Node14&#45;&gt;Node15</title>
<path fill="none" stroke="midnightblue" d="M1344.61,-216.019C1376.33,-221.787 1411.98,-228.269 1441.51,-233.638"/>
<polygon fill="midnightblue" stroke="midnightblue" points="1441.22,-237.142 1451.68,-235.488 1442.47,-230.255 1441.22,-237.142"/>
</g>
<!-- Node16 -->
<g id="node16" class="node"><title>Node16</title>
<g id="a_node16"><a xlink:href="../../d5/d1d/classcommands_1_1_command_factory.html#acae1571442d9f8e040df95c8a2742d8d" target="_top" xlink:title="commands.CommandFactory.check\lLanguage">
<polygon fill="white" stroke="black" points="1411,-186 1411,-216 1599,-216 1599,-186 1411,-186"/>
<text text-anchor="start" x="1419" y="-204" font-family="Helvetica,sans-Serif" font-size="10.00">commands.CommandFactory.check</text>
<text text-anchor="middle" x="1505" y="-193" font-family="Helvetica,sans-Serif" font-size="10.00">Language</text>
</a>
</g>
</g>
<!-- Node14&#45;&gt;Node16 -->
<g id="edge15" class="edge"><title>Node14&#45;&gt;Node16</title>
<path fill="none" stroke="midnightblue" d="M1352.11,-201C1368.03,-201 1384.7,-201 1400.94,-201"/>
<polygon fill="midnightblue" stroke="midnightblue" points="1400.98,-204.5 1410.98,-201 1400.98,-197.5 1400.98,-204.5"/>
</g>
<!-- Node18 -->
<g id="node18" class="node"><title>Node18</title>
<g id="a_node18"><a xlink:href="../../d5/d1d/classcommands_1_1_command_factory.html#a9206a1ef0f863c61cb5c894da3133ef8" target="_top" xlink:title="commands.CommandFactory.check\lUserCommand">
<polygon fill="white" stroke="black" points="1411,-137 1411,-167 1599,-167 1599,-137 1411,-137"/>
<text text-anchor="start" x="1419" y="-155" font-family="Helvetica,sans-Serif" font-size="10.00">commands.CommandFactory.check</text>
<text text-anchor="middle" x="1505" y="-144" font-family="Helvetica,sans-Serif" font-size="10.00">UserCommand</text>
</a>
</g>
</g>
<!-- Node14&#45;&gt;Node18 -->
<g id="edge17" class="edge"><title>Node14&#45;&gt;Node18</title>
<path fill="none" stroke="midnightblue" d="M1336.25,-185.965C1362.73,-180.604 1392.74,-174.527 1419.99,-169.011"/>
<polygon fill="midnightblue" stroke="midnightblue" points="1420.78,-172.421 1429.89,-167.006 1419.39,-165.56 1420.78,-172.421"/>
</g>
<!-- Node19 -->
<g id="node19" class="node"><title>Node19</title>
<g id="a_node19"><a xlink:href="../../d5/d1d/classcommands_1_1_command_factory.html#a221a82baff222f4552a38b521efd78b6" target="_top" xlink:title="commands.CommandFactory.checkVar">
<polygon fill="white" stroke="black" points="1403.5,-98.5 1403.5,-117.5 1606.5,-117.5 1606.5,-98.5 1403.5,-98.5"/>
<text text-anchor="middle" x="1505" y="-105.5" font-family="Helvetica,sans-Serif" font-size="10.00">commands.CommandFactory.checkVar</text>
</a>
</g>
</g>
<!-- Node14&#45;&gt;Node19 -->
<g id="edge18" class="edge"><title>Node14&#45;&gt;Node19</title>
<path fill="none" stroke="midnightblue" d="M1341.63,-185.819C1348.1,-183.073 1354.32,-179.83 1360,-176 1382.4,-160.887 1373.04,-141.255 1396,-127 1399.36,-124.913 1402.89,-123.04 1406.53,-121.359"/>
<polygon fill="midnightblue" stroke="midnightblue" points="1407.87,-124.592 1415.8,-117.566 1405.22,-118.113 1407.87,-124.592"/>
</g>
<!-- Node20 -->
<g id="node20" class="node"><title>Node20</title>
<g id="a_node20"><a xlink:href="../../d5/d62/classcommands_1_1templates_1_1_command.html#a20741a5e32e24ff113701f7b2957e658" target="_top" xlink:title="commands.templates.Command.initialize\lCommand">
<polygon fill="white" stroke="black" points="1396.5,-49 1396.5,-79 1613.5,-79 1613.5,-49 1396.5,-49"/>
<text text-anchor="start" x="1404.5" y="-67" font-family="Helvetica,sans-Serif" font-size="10.00">commands.templates.Command.initialize</text>
<text text-anchor="middle" x="1505" y="-56" font-family="Helvetica,sans-Serif" font-size="10.00">Command</text>
</a>
</g>
</g>
<!-- Node14&#45;&gt;Node20 -->
<g id="edge20" class="edge"><title>Node14&#45;&gt;Node20</title>
<path fill="none" stroke="midnightblue" d="M1345.57,-185.778C1350.74,-183.027 1355.62,-179.795 1360,-176 1391.62,-148.593 1364.07,-116.053 1396,-89 1397.99,-87.3125 1400.07,-85.7337 1402.24,-84.2567"/>
<polygon fill="midnightblue" stroke="midnightblue" points="1404.14,-87.1955 1410.92,-79.0506 1400.54,-81.1924 1404.14,-87.1955"/>
</g>
<!-- Node21 -->
<g id="node21" class="node"><title>Node21</title>
<g id="a_node21"><a xlink:href="../../d5/d1d/classcommands_1_1_command_factory.html#aa562012b61b9b1701eada2bea8caa1d8" target="_top" xlink:title="commands.CommandFactory.is\lNumeric">
<polygon fill="white" stroke="black" points="1421.5,-0 1421.5,-30 1588.5,-30 1588.5,-0 1421.5,-0"/>
<text text-anchor="start" x="1429.5" y="-18" font-family="Helvetica,sans-Serif" font-size="10.00">commands.CommandFactory.is</text>
<text text-anchor="middle" x="1505" y="-7" font-family="Helvetica,sans-Serif" font-size="10.00">Numeric</text>
</a>
</g>
</g>
<!-- Node14&#45;&gt;Node21 -->
<g id="edge21" class="edge"><title>Node14&#45;&gt;Node21</title>
<path fill="none" stroke="midnightblue" d="M1347.09,-185.899C1351.77,-183.108 1356.14,-179.835 1360,-176 1404.68,-131.644 1350.64,-82.6561 1396,-39 1400.72,-34.4548 1406.11,-30.695 1411.89,-27.5918"/>
<polygon fill="midnightblue" stroke="midnightblue" points="1413.67,-30.623 1421.27,-23.2374 1410.72,-24.2738 1413.67,-30.623"/>
</g>
<!-- Node17 -->
<g id="node17" class="node"><title>Node17</title>
<g id="a_node17"><a xlink:href="../../d8/de9/classmain_1_1_resource_finder.html#abbbd9c7b9078fd263f546d15bba68d22" target="_top" xlink:title="main.ResourceFinder.getMy\lLanguageResources">
<polygon fill="white" stroke="black" points="1650.5,-186 1650.5,-216 1797.5,-216 1797.5,-186 1650.5,-186"/>
<text text-anchor="start" x="1658.5" y="-204" font-family="Helvetica,sans-Serif" font-size="10.00">main.ResourceFinder.getMy</text>
<text text-anchor="middle" x="1724" y="-193" font-family="Helvetica,sans-Serif" font-size="10.00">LanguageResources</text>
</a>
</g>
</g>
<!-- Node16&#45;&gt;Node17 -->
<g id="edge16" class="edge"><title>Node16&#45;&gt;Node17</title>
<path fill="none" stroke="midnightblue" d="M1599.29,-201C1612.93,-201 1626.89,-201 1640.3,-201"/>
<polygon fill="midnightblue" stroke="midnightblue" points="1640.43,-204.5 1650.43,-201 1640.43,-197.5 1640.43,-204.5"/>
</g>
<!-- Node25&#45;&gt;Node7 -->
<g id="edge27" class="edge"><title>Node25&#45;&gt;Node7</title>
<path fill="none" stroke="midnightblue" d="M671.457,-345.54C698.154,-350.69 731.304,-357.084 759.415,-362.506"/>
<polygon fill="midnightblue" stroke="midnightblue" points="759.041,-365.999 769.523,-364.456 760.366,-359.125 759.041,-365.999"/>
</g>
<!-- Node26 -->
<g id="node26" class="node"><title>Node26</title>
<g id="a_node26"><a xlink:href="../../d8/dfc/classpanels_1_1_parameter_panel.html#a0bf8e32fe635c48c8a057062e0534b62" target="_top" xlink:title="panels.ParameterPanel.update\lVariables">
<polygon fill="white" stroke="black" points="738,-313 738,-343 902,-343 902,-313 738,-313"/>
<text text-anchor="start" x="746" y="-331" font-family="Helvetica,sans-Serif" font-size="10.00">panels.ParameterPanel.update</text>
<text text-anchor="middle" x="820" y="-320" font-family="Helvetica,sans-Serif" font-size="10.00">Variables</text>
</a>
</g>
</g>
<!-- Node25&#45;&gt;Node26 -->
<g id="edge28" class="edge"><title>Node25&#45;&gt;Node26</title>
<path fill="none" stroke="midnightblue" d="M701.56,-332.769C710.156,-332.42 718.952,-332.063 727.673,-331.709"/>
<polygon fill="midnightblue" stroke="midnightblue" points="728.01,-335.198 737.86,-331.295 727.726,-328.204 728.01,-335.198"/>
</g>
<!-- Node27 -->
<g id="node27" class="node"><title>Node27</title>
<g id="a_node27"><a xlink:href="../../d0/d8f/classtitle_panes_1_1_variable_title_pane.html#a395dd58ae72e6111fce8e99be3c03842" target="_top" xlink:title="titlePanes.VariableTitle\lPane.updateVariables">
<polygon fill="white" stroke="black" points="970,-312 970,-342 1094,-342 1094,-312 970,-312"/>
<text text-anchor="start" x="978" y="-330" font-family="Helvetica,sans-Serif" font-size="10.00">titlePanes.VariableTitle</text>
<text text-anchor="middle" x="1032" y="-319" font-family="Helvetica,sans-Serif" font-size="10.00">Pane.updateVariables</text>
</a>
</g>
</g>
<!-- Node26&#45;&gt;Node27 -->
<g id="edge29" class="edge"><title>Node26&#45;&gt;Node27</title>
<path fill="none" stroke="midnightblue" d="M902.191,-327.613C921.181,-327.523 941.268,-327.427 959.785,-327.339"/>
<polygon fill="midnightblue" stroke="midnightblue" points="959.911,-330.839 969.895,-327.291 959.878,-323.839 959.911,-330.839"/>
</g>
<!-- Node28 -->
<g id="node28" class="node"><title>Node28</title>
<g id="a_node28"><a xlink:href="../../d0/d8f/classtitle_panes_1_1_variable_title_pane.html#a007ec1abdc73761490261f283e07338e" target="_top" xlink:title="titlePanes.VariableTitle\lPane.writeVariables">
<polygon fill="white" stroke="black" points="1199,-312 1199,-342 1323,-342 1323,-312 1199,-312"/>
<text text-anchor="start" x="1207" y="-330" font-family="Helvetica,sans-Serif" font-size="10.00">titlePanes.VariableTitle</text>
<text text-anchor="middle" x="1261" y="-319" font-family="Helvetica,sans-Serif" font-size="10.00">Pane.writeVariables</text>
</a>
</g>
</g>
<!-- Node27&#45;&gt;Node28 -->
<g id="edge30" class="edge"><title>Node27&#45;&gt;Node28</title>
<path fill="none" stroke="midnightblue" d="M1094.13,-327C1123.27,-327 1158.31,-327 1188.66,-327"/>
<polygon fill="midnightblue" stroke="midnightblue" points="1188.76,-330.5 1198.76,-327 1188.76,-323.5 1188.76,-330.5"/>
</g>
</g>
</svg>
        <g id="navigator" transform="translate(0 0)" fill="#404254">
                <rect fill="#f2f5e9" fill-opacity="0.5" stroke="#606060" stroke-width=".5" x="0" y="0" width="60" height="60"/>
                <use id="zoomplus" xlink:href="#zoomPlus" x="17" y="9" onmousedown="handleZoom(evt,'in')"/>
                <use id="zoomminus" xlink:href="#zoomMin" x="42" y="9" onmousedown="handleZoom(evt,'out')"/>
                <use id="reset" xlink:href="#resetDef" x="30" y="36" onmousedown="handleReset()"/>
                <g id="arrowUp" xlink:href="#dirArrow" transform="translate(30 24)" onmousedown="handlePan(0,-1)">
                  <use xlink:href="#rim" fill="#404040">
                        <set attributeName="fill" to="#808080" begin="arrowUp.mouseover" end="arrowUp.mouseout"/>
                  </use>
                  <path fill="none" stroke="white" stroke-width="1.5" d="M0,-3.0v7 M-2.5,-0.5L0,-3.0L2.5,-0.5"/>
                </g>
                <g id="arrowRight" xlink:href="#dirArrow" transform="rotate(90) translate(36 -43)" onmousedown="handlePan(1,0)">
                  <use xlink:href="#rim" fill="#404040">
                        <set attributeName="fill" to="#808080" begin="arrowRight.mouseover" end="arrowRight.mouseout"/>
                  </use>
                  <path fill="none" stroke="white" stroke-width="1.5" d="M0,-3.0v7 M-2.5,-0.5L0,-3.0L2.5,-0.5"/>
                </g>
                <g id="arrowDown" xlink:href="#dirArrow" transform="rotate(180) translate(-30 -48)" onmousedown="handlePan(0,1)">
                  <use xlink:href="#rim" fill="#404040">
                        <set attributeName="fill" to="#808080" begin="arrowDown.mouseover" end="arrowDown.mouseout"/>
                  </use>
                  <path fill="none" stroke="white" stroke-width="1.5" d="M0,-3.0v7 M-2.5,-0.5L0,-3.0L2.5,-0.5"/>
                </g>
                <g id="arrowLeft" xlink:href="#dirArrow" transform="rotate(270) translate(-36 17)" onmousedown="handlePan(-1,0)">
                  <use xlink:href="#rim" fill="#404040">
                        <set attributeName="fill" to="#808080" begin="arrowLeft.mouseover" end="arrowLeft.mouseout"/>
                  </use>
                  <path fill="none" stroke="white" stroke-width="1.5" d="M0,-3.0v7 M-2.5,-0.5L0,-3.0L2.5,-0.5"/>
                </g>
        </g>
        <svg viewBox="0 0 15 15" width="100%" height="30px" preserveAspectRatio="xMaxYMin meet">
         <g id="arrow_out" transform="scale(0.3 0.3)">
          <a xlink:href="classpanels_1_1_script_panel_ac959f1785cff7409d857d3bea9b8ee63_cgraph_org.svg" target="_base">
           <rect id="button" ry="5" rx="5" y="6" x="6" height="38" width="38"
                fill="#f2f5e9" fill-opacity="0.5" stroke="#606060" stroke-width="1.0"/>
           <path id="arrow"
             d="M 11.500037,31.436501 C 11.940474,20.09759 22.043105,11.32322 32.158766,21.979434 L 37.068811,17.246167 C 37.068811,17.246167 37.088388,32 37.088388,32 L 22.160133,31.978069 C 22.160133,31.978069 26.997745,27.140456 26.997745,27.140456 C 18.528582,18.264221 13.291696,25.230495 11.500037,31.436501 z"
             style="fill:#404040;"/>
          </a>
         </g>
        </svg>
</svg>
