<?xml version="1.0" encoding="UTF-8" standalone="no"?>
<!DOCTYPE svg PUBLIC "-//W3C//DTD SVG 1.1//EN"
 "http://www.w3.org/Graphics/SVG/1.1/DTD/svg11.dtd">
<!-- Generated by graphviz version 2.36.0 (20140111.2315)
 -->
<!-- Title: panels.ScriptPanel.printException Pages: 1 -->
<svg width="1506pt" height="216pt"
 viewBox="0.00 0.00 1506.00 216.00" xmlns="http://www.w3.org/2000/svg" xmlns:xlink="http://www.w3.org/1999/xlink">
<g id="graph0" class="graph" transform="scale(1 1) rotate(0) translate(4 212)">
<title>panels.ScriptPanel.printException</title>
<polygon fill="white" stroke="none" points="-4,4 -4,-212 1502,-212 1502,4 -4,4"/>
<!-- Node1 -->
<g id="node1" class="node"><title>Node1</title>
<polygon fill="#bfbfbf" stroke="black" points="0.5,-107 0.5,-137 129.5,-137 129.5,-107 0.5,-107"/>
<text text-anchor="start" x="8.5" y="-125" font-family="Helvetica,sans-Serif" font-size="10.00">panels.ScriptPanel.print</text>
<text text-anchor="middle" x="65" y="-114" font-family="Helvetica,sans-Serif" font-size="10.00">Exception</text>
</g>
<!-- Node2 -->
<g id="node2" class="node"><title>Node2</title>
<g id="a_node2"><a xlink:href="../../d8/d1f/classfront_end_1_1_view.html#a22669dd74ac845d66d5b59ddeba13b5e" target="_top" xlink:title="frontEnd.View.printException">
<polygon fill="white" stroke="black" points="166,-112.5 166,-131.5 318,-131.5 318,-112.5 166,-112.5"/>
<text text-anchor="middle" x="242" y="-119.5" font-family="Helvetica,sans-Serif" font-size="10.00">frontEnd.View.printException</text>
</a>
</g>
</g>
<!-- Node1&#45;&gt;Node2 -->
<g id="edge1" class="edge"><title>Node1&#45;&gt;Node2</title>
<path fill="none" stroke="midnightblue" d="M139.695,-122C148.321,-122 157.13,-122 165.777,-122"/>
<polygon fill="midnightblue" stroke="midnightblue" points="139.674,-118.5 129.674,-122 139.674,-125.5 139.674,-118.5"/>
</g>
<!-- Node3 -->
<g id="node3" class="node"><title>Node3</title>
<g id="a_node3"><a xlink:href="../../d8/d1f/classfront_end_1_1_view.html#a946cc1534c68b0490bdc3f8992a8fd44" target="_top" xlink:title="frontEnd.View.buildCanvas">
<polygon fill="white" stroke="black" points="364,-150.5 364,-169.5 506,-169.5 506,-150.5 364,-150.5"/>
<text text-anchor="middle" x="435" y="-157.5" font-family="Helvetica,sans-Serif" font-size="10.00">frontEnd.View.buildCanvas</text>
</a>
</g>
</g>
<!-- Node2&#45;&gt;Node3 -->
<g id="edge2" class="edge"><title>Node2&#45;&gt;Node3</title>
<path fill="none" stroke="midnightblue" d="M301.353,-133.61C328.518,-139.014 360.432,-145.364 386.149,-150.48"/>
<polygon fill="midnightblue" stroke="midnightblue" points="301.688,-130.108 291.197,-131.589 300.322,-136.973 301.688,-130.108"/>
</g>
<!-- Node7 -->
<g id="node7" class="node"><title>Node7</title>
<g id="a_node7"><a xlink:href="../../d8/d1f/classfront_end_1_1_view.html#ae8e12c48ecfa63eae481f2940df42ea3" target="_top" xlink:title="frontEnd.View.buildSidePanel">
<polygon fill="white" stroke="black" points="358.5,-188.5 358.5,-207.5 511.5,-207.5 511.5,-188.5 358.5,-188.5"/>
<text text-anchor="middle" x="435" y="-195.5" font-family="Helvetica,sans-Serif" font-size="10.00">frontEnd.View.buildSidePanel</text>
</a>
</g>
</g>
<!-- Node2&#45;&gt;Node7 -->
<g id="edge6" class="edge"><title>Node2&#45;&gt;Node7</title>
<path fill="none" stroke="midnightblue" d="M267.294,-136.649C289.277,-149.37 322.883,-167.507 354,-179 364.043,-182.709 375.068,-185.876 385.638,-188.5"/>
<polygon fill="midnightblue" stroke="midnightblue" points="269.021,-133.604 258.625,-131.563 265.479,-139.642 269.021,-133.604"/>
</g>
<!-- Node8 -->
<g id="node8" class="node"><title>Node8</title>
<g id="a_node8"><a xlink:href="../../d9/d49/classback_end_1_1_controller.html#ad650f48d236eaf11c2d8591b04831900" target="_top" xlink:title="backEnd.Controller.runScript">
<polygon fill="white" stroke="black" points="552,-49.5 552,-68.5 704,-68.5 704,-49.5 552,-49.5"/>
<text text-anchor="middle" x="628" y="-56.5" font-family="Helvetica,sans-Serif" font-size="10.00">backEnd.Controller.runScript</text>
</a>
</g>
</g>
<!-- Node2&#45;&gt;Node8 -->
<g id="edge8" class="edge"><title>Node2&#45;&gt;Node8</title>
<path fill="none" stroke="midnightblue" d="M264.964,-106.901C286.534,-93.025 320.926,-73.3814 354,-65 419.371,-48.4343 496.385,-48.426 551.919,-51.6892"/>
<polygon fill="midnightblue" stroke="midnightblue" points="262.973,-104.021 256.546,-112.444 266.823,-109.867 262.973,-104.021"/>
</g>
<!-- Node17 -->
<g id="node17" class="node"><title>Node17</title>
<g id="a_node17"><a xlink:href="../../d8/d1f/classfront_end_1_1_view.html#a8cc3a5b95c95cfcdedbcc27755d62803" target="_top" xlink:title="frontEnd.View.update">
<polygon fill="white" stroke="black" points="376,-74.5 376,-93.5 494,-93.5 494,-74.5 376,-74.5"/>
<text text-anchor="middle" x="435" y="-81.5" font-family="Helvetica,sans-Serif" font-size="10.00">frontEnd.View.update</text>
</a>
</g>
</g>
<!-- Node2&#45;&gt;Node17 -->
<g id="edge20" class="edge"><title>Node2&#45;&gt;Node17</title>
<path fill="none" stroke="midnightblue" d="M301.353,-110.39C328.518,-104.986 360.432,-98.6365 386.149,-93.5201"/>
<polygon fill="midnightblue" stroke="midnightblue" points="300.322,-107.027 291.197,-112.411 301.688,-113.892 300.322,-107.027"/>
</g>
<!-- Node18 -->
<g id="node18" class="node"><title>Node18</title>
<g id="a_node18"><a xlink:href="../../d8/d1f/classfront_end_1_1_view.html#a59fa2dbe984da3217324979184d00559" target="_top" xlink:title="frontEnd.View.updateVariables">
<polygon fill="white" stroke="black" points="354.5,-112.5 354.5,-131.5 515.5,-131.5 515.5,-112.5 354.5,-112.5"/>
<text text-anchor="middle" x="435" y="-119.5" font-family="Helvetica,sans-Serif" font-size="10.00">frontEnd.View.updateVariables</text>
</a>
</g>
</g>
<!-- Node2&#45;&gt;Node18 -->
<g id="edge21" class="edge"><title>Node2&#45;&gt;Node18</title>
<path fill="none" stroke="midnightblue" d="M328.342,-122C337.03,-122 345.83,-122 354.452,-122"/>
<polygon fill="midnightblue" stroke="midnightblue" points="328.214,-118.5 318.214,-122 328.214,-125.5 328.214,-118.5"/>
</g>
<!-- Node4 -->
<g id="node4" class="node"><title>Node4</title>
<g id="a_node4"><a xlink:href="../../d8/d1f/classfront_end_1_1_view.html#a6c10dd858e539c5be4a2e21ff48d4a95" target="_top" xlink:title="frontEnd.View.setupGui">
<polygon fill="white" stroke="black" points="564.5,-175.5 564.5,-194.5 691.5,-194.5 691.5,-175.5 564.5,-175.5"/>
<text text-anchor="middle" x="628" y="-182.5" font-family="Helvetica,sans-Serif" font-size="10.00">frontEnd.View.setupGui</text>
</a>
</g>
</g>
<!-- Node3&#45;&gt;Node4 -->
<g id="edge3" class="edge"><title>Node3&#45;&gt;Node4</title>
<path fill="none" stroke="midnightblue" d="M515.976,-170.468C532.091,-172.577 548.813,-174.766 564.238,-176.785"/>
<polygon fill="midnightblue" stroke="midnightblue" points="516.406,-166.995 506.037,-169.167 515.498,-173.935 516.406,-166.995"/>
</g>
<!-- Node5 -->
<g id="node5" class="node"><title>Node5</title>
<g id="a_node5"><a xlink:href="../../d8/d1f/classfront_end_1_1_view.html#a80f4d9369f1e36cebb6ab3fb9d19b8f6" target="_top" xlink:title="frontEnd.View.addController\lAndSetupGui">
<polygon fill="white" stroke="black" points="740.5,-170 740.5,-200 889.5,-200 889.5,-170 740.5,-170"/>
<text text-anchor="start" x="748.5" y="-188" font-family="Helvetica,sans-Serif" font-size="10.00">frontEnd.View.addController</text>
<text text-anchor="middle" x="815" y="-177" font-family="Helvetica,sans-Serif" font-size="10.00">AndSetupGui</text>
</a>
</g>
</g>
<!-- Node4&#45;&gt;Node5 -->
<g id="edge4" class="edge"><title>Node4&#45;&gt;Node5</title>
<path fill="none" stroke="midnightblue" d="M701.667,-185C714.342,-185 727.539,-185 740.243,-185"/>
<polygon fill="midnightblue" stroke="midnightblue" points="701.633,-181.5 691.633,-185 701.633,-188.5 701.633,-181.5"/>
</g>
<!-- Node6 -->
<g id="node6" class="node"><title>Node6</title>
<g id="a_node6"><a xlink:href="../../d9/d49/classback_end_1_1_controller.html#a987136eaba0798749f393bac2a9a2400" target="_top" xlink:title="backEnd.Controller.Controller">
<polygon fill="white" stroke="black" points="1151.5,-158.5 1151.5,-177.5 1306.5,-177.5 1306.5,-158.5 1151.5,-158.5"/>
<text text-anchor="middle" x="1229" y="-165.5" font-family="Helvetica,sans-Serif" font-size="10.00">backEnd.Controller.Controller</text>
</a>
</g>
</g>
<!-- Node5&#45;&gt;Node6 -->
<g id="edge5" class="edge"><title>Node5&#45;&gt;Node6</title>
<path fill="none" stroke="midnightblue" d="M899.839,-181.541C973.582,-178.498 1080.02,-174.106 1151.49,-171.157"/>
<polygon fill="midnightblue" stroke="midnightblue" points="899.505,-178.051 889.657,-181.961 899.793,-185.045 899.505,-178.051"/>
</g>
<!-- Node7&#45;&gt;Node4 -->
<g id="edge7" class="edge"><title>Node7&#45;&gt;Node4</title>
<path fill="none" stroke="midnightblue" d="M522.04,-192.144C536.249,-191.177 550.739,-190.191 564.237,-189.272"/>
<polygon fill="midnightblue" stroke="midnightblue" points="521.502,-188.672 511.763,-192.843 521.977,-195.656 521.502,-188.672"/>
</g>
<!-- Node9 -->
<g id="node9" class="node"><title>Node9</title>
<g id="a_node9"><a xlink:href="../../de/d03/classpanels_1_1_script_panel.html#ae6ae56472ef1a975597bad69844662c6" target="_top" xlink:title="panels.ScriptPanel.handler">
<polygon fill="white" stroke="black" points="743.5,-8.5 743.5,-27.5 886.5,-27.5 886.5,-8.5 743.5,-8.5"/>
<text text-anchor="middle" x="815" y="-15.5" font-family="Helvetica,sans-Serif" font-size="10.00">panels.ScriptPanel.handler</text>
</a>
</g>
</g>
<!-- Node8&#45;&gt;Node9 -->
<g id="edge9" class="edge"><title>Node8&#45;&gt;Node9</title>
<path fill="none" stroke="midnightblue" d="M682.003,-47.2533C710.216,-41.0007 744.465,-33.4105 771.005,-27.5286"/>
<polygon fill="midnightblue" stroke="midnightblue" points="680.914,-43.9098 671.908,-49.4907 682.428,-50.744 680.914,-43.9098"/>
</g>
<!-- Node11 -->
<g id="node11" class="node"><title>Node11</title>
<g id="a_node11"><a xlink:href="../../da/d04/classtitle_panes_1_1_control_title_pane.html#af28eba60fefe51c70e763d51d9123ea3" target="_top" xlink:title="titlePanes.ControlTitlePane.make\lLocationFields">
<polygon fill="white" stroke="black" points="1142.5,-44 1142.5,-74 1315.5,-74 1315.5,-44 1142.5,-44"/>
<text text-anchor="start" x="1150.5" y="-62" font-family="Helvetica,sans-Serif" font-size="10.00">titlePanes.ControlTitlePane.make</text>
<text text-anchor="middle" x="1229" y="-51" font-family="Helvetica,sans-Serif" font-size="10.00">LocationFields</text>
</a>
</g>
</g>
<!-- Node8&#45;&gt;Node11 -->
<g id="edge11" class="edge"><title>Node8&#45;&gt;Node11</title>
<path fill="none" stroke="midnightblue" d="M714.321,-59C828.133,-59 1028.48,-59 1142.42,-59"/>
<polygon fill="midnightblue" stroke="midnightblue" points="714.257,-55.5001 704.257,-59 714.257,-62.5001 714.257,-55.5001"/>
</g>
<!-- Node13 -->
<g id="node13" class="node"><title>Node13</title>
<g id="a_node13"><a xlink:href="../../d9/d49/classback_end_1_1_controller.html#a3b0bbf0a084bb4fb63d118f66e7327b1" target="_top" xlink:title="backEnd.Controller.move10">
<polygon fill="white" stroke="black" points="741,-87.5 741,-106.5 889,-106.5 889,-87.5 741,-87.5"/>
<text text-anchor="middle" x="815" y="-94.5" font-family="Helvetica,sans-Serif" font-size="10.00">backEnd.Controller.move10</text>
</a>
</g>
</g>
<!-- Node8&#45;&gt;Node13 -->
<g id="edge13" class="edge"><title>Node8&#45;&gt;Node13</title>
<path fill="none" stroke="midnightblue" d="M685.52,-70.6095C711.831,-76.014 742.743,-82.3635 767.652,-87.4799"/>
<polygon fill="midnightblue" stroke="midnightblue" points="686.183,-67.1727 675.683,-68.589 684.775,-74.0296 686.183,-67.1727"/>
</g>
<!-- Node10 -->
<g id="node10" class="node"><title>Node10</title>
<g id="a_node10"><a xlink:href="../../de/d03/classpanels_1_1_script_panel.html#ac959f1785cff7409d857d3bea9b8ee63" target="_top" xlink:title="panels.ScriptPanel.Script\lPanel">
<polygon fill="white" stroke="black" points="948.5,-0 948.5,-30 1083.5,-30 1083.5,-0 948.5,-0"/>
<text text-anchor="start" x="956.5" y="-18" font-family="Helvetica,sans-Serif" font-size="10.00">panels.ScriptPanel.Script</text>
<text text-anchor="middle" x="1016" y="-7" font-family="Helvetica,sans-Serif" font-size="10.00">Panel</text>
</a>
</g>
</g>
<!-- Node9&#45;&gt;Node10 -->
<g id="edge10" class="edge"><title>Node9&#45;&gt;Node10</title>
<path fill="none" stroke="midnightblue" d="M897.163,-16.7764C914.118,-16.5208 931.808,-16.2542 948.171,-16.0075"/>
<polygon fill="midnightblue" stroke="midnightblue" points="896.666,-13.2834 886.72,-16.9339 896.772,-20.2826 896.666,-13.2834"/>
</g>
<!-- Node12 -->
<g id="node12" class="node"><title>Node12</title>
<g id="a_node12"><a xlink:href="../../da/d04/classtitle_panes_1_1_control_title_pane.html#ad9d4431a2657a30fedae46e0c9093867" target="_top" xlink:title="titlePanes.ControlTitlePane.\lControlTitlePane">
<polygon fill="white" stroke="black" points="1352,-68 1352,-98 1498,-98 1498,-68 1352,-68"/>
<text text-anchor="start" x="1360" y="-86" font-family="Helvetica,sans-Serif" font-size="10.00">titlePanes.ControlTitlePane.</text>
<text text-anchor="middle" x="1425" y="-75" font-family="Helvetica,sans-Serif" font-size="10.00">ControlTitlePane</text>
</a>
</g>
</g>
<!-- Node11&#45;&gt;Node12 -->
<g id="edge12" class="edge"><title>Node11&#45;&gt;Node12</title>
<path fill="none" stroke="midnightblue" d="M1325.6,-70.8271C1334.43,-71.9193 1343.28,-73.0135 1351.84,-74.0734"/>
<polygon fill="midnightblue" stroke="midnightblue" points="1326.01,-67.3509 1315.66,-69.5966 1325.15,-74.298 1326.01,-67.3509"/>
</g>
<!-- Node14 -->
<g id="node14" class="node"><title>Node14</title>
<g id="a_node14"><a xlink:href="../../d9/d49/classback_end_1_1_controller.html#a7893477f39915a5169eb8da0dff60628" target="_top" xlink:title="backEnd.Controller.build\lKeyListener">
<polygon fill="white" stroke="black" points="950.5,-126 950.5,-156 1081.5,-156 1081.5,-126 950.5,-126"/>
<text text-anchor="start" x="958.5" y="-144" font-family="Helvetica,sans-Serif" font-size="10.00">backEnd.Controller.build</text>
<text text-anchor="middle" x="1016" y="-133" font-family="Helvetica,sans-Serif" font-size="10.00">KeyListener</text>
</a>
</g>
</g>
<!-- Node13&#45;&gt;Node14 -->
<g id="edge14" class="edge"><title>Node13&#45;&gt;Node14</title>
<path fill="none" stroke="midnightblue" d="M869.186,-108.76C894.139,-114.277 924.094,-120.9 950.345,-126.704"/>
<polygon fill="midnightblue" stroke="midnightblue" points="869.7,-105.289 859.18,-106.547 868.189,-112.124 869.7,-105.289"/>
</g>
<!-- Node15 -->
<g id="node15" class="node"><title>Node15</title>
<g id="a_node15"><a xlink:href="../../da/d04/classtitle_panes_1_1_control_title_pane.html#ae994c7b4dd988b30fc824e9e893b3ccf" target="_top" xlink:title="titlePanes.ControlTitlePane.handle">
<polygon fill="white" stroke="black" points="926.5,-87.5 926.5,-106.5 1105.5,-106.5 1105.5,-87.5 926.5,-87.5"/>
<text text-anchor="middle" x="1016" y="-94.5" font-family="Helvetica,sans-Serif" font-size="10.00">titlePanes.ControlTitlePane.handle</text>
</a>
</g>
</g>
<!-- Node13&#45;&gt;Node15 -->
<g id="edge16" class="edge"><title>Node13&#45;&gt;Node15</title>
<path fill="none" stroke="midnightblue" d="M899.27,-97C908.225,-97 917.36,-97 926.375,-97"/>
<polygon fill="midnightblue" stroke="midnightblue" points="899.253,-93.5001 889.252,-97 899.252,-100.5 899.253,-93.5001"/>
</g>
<!-- Node14&#45;&gt;Node6 -->
<g id="edge15" class="edge"><title>Node14&#45;&gt;Node6</title>
<path fill="none" stroke="midnightblue" d="M1091.73,-150.563C1111.75,-153.125 1133.39,-155.894 1153.4,-158.454"/>
<polygon fill="midnightblue" stroke="midnightblue" points="1092.1,-147.082 1081.74,-149.284 1091.22,-154.025 1092.1,-147.082"/>
</g>
<!-- Node15&#45;&gt;Node11 -->
<g id="edge19" class="edge"><title>Node15&#45;&gt;Node11</title>
<path fill="none" stroke="midnightblue" d="M1080.02,-85.6512C1100.29,-81.9993 1123.08,-77.8947 1144.59,-74.0211"/>
<polygon fill="midnightblue" stroke="midnightblue" points="1079.19,-82.2429 1069.97,-87.46 1080.43,-89.1321 1079.19,-82.2429"/>
</g>
<!-- Node16 -->
<g id="node16" class="node"><title>Node16</title>
<g id="a_node16"><a xlink:href="../../da/d04/classtitle_panes_1_1_control_title_pane.html#a974c75cbdf64007af637c8b19a26b215" target="_top" xlink:title="titlePanes.ControlTitlePane.make\lButtons">
<polygon fill="white" stroke="black" points="1142.5,-93 1142.5,-123 1315.5,-123 1315.5,-93 1142.5,-93"/>
<text text-anchor="start" x="1150.5" y="-111" font-family="Helvetica,sans-Serif" font-size="10.00">titlePanes.ControlTitlePane.make</text>
<text text-anchor="middle" x="1229" y="-100" font-family="Helvetica,sans-Serif" font-size="10.00">Buttons</text>
</a>
</g>
</g>
<!-- Node15&#45;&gt;Node16 -->
<g id="edge17" class="edge"><title>Node15&#45;&gt;Node16</title>
<path fill="none" stroke="midnightblue" d="M1115.61,-102.141C1124.55,-102.607 1133.55,-103.076 1142.36,-103.535"/>
<polygon fill="midnightblue" stroke="midnightblue" points="1115.73,-98.6426 1105.57,-101.617 1115.37,-105.633 1115.73,-98.6426"/>
</g>
<!-- Node16&#45;&gt;Node12 -->
<g id="edge18" class="edge"><title>Node16&#45;&gt;Node12</title>
<path fill="none" stroke="midnightblue" d="M1325.6,-95.6801C1334.43,-94.5423 1343.28,-93.4026 1351.84,-92.2985"/>
<polygon fill="midnightblue" stroke="midnightblue" points="1325.13,-92.2124 1315.66,-96.9619 1326.02,-99.155 1325.13,-92.2124"/>
</g>
<!-- Node18&#45;&gt;Node8 -->
<g id="edge22" class="edge"><title>Node18&#45;&gt;Node8</title>
<path fill="none" stroke="midnightblue" d="M490.967,-110.053C499.406,-107.9 507.976,-105.529 516,-103 547.831,-92.9686 583.528,-78.1518 605.638,-68.5364"/>
<polygon fill="midnightblue" stroke="midnightblue" points="490.03,-106.679 481.161,-112.476 491.709,-113.475 490.03,-106.679"/>
</g>
</g>
</svg>
