<?xml version="1.0" encoding="UTF-8" standalone="no"?>
<!DOCTYPE svg PUBLIC "-//W3C//DTD SVG 1.1//EN"
 "http://www.w3.org/Graphics/SVG/1.1/DTD/svg11.dtd">
<!-- Generated by graphviz version 2.36.0 (20140111.2315)
 -->
<!-- Title: titlePanes.CommandTitlePane.CommandTitlePane Pages: 1 -->
<svg width="728pt" height="87pt"
 viewBox="0.00 0.00 728.00 87.00" xmlns="http://www.w3.org/2000/svg" xmlns:xlink="http://www.w3.org/1999/xlink">
<g id="graph0" class="graph" transform="scale(1 1) rotate(0) translate(4 83)">
<title>titlePanes.CommandTitlePane.CommandTitlePane</title>
<polygon fill="white" stroke="none" points="-4,4 -4,-83 724,-83 724,4 -4,4"/>
<!-- Node1 -->
<g id="node1" class="node"><title>Node1</title>
<polygon fill="#bfbfbf" stroke="black" points="0,-24 0,-54 162,-54 162,-24 0,-24"/>
<text text-anchor="start" x="8" y="-42" font-family="Helvetica,sans-Serif" font-size="10.00">titlePanes.CommandTitlePane.</text>
<text text-anchor="middle" x="81" y="-31" font-family="Helvetica,sans-Serif" font-size="10.00">CommandTitlePane</text>
</g>
<!-- Node2 -->
<g id="node2" class="node"><title>Node2</title>
<g id="a_node2"><a xlink:href="../../d9/d49/classback_end_1_1_controller.html#a9bac47210a2b80f3d1ae6338283a09bc" target="_top" xlink:title="backEnd.Controller.addText\lToScript">
<polygon fill="white" stroke="black" points="199,-49 199,-79 345,-79 345,-49 199,-49"/>
<text text-anchor="start" x="207" y="-67" font-family="Helvetica,sans-Serif" font-size="10.00">backEnd.Controller.addText</text>
<text text-anchor="middle" x="272" y="-56" font-family="Helvetica,sans-Serif" font-size="10.00">ToScript</text>
</a>
</g>
</g>
<!-- Node1&#45;&gt;Node2 -->
<g id="edge1" class="edge"><title>Node1&#45;&gt;Node2</title>
<path fill="none" stroke="midnightblue" d="M162.153,-49.6023C170.998,-50.7722 180.015,-51.9649 188.883,-53.138"/>
<polygon fill="midnightblue" stroke="midnightblue" points="188.444,-56.6102 198.816,-54.4519 189.362,-49.6707 188.444,-56.6102"/>
</g>
<!-- Node5 -->
<g id="node5" class="node"><title>Node5</title>
<g id="a_node5"><a xlink:href="../../d8/de9/classmain_1_1_resource_finder.html#abbbd9c7b9078fd263f546d15bba68d22" target="_top" xlink:title="main.ResourceFinder.getMy\lLanguageResources">
<polygon fill="white" stroke="black" points="198.5,-0 198.5,-30 345.5,-30 345.5,-0 198.5,-0"/>
<text text-anchor="start" x="206.5" y="-18" font-family="Helvetica,sans-Serif" font-size="10.00">main.ResourceFinder.getMy</text>
<text text-anchor="middle" x="272" y="-7" font-family="Helvetica,sans-Serif" font-size="10.00">LanguageResources</text>
</a>
</g>
</g>
<!-- Node1&#45;&gt;Node5 -->
<g id="edge4" class="edge"><title>Node1&#45;&gt;Node5</title>
<path fill="none" stroke="midnightblue" d="M162.153,-28.8218C170.758,-27.7291 179.526,-26.6157 188.162,-25.5191"/>
<polygon fill="midnightblue" stroke="midnightblue" points="188.742,-28.9737 198.221,-24.2417 187.86,-22.0294 188.742,-28.9737"/>
</g>
<!-- Node3 -->
<g id="node3" class="node"><title>Node3</title>
<g id="a_node3"><a xlink:href="../../d8/d1f/classfront_end_1_1_view.html#a6eecae39002da8aa43937c2e3ba0ac6f" target="_top" xlink:title="frontEnd.View.addTextToScript">
<polygon fill="white" stroke="black" points="382,-54.5 382,-73.5 540,-73.5 540,-54.5 382,-54.5"/>
<text text-anchor="middle" x="461" y="-61.5" font-family="Helvetica,sans-Serif" font-size="10.00">frontEnd.View.addTextToScript</text>
</a>
</g>
</g>
<!-- Node2&#45;&gt;Node3 -->
<g id="edge2" class="edge"><title>Node2&#45;&gt;Node3</title>
<path fill="none" stroke="midnightblue" d="M345.032,-64C353.778,-64 362.789,-64 371.736,-64"/>
<polygon fill="midnightblue" stroke="midnightblue" points="371.793,-67.5001 381.793,-64 371.793,-60.5001 371.793,-67.5001"/>
</g>
<!-- Node4 -->
<g id="node4" class="node"><title>Node4</title>
<g id="a_node4"><a xlink:href="../../de/d03/classpanels_1_1_script_panel.html#aa60477808a4f6f3dbb93a46a7b194f65" target="_top" xlink:title="panels.ScriptPanel.addText\lToScript">
<polygon fill="white" stroke="black" points="576,-49 576,-79 720,-79 720,-49 576,-49"/>
<text text-anchor="start" x="584" y="-67" font-family="Helvetica,sans-Serif" font-size="10.00">panels.ScriptPanel.addText</text>
<text text-anchor="middle" x="648" y="-56" font-family="Helvetica,sans-Serif" font-size="10.00">ToScript</text>
</a>
</g>
</g>
<!-- Node3&#45;&gt;Node4 -->
<g id="edge3" class="edge"><title>Node3&#45;&gt;Node4</title>
<path fill="none" stroke="midnightblue" d="M540.189,-64C548.602,-64 557.177,-64 565.626,-64"/>
<polygon fill="midnightblue" stroke="midnightblue" points="565.85,-67.5001 575.85,-64 565.85,-60.5001 565.85,-67.5001"/>
</g>
</g>
</svg>
