<?xml version="1.0" encoding="UTF-8" standalone="no"?>
<!DOCTYPE svg PUBLIC "-//W3C//DTD SVG 1.1//EN"
 "http://www.w3.org/Graphics/SVG/1.1/DTD/svg11.dtd">
<!-- Generated by graphviz version 2.36.0 (20140111.2315)
 -->
<!-- Title: frontEnd.View.changeTurtleImage Pages: 1 -->
<svg width="948pt" height="38pt"
 viewBox="0.00 0.00 948.00 38.00" xmlns="http://www.w3.org/2000/svg" xmlns:xlink="http://www.w3.org/1999/xlink">
<g id="graph0" class="graph" transform="scale(1 1) rotate(0) translate(4 34)">
<title>frontEnd.View.changeTurtleImage</title>
<polygon fill="white" stroke="none" points="-4,4 -4,-34 944,-34 944,4 -4,4"/>
<!-- Node1 -->
<g id="node1" class="node"><title>Node1</title>
<polygon fill="#bfbfbf" stroke="black" points="0.5,-0 0.5,-30 145.5,-30 145.5,-0 0.5,-0"/>
<text text-anchor="start" x="8.5" y="-18" font-family="Helvetica,sans-Serif" font-size="10.00">frontEnd.View.changeTurtle</text>
<text text-anchor="middle" x="73" y="-7" font-family="Helvetica,sans-Serif" font-size="10.00">Image</text>
</g>
<!-- Node2 -->
<g id="node2" class="node"><title>Node2</title>
<g id="a_node2"><a xlink:href="../../d9/d49/classback_end_1_1_controller.html#a2d6485b9fa7484fee3a041924554fb2a" target="_top" xlink:title="backEnd.Controller.change\lTurtleImage">
<polygon fill="white" stroke="black" points="182,-0 182,-30 326,-30 326,-0 182,-0"/>
<text text-anchor="start" x="190" y="-18" font-family="Helvetica,sans-Serif" font-size="10.00">backEnd.Controller.change</text>
<text text-anchor="middle" x="254" y="-7" font-family="Helvetica,sans-Serif" font-size="10.00">TurtleImage</text>
</a>
</g>
</g>
<!-- Node1&#45;&gt;Node2 -->
<g id="edge1" class="edge"><title>Node1&#45;&gt;Node2</title>
<path fill="none" stroke="midnightblue" d="M155.71,-15C164.448,-15 173.287,-15 181.888,-15"/>
<polygon fill="midnightblue" stroke="midnightblue" points="155.517,-11.5001 145.517,-15 155.517,-18.5001 155.517,-11.5001"/>
</g>
<!-- Node3 -->
<g id="node3" class="node"><title>Node3</title>
<g id="a_node3"><a xlink:href="../../dd/d67/classtitle_panes_1_1_display_title_pane.html#aceb12213a01d9cb060a64441ea46ed0f" target="_top" xlink:title="titlePanes.DisplayTitlePane.openFile">
<polygon fill="white" stroke="black" points="362.5,-5.5 362.5,-24.5 547.5,-24.5 547.5,-5.5 362.5,-5.5"/>
<text text-anchor="middle" x="455" y="-12.5" font-family="Helvetica,sans-Serif" font-size="10.00">titlePanes.DisplayTitlePane.openFile</text>
</a>
</g>
</g>
<!-- Node2&#45;&gt;Node3 -->
<g id="edge2" class="edge"><title>Node2&#45;&gt;Node3</title>
<path fill="none" stroke="midnightblue" d="M336.01,-15C344.626,-15 353.433,-15 362.161,-15"/>
<polygon fill="midnightblue" stroke="midnightblue" points="336.001,-11.5001 326.001,-15 336.001,-18.5001 336.001,-11.5001"/>
</g>
<!-- Node4 -->
<g id="node4" class="node"><title>Node4</title>
<g id="a_node4"><a xlink:href="../../dd/d67/classtitle_panes_1_1_display_title_pane.html#a331ac295d6888c6c41f9ff49b1cea23d" target="_top" xlink:title="titlePanes.DisplayTitlePane.make\lTurtleImageChooser">
<polygon fill="white" stroke="black" points="584.5,-0 584.5,-30 757.5,-30 757.5,-0 584.5,-0"/>
<text text-anchor="start" x="592.5" y="-18" font-family="Helvetica,sans-Serif" font-size="10.00">titlePanes.DisplayTitlePane.make</text>
<text text-anchor="middle" x="671" y="-7" font-family="Helvetica,sans-Serif" font-size="10.00">TurtleImageChooser</text>
</a>
</g>
</g>
<!-- Node3&#45;&gt;Node4 -->
<g id="edge3" class="edge"><title>Node3&#45;&gt;Node4</title>
<path fill="none" stroke="midnightblue" d="M557.691,-15C566.582,-15 575.522,-15 584.265,-15"/>
<polygon fill="midnightblue" stroke="midnightblue" points="557.687,-11.5001 547.687,-15 557.687,-18.5001 557.687,-11.5001"/>
</g>
<!-- Node5 -->
<g id="node5" class="node"><title>Node5</title>
<g id="a_node5"><a xlink:href="../../dd/d67/classtitle_panes_1_1_display_title_pane.html#ad07a1fec588c0ef5745d90ee1039143c" target="_top" xlink:title="titlePanes.DisplayTitlePane.\lDisplayTitlePane">
<polygon fill="white" stroke="black" points="794,-0 794,-30 940,-30 940,-0 794,-0"/>
<text text-anchor="start" x="802" y="-18" font-family="Helvetica,sans-Serif" font-size="10.00">titlePanes.DisplayTitlePane.</text>
<text text-anchor="middle" x="867" y="-7" font-family="Helvetica,sans-Serif" font-size="10.00">DisplayTitlePane</text>
</a>
</g>
</g>
<!-- Node4&#45;&gt;Node5 -->
<g id="edge4" class="edge"><title>Node4&#45;&gt;Node5</title>
<path fill="none" stroke="midnightblue" d="M767.887,-15C776.622,-15 785.368,-15 793.843,-15"/>
<polygon fill="midnightblue" stroke="midnightblue" points="767.656,-11.5001 757.656,-15 767.656,-18.5001 767.656,-11.5001"/>
</g>
</g>
</svg>
