<?xml version="1.0" encoding="UTF-8" standalone="no"?>
<!DOCTYPE svg PUBLIC "-//W3C//DTD SVG 1.1//EN"
 "http://www.w3.org/Graphics/SVG/1.1/DTD/svg11.dtd">
<!-- Generated by graphviz version 2.36.0 (20140111.2315)
 -->
<!-- Title: frontEnd.View.buildCanvas Pages: 1 -->
<svg width="692pt" height="38pt"
 viewBox="0.00 0.00 692.00 38.00" xmlns="http://www.w3.org/2000/svg" xmlns:xlink="http://www.w3.org/1999/xlink">
<g id="graph0" class="graph" transform="scale(1 1) rotate(0) translate(4 34)">
<title>frontEnd.View.buildCanvas</title>
<polygon fill="white" stroke="none" points="-4,4 -4,-34 688,-34 688,4 -4,4"/>
<!-- Node1 -->
<g id="node1" class="node"><title>Node1</title>
<polygon fill="#bfbfbf" stroke="black" points="0,-5.5 0,-24.5 142,-24.5 142,-5.5 0,-5.5"/>
<text text-anchor="middle" x="71" y="-12.5" font-family="Helvetica,sans-Serif" font-size="10.00">frontEnd.View.buildCanvas</text>
</g>
<!-- Node2 -->
<g id="node2" class="node"><title>Node2</title>
<g id="a_node2"><a xlink:href="../../d8/d1f/classfront_end_1_1_view.html#a6c10dd858e539c5be4a2e21ff48d4a95" target="_top" xlink:title="frontEnd.View.setupGui">
<polygon fill="white" stroke="black" points="178.5,-5.5 178.5,-24.5 305.5,-24.5 305.5,-5.5 178.5,-5.5"/>
<text text-anchor="middle" x="242" y="-12.5" font-family="Helvetica,sans-Serif" font-size="10.00">frontEnd.View.setupGui</text>
</a>
</g>
</g>
<!-- Node1&#45;&gt;Node2 -->
<g id="edge1" class="edge"><title>Node1&#45;&gt;Node2</title>
<path fill="none" stroke="midnightblue" d="M152.375,-15C161.081,-15 169.847,-15 178.3,-15"/>
<polygon fill="midnightblue" stroke="midnightblue" points="152.203,-11.5001 142.203,-15 152.203,-18.5001 152.203,-11.5001"/>
</g>
<!-- Node3 -->
<g id="node3" class="node"><title>Node3</title>
<g id="a_node3"><a xlink:href="../../d8/d1f/classfront_end_1_1_view.html#a80f4d9369f1e36cebb6ab3fb9d19b8f6" target="_top" xlink:title="frontEnd.View.addController\lAndSetupGui">
<polygon fill="white" stroke="black" points="342.5,-0 342.5,-30 491.5,-30 491.5,-0 342.5,-0"/>
<text text-anchor="start" x="350.5" y="-18" font-family="Helvetica,sans-Serif" font-size="10.00">frontEnd.View.addController</text>
<text text-anchor="middle" x="417" y="-7" font-family="Helvetica,sans-Serif" font-size="10.00">AndSetupGui</text>
</a>
</g>
</g>
<!-- Node2&#45;&gt;Node3 -->
<g id="edge2" class="edge"><title>Node2&#45;&gt;Node3</title>
<path fill="none" stroke="midnightblue" d="M316.02,-15C324.691,-15 333.548,-15 342.231,-15"/>
<polygon fill="midnightblue" stroke="midnightblue" points="315.946,-11.5001 305.946,-15 315.946,-18.5001 315.946,-11.5001"/>
</g>
<!-- Node4 -->
<g id="node4" class="node"><title>Node4</title>
<g id="a_node4"><a xlink:href="../../d9/d49/classback_end_1_1_controller.html#a987136eaba0798749f393bac2a9a2400" target="_top" xlink:title="backEnd.Controller.Controller">
<polygon fill="white" stroke="black" points="528.5,-5.5 528.5,-24.5 683.5,-24.5 683.5,-5.5 528.5,-5.5"/>
<text text-anchor="middle" x="606" y="-12.5" font-family="Helvetica,sans-Serif" font-size="10.00">backEnd.Controller.Controller</text>
</a>
</g>
</g>
<!-- Node3&#45;&gt;Node4 -->
<g id="edge3" class="edge"><title>Node3&#45;&gt;Node4</title>
<path fill="none" stroke="midnightblue" d="M501.906,-15C510.712,-15 519.634,-15 528.353,-15"/>
<polygon fill="midnightblue" stroke="midnightblue" points="501.639,-11.5001 491.639,-15 501.639,-18.5001 501.639,-11.5001"/>
</g>
</g>
</svg>
