<?xml version="1.0" encoding="UTF-8" standalone="no"?>
<!DOCTYPE svg PUBLIC "-//W3C//DTD SVG 1.1//EN"
 "http://www.w3.org/Graphics/SVG/1.1/DTD/svg11.dtd">
<!-- Generated by graphviz version 2.36.0 (20140111.2315)
 -->
<!-- Title: frontEnd.View.addControllerAndSetupGui Pages: 1 -->
<svg width="866pt" height="115pt"
 viewBox="0.00 0.00 866.00 115.00" xmlns="http://www.w3.org/2000/svg" xmlns:xlink="http://www.w3.org/1999/xlink">
<g id="graph0" class="graph" transform="scale(1 1) rotate(0) translate(4 111)">
<title>frontEnd.View.addControllerAndSetupGui</title>
<polygon fill="white" stroke="none" points="-4,4 -4,-111 862,-111 862,4 -4,4"/>
<!-- Node1 -->
<g id="node1" class="node"><title>Node1</title>
<polygon fill="#bfbfbf" stroke="black" points="0.5,-44 0.5,-74 149.5,-74 149.5,-44 0.5,-44"/>
<text text-anchor="start" x="8.5" y="-62" font-family="Helvetica,sans-Serif" font-size="10.00">frontEnd.View.addController</text>
<text text-anchor="middle" x="75" y="-51" font-family="Helvetica,sans-Serif" font-size="10.00">AndSetupGui</text>
</g>
<!-- Node2 -->
<g id="node2" class="node"><title>Node2</title>
<g id="a_node2"><a xlink:href="../../d8/d1f/classfront_end_1_1_view.html#a6c10dd858e539c5be4a2e21ff48d4a95" target="_top" xlink:title="frontEnd.View.setupGui">
<polygon fill="white" stroke="black" points="186.5,-49.5 186.5,-68.5 313.5,-68.5 313.5,-49.5 186.5,-49.5"/>
<text text-anchor="middle" x="250" y="-56.5" font-family="Helvetica,sans-Serif" font-size="10.00">frontEnd.View.setupGui</text>
</a>
</g>
</g>
<!-- Node1&#45;&gt;Node2 -->
<g id="edge1" class="edge"><title>Node1&#45;&gt;Node2</title>
<path fill="none" stroke="midnightblue" d="M149.618,-59C158.41,-59 167.383,-59 176.163,-59"/>
<polygon fill="midnightblue" stroke="midnightblue" points="176.359,-62.5001 186.359,-59 176.359,-55.5001 176.359,-62.5001"/>
</g>
<!-- Node3 -->
<g id="node3" class="node"><title>Node3</title>
<g id="a_node3"><a xlink:href="../../d8/d1f/classfront_end_1_1_view.html#a946cc1534c68b0490bdc3f8992a8fd44" target="_top" xlink:title="frontEnd.View.buildCanvas">
<polygon fill="white" stroke="black" points="356,-87.5 356,-106.5 498,-106.5 498,-87.5 356,-87.5"/>
<text text-anchor="middle" x="427" y="-94.5" font-family="Helvetica,sans-Serif" font-size="10.00">frontEnd.View.buildCanvas</text>
</a>
</g>
</g>
<!-- Node2&#45;&gt;Node3 -->
<g id="edge2" class="edge"><title>Node2&#45;&gt;Node3</title>
<path fill="none" stroke="midnightblue" d="M295.16,-68.589C318.565,-73.6713 347.505,-79.9554 372.212,-85.3203"/>
<polygon fill="midnightblue" stroke="midnightblue" points="371.643,-88.7782 382.158,-87.4799 373.128,-81.9376 371.643,-88.7782"/>
</g>
<!-- Node6 -->
<g id="node6" class="node"><title>Node6</title>
<g id="a_node6"><a xlink:href="../../d8/d1f/classfront_end_1_1_view.html#ae8e12c48ecfa63eae481f2940df42ea3" target="_top" xlink:title="frontEnd.View.buildSidePanel">
<polygon fill="white" stroke="black" points="350.5,-49.5 350.5,-68.5 503.5,-68.5 503.5,-49.5 350.5,-49.5"/>
<text text-anchor="middle" x="427" y="-56.5" font-family="Helvetica,sans-Serif" font-size="10.00">frontEnd.View.buildSidePanel</text>
</a>
</g>
</g>
<!-- Node2&#45;&gt;Node6 -->
<g id="edge5" class="edge"><title>Node2&#45;&gt;Node6</title>
<path fill="none" stroke="midnightblue" d="M313.685,-59C322.307,-59 331.28,-59 340.228,-59"/>
<polygon fill="midnightblue" stroke="midnightblue" points="340.301,-62.5001 350.301,-59 340.301,-55.5001 340.301,-62.5001"/>
</g>
<!-- Node7 -->
<g id="node7" class="node"><title>Node7</title>
<g id="a_node7"><a xlink:href="../../d8/d1f/classfront_end_1_1_view.html#a43b22358810c0b28a2452990a7ce5fe0" target="_top" xlink:title="frontEnd.View.buildScript\lPanel">
<polygon fill="white" stroke="black" points="360,-0 360,-30 494,-30 494,-0 360,-0"/>
<text text-anchor="start" x="368" y="-18" font-family="Helvetica,sans-Serif" font-size="10.00">frontEnd.View.buildScript</text>
<text text-anchor="middle" x="427" y="-7" font-family="Helvetica,sans-Serif" font-size="10.00">Panel</text>
</a>
</g>
</g>
<!-- Node2&#45;&gt;Node7 -->
<g id="edge7" class="edge"><title>Node2&#45;&gt;Node7</title>
<path fill="none" stroke="midnightblue" d="M288.972,-49.4527C308.675,-44.4988 333.374,-38.2888 356.356,-32.5105"/>
<polygon fill="midnightblue" stroke="midnightblue" points="357.236,-35.8982 366.081,-30.0654 355.529,-29.1095 357.236,-35.8982"/>
</g>
<!-- Node4 -->
<g id="node4" class="node"><title>Node4</title>
<g id="a_node4"><a xlink:href="../../d8/d1f/classfront_end_1_1_view.html#a22669dd74ac845d66d5b59ddeba13b5e" target="_top" xlink:title="frontEnd.View.printException">
<polygon fill="white" stroke="black" points="540,-68.5 540,-87.5 692,-87.5 692,-68.5 540,-68.5"/>
<text text-anchor="middle" x="616" y="-75.5" font-family="Helvetica,sans-Serif" font-size="10.00">frontEnd.View.printException</text>
</a>
</g>
</g>
<!-- Node3&#45;&gt;Node4 -->
<g id="edge3" class="edge"><title>Node3&#45;&gt;Node4</title>
<path fill="none" stroke="midnightblue" d="M498.164,-89.871C508.452,-88.8257 519.143,-87.7394 529.694,-86.6674"/>
<polygon fill="midnightblue" stroke="midnightblue" points="530.154,-90.1388 539.749,-85.6458 529.447,-83.1746 530.154,-90.1388"/>
</g>
<!-- Node5 -->
<g id="node5" class="node"><title>Node5</title>
<g id="a_node5"><a xlink:href="../../de/d03/classpanels_1_1_script_panel.html#acf94d4284961d6d9eabc8af4db9abe87" target="_top" xlink:title="panels.ScriptPanel.print\lException">
<polygon fill="white" stroke="black" points="728.5,-63 728.5,-93 857.5,-93 857.5,-63 728.5,-63"/>
<text text-anchor="start" x="736.5" y="-81" font-family="Helvetica,sans-Serif" font-size="10.00">panels.ScriptPanel.print</text>
<text text-anchor="middle" x="793" y="-70" font-family="Helvetica,sans-Serif" font-size="10.00">Exception</text>
</a>
</g>
</g>
<!-- Node4&#45;&gt;Node5 -->
<g id="edge4" class="edge"><title>Node4&#45;&gt;Node5</title>
<path fill="none" stroke="midnightblue" d="M692.231,-78C700.887,-78 709.707,-78 718.341,-78"/>
<polygon fill="midnightblue" stroke="midnightblue" points="718.372,-81.5001 728.372,-78 718.372,-74.5001 718.372,-81.5001"/>
</g>
<!-- Node6&#45;&gt;Node4 -->
<g id="edge6" class="edge"><title>Node6&#45;&gt;Node4</title>
<path fill="none" stroke="midnightblue" d="M503.521,-66.6733C512.118,-67.5468 520.926,-68.4417 529.639,-69.3269"/>
<polygon fill="midnightblue" stroke="midnightblue" points="529.502,-72.831 539.805,-70.3599 530.21,-65.8669 529.502,-72.831"/>
</g>
</g>
</svg>
