<?xml version="1.0" encoding="UTF-8" standalone="no"?>
<!DOCTYPE svg PUBLIC "-//W3C//DTD SVG 1.1//EN"
 "http://www.w3.org/Graphics/SVG/1.1/DTD/svg11.dtd">
<!-- Generated by graphviz version 2.36.0 (20140111.2315)
 -->
<!-- Title: frontEnd.View.changePenColor Pages: 1 -->
<svg width="548pt" height="38pt"
 viewBox="0.00 0.00 548.00 38.00" xmlns="http://www.w3.org/2000/svg" xmlns:xlink="http://www.w3.org/1999/xlink">
<g id="graph0" class="graph" transform="scale(1 1) rotate(0) translate(4 34)">
<title>frontEnd.View.changePenColor</title>
<polygon fill="white" stroke="none" points="-4,4 -4,-34 544,-34 544,4 -4,4"/>
<!-- Node1 -->
<g id="node1" class="node"><title>Node1</title>
<polygon fill="#bfbfbf" stroke="black" points="0,-5.5 0,-24.5 162,-24.5 162,-5.5 0,-5.5"/>
<text text-anchor="middle" x="81" y="-12.5" font-family="Helvetica,sans-Serif" font-size="10.00">frontEnd.View.changePenColor</text>
</g>
<!-- Node2 -->
<g id="node2" class="node"><title>Node2</title>
<g id="a_node2"><a xlink:href="../../d5/df1/classfront_end_1_1_turtle_canvas.html#a86f38e34d4034991241fdb889a7c4570" target="_top" xlink:title="frontEnd.TurtleCanvas.change\lPenColor">
<polygon fill="white" stroke="black" points="198.5,-0 198.5,-30 357.5,-30 357.5,-0 198.5,-0"/>
<text text-anchor="start" x="206.5" y="-18" font-family="Helvetica,sans-Serif" font-size="10.00">frontEnd.TurtleCanvas.change</text>
<text text-anchor="middle" x="278" y="-7" font-family="Helvetica,sans-Serif" font-size="10.00">PenColor</text>
</a>
</g>
</g>
<!-- Node1&#45;&gt;Node2 -->
<g id="edge1" class="edge"><title>Node1&#45;&gt;Node2</title>
<path fill="none" stroke="midnightblue" d="M162.158,-15C170.765,-15 179.559,-15 188.259,-15"/>
<polygon fill="midnightblue" stroke="midnightblue" points="188.412,-18.5001 198.412,-15 188.412,-11.5001 188.412,-18.5001"/>
</g>
<!-- Node3 -->
<g id="node3" class="node"><title>Node3</title>
<g id="a_node3"><a xlink:href="../../dc/dcd/classfront_end_1_1_turtle_view.html#ae388cacab199b191dbb44419e9574e86" target="_top" xlink:title="frontEnd.TurtleView.change\lPenColor">
<polygon fill="white" stroke="black" points="394.5,-0 394.5,-30 539.5,-30 539.5,-0 394.5,-0"/>
<text text-anchor="start" x="402.5" y="-18" font-family="Helvetica,sans-Serif" font-size="10.00">frontEnd.TurtleView.change</text>
<text text-anchor="middle" x="467" y="-7" font-family="Helvetica,sans-Serif" font-size="10.00">PenColor</text>
</a>
</g>
</g>
<!-- Node2&#45;&gt;Node3 -->
<g id="edge2" class="edge"><title>Node2&#45;&gt;Node3</title>
<path fill="none" stroke="midnightblue" d="M357.763,-15C366.515,-15 375.445,-15 384.234,-15"/>
<polygon fill="midnightblue" stroke="midnightblue" points="384.467,-18.5001 394.467,-15 384.467,-11.5001 384.467,-18.5001"/>
</g>
</g>
</svg>
