<?xml version="1.0" encoding="UTF-8" standalone="no"?>
<!DOCTYPE svg PUBLIC "-//W3C//DTD SVG 1.1//EN"
 "http://www.w3.org/Graphics/SVG/1.1/DTD/svg11.dtd">
<!-- Generated by graphviz version 2.36.0 (20140111.2315)
 -->
<!-- Title: frontEnd.View.changePenColor Pages: 1 -->
<svg width="742pt" height="38pt"
 viewBox="0.00 0.00 742.00 38.00" xmlns="http://www.w3.org/2000/svg" xmlns:xlink="http://www.w3.org/1999/xlink">
<g id="graph0" class="graph" transform="scale(1 1) rotate(0) translate(4 34)">
<title>frontEnd.View.changePenColor</title>
<polygon fill="white" stroke="none" points="-4,4 -4,-34 738,-34 738,4 -4,4"/>
<!-- Node1 -->
<g id="node1" class="node"><title>Node1</title>
<polygon fill="#bfbfbf" stroke="black" points="0,-5.5 0,-24.5 162,-24.5 162,-5.5 0,-5.5"/>
<text text-anchor="middle" x="81" y="-12.5" font-family="Helvetica,sans-Serif" font-size="10.00">frontEnd.View.changePenColor</text>
</g>
<!-- Node2 -->
<g id="node2" class="node"><title>Node2</title>
<g id="a_node2"><a xlink:href="../../d9/d49/classback_end_1_1_controller.html#a06c74a6c4bb360e826758f33e0dd1eb6" target="_top" xlink:title="backEnd.Controller.change\lPenColor">
<polygon fill="white" stroke="black" points="198,-0 198,-30 342,-30 342,-0 198,-0"/>
<text text-anchor="start" x="206" y="-18" font-family="Helvetica,sans-Serif" font-size="10.00">backEnd.Controller.change</text>
<text text-anchor="middle" x="270" y="-7" font-family="Helvetica,sans-Serif" font-size="10.00">PenColor</text>
</a>
</g>
</g>
<!-- Node1&#45;&gt;Node2 -->
<g id="edge1" class="edge"><title>Node1&#45;&gt;Node2</title>
<path fill="none" stroke="midnightblue" d="M172.208,-15C180.832,-15 189.494,-15 197.899,-15"/>
<polygon fill="midnightblue" stroke="midnightblue" points="172.119,-11.5001 162.119,-15 172.119,-18.5001 172.119,-11.5001"/>
</g>
<!-- Node3 -->
<g id="node3" class="node"><title>Node3</title>
<g id="a_node3"><a xlink:href="../../da/d04/classtitle_panes_1_1_control_title_pane.html#a34e6959ea802f029e594f26b77b9e736" target="_top" xlink:title="titlePanes.ControlTitlePane.make\lPenColorBox">
<polygon fill="white" stroke="black" points="378.5,-0 378.5,-30 551.5,-30 551.5,-0 378.5,-0"/>
<text text-anchor="start" x="386.5" y="-18" font-family="Helvetica,sans-Serif" font-size="10.00">titlePanes.ControlTitlePane.make</text>
<text text-anchor="middle" x="465" y="-7" font-family="Helvetica,sans-Serif" font-size="10.00">PenColorBox</text>
</a>
</g>
</g>
<!-- Node2&#45;&gt;Node3 -->
<g id="edge2" class="edge"><title>Node2&#45;&gt;Node3</title>
<path fill="none" stroke="midnightblue" d="M352.132,-15C360.808,-15 369.653,-15 378.378,-15"/>
<polygon fill="midnightblue" stroke="midnightblue" points="352.044,-11.5001 342.044,-15 352.044,-18.5001 352.044,-11.5001"/>
</g>
<!-- Node4 -->
<g id="node4" class="node"><title>Node4</title>
<g id="a_node4"><a xlink:href="../../da/d04/classtitle_panes_1_1_control_title_pane.html#ad9d4431a2657a30fedae46e0c9093867" target="_top" xlink:title="titlePanes.ControlTitlePane.\lControlTitlePane">
<polygon fill="white" stroke="black" points="588,-0 588,-30 734,-30 734,-0 588,-0"/>
<text text-anchor="start" x="596" y="-18" font-family="Helvetica,sans-Serif" font-size="10.00">titlePanes.ControlTitlePane.</text>
<text text-anchor="middle" x="661" y="-7" font-family="Helvetica,sans-Serif" font-size="10.00">ControlTitlePane</text>
</a>
</g>
</g>
<!-- Node3&#45;&gt;Node4 -->
<g id="edge3" class="edge"><title>Node3&#45;&gt;Node4</title>
<path fill="none" stroke="midnightblue" d="M561.887,-15C570.622,-15 579.368,-15 587.843,-15"/>
<polygon fill="midnightblue" stroke="midnightblue" points="561.656,-11.5001 551.656,-15 561.656,-18.5001 561.656,-11.5001"/>
</g>
</g>
</svg>
