<?xml version="1.0" encoding="UTF-8" standalone="no"?>
<!DOCTYPE svg PUBLIC "-//W3C//DTD SVG 1.1//EN"
 "http://www.w3.org/Graphics/SVG/1.1/DTD/svg11.dtd">
<!-- Generated by graphviz version 2.36.0 (20140111.2315)
 -->
<!-- Title: frontEnd.View.getBackgroundColor Pages: 1 -->
<svg width="342pt" height="38pt"
 viewBox="0.00 0.00 342.00 38.00" xmlns="http://www.w3.org/2000/svg" xmlns:xlink="http://www.w3.org/1999/xlink">
<g id="graph0" class="graph" transform="scale(1 1) rotate(0) translate(4 34)">
<title>frontEnd.View.getBackgroundColor</title>
<polygon fill="white" stroke="none" points="-4,4 -4,-34 338,-34 338,4 -4,4"/>
<!-- Node1 -->
<g id="node1" class="node"><title>Node1</title>
<polygon fill="#bfbfbf" stroke="black" points="0.5,-0 0.5,-30 157.5,-30 157.5,-0 0.5,-0"/>
<text text-anchor="start" x="8.5" y="-18" font-family="Helvetica,sans-Serif" font-size="10.00">frontEnd.View.getBackground</text>
<text text-anchor="middle" x="79" y="-7" font-family="Helvetica,sans-Serif" font-size="10.00">Color</text>
</g>
<!-- Node2 -->
<g id="node2" class="node"><title>Node2</title>
<g id="a_node2"><a xlink:href="../../d5/df1/classfront_end_1_1_turtle_canvas.html#a83c9d8f63e6b94f271fdd7f039c7895f" target="_top" xlink:title="frontEnd.TurtleCanvas.get\lBackgroundColor">
<polygon fill="white" stroke="black" points="194,-0 194,-30 334,-30 334,-0 194,-0"/>
<text text-anchor="start" x="202" y="-18" font-family="Helvetica,sans-Serif" font-size="10.00">frontEnd.TurtleCanvas.get</text>
<text text-anchor="middle" x="264" y="-7" font-family="Helvetica,sans-Serif" font-size="10.00">BackgroundColor</text>
</a>
</g>
</g>
<!-- Node1&#45;&gt;Node2 -->
<g id="edge1" class="edge"><title>Node1&#45;&gt;Node2</title>
<path fill="none" stroke="midnightblue" d="M157.608,-15C166.291,-15 175.144,-15 183.845,-15"/>
<polygon fill="midnightblue" stroke="midnightblue" points="183.97,-18.5001 193.97,-15 183.97,-11.5001 183.97,-18.5001"/>
</g>
</g>
</svg>
