<?xml version="1.0" encoding="UTF-8" standalone="no"?>
<!DOCTYPE svg PUBLIC "-//W3C//DTD SVG 1.1//EN"
 "http://www.w3.org/Graphics/SVG/1.1/DTD/svg11.dtd">
<!-- Generated by graphviz version 2.36.0 (20140111.2315)
 -->
<!-- Title: frontEnd.View.printException Pages: 1 -->
<svg width="1340pt" height="216pt"
 viewBox="0.00 0.00 1340.00 216.00" xmlns="http://www.w3.org/2000/svg" xmlns:xlink="http://www.w3.org/1999/xlink">
<g id="graph0" class="graph" transform="scale(1 1) rotate(0) translate(4 212)">
<title>frontEnd.View.printException</title>
<polygon fill="white" stroke="none" points="-4,4 -4,-212 1336,-212 1336,4 -4,4"/>
<!-- Node1 -->
<g id="node1" class="node"><title>Node1</title>
<polygon fill="#bfbfbf" stroke="black" points="0,-112.5 0,-131.5 152,-131.5 152,-112.5 0,-112.5"/>
<text text-anchor="middle" x="76" y="-119.5" font-family="Helvetica,sans-Serif" font-size="10.00">frontEnd.View.printException</text>
</g>
<!-- Node2 -->
<g id="node2" class="node"><title>Node2</title>
<g id="a_node2"><a xlink:href="../../d8/d1f/classfront_end_1_1_view.html#a946cc1534c68b0490bdc3f8992a8fd44" target="_top" xlink:title="frontEnd.View.buildCanvas">
<polygon fill="white" stroke="black" points="198,-150.5 198,-169.5 340,-169.5 340,-150.5 198,-150.5"/>
<text text-anchor="middle" x="269" y="-157.5" font-family="Helvetica,sans-Serif" font-size="10.00">frontEnd.View.buildCanvas</text>
</a>
</g>
</g>
<!-- Node1&#45;&gt;Node2 -->
<g id="edge1" class="edge"><title>Node1&#45;&gt;Node2</title>
<path fill="none" stroke="midnightblue" d="M135.353,-133.61C162.518,-139.014 194.432,-145.364 220.149,-150.48"/>
<polygon fill="midnightblue" stroke="midnightblue" points="135.688,-130.108 125.197,-131.589 134.322,-136.973 135.688,-130.108"/>
</g>
<!-- Node6 -->
<g id="node6" class="node"><title>Node6</title>
<g id="a_node6"><a xlink:href="../../d8/d1f/classfront_end_1_1_view.html#ae8e12c48ecfa63eae481f2940df42ea3" target="_top" xlink:title="frontEnd.View.buildSidePanel">
<polygon fill="white" stroke="black" points="192.5,-188.5 192.5,-207.5 345.5,-207.5 345.5,-188.5 192.5,-188.5"/>
<text text-anchor="middle" x="269" y="-195.5" font-family="Helvetica,sans-Serif" font-size="10.00">frontEnd.View.buildSidePanel</text>
</a>
</g>
</g>
<!-- Node1&#45;&gt;Node6 -->
<g id="edge5" class="edge"><title>Node1&#45;&gt;Node6</title>
<path fill="none" stroke="midnightblue" d="M101.294,-136.649C123.277,-149.37 156.883,-167.507 188,-179 198.043,-182.709 209.068,-185.876 219.638,-188.5"/>
<polygon fill="midnightblue" stroke="midnightblue" points="103.021,-133.604 92.6246,-131.563 99.4792,-139.642 103.021,-133.604"/>
</g>
<!-- Node7 -->
<g id="node7" class="node"><title>Node7</title>
<g id="a_node7"><a xlink:href="../../d9/d49/classback_end_1_1_controller.html#ad650f48d236eaf11c2d8591b04831900" target="_top" xlink:title="backEnd.Controller.runScript">
<polygon fill="white" stroke="black" points="386,-49.5 386,-68.5 538,-68.5 538,-49.5 386,-49.5"/>
<text text-anchor="middle" x="462" y="-56.5" font-family="Helvetica,sans-Serif" font-size="10.00">backEnd.Controller.runScript</text>
</a>
</g>
</g>
<!-- Node1&#45;&gt;Node7 -->
<g id="edge7" class="edge"><title>Node1&#45;&gt;Node7</title>
<path fill="none" stroke="midnightblue" d="M98.9639,-106.901C120.534,-93.025 154.926,-73.3814 188,-65 253.371,-48.4343 330.385,-48.426 385.919,-51.6892"/>
<polygon fill="midnightblue" stroke="midnightblue" points="96.9725,-104.021 90.5461,-112.444 100.823,-109.867 96.9725,-104.021"/>
</g>
<!-- Node16 -->
<g id="node16" class="node"><title>Node16</title>
<g id="a_node16"><a xlink:href="../../d8/d1f/classfront_end_1_1_view.html#a8cc3a5b95c95cfcdedbcc27755d62803" target="_top" xlink:title="frontEnd.View.update">
<polygon fill="white" stroke="black" points="210,-74.5 210,-93.5 328,-93.5 328,-74.5 210,-74.5"/>
<text text-anchor="middle" x="269" y="-81.5" font-family="Helvetica,sans-Serif" font-size="10.00">frontEnd.View.update</text>
</a>
</g>
</g>
<!-- Node1&#45;&gt;Node16 -->
<g id="edge19" class="edge"><title>Node1&#45;&gt;Node16</title>
<path fill="none" stroke="midnightblue" d="M135.353,-110.39C162.518,-104.986 194.432,-98.6365 220.149,-93.5201"/>
<polygon fill="midnightblue" stroke="midnightblue" points="134.322,-107.027 125.197,-112.411 135.688,-113.892 134.322,-107.027"/>
</g>
<!-- Node17 -->
<g id="node17" class="node"><title>Node17</title>
<g id="a_node17"><a xlink:href="../../d8/d1f/classfront_end_1_1_view.html#a59fa2dbe984da3217324979184d00559" target="_top" xlink:title="frontEnd.View.updateVariables">
<polygon fill="white" stroke="black" points="188.5,-112.5 188.5,-131.5 349.5,-131.5 349.5,-112.5 188.5,-112.5"/>
<text text-anchor="middle" x="269" y="-119.5" font-family="Helvetica,sans-Serif" font-size="10.00">frontEnd.View.updateVariables</text>
</a>
</g>
</g>
<!-- Node1&#45;&gt;Node17 -->
<g id="edge20" class="edge"><title>Node1&#45;&gt;Node17</title>
<path fill="none" stroke="midnightblue" d="M162.342,-122C171.03,-122 179.83,-122 188.452,-122"/>
<polygon fill="midnightblue" stroke="midnightblue" points="162.214,-118.5 152.214,-122 162.214,-125.5 162.214,-118.5"/>
</g>
<!-- Node3 -->
<g id="node3" class="node"><title>Node3</title>
<g id="a_node3"><a xlink:href="../../d8/d1f/classfront_end_1_1_view.html#a6c10dd858e539c5be4a2e21ff48d4a95" target="_top" xlink:title="frontEnd.View.setupGui">
<polygon fill="white" stroke="black" points="398.5,-175.5 398.5,-194.5 525.5,-194.5 525.5,-175.5 398.5,-175.5"/>
<text text-anchor="middle" x="462" y="-182.5" font-family="Helvetica,sans-Serif" font-size="10.00">frontEnd.View.setupGui</text>
</a>
</g>
</g>
<!-- Node2&#45;&gt;Node3 -->
<g id="edge2" class="edge"><title>Node2&#45;&gt;Node3</title>
<path fill="none" stroke="midnightblue" d="M349.976,-170.468C366.091,-172.577 382.813,-174.766 398.238,-176.785"/>
<polygon fill="midnightblue" stroke="midnightblue" points="350.406,-166.995 340.037,-169.167 349.498,-173.935 350.406,-166.995"/>
</g>
<!-- Node4 -->
<g id="node4" class="node"><title>Node4</title>
<g id="a_node4"><a xlink:href="../../d8/d1f/classfront_end_1_1_view.html#a80f4d9369f1e36cebb6ab3fb9d19b8f6" target="_top" xlink:title="frontEnd.View.addController\lAndSetupGui">
<polygon fill="white" stroke="black" points="574.5,-170 574.5,-200 723.5,-200 723.5,-170 574.5,-170"/>
<text text-anchor="start" x="582.5" y="-188" font-family="Helvetica,sans-Serif" font-size="10.00">frontEnd.View.addController</text>
<text text-anchor="middle" x="649" y="-177" font-family="Helvetica,sans-Serif" font-size="10.00">AndSetupGui</text>
</a>
</g>
</g>
<!-- Node3&#45;&gt;Node4 -->
<g id="edge3" class="edge"><title>Node3&#45;&gt;Node4</title>
<path fill="none" stroke="midnightblue" d="M535.667,-185C548.342,-185 561.539,-185 574.243,-185"/>
<polygon fill="midnightblue" stroke="midnightblue" points="535.633,-181.5 525.633,-185 535.633,-188.5 535.633,-181.5"/>
</g>
<!-- Node5 -->
<g id="node5" class="node"><title>Node5</title>
<g id="a_node5"><a xlink:href="../../d9/d49/classback_end_1_1_controller.html#a987136eaba0798749f393bac2a9a2400" target="_top" xlink:title="backEnd.Controller.Controller">
<polygon fill="white" stroke="black" points="985.5,-158.5 985.5,-177.5 1140.5,-177.5 1140.5,-158.5 985.5,-158.5"/>
<text text-anchor="middle" x="1063" y="-165.5" font-family="Helvetica,sans-Serif" font-size="10.00">backEnd.Controller.Controller</text>
</a>
</g>
</g>
<!-- Node4&#45;&gt;Node5 -->
<g id="edge4" class="edge"><title>Node4&#45;&gt;Node5</title>
<path fill="none" stroke="midnightblue" d="M733.839,-181.541C807.582,-178.498 914.024,-174.106 985.49,-171.157"/>
<polygon fill="midnightblue" stroke="midnightblue" points="733.505,-178.051 723.657,-181.961 733.793,-185.045 733.505,-178.051"/>
</g>
<!-- Node6&#45;&gt;Node3 -->
<g id="edge6" class="edge"><title>Node6&#45;&gt;Node3</title>
<path fill="none" stroke="midnightblue" d="M356.04,-192.144C370.249,-191.177 384.739,-190.191 398.237,-189.272"/>
<polygon fill="midnightblue" stroke="midnightblue" points="355.502,-188.672 345.763,-192.843 355.977,-195.656 355.502,-188.672"/>
</g>
<!-- Node8 -->
<g id="node8" class="node"><title>Node8</title>
<g id="a_node8"><a xlink:href="../../de/d03/classpanels_1_1_script_panel.html#ae6ae56472ef1a975597bad69844662c6" target="_top" xlink:title="panels.ScriptPanel.handler">
<polygon fill="white" stroke="black" points="577.5,-8.5 577.5,-27.5 720.5,-27.5 720.5,-8.5 577.5,-8.5"/>
<text text-anchor="middle" x="649" y="-15.5" font-family="Helvetica,sans-Serif" font-size="10.00">panels.ScriptPanel.handler</text>
</a>
</g>
</g>
<!-- Node7&#45;&gt;Node8 -->
<g id="edge8" class="edge"><title>Node7&#45;&gt;Node8</title>
<path fill="none" stroke="midnightblue" d="M516.003,-47.2533C544.216,-41.0007 578.465,-33.4105 605.005,-27.5286"/>
<polygon fill="midnightblue" stroke="midnightblue" points="514.914,-43.9098 505.908,-49.4907 516.428,-50.744 514.914,-43.9098"/>
</g>
<!-- Node10 -->
<g id="node10" class="node"><title>Node10</title>
<g id="a_node10"><a xlink:href="../../da/d04/classtitle_panes_1_1_control_title_pane.html#af28eba60fefe51c70e763d51d9123ea3" target="_top" xlink:title="titlePanes.ControlTitlePane.make\lLocationFields">
<polygon fill="white" stroke="black" points="976.5,-44 976.5,-74 1149.5,-74 1149.5,-44 976.5,-44"/>
<text text-anchor="start" x="984.5" y="-62" font-family="Helvetica,sans-Serif" font-size="10.00">titlePanes.ControlTitlePane.make</text>
<text text-anchor="middle" x="1063" y="-51" font-family="Helvetica,sans-Serif" font-size="10.00">LocationFields</text>
</a>
</g>
</g>
<!-- Node7&#45;&gt;Node10 -->
<g id="edge10" class="edge"><title>Node7&#45;&gt;Node10</title>
<path fill="none" stroke="midnightblue" d="M548.321,-59C662.133,-59 862.482,-59 976.424,-59"/>
<polygon fill="midnightblue" stroke="midnightblue" points="548.257,-55.5001 538.257,-59 548.257,-62.5001 548.257,-55.5001"/>
</g>
<!-- Node12 -->
<g id="node12" class="node"><title>Node12</title>
<g id="a_node12"><a xlink:href="../../d9/d49/classback_end_1_1_controller.html#a3b0bbf0a084bb4fb63d118f66e7327b1" target="_top" xlink:title="backEnd.Controller.move10">
<polygon fill="white" stroke="black" points="575,-87.5 575,-106.5 723,-106.5 723,-87.5 575,-87.5"/>
<text text-anchor="middle" x="649" y="-94.5" font-family="Helvetica,sans-Serif" font-size="10.00">backEnd.Controller.move10</text>
</a>
</g>
</g>
<!-- Node7&#45;&gt;Node12 -->
<g id="edge12" class="edge"><title>Node7&#45;&gt;Node12</title>
<path fill="none" stroke="midnightblue" d="M519.52,-70.6095C545.831,-76.014 576.743,-82.3635 601.652,-87.4799"/>
<polygon fill="midnightblue" stroke="midnightblue" points="520.183,-67.1727 509.683,-68.589 518.775,-74.0296 520.183,-67.1727"/>
</g>
<!-- Node9 -->
<g id="node9" class="node"><title>Node9</title>
<g id="a_node9"><a xlink:href="../../de/d03/classpanels_1_1_script_panel.html#ac959f1785cff7409d857d3bea9b8ee63" target="_top" xlink:title="panels.ScriptPanel.Script\lPanel">
<polygon fill="white" stroke="black" points="782.5,-0 782.5,-30 917.5,-30 917.5,-0 782.5,-0"/>
<text text-anchor="start" x="790.5" y="-18" font-family="Helvetica,sans-Serif" font-size="10.00">panels.ScriptPanel.Script</text>
<text text-anchor="middle" x="850" y="-7" font-family="Helvetica,sans-Serif" font-size="10.00">Panel</text>
</a>
</g>
</g>
<!-- Node8&#45;&gt;Node9 -->
<g id="edge9" class="edge"><title>Node8&#45;&gt;Node9</title>
<path fill="none" stroke="midnightblue" d="M731.163,-16.7764C748.118,-16.5208 765.808,-16.2542 782.171,-16.0075"/>
<polygon fill="midnightblue" stroke="midnightblue" points="730.666,-13.2834 720.72,-16.9339 730.772,-20.2826 730.666,-13.2834"/>
</g>
<!-- Node11 -->
<g id="node11" class="node"><title>Node11</title>
<g id="a_node11"><a xlink:href="../../da/d04/classtitle_panes_1_1_control_title_pane.html#ad9d4431a2657a30fedae46e0c9093867" target="_top" xlink:title="titlePanes.ControlTitlePane.\lControlTitlePane">
<polygon fill="white" stroke="black" points="1186,-68 1186,-98 1332,-98 1332,-68 1186,-68"/>
<text text-anchor="start" x="1194" y="-86" font-family="Helvetica,sans-Serif" font-size="10.00">titlePanes.ControlTitlePane.</text>
<text text-anchor="middle" x="1259" y="-75" font-family="Helvetica,sans-Serif" font-size="10.00">ControlTitlePane</text>
</a>
</g>
</g>
<!-- Node10&#45;&gt;Node11 -->
<g id="edge11" class="edge"><title>Node10&#45;&gt;Node11</title>
<path fill="none" stroke="midnightblue" d="M1159.6,-70.8271C1168.43,-71.9193 1177.28,-73.0135 1185.84,-74.0734"/>
<polygon fill="midnightblue" stroke="midnightblue" points="1160.01,-67.3509 1149.66,-69.5966 1159.15,-74.298 1160.01,-67.3509"/>
</g>
<!-- Node13 -->
<g id="node13" class="node"><title>Node13</title>
<g id="a_node13"><a xlink:href="../../d9/d49/classback_end_1_1_controller.html#a7893477f39915a5169eb8da0dff60628" target="_top" xlink:title="backEnd.Controller.build\lKeyListener">
<polygon fill="white" stroke="black" points="784.5,-126 784.5,-156 915.5,-156 915.5,-126 784.5,-126"/>
<text text-anchor="start" x="792.5" y="-144" font-family="Helvetica,sans-Serif" font-size="10.00">backEnd.Controller.build</text>
<text text-anchor="middle" x="850" y="-133" font-family="Helvetica,sans-Serif" font-size="10.00">KeyListener</text>
</a>
</g>
</g>
<!-- Node12&#45;&gt;Node13 -->
<g id="edge13" class="edge"><title>Node12&#45;&gt;Node13</title>
<path fill="none" stroke="midnightblue" d="M703.186,-108.76C728.139,-114.277 758.094,-120.9 784.345,-126.704"/>
<polygon fill="midnightblue" stroke="midnightblue" points="703.7,-105.289 693.18,-106.547 702.189,-112.124 703.7,-105.289"/>
</g>
<!-- Node14 -->
<g id="node14" class="node"><title>Node14</title>
<g id="a_node14"><a xlink:href="../../da/d04/classtitle_panes_1_1_control_title_pane.html#ae994c7b4dd988b30fc824e9e893b3ccf" target="_top" xlink:title="titlePanes.ControlTitlePane.handle">
<polygon fill="white" stroke="black" points="760.5,-87.5 760.5,-106.5 939.5,-106.5 939.5,-87.5 760.5,-87.5"/>
<text text-anchor="middle" x="850" y="-94.5" font-family="Helvetica,sans-Serif" font-size="10.00">titlePanes.ControlTitlePane.handle</text>
</a>
</g>
</g>
<!-- Node12&#45;&gt;Node14 -->
<g id="edge15" class="edge"><title>Node12&#45;&gt;Node14</title>
<path fill="none" stroke="midnightblue" d="M733.27,-97C742.225,-97 751.36,-97 760.375,-97"/>
<polygon fill="midnightblue" stroke="midnightblue" points="733.253,-93.5001 723.252,-97 733.252,-100.5 733.253,-93.5001"/>
</g>
<!-- Node13&#45;&gt;Node5 -->
<g id="edge14" class="edge"><title>Node13&#45;&gt;Node5</title>
<path fill="none" stroke="midnightblue" d="M925.733,-150.563C945.753,-153.125 967.392,-155.894 987.403,-158.454"/>
<polygon fill="midnightblue" stroke="midnightblue" points="926.104,-147.082 915.741,-149.284 925.216,-154.025 926.104,-147.082"/>
</g>
<!-- Node14&#45;&gt;Node10 -->
<g id="edge18" class="edge"><title>Node14&#45;&gt;Node10</title>
<path fill="none" stroke="midnightblue" d="M914.016,-85.6512C934.294,-81.9993 957.085,-77.8947 978.594,-74.0211"/>
<polygon fill="midnightblue" stroke="midnightblue" points="913.193,-82.2429 903.972,-87.46 914.434,-89.1321 913.193,-82.2429"/>
</g>
<!-- Node15 -->
<g id="node15" class="node"><title>Node15</title>
<g id="a_node15"><a xlink:href="../../da/d04/classtitle_panes_1_1_control_title_pane.html#a974c75cbdf64007af637c8b19a26b215" target="_top" xlink:title="titlePanes.ControlTitlePane.make\lButtons">
<polygon fill="white" stroke="black" points="976.5,-93 976.5,-123 1149.5,-123 1149.5,-93 976.5,-93"/>
<text text-anchor="start" x="984.5" y="-111" font-family="Helvetica,sans-Serif" font-size="10.00">titlePanes.ControlTitlePane.make</text>
<text text-anchor="middle" x="1063" y="-100" font-family="Helvetica,sans-Serif" font-size="10.00">Buttons</text>
</a>
</g>
</g>
<!-- Node14&#45;&gt;Node15 -->
<g id="edge16" class="edge"><title>Node14&#45;&gt;Node15</title>
<path fill="none" stroke="midnightblue" d="M949.613,-102.141C958.549,-102.607 967.551,-103.076 976.361,-103.535"/>
<polygon fill="midnightblue" stroke="midnightblue" points="949.735,-98.6426 939.566,-101.617 949.37,-105.633 949.735,-98.6426"/>
</g>
<!-- Node15&#45;&gt;Node11 -->
<g id="edge17" class="edge"><title>Node15&#45;&gt;Node11</title>
<path fill="none" stroke="midnightblue" d="M1159.6,-95.6801C1168.43,-94.5423 1177.28,-93.4026 1185.84,-92.2985"/>
<polygon fill="midnightblue" stroke="midnightblue" points="1159.13,-92.2124 1149.66,-96.9619 1160.02,-99.155 1159.13,-92.2124"/>
</g>
<!-- Node17&#45;&gt;Node7 -->
<g id="edge21" class="edge"><title>Node17&#45;&gt;Node7</title>
<path fill="none" stroke="midnightblue" d="M324.967,-110.053C333.406,-107.9 341.976,-105.529 350,-103 381.831,-92.9686 417.528,-78.1518 439.638,-68.5364"/>
<polygon fill="midnightblue" stroke="midnightblue" points="324.03,-106.679 315.161,-112.476 325.709,-113.475 324.03,-106.679"/>
</g>
</g>
</svg>
