<?xml version="1.0" encoding="UTF-8" standalone="no"?>
<!DOCTYPE svg PUBLIC "-//W3C//DTD SVG 1.1//EN"
 "http://www.w3.org/Graphics/SVG/1.1/DTD/svg11.dtd">
<!-- Generated by graphviz version 2.36.0 (20140111.2315)
 -->
<!-- Title: frontEnd.View.addToHistory Pages: 1 -->
<svg width="1134pt" height="177pt"
 viewBox="0.00 0.00 1134.00 177.00" xmlns="http://www.w3.org/2000/svg" xmlns:xlink="http://www.w3.org/1999/xlink">
<g id="graph0" class="graph" transform="scale(1 1) rotate(0) translate(4 173)">
<title>frontEnd.View.addToHistory</title>
<polygon fill="white" stroke="none" points="-4,4 -4,-173 1130,-173 1130,4 -4,4"/>
<!-- Node1 -->
<g id="node1" class="node"><title>Node1</title>
<polygon fill="#bfbfbf" stroke="black" points="0,-65.5 0,-84.5 146,-84.5 146,-65.5 0,-65.5"/>
<text text-anchor="middle" x="73" y="-72.5" font-family="Helvetica,sans-Serif" font-size="10.00">frontEnd.View.addToHistory</text>
</g>
<!-- Node2 -->
<g id="node2" class="node"><title>Node2</title>
<g id="a_node2"><a xlink:href="../../d9/d49/classback_end_1_1_controller.html#ad650f48d236eaf11c2d8591b04831900" target="_top" xlink:title="backEnd.Controller.runScript">
<polygon fill="white" stroke="black" points="182,-65.5 182,-84.5 334,-84.5 334,-65.5 182,-65.5"/>
<text text-anchor="middle" x="258" y="-72.5" font-family="Helvetica,sans-Serif" font-size="10.00">backEnd.Controller.runScript</text>
</a>
</g>
</g>
<!-- Node1&#45;&gt;Node2 -->
<g id="edge1" class="edge"><title>Node1&#45;&gt;Node2</title>
<path fill="none" stroke="midnightblue" d="M156.111,-75C164.729,-75 173.46,-75 181.992,-75"/>
<polygon fill="midnightblue" stroke="midnightblue" points="156.064,-71.5001 146.064,-75 156.064,-78.5001 156.064,-71.5001"/>
</g>
<!-- Node3 -->
<g id="node3" class="node"><title>Node3</title>
<g id="a_node3"><a xlink:href="../../de/d03/classpanels_1_1_script_panel.html#ae6ae56472ef1a975597bad69844662c6" target="_top" xlink:title="panels.ScriptPanel.handler">
<polygon fill="white" stroke="black" points="372.5,-130.5 372.5,-149.5 515.5,-149.5 515.5,-130.5 372.5,-130.5"/>
<text text-anchor="middle" x="444" y="-137.5" font-family="Helvetica,sans-Serif" font-size="10.00">panels.ScriptPanel.handler</text>
</a>
</g>
</g>
<!-- Node2&#45;&gt;Node3 -->
<g id="edge2" class="edge"><title>Node2&#45;&gt;Node3</title>
<path fill="none" stroke="midnightblue" d="M295.673,-87.9552C331.198,-100.505 384.232,-119.24 416.039,-130.476"/>
<polygon fill="midnightblue" stroke="midnightblue" points="296.745,-84.6218 286.15,-84.591 294.413,-91.2221 296.745,-84.6218"/>
</g>
<!-- Node5 -->
<g id="node5" class="node"><title>Node5</title>
<g id="a_node5"><a xlink:href="../../da/d04/classtitle_panes_1_1_control_title_pane.html#af28eba60fefe51c70e763d51d9123ea3" target="_top" xlink:title="titlePanes.ControlTitlePane.make\lLocationFields">
<polygon fill="white" stroke="black" points="770.5,-0 770.5,-30 943.5,-30 943.5,-0 770.5,-0"/>
<text text-anchor="start" x="778.5" y="-18" font-family="Helvetica,sans-Serif" font-size="10.00">titlePanes.ControlTitlePane.make</text>
<text text-anchor="middle" x="857" y="-7" font-family="Helvetica,sans-Serif" font-size="10.00">LocationFields</text>
</a>
</g>
</g>
<!-- Node2&#45;&gt;Node5 -->
<g id="edge4" class="edge"><title>Node2&#45;&gt;Node5</title>
<path fill="none" stroke="midnightblue" d="M319.177,-63.7364C335.616,-60.9228 353.457,-58.1097 370,-56 509.641,-38.1916 672.877,-26.222 770.171,-20.018"/>
<polygon fill="midnightblue" stroke="midnightblue" points="318.399,-60.3191 309.147,-65.4821 319.599,-67.2155 318.399,-60.3191"/>
</g>
<!-- Node7 -->
<g id="node7" class="node"><title>Node7</title>
<g id="a_node7"><a xlink:href="../../d9/d49/classback_end_1_1_controller.html#a3b0bbf0a084bb4fb63d118f66e7327b1" target="_top" xlink:title="backEnd.Controller.move10">
<polygon fill="white" stroke="black" points="370,-65.5 370,-84.5 518,-84.5 518,-65.5 370,-65.5"/>
<text text-anchor="middle" x="444" y="-72.5" font-family="Helvetica,sans-Serif" font-size="10.00">backEnd.Controller.move10</text>
</a>
</g>
</g>
<!-- Node2&#45;&gt;Node7 -->
<g id="edge6" class="edge"><title>Node2&#45;&gt;Node7</title>
<path fill="none" stroke="midnightblue" d="M344.156,-75C352.765,-75 361.454,-75 369.92,-75"/>
<polygon fill="midnightblue" stroke="midnightblue" points="344.105,-71.5001 334.105,-75 344.105,-78.5001 344.105,-71.5001"/>
</g>
<!-- Node4 -->
<g id="node4" class="node"><title>Node4</title>
<g id="a_node4"><a xlink:href="../../de/d03/classpanels_1_1_script_panel.html#ac959f1785cff7409d857d3bea9b8ee63" target="_top" xlink:title="panels.ScriptPanel.Script\lPanel">
<polygon fill="white" stroke="black" points="576.5,-139 576.5,-169 711.5,-169 711.5,-139 576.5,-139"/>
<text text-anchor="start" x="584.5" y="-157" font-family="Helvetica,sans-Serif" font-size="10.00">panels.ScriptPanel.Script</text>
<text text-anchor="middle" x="644" y="-146" font-family="Helvetica,sans-Serif" font-size="10.00">Panel</text>
</a>
</g>
</g>
<!-- Node3&#45;&gt;Node4 -->
<g id="edge3" class="edge"><title>Node3&#45;&gt;Node4</title>
<path fill="none" stroke="midnightblue" d="M525.965,-145.725C542.719,-146.909 560.185,-148.144 576.358,-149.288"/>
<polygon fill="midnightblue" stroke="midnightblue" points="525.866,-142.209 515.644,-144.995 525.372,-149.192 525.866,-142.209"/>
</g>
<!-- Node6 -->
<g id="node6" class="node"><title>Node6</title>
<g id="a_node6"><a xlink:href="../../da/d04/classtitle_panes_1_1_control_title_pane.html#ad9d4431a2657a30fedae46e0c9093867" target="_top" xlink:title="titlePanes.ControlTitlePane.\lControlTitlePane">
<polygon fill="white" stroke="black" points="980,-24 980,-54 1126,-54 1126,-24 980,-24"/>
<text text-anchor="start" x="988" y="-42" font-family="Helvetica,sans-Serif" font-size="10.00">titlePanes.ControlTitlePane.</text>
<text text-anchor="middle" x="1053" y="-31" font-family="Helvetica,sans-Serif" font-size="10.00">ControlTitlePane</text>
</a>
</g>
</g>
<!-- Node5&#45;&gt;Node6 -->
<g id="edge5" class="edge"><title>Node5&#45;&gt;Node6</title>
<path fill="none" stroke="midnightblue" d="M953.602,-26.8271C962.431,-27.9193 971.276,-29.0135 979.843,-30.0734"/>
<polygon fill="midnightblue" stroke="midnightblue" points="954.01,-23.3509 943.656,-25.5966 953.151,-30.298 954.01,-23.3509"/>
</g>
<!-- Node8 -->
<g id="node8" class="node"><title>Node8</title>
<g id="a_node8"><a xlink:href="../../d9/d49/classback_end_1_1_controller.html#a7893477f39915a5169eb8da0dff60628" target="_top" xlink:title="backEnd.Controller.build\lKeyListener">
<polygon fill="white" stroke="black" points="578.5,-90 578.5,-120 709.5,-120 709.5,-90 578.5,-90"/>
<text text-anchor="start" x="586.5" y="-108" font-family="Helvetica,sans-Serif" font-size="10.00">backEnd.Controller.build</text>
<text text-anchor="middle" x="644" y="-97" font-family="Helvetica,sans-Serif" font-size="10.00">KeyListener</text>
</a>
</g>
</g>
<!-- Node7&#45;&gt;Node8 -->
<g id="edge7" class="edge"><title>Node7&#45;&gt;Node8</title>
<path fill="none" stroke="midnightblue" d="M518.076,-86.0721C537.787,-89.0587 558.974,-92.2687 578.198,-95.1816"/>
<polygon fill="midnightblue" stroke="midnightblue" points="518.332,-82.571 507.92,-84.5334 517.283,-89.492 518.332,-82.571"/>
</g>
<!-- Node10 -->
<g id="node10" class="node"><title>Node10</title>
<g id="a_node10"><a xlink:href="../../da/d04/classtitle_panes_1_1_control_title_pane.html#ae994c7b4dd988b30fc824e9e893b3ccf" target="_top" xlink:title="titlePanes.ControlTitlePane.handle">
<polygon fill="white" stroke="black" points="554.5,-51.5 554.5,-70.5 733.5,-70.5 733.5,-51.5 554.5,-51.5"/>
<text text-anchor="middle" x="644" y="-58.5" font-family="Helvetica,sans-Serif" font-size="10.00">titlePanes.ControlTitlePane.handle</text>
</a>
</g>
</g>
<!-- Node7&#45;&gt;Node10 -->
<g id="edge9" class="edge"><title>Node7&#45;&gt;Node10</title>
<path fill="none" stroke="midnightblue" d="M528.219,-69.1158C536.862,-68.5047 545.669,-67.882 554.369,-67.2668"/>
<polygon fill="midnightblue" stroke="midnightblue" points="527.894,-65.63 518.165,-69.8267 528.387,-72.6126 527.894,-65.63"/>
</g>
<!-- Node9 -->
<g id="node9" class="node"><title>Node9</title>
<g id="a_node9"><a xlink:href="../../d9/d49/classback_end_1_1_controller.html#a987136eaba0798749f393bac2a9a2400" target="_top" xlink:title="backEnd.Controller.Controller">
<polygon fill="white" stroke="black" points="779.5,-98.5 779.5,-117.5 934.5,-117.5 934.5,-98.5 779.5,-98.5"/>
<text text-anchor="middle" x="857" y="-105.5" font-family="Helvetica,sans-Serif" font-size="10.00">backEnd.Controller.Controller</text>
</a>
</g>
</g>
<!-- Node8&#45;&gt;Node9 -->
<g id="edge8" class="edge"><title>Node8&#45;&gt;Node9</title>
<path fill="none" stroke="midnightblue" d="M719.939,-106.065C739.149,-106.339 759.839,-106.633 779.145,-106.907"/>
<polygon fill="midnightblue" stroke="midnightblue" points="719.79,-102.563 709.741,-105.92 719.69,-109.562 719.79,-102.563"/>
</g>
<!-- Node10&#45;&gt;Node5 -->
<g id="edge12" class="edge"><title>Node10&#45;&gt;Node5</title>
<path fill="none" stroke="midnightblue" d="M698.693,-49.2945C725.53,-43.4436 758.318,-36.2957 787,-30.0427"/>
<polygon fill="midnightblue" stroke="midnightblue" points="697.744,-45.919 688.719,-51.4688 699.235,-52.7583 697.744,-45.919"/>
</g>
<!-- Node11 -->
<g id="node11" class="node"><title>Node11</title>
<g id="a_node11"><a xlink:href="../../da/d04/classtitle_panes_1_1_control_title_pane.html#a974c75cbdf64007af637c8b19a26b215" target="_top" xlink:title="titlePanes.ControlTitlePane.make\lButtons">
<polygon fill="white" stroke="black" points="770.5,-49 770.5,-79 943.5,-79 943.5,-49 770.5,-49"/>
<text text-anchor="start" x="778.5" y="-67" font-family="Helvetica,sans-Serif" font-size="10.00">titlePanes.ControlTitlePane.make</text>
<text text-anchor="middle" x="857" y="-56" font-family="Helvetica,sans-Serif" font-size="10.00">Buttons</text>
</a>
</g>
</g>
<!-- Node10&#45;&gt;Node11 -->
<g id="edge10" class="edge"><title>Node10&#45;&gt;Node11</title>
<path fill="none" stroke="midnightblue" d="M743.613,-62.4021C752.549,-62.5291 761.551,-62.6571 770.361,-62.7824"/>
<polygon fill="midnightblue" stroke="midnightblue" points="743.615,-58.9018 733.566,-62.2592 743.515,-65.9011 743.615,-58.9018"/>
</g>
<!-- Node11&#45;&gt;Node6 -->
<g id="edge11" class="edge"><title>Node11&#45;&gt;Node6</title>
<path fill="none" stroke="midnightblue" d="M953.602,-51.6801C962.431,-50.5423 971.276,-49.4026 979.843,-48.2985"/>
<polygon fill="midnightblue" stroke="midnightblue" points="953.127,-48.2124 943.656,-52.9619 954.021,-55.155 953.127,-48.2124"/>
</g>
</g>
</svg>
