<?xml version="1.0" encoding="UTF-8" standalone="no"?>
<!DOCTYPE svg PUBLIC "-//W3C//DTD SVG 1.1//EN"
 "http://www.w3.org/Graphics/SVG/1.1/DTD/svg11.dtd">
<!-- Generated by graphviz version 2.36.0 (20140111.2315)
 -->
<!-- Title: frontEnd.View.update Pages: 1 -->
<!--zoomable 126 -->
<svg id="main" version="1.1" xmlns="http://www.w3.org/2000/svg" xmlns:xlink="http://www.w3.org/1999/xlink" xml:space="preserve" onload="init(evt)">
<style type="text/css"><![CDATA[
.edge:hover path { stroke: red; }
.edge:hover polygon { stroke: red; fill: red; }
]]></style>
<script type="text/javascript"><![CDATA[
var edges = document.getElementsByTagName('g');
if (edges && edges.length) {
  for (var i=0;i<edges.length;i++) {
    if (edges[i].id.substr(0,4)=='edge') {
      edges[i].setAttribute('class','edge');
    }
  }
}
]]></script>
        <defs>
                <circle id="rim" cx="0" cy="0" r="7"/>
                <circle id="rim2" cx="0" cy="0" r="3.5"/>
                <g id="zoomPlus">
                        <use xlink:href="#rim" fill="#404040">
                                <set attributeName="fill" to="#808080" begin="zoomplus.mouseover" end="zoomplus.mouseout"/>
                        </use>
                        <path d="M-4,0h8M0,-4v8" fill="none" stroke="white" stroke-width="1.5" pointer-events="none"/>
                </g>
                <g id="zoomMin">
                        <use xlink:href="#rim" fill="#404040">
                                <set attributeName="fill" to="#808080" begin="zoomminus.mouseover" end="zoomminus.mouseout"/>
                        </use>
                        <path d="M-4,0h8" fill="none" stroke="white" stroke-width="1.5" pointer-events="none"/>
                </g>
                <g id="dirArrow">
                        <path fill="none" stroke="white" stroke-width="1.5" d="M0,-3.0v7 M-2.5,-0.5L0,-3.0L2.5,-0.5"/>
                </g>
               <g id="resetDef">
                       <use xlink:href="#rim2" fill="#404040">
                               <set attributeName="fill" to="#808080" begin="reset.mouseover" end="reset.mouseout"/>
                       </use>
               </g>
        </defs>

<script type="text/javascript">
var viewWidth = 712;
var viewHeight = 126;
var sectionId = 'dynsection-33';
</script>
<script xlink:href="../../svgpan.js"/>
<svg id="graph" class="graph">
<g id="viewport">
<title>frontEnd.View.update</title>
<polygon fill="white" stroke="none" points="-4,4 -4,-122 708,-122 708,4 -4,4"/>
<!-- Node1 -->
<g id="node1" class="node"><title>Node1</title>
<polygon fill="#bfbfbf" stroke="black" points="0,-69.5 0,-88.5 118,-88.5 118,-69.5 0,-69.5"/>
<text text-anchor="middle" x="59" y="-76.5" font-family="Helvetica,sans-Serif" font-size="10.00">frontEnd.View.update</text>
</g>
<!-- Node2 -->
<g id="node2" class="node"><title>Node2</title>
<g id="a_node2"><a xlink:href="../../d8/d1f/classfront_end_1_1_view.html#a22669dd74ac845d66d5b59ddeba13b5e" target="_top" xlink:title="frontEnd.View.printException">
<polygon fill="white" stroke="black" points="157,-90.5 157,-109.5 309,-109.5 309,-90.5 157,-90.5"/>
<text text-anchor="middle" x="233" y="-97.5" font-family="Helvetica,sans-Serif" font-size="10.00">frontEnd.View.printException</text>
</a>
</g>
</g>
<!-- Node1&#45;&gt;Node2 -->
<g id="edge1" class="edge"><title>Node1&#45;&gt;Node2</title>
<path fill="none" stroke="midnightblue" d="M118.231,-86.1096C127.418,-87.2312 137.077,-88.4106 146.725,-89.5885"/>
<polygon fill="midnightblue" stroke="midnightblue" points="146.403,-93.0751 156.754,-90.813 147.252,-86.1267 146.403,-93.0751"/>
</g>
<!-- Node4 -->
<g id="node4" class="node"><title>Node4</title>
<g id="a_node4"><a xlink:href="../../d5/df1/classfront_end_1_1_turtle_canvas.html#ad48a6fbb8daf59b2ec1dd97aeeaa8eb7" target="_top" xlink:title="frontEnd.TurtleCanvas.update">
<polygon fill="white" stroke="black" points="154,-49.5 154,-68.5 312,-68.5 312,-49.5 154,-49.5"/>
<text text-anchor="middle" x="233" y="-56.5" font-family="Helvetica,sans-Serif" font-size="10.00">frontEnd.TurtleCanvas.update</text>
</a>
</g>
</g>
<!-- Node1&#45;&gt;Node4 -->
<g id="edge3" class="edge"><title>Node1&#45;&gt;Node4</title>
<path fill="none" stroke="midnightblue" d="M118.231,-72.2289C126.427,-71.2759 134.999,-70.2791 143.604,-69.2786"/>
<polygon fill="midnightblue" stroke="midnightblue" points="144.17,-72.7364 153.699,-68.1048 143.362,-65.7833 144.17,-72.7364"/>
</g>
<!-- Node3 -->
<g id="node3" class="node"><title>Node3</title>
<g id="a_node3"><a xlink:href="../../de/d03/classpanels_1_1_script_panel.html#acf94d4284961d6d9eabc8af4db9abe87" target="_top" xlink:title="panels.ScriptPanel.print\lException">
<polygon fill="white" stroke="black" points="354.5,-88 354.5,-118 483.5,-118 483.5,-88 354.5,-88"/>
<text text-anchor="start" x="362.5" y="-106" font-family="Helvetica,sans-Serif" font-size="10.00">panels.ScriptPanel.print</text>
<text text-anchor="middle" x="419" y="-95" font-family="Helvetica,sans-Serif" font-size="10.00">Exception</text>
</a>
</g>
</g>
<!-- Node2&#45;&gt;Node3 -->
<g id="edge2" class="edge"><title>Node2&#45;&gt;Node3</title>
<path fill="none" stroke="midnightblue" d="M309.105,-101.225C320.711,-101.414 332.688,-101.609 344.263,-101.798"/>
<polygon fill="midnightblue" stroke="midnightblue" points="344.256,-105.298 354.312,-101.962 344.37,-98.2989 344.256,-105.298"/>
</g>
<!-- Node5 -->
<g id="node5" class="node"><title>Node5</title>
<g id="a_node5"><a xlink:href="../../d5/df1/classfront_end_1_1_turtle_canvas.html#ab32a26b7ece7facda450f287624470db" target="_top" xlink:title="frontEnd.TurtleCanvas.add\lTurtle">
<polygon fill="white" stroke="black" points="348,-39 348,-69 490,-69 490,-39 348,-39"/>
<text text-anchor="start" x="356" y="-57" font-family="Helvetica,sans-Serif" font-size="10.00">frontEnd.TurtleCanvas.add</text>
<text text-anchor="middle" x="419" y="-46" font-family="Helvetica,sans-Serif" font-size="10.00">Turtle</text>
</a>
</g>
</g>
<!-- Node4&#45;&gt;Node5 -->
<g id="edge4" class="edge"><title>Node4&#45;&gt;Node5</title>
<path fill="none" stroke="midnightblue" d="M312.033,-56.8795C320.458,-56.6506 329.044,-56.4173 337.498,-56.1875"/>
<polygon fill="midnightblue" stroke="midnightblue" points="337.825,-59.6801 347.726,-55.9096 337.634,-52.6826 337.825,-59.6801"/>
</g>
<!-- Node6 -->
<g id="node6" class="node"><title>Node6</title>
<g id="a_node6"><a xlink:href="../../dc/dcd/classfront_end_1_1_turtle_view.html#a772daa2233a7f5649baee0e549c9bb63" target="_top" xlink:title="frontEnd.TurtleView.getImageView">
<polygon fill="white" stroke="black" points="526.5,-88.5 526.5,-107.5 703.5,-107.5 703.5,-88.5 526.5,-88.5"/>
<text text-anchor="middle" x="615" y="-95.5" font-family="Helvetica,sans-Serif" font-size="10.00">frontEnd.TurtleView.getImageView</text>
</a>
</g>
</g>
<!-- Node5&#45;&gt;Node6 -->
<g id="edge5" class="edge"><title>Node5&#45;&gt;Node6</title>
<path fill="none" stroke="midnightblue" d="M486.221,-69.0192C510.986,-74.636 538.737,-80.93 562.033,-86.2137"/>
<polygon fill="midnightblue" stroke="midnightblue" points="561.532,-89.689 572.059,-88.4876 563.081,-82.8623 561.532,-89.689"/>
</g>
<!-- Node7 -->
<g id="node7" class="node"><title>Node7</title>
<g id="a_node7"><a xlink:href="../../dc/dcd/classfront_end_1_1_turtle_view.html#aa50f2375fccd313119e3200ebe4de365" target="_top" xlink:title="frontEnd.TurtleView.getPen\lLines">
<polygon fill="white" stroke="black" points="543.5,-39 543.5,-69 686.5,-69 686.5,-39 543.5,-39"/>
<text text-anchor="start" x="551.5" y="-57" font-family="Helvetica,sans-Serif" font-size="10.00">frontEnd.TurtleView.getPen</text>
<text text-anchor="middle" x="615" y="-46" font-family="Helvetica,sans-Serif" font-size="10.00">Lines</text>
</a>
</g>
</g>
<!-- Node5&#45;&gt;Node7 -->
<g id="edge6" class="edge"><title>Node5&#45;&gt;Node7</title>
<path fill="none" stroke="midnightblue" d="M490.038,-54C504.012,-54 518.797,-54 533.101,-54"/>
<polygon fill="midnightblue" stroke="midnightblue" points="533.413,-57.5001 543.413,-54 533.413,-50.5001 533.413,-57.5001"/>
</g>
<!-- Node8 -->
<g id="node8" class="node"><title>Node8</title>
<g id="a_node8"><a xlink:href="../../dc/dcd/classfront_end_1_1_turtle_view.html#a5644c1470fa171b12ffc1c1725e2b551" target="_top" xlink:title="frontEnd.TurtleView.getStamps">
<polygon fill="white" stroke="black" points="533.5,-0.5 533.5,-19.5 696.5,-19.5 696.5,-0.5 533.5,-0.5"/>
<text text-anchor="middle" x="615" y="-7.5" font-family="Helvetica,sans-Serif" font-size="10.00">frontEnd.TurtleView.getStamps</text>
</a>
</g>
</g>
<!-- Node5&#45;&gt;Node8 -->
<g id="edge7" class="edge"><title>Node5&#45;&gt;Node8</title>
<path fill="none" stroke="midnightblue" d="M482.731,-38.9972C496.947,-35.6553 511.983,-32.1658 526,-29 536.739,-26.5746 548.23,-24.0454 559.247,-21.6533"/>
<polygon fill="midnightblue" stroke="midnightblue" points="560.162,-25.0365 569.196,-19.5018 558.682,-18.1946 560.162,-25.0365"/>
</g>
</g>
</svg>
        <g id="navigator" transform="translate(0 0)" fill="#404254">
                <rect fill="#f2f5e9" fill-opacity="0.5" stroke="#606060" stroke-width=".5" x="0" y="0" width="60" height="60"/>
                <use id="zoomplus" xlink:href="#zoomPlus" x="17" y="9" onmousedown="handleZoom(evt,'in')"/>
                <use id="zoomminus" xlink:href="#zoomMin" x="42" y="9" onmousedown="handleZoom(evt,'out')"/>
                <use id="reset" xlink:href="#resetDef" x="30" y="36" onmousedown="handleReset()"/>
                <g id="arrowUp" xlink:href="#dirArrow" transform="translate(30 24)" onmousedown="handlePan(0,-1)">
                  <use xlink:href="#rim" fill="#404040">
                        <set attributeName="fill" to="#808080" begin="arrowUp.mouseover" end="arrowUp.mouseout"/>
                  </use>
                  <path fill="none" stroke="white" stroke-width="1.5" d="M0,-3.0v7 M-2.5,-0.5L0,-3.0L2.5,-0.5"/>
                </g>
                <g id="arrowRight" xlink:href="#dirArrow" transform="rotate(90) translate(36 -43)" onmousedown="handlePan(1,0)">
                  <use xlink:href="#rim" fill="#404040">
                        <set attributeName="fill" to="#808080" begin="arrowRight.mouseover" end="arrowRight.mouseout"/>
                  </use>
                  <path fill="none" stroke="white" stroke-width="1.5" d="M0,-3.0v7 M-2.5,-0.5L0,-3.0L2.5,-0.5"/>
                </g>
                <g id="arrowDown" xlink:href="#dirArrow" transform="rotate(180) translate(-30 -48)" onmousedown="handlePan(0,1)">
                  <use xlink:href="#rim" fill="#404040">
                        <set attributeName="fill" to="#808080" begin="arrowDown.mouseover" end="arrowDown.mouseout"/>
                  </use>
                  <path fill="none" stroke="white" stroke-width="1.5" d="M0,-3.0v7 M-2.5,-0.5L0,-3.0L2.5,-0.5"/>
                </g>
                <g id="arrowLeft" xlink:href="#dirArrow" transform="rotate(270) translate(-36 17)" onmousedown="handlePan(-1,0)">
                  <use xlink:href="#rim" fill="#404040">
                        <set attributeName="fill" to="#808080" begin="arrowLeft.mouseover" end="arrowLeft.mouseout"/>
                  </use>
                  <path fill="none" stroke="white" stroke-width="1.5" d="M0,-3.0v7 M-2.5,-0.5L0,-3.0L2.5,-0.5"/>
                </g>
        </g>
        <svg viewBox="0 0 15 15" width="100%" height="30px" preserveAspectRatio="xMaxYMin meet">
         <g id="arrow_out" transform="scale(0.3 0.3)">
          <a xlink:href="classfront_end_1_1_view_a8cc3a5b95c95cfcdedbcc27755d62803_cgraph_org.svg" target="_base">
           <rect id="button" ry="5" rx="5" y="6" x="6" height="38" width="38"
                fill="#f2f5e9" fill-opacity="0.5" stroke="#606060" stroke-width="1.0"/>
           <path id="arrow"
             d="M 11.500037,31.436501 C 11.940474,20.09759 22.043105,11.32322 32.158766,21.979434 L 37.068811,17.246167 C 37.068811,17.246167 37.088388,32 37.088388,32 L 22.160133,31.978069 C 22.160133,31.978069 26.997745,27.140456 26.997745,27.140456 C 18.528582,18.264221 13.291696,25.230495 11.500037,31.436501 z"
             style="fill:#404040;"/>
          </a>
         </g>
        </svg>
</svg>
