<?xml version="1.0" encoding="UTF-8" standalone="no"?>
<!DOCTYPE svg PUBLIC "-//W3C//DTD SVG 1.1//EN"
 "http://www.w3.org/Graphics/SVG/1.1/DTD/svg11.dtd">
<!-- Generated by graphviz version 2.36.0 (20140111.2315)
 -->
<!-- Title: frontEnd.View.setupGui Pages: 1 -->
<svg width="680pt" height="116pt"
 viewBox="0.00 0.00 680.00 116.00" xmlns="http://www.w3.org/2000/svg" xmlns:xlink="http://www.w3.org/1999/xlink">
<g id="graph0" class="graph" transform="scale(1 1) rotate(0) translate(4 112)">
<title>frontEnd.View.setupGui</title>
<polygon fill="white" stroke="none" points="-4,4 -4,-112 676,-112 676,4 -4,4"/>
<!-- Node1 -->
<g id="node1" class="node"><title>Node1</title>
<polygon fill="#bfbfbf" stroke="black" points="0.5,-44.5 0.5,-63.5 127.5,-63.5 127.5,-44.5 0.5,-44.5"/>
<text text-anchor="middle" x="64" y="-51.5" font-family="Helvetica,sans-Serif" font-size="10.00">frontEnd.View.setupGui</text>
</g>
<!-- Node2 -->
<g id="node2" class="node"><title>Node2</title>
<g id="a_node2"><a xlink:href="../../d8/d1f/classfront_end_1_1_view.html#a946cc1534c68b0490bdc3f8992a8fd44" target="_top" xlink:title="frontEnd.View.buildCanvas">
<polygon fill="white" stroke="black" points="170,-88.5 170,-107.5 312,-107.5 312,-88.5 170,-88.5"/>
<text text-anchor="middle" x="241" y="-95.5" font-family="Helvetica,sans-Serif" font-size="10.00">frontEnd.View.buildCanvas</text>
</a>
</g>
</g>
<!-- Node1&#45;&gt;Node2 -->
<g id="edge1" class="edge"><title>Node1&#45;&gt;Node2</title>
<path fill="none" stroke="midnightblue" d="M102.972,-63.5473C129.115,-70.1204 164.053,-78.9048 192.107,-85.9583"/>
<polygon fill="midnightblue" stroke="midnightblue" points="191.55,-89.4272 202.102,-88.4713 193.257,-82.6385 191.55,-89.4272"/>
</g>
<!-- Node5 -->
<g id="node5" class="node"><title>Node5</title>
<g id="a_node5"><a xlink:href="../../d8/d1f/classfront_end_1_1_view.html#a43b22358810c0b28a2452990a7ce5fe0" target="_top" xlink:title="frontEnd.View.buildScript\lPanel">
<polygon fill="white" stroke="black" points="174,-39 174,-69 308,-69 308,-39 174,-39"/>
<text text-anchor="start" x="182" y="-57" font-family="Helvetica,sans-Serif" font-size="10.00">frontEnd.View.buildScript</text>
<text text-anchor="middle" x="241" y="-46" font-family="Helvetica,sans-Serif" font-size="10.00">Panel</text>
</a>
</g>
</g>
<!-- Node1&#45;&gt;Node5 -->
<g id="edge4" class="edge"><title>Node1&#45;&gt;Node5</title>
<path fill="none" stroke="midnightblue" d="M127.685,-54C139.408,-54 151.779,-54 163.856,-54"/>
<polygon fill="midnightblue" stroke="midnightblue" points="163.911,-57.5001 173.911,-54 163.911,-50.5001 163.911,-57.5001"/>
</g>
<!-- Node6 -->
<g id="node6" class="node"><title>Node6</title>
<g id="a_node6"><a xlink:href="../../d8/d1f/classfront_end_1_1_view.html#ae8e12c48ecfa63eae481f2940df42ea3" target="_top" xlink:title="frontEnd.View.buildSidePanel">
<polygon fill="white" stroke="black" points="164.5,-0.5 164.5,-19.5 317.5,-19.5 317.5,-0.5 164.5,-0.5"/>
<text text-anchor="middle" x="241" y="-7.5" font-family="Helvetica,sans-Serif" font-size="10.00">frontEnd.View.buildSidePanel</text>
</a>
</g>
</g>
<!-- Node1&#45;&gt;Node6 -->
<g id="edge5" class="edge"><title>Node1&#45;&gt;Node6</title>
<path fill="none" stroke="midnightblue" d="M102.972,-44.4527C129.115,-37.8796 164.053,-29.0952 192.107,-22.0417"/>
<polygon fill="midnightblue" stroke="midnightblue" points="193.257,-25.3615 202.102,-19.5287 191.55,-18.5728 193.257,-25.3615"/>
</g>
<!-- Node3 -->
<g id="node3" class="node"><title>Node3</title>
<g id="a_node3"><a xlink:href="../../d8/d1f/classfront_end_1_1_view.html#a22669dd74ac845d66d5b59ddeba13b5e" target="_top" xlink:title="frontEnd.View.printException">
<polygon fill="white" stroke="black" points="354,-44.5 354,-63.5 506,-63.5 506,-44.5 354,-44.5"/>
<text text-anchor="middle" x="430" y="-51.5" font-family="Helvetica,sans-Serif" font-size="10.00">frontEnd.View.printException</text>
</a>
</g>
</g>
<!-- Node2&#45;&gt;Node3 -->
<g id="edge2" class="edge"><title>Node2&#45;&gt;Node3</title>
<path fill="none" stroke="midnightblue" d="M282.576,-88.4527C310.757,-81.8219 348.501,-72.9409 378.61,-65.8565"/>
<polygon fill="midnightblue" stroke="midnightblue" points="379.57,-69.2261 388.503,-63.5287 377.967,-62.4122 379.57,-69.2261"/>
</g>
<!-- Node4 -->
<g id="node4" class="node"><title>Node4</title>
<g id="a_node4"><a xlink:href="../../de/d03/classpanels_1_1_script_panel.html#acf94d4284961d6d9eabc8af4db9abe87" target="_top" xlink:title="panels.ScriptPanel.print\lException">
<polygon fill="white" stroke="black" points="542.5,-39 542.5,-69 671.5,-69 671.5,-39 542.5,-39"/>
<text text-anchor="start" x="550.5" y="-57" font-family="Helvetica,sans-Serif" font-size="10.00">panels.ScriptPanel.print</text>
<text text-anchor="middle" x="607" y="-46" font-family="Helvetica,sans-Serif" font-size="10.00">Exception</text>
</a>
</g>
</g>
<!-- Node3&#45;&gt;Node4 -->
<g id="edge3" class="edge"><title>Node3&#45;&gt;Node4</title>
<path fill="none" stroke="midnightblue" d="M506.231,-54C514.887,-54 523.707,-54 532.341,-54"/>
<polygon fill="midnightblue" stroke="midnightblue" points="532.372,-57.5001 542.372,-54 532.372,-50.5001 532.372,-57.5001"/>
</g>
<!-- Node6&#45;&gt;Node3 -->
<g id="edge6" class="edge"><title>Node6&#45;&gt;Node3</title>
<path fill="none" stroke="midnightblue" d="M282.576,-19.5473C310.757,-26.1781 348.501,-35.0591 378.61,-42.1435"/>
<polygon fill="midnightblue" stroke="midnightblue" points="377.967,-45.5878 388.503,-44.4713 379.57,-38.7739 377.967,-45.5878"/>
</g>
</g>
</svg>
