<?xml version="1.0" encoding="UTF-8" standalone="no"?>
<!DOCTYPE svg PUBLIC "-//W3C//DTD SVG 1.1//EN"
 "http://www.w3.org/Graphics/SVG/1.1/DTD/svg11.dtd">
<!-- Generated by graphviz version 2.36.0 (20140111.2315)
 -->
<!-- Title: frontEnd.View.addTextToScript Pages: 1 -->
<svg width="546pt" height="38pt"
 viewBox="0.00 0.00 546.00 38.00" xmlns="http://www.w3.org/2000/svg" xmlns:xlink="http://www.w3.org/1999/xlink">
<g id="graph0" class="graph" transform="scale(1 1) rotate(0) translate(4 34)">
<title>frontEnd.View.addTextToScript</title>
<polygon fill="white" stroke="none" points="-4,4 -4,-34 542,-34 542,4 -4,4"/>
<!-- Node1 -->
<g id="node1" class="node"><title>Node1</title>
<polygon fill="#bfbfbf" stroke="black" points="0,-5.5 0,-24.5 158,-24.5 158,-5.5 0,-5.5"/>
<text text-anchor="middle" x="79" y="-12.5" font-family="Helvetica,sans-Serif" font-size="10.00">frontEnd.View.addTextToScript</text>
</g>
<!-- Node2 -->
<g id="node2" class="node"><title>Node2</title>
<g id="a_node2"><a xlink:href="../../d9/d49/classback_end_1_1_controller.html#a9bac47210a2b80f3d1ae6338283a09bc" target="_top" xlink:title="backEnd.Controller.addText\lToScript">
<polygon fill="white" stroke="black" points="194,-0 194,-30 340,-30 340,-0 194,-0"/>
<text text-anchor="start" x="202" y="-18" font-family="Helvetica,sans-Serif" font-size="10.00">backEnd.Controller.addText</text>
<text text-anchor="middle" x="267" y="-7" font-family="Helvetica,sans-Serif" font-size="10.00">ToScript</text>
</a>
</g>
</g>
<!-- Node1&#45;&gt;Node2 -->
<g id="edge1" class="edge"><title>Node1&#45;&gt;Node2</title>
<path fill="none" stroke="midnightblue" d="M168.115,-15C176.707,-15 185.355,-15 193.764,-15"/>
<polygon fill="midnightblue" stroke="midnightblue" points="168.072,-11.5001 158.072,-15 168.072,-18.5001 168.072,-11.5001"/>
</g>
<!-- Node3 -->
<g id="node3" class="node"><title>Node3</title>
<g id="a_node3"><a xlink:href="../../da/d59/classtitle_panes_1_1_command_title_pane.html#a5ea67081716a74d0cc1b8343ccfacaca" target="_top" xlink:title="titlePanes.CommandTitlePane.\lCommandTitlePane">
<polygon fill="white" stroke="black" points="376,-0 376,-30 538,-30 538,-0 376,-0"/>
<text text-anchor="start" x="384" y="-18" font-family="Helvetica,sans-Serif" font-size="10.00">titlePanes.CommandTitlePane.</text>
<text text-anchor="middle" x="457" y="-7" font-family="Helvetica,sans-Serif" font-size="10.00">CommandTitlePane</text>
</a>
</g>
</g>
<!-- Node2&#45;&gt;Node3 -->
<g id="edge2" class="edge"><title>Node2&#45;&gt;Node3</title>
<path fill="none" stroke="midnightblue" d="M350.396,-15C358.865,-15 367.461,-15 375.905,-15"/>
<polygon fill="midnightblue" stroke="midnightblue" points="350.148,-11.5001 340.148,-15 350.148,-18.5001 350.148,-11.5001"/>
</g>
</g>
</svg>
