<?xml version="1.0" encoding="UTF-8" standalone="no"?>
<!DOCTYPE svg PUBLIC "-//W3C//DTD SVG 1.1//EN"
 "http://www.w3.org/Graphics/SVG/1.1/DTD/svg11.dtd">
<!-- Generated by graphviz version 2.36.0 (20140111.2315)
 -->
<!-- Title: commands.turtle_commands.GetShapeCommand Pages: 1 -->
<svg width="182pt" height="164pt"
 viewBox="0.00 0.00 182.00 164.00" xmlns="http://www.w3.org/2000/svg" xmlns:xlink="http://www.w3.org/1999/xlink">
<g id="graph0" class="graph" transform="scale(1 1) rotate(0) translate(4 160)">
<title>commands.turtle_commands.GetShapeCommand</title>
<polygon fill="white" stroke="none" points="-4,4 -4,-160 178,-160 178,4 -4,4"/>
<!-- Node1 -->
<g id="node1" class="node"><title>Node1</title>
<polygon fill="#bfbfbf" stroke="black" points="6.5,-1 6.5,-31 167.5,-31 167.5,-1 6.5,-1"/>
<text text-anchor="start" x="14.5" y="-19" font-family="Helvetica,sans-Serif" font-size="10.00">commands.turtle_commands.</text>
<text text-anchor="middle" x="87" y="-8" font-family="Helvetica,sans-Serif" font-size="10.00">GetShapeCommand</text>
</g>
<!-- Node2 -->
<g id="node2" class="node"><title>Node2</title>
<g id="a_node2"><a xlink:href="../../dc/d36/classcommands_1_1templates_1_1_turtle_command.html" target="_top" xlink:title="commands.templates.Turtle\lCommand">
<polygon fill="white" stroke="black" points="11.5,-69 11.5,-99 162.5,-99 162.5,-69 11.5,-69"/>
<text text-anchor="start" x="19.5" y="-87" font-family="Helvetica,sans-Serif" font-size="10.00">commands.templates.Turtle</text>
<text text-anchor="middle" x="87" y="-76" font-family="Helvetica,sans-Serif" font-size="10.00">Command</text>
</a>
</g>
</g>
<!-- Node2&#45;&gt;Node1 -->
<g id="edge1" class="edge"><title>Node2&#45;&gt;Node1</title>
<path fill="none" stroke="midnightblue" d="M87,-58.5322C87,-49.3606 87,-39.2449 87,-31.2931"/>
<polygon fill="midnightblue" stroke="midnightblue" points="83.5001,-58.6789 87,-68.679 90.5001,-58.679 83.5001,-58.6789"/>
</g>
<!-- Node3 -->
<g id="node3" class="node"><title>Node3</title>
<g id="a_node3"><a xlink:href="../../d5/d62/classcommands_1_1templates_1_1_command.html" target="_top" xlink:title="commands.templates.Command">
<polygon fill="white" stroke="black" points="-1,-136.5 -1,-155.5 175,-155.5 175,-136.5 -1,-136.5"/>
<text text-anchor="middle" x="87" y="-143.5" font-family="Helvetica,sans-Serif" font-size="10.00">commands.templates.Command</text>
</a>
</g>
</g>
<!-- Node3&#45;&gt;Node2 -->
<g id="edge2" class="edge"><title>Node3&#45;&gt;Node2</title>
<path fill="none" stroke="midnightblue" d="M87,-126.371C87,-117.585 87,-107.272 87,-99.1408"/>
<polygon fill="midnightblue" stroke="midnightblue" points="83.5001,-126.403 87,-136.403 90.5001,-126.403 83.5001,-126.403"/>
</g>
</g>
</svg>
