<?xml version="1.0" encoding="UTF-8" standalone="no"?>
<!DOCTYPE svg PUBLIC "-//W3C//DTD SVG 1.1//EN"
 "http://www.w3.org/Graphics/SVG/1.1/DTD/svg11.dtd">
<!-- Generated by graphviz version 2.36.0 (20140111.2315)
 -->
<!-- Title: commands.onechild.SineCommand.toString Pages: 1 -->
<svg width="704pt" height="53pt"
 viewBox="0.00 0.00 704.00 53.00" xmlns="http://www.w3.org/2000/svg" xmlns:xlink="http://www.w3.org/1999/xlink">
<g id="graph0" class="graph" transform="scale(1 1) rotate(0) translate(4 49)">
<title>commands.onechild.SineCommand.toString</title>
<polygon fill="white" stroke="none" points="-4,4 -4,-49 700,-49 700,4 -4,4"/>
<!-- Node1 -->
<g id="node1" class="node"><title>Node1</title>
<polygon fill="#bfbfbf" stroke="black" points="0,-1 0,-31 200,-31 200,-1 0,-1"/>
<text text-anchor="start" x="8" y="-19" font-family="Helvetica,sans-Serif" font-size="10.00">commands.onechild.SineCommand.to</text>
<text text-anchor="middle" x="100" y="-8" font-family="Helvetica,sans-Serif" font-size="10.00">String</text>
</g>
<!-- Node2 -->
<g id="node2" class="node"><title>Node2</title>
<g id="a_node2"><a xlink:href="../../dc/d3f/classcommands_1_1onechild_1_1_sine_command.html#a3963c2c4c843e0464629d03224c0813d" target="_top" xlink:title="commands.onechild.SineCommand.execute">
<polygon fill="white" stroke="black" points="236.5,-25.5 236.5,-44.5 465.5,-44.5 465.5,-25.5 236.5,-25.5"/>
<text text-anchor="middle" x="351" y="-32.5" font-family="Helvetica,sans-Serif" font-size="10.00">commands.onechild.SineCommand.execute</text>
</a>
</g>
</g>
<!-- Node1&#45;&gt;Node2 -->
<g id="edge1" class="edge"><title>Node1&#45;&gt;Node2</title>
<path fill="none" stroke="midnightblue" d="M200.127,-23.5639C208.705,-24.2184 217.451,-24.8858 226.192,-25.5528"/>
<polygon fill="midnightblue" stroke="midnightblue" points="226.204,-29.0638 236.441,-26.3349 226.737,-22.0841 226.204,-29.0638"/>
</g>
<!-- Node3 -->
<g id="node3" class="node"><title>Node3</title>
<g id="a_node3"><a xlink:href="../../d5/d62/classcommands_1_1templates_1_1_command.html#ae48716b79da0af7e6815fbe6fc113075" target="_top" xlink:title="commands.templates.Command.get\lMyChildren">
<polygon fill="white" stroke="black" points="502,-1 502,-31 696,-31 696,-1 502,-1"/>
<text text-anchor="start" x="510" y="-19" font-family="Helvetica,sans-Serif" font-size="10.00">commands.templates.Command.get</text>
<text text-anchor="middle" x="599" y="-8" font-family="Helvetica,sans-Serif" font-size="10.00">MyChildren</text>
</a>
</g>
</g>
<!-- Node1&#45;&gt;Node3 -->
<g id="edge3" class="edge"><title>Node1&#45;&gt;Node3</title>
<path fill="none" stroke="midnightblue" d="M200.083,-16C284.39,-16 405.191,-16 491.542,-16"/>
<polygon fill="midnightblue" stroke="midnightblue" points="491.632,-19.5001 501.632,-16 491.632,-12.5001 491.632,-19.5001"/>
</g>
<!-- Node2&#45;&gt;Node3 -->
<g id="edge2" class="edge"><title>Node2&#45;&gt;Node3</title>
<path fill="none" stroke="midnightblue" d="M465.639,-26.223C474.325,-25.5521 483.075,-24.8764 491.712,-24.2093"/>
<polygon fill="midnightblue" stroke="midnightblue" points="492.088,-27.6907 501.789,-23.4309 491.549,-20.7115 492.088,-27.6907"/>
</g>
</g>
</svg>
