<?xml version="1.0" encoding="UTF-8" standalone="no"?>
<!DOCTYPE svg PUBLIC "-//W3C//DTD SVG 1.1//EN"
 "http://www.w3.org/Graphics/SVG/1.1/DTD/svg11.dtd">
<!-- Generated by graphviz version 2.36.0 (20140111.2315)
 -->
<!-- Title: commands.onechild.SetBackgroundCommand.execute Pages: 1 -->
<svg width="428pt" height="185pt"
 viewBox="0.00 0.00 428.00 185.00" xmlns="http://www.w3.org/2000/svg" xmlns:xlink="http://www.w3.org/1999/xlink">
<g id="graph0" class="graph" transform="scale(1 1) rotate(0) translate(4 181)">
<title>commands.onechild.SetBackgroundCommand.execute</title>
<polygon fill="white" stroke="none" points="-4,4 -4,-181 424,-181 424,4 -4,4"/>
<!-- Node1 -->
<g id="node1" class="node"><title>Node1</title>
<polygon fill="#bfbfbf" stroke="black" points="0,-73 0,-103 190,-103 190,-73 0,-73"/>
<text text-anchor="start" x="8" y="-91" font-family="Helvetica,sans-Serif" font-size="10.00">commands.onechild.SetBackground</text>
<text text-anchor="middle" x="95" y="-80" font-family="Helvetica,sans-Serif" font-size="10.00">Command.execute</text>
</g>
<!-- Node2 -->
<g id="node2" class="node"><title>Node2</title>
<g id="a_node2"><a xlink:href="../../d5/d62/classcommands_1_1templates_1_1_command.html#ae48716b79da0af7e6815fbe6fc113075" target="_top" xlink:title="commands.templates.Command.get\lMyChildren">
<polygon fill="white" stroke="black" points="226,-147 226,-177 420,-177 420,-147 226,-147"/>
<text text-anchor="start" x="234" y="-165" font-family="Helvetica,sans-Serif" font-size="10.00">commands.templates.Command.get</text>
<text text-anchor="middle" x="323" y="-154" font-family="Helvetica,sans-Serif" font-size="10.00">MyChildren</text>
</a>
</g>
</g>
<!-- Node1&#45;&gt;Node2 -->
<g id="edge1" class="edge"><title>Node1&#45;&gt;Node2</title>
<path fill="none" stroke="midnightblue" d="M132.899,-103.1C158.724,-113.373 194.163,-126.886 226,-137 233.904,-139.511 242.232,-141.962 250.544,-144.287"/>
<polygon fill="midnightblue" stroke="midnightblue" points="249.698,-147.684 260.268,-146.954 251.55,-140.933 249.698,-147.684"/>
</g>
<!-- Node3 -->
<g id="node3" class="node"><title>Node3</title>
<g id="a_node3"><a xlink:href="../../d5/d62/classcommands_1_1templates_1_1_command.html#a97358158dd12c0a83a49df3c1e379790" target="_top" xlink:title="commands.templates.Command.get\lValue">
<polygon fill="white" stroke="black" points="226,-98 226,-128 420,-128 420,-98 226,-98"/>
<text text-anchor="start" x="234" y="-116" font-family="Helvetica,sans-Serif" font-size="10.00">commands.templates.Command.get</text>
<text text-anchor="middle" x="323" y="-105" font-family="Helvetica,sans-Serif" font-size="10.00">Value</text>
</a>
</g>
</g>
<!-- Node1&#45;&gt;Node3 -->
<g id="edge2" class="edge"><title>Node1&#45;&gt;Node3</title>
<path fill="none" stroke="midnightblue" d="M190.208,-98.4212C198.652,-99.3553 207.24,-100.305 215.777,-101.25"/>
<polygon fill="midnightblue" stroke="midnightblue" points="215.438,-104.733 225.762,-102.354 216.207,-97.7758 215.438,-104.733"/>
</g>
<!-- Node4 -->
<g id="node4" class="node"><title>Node4</title>
<g id="a_node4"><a xlink:href="../../d9/d98/classback_end_1_1_model.html#a1bfd22631fe2fc64e28a0595ac109cb7" target="_top" xlink:title="backEnd.Model.setBackground\lIndex">
<polygon fill="white" stroke="black" points="241,-49 241,-79 405,-79 405,-49 241,-49"/>
<text text-anchor="start" x="249" y="-67" font-family="Helvetica,sans-Serif" font-size="10.00">backEnd.Model.setBackground</text>
<text text-anchor="middle" x="323" y="-56" font-family="Helvetica,sans-Serif" font-size="10.00">Index</text>
</a>
</g>
</g>
<!-- Node1&#45;&gt;Node4 -->
<g id="edge3" class="edge"><title>Node1&#45;&gt;Node4</title>
<path fill="none" stroke="midnightblue" d="M190.208,-77.9956C203.623,-76.571 217.403,-75.1077 230.76,-73.6892"/>
<polygon fill="midnightblue" stroke="midnightblue" points="231.305,-77.1511 240.88,-72.6146 230.566,-70.1902 231.305,-77.1511"/>
</g>
<!-- Node5 -->
<g id="node5" class="node"><title>Node5</title>
<g id="a_node5"><a xlink:href="../../d5/d62/classcommands_1_1templates_1_1_command.html#a632193b631b368f6ffbc514865f062e5" target="_top" xlink:title="commands.templates.Command.set\lValue">
<polygon fill="white" stroke="black" points="226,-0 226,-30 420,-30 420,-0 226,-0"/>
<text text-anchor="start" x="234" y="-18" font-family="Helvetica,sans-Serif" font-size="10.00">commands.templates.Command.set</text>
<text text-anchor="middle" x="323" y="-7" font-family="Helvetica,sans-Serif" font-size="10.00">Value</text>
</a>
</g>
</g>
<!-- Node1&#45;&gt;Node5 -->
<g id="edge4" class="edge"><title>Node1&#45;&gt;Node5</title>
<path fill="none" stroke="midnightblue" d="M133.771,-72.9276C159.533,-62.9262 194.553,-49.8736 226,-40 233.972,-37.497 242.37,-35.0448 250.747,-32.7141"/>
<polygon fill="midnightblue" stroke="midnightblue" points="251.819,-36.0494 260.543,-30.038 249.975,-29.2968 251.819,-36.0494"/>
</g>
</g>
</svg>
