<?xml version="1.0" encoding="UTF-8" standalone="no"?>
<!DOCTYPE svg PUBLIC "-//W3C//DTD SVG 1.1//EN"
 "http://www.w3.org/Graphics/SVG/1.1/DTD/svg11.dtd">
<!-- Generated by graphviz version 2.36.0 (20140111.2315)
 -->
<!-- Title: commands.turtle_commands.PenDownQuery.execute Pages: 1 -->
<svg width="612pt" height="185pt"
 viewBox="0.00 0.00 612.00 185.00" xmlns="http://www.w3.org/2000/svg" xmlns:xlink="http://www.w3.org/1999/xlink">
<g id="graph0" class="graph" transform="scale(1 1) rotate(0) translate(4 181)">
<title>commands.turtle_commands.PenDownQuery.execute</title>
<polygon fill="white" stroke="none" points="-4,4 -4,-181 608,-181 608,4 -4,4"/>
<!-- Node1 -->
<g id="node1" class="node"><title>Node1</title>
<polygon fill="#bfbfbf" stroke="black" points="0.5,-73 0.5,-103 161.5,-103 161.5,-73 0.5,-73"/>
<text text-anchor="start" x="8.5" y="-91" font-family="Helvetica,sans-Serif" font-size="10.00">commands.turtle_commands.</text>
<text text-anchor="middle" x="81" y="-80" font-family="Helvetica,sans-Serif" font-size="10.00">PenDownQuery.execute</text>
</g>
<!-- Node2 -->
<g id="node2" class="node"><title>Node2</title>
<g id="a_node2"><a xlink:href="../../dc/d36/classcommands_1_1templates_1_1_turtle_command.html#ae4d2a640c2db20e624d831deed30484d" target="_top" xlink:title="commands.templates.Turtle\lCommand.getMyTurtleManager">
<polygon fill="white" stroke="black" points="211.5,-147 211.5,-177 378.5,-177 378.5,-147 211.5,-147"/>
<text text-anchor="start" x="219.5" y="-165" font-family="Helvetica,sans-Serif" font-size="10.00">commands.templates.Turtle</text>
<text text-anchor="middle" x="295" y="-154" font-family="Helvetica,sans-Serif" font-size="10.00">Command.getMyTurtleManager</text>
</a>
</g>
</g>
<!-- Node1&#45;&gt;Node2 -->
<g id="edge1" class="edge"><title>Node1&#45;&gt;Node2</title>
<path fill="none" stroke="midnightblue" d="M114.015,-103.005C137.042,-113.43 169.017,-127.163 198,-137 205.396,-139.51 213.185,-141.916 220.994,-144.175"/>
<polygon fill="midnightblue" stroke="midnightblue" points="220.296,-147.614 230.87,-146.955 222.193,-140.876 220.296,-147.614"/>
</g>
<!-- Node4 -->
<g id="node4" class="node"><title>Node4</title>
<g id="a_node4"><a xlink:href="../../d4/d07/classback_end_1_1turtle_1_1_turtle_manager.html#abd8e7545c1f29c7714bc7aaf59d3875b" target="_top" xlink:title="backEnd.turtle.TurtleManager.get\lTurtleList">
<polygon fill="white" stroke="black" points="208,-98 208,-128 382,-128 382,-98 208,-98"/>
<text text-anchor="start" x="216" y="-116" font-family="Helvetica,sans-Serif" font-size="10.00">backEnd.turtle.TurtleManager.get</text>
<text text-anchor="middle" x="295" y="-105" font-family="Helvetica,sans-Serif" font-size="10.00">TurtleList</text>
</a>
</g>
</g>
<!-- Node1&#45;&gt;Node4 -->
<g id="edge3" class="edge"><title>Node1&#45;&gt;Node4</title>
<path fill="none" stroke="midnightblue" d="M161.544,-97.3802C173.385,-98.7765 185.697,-100.228 197.835,-101.66"/>
<polygon fill="midnightblue" stroke="midnightblue" points="197.635,-105.16 207.976,-102.856 198.454,-98.2085 197.635,-105.16"/>
</g>
<!-- Node5 -->
<g id="node5" class="node"><title>Node5</title>
<g id="a_node5"><a xlink:href="../../d5/d62/classcommands_1_1templates_1_1_command.html#a97358158dd12c0a83a49df3c1e379790" target="_top" xlink:title="commands.templates.Command.get\lValue">
<polygon fill="white" stroke="black" points="198,-49 198,-79 392,-79 392,-49 198,-49"/>
<text text-anchor="start" x="206" y="-67" font-family="Helvetica,sans-Serif" font-size="10.00">commands.templates.Command.get</text>
<text text-anchor="middle" x="295" y="-56" font-family="Helvetica,sans-Serif" font-size="10.00">Value</text>
</a>
</g>
</g>
<!-- Node1&#45;&gt;Node5 -->
<g id="edge4" class="edge"><title>Node1&#45;&gt;Node5</title>
<path fill="none" stroke="midnightblue" d="M161.544,-78.995C170.166,-78.0189 179.037,-77.0146 187.91,-76.0102"/>
<polygon fill="midnightblue" stroke="midnightblue" points="188.371,-79.4805 197.914,-74.8777 187.583,-72.5249 188.371,-79.4805"/>
</g>
<!-- Node6 -->
<g id="node6" class="node"><title>Node6</title>
<g id="a_node6"><a xlink:href="../../d5/d62/classcommands_1_1templates_1_1_command.html#a632193b631b368f6ffbc514865f062e5" target="_top" xlink:title="commands.templates.Command.set\lValue">
<polygon fill="white" stroke="black" points="198,-0 198,-30 392,-30 392,-0 198,-0"/>
<text text-anchor="start" x="206" y="-18" font-family="Helvetica,sans-Serif" font-size="10.00">commands.templates.Command.set</text>
<text text-anchor="middle" x="295" y="-7" font-family="Helvetica,sans-Serif" font-size="10.00">Value</text>
</a>
</g>
</g>
<!-- Node1&#45;&gt;Node6 -->
<g id="edge5" class="edge"><title>Node1&#45;&gt;Node6</title>
<path fill="none" stroke="midnightblue" d="M115.041,-72.9018C138.003,-62.7637 169.484,-49.5625 198,-40 205.546,-37.4697 213.495,-35.0382 221.457,-32.7524"/>
<polygon fill="midnightblue" stroke="midnightblue" points="222.462,-36.1057 231.149,-30.0396 220.575,-29.3648 222.462,-36.1057"/>
</g>
<!-- Node3 -->
<g id="node3" class="node"><title>Node3</title>
<g id="a_node3"><a xlink:href="../../d9/d98/classback_end_1_1_model.html#a1f54b1acaee5f2f608376ce454fa82f2" target="_top" xlink:title="backEnd.Model.getTurtleManager">
<polygon fill="white" stroke="black" points="428.5,-152.5 428.5,-171.5 603.5,-171.5 603.5,-152.5 428.5,-152.5"/>
<text text-anchor="middle" x="516" y="-159.5" font-family="Helvetica,sans-Serif" font-size="10.00">backEnd.Model.getTurtleManager</text>
</a>
</g>
</g>
<!-- Node2&#45;&gt;Node3 -->
<g id="edge2" class="edge"><title>Node2&#45;&gt;Node3</title>
<path fill="none" stroke="midnightblue" d="M378.795,-162C391.729,-162 405.192,-162 418.402,-162"/>
<polygon fill="midnightblue" stroke="midnightblue" points="418.441,-165.5 428.44,-162 418.44,-158.5 418.441,-165.5"/>
</g>
</g>
</svg>
