<?xml version="1.0" encoding="UTF-8" standalone="no"?>
<!DOCTYPE svg PUBLIC "-//W3C//DTD SVG 1.1//EN"
 "http://www.w3.org/Graphics/SVG/1.1/DTD/svg11.dtd">
<!-- Generated by graphviz version 2.36.0 (20140111.2315)
 -->
<!-- Title: commands.turtle_commands.ClearStampCommand.execute Pages: 1 -->
<svg width="614pt" height="97pt"
 viewBox="0.00 0.00 614.00 97.00" xmlns="http://www.w3.org/2000/svg" xmlns:xlink="http://www.w3.org/1999/xlink">
<g id="graph0" class="graph" transform="scale(1 1) rotate(0) translate(4 93)">
<title>commands.turtle_commands.ClearStampCommand.execute</title>
<polygon fill="white" stroke="none" points="-4,4 -4,-93 610,-93 610,4 -4,4"/>
<!-- Node1 -->
<g id="node1" class="node"><title>Node1</title>
<polygon fill="#bfbfbf" stroke="black" points="0.5,-27 0.5,-57 165.5,-57 165.5,-27 0.5,-27"/>
<text text-anchor="start" x="8.5" y="-45" font-family="Helvetica,sans-Serif" font-size="10.00">commands.turtle_commands.</text>
<text text-anchor="middle" x="83" y="-34" font-family="Helvetica,sans-Serif" font-size="10.00">ClearStampCommand.execute</text>
</g>
<!-- Node2 -->
<g id="node2" class="node"><title>Node2</title>
<g id="a_node2"><a xlink:href="../../d4/d6b/classcommands_1_1turtle__commands_1_1_clear_stamp_command.html#a0a32655fe4d0658f7f2e5b61346111f0" target="_top" xlink:title="commands.turtle_commands.\lClearStampCommand.executeTurtle\lCommand">
<polygon fill="white" stroke="black" points="202.5,-48.5 202.5,-89.5 393.5,-89.5 393.5,-48.5 202.5,-48.5"/>
<text text-anchor="start" x="210.5" y="-77.5" font-family="Helvetica,sans-Serif" font-size="10.00">commands.turtle_commands.</text>
<text text-anchor="start" x="210.5" y="-66.5" font-family="Helvetica,sans-Serif" font-size="10.00">ClearStampCommand.executeTurtle</text>
<text text-anchor="middle" x="298" y="-55.5" font-family="Helvetica,sans-Serif" font-size="10.00">Command</text>
</a>
</g>
</g>
<!-- Node1&#45;&gt;Node2 -->
<g id="edge1" class="edge"><title>Node1&#45;&gt;Node2</title>
<path fill="none" stroke="midnightblue" d="M165.742,-52.3617C174.437,-53.4638 183.364,-54.5954 192.275,-55.725"/>
<polygon fill="midnightblue" stroke="midnightblue" points="191.954,-59.2123 202.315,-56.9977 192.835,-52.2679 191.954,-59.2123"/>
</g>
<!-- Node4 -->
<g id="node4" class="node"><title>Node4</title>
<g id="a_node4"><a xlink:href="../../dc/d36/classcommands_1_1templates_1_1_turtle_command.html#ae4d2a640c2db20e624d831deed30484d" target="_top" xlink:title="commands.templates.Turtle\lCommand.getMyTurtleManager">
<polygon fill="white" stroke="black" points="214.5,-0 214.5,-30 381.5,-30 381.5,-0 214.5,-0"/>
<text text-anchor="start" x="222.5" y="-18" font-family="Helvetica,sans-Serif" font-size="10.00">commands.templates.Turtle</text>
<text text-anchor="middle" x="298" y="-7" font-family="Helvetica,sans-Serif" font-size="10.00">Command.getMyTurtleManager</text>
</a>
</g>
</g>
<!-- Node1&#45;&gt;Node4 -->
<g id="edge3" class="edge"><title>Node1&#45;&gt;Node4</title>
<path fill="none" stroke="midnightblue" d="M165.742,-31.6383C178.332,-30.0424 191.41,-28.3846 204.22,-26.7609"/>
<polygon fill="midnightblue" stroke="midnightblue" points="204.94,-30.1977 214.42,-25.4679 204.059,-23.2533 204.94,-30.1977"/>
</g>
<!-- Node3 -->
<g id="node3" class="node"><title>Node3</title>
<g id="a_node3"><a xlink:href="../../d4/d07/classback_end_1_1turtle_1_1_turtle_manager.html#abd8e7545c1f29c7714bc7aaf59d3875b" target="_top" xlink:title="backEnd.turtle.TurtleManager.get\lTurtleList">
<polygon fill="white" stroke="black" points="431,-54 431,-84 605,-84 605,-54 431,-54"/>
<text text-anchor="start" x="439" y="-72" font-family="Helvetica,sans-Serif" font-size="10.00">backEnd.turtle.TurtleManager.get</text>
<text text-anchor="middle" x="518" y="-61" font-family="Helvetica,sans-Serif" font-size="10.00">TurtleList</text>
</a>
</g>
</g>
<!-- Node2&#45;&gt;Node3 -->
<g id="edge2" class="edge"><title>Node2&#45;&gt;Node3</title>
<path fill="none" stroke="midnightblue" d="M393.667,-69C402.683,-69 411.833,-69 420.863,-69"/>
<polygon fill="midnightblue" stroke="midnightblue" points="420.995,-72.5001 430.995,-69 420.995,-65.5001 420.995,-72.5001"/>
</g>
<!-- Node5 -->
<g id="node5" class="node"><title>Node5</title>
<g id="a_node5"><a xlink:href="../../d9/d98/classback_end_1_1_model.html#a1f54b1acaee5f2f608376ce454fa82f2" target="_top" xlink:title="backEnd.Model.getTurtleManager">
<polygon fill="white" stroke="black" points="430.5,-5.5 430.5,-24.5 605.5,-24.5 605.5,-5.5 430.5,-5.5"/>
<text text-anchor="middle" x="518" y="-12.5" font-family="Helvetica,sans-Serif" font-size="10.00">backEnd.Model.getTurtleManager</text>
</a>
</g>
</g>
<!-- Node4&#45;&gt;Node5 -->
<g id="edge4" class="edge"><title>Node4&#45;&gt;Node5</title>
<path fill="none" stroke="midnightblue" d="M381.727,-15C394.273,-15 407.312,-15 420.125,-15"/>
<polygon fill="midnightblue" stroke="midnightblue" points="420.339,-18.5001 430.339,-15 420.339,-11.5001 420.339,-18.5001"/>
</g>
</g>
</svg>
