<?xml version="1.0" encoding="UTF-8" standalone="no"?>
<!DOCTYPE svg PUBLIC "-//W3C//DTD SVG 1.1//EN"
 "http://www.w3.org/Graphics/SVG/1.1/DTD/svg11.dtd">
<!-- Generated by graphviz version 2.36.0 (20140111.2315)
 -->
<!-- Title: commands.turtle_commands.TellCommand.execute Pages: 1 -->
<!--zoomable 361 -->
<svg id="main" version="1.1" xmlns="http://www.w3.org/2000/svg" xmlns:xlink="http://www.w3.org/1999/xlink" xml:space="preserve" onload="init(evt)">
<style type="text/css"><![CDATA[
.edge:hover path { stroke: red; }
.edge:hover polygon { stroke: red; fill: red; }
]]></style>
<script type="text/javascript"><![CDATA[
var edges = document.getElementsByTagName('g');
if (edges && edges.length) {
  for (var i=0;i<edges.length;i++) {
    if (edges[i].id.substr(0,4)=='edge') {
      edges[i].setAttribute('class','edge');
    }
  }
}
]]></script>
        <defs>
                <circle id="rim" cx="0" cy="0" r="7"/>
                <circle id="rim2" cx="0" cy="0" r="3.5"/>
                <g id="zoomPlus">
                        <use xlink:href="#rim" fill="#404040">
                                <set attributeName="fill" to="#808080" begin="zoomplus.mouseover" end="zoomplus.mouseout"/>
                        </use>
                        <path d="M-4,0h8M0,-4v8" fill="none" stroke="white" stroke-width="1.5" pointer-events="none"/>
                </g>
                <g id="zoomMin">
                        <use xlink:href="#rim" fill="#404040">
                                <set attributeName="fill" to="#808080" begin="zoomminus.mouseover" end="zoomminus.mouseout"/>
                        </use>
                        <path d="M-4,0h8" fill="none" stroke="white" stroke-width="1.5" pointer-events="none"/>
                </g>
                <g id="dirArrow">
                        <path fill="none" stroke="white" stroke-width="1.5" d="M0,-3.0v7 M-2.5,-0.5L0,-3.0L2.5,-0.5"/>
                </g>
               <g id="resetDef">
                       <use xlink:href="#rim2" fill="#404040">
                               <set attributeName="fill" to="#808080" begin="reset.mouseover" end="reset.mouseout"/>
                       </use>
               </g>
        </defs>

<script type="text/javascript">
var viewWidth = 866;
var viewHeight = 361;
var sectionId = 'dynsection-3';
</script>
<script xlink:href="../../svgpan.js"/>
<svg id="graph" class="graph">
<g id="viewport">
<title>commands.turtle_commands.TellCommand.execute</title>
<polygon fill="white" stroke="none" points="-4,4 -4,-357 862,-357 862,4 -4,4"/>
<!-- Node1 -->
<g id="node1" class="node"><title>Node1</title>
<polygon fill="#bfbfbf" stroke="black" points="0.5,-171 0.5,-201 161.5,-201 161.5,-171 0.5,-171"/>
<text text-anchor="start" x="8.5" y="-189" font-family="Helvetica,sans-Serif" font-size="10.00">commands.turtle_commands.</text>
<text text-anchor="middle" x="81" y="-178" font-family="Helvetica,sans-Serif" font-size="10.00">TellCommand.execute</text>
</g>
<!-- Node2 -->
<g id="node2" class="node"><title>Node2</title>
<g id="a_node2"><a xlink:href="../../d5/d62/classcommands_1_1templates_1_1_command.html#a8bc87b30554d28c6740a25a75b9e1a81" target="_top" xlink:title="commands.templates.Command.execute">
<polygon fill="white" stroke="black" points="198.5,-333.5 198.5,-352.5 415.5,-352.5 415.5,-333.5 198.5,-333.5"/>
<text text-anchor="middle" x="307" y="-340.5" font-family="Helvetica,sans-Serif" font-size="10.00">commands.templates.Command.execute</text>
</a>
</g>
</g>
<!-- Node1&#45;&gt;Node2 -->
<g id="edge1" class="edge"><title>Node1&#45;&gt;Node2</title>
<path fill="none" stroke="midnightblue" d="M90.165,-201.324C106.461,-230.277 145.971,-292.818 198,-323 202.523,-325.624 207.316,-327.915 212.27,-329.915"/>
<polygon fill="midnightblue" stroke="midnightblue" points="211.371,-333.311 221.965,-333.412 213.746,-326.726 211.371,-333.311"/>
</g>
<!-- Node3 -->
<g id="node3" class="node"><title>Node3</title>
<g id="a_node3"><a xlink:href="../../d4/d27/classcommands_1_1variable__commands_1_1_commands_list.html#a2877ac28fd223b0b67a32d3ed653cf5b" target="_top" xlink:title="commands.variable_commands.\lCommandsList.getChild">
<polygon fill="white" stroke="black" points="220.5,-284 220.5,-314 393.5,-314 393.5,-284 220.5,-284"/>
<text text-anchor="start" x="228.5" y="-302" font-family="Helvetica,sans-Serif" font-size="10.00">commands.variable_commands.</text>
<text text-anchor="middle" x="307" y="-291" font-family="Helvetica,sans-Serif" font-size="10.00">CommandsList.getChild</text>
</a>
</g>
</g>
<!-- Node1&#45;&gt;Node3 -->
<g id="edge2" class="edge"><title>Node1&#45;&gt;Node3</title>
<path fill="none" stroke="midnightblue" d="M98.8601,-201.01C120.419,-219.475 159.574,-250.627 198,-269 207.544,-273.563 217.904,-277.541 228.303,-280.976"/>
<polygon fill="midnightblue" stroke="midnightblue" points="227.253,-284.315 237.843,-283.98 229.356,-277.638 227.253,-284.315"/>
</g>
<!-- Node4 -->
<g id="node4" class="node"><title>Node4</title>
<g id="a_node4"><a xlink:href="../../d5/d62/classcommands_1_1templates_1_1_command.html#ae48716b79da0af7e6815fbe6fc113075" target="_top" xlink:title="commands.templates.Command.get\lMyChildren">
<polygon fill="white" stroke="black" points="452,-240 452,-270 646,-270 646,-240 452,-240"/>
<text text-anchor="start" x="460" y="-258" font-family="Helvetica,sans-Serif" font-size="10.00">commands.templates.Command.get</text>
<text text-anchor="middle" x="549" y="-247" font-family="Helvetica,sans-Serif" font-size="10.00">MyChildren</text>
</a>
</g>
</g>
<!-- Node1&#45;&gt;Node4 -->
<g id="edge4" class="edge"><title>Node1&#45;&gt;Node4</title>
<path fill="none" stroke="midnightblue" d="M110.156,-201.128C133.096,-212.648 166.697,-227.724 198,-235 278.235,-253.649 371.46,-258.17 441.514,-258.288"/>
<polygon fill="midnightblue" stroke="midnightblue" points="441.681,-261.788 451.677,-258.274 441.672,-254.788 441.681,-261.788"/>
</g>
<!-- Node5 -->
<g id="node5" class="node"><title>Node5</title>
<g id="a_node5"><a xlink:href="../../dc/d36/classcommands_1_1templates_1_1_turtle_command.html#ae4d2a640c2db20e624d831deed30484d" target="_top" xlink:title="commands.templates.Turtle\lCommand.getMyTurtleManager">
<polygon fill="white" stroke="black" points="223.5,-147 223.5,-177 390.5,-177 390.5,-147 223.5,-147"/>
<text text-anchor="start" x="231.5" y="-165" font-family="Helvetica,sans-Serif" font-size="10.00">commands.templates.Turtle</text>
<text text-anchor="middle" x="307" y="-154" font-family="Helvetica,sans-Serif" font-size="10.00">Command.getMyTurtleManager</text>
</a>
</g>
</g>
<!-- Node1&#45;&gt;Node5 -->
<g id="edge5" class="edge"><title>Node1&#45;&gt;Node5</title>
<path fill="none" stroke="midnightblue" d="M161.605,-177.471C178.319,-175.68 196.086,-173.777 213.233,-171.939"/>
<polygon fill="midnightblue" stroke="midnightblue" points="213.674,-175.412 223.244,-170.867 212.928,-168.452 213.674,-175.412"/>
</g>
<!-- Node7 -->
<g id="node7" class="node"><title>Node7</title>
<g id="a_node7"><a xlink:href="../../d4/d27/classcommands_1_1variable__commands_1_1_commands_list.html#a2f8d92d22d03bbba142a4e7af10da023" target="_top" xlink:title="commands.variable_commands.\lCommandsList.getNumChildren">
<polygon fill="white" stroke="black" points="220.5,-196 220.5,-226 393.5,-226 393.5,-196 220.5,-196"/>
<text text-anchor="start" x="228.5" y="-214" font-family="Helvetica,sans-Serif" font-size="10.00">commands.variable_commands.</text>
<text text-anchor="middle" x="307" y="-203" font-family="Helvetica,sans-Serif" font-size="10.00">CommandsList.getNumChildren</text>
</a>
</g>
</g>
<!-- Node1&#45;&gt;Node7 -->
<g id="edge7" class="edge"><title>Node1&#45;&gt;Node7</title>
<path fill="none" stroke="midnightblue" d="M161.605,-194.884C177.329,-196.639 193.986,-198.498 210.182,-200.306"/>
<polygon fill="midnightblue" stroke="midnightblue" points="209.867,-203.793 220.194,-201.423 210.644,-196.836 209.867,-203.793"/>
</g>
<!-- Node8 -->
<g id="node8" class="node"><title>Node8</title>
<g id="a_node8"><a xlink:href="../../d5/d62/classcommands_1_1templates_1_1_command.html#a97358158dd12c0a83a49df3c1e379790" target="_top" xlink:title="commands.templates.Command.get\lValue">
<polygon fill="white" stroke="black" points="210,-98 210,-128 404,-128 404,-98 210,-98"/>
<text text-anchor="start" x="218" y="-116" font-family="Helvetica,sans-Serif" font-size="10.00">commands.templates.Command.get</text>
<text text-anchor="middle" x="307" y="-105" font-family="Helvetica,sans-Serif" font-size="10.00">Value</text>
</a>
</g>
</g>
<!-- Node1&#45;&gt;Node8 -->
<g id="edge9" class="edge"><title>Node1&#45;&gt;Node8</title>
<path fill="none" stroke="midnightblue" d="M114.462,-170.876C137.429,-160.596 169.148,-147.239 198,-138 206.257,-135.356 214.952,-132.868 223.675,-130.564"/>
<polygon fill="midnightblue" stroke="midnightblue" points="224.696,-133.915 233.514,-128.042 222.958,-127.135 224.696,-133.915"/>
</g>
<!-- Node9 -->
<g id="node9" class="node"><title>Node9</title>
<g id="a_node9"><a xlink:href="../../d5/d62/classcommands_1_1templates_1_1_command.html#a632193b631b368f6ffbc514865f062e5" target="_top" xlink:title="commands.templates.Command.set\lValue">
<polygon fill="white" stroke="black" points="210,-49 210,-79 404,-79 404,-49 210,-49"/>
<text text-anchor="start" x="218" y="-67" font-family="Helvetica,sans-Serif" font-size="10.00">commands.templates.Command.set</text>
<text text-anchor="middle" x="307" y="-56" font-family="Helvetica,sans-Serif" font-size="10.00">Value</text>
</a>
</g>
</g>
<!-- Node1&#45;&gt;Node9 -->
<g id="edge10" class="edge"><title>Node1&#45;&gt;Node9</title>
<path fill="none" stroke="midnightblue" d="M95.4161,-170.997C115.535,-149.46 155.699,-110.061 198,-89 202.846,-86.5875 207.93,-84.4033 213.142,-82.4265"/>
<polygon fill="midnightblue" stroke="midnightblue" points="214.366,-85.7064 222.638,-79.0874 212.044,-79.1027 214.366,-85.7064"/>
</g>
<!-- Node10 -->
<g id="node10" class="node"><title>Node10</title>
<g id="a_node10"><a xlink:href="../../d4/d07/classback_end_1_1turtle_1_1_turtle_manager.html#ac514debd7deab42db9d2f5337359ea6a" target="_top" xlink:title="backEnd.turtle.TurtleManager.update\lActiveTurtleList">
<polygon fill="white" stroke="black" points="211,-0 211,-30 403,-30 403,-0 211,-0"/>
<text text-anchor="start" x="219" y="-18" font-family="Helvetica,sans-Serif" font-size="10.00">backEnd.turtle.TurtleManager.update</text>
<text text-anchor="middle" x="307" y="-7" font-family="Helvetica,sans-Serif" font-size="10.00">ActiveTurtleList</text>
</a>
</g>
</g>
<!-- Node1&#45;&gt;Node10 -->
<g id="edge11" class="edge"><title>Node1&#45;&gt;Node10</title>
<path fill="none" stroke="midnightblue" d="M89.4752,-170.681C105.11,-140.357 144.313,-72.7116 198,-39 200.679,-37.3179 203.46,-35.7528 206.319,-34.2968"/>
<polygon fill="midnightblue" stroke="midnightblue" points="208.051,-37.3533 215.686,-30.0077 205.137,-30.9887 208.051,-37.3533"/>
</g>
<!-- Node3&#45;&gt;Node4 -->
<g id="edge3" class="edge"><title>Node3&#45;&gt;Node4</title>
<path fill="none" stroke="midnightblue" d="M389.923,-283.981C411.237,-280.073 434.34,-275.838 456.13,-271.843"/>
<polygon fill="midnightblue" stroke="midnightblue" points="456.834,-275.272 466.039,-270.026 455.572,-268.387 456.834,-275.272"/>
</g>
<!-- Node6 -->
<g id="node6" class="node"><title>Node6</title>
<g id="a_node6"><a xlink:href="../../d9/d98/classback_end_1_1_model.html#a1f54b1acaee5f2f608376ce454fa82f2" target="_top" xlink:title="backEnd.Model.getTurtleManager">
<polygon fill="white" stroke="black" points="461.5,-152.5 461.5,-171.5 636.5,-171.5 636.5,-152.5 461.5,-152.5"/>
<text text-anchor="middle" x="549" y="-159.5" font-family="Helvetica,sans-Serif" font-size="10.00">backEnd.Model.getTurtleManager</text>
</a>
</g>
</g>
<!-- Node5&#45;&gt;Node6 -->
<g id="edge6" class="edge"><title>Node5&#45;&gt;Node6</title>
<path fill="none" stroke="midnightblue" d="M390.594,-162C410.082,-162 431.031,-162 451.087,-162"/>
<polygon fill="midnightblue" stroke="midnightblue" points="451.164,-165.5 461.164,-162 451.164,-158.5 451.164,-165.5"/>
</g>
<!-- Node7&#45;&gt;Node4 -->
<g id="edge8" class="edge"><title>Node7&#45;&gt;Node4</title>
<path fill="none" stroke="midnightblue" d="M389.923,-226.019C411.237,-229.927 434.34,-234.162 456.13,-238.157"/>
<polygon fill="midnightblue" stroke="midnightblue" points="455.572,-241.613 466.039,-239.974 456.834,-234.728 455.572,-241.613"/>
</g>
<!-- Node11 -->
<g id="node11" class="node"><title>Node11</title>
<g id="a_node11"><a xlink:href="../../d4/d07/classback_end_1_1turtle_1_1_turtle_manager.html#a84ec440cfc5cbefdfab52c661599b956" target="_top" xlink:title="backEnd.turtle.TurtleManager.create\lTurtleList">
<polygon fill="white" stroke="black" points="454.5,-0 454.5,-30 643.5,-30 643.5,-0 454.5,-0"/>
<text text-anchor="start" x="462.5" y="-18" font-family="Helvetica,sans-Serif" font-size="10.00">backEnd.turtle.TurtleManager.create</text>
<text text-anchor="middle" x="549" y="-7" font-family="Helvetica,sans-Serif" font-size="10.00">TurtleList</text>
</a>
</g>
</g>
<!-- Node10&#45;&gt;Node11 -->
<g id="edge12" class="edge"><title>Node10&#45;&gt;Node11</title>
<path fill="none" stroke="midnightblue" d="M403.199,-15C416.652,-15 430.54,-15 444.146,-15"/>
<polygon fill="midnightblue" stroke="midnightblue" points="444.484,-18.5001 454.484,-15 444.484,-11.5001 444.484,-18.5001"/>
</g>
<!-- Node12 -->
<g id="node12" class="node"><title>Node12</title>
<g id="a_node12"><a xlink:href="../../d4/d07/classback_end_1_1turtle_1_1_turtle_manager.html#a7c50d7becc5092e99d3eff1d6fc2d1f6" target="_top" xlink:title="backEnd.turtle.TurtleManager.add\lNewTurtle">
<polygon fill="white" stroke="black" points="682,-0 682,-30 858,-30 858,-0 682,-0"/>
<text text-anchor="start" x="690" y="-18" font-family="Helvetica,sans-Serif" font-size="10.00">backEnd.turtle.TurtleManager.add</text>
<text text-anchor="middle" x="770" y="-7" font-family="Helvetica,sans-Serif" font-size="10.00">NewTurtle</text>
</a>
</g>
</g>
<!-- Node11&#45;&gt;Node12 -->
<g id="edge13" class="edge"><title>Node11&#45;&gt;Node12</title>
<path fill="none" stroke="midnightblue" d="M643.511,-15C652.817,-15 662.28,-15 671.625,-15"/>
<polygon fill="midnightblue" stroke="midnightblue" points="671.704,-18.5001 681.704,-15 671.704,-11.5001 671.704,-18.5001"/>
</g>
</g>
</svg>
        <g id="navigator" transform="translate(0 0)" fill="#404254">
                <rect fill="#f2f5e9" fill-opacity="0.5" stroke="#606060" stroke-width=".5" x="0" y="0" width="60" height="60"/>
                <use id="zoomplus" xlink:href="#zoomPlus" x="17" y="9" onmousedown="handleZoom(evt,'in')"/>
                <use id="zoomminus" xlink:href="#zoomMin" x="42" y="9" onmousedown="handleZoom(evt,'out')"/>
                <use id="reset" xlink:href="#resetDef" x="30" y="36" onmousedown="handleReset()"/>
                <g id="arrowUp" xlink:href="#dirArrow" transform="translate(30 24)" onmousedown="handlePan(0,-1)">
                  <use xlink:href="#rim" fill="#404040">
                        <set attributeName="fill" to="#808080" begin="arrowUp.mouseover" end="arrowUp.mouseout"/>
                  </use>
                  <path fill="none" stroke="white" stroke-width="1.5" d="M0,-3.0v7 M-2.5,-0.5L0,-3.0L2.5,-0.5"/>
                </g>
                <g id="arrowRight" xlink:href="#dirArrow" transform="rotate(90) translate(36 -43)" onmousedown="handlePan(1,0)">
                  <use xlink:href="#rim" fill="#404040">
                        <set attributeName="fill" to="#808080" begin="arrowRight.mouseover" end="arrowRight.mouseout"/>
                  </use>
                  <path fill="none" stroke="white" stroke-width="1.5" d="M0,-3.0v7 M-2.5,-0.5L0,-3.0L2.5,-0.5"/>
                </g>
                <g id="arrowDown" xlink:href="#dirArrow" transform="rotate(180) translate(-30 -48)" onmousedown="handlePan(0,1)">
                  <use xlink:href="#rim" fill="#404040">
                        <set attributeName="fill" to="#808080" begin="arrowDown.mouseover" end="arrowDown.mouseout"/>
                  </use>
                  <path fill="none" stroke="white" stroke-width="1.5" d="M0,-3.0v7 M-2.5,-0.5L0,-3.0L2.5,-0.5"/>
                </g>
                <g id="arrowLeft" xlink:href="#dirArrow" transform="rotate(270) translate(-36 17)" onmousedown="handlePan(-1,0)">
                  <use xlink:href="#rim" fill="#404040">
                        <set attributeName="fill" to="#808080" begin="arrowLeft.mouseover" end="arrowLeft.mouseout"/>
                  </use>
                  <path fill="none" stroke="white" stroke-width="1.5" d="M0,-3.0v7 M-2.5,-0.5L0,-3.0L2.5,-0.5"/>
                </g>
        </g>
        <svg viewBox="0 0 15 15" width="100%" height="30px" preserveAspectRatio="xMaxYMin meet">
         <g id="arrow_out" transform="scale(0.3 0.3)">
          <a xlink:href="classcommands_1_1turtle__commands_1_1_tell_command_a5b187b4609637fee3e88d2a51681db1a_cgraph_org.svg" target="_base">
           <rect id="button" ry="5" rx="5" y="6" x="6" height="38" width="38"
                fill="#f2f5e9" fill-opacity="0.5" stroke="#606060" stroke-width="1.0"/>
           <path id="arrow"
             d="M 11.500037,31.436501 C 11.940474,20.09759 22.043105,11.32322 32.158766,21.979434 L 37.068811,17.246167 C 37.068811,17.246167 37.088388,32 37.088388,32 L 22.160133,31.978069 C 22.160133,31.978069 26.997745,27.140456 26.997745,27.140456 C 18.528582,18.264221 13.291696,25.230495 11.500037,31.436501 z"
             style="fill:#404040;"/>
          </a>
         </g>
        </svg>
</svg>
