<?xml version="1.0" encoding="UTF-8" standalone="no"?>
<!DOCTYPE svg PUBLIC "-//W3C//DTD SVG 1.1//EN"
 "http://www.w3.org/Graphics/SVG/1.1/DTD/svg11.dtd">
<!-- Generated by graphviz version 2.36.0 (20140111.2315)
 -->
<!-- Title: exceptions.InvalidInputException Pages: 1 -->
<svg width="196pt" height="154pt"
 viewBox="0.00 0.00 196.00 154.00" xmlns="http://www.w3.org/2000/svg" xmlns:xlink="http://www.w3.org/1999/xlink">
<g id="graph0" class="graph" transform="scale(1 1) rotate(0) translate(4 150)">
<title>exceptions.InvalidInputException</title>
<polygon fill="white" stroke="none" points="-4,4 -4,-150 192,-150 192,4 -4,4"/>
<!-- Node1 -->
<g id="node1" class="node"><title>Node1</title>
<polygon fill="#bfbfbf" stroke="black" points="16,-0.5 16,-19.5 188,-19.5 188,-0.5 16,-0.5"/>
<text text-anchor="middle" x="102" y="-7.5" font-family="Helvetica,sans-Serif" font-size="10.00">exceptions.InvalidInputException</text>
</g>
<!-- Node2 -->
<g id="node2" class="node"><title>Node2</title>
<g id="a_node2"><a xlink:href="../../dc/db4/classexceptions_1_1_s_logo_exception.html" target="_top" xlink:title="exceptions.SLogoException">
<polygon fill="white" stroke="black" points="28,-58.5 28,-77.5 176,-77.5 176,-58.5 28,-58.5"/>
<text text-anchor="middle" x="102" y="-65.5" font-family="Helvetica,sans-Serif" font-size="10.00">exceptions.SLogoException</text>
</a>
</g>
</g>
<!-- Node2&#45;&gt;Node1 -->
<g id="edge1" class="edge"><title>Node2&#45;&gt;Node1</title>
<path fill="none" stroke="midnightblue" d="M102,-47.953C102,-38.2875 102,-27.0312 102,-19.5052"/>
<polygon fill="midnightblue" stroke="midnightblue" points="98.5001,-48.25 102,-58.25 105.5,-48.25 98.5001,-48.25"/>
</g>
<!-- Node3 -->
<g id="node3" class="node"><title>Node3</title>
<polygon fill="white" stroke="#bfbfbf" points="0,-126.5 0,-145.5 102,-145.5 102,-126.5 0,-126.5"/>
<text text-anchor="middle" x="51" y="-133.5" font-family="Helvetica,sans-Serif" font-size="10.00">RuntimeException</text>
</g>
<!-- Node3&#45;&gt;Node2 -->
<g id="edge2" class="edge"><title>Node3&#45;&gt;Node2</title>
<path fill="none" stroke="midnightblue" d="M63.8967,-118.31C73.8389,-105.444 87.1958,-88.1583 95.1682,-77.8411"/>
<polygon fill="midnightblue" stroke="midnightblue" points="61.0124,-116.319 57.6674,-126.372 66.5514,-120.599 61.0124,-116.319"/>
</g>
<!-- Node4 -->
<g id="node4" class="node"><title>Node4</title>
<polygon fill="white" stroke="#bfbfbf" points="120.5,-126.5 120.5,-145.5 185.5,-145.5 185.5,-126.5 120.5,-126.5"/>
<text text-anchor="middle" x="153" y="-133.5" font-family="Helvetica,sans-Serif" font-size="10.00">Formatter</text>
</g>
<!-- Node4&#45;&gt;Node2 -->
<g id="edge3" class="edge"><title>Node4&#45;&gt;Node2</title>
<path fill="none" stroke="#9a32cd" stroke-dasharray="5,2" d="M140.103,-118.31C130.161,-105.444 116.804,-88.1583 108.832,-77.8411"/>
<polygon fill="#9a32cd" stroke="#9a32cd" points="137.449,-120.599 146.333,-126.372 142.988,-116.319 137.449,-120.599"/>
<text text-anchor="middle" x="157.5" y="-99.5" font-family="Helvetica,sans-Serif" font-size="10.00"> formatter</text>
</g>
</g>
</svg>
