<?xml version="1.0" encoding="UTF-8" standalone="no"?>
<!DOCTYPE svg PUBLIC "-//W3C//DTD SVG 1.1//EN"
 "http://www.w3.org/Graphics/SVG/1.1/DTD/svg11.dtd">
<!-- Generated by graphviz version 2.36.0 (20140111.2315)
 -->
<!-- Title: commands.onechild.NotCommand Pages: 1 -->
<svg width="354pt" height="304pt"
 viewBox="0.00 0.00 354.00 304.00" xmlns="http://www.w3.org/2000/svg" xmlns:xlink="http://www.w3.org/1999/xlink">
<g id="graph0" class="graph" transform="scale(1 1) rotate(0) translate(4 300)">
<title>commands.onechild.NotCommand</title>
<polygon fill="white" stroke="none" points="-4,4 -4,-300 350,-300 350,4 -4,4"/>
<!-- Node1 -->
<g id="node1" class="node"><title>Node1</title>
<polygon fill="#bfbfbf" stroke="black" points="45,-0.5 45,-19.5 229,-19.5 229,-0.5 45,-0.5"/>
<text text-anchor="middle" x="137" y="-7.5" font-family="Helvetica,sans-Serif" font-size="10.00">commands.onechild.NotCommand</text>
</g>
<!-- Node2 -->
<g id="node2" class="node"><title>Node2</title>
<g id="a_node2"><a xlink:href="../../dc/d65/classcommands_1_1templates_1_1_one_child_command.html" target="_top" xlink:title="commands.templates.OneChild\lCommand">
<polygon fill="white" stroke="black" points="53,-59 53,-89 221,-89 221,-59 53,-59"/>
<text text-anchor="start" x="61" y="-77" font-family="Helvetica,sans-Serif" font-size="10.00">commands.templates.OneChild</text>
<text text-anchor="middle" x="137" y="-66" font-family="Helvetica,sans-Serif" font-size="10.00">Command</text>
</a>
</g>
</g>
<!-- Node2&#45;&gt;Node1 -->
<g id="edge1" class="edge"><title>Node2&#45;&gt;Node1</title>
<path fill="none" stroke="midnightblue" d="M137,-48.8706C137,-38.6625 137,-27.4077 137,-19.8419"/>
<polygon fill="midnightblue" stroke="midnightblue" points="133.5,-48.9312 137,-58.9312 140.5,-48.9313 133.5,-48.9312"/>
</g>
<!-- Node3 -->
<g id="node3" class="node"><title>Node3</title>
<g id="a_node3"><a xlink:href="../../d5/d62/classcommands_1_1templates_1_1_command.html" target="_top" xlink:title="commands.templates.Command">
<polygon fill="white" stroke="black" points="49,-128.5 49,-147.5 225,-147.5 225,-128.5 49,-128.5"/>
<text text-anchor="middle" x="137" y="-135.5" font-family="Helvetica,sans-Serif" font-size="10.00">commands.templates.Command</text>
</a>
</g>
</g>
<!-- Node3&#45;&gt;Node2 -->
<g id="edge2" class="edge"><title>Node3&#45;&gt;Node2</title>
<path fill="none" stroke="midnightblue" d="M137,-118.183C137,-108.886 137,-97.8507 137,-89.263"/>
<polygon fill="midnightblue" stroke="midnightblue" points="133.5,-118.379 137,-128.379 140.5,-118.379 133.5,-118.379"/>
</g>
<!-- Node4 -->
<g id="node4" class="node"><title>Node4</title>
<polygon fill="white" stroke="#bfbfbf" points="-0.5,-197 -0.5,-227 152.5,-227 152.5,-197 -0.5,-197"/>
<text text-anchor="start" x="7.5" y="-215" font-family="Helvetica,sans-Serif" font-size="10.00">List&lt; commands.templates.</text>
<text text-anchor="middle" x="76" y="-204" font-family="Helvetica,sans-Serif" font-size="10.00">Command &gt;</text>
</g>
<!-- Node4&#45;&gt;Node3 -->
<g id="edge3" class="edge"><title>Node4&#45;&gt;Node3</title>
<path fill="none" stroke="#9a32cd" stroke-dasharray="5,2" d="M94.5922,-189.055C106.364,-175.16 120.943,-157.952 129.579,-147.759"/>
<polygon fill="#9a32cd" stroke="#9a32cd" points="91.8454,-186.883 88.0516,-196.775 97.1863,-191.408 91.8454,-186.883"/>
<text text-anchor="middle" x="143" y="-169.5" font-family="Helvetica,sans-Serif" font-size="10.00"> myChildren</text>
</g>
<!-- Node5 -->
<g id="node5" class="node"><title>Node5</title>
<g id="a_node5"><a xlink:href="../../d8/d6a/classback_end_1_1_variable_manager.html" target="_top" xlink:title="backEnd.VariableManager">
<polygon fill="white" stroke="black" points="171,-202.5 171,-221.5 311,-221.5 311,-202.5 171,-202.5"/>
<text text-anchor="middle" x="241" y="-209.5" font-family="Helvetica,sans-Serif" font-size="10.00">backEnd.VariableManager</text>
</a>
</g>
</g>
<!-- Node5&#45;&gt;Node3 -->
<g id="edge4" class="edge"><title>Node5&#45;&gt;Node3</title>
<path fill="none" stroke="#9a32cd" stroke-dasharray="5,2" d="M220.326,-196.687C199.118,-182.005 166.827,-159.65 149.323,-147.531"/>
<polygon fill="#9a32cd" stroke="#9a32cd" points="218.447,-199.643 228.661,-202.458 222.432,-193.888 218.447,-199.643"/>
<text text-anchor="middle" x="242.5" y="-169.5" font-family="Helvetica,sans-Serif" font-size="10.00"> myVariableManager</text>
</g>
<!-- Node6 -->
<g id="node6" class="node"><title>Node6</title>
<polygon fill="white" stroke="#bfbfbf" points="124.5,-276.5 124.5,-295.5 239.5,-295.5 239.5,-276.5 124.5,-276.5"/>
<text text-anchor="middle" x="182" y="-283.5" font-family="Helvetica,sans-Serif" font-size="10.00">Stack&lt; Properties &gt;</text>
</g>
<!-- Node6&#45;&gt;Node5 -->
<g id="edge5" class="edge"><title>Node6&#45;&gt;Node5</title>
<path fill="none" stroke="#9a32cd" stroke-dasharray="5,2" d="M176.228,-266.421C175.178,-259.581 175.375,-252.036 179,-246 185.969,-234.397 198.55,-226.652 210.567,-221.6"/>
<polygon fill="#9a32cd" stroke="#9a32cd" points="172.855,-267.365 178.589,-276.274 179.662,-265.733 172.855,-267.365"/>
<text text-anchor="middle" x="226" y="-249.5" font-family="Helvetica,sans-Serif" font-size="10.00"> myStoredVariables</text>
</g>
<!-- Node7 -->
<g id="node7" class="node"><title>Node7</title>
<polygon fill="white" stroke="#bfbfbf" points="266.5,-276.5 266.5,-295.5 331.5,-295.5 331.5,-276.5 266.5,-276.5"/>
<text text-anchor="middle" x="299" y="-283.5" font-family="Helvetica,sans-Serif" font-size="10.00">Properties</text>
</g>
<!-- Node7&#45;&gt;Node5 -->
<g id="edge6" class="edge"><title>Node7&#45;&gt;Node5</title>
<path fill="none" stroke="#9a32cd" stroke-dasharray="5,2" d="M290.487,-267.199C286.791,-260.271 282.133,-252.462 277,-246 269.723,-236.838 259.83,-227.964 252.257,-221.731"/>
<polygon fill="#9a32cd" stroke="#9a32cd" points="287.528,-269.104 295.155,-276.458 293.779,-265.953 287.528,-269.104"/>
<text text-anchor="middle" x="315" y="-249.5" font-family="Helvetica,sans-Serif" font-size="10.00"> myVariables</text>
</g>
</g>
</svg>
