<?xml version="1.0" encoding="UTF-8" standalone="no"?>
<!DOCTYPE svg PUBLIC "-//W3C//DTD SVG 1.1//EN"
 "http://www.w3.org/Graphics/SVG/1.1/DTD/svg11.dtd">
<!-- Generated by graphviz version 2.36.0 (20140111.2315)
 -->
<!-- Title: commands.variable_commands.UserInputCommand.getParameterList Pages: 1 -->
<svg width="484pt" height="38pt"
 viewBox="0.00 0.00 484.00 38.00" xmlns="http://www.w3.org/2000/svg" xmlns:xlink="http://www.w3.org/1999/xlink">
<g id="graph0" class="graph" transform="scale(1 1) rotate(0) translate(4 34)">
<title>commands.variable_commands.UserInputCommand.getParameterList</title>
<polygon fill="white" stroke="none" points="-4,4 -4,-34 480,-34 480,4 -4,4"/>
<!-- Node1 -->
<g id="node1" class="node"><title>Node1</title>
<polygon fill="#bfbfbf" stroke="black" points="0.5,-0 0.5,-30 199.5,-30 199.5,-0 0.5,-0"/>
<text text-anchor="start" x="8.5" y="-18" font-family="Helvetica,sans-Serif" font-size="10.00">commands.variable_commands.</text>
<text text-anchor="middle" x="100" y="-7" font-family="Helvetica,sans-Serif" font-size="10.00">UserInputCommand.getParameterList</text>
</g>
<!-- Node2 -->
<g id="node2" class="node"><title>Node2</title>
<g id="a_node2"><a xlink:href="../../d4/d35/classcommands_1_1variable__commands_1_1_user_defined_command.html#a159ede425568cf68cd95d2fc3b52cbcc" target="_top" xlink:title="commands.variable_commands.\lUserDefinedCommand.UserDefinedCommand">
<polygon fill="white" stroke="black" points="236.5,-0 236.5,-30 475.5,-30 475.5,-0 236.5,-0"/>
<text text-anchor="start" x="244.5" y="-18" font-family="Helvetica,sans-Serif" font-size="10.00">commands.variable_commands.</text>
<text text-anchor="middle" x="356" y="-7" font-family="Helvetica,sans-Serif" font-size="10.00">UserDefinedCommand.UserDefinedCommand</text>
</a>
</g>
</g>
<!-- Node1&#45;&gt;Node2 -->
<g id="edge1" class="edge"><title>Node1&#45;&gt;Node2</title>
<path fill="none" stroke="midnightblue" d="M209.76,-15C218.497,-15 227.353,-15 236.156,-15"/>
<polygon fill="midnightblue" stroke="midnightblue" points="209.567,-11.5001 199.567,-15 209.567,-18.5001 209.567,-11.5001"/>
</g>
</g>
</svg>
