<?xml version="1.0" encoding="UTF-8" standalone="no"?>
<!DOCTYPE svg PUBLIC "-//W3C//DTD SVG 1.1//EN"
 "http://www.w3.org/Graphics/SVG/1.1/DTD/svg11.dtd">
<!-- Generated by graphviz version 2.36.0 (20140111.2315)
 -->
<!-- Title: commands.variable_commands.UserInputCommand.execute Pages: 1 -->
<svg width="636pt" height="175pt"
 viewBox="0.00 0.00 636.00 175.00" xmlns="http://www.w3.org/2000/svg" xmlns:xlink="http://www.w3.org/1999/xlink">
<g id="graph0" class="graph" transform="scale(1 1) rotate(0) translate(4 171)">
<title>commands.variable_commands.UserInputCommand.execute</title>
<polygon fill="white" stroke="none" points="-4,4 -4,-171 632,-171 632,4 -4,4"/>
<!-- Node1 -->
<g id="node1" class="node"><title>Node1</title>
<polygon fill="#bfbfbf" stroke="black" points="0.5,-71 0.5,-101 173.5,-101 173.5,-71 0.5,-71"/>
<text text-anchor="start" x="8.5" y="-89" font-family="Helvetica,sans-Serif" font-size="10.00">commands.variable_commands.</text>
<text text-anchor="middle" x="87" y="-78" font-family="Helvetica,sans-Serif" font-size="10.00">UserInputCommand.execute</text>
</g>
<!-- Node2 -->
<g id="node2" class="node"><title>Node2</title>
<g id="a_node2"><a xlink:href="../../d4/d27/classcommands_1_1variable__commands_1_1_commands_list.html#a2877ac28fd223b0b67a32d3ed653cf5b" target="_top" xlink:title="commands.variable_commands.\lCommandsList.getChild">
<polygon fill="white" stroke="black" points="217.5,-137 217.5,-167 390.5,-167 390.5,-137 217.5,-137"/>
<text text-anchor="start" x="225.5" y="-155" font-family="Helvetica,sans-Serif" font-size="10.00">commands.variable_commands.</text>
<text text-anchor="middle" x="304" y="-144" font-family="Helvetica,sans-Serif" font-size="10.00">CommandsList.getChild</text>
</a>
</g>
</g>
<!-- Node1&#45;&gt;Node2 -->
<g id="edge1" class="edge"><title>Node1&#45;&gt;Node2</title>
<path fill="none" stroke="midnightblue" d="M137.056,-101.059C168.866,-110.824 210.485,-123.6 244.085,-133.914"/>
<polygon fill="midnightblue" stroke="midnightblue" points="243.196,-137.303 253.783,-136.892 245.251,-130.611 243.196,-137.303"/>
</g>
<!-- Node3 -->
<g id="node3" class="node"><title>Node3</title>
<g id="a_node3"><a xlink:href="../../d5/d62/classcommands_1_1templates_1_1_command.html#ae48716b79da0af7e6815fbe6fc113075" target="_top" xlink:title="commands.templates.Command.get\lMyChildren">
<polygon fill="white" stroke="black" points="434,-93 434,-123 628,-123 628,-93 434,-93"/>
<text text-anchor="start" x="442" y="-111" font-family="Helvetica,sans-Serif" font-size="10.00">commands.templates.Command.get</text>
<text text-anchor="middle" x="531" y="-100" font-family="Helvetica,sans-Serif" font-size="10.00">MyChildren</text>
</a>
</g>
</g>
<!-- Node1&#45;&gt;Node3 -->
<g id="edge3" class="edge"><title>Node1&#45;&gt;Node3</title>
<path fill="none" stroke="midnightblue" d="M173.746,-90.2679C245.103,-93.8196 347.028,-98.8928 423.589,-102.704"/>
<polygon fill="midnightblue" stroke="midnightblue" points="423.581,-106.207 433.742,-103.209 423.929,-99.216 423.581,-106.207"/>
</g>
<!-- Node4 -->
<g id="node4" class="node"><title>Node4</title>
<g id="a_node4"><a xlink:href="../../d4/d27/classcommands_1_1variable__commands_1_1_commands_list.html#a2f8d92d22d03bbba142a4e7af10da023" target="_top" xlink:title="commands.variable_commands.\lCommandsList.getNumChildren">
<polygon fill="white" stroke="black" points="217.5,-49 217.5,-79 390.5,-79 390.5,-49 217.5,-49"/>
<text text-anchor="start" x="225.5" y="-67" font-family="Helvetica,sans-Serif" font-size="10.00">commands.variable_commands.</text>
<text text-anchor="middle" x="304" y="-56" font-family="Helvetica,sans-Serif" font-size="10.00">CommandsList.getNumChildren</text>
</a>
</g>
</g>
<!-- Node1&#45;&gt;Node4 -->
<g id="edge4" class="edge"><title>Node1&#45;&gt;Node4</title>
<path fill="none" stroke="midnightblue" d="M173.591,-77.2418C184.619,-76.1134 195.968,-74.9521 207.147,-73.8082"/>
<polygon fill="midnightblue" stroke="midnightblue" points="207.76,-77.2638 217.352,-72.764 207.047,-70.3002 207.76,-77.2638"/>
</g>
<!-- Node5 -->
<g id="node5" class="node"><title>Node5</title>
<g id="a_node5"><a xlink:href="../../d5/d62/classcommands_1_1templates_1_1_command.html#aa1c27b6285999798be609159ee5c7a83" target="_top" xlink:title="commands.templates.Command.to\lString">
<polygon fill="white" stroke="black" points="210,-0 210,-30 398,-30 398,-0 210,-0"/>
<text text-anchor="start" x="218" y="-18" font-family="Helvetica,sans-Serif" font-size="10.00">commands.templates.Command.to</text>
<text text-anchor="middle" x="304" y="-7" font-family="Helvetica,sans-Serif" font-size="10.00">String</text>
</a>
</g>
</g>
<!-- Node1&#45;&gt;Node5 -->
<g id="edge6" class="edge"><title>Node1&#45;&gt;Node5</title>
<path fill="none" stroke="midnightblue" d="M125.043,-70.9517C149.055,-61.4665 181.128,-49.299 210,-40 217.693,-37.5221 225.798,-35.0886 233.883,-32.7709"/>
<polygon fill="midnightblue" stroke="midnightblue" points="235.03,-36.0843 243.708,-30.0063 233.133,-29.346 235.03,-36.0843"/>
</g>
<!-- Node2&#45;&gt;Node3 -->
<g id="edge2" class="edge"><title>Node2&#45;&gt;Node3</title>
<path fill="none" stroke="midnightblue" d="M381.803,-136.981C401.605,-133.108 423.053,-128.914 443.32,-124.951"/>
<polygon fill="midnightblue" stroke="midnightblue" points="444.019,-128.38 453.161,-123.026 442.676,-121.511 444.019,-128.38"/>
</g>
<!-- Node4&#45;&gt;Node3 -->
<g id="edge5" class="edge"><title>Node4&#45;&gt;Node3</title>
<path fill="none" stroke="midnightblue" d="M381.803,-79.0192C401.605,-82.8916 423.053,-87.086 443.32,-91.0492"/>
<polygon fill="midnightblue" stroke="midnightblue" points="442.676,-94.4894 453.161,-92.9738 444.019,-87.6196 442.676,-94.4894"/>
</g>
</g>
</svg>
