<?xml version="1.0" encoding="UTF-8" standalone="no"?>
<!DOCTYPE svg PUBLIC "-//W3C//DTD SVG 1.1//EN"
 "http://www.w3.org/Graphics/SVG/1.1/DTD/svg11.dtd">
<!-- Generated by graphviz version 2.36.0 (20140111.2315)
 -->
<!-- Title: frontEnd.TurtleCanvas.makeRect Pages: 1 -->
<svg width="544pt" height="87pt"
 viewBox="0.00 0.00 544.00 87.00" xmlns="http://www.w3.org/2000/svg" xmlns:xlink="http://www.w3.org/1999/xlink">
<g id="graph0" class="graph" transform="scale(1 1) rotate(0) translate(4 83)">
<title>frontEnd.TurtleCanvas.makeRect</title>
<polygon fill="white" stroke="none" points="-4,4 -4,-83 540,-83 540,4 -4,4"/>
<!-- Node1 -->
<g id="node1" class="node"><title>Node1</title>
<polygon fill="#bfbfbf" stroke="black" points="0.5,-29.5 0.5,-48.5 171.5,-48.5 171.5,-29.5 0.5,-29.5"/>
<text text-anchor="middle" x="86" y="-36.5" font-family="Helvetica,sans-Serif" font-size="10.00">frontEnd.TurtleCanvas.makeRect</text>
</g>
<!-- Node2 -->
<g id="node2" class="node"><title>Node2</title>
<g id="a_node2"><a xlink:href="../../d5/df1/classfront_end_1_1_turtle_canvas.html#a0c5ce5c37d373fa022bb529ca9eefccb" target="_top" xlink:title="frontEnd.TurtleCanvas.add\lBackground">
<polygon fill="white" stroke="black" points="208,-49 208,-79 350,-79 350,-49 208,-49"/>
<text text-anchor="start" x="216" y="-67" font-family="Helvetica,sans-Serif" font-size="10.00">frontEnd.TurtleCanvas.add</text>
<text text-anchor="middle" x="279" y="-56" font-family="Helvetica,sans-Serif" font-size="10.00">Background</text>
</a>
</g>
</g>
<!-- Node1&#45;&gt;Node2 -->
<g id="edge1" class="edge"><title>Node1&#45;&gt;Node2</title>
<path fill="none" stroke="midnightblue" d="M169.861,-49.8457C182.567,-51.5088 195.577,-53.2116 207.97,-54.8337"/>
<polygon fill="midnightblue" stroke="midnightblue" points="170.123,-46.3503 159.754,-48.5227 169.215,-53.2911 170.123,-46.3503"/>
</g>
<!-- Node4 -->
<g id="node4" class="node"><title>Node4</title>
<g id="a_node4"><a xlink:href="../../d5/df1/classfront_end_1_1_turtle_canvas.html#ac8f759ace719dd4f3b3d8b7d7505df81" target="_top" xlink:title="frontEnd.TurtleCanvas.add\lClipper">
<polygon fill="white" stroke="black" points="208,-0 208,-30 350,-30 350,-0 208,-0"/>
<text text-anchor="start" x="216" y="-18" font-family="Helvetica,sans-Serif" font-size="10.00">frontEnd.TurtleCanvas.add</text>
<text text-anchor="middle" x="279" y="-7" font-family="Helvetica,sans-Serif" font-size="10.00">Clipper</text>
</a>
</g>
</g>
<!-- Node1&#45;&gt;Node4 -->
<g id="edge3" class="edge"><title>Node1&#45;&gt;Node4</title>
<path fill="none" stroke="midnightblue" d="M172.971,-28.1974C184.664,-26.7281 196.55,-25.2346 207.917,-23.8062"/>
<polygon fill="midnightblue" stroke="midnightblue" points="172.248,-24.7606 162.763,-29.4801 173.121,-31.706 172.248,-24.7606"/>
</g>
<!-- Node3 -->
<g id="node3" class="node"><title>Node3</title>
<g id="a_node3"><a xlink:href="../../d5/df1/classfront_end_1_1_turtle_canvas.html#a7e7a498220ce749030e4752620dfb2a9" target="_top" xlink:title="frontEnd.TurtleCanvas.Turtle\lCanvas">
<polygon fill="white" stroke="black" points="386.5,-24 386.5,-54 535.5,-54 535.5,-24 386.5,-24"/>
<text text-anchor="start" x="394.5" y="-42" font-family="Helvetica,sans-Serif" font-size="10.00">frontEnd.TurtleCanvas.Turtle</text>
<text text-anchor="middle" x="461" y="-31" font-family="Helvetica,sans-Serif" font-size="10.00">Canvas</text>
</a>
</g>
</g>
<!-- Node2&#45;&gt;Node3 -->
<g id="edge2" class="edge"><title>Node2&#45;&gt;Node3</title>
<path fill="none" stroke="midnightblue" d="M360.198,-52.8614C368.858,-51.6586 377.64,-50.4389 386.219,-49.2474"/>
<polygon fill="midnightblue" stroke="midnightblue" points="359.532,-49.4203 350.108,-54.2628 360.495,-56.3537 359.532,-49.4203"/>
</g>
<!-- Node4&#45;&gt;Node3 -->
<g id="edge4" class="edge"><title>Node4&#45;&gt;Node3</title>
<path fill="none" stroke="midnightblue" d="M360.198,-25.6931C368.858,-26.8477 377.64,-28.0187 386.219,-29.1625"/>
<polygon fill="midnightblue" stroke="midnightblue" points="360.483,-22.2002 350.108,-24.3477 359.558,-29.1388 360.483,-22.2002"/>
</g>
</g>
</svg>
