<?xml version="1.0" encoding="UTF-8" standalone="no"?>
<!DOCTYPE svg PUBLIC "-//W3C//DTD SVG 1.1//EN"
 "http://www.w3.org/Graphics/SVG/1.1/DTD/svg11.dtd">
<!-- Generated by graphviz version 2.36.0 (20140111.2315)
 -->
<!-- Title: frontEnd.TurtleCanvas.changeTurtleImage Pages: 1 -->
<svg width="1144pt" height="38pt"
 viewBox="0.00 0.00 1144.00 38.00" xmlns="http://www.w3.org/2000/svg" xmlns:xlink="http://www.w3.org/1999/xlink">
<g id="graph0" class="graph" transform="scale(1 1) rotate(0) translate(4 34)">
<title>frontEnd.TurtleCanvas.changeTurtleImage</title>
<polygon fill="white" stroke="none" points="-4,4 -4,-34 1140,-34 1140,4 -4,4"/>
<!-- Node1 -->
<g id="node1" class="node"><title>Node1</title>
<polygon fill="#bfbfbf" stroke="black" points="0.5,-0 0.5,-30 159.5,-30 159.5,-0 0.5,-0"/>
<text text-anchor="start" x="8.5" y="-18" font-family="Helvetica,sans-Serif" font-size="10.00">frontEnd.TurtleCanvas.change</text>
<text text-anchor="middle" x="80" y="-7" font-family="Helvetica,sans-Serif" font-size="10.00">TurtleImage</text>
</g>
<!-- Node2 -->
<g id="node2" class="node"><title>Node2</title>
<g id="a_node2"><a xlink:href="../../d8/d1f/classfront_end_1_1_view.html#ae7a2f6e6f22069bcaaf142dc37349dee" target="_top" xlink:title="frontEnd.View.changeTurtle\lImage">
<polygon fill="white" stroke="black" points="196.5,-0 196.5,-30 341.5,-30 341.5,-0 196.5,-0"/>
<text text-anchor="start" x="204.5" y="-18" font-family="Helvetica,sans-Serif" font-size="10.00">frontEnd.View.changeTurtle</text>
<text text-anchor="middle" x="269" y="-7" font-family="Helvetica,sans-Serif" font-size="10.00">Image</text>
</a>
</g>
</g>
<!-- Node1&#45;&gt;Node2 -->
<g id="edge1" class="edge"><title>Node1&#45;&gt;Node2</title>
<path fill="none" stroke="midnightblue" d="M169.812,-15C178.749,-15 187.743,-15 196.467,-15"/>
<polygon fill="midnightblue" stroke="midnightblue" points="169.763,-11.5001 159.763,-15 169.763,-18.5001 169.763,-11.5001"/>
</g>
<!-- Node3 -->
<g id="node3" class="node"><title>Node3</title>
<g id="a_node3"><a xlink:href="../../d9/d49/classback_end_1_1_controller.html#a2d6485b9fa7484fee3a041924554fb2a" target="_top" xlink:title="backEnd.Controller.change\lTurtleImage">
<polygon fill="white" stroke="black" points="378,-0 378,-30 522,-30 522,-0 378,-0"/>
<text text-anchor="start" x="386" y="-18" font-family="Helvetica,sans-Serif" font-size="10.00">backEnd.Controller.change</text>
<text text-anchor="middle" x="450" y="-7" font-family="Helvetica,sans-Serif" font-size="10.00">TurtleImage</text>
</a>
</g>
</g>
<!-- Node2&#45;&gt;Node3 -->
<g id="edge2" class="edge"><title>Node2&#45;&gt;Node3</title>
<path fill="none" stroke="midnightblue" d="M351.71,-15C360.448,-15 369.287,-15 377.888,-15"/>
<polygon fill="midnightblue" stroke="midnightblue" points="351.517,-11.5001 341.517,-15 351.517,-18.5001 351.517,-11.5001"/>
</g>
<!-- Node4 -->
<g id="node4" class="node"><title>Node4</title>
<g id="a_node4"><a xlink:href="../../dd/d67/classtitle_panes_1_1_display_title_pane.html#aceb12213a01d9cb060a64441ea46ed0f" target="_top" xlink:title="titlePanes.DisplayTitlePane.openFile">
<polygon fill="white" stroke="black" points="558.5,-5.5 558.5,-24.5 743.5,-24.5 743.5,-5.5 558.5,-5.5"/>
<text text-anchor="middle" x="651" y="-12.5" font-family="Helvetica,sans-Serif" font-size="10.00">titlePanes.DisplayTitlePane.openFile</text>
</a>
</g>
</g>
<!-- Node3&#45;&gt;Node4 -->
<g id="edge3" class="edge"><title>Node3&#45;&gt;Node4</title>
<path fill="none" stroke="midnightblue" d="M532.01,-15C540.626,-15 549.433,-15 558.161,-15"/>
<polygon fill="midnightblue" stroke="midnightblue" points="532.001,-11.5001 522.001,-15 532.001,-18.5001 532.001,-11.5001"/>
</g>
<!-- Node5 -->
<g id="node5" class="node"><title>Node5</title>
<g id="a_node5"><a xlink:href="../../dd/d67/classtitle_panes_1_1_display_title_pane.html#a331ac295d6888c6c41f9ff49b1cea23d" target="_top" xlink:title="titlePanes.DisplayTitlePane.make\lTurtleImageChooser">
<polygon fill="white" stroke="black" points="780.5,-0 780.5,-30 953.5,-30 953.5,-0 780.5,-0"/>
<text text-anchor="start" x="788.5" y="-18" font-family="Helvetica,sans-Serif" font-size="10.00">titlePanes.DisplayTitlePane.make</text>
<text text-anchor="middle" x="867" y="-7" font-family="Helvetica,sans-Serif" font-size="10.00">TurtleImageChooser</text>
</a>
</g>
</g>
<!-- Node4&#45;&gt;Node5 -->
<g id="edge4" class="edge"><title>Node4&#45;&gt;Node5</title>
<path fill="none" stroke="midnightblue" d="M753.691,-15C762.582,-15 771.522,-15 780.265,-15"/>
<polygon fill="midnightblue" stroke="midnightblue" points="753.687,-11.5001 743.687,-15 753.687,-18.5001 753.687,-11.5001"/>
</g>
<!-- Node6 -->
<g id="node6" class="node"><title>Node6</title>
<g id="a_node6"><a xlink:href="../../dd/d67/classtitle_panes_1_1_display_title_pane.html#ad07a1fec588c0ef5745d90ee1039143c" target="_top" xlink:title="titlePanes.DisplayTitlePane.\lDisplayTitlePane">
<polygon fill="white" stroke="black" points="990,-0 990,-30 1136,-30 1136,-0 990,-0"/>
<text text-anchor="start" x="998" y="-18" font-family="Helvetica,sans-Serif" font-size="10.00">titlePanes.DisplayTitlePane.</text>
<text text-anchor="middle" x="1063" y="-7" font-family="Helvetica,sans-Serif" font-size="10.00">DisplayTitlePane</text>
</a>
</g>
</g>
<!-- Node5&#45;&gt;Node6 -->
<g id="edge5" class="edge"><title>Node5&#45;&gt;Node6</title>
<path fill="none" stroke="midnightblue" d="M963.887,-15C972.622,-15 981.368,-15 989.843,-15"/>
<polygon fill="midnightblue" stroke="midnightblue" points="963.656,-11.5001 953.656,-15 963.656,-18.5001 963.656,-11.5001"/>
</g>
</g>
</svg>
