<?xml version="1.0" encoding="UTF-8" standalone="no"?>
<!DOCTYPE svg PUBLIC "-//W3C//DTD SVG 1.1//EN"
 "http://www.w3.org/Graphics/SVG/1.1/DTD/svg11.dtd">
<!-- Generated by graphviz version 2.36.0 (20140111.2315)
 -->
<!-- Title: frontEnd.TurtleCanvas.toggleGridLines Pages: 1 -->
<svg width="900pt" height="38pt"
 viewBox="0.00 0.00 900.00 38.00" xmlns="http://www.w3.org/2000/svg" xmlns:xlink="http://www.w3.org/1999/xlink">
<g id="graph0" class="graph" transform="scale(1 1) rotate(0) translate(4 34)">
<title>frontEnd.TurtleCanvas.toggleGridLines</title>
<polygon fill="white" stroke="none" points="-4,4 -4,-34 896,-34 896,4 -4,4"/>
<!-- Node1 -->
<g id="node1" class="node"><title>Node1</title>
<polygon fill="#bfbfbf" stroke="black" points="0,-0 0,-30 154,-30 154,-0 0,-0"/>
<text text-anchor="start" x="8" y="-18" font-family="Helvetica,sans-Serif" font-size="10.00">frontEnd.TurtleCanvas.toggle</text>
<text text-anchor="middle" x="77" y="-7" font-family="Helvetica,sans-Serif" font-size="10.00">GridLines</text>
</g>
<!-- Node2 -->
<g id="node2" class="node"><title>Node2</title>
<g id="a_node2"><a xlink:href="../../d8/d1f/classfront_end_1_1_view.html#a3b11e07ca0ec9c9f9a22583b736eb7b7" target="_top" xlink:title="frontEnd.View.toggleGrid\lLines">
<polygon fill="white" stroke="black" points="190,-0 190,-30 324,-30 324,-0 190,-0"/>
<text text-anchor="start" x="198" y="-18" font-family="Helvetica,sans-Serif" font-size="10.00">frontEnd.View.toggleGrid</text>
<text text-anchor="middle" x="257" y="-7" font-family="Helvetica,sans-Serif" font-size="10.00">Lines</text>
</a>
</g>
</g>
<!-- Node1&#45;&gt;Node2 -->
<g id="edge1" class="edge"><title>Node1&#45;&gt;Node2</title>
<path fill="none" stroke="midnightblue" d="M164.106,-15C172.742,-15 181.414,-15 189.796,-15"/>
<polygon fill="midnightblue" stroke="midnightblue" points="164.004,-11.5001 154.004,-15 164.004,-18.5001 164.004,-11.5001"/>
</g>
<!-- Node3 -->
<g id="node3" class="node"><title>Node3</title>
<g id="a_node3"><a xlink:href="../../d9/d49/classback_end_1_1_controller.html#a64526fc753c94df5ddc8527af8e50301" target="_top" xlink:title="backEnd.Controller.toggle\lGridLines">
<polygon fill="white" stroke="black" points="360.5,-0 360.5,-30 499.5,-30 499.5,-0 360.5,-0"/>
<text text-anchor="start" x="368.5" y="-18" font-family="Helvetica,sans-Serif" font-size="10.00">backEnd.Controller.toggle</text>
<text text-anchor="middle" x="430" y="-7" font-family="Helvetica,sans-Serif" font-size="10.00">GridLines</text>
</a>
</g>
</g>
<!-- Node2&#45;&gt;Node3 -->
<g id="edge2" class="edge"><title>Node2&#45;&gt;Node3</title>
<path fill="none" stroke="midnightblue" d="M334.207,-15C342.875,-15 351.672,-15 360.235,-15"/>
<polygon fill="midnightblue" stroke="midnightblue" points="334.113,-11.5001 324.113,-15 334.113,-18.5001 334.113,-11.5001"/>
</g>
<!-- Node4 -->
<g id="node4" class="node"><title>Node4</title>
<g id="a_node4"><a xlink:href="../../dd/d67/classtitle_panes_1_1_display_title_pane.html#a0ba90533306c4265f16848eaced84c33" target="_top" xlink:title="titlePanes.DisplayTitlePane.make\lGridLinesBox">
<polygon fill="white" stroke="black" points="536.5,-0 536.5,-30 709.5,-30 709.5,-0 536.5,-0"/>
<text text-anchor="start" x="544.5" y="-18" font-family="Helvetica,sans-Serif" font-size="10.00">titlePanes.DisplayTitlePane.make</text>
<text text-anchor="middle" x="623" y="-7" font-family="Helvetica,sans-Serif" font-size="10.00">GridLinesBox</text>
</a>
</g>
</g>
<!-- Node3&#45;&gt;Node4 -->
<g id="edge3" class="edge"><title>Node3&#45;&gt;Node4</title>
<path fill="none" stroke="midnightblue" d="M509.827,-15C518.556,-15 527.477,-15 536.285,-15"/>
<polygon fill="midnightblue" stroke="midnightblue" points="509.686,-11.5001 499.686,-15 509.686,-18.5001 509.686,-11.5001"/>
</g>
<!-- Node5 -->
<g id="node5" class="node"><title>Node5</title>
<g id="a_node5"><a xlink:href="../../dd/d67/classtitle_panes_1_1_display_title_pane.html#ad07a1fec588c0ef5745d90ee1039143c" target="_top" xlink:title="titlePanes.DisplayTitlePane.\lDisplayTitlePane">
<polygon fill="white" stroke="black" points="746,-0 746,-30 892,-30 892,-0 746,-0"/>
<text text-anchor="start" x="754" y="-18" font-family="Helvetica,sans-Serif" font-size="10.00">titlePanes.DisplayTitlePane.</text>
<text text-anchor="middle" x="819" y="-7" font-family="Helvetica,sans-Serif" font-size="10.00">DisplayTitlePane</text>
</a>
</g>
</g>
<!-- Node4&#45;&gt;Node5 -->
<g id="edge4" class="edge"><title>Node4&#45;&gt;Node5</title>
<path fill="none" stroke="midnightblue" d="M719.887,-15C728.622,-15 737.368,-15 745.843,-15"/>
<polygon fill="midnightblue" stroke="midnightblue" points="719.656,-11.5001 709.656,-15 719.656,-18.5001 719.656,-11.5001"/>
</g>
</g>
</svg>
