<?xml version="1.0" encoding="UTF-8" standalone="no"?>
<!DOCTYPE svg PUBLIC "-//W3C//DTD SVG 1.1//EN"
 "http://www.w3.org/Graphics/SVG/1.1/DTD/svg11.dtd">
<!-- Generated by graphviz version 2.36.0 (20140111.2315)
 -->
<!-- Title: frontEnd.TurtleCanvas.addTurtle Pages: 1 -->
<svg width="364pt" height="116pt"
 viewBox="0.00 0.00 364.00 116.00" xmlns="http://www.w3.org/2000/svg" xmlns:xlink="http://www.w3.org/1999/xlink">
<g id="graph0" class="graph" transform="scale(1 1) rotate(0) translate(4 112)">
<title>frontEnd.TurtleCanvas.addTurtle</title>
<polygon fill="white" stroke="none" points="-4,4 -4,-112 360,-112 360,4 -4,4"/>
<!-- Node1 -->
<g id="node1" class="node"><title>Node1</title>
<polygon fill="#bfbfbf" stroke="black" points="0,-39 0,-69 142,-69 142,-39 0,-39"/>
<text text-anchor="start" x="8" y="-57" font-family="Helvetica,sans-Serif" font-size="10.00">frontEnd.TurtleCanvas.add</text>
<text text-anchor="middle" x="71" y="-46" font-family="Helvetica,sans-Serif" font-size="10.00">Turtle</text>
</g>
<!-- Node2 -->
<g id="node2" class="node"><title>Node2</title>
<g id="a_node2"><a xlink:href="../../dc/dcd/classfront_end_1_1_turtle_view.html#a772daa2233a7f5649baee0e549c9bb63" target="_top" xlink:title="frontEnd.TurtleView.getImageView">
<polygon fill="white" stroke="black" points="178.5,-88.5 178.5,-107.5 355.5,-107.5 355.5,-88.5 178.5,-88.5"/>
<text text-anchor="middle" x="267" y="-95.5" font-family="Helvetica,sans-Serif" font-size="10.00">frontEnd.TurtleView.getImageView</text>
</a>
</g>
</g>
<!-- Node1&#45;&gt;Node2 -->
<g id="edge1" class="edge"><title>Node1&#45;&gt;Node2</title>
<path fill="none" stroke="midnightblue" d="M138.221,-69.0192C162.986,-74.636 190.737,-80.93 214.033,-86.2137"/>
<polygon fill="midnightblue" stroke="midnightblue" points="213.532,-89.689 224.059,-88.4876 215.081,-82.8623 213.532,-89.689"/>
</g>
<!-- Node3 -->
<g id="node3" class="node"><title>Node3</title>
<g id="a_node3"><a xlink:href="../../dc/dcd/classfront_end_1_1_turtle_view.html#aa50f2375fccd313119e3200ebe4de365" target="_top" xlink:title="frontEnd.TurtleView.getPen\lLines">
<polygon fill="white" stroke="black" points="195.5,-39 195.5,-69 338.5,-69 338.5,-39 195.5,-39"/>
<text text-anchor="start" x="203.5" y="-57" font-family="Helvetica,sans-Serif" font-size="10.00">frontEnd.TurtleView.getPen</text>
<text text-anchor="middle" x="267" y="-46" font-family="Helvetica,sans-Serif" font-size="10.00">Lines</text>
</a>
</g>
</g>
<!-- Node1&#45;&gt;Node3 -->
<g id="edge2" class="edge"><title>Node1&#45;&gt;Node3</title>
<path fill="none" stroke="midnightblue" d="M142.038,-54C156.012,-54 170.797,-54 185.101,-54"/>
<polygon fill="midnightblue" stroke="midnightblue" points="185.413,-57.5001 195.413,-54 185.413,-50.5001 185.413,-57.5001"/>
</g>
<!-- Node4 -->
<g id="node4" class="node"><title>Node4</title>
<g id="a_node4"><a xlink:href="../../dc/dcd/classfront_end_1_1_turtle_view.html#a5644c1470fa171b12ffc1c1725e2b551" target="_top" xlink:title="frontEnd.TurtleView.getStamps">
<polygon fill="white" stroke="black" points="185.5,-0.5 185.5,-19.5 348.5,-19.5 348.5,-0.5 185.5,-0.5"/>
<text text-anchor="middle" x="267" y="-7.5" font-family="Helvetica,sans-Serif" font-size="10.00">frontEnd.TurtleView.getStamps</text>
</a>
</g>
</g>
<!-- Node1&#45;&gt;Node4 -->
<g id="edge3" class="edge"><title>Node1&#45;&gt;Node4</title>
<path fill="none" stroke="midnightblue" d="M138.221,-38.9808C162.986,-33.364 190.737,-27.07 214.033,-21.7863"/>
<polygon fill="midnightblue" stroke="midnightblue" points="215.081,-25.1377 224.059,-19.5124 213.532,-18.311 215.081,-25.1377"/>
</g>
</g>
</svg>
