<?xml version="1.0" encoding="UTF-8" standalone="no"?>
<!DOCTYPE svg PUBLIC "-//W3C//DTD SVG 1.1//EN"
 "http://www.w3.org/Graphics/SVG/1.1/DTD/svg11.dtd">
<!-- Generated by graphviz version 2.36.0 (20140111.2315)
 -->
<!-- Title: frontEnd.TurtleCanvas.getBackgroundColor Pages: 1 -->
<svg width="1782pt" height="38pt"
 viewBox="0.00 0.00 1782.00 38.00" xmlns="http://www.w3.org/2000/svg" xmlns:xlink="http://www.w3.org/1999/xlink">
<g id="graph0" class="graph" transform="scale(1 1) rotate(0) translate(4 34)">
<title>frontEnd.TurtleCanvas.getBackgroundColor</title>
<polygon fill="white" stroke="none" points="-4,4 -4,-34 1778,-34 1778,4 -4,4"/>
<!-- Node1 -->
<g id="node1" class="node"><title>Node1</title>
<polygon fill="#bfbfbf" stroke="black" points="0,-0 0,-30 140,-30 140,-0 0,-0"/>
<text text-anchor="start" x="8" y="-18" font-family="Helvetica,sans-Serif" font-size="10.00">frontEnd.TurtleCanvas.get</text>
<text text-anchor="middle" x="70" y="-7" font-family="Helvetica,sans-Serif" font-size="10.00">BackgroundColor</text>
</g>
<!-- Node2 -->
<g id="node2" class="node"><title>Node2</title>
<g id="a_node2"><a xlink:href="../../d8/d1f/classfront_end_1_1_view.html#a1b425074f6c6cd928ea31c5edddfe04b" target="_top" xlink:title="frontEnd.View.getBackground\lColor">
<polygon fill="white" stroke="black" points="176.5,-0 176.5,-30 333.5,-30 333.5,-0 176.5,-0"/>
<text text-anchor="start" x="184.5" y="-18" font-family="Helvetica,sans-Serif" font-size="10.00">frontEnd.View.getBackground</text>
<text text-anchor="middle" x="255" y="-7" font-family="Helvetica,sans-Serif" font-size="10.00">Color</text>
</a>
</g>
</g>
<!-- Node1&#45;&gt;Node2 -->
<g id="edge1" class="edge"><title>Node1&#45;&gt;Node2</title>
<path fill="none" stroke="midnightblue" d="M150.283,-15C158.961,-15 167.787,-15 176.443,-15"/>
<polygon fill="midnightblue" stroke="midnightblue" points="150.184,-11.5001 140.184,-15 150.184,-18.5001 150.184,-11.5001"/>
</g>
<!-- Node3 -->
<g id="node3" class="node"><title>Node3</title>
<g id="a_node3"><a xlink:href="../../d3/d21/classfront_end_1_1_workspace.html#a483993a49176099425a0eca9c8da73ca" target="_top" xlink:title="frontEnd.Workspace.saveDisplay\lProperties">
<polygon fill="white" stroke="black" points="370.5,-0 370.5,-30 541.5,-30 541.5,-0 370.5,-0"/>
<text text-anchor="start" x="378.5" y="-18" font-family="Helvetica,sans-Serif" font-size="10.00">frontEnd.Workspace.saveDisplay</text>
<text text-anchor="middle" x="456" y="-7" font-family="Helvetica,sans-Serif" font-size="10.00">Properties</text>
</a>
</g>
</g>
<!-- Node2&#45;&gt;Node3 -->
<g id="edge2" class="edge"><title>Node2&#45;&gt;Node3</title>
<path fill="none" stroke="midnightblue" d="M343.532,-15C352.474,-15 361.546,-15 370.455,-15"/>
<polygon fill="midnightblue" stroke="midnightblue" points="343.508,-11.5001 333.508,-15 343.508,-18.5001 343.508,-11.5001"/>
</g>
<!-- Node4 -->
<g id="node4" class="node"><title>Node4</title>
<g id="a_node4"><a xlink:href="../../d3/d21/classfront_end_1_1_workspace.html#a897ddb52dc6c71e7fce97d198343692d" target="_top" xlink:title="frontEnd.Workspace.saveProperties\lToFile">
<polygon fill="white" stroke="black" points="578.5,-0 578.5,-30 763.5,-30 763.5,-0 578.5,-0"/>
<text text-anchor="start" x="586.5" y="-18" font-family="Helvetica,sans-Serif" font-size="10.00">frontEnd.Workspace.saveProperties</text>
<text text-anchor="middle" x="671" y="-7" font-family="Helvetica,sans-Serif" font-size="10.00">ToFile</text>
</a>
</g>
</g>
<!-- Node3&#45;&gt;Node4 -->
<g id="edge3" class="edge"><title>Node3&#45;&gt;Node4</title>
<path fill="none" stroke="midnightblue" d="M551.954,-15C560.66,-15 569.471,-15 578.149,-15"/>
<polygon fill="midnightblue" stroke="midnightblue" points="551.795,-11.5001 541.795,-15 551.795,-18.5001 551.795,-11.5001"/>
</g>
<!-- Node5 -->
<g id="node5" class="node"><title>Node5</title>
<g id="a_node5"><a xlink:href="../../d7/d6c/classmain_1_1_master_window.html#a9caa01ef95b15769b285ffda84e8f56c" target="_top" xlink:title="main.MasterWindow.saveWorkspace\lPreferences">
<polygon fill="white" stroke="black" points="800,-0 800,-30 988,-30 988,-0 800,-0"/>
<text text-anchor="start" x="808" y="-18" font-family="Helvetica,sans-Serif" font-size="10.00">main.MasterWindow.saveWorkspace</text>
<text text-anchor="middle" x="894" y="-7" font-family="Helvetica,sans-Serif" font-size="10.00">Preferences</text>
</a>
</g>
</g>
<!-- Node4&#45;&gt;Node5 -->
<g id="edge4" class="edge"><title>Node4&#45;&gt;Node5</title>
<path fill="none" stroke="midnightblue" d="M773.868,-15C782.479,-15 791.161,-15 799.702,-15"/>
<polygon fill="midnightblue" stroke="midnightblue" points="773.804,-11.5001 763.804,-15 773.804,-18.5001 773.804,-11.5001"/>
</g>
<!-- Node6 -->
<g id="node6" class="node"><title>Node6</title>
<g id="a_node6"><a xlink:href="../../de/d44/classmain_1_1_master_menu_bar.html#a249553b44a3e0ed097a3b350b7711f49" target="_top" xlink:title="main.MasterMenuBar.saveWorkspace\lPreferences">
<polygon fill="white" stroke="black" points="1024.5,-0 1024.5,-30 1219.5,-30 1219.5,-0 1024.5,-0"/>
<text text-anchor="start" x="1032.5" y="-18" font-family="Helvetica,sans-Serif" font-size="10.00">main.MasterMenuBar.saveWorkspace</text>
<text text-anchor="middle" x="1122" y="-7" font-family="Helvetica,sans-Serif" font-size="10.00">Preferences</text>
</a>
</g>
</g>
<!-- Node5&#45;&gt;Node6 -->
<g id="edge5" class="edge"><title>Node5&#45;&gt;Node6</title>
<path fill="none" stroke="midnightblue" d="M998.341,-15C1007,-15 1015.73,-15 1024.33,-15"/>
<polygon fill="midnightblue" stroke="midnightblue" points="998.228,-11.5001 988.228,-15 998.228,-18.5001 998.228,-11.5001"/>
</g>
<!-- Node7 -->
<g id="node7" class="node"><title>Node7</title>
<g id="a_node7"><a xlink:href="../../de/d44/classmain_1_1_master_menu_bar.html#acb0484fe23459ec4b49c4db8c09ee067" target="_top" xlink:title="main.MasterMenuBar.build\lSavePreferencesMenuItem">
<polygon fill="white" stroke="black" points="1256,-0 1256,-30 1402,-30 1402,-0 1256,-0"/>
<text text-anchor="start" x="1264" y="-18" font-family="Helvetica,sans-Serif" font-size="10.00">main.MasterMenuBar.build</text>
<text text-anchor="middle" x="1329" y="-7" font-family="Helvetica,sans-Serif" font-size="10.00">SavePreferencesMenuItem</text>
</a>
</g>
</g>
<!-- Node6&#45;&gt;Node7 -->
<g id="edge6" class="edge"><title>Node6&#45;&gt;Node7</title>
<path fill="none" stroke="midnightblue" d="M1230.04,-15C1238.76,-15 1247.44,-15 1255.82,-15"/>
<polygon fill="midnightblue" stroke="midnightblue" points="1229.8,-11.5001 1219.8,-15 1229.8,-18.5001 1229.8,-11.5001"/>
</g>
<!-- Node8 -->
<g id="node8" class="node"><title>Node8</title>
<g id="a_node8"><a xlink:href="../../de/d44/classmain_1_1_master_menu_bar.html#a8ac360f52791db57913d7a4303e18867" target="_top" xlink:title="main.MasterMenuBar.build\lFileMenu">
<polygon fill="white" stroke="black" points="1438,-0 1438,-30 1582,-30 1582,-0 1438,-0"/>
<text text-anchor="start" x="1446" y="-18" font-family="Helvetica,sans-Serif" font-size="10.00">main.MasterMenuBar.build</text>
<text text-anchor="middle" x="1510" y="-7" font-family="Helvetica,sans-Serif" font-size="10.00">FileMenu</text>
</a>
</g>
</g>
<!-- Node7&#45;&gt;Node8 -->
<g id="edge7" class="edge"><title>Node7&#45;&gt;Node8</title>
<path fill="none" stroke="midnightblue" d="M1412.11,-15C1420.75,-15 1429.49,-15 1437.99,-15"/>
<polygon fill="midnightblue" stroke="midnightblue" points="1412.03,-11.5001 1402.03,-15 1412.03,-18.5001 1412.03,-11.5001"/>
</g>
<!-- Node9 -->
<g id="node9" class="node"><title>Node9</title>
<g id="a_node9"><a xlink:href="../../de/d44/classmain_1_1_master_menu_bar.html#a1baeeae18c6cf1bb2c48541b48afe20c" target="_top" xlink:title="main.MasterMenuBar.Master\lMenuBar">
<polygon fill="white" stroke="black" points="1618.5,-0 1618.5,-30 1773.5,-30 1773.5,-0 1618.5,-0"/>
<text text-anchor="start" x="1626.5" y="-18" font-family="Helvetica,sans-Serif" font-size="10.00">main.MasterMenuBar.Master</text>
<text text-anchor="middle" x="1696" y="-7" font-family="Helvetica,sans-Serif" font-size="10.00">MenuBar</text>
</a>
</g>
</g>
<!-- Node8&#45;&gt;Node9 -->
<g id="edge8" class="edge"><title>Node8&#45;&gt;Node9</title>
<path fill="none" stroke="midnightblue" d="M1592.22,-15C1600.87,-15 1609.65,-15 1618.25,-15"/>
<polygon fill="midnightblue" stroke="midnightblue" points="1592.14,-11.5001 1582.14,-15 1592.14,-18.5001 1592.14,-11.5001"/>
</g>
</g>
</svg>
