<?xml version="1.0" encoding="UTF-8" standalone="no"?>
<!DOCTYPE svg PUBLIC "-//W3C//DTD SVG 1.1//EN"
 "http://www.w3.org/Graphics/SVG/1.1/DTD/svg11.dtd">
<!-- Generated by graphviz version 2.36.0 (20140111.2315)
 -->
<!-- Title: frontEnd.TurtleCanvas.changeBackgroundColor Pages: 1 -->
<svg width="1812pt" height="136pt"
 viewBox="0.00 0.00 1812.00 136.00" xmlns="http://www.w3.org/2000/svg" xmlns:xlink="http://www.w3.org/1999/xlink">
<g id="graph0" class="graph" transform="scale(1 1) rotate(0) translate(4 132)">
<title>frontEnd.TurtleCanvas.changeBackgroundColor</title>
<polygon fill="white" stroke="none" points="-4,4 -4,-132 1808,-132 1808,4 -4,4"/>
<!-- Node1 -->
<g id="node1" class="node"><title>Node1</title>
<polygon fill="#bfbfbf" stroke="black" points="0.5,-73 0.5,-103 159.5,-103 159.5,-73 0.5,-73"/>
<text text-anchor="start" x="8.5" y="-91" font-family="Helvetica,sans-Serif" font-size="10.00">frontEnd.TurtleCanvas.change</text>
<text text-anchor="middle" x="80" y="-80" font-family="Helvetica,sans-Serif" font-size="10.00">BackgroundColor</text>
</g>
<!-- Node2 -->
<g id="node2" class="node"><title>Node2</title>
<g id="a_node2"><a xlink:href="../../d5/df1/classfront_end_1_1_turtle_canvas.html#a96ff82f0946b3810df1db6ad9d3365ec" target="_top" xlink:title="frontEnd.TurtleCanvas.add\lBackgroundIndexListener">
<polygon fill="white" stroke="black" points="213,-98 213,-128 355,-128 355,-98 213,-98"/>
<text text-anchor="start" x="221" y="-116" font-family="Helvetica,sans-Serif" font-size="10.00">frontEnd.TurtleCanvas.add</text>
<text text-anchor="middle" x="284" y="-105" font-family="Helvetica,sans-Serif" font-size="10.00">BackgroundIndexListener</text>
</a>
</g>
</g>
<!-- Node1&#45;&gt;Node2 -->
<g id="edge1" class="edge"><title>Node1&#45;&gt;Node2</title>
<path fill="none" stroke="midnightblue" d="M169.607,-98.9662C184.05,-100.754 198.838,-102.584 212.762,-104.307"/>
<polygon fill="midnightblue" stroke="midnightblue" points="170.031,-95.4921 159.677,-97.7372 169.171,-102.439 170.031,-95.4921"/>
</g>
<!-- Node5 -->
<g id="node5" class="node"><title>Node5</title>
<g id="a_node5"><a xlink:href="../../d8/d1f/classfront_end_1_1_view.html#a2d6539ed8834e0dcc613be8ea607804c" target="_top" xlink:title="frontEnd.View.changeBackground\lColor">
<polygon fill="white" stroke="black" points="196,-49 196,-79 372,-79 372,-49 196,-49"/>
<text text-anchor="start" x="204" y="-67" font-family="Helvetica,sans-Serif" font-size="10.00">frontEnd.View.changeBackground</text>
<text text-anchor="middle" x="284" y="-56" font-family="Helvetica,sans-Serif" font-size="10.00">Color</text>
</a>
</g>
</g>
<!-- Node1&#45;&gt;Node5 -->
<g id="edge4" class="edge"><title>Node1&#45;&gt;Node5</title>
<path fill="none" stroke="midnightblue" d="M169.765,-77.4537C178.419,-76.4254 187.195,-75.3827 195.834,-74.3564"/>
<polygon fill="midnightblue" stroke="midnightblue" points="169.194,-73.9968 159.677,-78.6523 170.02,-80.9479 169.194,-73.9968"/>
</g>
<!-- Node3 -->
<g id="node3" class="node"><title>Node3</title>
<g id="a_node3"><a xlink:href="../../d5/df1/classfront_end_1_1_turtle_canvas.html#a8ab5458313c755c404d71497e81dae28" target="_top" xlink:title="frontEnd.TurtleCanvas.add\lListeners">
<polygon fill="white" stroke="black" points="422,-98 422,-128 564,-128 564,-98 422,-98"/>
<text text-anchor="start" x="430" y="-116" font-family="Helvetica,sans-Serif" font-size="10.00">frontEnd.TurtleCanvas.add</text>
<text text-anchor="middle" x="493" y="-105" font-family="Helvetica,sans-Serif" font-size="10.00">Listeners</text>
</a>
</g>
</g>
<!-- Node2&#45;&gt;Node3 -->
<g id="edge2" class="edge"><title>Node2&#45;&gt;Node3</title>
<path fill="none" stroke="midnightblue" d="M365.339,-113C384.032,-113 403.786,-113 421.991,-113"/>
<polygon fill="midnightblue" stroke="midnightblue" points="365.081,-109.5 355.081,-113 365.081,-116.5 365.081,-109.5"/>
</g>
<!-- Node4 -->
<g id="node4" class="node"><title>Node4</title>
<g id="a_node4"><a xlink:href="../../d5/df1/classfront_end_1_1_turtle_canvas.html#a7e7a498220ce749030e4752620dfb2a9" target="_top" xlink:title="frontEnd.TurtleCanvas.Turtle\lCanvas">
<polygon fill="white" stroke="black" points="631.5,-98 631.5,-128 780.5,-128 780.5,-98 631.5,-98"/>
<text text-anchor="start" x="639.5" y="-116" font-family="Helvetica,sans-Serif" font-size="10.00">frontEnd.TurtleCanvas.Turtle</text>
<text text-anchor="middle" x="706" y="-105" font-family="Helvetica,sans-Serif" font-size="10.00">Canvas</text>
</a>
</g>
</g>
<!-- Node3&#45;&gt;Node4 -->
<g id="edge3" class="edge"><title>Node3&#45;&gt;Node4</title>
<path fill="none" stroke="midnightblue" d="M574.262,-113C593.044,-113 612.96,-113 631.434,-113"/>
<polygon fill="midnightblue" stroke="midnightblue" points="574.26,-109.5 564.26,-113 574.26,-116.5 574.26,-109.5"/>
</g>
<!-- Node6 -->
<g id="node6" class="node"><title>Node6</title>
<g id="a_node6"><a xlink:href="../../d9/d49/classback_end_1_1_controller.html#a8aca018fbe7bb8039c6d15bf40e8a5da" target="_top" xlink:title="backEnd.Controller.change\lBackgroundColor">
<polygon fill="white" stroke="black" points="421,-49 421,-79 565,-79 565,-49 421,-49"/>
<text text-anchor="start" x="429" y="-67" font-family="Helvetica,sans-Serif" font-size="10.00">backEnd.Controller.change</text>
<text text-anchor="middle" x="493" y="-56" font-family="Helvetica,sans-Serif" font-size="10.00">BackgroundColor</text>
</a>
</g>
</g>
<!-- Node5&#45;&gt;Node6 -->
<g id="edge5" class="edge"><title>Node5&#45;&gt;Node6</title>
<path fill="none" stroke="midnightblue" d="M382.523,-64C395.464,-64 408.53,-64 420.908,-64"/>
<polygon fill="midnightblue" stroke="midnightblue" points="382.187,-60.5001 372.187,-64 382.187,-67.5001 382.187,-60.5001"/>
</g>
<!-- Node7 -->
<g id="node7" class="node"><title>Node7</title>
<g id="a_node7"><a xlink:href="../../d3/d21/classfront_end_1_1_workspace.html#aa58474f37d15d3aeabc3f2c465128897" target="_top" xlink:title="frontEnd.Workspace.loadDisplay\lProperties">
<polygon fill="white" stroke="black" points="408.5,-0 408.5,-30 577.5,-30 577.5,-0 408.5,-0"/>
<text text-anchor="start" x="416.5" y="-18" font-family="Helvetica,sans-Serif" font-size="10.00">frontEnd.Workspace.loadDisplay</text>
<text text-anchor="middle" x="493" y="-7" font-family="Helvetica,sans-Serif" font-size="10.00">Properties</text>
</a>
</g>
</g>
<!-- Node5&#45;&gt;Node7 -->
<g id="edge6" class="edge"><title>Node5&#45;&gt;Node7</title>
<path fill="none" stroke="midnightblue" d="M358.522,-46.5962C381.421,-41.1757 406.463,-35.248 428.607,-30.0062"/>
<polygon fill="midnightblue" stroke="midnightblue" points="357.438,-43.2559 348.514,-48.9654 359.051,-50.0677 357.438,-43.2559"/>
</g>
<!-- Node8 -->
<g id="node8" class="node"><title>Node8</title>
<g id="a_node8"><a xlink:href="../../d3/d21/classfront_end_1_1_workspace.html#a8c4cac9cc8769a62ea233aa2b8714100" target="_top" xlink:title="frontEnd.Workspace.loadProperties\lFromFile">
<polygon fill="white" stroke="black" points="614.5,-0 614.5,-30 797.5,-30 797.5,-0 614.5,-0"/>
<text text-anchor="start" x="622.5" y="-18" font-family="Helvetica,sans-Serif" font-size="10.00">frontEnd.Workspace.loadProperties</text>
<text text-anchor="middle" x="706" y="-7" font-family="Helvetica,sans-Serif" font-size="10.00">FromFile</text>
</a>
</g>
</g>
<!-- Node7&#45;&gt;Node8 -->
<g id="edge7" class="edge"><title>Node7&#45;&gt;Node8</title>
<path fill="none" stroke="midnightblue" d="M587.969,-15C596.775,-15 605.69,-15 614.464,-15"/>
<polygon fill="midnightblue" stroke="midnightblue" points="587.696,-11.5001 577.696,-15 587.696,-18.5001 587.696,-11.5001"/>
</g>
<!-- Node9 -->
<g id="node9" class="node"><title>Node9</title>
<g id="a_node9"><a xlink:href="../../d7/d6c/classmain_1_1_master_window.html#a4438aa75b2c8333790b6dbe970e233f8" target="_top" xlink:title="main.MasterWindow.loadWorkspace\lPreferences">
<polygon fill="white" stroke="black" points="834.5,-0 834.5,-30 1019.5,-30 1019.5,-0 834.5,-0"/>
<text text-anchor="start" x="842.5" y="-18" font-family="Helvetica,sans-Serif" font-size="10.00">main.MasterWindow.loadWorkspace</text>
<text text-anchor="middle" x="927" y="-7" font-family="Helvetica,sans-Serif" font-size="10.00">Preferences</text>
</a>
</g>
</g>
<!-- Node8&#45;&gt;Node9 -->
<g id="edge8" class="edge"><title>Node8&#45;&gt;Node9</title>
<path fill="none" stroke="midnightblue" d="M807.658,-15C816.556,-15 825.533,-15 834.352,-15"/>
<polygon fill="midnightblue" stroke="midnightblue" points="807.657,-11.5001 797.657,-15 807.656,-18.5001 807.657,-11.5001"/>
</g>
<!-- Node10 -->
<g id="node10" class="node"><title>Node10</title>
<g id="a_node10"><a xlink:href="../../de/d44/classmain_1_1_master_menu_bar.html#a73c9d9af24d1ec86213ff7e56bafda6f" target="_top" xlink:title="main.MasterMenuBar.loadWorkspace\lPreferences">
<polygon fill="white" stroke="black" points="1056.5,-0 1056.5,-30 1249.5,-30 1249.5,-0 1056.5,-0"/>
<text text-anchor="start" x="1064.5" y="-18" font-family="Helvetica,sans-Serif" font-size="10.00">main.MasterMenuBar.loadWorkspace</text>
<text text-anchor="middle" x="1153" y="-7" font-family="Helvetica,sans-Serif" font-size="10.00">Preferences</text>
</a>
</g>
</g>
<!-- Node9&#45;&gt;Node10 -->
<g id="edge9" class="edge"><title>Node9&#45;&gt;Node10</title>
<path fill="none" stroke="midnightblue" d="M1030.01,-15C1038.8,-15 1047.66,-15 1056.39,-15"/>
<polygon fill="midnightblue" stroke="midnightblue" points="1029.76,-11.5001 1019.76,-15 1029.76,-18.5001 1029.76,-11.5001"/>
</g>
<!-- Node11 -->
<g id="node11" class="node"><title>Node11</title>
<g id="a_node11"><a xlink:href="../../de/d44/classmain_1_1_master_menu_bar.html#a035108ff7b484d9883d62cef618156da" target="_top" xlink:title="main.MasterMenuBar.build\lLoadPreferencesMenuItem">
<polygon fill="white" stroke="black" points="1286.5,-0 1286.5,-30 1431.5,-30 1431.5,-0 1286.5,-0"/>
<text text-anchor="start" x="1294.5" y="-18" font-family="Helvetica,sans-Serif" font-size="10.00">main.MasterMenuBar.build</text>
<text text-anchor="middle" x="1359" y="-7" font-family="Helvetica,sans-Serif" font-size="10.00">LoadPreferencesMenuItem</text>
</a>
</g>
</g>
<!-- Node10&#45;&gt;Node11 -->
<g id="edge10" class="edge"><title>Node10&#45;&gt;Node11</title>
<path fill="none" stroke="midnightblue" d="M1259.85,-15C1268.81,-15 1277.73,-15 1286.33,-15"/>
<polygon fill="midnightblue" stroke="midnightblue" points="1259.73,-11.5001 1249.73,-15 1259.73,-18.5001 1259.73,-11.5001"/>
</g>
<!-- Node12 -->
<g id="node12" class="node"><title>Node12</title>
<g id="a_node12"><a xlink:href="../../de/d44/classmain_1_1_master_menu_bar.html#a8ac360f52791db57913d7a4303e18867" target="_top" xlink:title="main.MasterMenuBar.build\lFileMenu">
<polygon fill="white" stroke="black" points="1468,-0 1468,-30 1612,-30 1612,-0 1468,-0"/>
<text text-anchor="start" x="1476" y="-18" font-family="Helvetica,sans-Serif" font-size="10.00">main.MasterMenuBar.build</text>
<text text-anchor="middle" x="1540" y="-7" font-family="Helvetica,sans-Serif" font-size="10.00">FileMenu</text>
</a>
</g>
</g>
<!-- Node11&#45;&gt;Node12 -->
<g id="edge11" class="edge"><title>Node11&#45;&gt;Node12</title>
<path fill="none" stroke="midnightblue" d="M1441.71,-15C1450.45,-15 1459.29,-15 1467.89,-15"/>
<polygon fill="midnightblue" stroke="midnightblue" points="1441.52,-11.5001 1431.52,-15 1441.52,-18.5001 1441.52,-11.5001"/>
</g>
<!-- Node13 -->
<g id="node13" class="node"><title>Node13</title>
<g id="a_node13"><a xlink:href="../../de/d44/classmain_1_1_master_menu_bar.html#a1baeeae18c6cf1bb2c48541b48afe20c" target="_top" xlink:title="main.MasterMenuBar.Master\lMenuBar">
<polygon fill="white" stroke="black" points="1648.5,-0 1648.5,-30 1803.5,-30 1803.5,-0 1648.5,-0"/>
<text text-anchor="start" x="1656.5" y="-18" font-family="Helvetica,sans-Serif" font-size="10.00">main.MasterMenuBar.Master</text>
<text text-anchor="middle" x="1726" y="-7" font-family="Helvetica,sans-Serif" font-size="10.00">MenuBar</text>
</a>
</g>
</g>
<!-- Node12&#45;&gt;Node13 -->
<g id="edge12" class="edge"><title>Node12&#45;&gt;Node13</title>
<path fill="none" stroke="midnightblue" d="M1622.22,-15C1630.87,-15 1639.65,-15 1648.25,-15"/>
<polygon fill="midnightblue" stroke="midnightblue" points="1622.14,-11.5001 1612.14,-15 1622.14,-18.5001 1622.14,-11.5001"/>
</g>
</g>
</svg>
