<?xml version="1.0" encoding="UTF-8" standalone="no"?>
<!DOCTYPE svg PUBLIC "-//W3C//DTD SVG 1.1//EN"
 "http://www.w3.org/Graphics/SVG/1.1/DTD/svg11.dtd">
<!-- Generated by graphviz version 2.36.0 (20140111.2315)
 -->
<!-- Title: frontEnd.TurtleCanvas.getBoundingHeight Pages: 1 -->
<svg width="724pt" height="38pt"
 viewBox="0.00 0.00 724.00 38.00" xmlns="http://www.w3.org/2000/svg" xmlns:xlink="http://www.w3.org/1999/xlink">
<g id="graph0" class="graph" transform="scale(1 1) rotate(0) translate(4 34)">
<title>frontEnd.TurtleCanvas.getBoundingHeight</title>
<polygon fill="white" stroke="none" points="-4,4 -4,-34 720,-34 720,4 -4,4"/>
<!-- Node1 -->
<g id="node1" class="node"><title>Node1</title>
<polygon fill="#bfbfbf" stroke="black" points="0,-0 0,-30 140,-30 140,-0 0,-0"/>
<text text-anchor="start" x="8" y="-18" font-family="Helvetica,sans-Serif" font-size="10.00">frontEnd.TurtleCanvas.get</text>
<text text-anchor="middle" x="70" y="-7" font-family="Helvetica,sans-Serif" font-size="10.00">BoundingHeight</text>
</g>
<!-- Node2 -->
<g id="node2" class="node"><title>Node2</title>
<g id="a_node2"><a xlink:href="../../d8/d1f/classfront_end_1_1_view.html#a5f864e2a9d6a4d2ce9ac88833d6e4c88" target="_top" xlink:title="frontEnd.View.getCanvasHeight">
<polygon fill="white" stroke="black" points="176.5,-5.5 176.5,-24.5 343.5,-24.5 343.5,-5.5 176.5,-5.5"/>
<text text-anchor="middle" x="260" y="-12.5" font-family="Helvetica,sans-Serif" font-size="10.00">frontEnd.View.getCanvasHeight</text>
</a>
</g>
</g>
<!-- Node1&#45;&gt;Node2 -->
<g id="edge1" class="edge"><title>Node1&#45;&gt;Node2</title>
<path fill="none" stroke="midnightblue" d="M150.211,-15C158.817,-15 167.594,-15 176.241,-15"/>
<polygon fill="midnightblue" stroke="midnightblue" points="150.203,-11.5001 140.203,-15 150.203,-18.5001 150.203,-11.5001"/>
</g>
<!-- Node3 -->
<g id="node3" class="node"><title>Node3</title>
<g id="a_node3"><a xlink:href="../../d9/d98/classback_end_1_1_model.html#a0c1150b8c4ffe07001a42b5d4cdacbd2" target="_top" xlink:title="backEnd.Model.setupTurtle\lManager">
<polygon fill="white" stroke="black" points="380,-0 380,-30 524,-30 524,-0 380,-0"/>
<text text-anchor="start" x="388" y="-18" font-family="Helvetica,sans-Serif" font-size="10.00">backEnd.Model.setupTurtle</text>
<text text-anchor="middle" x="452" y="-7" font-family="Helvetica,sans-Serif" font-size="10.00">Manager</text>
</a>
</g>
</g>
<!-- Node2&#45;&gt;Node3 -->
<g id="edge2" class="edge"><title>Node2&#45;&gt;Node3</title>
<path fill="none" stroke="midnightblue" d="M353.78,-15C362.555,-15 371.356,-15 379.882,-15"/>
<polygon fill="midnightblue" stroke="midnightblue" points="353.508,-11.5001 343.508,-15 353.508,-18.5001 353.508,-11.5001"/>
</g>
<!-- Node4 -->
<g id="node4" class="node"><title>Node4</title>
<g id="a_node4"><a xlink:href="../../d9/d49/classback_end_1_1_controller.html#a987136eaba0798749f393bac2a9a2400" target="_top" xlink:title="backEnd.Controller.Controller">
<polygon fill="white" stroke="black" points="560.5,-5.5 560.5,-24.5 715.5,-24.5 715.5,-5.5 560.5,-5.5"/>
<text text-anchor="middle" x="638" y="-12.5" font-family="Helvetica,sans-Serif" font-size="10.00">backEnd.Controller.Controller</text>
</a>
</g>
</g>
<!-- Node3&#45;&gt;Node4 -->
<g id="edge3" class="edge"><title>Node3&#45;&gt;Node4</title>
<path fill="none" stroke="midnightblue" d="M534.219,-15C542.872,-15 551.654,-15 560.253,-15"/>
<polygon fill="midnightblue" stroke="midnightblue" points="534.139,-11.5001 524.139,-15 534.139,-18.5001 534.139,-11.5001"/>
</g>
</g>
</svg>
