<?xml version="1.0" encoding="UTF-8" standalone="no"?>
<!DOCTYPE svg PUBLIC "-//W3C//DTD SVG 1.1//EN"
 "http://www.w3.org/Graphics/SVG/1.1/DTD/svg11.dtd">
<!-- Generated by graphviz version 2.36.0 (20140111.2315)
 -->
<!-- Title: frontEnd.TurtleCanvas.update Pages: 1 -->
<svg width="558pt" height="116pt"
 viewBox="0.00 0.00 558.00 116.00" xmlns="http://www.w3.org/2000/svg" xmlns:xlink="http://www.w3.org/1999/xlink">
<g id="graph0" class="graph" transform="scale(1 1) rotate(0) translate(4 112)">
<title>frontEnd.TurtleCanvas.update</title>
<polygon fill="white" stroke="none" points="-4,4 -4,-112 554,-112 554,4 -4,4"/>
<!-- Node1 -->
<g id="node1" class="node"><title>Node1</title>
<polygon fill="#bfbfbf" stroke="black" points="0,-44.5 0,-63.5 158,-63.5 158,-44.5 0,-44.5"/>
<text text-anchor="middle" x="79" y="-51.5" font-family="Helvetica,sans-Serif" font-size="10.00">frontEnd.TurtleCanvas.update</text>
</g>
<!-- Node2 -->
<g id="node2" class="node"><title>Node2</title>
<g id="a_node2"><a xlink:href="../../d5/df1/classfront_end_1_1_turtle_canvas.html#ab32a26b7ece7facda450f287624470db" target="_top" xlink:title="frontEnd.TurtleCanvas.add\lTurtle">
<polygon fill="white" stroke="black" points="194,-39 194,-69 336,-69 336,-39 194,-39"/>
<text text-anchor="start" x="202" y="-57" font-family="Helvetica,sans-Serif" font-size="10.00">frontEnd.TurtleCanvas.add</text>
<text text-anchor="middle" x="265" y="-46" font-family="Helvetica,sans-Serif" font-size="10.00">Turtle</text>
</a>
</g>
</g>
<!-- Node1&#45;&gt;Node2 -->
<g id="edge1" class="edge"><title>Node1&#45;&gt;Node2</title>
<path fill="none" stroke="midnightblue" d="M158.033,-54C166.458,-54 175.044,-54 183.498,-54"/>
<polygon fill="midnightblue" stroke="midnightblue" points="183.726,-57.5001 193.726,-54 183.726,-50.5001 183.726,-57.5001"/>
</g>
<!-- Node3 -->
<g id="node3" class="node"><title>Node3</title>
<g id="a_node3"><a xlink:href="../../dc/dcd/classfront_end_1_1_turtle_view.html#a772daa2233a7f5649baee0e549c9bb63" target="_top" xlink:title="frontEnd.TurtleView.getImageView">
<polygon fill="white" stroke="black" points="372.5,-88.5 372.5,-107.5 549.5,-107.5 549.5,-88.5 372.5,-88.5"/>
<text text-anchor="middle" x="461" y="-95.5" font-family="Helvetica,sans-Serif" font-size="10.00">frontEnd.TurtleView.getImageView</text>
</a>
</g>
</g>
<!-- Node2&#45;&gt;Node3 -->
<g id="edge2" class="edge"><title>Node2&#45;&gt;Node3</title>
<path fill="none" stroke="midnightblue" d="M332.221,-69.0192C356.986,-74.636 384.737,-80.93 408.033,-86.2137"/>
<polygon fill="midnightblue" stroke="midnightblue" points="407.532,-89.689 418.059,-88.4876 409.081,-82.8623 407.532,-89.689"/>
</g>
<!-- Node4 -->
<g id="node4" class="node"><title>Node4</title>
<g id="a_node4"><a xlink:href="../../dc/dcd/classfront_end_1_1_turtle_view.html#aa50f2375fccd313119e3200ebe4de365" target="_top" xlink:title="frontEnd.TurtleView.getPen\lLines">
<polygon fill="white" stroke="black" points="389.5,-39 389.5,-69 532.5,-69 532.5,-39 389.5,-39"/>
<text text-anchor="start" x="397.5" y="-57" font-family="Helvetica,sans-Serif" font-size="10.00">frontEnd.TurtleView.getPen</text>
<text text-anchor="middle" x="461" y="-46" font-family="Helvetica,sans-Serif" font-size="10.00">Lines</text>
</a>
</g>
</g>
<!-- Node2&#45;&gt;Node4 -->
<g id="edge3" class="edge"><title>Node2&#45;&gt;Node4</title>
<path fill="none" stroke="midnightblue" d="M336.038,-54C350.012,-54 364.797,-54 379.101,-54"/>
<polygon fill="midnightblue" stroke="midnightblue" points="379.413,-57.5001 389.413,-54 379.413,-50.5001 379.413,-57.5001"/>
</g>
<!-- Node5 -->
<g id="node5" class="node"><title>Node5</title>
<g id="a_node5"><a xlink:href="../../dc/dcd/classfront_end_1_1_turtle_view.html#a5644c1470fa171b12ffc1c1725e2b551" target="_top" xlink:title="frontEnd.TurtleView.getStamps">
<polygon fill="white" stroke="black" points="379.5,-0.5 379.5,-19.5 542.5,-19.5 542.5,-0.5 379.5,-0.5"/>
<text text-anchor="middle" x="461" y="-7.5" font-family="Helvetica,sans-Serif" font-size="10.00">frontEnd.TurtleView.getStamps</text>
</a>
</g>
</g>
<!-- Node2&#45;&gt;Node5 -->
<g id="edge4" class="edge"><title>Node2&#45;&gt;Node5</title>
<path fill="none" stroke="midnightblue" d="M332.221,-38.9808C356.986,-33.364 384.737,-27.07 408.033,-21.7863"/>
<polygon fill="midnightblue" stroke="midnightblue" points="409.081,-25.1377 418.059,-19.5124 407.532,-18.311 409.081,-25.1377"/>
</g>
</g>
</svg>
