<?xml version="1.0" encoding="UTF-8" standalone="no"?>
<!DOCTYPE svg PUBLIC "-//W3C//DTD SVG 1.1//EN"
 "http://www.w3.org/Graphics/SVG/1.1/DTD/svg11.dtd">
<!-- Generated by graphviz version 2.36.0 (20140111.2315)
 -->
<!-- Title: frontEnd.TurtleCanvas.TurtleCanvas Pages: 1 -->
<!--zoomable 209 -->
<svg id="main" version="1.1" xmlns="http://www.w3.org/2000/svg" xmlns:xlink="http://www.w3.org/1999/xlink" xml:space="preserve" onload="init(evt)">
<style type="text/css"><![CDATA[
.edge:hover path { stroke: red; }
.edge:hover polygon { stroke: red; fill: red; }
]]></style>
<script type="text/javascript"><![CDATA[
var edges = document.getElementsByTagName('g');
if (edges && edges.length) {
  for (var i=0;i<edges.length;i++) {
    if (edges[i].id.substr(0,4)=='edge') {
      edges[i].setAttribute('class','edge');
    }
  }
}
]]></script>
        <defs>
                <circle id="rim" cx="0" cy="0" r="7"/>
                <circle id="rim2" cx="0" cy="0" r="3.5"/>
                <g id="zoomPlus">
                        <use xlink:href="#rim" fill="#404040">
                                <set attributeName="fill" to="#808080" begin="zoomplus.mouseover" end="zoomplus.mouseout"/>
                        </use>
                        <path d="M-4,0h8M0,-4v8" fill="none" stroke="white" stroke-width="1.5" pointer-events="none"/>
                </g>
                <g id="zoomMin">
                        <use xlink:href="#rim" fill="#404040">
                                <set attributeName="fill" to="#808080" begin="zoomminus.mouseover" end="zoomminus.mouseout"/>
                        </use>
                        <path d="M-4,0h8" fill="none" stroke="white" stroke-width="1.5" pointer-events="none"/>
                </g>
                <g id="dirArrow">
                        <path fill="none" stroke="white" stroke-width="1.5" d="M0,-3.0v7 M-2.5,-0.5L0,-3.0L2.5,-0.5"/>
                </g>
               <g id="resetDef">
                       <use xlink:href="#rim2" fill="#404040">
                               <set attributeName="fill" to="#808080" begin="reset.mouseover" end="reset.mouseout"/>
                       </use>
               </g>
        </defs>

<script type="text/javascript">
var viewWidth = 740;
var viewHeight = 209;
var sectionId = 'dynsection-2';
</script>
<script xlink:href="../../svgpan.js"/>
<svg id="graph" class="graph">
<g id="viewport">
<title>frontEnd.TurtleCanvas.TurtleCanvas</title>
<polygon fill="white" stroke="none" points="-4,4 -4,-205 736,-205 736,4 -4,4"/>
<!-- Node1 -->
<g id="node1" class="node"><title>Node1</title>
<polygon fill="#bfbfbf" stroke="black" points="0.5,-97 0.5,-127 149.5,-127 149.5,-97 0.5,-97"/>
<text text-anchor="start" x="8.5" y="-115" font-family="Helvetica,sans-Serif" font-size="10.00">frontEnd.TurtleCanvas.Turtle</text>
<text text-anchor="middle" x="75" y="-104" font-family="Helvetica,sans-Serif" font-size="10.00">Canvas</text>
</g>
<!-- Node2 -->
<g id="node2" class="node"><title>Node2</title>
<g id="a_node2"><a xlink:href="../../d5/df1/classfront_end_1_1_turtle_canvas.html#a0c5ce5c37d373fa022bb529ca9eefccb" target="_top" xlink:title="frontEnd.TurtleCanvas.add\lBackground">
<polygon fill="white" stroke="black" points="186,-171 186,-201 328,-201 328,-171 186,-171"/>
<text text-anchor="start" x="194" y="-189" font-family="Helvetica,sans-Serif" font-size="10.00">frontEnd.TurtleCanvas.add</text>
<text text-anchor="middle" x="257" y="-178" font-family="Helvetica,sans-Serif" font-size="10.00">Background</text>
</a>
</g>
</g>
<!-- Node1&#45;&gt;Node2 -->
<g id="edge1" class="edge"><title>Node1&#45;&gt;Node2</title>
<path fill="none" stroke="midnightblue" d="M107.974,-127.016C129.779,-137.064 159.413,-150.348 186,-161 191.372,-163.152 197.01,-165.317 202.655,-167.425"/>
<polygon fill="midnightblue" stroke="midnightblue" points="201.525,-170.739 212.119,-170.906 203.941,-164.169 201.525,-170.739"/>
</g>
<!-- Node4 -->
<g id="node4" class="node"><title>Node4</title>
<g id="a_node4"><a xlink:href="../../d5/df1/classfront_end_1_1_turtle_canvas.html#ac8f759ace719dd4f3b3d8b7d7505df81" target="_top" xlink:title="frontEnd.TurtleCanvas.add\lClipper">
<polygon fill="white" stroke="black" points="186,-122 186,-152 328,-152 328,-122 186,-122"/>
<text text-anchor="start" x="194" y="-140" font-family="Helvetica,sans-Serif" font-size="10.00">frontEnd.TurtleCanvas.add</text>
<text text-anchor="middle" x="257" y="-129" font-family="Helvetica,sans-Serif" font-size="10.00">Clipper</text>
</a>
</g>
</g>
<!-- Node1&#45;&gt;Node4 -->
<g id="edge3" class="edge"><title>Node1&#45;&gt;Node4</title>
<path fill="none" stroke="midnightblue" d="M149.732,-122.241C158.316,-123.433 167.103,-124.653 175.768,-125.857"/>
<polygon fill="midnightblue" stroke="midnightblue" points="175.478,-129.35 185.865,-127.259 176.441,-122.416 175.478,-129.35"/>
</g>
<!-- Node5 -->
<g id="node5" class="node"><title>Node5</title>
<g id="a_node5"><a xlink:href="../../d5/df1/classfront_end_1_1_turtle_canvas.html#acd196a90330de392e0361911c1a5b4fa" target="_top" xlink:title="frontEnd.TurtleCanvas.add\lGridLines">
<polygon fill="white" stroke="black" points="186,-73 186,-103 328,-103 328,-73 186,-73"/>
<text text-anchor="start" x="194" y="-91" font-family="Helvetica,sans-Serif" font-size="10.00">frontEnd.TurtleCanvas.add</text>
<text text-anchor="middle" x="257" y="-80" font-family="Helvetica,sans-Serif" font-size="10.00">GridLines</text>
</a>
</g>
</g>
<!-- Node1&#45;&gt;Node5 -->
<g id="edge5" class="edge"><title>Node1&#45;&gt;Node5</title>
<path fill="none" stroke="midnightblue" d="M149.732,-102.169C158.316,-101.025 167.103,-99.8529 175.768,-98.6976"/>
<polygon fill="midnightblue" stroke="midnightblue" points="176.415,-102.142 185.865,-97.3514 175.49,-95.2038 176.415,-102.142"/>
</g>
<!-- Node6 -->
<g id="node6" class="node"><title>Node6</title>
<g id="a_node6"><a xlink:href="../../d5/df1/classfront_end_1_1_turtle_canvas.html#a8ab5458313c755c404d71497e81dae28" target="_top" xlink:title="frontEnd.TurtleCanvas.add\lListeners">
<polygon fill="white" stroke="black" points="186,-24 186,-54 328,-54 328,-24 186,-24"/>
<text text-anchor="start" x="194" y="-42" font-family="Helvetica,sans-Serif" font-size="10.00">frontEnd.TurtleCanvas.add</text>
<text text-anchor="middle" x="257" y="-31" font-family="Helvetica,sans-Serif" font-size="10.00">Listeners</text>
</a>
</g>
</g>
<!-- Node1&#45;&gt;Node6 -->
<g id="edge6" class="edge"><title>Node1&#45;&gt;Node6</title>
<path fill="none" stroke="midnightblue" d="M107.93,-96.8747C129.716,-86.7784 159.345,-73.4822 186,-63 190.736,-61.1377 195.682,-59.2771 200.66,-57.4622"/>
<polygon fill="midnightblue" stroke="midnightblue" points="201.988,-60.7043 210.225,-54.0403 199.63,-54.1134 201.988,-60.7043"/>
</g>
<!-- Node3 -->
<g id="node3" class="node"><title>Node3</title>
<g id="a_node3"><a xlink:href="../../d5/df1/classfront_end_1_1_turtle_canvas.html#a88469f1db4acc5ca629edfb136add1b7" target="_top" xlink:title="frontEnd.TurtleCanvas.makeRect">
<polygon fill="white" stroke="black" points="364.5,-151.5 364.5,-170.5 535.5,-170.5 535.5,-151.5 364.5,-151.5"/>
<text text-anchor="middle" x="450" y="-158.5" font-family="Helvetica,sans-Serif" font-size="10.00">frontEnd.TurtleCanvas.makeRect</text>
</a>
</g>
</g>
<!-- Node2&#45;&gt;Node3 -->
<g id="edge2" class="edge"><title>Node2&#45;&gt;Node3</title>
<path fill="none" stroke="midnightblue" d="M328.037,-176.833C340.47,-175.205 353.525,-173.497 366.27,-171.828"/>
<polygon fill="midnightblue" stroke="midnightblue" points="366.947,-175.27 376.408,-170.502 366.038,-168.329 366.947,-175.27"/>
</g>
<!-- Node4&#45;&gt;Node3 -->
<g id="edge4" class="edge"><title>Node4&#45;&gt;Node3</title>
<path fill="none" stroke="midnightblue" d="M328.037,-145.8C339.401,-147.228 351.283,-148.721 362.975,-150.191"/>
<polygon fill="midnightblue" stroke="midnightblue" points="362.823,-153.699 373.182,-151.473 363.696,-146.754 362.823,-153.699"/>
</g>
<!-- Node7 -->
<g id="node7" class="node"><title>Node7</title>
<g id="a_node7"><a xlink:href="../../d5/df1/classfront_end_1_1_turtle_canvas.html#a96ff82f0946b3810df1db6ad9d3365ec" target="_top" xlink:title="frontEnd.TurtleCanvas.add\lBackgroundIndexListener">
<polygon fill="white" stroke="black" points="379,-49 379,-79 521,-79 521,-49 379,-49"/>
<text text-anchor="start" x="387" y="-67" font-family="Helvetica,sans-Serif" font-size="10.00">frontEnd.TurtleCanvas.add</text>
<text text-anchor="middle" x="450" y="-56" font-family="Helvetica,sans-Serif" font-size="10.00">BackgroundIndexListener</text>
</a>
</g>
</g>
<!-- Node6&#45;&gt;Node7 -->
<g id="edge7" class="edge"><title>Node6&#45;&gt;Node7</title>
<path fill="none" stroke="midnightblue" d="M328.037,-48.1671C341.272,-49.8995 355.211,-51.724 368.732,-53.4937"/>
<polygon fill="midnightblue" stroke="midnightblue" points="368.602,-57.0065 378.972,-54.834 369.511,-50.0657 368.602,-57.0065"/>
</g>
<!-- Node9 -->
<g id="node9" class="node"><title>Node9</title>
<g id="a_node9"><a xlink:href="../../d5/df1/classfront_end_1_1_turtle_canvas.html#ade5c8fb1ca856b53eaef699c0dfa3c53" target="_top" xlink:title="frontEnd.TurtleCanvas.add\lPaletteListener">
<polygon fill="white" stroke="black" points="379,-0 379,-30 521,-30 521,-0 379,-0"/>
<text text-anchor="start" x="387" y="-18" font-family="Helvetica,sans-Serif" font-size="10.00">frontEnd.TurtleCanvas.add</text>
<text text-anchor="middle" x="450" y="-7" font-family="Helvetica,sans-Serif" font-size="10.00">PaletteListener</text>
</a>
</g>
</g>
<!-- Node6&#45;&gt;Node9 -->
<g id="edge9" class="edge"><title>Node6&#45;&gt;Node9</title>
<path fill="none" stroke="midnightblue" d="M328.037,-30.1996C341.272,-28.5365 355.211,-26.785 368.732,-25.086"/>
<polygon fill="midnightblue" stroke="midnightblue" points="369.486,-28.5189 378.972,-23.7994 368.613,-21.5735 369.486,-28.5189"/>
</g>
<!-- Node8 -->
<g id="node8" class="node"><title>Node8</title>
<g id="a_node8"><a xlink:href="../../d5/df1/classfront_end_1_1_turtle_canvas.html#a222a37326fc072937d76f29f5fe27bdc" target="_top" xlink:title="frontEnd.TurtleCanvas.change\lBackgroundColor">
<polygon fill="white" stroke="black" points="572.5,-49 572.5,-79 731.5,-79 731.5,-49 572.5,-49"/>
<text text-anchor="start" x="580.5" y="-67" font-family="Helvetica,sans-Serif" font-size="10.00">frontEnd.TurtleCanvas.change</text>
<text text-anchor="middle" x="652" y="-56" font-family="Helvetica,sans-Serif" font-size="10.00">BackgroundColor</text>
</a>
</g>
</g>
<!-- Node7&#45;&gt;Node8 -->
<g id="edge8" class="edge"><title>Node7&#45;&gt;Node8</title>
<path fill="none" stroke="midnightblue" d="M521.231,-64C534.416,-64 548.36,-64 562.027,-64"/>
<polygon fill="midnightblue" stroke="midnightblue" points="562.406,-67.5001 572.406,-64 562.406,-60.5001 562.406,-67.5001"/>
</g>
</g>
</svg>
        <g id="navigator" transform="translate(0 0)" fill="#404254">
                <rect fill="#f2f5e9" fill-opacity="0.5" stroke="#606060" stroke-width=".5" x="0" y="0" width="60" height="60"/>
                <use id="zoomplus" xlink:href="#zoomPlus" x="17" y="9" onmousedown="handleZoom(evt,'in')"/>
                <use id="zoomminus" xlink:href="#zoomMin" x="42" y="9" onmousedown="handleZoom(evt,'out')"/>
                <use id="reset" xlink:href="#resetDef" x="30" y="36" onmousedown="handleReset()"/>
                <g id="arrowUp" xlink:href="#dirArrow" transform="translate(30 24)" onmousedown="handlePan(0,-1)">
                  <use xlink:href="#rim" fill="#404040">
                        <set attributeName="fill" to="#808080" begin="arrowUp.mouseover" end="arrowUp.mouseout"/>
                  </use>
                  <path fill="none" stroke="white" stroke-width="1.5" d="M0,-3.0v7 M-2.5,-0.5L0,-3.0L2.5,-0.5"/>
                </g>
                <g id="arrowRight" xlink:href="#dirArrow" transform="rotate(90) translate(36 -43)" onmousedown="handlePan(1,0)">
                  <use xlink:href="#rim" fill="#404040">
                        <set attributeName="fill" to="#808080" begin="arrowRight.mouseover" end="arrowRight.mouseout"/>
                  </use>
                  <path fill="none" stroke="white" stroke-width="1.5" d="M0,-3.0v7 M-2.5,-0.5L0,-3.0L2.5,-0.5"/>
                </g>
                <g id="arrowDown" xlink:href="#dirArrow" transform="rotate(180) translate(-30 -48)" onmousedown="handlePan(0,1)">
                  <use xlink:href="#rim" fill="#404040">
                        <set attributeName="fill" to="#808080" begin="arrowDown.mouseover" end="arrowDown.mouseout"/>
                  </use>
                  <path fill="none" stroke="white" stroke-width="1.5" d="M0,-3.0v7 M-2.5,-0.5L0,-3.0L2.5,-0.5"/>
                </g>
                <g id="arrowLeft" xlink:href="#dirArrow" transform="rotate(270) translate(-36 17)" onmousedown="handlePan(-1,0)">
                  <use xlink:href="#rim" fill="#404040">
                        <set attributeName="fill" to="#808080" begin="arrowLeft.mouseover" end="arrowLeft.mouseout"/>
                  </use>
                  <path fill="none" stroke="white" stroke-width="1.5" d="M0,-3.0v7 M-2.5,-0.5L0,-3.0L2.5,-0.5"/>
                </g>
        </g>
        <svg viewBox="0 0 15 15" width="100%" height="30px" preserveAspectRatio="xMaxYMin meet">
         <g id="arrow_out" transform="scale(0.3 0.3)">
          <a xlink:href="classfront_end_1_1_turtle_canvas_a7e7a498220ce749030e4752620dfb2a9_cgraph_org.svg" target="_base">
           <rect id="button" ry="5" rx="5" y="6" x="6" height="38" width="38"
                fill="#f2f5e9" fill-opacity="0.5" stroke="#606060" stroke-width="1.0"/>
           <path id="arrow"
             d="M 11.500037,31.436501 C 11.940474,20.09759 22.043105,11.32322 32.158766,21.979434 L 37.068811,17.246167 C 37.068811,17.246167 37.088388,32 37.088388,32 L 22.160133,31.978069 C 22.160133,31.978069 26.997745,27.140456 26.997745,27.140456 C 18.528582,18.264221 13.291696,25.230495 11.500037,31.436501 z"
             style="fill:#404040;"/>
          </a>
         </g>
        </svg>
</svg>
