<?xml version="1.0" encoding="UTF-8" standalone="no"?>
<!DOCTYPE svg PUBLIC "-//W3C//DTD SVG 1.1//EN"
 "http://www.w3.org/Graphics/SVG/1.1/DTD/svg11.dtd">
<!-- Generated by graphviz version 2.36.0 (20140111.2315)
 -->
<!-- Title: frontEnd.TurtleCanvas.getBoundingWidth Pages: 1 -->
<svg width="718pt" height="38pt"
 viewBox="0.00 0.00 718.00 38.00" xmlns="http://www.w3.org/2000/svg" xmlns:xlink="http://www.w3.org/1999/xlink">
<g id="graph0" class="graph" transform="scale(1 1) rotate(0) translate(4 34)">
<title>frontEnd.TurtleCanvas.getBoundingWidth</title>
<polygon fill="white" stroke="none" points="-4,4 -4,-34 714,-34 714,4 -4,4"/>
<!-- Node1 -->
<g id="node1" class="node"><title>Node1</title>
<polygon fill="#bfbfbf" stroke="black" points="0,-0 0,-30 140,-30 140,-0 0,-0"/>
<text text-anchor="start" x="8" y="-18" font-family="Helvetica,sans-Serif" font-size="10.00">frontEnd.TurtleCanvas.get</text>
<text text-anchor="middle" x="70" y="-7" font-family="Helvetica,sans-Serif" font-size="10.00">BoundingWidth</text>
</g>
<!-- Node2 -->
<g id="node2" class="node"><title>Node2</title>
<g id="a_node2"><a xlink:href="../../d8/d1f/classfront_end_1_1_view.html#ac93be255ff8412cce583dab2ed555d3d" target="_top" xlink:title="frontEnd.View.getCanvasWidth">
<polygon fill="white" stroke="black" points="176.5,-5.5 176.5,-24.5 337.5,-24.5 337.5,-5.5 176.5,-5.5"/>
<text text-anchor="middle" x="257" y="-12.5" font-family="Helvetica,sans-Serif" font-size="10.00">frontEnd.View.getCanvasWidth</text>
</a>
</g>
</g>
<!-- Node1&#45;&gt;Node2 -->
<g id="edge1" class="edge"><title>Node1&#45;&gt;Node2</title>
<path fill="none" stroke="midnightblue" d="M150.219,-15C158.873,-15 167.686,-15 176.346,-15"/>
<polygon fill="midnightblue" stroke="midnightblue" points="150.15,-11.5001 140.15,-15 150.15,-18.5001 150.15,-11.5001"/>
</g>
<!-- Node3 -->
<g id="node3" class="node"><title>Node3</title>
<g id="a_node3"><a xlink:href="../../d9/d98/classback_end_1_1_model.html#a0c1150b8c4ffe07001a42b5d4cdacbd2" target="_top" xlink:title="backEnd.Model.setupTurtle\lManager">
<polygon fill="white" stroke="black" points="374,-0 374,-30 518,-30 518,-0 374,-0"/>
<text text-anchor="start" x="382" y="-18" font-family="Helvetica,sans-Serif" font-size="10.00">backEnd.Model.setupTurtle</text>
<text text-anchor="middle" x="446" y="-7" font-family="Helvetica,sans-Serif" font-size="10.00">Manager</text>
</a>
</g>
</g>
<!-- Node2&#45;&gt;Node3 -->
<g id="edge2" class="edge"><title>Node2&#45;&gt;Node3</title>
<path fill="none" stroke="midnightblue" d="M347.781,-15C356.507,-15 365.276,-15 373.784,-15"/>
<polygon fill="midnightblue" stroke="midnightblue" points="347.576,-11.5001 337.576,-15 347.576,-18.5001 347.576,-11.5001"/>
</g>
<!-- Node4 -->
<g id="node4" class="node"><title>Node4</title>
<g id="a_node4"><a xlink:href="../../d9/d49/classback_end_1_1_controller.html#a987136eaba0798749f393bac2a9a2400" target="_top" xlink:title="backEnd.Controller.Controller">
<polygon fill="white" stroke="black" points="554.5,-5.5 554.5,-24.5 709.5,-24.5 709.5,-5.5 554.5,-5.5"/>
<text text-anchor="middle" x="632" y="-12.5" font-family="Helvetica,sans-Serif" font-size="10.00">backEnd.Controller.Controller</text>
</a>
</g>
</g>
<!-- Node3&#45;&gt;Node4 -->
<g id="edge3" class="edge"><title>Node3&#45;&gt;Node4</title>
<path fill="none" stroke="midnightblue" d="M528.219,-15C536.872,-15 545.654,-15 554.253,-15"/>
<polygon fill="midnightblue" stroke="midnightblue" points="528.139,-11.5001 518.139,-15 528.139,-18.5001 528.139,-11.5001"/>
</g>
</g>
</svg>
