<?xml version="1.0" encoding="UTF-8" standalone="no"?>
<!DOCTYPE svg PUBLIC "-//W3C//DTD SVG 1.1//EN"
 "http://www.w3.org/Graphics/SVG/1.1/DTD/svg11.dtd">
<!-- Generated by graphviz version 2.36.0 (20140111.2315)
 -->
<!-- Title: frontEnd.TurtleCanvas.changePenColor Pages: 1 -->
<svg width="938pt" height="38pt"
 viewBox="0.00 0.00 938.00 38.00" xmlns="http://www.w3.org/2000/svg" xmlns:xlink="http://www.w3.org/1999/xlink">
<g id="graph0" class="graph" transform="scale(1 1) rotate(0) translate(4 34)">
<title>frontEnd.TurtleCanvas.changePenColor</title>
<polygon fill="white" stroke="none" points="-4,4 -4,-34 934,-34 934,4 -4,4"/>
<!-- Node1 -->
<g id="node1" class="node"><title>Node1</title>
<polygon fill="#bfbfbf" stroke="black" points="0.5,-0 0.5,-30 159.5,-30 159.5,-0 0.5,-0"/>
<text text-anchor="start" x="8.5" y="-18" font-family="Helvetica,sans-Serif" font-size="10.00">frontEnd.TurtleCanvas.change</text>
<text text-anchor="middle" x="80" y="-7" font-family="Helvetica,sans-Serif" font-size="10.00">PenColor</text>
</g>
<!-- Node2 -->
<g id="node2" class="node"><title>Node2</title>
<g id="a_node2"><a xlink:href="../../d8/d1f/classfront_end_1_1_view.html#a8a032e4ed880f3099ab4d04846221219" target="_top" xlink:title="frontEnd.View.changePenColor">
<polygon fill="white" stroke="black" points="196,-5.5 196,-24.5 358,-24.5 358,-5.5 196,-5.5"/>
<text text-anchor="middle" x="277" y="-12.5" font-family="Helvetica,sans-Serif" font-size="10.00">frontEnd.View.changePenColor</text>
</a>
</g>
</g>
<!-- Node1&#45;&gt;Node2 -->
<g id="edge1" class="edge"><title>Node1&#45;&gt;Node2</title>
<path fill="none" stroke="midnightblue" d="M169.815,-15C178.438,-15 187.151,-15 195.683,-15"/>
<polygon fill="midnightblue" stroke="midnightblue" points="169.752,-11.5001 159.752,-15 169.752,-18.5001 169.752,-11.5001"/>
</g>
<!-- Node3 -->
<g id="node3" class="node"><title>Node3</title>
<g id="a_node3"><a xlink:href="../../d9/d49/classback_end_1_1_controller.html#a06c74a6c4bb360e826758f33e0dd1eb6" target="_top" xlink:title="backEnd.Controller.change\lPenColor">
<polygon fill="white" stroke="black" points="394,-0 394,-30 538,-30 538,-0 394,-0"/>
<text text-anchor="start" x="402" y="-18" font-family="Helvetica,sans-Serif" font-size="10.00">backEnd.Controller.change</text>
<text text-anchor="middle" x="466" y="-7" font-family="Helvetica,sans-Serif" font-size="10.00">PenColor</text>
</a>
</g>
</g>
<!-- Node2&#45;&gt;Node3 -->
<g id="edge2" class="edge"><title>Node2&#45;&gt;Node3</title>
<path fill="none" stroke="midnightblue" d="M368.208,-15C376.832,-15 385.494,-15 393.899,-15"/>
<polygon fill="midnightblue" stroke="midnightblue" points="368.119,-11.5001 358.119,-15 368.119,-18.5001 368.119,-11.5001"/>
</g>
<!-- Node4 -->
<g id="node4" class="node"><title>Node4</title>
<g id="a_node4"><a xlink:href="../../da/d04/classtitle_panes_1_1_control_title_pane.html#a34e6959ea802f029e594f26b77b9e736" target="_top" xlink:title="titlePanes.ControlTitlePane.make\lPenColorBox">
<polygon fill="white" stroke="black" points="574.5,-0 574.5,-30 747.5,-30 747.5,-0 574.5,-0"/>
<text text-anchor="start" x="582.5" y="-18" font-family="Helvetica,sans-Serif" font-size="10.00">titlePanes.ControlTitlePane.make</text>
<text text-anchor="middle" x="661" y="-7" font-family="Helvetica,sans-Serif" font-size="10.00">PenColorBox</text>
</a>
</g>
</g>
<!-- Node3&#45;&gt;Node4 -->
<g id="edge3" class="edge"><title>Node3&#45;&gt;Node4</title>
<path fill="none" stroke="midnightblue" d="M548.132,-15C556.808,-15 565.653,-15 574.378,-15"/>
<polygon fill="midnightblue" stroke="midnightblue" points="548.044,-11.5001 538.044,-15 548.044,-18.5001 548.044,-11.5001"/>
</g>
<!-- Node5 -->
<g id="node5" class="node"><title>Node5</title>
<g id="a_node5"><a xlink:href="../../da/d04/classtitle_panes_1_1_control_title_pane.html#ad9d4431a2657a30fedae46e0c9093867" target="_top" xlink:title="titlePanes.ControlTitlePane.\lControlTitlePane">
<polygon fill="white" stroke="black" points="784,-0 784,-30 930,-30 930,-0 784,-0"/>
<text text-anchor="start" x="792" y="-18" font-family="Helvetica,sans-Serif" font-size="10.00">titlePanes.ControlTitlePane.</text>
<text text-anchor="middle" x="857" y="-7" font-family="Helvetica,sans-Serif" font-size="10.00">ControlTitlePane</text>
</a>
</g>
</g>
<!-- Node4&#45;&gt;Node5 -->
<g id="edge4" class="edge"><title>Node4&#45;&gt;Node5</title>
<path fill="none" stroke="midnightblue" d="M757.887,-15C766.622,-15 775.368,-15 783.843,-15"/>
<polygon fill="midnightblue" stroke="midnightblue" points="757.656,-11.5001 747.656,-15 757.656,-18.5001 757.656,-11.5001"/>
</g>
</g>
</svg>
