<?xml version="1.0" encoding="UTF-8" standalone="no"?>
<!DOCTYPE svg PUBLIC "-//W3C//DTD SVG 1.1//EN"
 "http://www.w3.org/Graphics/SVG/1.1/DTD/svg11.dtd">
<!-- Generated by graphviz version 2.36.0 (20140111.2315)
 -->
<!-- Title: frontEnd.TurtleCanvas.addTurtle Pages: 1 -->
<svg width="498pt" height="38pt"
 viewBox="0.00 0.00 498.00 38.00" xmlns="http://www.w3.org/2000/svg" xmlns:xlink="http://www.w3.org/1999/xlink">
<g id="graph0" class="graph" transform="scale(1 1) rotate(0) translate(4 34)">
<title>frontEnd.TurtleCanvas.addTurtle</title>
<polygon fill="white" stroke="none" points="-4,4 -4,-34 494,-34 494,4 -4,4"/>
<!-- Node1 -->
<g id="node1" class="node"><title>Node1</title>
<polygon fill="#bfbfbf" stroke="black" points="0,-0 0,-30 142,-30 142,-0 0,-0"/>
<text text-anchor="start" x="8" y="-18" font-family="Helvetica,sans-Serif" font-size="10.00">frontEnd.TurtleCanvas.add</text>
<text text-anchor="middle" x="71" y="-7" font-family="Helvetica,sans-Serif" font-size="10.00">Turtle</text>
</g>
<!-- Node2 -->
<g id="node2" class="node"><title>Node2</title>
<g id="a_node2"><a xlink:href="../../d5/df1/classfront_end_1_1_turtle_canvas.html#ad48a6fbb8daf59b2ec1dd97aeeaa8eb7" target="_top" xlink:title="frontEnd.TurtleCanvas.update">
<polygon fill="white" stroke="black" points="178,-5.5 178,-24.5 336,-24.5 336,-5.5 178,-5.5"/>
<text text-anchor="middle" x="257" y="-12.5" font-family="Helvetica,sans-Serif" font-size="10.00">frontEnd.TurtleCanvas.update</text>
</a>
</g>
</g>
<!-- Node1&#45;&gt;Node2 -->
<g id="edge1" class="edge"><title>Node1&#45;&gt;Node2</title>
<path fill="none" stroke="midnightblue" d="M152.321,-15C160.782,-15 169.376,-15 177.812,-15"/>
<polygon fill="midnightblue" stroke="midnightblue" points="152.087,-11.5001 142.087,-15 152.087,-18.5001 152.087,-11.5001"/>
</g>
<!-- Node3 -->
<g id="node3" class="node"><title>Node3</title>
<g id="a_node3"><a xlink:href="../../d8/d1f/classfront_end_1_1_view.html#a8cc3a5b95c95cfcdedbcc27755d62803" target="_top" xlink:title="frontEnd.View.update">
<polygon fill="white" stroke="black" points="372,-5.5 372,-24.5 490,-24.5 490,-5.5 372,-5.5"/>
<text text-anchor="middle" x="431" y="-12.5" font-family="Helvetica,sans-Serif" font-size="10.00">frontEnd.View.update</text>
</a>
</g>
</g>
<!-- Node2&#45;&gt;Node3 -->
<g id="edge2" class="edge"><title>Node2&#45;&gt;Node3</title>
<path fill="none" stroke="midnightblue" d="M346.335,-15C354.974,-15 363.583,-15 371.81,-15"/>
<polygon fill="midnightblue" stroke="midnightblue" points="346.199,-11.5001 336.199,-15 346.199,-18.5001 346.199,-11.5001"/>
</g>
</g>
</svg>
