<?xml version="1.0" encoding="UTF-8" standalone="no"?>
<!DOCTYPE svg PUBLIC "-//W3C//DTD SVG 1.1//EN"
 "http://www.w3.org/Graphics/SVG/1.1/DTD/svg11.dtd">
<!-- Generated by graphviz version 2.36.0 (20140111.2315)
 -->
<!-- Title: frontEnd.TurtleCanvas.addListeners Pages: 1 -->
<svg width="524pt" height="87pt"
 viewBox="0.00 0.00 524.00 87.00" xmlns="http://www.w3.org/2000/svg" xmlns:xlink="http://www.w3.org/1999/xlink">
<g id="graph0" class="graph" transform="scale(1 1) rotate(0) translate(4 83)">
<title>frontEnd.TurtleCanvas.addListeners</title>
<polygon fill="white" stroke="none" points="-4,4 -4,-83 520,-83 520,4 -4,4"/>
<!-- Node1 -->
<g id="node1" class="node"><title>Node1</title>
<polygon fill="#bfbfbf" stroke="black" points="0,-24 0,-54 142,-54 142,-24 0,-24"/>
<text text-anchor="start" x="8" y="-42" font-family="Helvetica,sans-Serif" font-size="10.00">frontEnd.TurtleCanvas.add</text>
<text text-anchor="middle" x="71" y="-31" font-family="Helvetica,sans-Serif" font-size="10.00">Listeners</text>
</g>
<!-- Node2 -->
<g id="node2" class="node"><title>Node2</title>
<g id="a_node2"><a xlink:href="../../d5/df1/classfront_end_1_1_turtle_canvas.html#a96ff82f0946b3810df1db6ad9d3365ec" target="_top" xlink:title="frontEnd.TurtleCanvas.add\lBackgroundIndexListener">
<polygon fill="white" stroke="black" points="178,-49 178,-79 320,-79 320,-49 178,-49"/>
<text text-anchor="start" x="186" y="-67" font-family="Helvetica,sans-Serif" font-size="10.00">frontEnd.TurtleCanvas.add</text>
<text text-anchor="middle" x="249" y="-56" font-family="Helvetica,sans-Serif" font-size="10.00">BackgroundIndexListener</text>
</a>
</g>
</g>
<!-- Node1&#45;&gt;Node2 -->
<g id="edge1" class="edge"><title>Node1&#45;&gt;Node2</title>
<path fill="none" stroke="midnightblue" d="M142.066,-48.9525C150.54,-50.1563 159.247,-51.393 167.852,-52.6154"/>
<polygon fill="midnightblue" stroke="midnightblue" points="167.495,-56.0997 177.888,-54.0409 168.48,-49.1693 167.495,-56.0997"/>
</g>
<!-- Node4 -->
<g id="node4" class="node"><title>Node4</title>
<g id="a_node4"><a xlink:href="../../d5/df1/classfront_end_1_1_turtle_canvas.html#ade5c8fb1ca856b53eaef699c0dfa3c53" target="_top" xlink:title="frontEnd.TurtleCanvas.add\lPaletteListener">
<polygon fill="white" stroke="black" points="178,-0 178,-30 320,-30 320,-0 178,-0"/>
<text text-anchor="start" x="186" y="-18" font-family="Helvetica,sans-Serif" font-size="10.00">frontEnd.TurtleCanvas.add</text>
<text text-anchor="middle" x="249" y="-7" font-family="Helvetica,sans-Serif" font-size="10.00">PaletteListener</text>
</a>
</g>
</g>
<!-- Node1&#45;&gt;Node4 -->
<g id="edge3" class="edge"><title>Node1&#45;&gt;Node4</title>
<path fill="none" stroke="midnightblue" d="M142.066,-29.4456C150.54,-28.29 159.247,-27.1027 167.852,-25.9292"/>
<polygon fill="midnightblue" stroke="midnightblue" points="168.453,-29.3799 177.888,-24.5607 167.507,-22.444 168.453,-29.3799"/>
</g>
<!-- Node3 -->
<g id="node3" class="node"><title>Node3</title>
<g id="a_node3"><a xlink:href="../../d5/df1/classfront_end_1_1_turtle_canvas.html#a222a37326fc072937d76f29f5fe27bdc" target="_top" xlink:title="frontEnd.TurtleCanvas.change\lBackgroundColor">
<polygon fill="white" stroke="black" points="356.5,-49 356.5,-79 515.5,-79 515.5,-49 356.5,-49"/>
<text text-anchor="start" x="364.5" y="-67" font-family="Helvetica,sans-Serif" font-size="10.00">frontEnd.TurtleCanvas.change</text>
<text text-anchor="middle" x="436" y="-56" font-family="Helvetica,sans-Serif" font-size="10.00">BackgroundColor</text>
</a>
</g>
</g>
<!-- Node2&#45;&gt;Node3 -->
<g id="edge2" class="edge"><title>Node2&#45;&gt;Node3</title>
<path fill="none" stroke="midnightblue" d="M320.204,-64C328.727,-64 337.518,-64 346.263,-64"/>
<polygon fill="midnightblue" stroke="midnightblue" points="346.491,-67.5001 356.491,-64 346.491,-60.5001 346.491,-67.5001"/>
</g>
</g>
</svg>
