<?xml version="1.0" encoding="UTF-8" standalone="no"?>
<!DOCTYPE svg PUBLIC "-//W3C//DTD SVG 1.1//EN"
 "http://www.w3.org/Graphics/SVG/1.1/DTD/svg11.dtd">
<!-- Generated by graphviz version 2.36.0 (20140111.2315)
 -->
<!-- Title: frontEnd.TurtleCanvas Pages: 1 -->
<!--zoomable 244 -->
<svg id="main" version="1.1" xmlns="http://www.w3.org/2000/svg" xmlns:xlink="http://www.w3.org/1999/xlink" xml:space="preserve" onload="init(evt)">
<style type="text/css"><![CDATA[
.edge:hover path { stroke: red; }
.edge:hover polygon { stroke: red; fill: red; }
]]></style>
<script type="text/javascript"><![CDATA[
var edges = document.getElementsByTagName('g');
if (edges && edges.length) {
  for (var i=0;i<edges.length;i++) {
    if (edges[i].id.substr(0,4)=='edge') {
      edges[i].setAttribute('class','edge');
    }
  }
}
]]></script>
        <defs>
                <circle id="rim" cx="0" cy="0" r="7"/>
                <circle id="rim2" cx="0" cy="0" r="3.5"/>
                <g id="zoomPlus">
                        <use xlink:href="#rim" fill="#404040">
                                <set attributeName="fill" to="#808080" begin="zoomplus.mouseover" end="zoomplus.mouseout"/>
                        </use>
                        <path d="M-4,0h8M0,-4v8" fill="none" stroke="white" stroke-width="1.5" pointer-events="none"/>
                </g>
                <g id="zoomMin">
                        <use xlink:href="#rim" fill="#404040">
                                <set attributeName="fill" to="#808080" begin="zoomminus.mouseover" end="zoomminus.mouseout"/>
                        </use>
                        <path d="M-4,0h8" fill="none" stroke="white" stroke-width="1.5" pointer-events="none"/>
                </g>
                <g id="dirArrow">
                        <path fill="none" stroke="white" stroke-width="1.5" d="M0,-3.0v7 M-2.5,-0.5L0,-3.0L2.5,-0.5"/>
                </g>
               <g id="resetDef">
                       <use xlink:href="#rim2" fill="#404040">
                               <set attributeName="fill" to="#808080" begin="reset.mouseover" end="reset.mouseout"/>
                       </use>
               </g>
        </defs>

<script type="text/javascript">
var viewWidth = 1149;
var viewHeight = 244;
var sectionId = 'dynsection-1';
</script>
<script xlink:href="../../svgpan.js"/>
<svg id="graph" class="graph">
<g id="viewport">
<title>frontEnd.TurtleCanvas</title>
<polygon fill="white" stroke="none" points="-4,4 -4,-240 1145.04,-240 1145.04,4 -4,4"/>
<!-- Node1 -->
<g id="node1" class="node"><title>Node1</title>
<polygon fill="#bfbfbf" stroke="black" points="163.539,-0.5 163.539,-19.5 284.539,-19.5 284.539,-0.5 163.539,-0.5"/>
<text text-anchor="middle" x="224.039" y="-7.5" font-family="Helvetica,sans-Serif" font-size="10.00">frontEnd.TurtleCanvas</text>
</g>
<!-- Node2 -->
<g id="node2" class="node"><title>Node2</title>
<polygon fill="white" stroke="#bfbfbf" points="51.0386,-216.5 51.0386,-235.5 97.0386,-235.5 97.0386,-216.5 51.0386,-216.5"/>
<text text-anchor="middle" x="74.0386" y="-223.5" font-family="Helvetica,sans-Serif" font-size="10.00">Group</text>
</g>
<!-- Node2&#45;&gt;Node1 -->
<g id="edge1" class="edge"><title>Node2&#45;&gt;Node1</title>
<path fill="none" stroke="midnightblue" d="M71.1567,-206.208C67.3669,-174.7 64.2159,-110.499 93.0386,-68 111.067,-41.4172 144.378,-27.1428 172.896,-19.5265"/>
<polygon fill="midnightblue" stroke="midnightblue" points="67.7051,-206.801 72.5239,-216.236 74.6409,-205.855 67.7051,-206.801"/>
</g>
<!-- Node2&#45;&gt;Node1 -->
<g id="edge14" class="edge"><title>Node2&#45;&gt;Node1</title>
<path fill="none" stroke="#9a32cd" stroke-dasharray="5,2" d="M57.9115,-208.965C29.7499,-178.997 -22.3548,-113.421 11.0386,-68 29.0935,-43.442 107.11,-27.3802 163.502,-18.7474"/>
<polygon fill="#9a32cd" stroke="#9a32cd" points="55.6607,-211.673 65.1286,-216.428 60.6923,-206.806 55.6607,-211.673"/>
<text text-anchor="middle" x="42.5386" y="-82.5" font-family="Helvetica,sans-Serif" font-size="10.00"> myGridLines</text>
</g>
<!-- Node5 -->
<g id="node5" class="node"><title>Node5</title>
<g id="a_node5"><a xlink:href="../../dc/dcd/classfront_end_1_1_turtle_view.html" target="_top" xlink:title="frontEnd.TurtleView">
<polygon fill="white" stroke="black" points="424.539,-75.5 424.539,-94.5 531.539,-94.5 531.539,-75.5 424.539,-75.5"/>
<text text-anchor="middle" x="478.039" y="-82.5" font-family="Helvetica,sans-Serif" font-size="10.00">frontEnd.TurtleView</text>
</a>
</g>
</g>
<!-- Node2&#45;&gt;Node5 -->
<g id="edge11" class="edge"><title>Node2&#45;&gt;Node5</title>
<path fill="none" stroke="#9a32cd" stroke-dasharray="5,2" d="M86.7565,-208.404C106.266,-184.316 146.077,-140.33 191.039,-120 201.511,-115.265 344.049,-99.8871 424.216,-91.5295"/>
<polygon fill="#9a32cd" stroke="#9a32cd" points="83.972,-206.282 80.5153,-216.297 89.463,-210.624 83.972,-206.282"/>
<text text-anchor="middle" x="221.539" y="-162" font-family="Helvetica,sans-Serif" font-size="10.00"> myPenLines</text>
<text text-anchor="middle" x="221.539" y="-151" font-family="Helvetica,sans-Serif" font-size="10.00">myStamps</text>
</g>
<!-- Node3 -->
<g id="node3" class="node"><title>Node3</title>
<polygon fill="white" stroke="#bfbfbf" points="102.039,-75.5 102.039,-94.5 188.039,-94.5 188.039,-75.5 102.039,-75.5"/>
<text text-anchor="middle" x="145.039" y="-82.5" font-family="Helvetica,sans-Serif" font-size="10.00">StringProperty</text>
</g>
<!-- Node3&#45;&gt;Node1 -->
<g id="edge2" class="edge"><title>Node3&#45;&gt;Node1</title>
<path fill="none" stroke="#9a32cd" stroke-dasharray="5,2" d="M146.497,-65.3317C148.088,-56.1512 151.358,-45.4811 158.039,-38 165.625,-29.5048 176.283,-23.6284 186.824,-19.5858"/>
<polygon fill="#9a32cd" stroke="#9a32cd" points="142.996,-65.1294 145.273,-75.4767 149.945,-65.968 142.996,-65.1294"/>
<text text-anchor="middle" x="184.039" y="-41.5" font-family="Helvetica,sans-Serif" font-size="10.00"> myPalette</text>
</g>
<!-- Node4 -->
<g id="node4" class="node"><title>Node4</title>
<polygon fill="white" stroke="#bfbfbf" points="172.539,-216.5 172.539,-235.5 263.539,-235.5 263.539,-216.5 172.539,-216.5"/>
<text text-anchor="middle" x="218.039" y="-223.5" font-family="Helvetica,sans-Serif" font-size="10.00">DoubleProperty</text>
</g>
<!-- Node4&#45;&gt;Node1 -->
<g id="edge3" class="edge"><title>Node4&#45;&gt;Node1</title>
<path fill="none" stroke="#9a32cd" stroke-dasharray="5,2" d="M187.201,-211.175C182.32,-207.598 177.935,-203.239 175.039,-198 158.265,-167.662 160.193,-151.327 175.039,-120 180.449,-108.584 190.044,-112.52 197.039,-102 214.739,-75.3772 221.118,-36.8451 223.169,-19.7427"/>
<polygon fill="#9a32cd" stroke="#9a32cd" points="185.369,-214.158 195.707,-216.476 189.071,-208.217 185.369,-214.158"/>
<text text-anchor="middle" x="262.039" y="-93.5" font-family="Helvetica,sans-Serif" font-size="10.00"> myWidth</text>
<text text-anchor="middle" x="262.039" y="-82.5" font-family="Helvetica,sans-Serif" font-size="10.00">myBackgroundIndex</text>
<text text-anchor="middle" x="262.039" y="-71.5" font-family="Helvetica,sans-Serif" font-size="10.00">myHeight</text>
</g>
<!-- Node4&#45;&gt;Node5 -->
<g id="edge5" class="edge"><title>Node4&#45;&gt;Node5</title>
<path fill="none" stroke="#9a32cd" stroke-dasharray="5,2" d="M242.466,-210.872C247.438,-207.165 252.287,-202.833 256.039,-198 278.814,-168.66 257.38,-143.627 286.039,-120 306.674,-102.989 374.974,-94.0243 424.243,-89.654"/>
<polygon fill="#9a32cd" stroke="#9a32cd" points="240.475,-207.994 234.156,-216.497 244.399,-213.79 240.475,-207.994"/>
<text text-anchor="middle" x="328.039" y="-189.5" font-family="Helvetica,sans-Serif" font-size="10.00"> myShapeIndex</text>
<text text-anchor="middle" x="328.039" y="-178.5" font-family="Helvetica,sans-Serif" font-size="10.00">myYPosition</text>
<text text-anchor="middle" x="328.039" y="-167.5" font-family="Helvetica,sans-Serif" font-size="10.00">myXPosition</text>
<text text-anchor="middle" x="328.039" y="-156.5" font-family="Helvetica,sans-Serif" font-size="10.00">myPenColorIndex</text>
<text text-anchor="middle" x="328.039" y="-145.5" font-family="Helvetica,sans-Serif" font-size="10.00">myStampCount</text>
<text text-anchor="middle" x="328.039" y="-134.5" font-family="Helvetica,sans-Serif" font-size="10.00">myPenSize</text>
<text text-anchor="middle" x="328.039" y="-123.5" font-family="Helvetica,sans-Serif" font-size="10.00">myOrientation</text>
</g>
<!-- Node5&#45;&gt;Node1 -->
<g id="edge4" class="edge"><title>Node5&#45;&gt;Node1</title>
<path fill="none" stroke="#9a32cd" stroke-dasharray="5,2" d="M438.714,-72.6979C387.683,-58.0316 299.763,-32.7633 253.877,-19.5755"/>
<polygon fill="#9a32cd" stroke="#9a32cd" points="437.827,-76.0847 448.404,-75.4831 439.76,-69.357 437.827,-76.0847"/>
<text text-anchor="middle" x="392.039" y="-41.5" font-family="Helvetica,sans-Serif" font-size="10.00"> myTurtleView</text>
</g>
<!-- Node6 -->
<g id="node6" class="node"><title>Node6</title>
<polygon fill="white" stroke="#bfbfbf" points="700.539,-216.5 700.539,-235.5 793.539,-235.5 793.539,-216.5 700.539,-216.5"/>
<text text-anchor="middle" x="747.039" y="-223.5" font-family="Helvetica,sans-Serif" font-size="10.00">ResourceBundle</text>
</g>
<!-- Node6&#45;&gt;Node5 -->
<g id="edge6" class="edge"><title>Node6&#45;&gt;Node5</title>
<path fill="none" stroke="#9a32cd" stroke-dasharray="5,2" d="M742.485,-206.492C735.185,-177.139 721.345,-122.906 718.039,-120 691.131,-96.3513 593.866,-89.1198 531.725,-86.9286"/>
<polygon fill="#9a32cd" stroke="#9a32cd" points="739.128,-207.498 744.927,-216.365 745.924,-205.817 739.128,-207.498"/>
<text text-anchor="middle" x="789.539" y="-156.5" font-family="Helvetica,sans-Serif" font-size="10.00"> myImageResources</text>
</g>
<!-- Node7 -->
<g id="node7" class="node"><title>Node7</title>
<polygon fill="white" stroke="#bfbfbf" points="338.039,-216.5 338.039,-235.5 406.039,-235.5 406.039,-216.5 338.039,-216.5"/>
<text text-anchor="middle" x="372.039" y="-223.5" font-family="Helvetica,sans-Serif" font-size="10.00">ImageView</text>
</g>
<!-- Node7&#45;&gt;Node5 -->
<g id="edge7" class="edge"><title>Node7&#45;&gt;Node5</title>
<path fill="none" stroke="#9a32cd" stroke-dasharray="5,2" d="M372.291,-206.088C373.572,-183.136 378.994,-144.476 400.039,-120 410.633,-107.679 426.524,-99.6686 441.204,-94.5396"/>
<polygon fill="#9a32cd" stroke="#9a32cd" points="368.788,-206.117 371.941,-216.232 375.784,-206.359 368.788,-206.117"/>
<text text-anchor="middle" x="435.039" y="-156.5" font-family="Helvetica,sans-Serif" font-size="10.00"> myImageView</text>
</g>
<!-- Node8 -->
<g id="node8" class="node"><title>Node8</title>
<polygon fill="white" stroke="#bfbfbf" points="424.039,-216.5 424.039,-235.5 520.039,-235.5 520.039,-216.5 424.039,-216.5"/>
<text text-anchor="middle" x="472.039" y="-223.5" font-family="Helvetica,sans-Serif" font-size="10.00">BooleanProperty</text>
</g>
<!-- Node8&#45;&gt;Node5 -->
<g id="edge8" class="edge"><title>Node8&#45;&gt;Node5</title>
<path fill="none" stroke="#9a32cd" stroke-dasharray="5,2" d="M472.852,-206.158C474.167,-175.699 476.708,-116.823 477.663,-94.6918"/>
<polygon fill="#9a32cd" stroke="#9a32cd" points="469.349,-206.163 472.414,-216.305 476.342,-206.465 469.349,-206.163"/>
<text text-anchor="middle" x="517.039" y="-173" font-family="Helvetica,sans-Serif" font-size="10.00"> myLinesCleared</text>
<text text-anchor="middle" x="517.039" y="-162" font-family="Helvetica,sans-Serif" font-size="10.00">myVisibility</text>
<text text-anchor="middle" x="517.039" y="-151" font-family="Helvetica,sans-Serif" font-size="10.00">myActivity</text>
<text text-anchor="middle" x="517.039" y="-140" font-family="Helvetica,sans-Serif" font-size="10.00">myPenDown</text>
</g>
<!-- Node9 -->
<g id="node9" class="node"><title>Node9</title>
<g id="a_node9"><a xlink:href="../../df/d96/interfacedrawer_1_1_drawer.html" target="_top" xlink:title="drawer.Drawer">
<polygon fill="white" stroke="black" points="538.539,-216.5 538.539,-235.5 623.539,-235.5 623.539,-216.5 538.539,-216.5"/>
<text text-anchor="middle" x="581.039" y="-223.5" font-family="Helvetica,sans-Serif" font-size="10.00">drawer.Drawer</text>
</a>
</g>
</g>
<!-- Node9&#45;&gt;Node5 -->
<g id="edge9" class="edge"><title>Node9&#45;&gt;Node5</title>
<path fill="none" stroke="#9a32cd" stroke-dasharray="5,2" d="M582.077,-206.122C582.32,-183.204 579.322,-144.578 559.039,-120 548.846,-107.649 533.388,-99.71 518.698,-94.6415"/>
<polygon fill="#9a32cd" stroke="#9a32cd" points="578.575,-206.14 581.745,-216.249 585.571,-206.37 578.575,-206.14"/>
<text text-anchor="middle" x="608.039" y="-156.5" font-family="Helvetica,sans-Serif" font-size="10.00"> myDrawer</text>
</g>
<!-- Node10 -->
<g id="node10" class="node"><title>Node10</title>
<polygon fill="white" stroke="#bfbfbf" points="880.539,-216.5 880.539,-235.5 945.539,-235.5 945.539,-216.5 880.539,-216.5"/>
<text text-anchor="middle" x="913.039" y="-223.5" font-family="Helvetica,sans-Serif" font-size="10.00">Properties</text>
</g>
<!-- Node10&#45;&gt;Node1 -->
<g id="edge13" class="edge"><title>Node10&#45;&gt;Node1</title>
<path fill="none" stroke="#9a32cd" stroke-dasharray="5,2" d="M941.845,-210.764C946.349,-207.231 950.384,-202.994 953.039,-198 969.308,-167.388 975.577,-146.34 953.039,-120 866.979,-19.4259 443.948,-10.22 284.762,-10.3904"/>
<polygon fill="#9a32cd" stroke="#9a32cd" points="939.81,-207.915 933.43,-216.373 943.692,-213.739 939.81,-207.915"/>
<text text-anchor="middle" x="977.039" y="-82.5" font-family="Helvetica,sans-Serif" font-size="10.00"> myColorProperties</text>
</g>
<!-- Node10&#45;&gt;Node5 -->
<g id="edge10" class="edge"><title>Node10&#45;&gt;Node5</title>
<path fill="none" stroke="#9a32cd" stroke-dasharray="5,2" d="M877.715,-211.635C871.486,-207.987 865.559,-203.485 861.039,-198 838.052,-170.11 865.934,-142.981 838.039,-120 814.933,-100.964 626.388,-91.4195 531.776,-87.7905"/>
<polygon fill="#9a32cd" stroke="#9a32cd" points="876.435,-214.913 886.928,-216.382 879.642,-208.69 876.435,-214.913"/>
<text text-anchor="middle" x="907.039" y="-156.5" font-family="Helvetica,sans-Serif" font-size="10.00"> myColorProperties</text>
</g>
<!-- Node11 -->
<g id="node11" class="node"><title>Node11</title>
<polygon fill="white" stroke="#bfbfbf" points="641.539,-216.5 641.539,-235.5 682.539,-235.5 682.539,-216.5 641.539,-216.5"/>
<text text-anchor="middle" x="662.039" y="-223.5" font-family="Helvetica,sans-Serif" font-size="10.00">Color</text>
</g>
<!-- Node11&#45;&gt;Node5 -->
<g id="edge12" class="edge"><title>Node11&#45;&gt;Node5</title>
<path fill="none" stroke="#9a32cd" stroke-dasharray="5,2" d="M658.18,-206.413C652.099,-177.9 640.332,-126.01 634.039,-120 619.405,-106.025 570.723,-96.9312 531.588,-91.6968"/>
<polygon fill="#9a32cd" stroke="#9a32cd" points="654.791,-207.305 660.275,-216.37 661.641,-205.864 654.791,-207.305"/>
<text text-anchor="middle" x="686.539" y="-156.5" font-family="Helvetica,sans-Serif" font-size="10.00"> myPenColor</text>
</g>
<!-- Node12 -->
<g id="node12" class="node"><title>Node12</title>
<polygon fill="white" stroke="#bfbfbf" points="1077.54,-75.5 1077.54,-94.5 1140.54,-94.5 1140.54,-75.5 1077.54,-75.5"/>
<text text-anchor="middle" x="1109.04" y="-82.5" font-family="Helvetica,sans-Serif" font-size="10.00">Rectangle</text>
</g>
<!-- Node12&#45;&gt;Node1 -->
<g id="edge15" class="edge"><title>Node12&#45;&gt;Node1</title>
<path fill="none" stroke="#9a32cd" stroke-dasharray="5,2" d="M1081.52,-71.2938C1056.06,-60.2261 1016.86,-44.9015 981.039,-38 848.194,-12.4062 439.901,-10.5118 284.733,-10.7541"/>
<polygon fill="#9a32cd" stroke="#9a32cd" points="1080.33,-74.5948 1090.89,-75.4466 1083.17,-68.1951 1080.33,-74.5948"/>
<text text-anchor="middle" x="1063.04" y="-41.5" font-family="Helvetica,sans-Serif" font-size="10.00"> myBackground</text>
</g>
</g>
</svg>
        <g id="navigator" transform="translate(0 0)" fill="#404254">
                <rect fill="#f2f5e9" fill-opacity="0.5" stroke="#606060" stroke-width=".5" x="0" y="0" width="60" height="60"/>
                <use id="zoomplus" xlink:href="#zoomPlus" x="17" y="9" onmousedown="handleZoom(evt,'in')"/>
                <use id="zoomminus" xlink:href="#zoomMin" x="42" y="9" onmousedown="handleZoom(evt,'out')"/>
                <use id="reset" xlink:href="#resetDef" x="30" y="36" onmousedown="handleReset()"/>
                <g id="arrowUp" xlink:href="#dirArrow" transform="translate(30 24)" onmousedown="handlePan(0,-1)">
                  <use xlink:href="#rim" fill="#404040">
                        <set attributeName="fill" to="#808080" begin="arrowUp.mouseover" end="arrowUp.mouseout"/>
                  </use>
                  <path fill="none" stroke="white" stroke-width="1.5" d="M0,-3.0v7 M-2.5,-0.5L0,-3.0L2.5,-0.5"/>
                </g>
                <g id="arrowRight" xlink:href="#dirArrow" transform="rotate(90) translate(36 -43)" onmousedown="handlePan(1,0)">
                  <use xlink:href="#rim" fill="#404040">
                        <set attributeName="fill" to="#808080" begin="arrowRight.mouseover" end="arrowRight.mouseout"/>
                  </use>
                  <path fill="none" stroke="white" stroke-width="1.5" d="M0,-3.0v7 M-2.5,-0.5L0,-3.0L2.5,-0.5"/>
                </g>
                <g id="arrowDown" xlink:href="#dirArrow" transform="rotate(180) translate(-30 -48)" onmousedown="handlePan(0,1)">
                  <use xlink:href="#rim" fill="#404040">
                        <set attributeName="fill" to="#808080" begin="arrowDown.mouseover" end="arrowDown.mouseout"/>
                  </use>
                  <path fill="none" stroke="white" stroke-width="1.5" d="M0,-3.0v7 M-2.5,-0.5L0,-3.0L2.5,-0.5"/>
                </g>
                <g id="arrowLeft" xlink:href="#dirArrow" transform="rotate(270) translate(-36 17)" onmousedown="handlePan(-1,0)">
                  <use xlink:href="#rim" fill="#404040">
                        <set attributeName="fill" to="#808080" begin="arrowLeft.mouseover" end="arrowLeft.mouseout"/>
                  </use>
                  <path fill="none" stroke="white" stroke-width="1.5" d="M0,-3.0v7 M-2.5,-0.5L0,-3.0L2.5,-0.5"/>
                </g>
        </g>
        <svg viewBox="0 0 15 15" width="100%" height="30px" preserveAspectRatio="xMaxYMin meet">
         <g id="arrow_out" transform="scale(0.3 0.3)">
          <a xlink:href="classfront_end_1_1_turtle_canvas__coll__graph_org.svg" target="_base">
           <rect id="button" ry="5" rx="5" y="6" x="6" height="38" width="38"
                fill="#f2f5e9" fill-opacity="0.5" stroke="#606060" stroke-width="1.0"/>
           <path id="arrow"
             d="M 11.500037,31.436501 C 11.940474,20.09759 22.043105,11.32322 32.158766,21.979434 L 37.068811,17.246167 C 37.068811,17.246167 37.088388,32 37.088388,32 L 22.160133,31.978069 C 22.160133,31.978069 26.997745,27.140456 26.997745,27.140456 C 18.528582,18.264221 13.291696,25.230495 11.500037,31.436501 z"
             style="fill:#404040;"/>
          </a>
         </g>
        </svg>
</svg>
