<?xml version="1.0" encoding="UTF-8" standalone="no"?>
<!DOCTYPE svg PUBLIC "-//W3C//DTD SVG 1.1//EN"
 "http://www.w3.org/Graphics/SVG/1.1/DTD/svg11.dtd">
<!-- Generated by graphviz version 2.36.0 (20140111.2315)
 -->
<!-- Title: commands.templates.Command.setValue Pages: 1 -->
<svg width="670pt" height="1283pt"
 viewBox="0.00 0.00 670.00 1283.00" xmlns="http://www.w3.org/2000/svg" xmlns:xlink="http://www.w3.org/1999/xlink">
<g id="graph0" class="graph" transform="scale(1 1) rotate(0) translate(4 1279)">
<title>commands.templates.Command.setValue</title>
<polygon fill="white" stroke="none" points="-4,4 -4,-1279 666,-1279 666,4 -4,4"/>
<!-- Node1 -->
<g id="node1" class="node"><title>Node1</title>
<polygon fill="#bfbfbf" stroke="black" points="0,-632 0,-662 194,-662 194,-632 0,-632"/>
<text text-anchor="start" x="8" y="-650" font-family="Helvetica,sans-Serif" font-size="10.00">commands.templates.Command.set</text>
<text text-anchor="middle" x="97" y="-639" font-family="Helvetica,sans-Serif" font-size="10.00">Value</text>
</g>
<!-- Node2 -->
<g id="node2" class="node"><title>Node2</title>
<g id="a_node2"><a xlink:href="../../d8/dcb/classcommands_1_1turtle__commands_1_1_x_cor_query.html#a81bf278aa55931e1f63dc46fe7cc6604" target="_top" xlink:title="commands.turtle_commands.\lXCorQuery.execute">
<polygon fill="white" stroke="black" points="265.5,-1245 265.5,-1275 426.5,-1275 426.5,-1245 265.5,-1245"/>
<text text-anchor="start" x="273.5" y="-1263" font-family="Helvetica,sans-Serif" font-size="10.00">commands.turtle_commands.</text>
<text text-anchor="middle" x="346" y="-1252" font-family="Helvetica,sans-Serif" font-size="10.00">XCorQuery.execute</text>
</a>
</g>
</g>
<!-- Node1&#45;&gt;Node2 -->
<g id="edge1" class="edge"><title>Node1&#45;&gt;Node2</title>
<path fill="none" stroke="midnightblue" d="M100.104,-672.135C109.131,-773.86 147.905,-1153.46 230,-1235 239.712,-1244.65 252.218,-1250.96 265.39,-1255.02"/>
<polygon fill="midnightblue" stroke="midnightblue" points="103.589,-671.809 99.2355,-662.15 96.6157,-672.416 103.589,-671.809"/>
</g>
<!-- Node3 -->
<g id="node3" class="node"><title>Node3</title>
<g id="a_node3"><a xlink:href="../../da/d66/classcommands_1_1turtle__commands_1_1_back_command.html#a6064fe4c8969503827730da561c9a7da" target="_top" xlink:title="commands.turtle_commands.\lBackCommand.execute">
<polygon fill="white" stroke="black" points="265.5,-1196 265.5,-1226 426.5,-1226 426.5,-1196 265.5,-1196"/>
<text text-anchor="start" x="273.5" y="-1214" font-family="Helvetica,sans-Serif" font-size="10.00">commands.turtle_commands.</text>
<text text-anchor="middle" x="346" y="-1203" font-family="Helvetica,sans-Serif" font-size="10.00">BackCommand.execute</text>
</a>
</g>
</g>
<!-- Node1&#45;&gt;Node3 -->
<g id="edge2" class="edge"><title>Node1&#45;&gt;Node3</title>
<path fill="none" stroke="midnightblue" d="M100.66,-672.196C111.346,-768.58 154.251,-1112.2 230,-1186 239.732,-1195.48 252.168,-1201.72 265.246,-1205.77"/>
<polygon fill="midnightblue" stroke="midnightblue" points="104.132,-671.745 99.5686,-662.183 97.1733,-672.503 104.132,-671.745"/>
</g>
<!-- Node4 -->
<g id="node4" class="node"><title>Node4</title>
<g id="a_node4"><a xlink:href="../../d4/d23/classcommands_1_1onechild_1_1_set_background_command.html#a4c9aef6528ef2c99c5197c5580dd8177" target="_top" xlink:title="commands.onechild.SetBackground\lCommand.execute">
<polygon fill="white" stroke="black" points="251,-1147 251,-1177 441,-1177 441,-1147 251,-1147"/>
<text text-anchor="start" x="259" y="-1165" font-family="Helvetica,sans-Serif" font-size="10.00">commands.onechild.SetBackground</text>
<text text-anchor="middle" x="346" y="-1154" font-family="Helvetica,sans-Serif" font-size="10.00">Command.execute</text>
</a>
</g>
</g>
<!-- Node1&#45;&gt;Node4 -->
<g id="edge3" class="edge"><title>Node1&#45;&gt;Node4</title>
<path fill="none" stroke="midnightblue" d="M101.324,-672.24C113.781,-762.998 160.561,-1070.89 230,-1137 236.067,-1142.78 243.14,-1147.34 250.742,-1150.94"/>
<polygon fill="midnightblue" stroke="midnightblue" points="104.786,-671.72 99.9758,-662.28 97.8488,-672.659 104.786,-671.72"/>
</g>
<!-- Node5 -->
<g id="node5" class="node"><title>Node5</title>
<g id="a_node5"><a xlink:href="../../d0/d94/classcommands_1_1turtle__commands_1_1_y_cor_query.html#aa1fa450ce3d9885534a8a51ca854aeae" target="_top" xlink:title="commands.turtle_commands.\lYCorQuery.execute">
<polygon fill="white" stroke="black" points="265.5,-1098 265.5,-1128 426.5,-1128 426.5,-1098 265.5,-1098"/>
<text text-anchor="start" x="273.5" y="-1116" font-family="Helvetica,sans-Serif" font-size="10.00">commands.turtle_commands.</text>
<text text-anchor="middle" x="346" y="-1105" font-family="Helvetica,sans-Serif" font-size="10.00">YCorQuery.execute</text>
</a>
</g>
</g>
<!-- Node1&#45;&gt;Node5 -->
<g id="edge4" class="edge"><title>Node1&#45;&gt;Node5</title>
<path fill="none" stroke="midnightblue" d="M97.3339,-672.342C96.8196,-747.882 106.205,-973.362 230,-1088 239.894,-1097.16 252.33,-1103.26 265.34,-1107.27"/>
<polygon fill="midnightblue" stroke="midnightblue" points="100.834,-672.362 97.4692,-662.316 93.8345,-672.268 100.834,-672.362"/>
</g>
<!-- Node6 -->
<g id="node6" class="node"><title>Node6</title>
<g id="a_node6"><a xlink:href="../../da/d6b/classcommands_1_1turtle__commands_1_1_set_pen_color.html#a4c680c5c31ae61d1241f883d7b3514bc" target="_top" xlink:title="commands.turtle_commands.\lSetPenColor.execute">
<polygon fill="white" stroke="black" points="265.5,-1049 265.5,-1079 426.5,-1079 426.5,-1049 265.5,-1049"/>
<text text-anchor="start" x="273.5" y="-1067" font-family="Helvetica,sans-Serif" font-size="10.00">commands.turtle_commands.</text>
<text text-anchor="middle" x="346" y="-1056" font-family="Helvetica,sans-Serif" font-size="10.00">SetPenColor.execute</text>
</a>
</g>
</g>
<!-- Node1&#45;&gt;Node6 -->
<g id="edge5" class="edge"><title>Node1&#45;&gt;Node6</title>
<path fill="none" stroke="midnightblue" d="M98.4293,-672.313C101.062,-742.197 118.51,-939.221 230,-1039 239.972,-1047.92 252.37,-1053.92 265.299,-1057.9"/>
<polygon fill="midnightblue" stroke="midnightblue" points="101.925,-672.112 98.1219,-662.223 94.9282,-672.325 101.925,-672.112"/>
</g>
<!-- Node7 -->
<g id="node7" class="node"><title>Node7</title>
<g id="a_node7"><a xlink:href="../../d4/dfe/classcommands_1_1turtle__commands_1_1_is_showing_query.html#a36c93017acaed64792e490cfbe929300" target="_top" xlink:title="commands.turtle_commands.\lIsShowingQuery.execute">
<polygon fill="white" stroke="black" points="265.5,-1000 265.5,-1030 426.5,-1030 426.5,-1000 265.5,-1000"/>
<text text-anchor="start" x="273.5" y="-1018" font-family="Helvetica,sans-Serif" font-size="10.00">commands.turtle_commands.</text>
<text text-anchor="middle" x="346" y="-1007" font-family="Helvetica,sans-Serif" font-size="10.00">IsShowingQuery.execute</text>
</a>
</g>
</g>
<!-- Node1&#45;&gt;Node7 -->
<g id="edge6" class="edge"><title>Node1&#45;&gt;Node7</title>
<path fill="none" stroke="midnightblue" d="M99.7941,-672.154C105.757,-735.911 130.633,-904.808 230,-990 240.082,-998.644 252.459,-1004.51 265.314,-1008.45"/>
<polygon fill="midnightblue" stroke="midnightblue" points="103.281,-671.846 98.9384,-662.181 96.3062,-672.444 103.281,-671.846"/>
</g>
<!-- Node8 -->
<g id="node8" class="node"><title>Node8</title>
<g id="a_node8"><a xlink:href="../../d7/d3f/classcommands_1_1turtle__commands_1_1_set_stroke_size.html#a4b0c43f45a8b003649cf6f1497fba393" target="_top" xlink:title="commands.turtle_commands.\lSetStrokeSize.execute">
<polygon fill="white" stroke="black" points="265.5,-951 265.5,-981 426.5,-981 426.5,-951 265.5,-951"/>
<text text-anchor="start" x="273.5" y="-969" font-family="Helvetica,sans-Serif" font-size="10.00">commands.turtle_commands.</text>
<text text-anchor="middle" x="346" y="-958" font-family="Helvetica,sans-Serif" font-size="10.00">SetStrokeSize.execute</text>
</a>
</g>
</g>
<!-- Node1&#45;&gt;Node8 -->
<g id="edge7" class="edge"><title>Node1&#45;&gt;Node8</title>
<path fill="none" stroke="midnightblue" d="M101.559,-672.034C111.081,-729.259 142.636,-870.146 230,-941 240.235,-949.301 252.613,-955.006 265.404,-958.897"/>
<polygon fill="midnightblue" stroke="midnightblue" points="105,-671.386 99.9839,-662.054 98.0861,-672.477 105,-671.386"/>
</g>
<!-- Node9 -->
<g id="node9" class="node"><title>Node9</title>
<g id="a_node9"><a xlink:href="../../dd/def/classcommands_1_1turtle__commands_1_1_pen_down_query.html#a44c3c19cff6c94f6b2e08a831332f6c4" target="_top" xlink:title="commands.turtle_commands.\lPenDownQuery.execute">
<polygon fill="white" stroke="black" points="265.5,-902 265.5,-932 426.5,-932 426.5,-902 265.5,-902"/>
<text text-anchor="start" x="273.5" y="-920" font-family="Helvetica,sans-Serif" font-size="10.00">commands.turtle_commands.</text>
<text text-anchor="middle" x="346" y="-909" font-family="Helvetica,sans-Serif" font-size="10.00">PenDownQuery.execute</text>
</a>
</g>
</g>
<!-- Node1&#45;&gt;Node9 -->
<g id="edge8" class="edge"><title>Node1&#45;&gt;Node9</title>
<path fill="none" stroke="midnightblue" d="M103.971,-671.996C117.318,-722.163 154.505,-835.162 230,-892 240.365,-899.803 252.664,-905.274 265.299,-909.088"/>
<polygon fill="midnightblue" stroke="midnightblue" points="107.355,-671.104 101.479,-662.288 100.575,-672.844 107.355,-671.104"/>
</g>
<!-- Node10 -->
<g id="node10" class="node"><title>Node10</title>
<g id="a_node10"><a xlink:href="../../da/d19/classcommands_1_1turtle__commands_1_1_heading_query.html#aeff9f68af56b6777c04ae21e08375fee" target="_top" xlink:title="commands.turtle_commands.\lHeadingQuery.execute">
<polygon fill="white" stroke="black" points="265.5,-853 265.5,-883 426.5,-883 426.5,-853 265.5,-853"/>
<text text-anchor="start" x="273.5" y="-871" font-family="Helvetica,sans-Serif" font-size="10.00">commands.turtle_commands.</text>
<text text-anchor="middle" x="346" y="-860" font-family="Helvetica,sans-Serif" font-size="10.00">HeadingQuery.execute</text>
</a>
</g>
</g>
<!-- Node1&#45;&gt;Node10 -->
<g id="edge9" class="edge"><title>Node1&#45;&gt;Node10</title>
<path fill="none" stroke="midnightblue" d="M107.355,-671.665C124.702,-713.874 166.017,-799.594 230,-843 240.568,-850.169 252.83,-855.328 265.329,-859.03"/>
<polygon fill="midnightblue" stroke="midnightblue" points="110.517,-670.145 103.554,-662.16 104.017,-672.744 110.517,-670.145"/>
</g>
<!-- Node11 -->
<g id="node11" class="node"><title>Node11</title>
<g id="a_node11"><a xlink:href="../../d9/ded/classcommands_1_1turtle__commands_1_1_set_shape_command.html#ab651615547aea277ae832fcebf48423b" target="_top" xlink:title="commands.turtle_commands.\lSetShapeCommand.execute">
<polygon fill="white" stroke="black" points="265.5,-804 265.5,-834 426.5,-834 426.5,-804 265.5,-804"/>
<text text-anchor="start" x="273.5" y="-822" font-family="Helvetica,sans-Serif" font-size="10.00">commands.turtle_commands.</text>
<text text-anchor="middle" x="346" y="-811" font-family="Helvetica,sans-Serif" font-size="10.00">SetShapeCommand.execute</text>
</a>
</g>
</g>
<!-- Node1&#45;&gt;Node11 -->
<g id="edge10" class="edge"><title>Node1&#45;&gt;Node11</title>
<path fill="none" stroke="midnightblue" d="M112.508,-670.943C133.901,-704.072 177.145,-763.274 230,-794 240.775,-800.264 252.944,-804.962 265.232,-808.485"/>
<polygon fill="midnightblue" stroke="midnightblue" points="115.367,-668.916 107.063,-662.336 109.451,-672.658 115.367,-668.916"/>
</g>
<!-- Node12 -->
<g id="node12" class="node"><title>Node12</title>
<g id="a_node12"><a xlink:href="../../d6/d55/classcommands_1_1turtle__commands_1_1_left_command.html#a953dcfa9ea19f47c019dacb50254cc1d" target="_top" xlink:title="commands.turtle_commands.\lLeftCommand.execute">
<polygon fill="white" stroke="black" points="265.5,-755 265.5,-785 426.5,-785 426.5,-755 265.5,-755"/>
<text text-anchor="start" x="273.5" y="-773" font-family="Helvetica,sans-Serif" font-size="10.00">commands.turtle_commands.</text>
<text text-anchor="middle" x="346" y="-762" font-family="Helvetica,sans-Serif" font-size="10.00">LeftCommand.execute</text>
</a>
</g>
</g>
<!-- Node1&#45;&gt;Node12 -->
<g id="edge11" class="edge"><title>Node1&#45;&gt;Node12</title>
<path fill="none" stroke="midnightblue" d="M121.099,-669.026C146.007,-691.535 187.791,-725.829 230,-745 241.069,-750.027 253.204,-754.068 265.313,-757.31"/>
<polygon fill="midnightblue" stroke="midnightblue" points="123.36,-666.35 113.626,-662.166 118.626,-671.507 123.36,-666.35"/>
</g>
<!-- Node13 -->
<g id="node13" class="node"><title>Node13</title>
<g id="a_node13"><a xlink:href="../../db/d31/classcommands_1_1turtle__commands_1_1_forward_command.html#a7b9e64ff5e8f0bacbebc88db90a682bc" target="_top" xlink:title="commands.turtle_commands.\lForwardCommand.execute">
<polygon fill="white" stroke="black" points="265.5,-706 265.5,-736 426.5,-736 426.5,-706 265.5,-706"/>
<text text-anchor="start" x="273.5" y="-724" font-family="Helvetica,sans-Serif" font-size="10.00">commands.turtle_commands.</text>
<text text-anchor="middle" x="346" y="-713" font-family="Helvetica,sans-Serif" font-size="10.00">ForwardCommand.execute</text>
</a>
</g>
</g>
<!-- Node1&#45;&gt;Node13 -->
<g id="edge12" class="edge"><title>Node1&#45;&gt;Node13</title>
<path fill="none" stroke="midnightblue" d="M143.535,-665.717C168.73,-675.612 200.772,-687.445 230,-696 242.354,-699.616 255.592,-702.966 268.53,-705.963"/>
<polygon fill="midnightblue" stroke="midnightblue" points="144.82,-662.462 134.234,-662.031 142.241,-668.969 144.82,-662.462"/>
</g>
<!-- Node14 -->
<g id="node14" class="node"><title>Node14</title>
<g id="a_node14"><a xlink:href="../../db/dad/classcommands_1_1turtle__commands_1_1_right_command.html#a356afbf240a6d680dbd8c39c17d00fbd" target="_top" xlink:title="commands.turtle_commands.\lRightCommand.execute">
<polygon fill="white" stroke="black" points="265.5,-657 265.5,-687 426.5,-687 426.5,-657 265.5,-657"/>
<text text-anchor="start" x="273.5" y="-675" font-family="Helvetica,sans-Serif" font-size="10.00">commands.turtle_commands.</text>
<text text-anchor="middle" x="346" y="-664" font-family="Helvetica,sans-Serif" font-size="10.00">RightCommand.execute</text>
</a>
</g>
</g>
<!-- Node1&#45;&gt;Node14 -->
<g id="edge13" class="edge"><title>Node1&#45;&gt;Node14</title>
<path fill="none" stroke="midnightblue" d="M204.22,-657.751C224.75,-659.829 245.93,-661.973 265.43,-663.946"/>
<polygon fill="midnightblue" stroke="midnightblue" points="204.506,-654.262 194.204,-656.737 203.801,-661.227 204.506,-654.262"/>
</g>
<!-- Node15 -->
<g id="node15" class="node"><title>Node15</title>
<g id="a_node15"><a xlink:href="../../d1/d00/classcommands_1_1turtle__commands_1_1_tell_command.html#a5b187b4609637fee3e88d2a51681db1a" target="_top" xlink:title="commands.turtle_commands.\lTellCommand.execute">
<polygon fill="white" stroke="black" points="265.5,-608 265.5,-638 426.5,-638 426.5,-608 265.5,-608"/>
<text text-anchor="start" x="273.5" y="-626" font-family="Helvetica,sans-Serif" font-size="10.00">commands.turtle_commands.</text>
<text text-anchor="middle" x="346" y="-615" font-family="Helvetica,sans-Serif" font-size="10.00">TellCommand.execute</text>
</a>
</g>
</g>
<!-- Node1&#45;&gt;Node15 -->
<g id="edge14" class="edge"><title>Node1&#45;&gt;Node15</title>
<path fill="none" stroke="midnightblue" d="M204.22,-636.679C224.75,-634.684 245.93,-632.626 265.43,-630.732"/>
<polygon fill="midnightblue" stroke="midnightblue" points="203.819,-633.201 194.204,-637.652 204.496,-640.169 203.819,-633.201"/>
</g>
<!-- Node16 -->
<g id="node16" class="node"><title>Node16</title>
<g id="a_node16"><a xlink:href="../../d4/da8/classcommands_1_1turtle__commands_1_1_turtles_command.html#a89b33996a22b597da85fd6553c7a3af1" target="_top" xlink:title="commands.turtle_commands.\lTurtlesCommand.executeTurtleCommand">
<polygon fill="white" stroke="black" points="238.5,-559 238.5,-589 453.5,-589 453.5,-559 238.5,-559"/>
<text text-anchor="start" x="246.5" y="-577" font-family="Helvetica,sans-Serif" font-size="10.00">commands.turtle_commands.</text>
<text text-anchor="middle" x="346" y="-566" font-family="Helvetica,sans-Serif" font-size="10.00">TurtlesCommand.executeTurtleCommand</text>
</a>
</g>
</g>
<!-- Node1&#45;&gt;Node16 -->
<g id="edge15" class="edge"><title>Node1&#45;&gt;Node16</title>
<path fill="none" stroke="midnightblue" d="M144.711,-628.272C169.737,-618.682 201.254,-607.31 230,-599 242.464,-595.397 255.82,-592.043 268.859,-589.037"/>
<polygon fill="midnightblue" stroke="midnightblue" points="143.173,-625.113 135.109,-631.985 145.698,-631.642 143.173,-625.113"/>
</g>
<!-- Node18 -->
<g id="node18" class="node"><title>Node18</title>
<g id="a_node18"><a xlink:href="../../d2/dd3/classcommands_1_1turtle__commands_1_1_stamp_command.html#a94dcede471f4cabf39866d1a67a28814" target="_top" xlink:title="commands.turtle_commands.\lStampCommand.executeTurtleCommand">
<polygon fill="white" stroke="black" points="238,-510 238,-540 454,-540 454,-510 238,-510"/>
<text text-anchor="start" x="246" y="-528" font-family="Helvetica,sans-Serif" font-size="10.00">commands.turtle_commands.</text>
<text text-anchor="middle" x="346" y="-517" font-family="Helvetica,sans-Serif" font-size="10.00">StampCommand.executeTurtleCommand</text>
</a>
</g>
</g>
<!-- Node1&#45;&gt;Node18 -->
<g id="edge17" class="edge"><title>Node1&#45;&gt;Node18</title>
<path fill="none" stroke="midnightblue" d="M121.141,-625.208C146.084,-602.936 187.897,-568.999 230,-550 238.567,-546.134 247.768,-542.851 257.099,-540.065"/>
<polygon fill="midnightblue" stroke="midnightblue" points="118.713,-622.685 113.657,-631.996 123.416,-627.871 118.713,-622.685"/>
</g>
<!-- Node20 -->
<g id="node20" class="node"><title>Node20</title>
<g id="a_node20"><a xlink:href="../../de/d5b/classcommands_1_1turtle__commands_1_1_set_heading_command.html#a8f122b78e17681cdfaf251fb904a6c59" target="_top" xlink:title="commands.turtle_commands.\lSetHeadingCommand.executeTurtle\lCommand">
<polygon fill="white" stroke="black" points="251,-450.5 251,-491.5 441,-491.5 441,-450.5 251,-450.5"/>
<text text-anchor="start" x="259" y="-479.5" font-family="Helvetica,sans-Serif" font-size="10.00">commands.turtle_commands.</text>
<text text-anchor="start" x="259" y="-468.5" font-family="Helvetica,sans-Serif" font-size="10.00">SetHeadingCommand.executeTurtle</text>
<text text-anchor="middle" x="346" y="-457.5" font-family="Helvetica,sans-Serif" font-size="10.00">Command</text>
</a>
</g>
</g>
<!-- Node1&#45;&gt;Node20 -->
<g id="edge19" class="edge"><title>Node1&#45;&gt;Node20</title>
<path fill="none" stroke="midnightblue" d="M112.725,-623.519C134.378,-590.973 177.931,-532.599 230,-501 236.527,-497.039 243.569,-493.597 250.841,-490.605"/>
<polygon fill="midnightblue" stroke="midnightblue" points="109.744,-621.683 107.209,-631.97 115.606,-625.509 109.744,-621.683"/>
</g>
<!-- Node22 -->
<g id="node22" class="node"><title>Node22</title>
<g id="a_node22"><a xlink:href="../../df/d09/classcommands_1_1turtle__commands_1_1_clear_command.html#a0c3b57e989de96e174c744e0fd2f03a2" target="_top" xlink:title="commands.turtle_commands.\lClearCommand.executeTurtleCommand">
<polygon fill="white" stroke="black" points="241.5,-402 241.5,-432 450.5,-432 450.5,-402 241.5,-402"/>
<text text-anchor="start" x="249.5" y="-420" font-family="Helvetica,sans-Serif" font-size="10.00">commands.turtle_commands.</text>
<text text-anchor="middle" x="346" y="-409" font-family="Helvetica,sans-Serif" font-size="10.00">ClearCommand.executeTurtleCommand</text>
</a>
</g>
</g>
<!-- Node1&#45;&gt;Node22 -->
<g id="edge21" class="edge"><title>Node1&#45;&gt;Node22</title>
<path fill="none" stroke="midnightblue" d="M106.481,-622.286C122.917,-578.323 163.457,-486.851 230,-441 234.954,-437.586 240.294,-434.64 245.864,-432.1"/>
<polygon fill="midnightblue" stroke="midnightblue" points="103.115,-621.302 102.992,-631.896 109.695,-623.691 103.115,-621.302"/>
</g>
<!-- Node24 -->
<g id="node24" class="node"><title>Node24</title>
<g id="a_node24"><a xlink:href="../../d1/d15/classcommands_1_1turtle__commands_1_1_pen_color_command.html#ac841324d9d6e2e10062fc6e07af9b1b3" target="_top" xlink:title="commands.turtle_commands.\lPenColorCommand.executeTurtleCommand">
<polygon fill="white" stroke="black" points="232.5,-353 232.5,-383 459.5,-383 459.5,-353 232.5,-353"/>
<text text-anchor="start" x="240.5" y="-371" font-family="Helvetica,sans-Serif" font-size="10.00">commands.turtle_commands.</text>
<text text-anchor="middle" x="346" y="-360" font-family="Helvetica,sans-Serif" font-size="10.00">PenColorCommand.executeTurtleCommand</text>
</a>
</g>
</g>
<!-- Node1&#45;&gt;Node24 -->
<g id="edge23" class="edge"><title>Node1&#45;&gt;Node24</title>
<path fill="none" stroke="midnightblue" d="M103.501,-621.845C116.161,-570.249 152.416,-452.322 230,-393 235.032,-389.153 240.531,-385.871 246.311,-383.073"/>
<polygon fill="midnightblue" stroke="midnightblue" points="100.042,-621.266 101.152,-631.803 106.855,-622.874 100.042,-621.266"/>
</g>
<!-- Node26 -->
<g id="node26" class="node"><title>Node26</title>
<g id="a_node26"><a xlink:href="../../d2/df1/classcommands_1_1turtle__commands_1_1_set_position_command.html#a3b86ee87ea44f3075f71a98f001b86a5" target="_top" xlink:title="commands.turtle_commands.\lSetPositionCommand.executeTurtle\lCommand">
<polygon fill="white" stroke="black" points="252,-293.5 252,-334.5 440,-334.5 440,-293.5 252,-293.5"/>
<text text-anchor="start" x="260" y="-322.5" font-family="Helvetica,sans-Serif" font-size="10.00">commands.turtle_commands.</text>
<text text-anchor="start" x="260" y="-311.5" font-family="Helvetica,sans-Serif" font-size="10.00">SetPositionCommand.executeTurtle</text>
<text text-anchor="middle" x="346" y="-300.5" font-family="Helvetica,sans-Serif" font-size="10.00">Command</text>
</a>
</g>
</g>
<!-- Node1&#45;&gt;Node26 -->
<g id="edge25" class="edge"><title>Node1&#45;&gt;Node26</title>
<path fill="none" stroke="midnightblue" d="M101.518,-621.47C110.952,-563.063 142.335,-418.98 230,-344 236.507,-338.434 243.927,-333.885 251.792,-330.168"/>
<polygon fill="midnightblue" stroke="midnightblue" points="98.0124,-621.239 99.958,-631.654 104.932,-622.299 98.0124,-621.239"/>
</g>
<!-- Node28 -->
<g id="node28" class="node"><title>Node28</title>
<g id="a_node28"><a xlink:href="../../d9/db0/classcommands_1_1turtle__commands_1_1_get_shape_command.html#a59fac561714243680173d868947d9068" target="_top" xlink:title="commands.turtle_commands.\lGetShapeCommand.executeTurtleCommand">
<polygon fill="white" stroke="black" points="230,-245 230,-275 462,-275 462,-245 230,-245"/>
<text text-anchor="start" x="238" y="-263" font-family="Helvetica,sans-Serif" font-size="10.00">commands.turtle_commands.</text>
<text text-anchor="middle" x="346" y="-252" font-family="Helvetica,sans-Serif" font-size="10.00">GetShapeCommand.executeTurtleCommand</text>
</a>
</g>
</g>
<!-- Node1&#45;&gt;Node28 -->
<g id="edge28" class="edge"><title>Node1&#45;&gt;Node28</title>
<path fill="none" stroke="midnightblue" d="M99.1574,-621.707C103.636,-555.263 125.335,-374.672 230,-284 233.931,-280.595 238.22,-277.63 242.756,-275.051"/>
<polygon fill="midnightblue" stroke="midnightblue" points="95.6627,-621.515 98.5583,-631.707 102.65,-621.934 95.6627,-621.515"/>
</g>
<!-- Node30 -->
<g id="node30" class="node"><title>Node30</title>
<g id="a_node30"><a xlink:href="../../df/d62/classcommands_1_1turtle__commands_1_1_id_command.html#a734d6947bf78eb5baba4225f96368016" target="_top" xlink:title="commands.turtle_commands.\lIdCommand.executeTurtleCommand">
<polygon fill="white" stroke="black" points="250,-196 250,-226 442,-226 442,-196 250,-196"/>
<text text-anchor="start" x="258" y="-214" font-family="Helvetica,sans-Serif" font-size="10.00">commands.turtle_commands.</text>
<text text-anchor="middle" x="346" y="-203" font-family="Helvetica,sans-Serif" font-size="10.00">IdCommand.executeTurtleCommand</text>
</a>
</g>
</g>
<!-- Node1&#45;&gt;Node30 -->
<g id="edge30" class="edge"><title>Node1&#45;&gt;Node30</title>
<path fill="none" stroke="midnightblue" d="M97.98,-621.486C99.3911,-549.195 113.852,-341.426 230,-236 235.9,-230.644 242.672,-226.34 249.912,-222.892"/>
<polygon fill="midnightblue" stroke="midnightblue" points="94.4754,-621.847 97.8521,-631.889 101.475,-621.933 94.4754,-621.847"/>
</g>
<!-- Node32 -->
<g id="node32" class="node"><title>Node32</title>
<g id="a_node32"><a xlink:href="../../dd/dfb/classcommands_1_1turtle__commands_1_1_home_command.html#a80b3da25698e0f7397210be2460d76ee" target="_top" xlink:title="commands.turtle_commands.\lHomeCommand.executeTurtleCommand">
<polygon fill="white" stroke="black" points="239.5,-147 239.5,-177 452.5,-177 452.5,-147 239.5,-147"/>
<text text-anchor="start" x="247.5" y="-165" font-family="Helvetica,sans-Serif" font-size="10.00">commands.turtle_commands.</text>
<text text-anchor="middle" x="346" y="-154" font-family="Helvetica,sans-Serif" font-size="10.00">HomeCommand.executeTurtleCommand</text>
</a>
</g>
</g>
<!-- Node1&#45;&gt;Node32 -->
<g id="edge32" class="edge"><title>Node1&#45;&gt;Node32</title>
<path fill="none" stroke="midnightblue" d="M101.817,-621.616C115.448,-534.313 164.435,-248.413 230,-187 234.101,-183.159 238.648,-179.855 243.497,-177.016"/>
<polygon fill="midnightblue" stroke="midnightblue" points="98.3275,-621.278 100.263,-631.694 105.246,-622.344 98.3275,-621.278"/>
</g>
<!-- Node34 -->
<g id="node34" class="node"><title>Node34</title>
<g id="a_node34"><a xlink:href="../../d0/d5e/classcommands_1_1turtle__commands_1_1_ask_with_command.html#a9d7784db4421d7b4b7fcf19d8c70f415" target="_top" xlink:title="commands.turtle_commands.\lAskWithCommand.executeTurtleCommand">
<polygon fill="white" stroke="black" points="235.5,-98 235.5,-128 456.5,-128 456.5,-98 235.5,-98"/>
<text text-anchor="start" x="243.5" y="-116" font-family="Helvetica,sans-Serif" font-size="10.00">commands.turtle_commands.</text>
<text text-anchor="middle" x="346" y="-105" font-family="Helvetica,sans-Serif" font-size="10.00">AskWithCommand.executeTurtleCommand</text>
</a>
</g>
</g>
<!-- Node1&#45;&gt;Node34 -->
<g id="edge34" class="edge"><title>Node1&#45;&gt;Node34</title>
<path fill="none" stroke="midnightblue" d="M101.059,-621.721C112.825,-528.674 158.133,-207.071 230,-138 233.977,-134.177 238.395,-130.883 243.116,-128.048"/>
<polygon fill="midnightblue" stroke="midnightblue" points="97.5536,-621.547 99.7908,-631.903 104.5,-622.412 97.5536,-621.547"/>
</g>
<!-- Node36 -->
<g id="node36" class="node"><title>Node36</title>
<g id="a_node36"><a xlink:href="../../db/d90/classcommands_1_1turtle__commands_1_1_towards_command.html#afc72967a871441377946f43e8ff47895" target="_top" xlink:title="commands.turtle_commands.\lTowardsCommand.executeTurtleCommand">
<polygon fill="white" stroke="black" points="235.5,-49 235.5,-79 456.5,-79 456.5,-49 235.5,-49"/>
<text text-anchor="start" x="243.5" y="-67" font-family="Helvetica,sans-Serif" font-size="10.00">commands.turtle_commands.</text>
<text text-anchor="middle" x="346" y="-56" font-family="Helvetica,sans-Serif" font-size="10.00">TowardsCommand.executeTurtleCommand</text>
</a>
</g>
</g>
<!-- Node1&#45;&gt;Node36 -->
<g id="edge36" class="edge"><title>Node1&#45;&gt;Node36</title>
<path fill="none" stroke="midnightblue" d="M100.459,-621.579C110.532,-522.742 151.86,-165.729 230,-89 233.863,-85.2065 238.159,-81.9305 242.756,-79.1055"/>
<polygon fill="midnightblue" stroke="midnightblue" points="96.9466,-621.526 99.433,-631.825 103.912,-622.223 96.9466,-621.526"/>
</g>
<!-- Node38 -->
<g id="node38" class="node"><title>Node38</title>
<g id="a_node38"><a xlink:href="../../da/d20/classcommands_1_1turtle__commands_1_1_ask_command.html#aad8e3c73b091789febe536557fc8bd7d" target="_top" xlink:title="commands.turtle_commands.\lAskCommand.executeTurtleCommand">
<polygon fill="white" stroke="black" points="245.5,-0 245.5,-30 446.5,-30 446.5,-0 245.5,-0"/>
<text text-anchor="start" x="253.5" y="-18" font-family="Helvetica,sans-Serif" font-size="10.00">commands.turtle_commands.</text>
<text text-anchor="middle" x="346" y="-7" font-family="Helvetica,sans-Serif" font-size="10.00">AskCommand.executeTurtleCommand</text>
</a>
</g>
</g>
<!-- Node1&#45;&gt;Node38 -->
<g id="edge39" class="edge"><title>Node1&#45;&gt;Node38</title>
<path fill="none" stroke="midnightblue" d="M99.9244,-621.744C108.359,-517.795 145.476,-124.519 230,-40 234.551,-35.4492 239.723,-31.6399 245.295,-28.4584"/>
<polygon fill="midnightblue" stroke="midnightblue" points="96.4185,-621.68 99.1157,-631.925 103.397,-622.234 96.4185,-621.68"/>
</g>
<!-- Node17 -->
<g id="node17" class="node"><title>Node17</title>
<g id="a_node17"><a xlink:href="../../d4/da8/classcommands_1_1turtle__commands_1_1_turtles_command.html#a7381223a6f538fcfb9f630f656dd6385" target="_top" xlink:title="commands.turtle_commands.\lTurtlesCommand.execute">
<polygon fill="white" stroke="black" points="499.5,-559 499.5,-589 660.5,-589 660.5,-559 499.5,-559"/>
<text text-anchor="start" x="507.5" y="-577" font-family="Helvetica,sans-Serif" font-size="10.00">commands.turtle_commands.</text>
<text text-anchor="middle" x="580" y="-566" font-family="Helvetica,sans-Serif" font-size="10.00">TurtlesCommand.execute</text>
</a>
</g>
</g>
<!-- Node16&#45;&gt;Node17 -->
<g id="edge16" class="edge"><title>Node16&#45;&gt;Node17</title>
<path fill="none" stroke="midnightblue" d="M463.92,-574C475.938,-574 487.943,-574 499.419,-574"/>
<polygon fill="midnightblue" stroke="midnightblue" points="463.833,-570.5 453.833,-574 463.833,-577.5 463.833,-570.5"/>
</g>
<!-- Node19 -->
<g id="node19" class="node"><title>Node19</title>
<g id="a_node19"><a xlink:href="../../d2/dd3/classcommands_1_1turtle__commands_1_1_stamp_command.html#a33c3d71416f2018768e69b504b6940dc" target="_top" xlink:title="commands.turtle_commands.\lStampCommand.execute">
<polygon fill="white" stroke="black" points="499.5,-510 499.5,-540 660.5,-540 660.5,-510 499.5,-510"/>
<text text-anchor="start" x="507.5" y="-528" font-family="Helvetica,sans-Serif" font-size="10.00">commands.turtle_commands.</text>
<text text-anchor="middle" x="580" y="-517" font-family="Helvetica,sans-Serif" font-size="10.00">StampCommand.execute</text>
</a>
</g>
</g>
<!-- Node18&#45;&gt;Node19 -->
<g id="edge18" class="edge"><title>Node18&#45;&gt;Node19</title>
<path fill="none" stroke="midnightblue" d="M464.52,-525C476.303,-525 488.066,-525 499.321,-525"/>
<polygon fill="midnightblue" stroke="midnightblue" points="464.172,-521.5 454.172,-525 464.172,-528.5 464.172,-521.5"/>
</g>
<!-- Node21 -->
<g id="node21" class="node"><title>Node21</title>
<g id="a_node21"><a xlink:href="../../de/d5b/classcommands_1_1turtle__commands_1_1_set_heading_command.html#a0820b8d48ea0912bf1190b7cb0cd3495" target="_top" xlink:title="commands.turtle_commands.\lSetHeadingCommand.execute">
<polygon fill="white" stroke="black" points="498,-456 498,-486 662,-486 662,-456 498,-456"/>
<text text-anchor="start" x="506" y="-474" font-family="Helvetica,sans-Serif" font-size="10.00">commands.turtle_commands.</text>
<text text-anchor="middle" x="580" y="-463" font-family="Helvetica,sans-Serif" font-size="10.00">SetHeadingCommand.execute</text>
</a>
</g>
</g>
<!-- Node20&#45;&gt;Node21 -->
<g id="edge20" class="edge"><title>Node20&#45;&gt;Node21</title>
<path fill="none" stroke="midnightblue" d="M451.251,-471C466.887,-471 482.812,-471 497.872,-471"/>
<polygon fill="midnightblue" stroke="midnightblue" points="451.029,-467.5 441.029,-471 451.029,-474.5 451.029,-467.5"/>
</g>
<!-- Node23 -->
<g id="node23" class="node"><title>Node23</title>
<g id="a_node23"><a xlink:href="../../df/d09/classcommands_1_1turtle__commands_1_1_clear_command.html#a320f36405c7df1c95f2b14072ee69121" target="_top" xlink:title="commands.turtle_commands.\lClearCommand.execute">
<polygon fill="white" stroke="black" points="499.5,-402 499.5,-432 660.5,-432 660.5,-402 499.5,-402"/>
<text text-anchor="start" x="507.5" y="-420" font-family="Helvetica,sans-Serif" font-size="10.00">commands.turtle_commands.</text>
<text text-anchor="middle" x="580" y="-409" font-family="Helvetica,sans-Serif" font-size="10.00">ClearCommand.execute</text>
</a>
</g>
</g>
<!-- Node22&#45;&gt;Node23 -->
<g id="edge22" class="edge"><title>Node22&#45;&gt;Node23</title>
<path fill="none" stroke="midnightblue" d="M461.124,-417C474.038,-417 486.983,-417 499.319,-417"/>
<polygon fill="midnightblue" stroke="midnightblue" points="460.786,-413.5 450.786,-417 460.786,-420.5 460.786,-413.5"/>
</g>
<!-- Node25 -->
<g id="node25" class="node"><title>Node25</title>
<g id="a_node25"><a xlink:href="../../d1/d15/classcommands_1_1turtle__commands_1_1_pen_color_command.html#a1f19373d20288564123c75f30de2d0f9" target="_top" xlink:title="commands.turtle_commands.\lPenColorCommand.execute">
<polygon fill="white" stroke="black" points="499.5,-353 499.5,-383 660.5,-383 660.5,-353 499.5,-353"/>
<text text-anchor="start" x="507.5" y="-371" font-family="Helvetica,sans-Serif" font-size="10.00">commands.turtle_commands.</text>
<text text-anchor="middle" x="580" y="-360" font-family="Helvetica,sans-Serif" font-size="10.00">PenColorCommand.execute</text>
</a>
</g>
</g>
<!-- Node24&#45;&gt;Node25 -->
<g id="edge24" class="edge"><title>Node24&#45;&gt;Node25</title>
<path fill="none" stroke="midnightblue" d="M469.646,-368C479.68,-368 489.646,-368 499.245,-368"/>
<polygon fill="midnightblue" stroke="midnightblue" points="469.602,-364.5 459.602,-368 469.602,-371.5 469.602,-364.5"/>
</g>
<!-- Node27 -->
<g id="node27" class="node"><title>Node27</title>
<g id="a_node27"><a xlink:href="../../d2/df1/classcommands_1_1turtle__commands_1_1_set_position_command.html#acd67ddeed20e6efb4f0a5c71f3e0ad41" target="_top" xlink:title="commands.turtle_commands.\lSetPositionCommand.execute">
<polygon fill="white" stroke="black" points="499,-299 499,-329 661,-329 661,-299 499,-299"/>
<text text-anchor="start" x="507" y="-317" font-family="Helvetica,sans-Serif" font-size="10.00">commands.turtle_commands.</text>
<text text-anchor="middle" x="580" y="-306" font-family="Helvetica,sans-Serif" font-size="10.00">SetPositionCommand.execute</text>
</a>
</g>
</g>
<!-- Node26&#45;&gt;Node27 -->
<g id="edge26" class="edge"><title>Node26&#45;&gt;Node27</title>
<path fill="none" stroke="midnightblue" d="M450.104,-307.287C466.38,-307.193 482.998,-307.278 498.656,-307.542"/>
<polygon fill="midnightblue" stroke="midnightblue" points="449.998,-303.788 440.027,-307.369 450.055,-310.788 449.998,-303.788"/>
</g>
<!-- Node27&#45;&gt;Node26 -->
<g id="edge27" class="edge"><title>Node27&#45;&gt;Node26</title>
<path fill="none" stroke="midnightblue" d="M488.341,-320.605C472.479,-320.789 455.952,-320.798 440.027,-320.631"/>
<polygon fill="midnightblue" stroke="midnightblue" points="488.707,-324.1 498.656,-320.458 488.607,-317.101 488.707,-324.1"/>
</g>
<!-- Node29 -->
<g id="node29" class="node"><title>Node29</title>
<g id="a_node29"><a xlink:href="../../d9/db0/classcommands_1_1turtle__commands_1_1_get_shape_command.html#a4586179e0bc294584046bd557aa45c0e" target="_top" xlink:title="commands.turtle_commands.\lGetShapeCommand.execute">
<polygon fill="white" stroke="black" points="499.5,-245 499.5,-275 660.5,-275 660.5,-245 499.5,-245"/>
<text text-anchor="start" x="507.5" y="-263" font-family="Helvetica,sans-Serif" font-size="10.00">commands.turtle_commands.</text>
<text text-anchor="middle" x="580" y="-252" font-family="Helvetica,sans-Serif" font-size="10.00">GetShapeCommand.execute</text>
</a>
</g>
</g>
<!-- Node28&#45;&gt;Node29 -->
<g id="edge29" class="edge"><title>Node28&#45;&gt;Node29</title>
<path fill="none" stroke="midnightblue" d="M472.572,-260C481.634,-260 490.617,-260 499.298,-260"/>
<polygon fill="midnightblue" stroke="midnightblue" points="472.32,-256.5 462.32,-260 472.32,-263.5 472.32,-256.5"/>
</g>
<!-- Node31 -->
<g id="node31" class="node"><title>Node31</title>
<g id="a_node31"><a xlink:href="../../df/d62/classcommands_1_1turtle__commands_1_1_id_command.html#a07f0df55d06e9fc7ed7cec7edadb327d" target="_top" xlink:title="commands.turtle_commands.\lIdCommand.execute">
<polygon fill="white" stroke="black" points="499.5,-196 499.5,-226 660.5,-226 660.5,-196 499.5,-196"/>
<text text-anchor="start" x="507.5" y="-214" font-family="Helvetica,sans-Serif" font-size="10.00">commands.turtle_commands.</text>
<text text-anchor="middle" x="580" y="-203" font-family="Helvetica,sans-Serif" font-size="10.00">IdCommand.execute</text>
</a>
</g>
</g>
<!-- Node30&#45;&gt;Node31 -->
<g id="edge31" class="edge"><title>Node30&#45;&gt;Node31</title>
<path fill="none" stroke="midnightblue" d="M452.349,-211C468.125,-211 484.165,-211 499.291,-211"/>
<polygon fill="midnightblue" stroke="midnightblue" points="452.033,-207.5 442.033,-211 452.033,-214.5 452.033,-207.5"/>
</g>
<!-- Node33 -->
<g id="node33" class="node"><title>Node33</title>
<g id="a_node33"><a xlink:href="../../dd/dfb/classcommands_1_1turtle__commands_1_1_home_command.html#aef0ad78e6e100992345edaf73ecd78c1" target="_top" xlink:title="commands.turtle_commands.\lHomeCommand.execute">
<polygon fill="white" stroke="black" points="499.5,-147 499.5,-177 660.5,-177 660.5,-147 499.5,-147"/>
<text text-anchor="start" x="507.5" y="-165" font-family="Helvetica,sans-Serif" font-size="10.00">commands.turtle_commands.</text>
<text text-anchor="middle" x="580" y="-154" font-family="Helvetica,sans-Serif" font-size="10.00">HomeCommand.execute</text>
</a>
</g>
</g>
<!-- Node32&#45;&gt;Node33 -->
<g id="edge33" class="edge"><title>Node32&#45;&gt;Node33</title>
<path fill="none" stroke="midnightblue" d="M463.114,-162C475.387,-162 487.658,-162 499.378,-162"/>
<polygon fill="midnightblue" stroke="midnightblue" points="462.816,-158.5 452.816,-162 462.816,-165.5 462.816,-158.5"/>
</g>
<!-- Node35 -->
<g id="node35" class="node"><title>Node35</title>
<g id="a_node35"><a xlink:href="../../d0/d5e/classcommands_1_1turtle__commands_1_1_ask_with_command.html#aed74c73cf16407cb097ecbcbd0110ecb" target="_top" xlink:title="commands.turtle_commands.\lAskWithCommand.execute">
<polygon fill="white" stroke="black" points="499.5,-98 499.5,-128 660.5,-128 660.5,-98 499.5,-98"/>
<text text-anchor="start" x="507.5" y="-116" font-family="Helvetica,sans-Serif" font-size="10.00">commands.turtle_commands.</text>
<text text-anchor="middle" x="580" y="-105" font-family="Helvetica,sans-Serif" font-size="10.00">AskWithCommand.execute</text>
</a>
</g>
</g>
<!-- Node34&#45;&gt;Node35 -->
<g id="edge35" class="edge"><title>Node34&#45;&gt;Node35</title>
<path fill="none" stroke="midnightblue" d="M466.703,-113C477.762,-113 488.776,-113 499.342,-113"/>
<polygon fill="midnightblue" stroke="midnightblue" points="466.546,-109.5 456.546,-113 466.546,-116.5 466.546,-109.5"/>
</g>
<!-- Node37 -->
<g id="node37" class="node"><title>Node37</title>
<g id="a_node37"><a xlink:href="../../db/d90/classcommands_1_1turtle__commands_1_1_towards_command.html#a8cd9a083d87b20c53a805b4fe8e0aa06" target="_top" xlink:title="commands.turtle_commands.\lTowardsCommand.execute">
<polygon fill="white" stroke="black" points="499.5,-49 499.5,-79 660.5,-79 660.5,-49 499.5,-49"/>
<text text-anchor="start" x="507.5" y="-67" font-family="Helvetica,sans-Serif" font-size="10.00">commands.turtle_commands.</text>
<text text-anchor="middle" x="580" y="-56" font-family="Helvetica,sans-Serif" font-size="10.00">TowardsCommand.execute</text>
</a>
</g>
</g>
<!-- Node36&#45;&gt;Node37 -->
<g id="edge37" class="edge"><title>Node36&#45;&gt;Node37</title>
<path fill="none" stroke="midnightblue" d="M466.703,-57.2531C477.762,-57.2713 488.776,-57.3715 499.342,-57.5535"/>
<polygon fill="midnightblue" stroke="midnightblue" points="466.544,-53.7531 456.546,-57.2593 466.548,-60.7531 466.544,-53.7531"/>
</g>
<!-- Node37&#45;&gt;Node36 -->
<g id="edge38" class="edge"><title>Node37&#45;&gt;Node36</title>
<path fill="none" stroke="midnightblue" d="M489.193,-70.5947C478.494,-70.7236 467.482,-70.7722 456.546,-70.7407"/>
<polygon fill="midnightblue" stroke="midnightblue" points="489.394,-74.0922 499.342,-70.4465 489.292,-67.0929 489.394,-74.0922"/>
</g>
<!-- Node39 -->
<g id="node39" class="node"><title>Node39</title>
<g id="a_node39"><a xlink:href="../../da/d20/classcommands_1_1turtle__commands_1_1_ask_command.html#a9f668e7b2778cf4241b59b11db58e211" target="_top" xlink:title="commands.turtle_commands.\lAskCommand.execute">
<polygon fill="white" stroke="black" points="499.5,-0 499.5,-30 660.5,-30 660.5,-0 499.5,-0"/>
<text text-anchor="start" x="507.5" y="-18" font-family="Helvetica,sans-Serif" font-size="10.00">commands.turtle_commands.</text>
<text text-anchor="middle" x="580" y="-7" font-family="Helvetica,sans-Serif" font-size="10.00">AskCommand.execute</text>
</a>
</g>
</g>
<!-- Node38&#45;&gt;Node39 -->
<g id="edge40" class="edge"><title>Node38&#45;&gt;Node39</title>
<path fill="none" stroke="midnightblue" d="M457.071,-15C471.312,-15 485.672,-15 499.291,-15"/>
<polygon fill="midnightblue" stroke="midnightblue" points="456.735,-11.5001 446.735,-15 456.735,-18.5001 456.735,-11.5001"/>
</g>
</g>
</svg>
