<?xml version="1.0" encoding="UTF-8" standalone="no"?>
<!DOCTYPE svg PUBLIC "-//W3C//DTD SVG 1.1//EN"
 "http://www.w3.org/Graphics/SVG/1.1/DTD/svg11.dtd">
<!-- Generated by graphviz version 2.36.0 (20140111.2315)
 -->
<!-- Title: commands.templates.Command.getVariableManager Pages: 1 -->
<svg width="478pt" height="185pt"
 viewBox="0.00 0.00 478.00 185.00" xmlns="http://www.w3.org/2000/svg" xmlns:xlink="http://www.w3.org/1999/xlink">
<g id="graph0" class="graph" transform="scale(1 1) rotate(0) translate(4 181)">
<title>commands.templates.Command.getVariableManager</title>
<polygon fill="white" stroke="none" points="-4,4 -4,-181 474,-181 474,4 -4,4"/>
<!-- Node1 -->
<g id="node1" class="node"><title>Node1</title>
<polygon fill="#bfbfbf" stroke="black" points="0,-73 0,-103 194,-103 194,-73 0,-73"/>
<text text-anchor="start" x="8" y="-91" font-family="Helvetica,sans-Serif" font-size="10.00">commands.templates.Command.get</text>
<text text-anchor="middle" x="97" y="-80" font-family="Helvetica,sans-Serif" font-size="10.00">VariableManager</text>
</g>
<!-- Node2 -->
<g id="node2" class="node"><title>Node2</title>
<g id="a_node2"><a xlink:href="../../d5/d12/classcommands_1_1variable__commands_1_1_for_command.html#af6af8e22454fd04fe9c3f1d53025ac69" target="_top" xlink:title="commands.variable_commands.\lForCommand.execute">
<polygon fill="white" stroke="black" points="263.5,-147 263.5,-177 436.5,-177 436.5,-147 263.5,-147"/>
<text text-anchor="start" x="271.5" y="-165" font-family="Helvetica,sans-Serif" font-size="10.00">commands.variable_commands.</text>
<text text-anchor="middle" x="350" y="-154" font-family="Helvetica,sans-Serif" font-size="10.00">ForCommand.execute</text>
</a>
</g>
</g>
<!-- Node1&#45;&gt;Node2 -->
<g id="edge1" class="edge"><title>Node1&#45;&gt;Node2</title>
<path fill="none" stroke="midnightblue" d="M143.511,-106.798C168.7,-116.717 200.743,-128.547 230,-137 242.574,-140.633 256.038,-143.973 269.222,-146.948"/>
<polygon fill="midnightblue" stroke="midnightblue" points="144.799,-103.543 134.214,-103.101 142.213,-110.048 144.799,-103.543"/>
</g>
<!-- Node3 -->
<g id="node3" class="node"><title>Node3</title>
<g id="a_node3"><a xlink:href="../../dd/d05/classcommands_1_1variable__commands_1_1_variable.html#ab7f4bd1308192f8ec8df00ff2c5339e8" target="_top" xlink:title="commands.variable_commands.\lVariable.execute">
<polygon fill="white" stroke="black" points="263.5,-98 263.5,-128 436.5,-128 436.5,-98 263.5,-98"/>
<text text-anchor="start" x="271.5" y="-116" font-family="Helvetica,sans-Serif" font-size="10.00">commands.variable_commands.</text>
<text text-anchor="middle" x="350" y="-105" font-family="Helvetica,sans-Serif" font-size="10.00">Variable.execute</text>
</a>
</g>
</g>
<!-- Node1&#45;&gt;Node3 -->
<g id="edge2" class="edge"><title>Node1&#45;&gt;Node3</title>
<path fill="none" stroke="midnightblue" d="M204.5,-98.6076C224.088,-100.559 244.307,-102.572 263.191,-104.453"/>
<polygon fill="midnightblue" stroke="midnightblue" points="204.623,-95.1026 194.325,-97.5942 203.929,-102.068 204.623,-95.1026"/>
</g>
<!-- Node4 -->
<g id="node4" class="node"><title>Node4</title>
<g id="a_node4"><a xlink:href="../../db/de1/classcommands_1_1variable__commands_1_1_do_times_command.html#a253ff97841bc0d124f96d90484e2dbe5" target="_top" xlink:title="commands.variable_commands.\lDoTimesCommand.execute">
<polygon fill="white" stroke="black" points="263.5,-49 263.5,-79 436.5,-79 436.5,-49 263.5,-49"/>
<text text-anchor="start" x="271.5" y="-67" font-family="Helvetica,sans-Serif" font-size="10.00">commands.variable_commands.</text>
<text text-anchor="middle" x="350" y="-56" font-family="Helvetica,sans-Serif" font-size="10.00">DoTimesCommand.execute</text>
</a>
</g>
</g>
<!-- Node1&#45;&gt;Node4 -->
<g id="edge3" class="edge"><title>Node1&#45;&gt;Node4</title>
<path fill="none" stroke="midnightblue" d="M204.5,-77.8167C224.088,-75.9438 244.307,-74.0105 263.191,-72.2049"/>
<polygon fill="midnightblue" stroke="midnightblue" points="203.947,-74.3536 194.325,-78.7896 204.613,-81.3218 203.947,-74.3536"/>
</g>
<!-- Node5 -->
<g id="node5" class="node"><title>Node5</title>
<g id="a_node5"><a xlink:href="../../d4/d35/classcommands_1_1variable__commands_1_1_user_defined_command.html#a159ede425568cf68cd95d2fc3b52cbcc" target="_top" xlink:title="commands.variable_commands.\lUserDefinedCommand.UserDefinedCommand">
<polygon fill="white" stroke="black" points="230.5,-0 230.5,-30 469.5,-30 469.5,-0 230.5,-0"/>
<text text-anchor="start" x="238.5" y="-18" font-family="Helvetica,sans-Serif" font-size="10.00">commands.variable_commands.</text>
<text text-anchor="middle" x="350" y="-7" font-family="Helvetica,sans-Serif" font-size="10.00">UserDefinedCommand.UserDefinedCommand</text>
</a>
</g>
</g>
<!-- Node1&#45;&gt;Node5 -->
<g id="edge4" class="edge"><title>Node1&#45;&gt;Node5</title>
<path fill="none" stroke="midnightblue" d="M144.687,-69.1898C169.707,-59.5776 201.225,-48.2096 230,-40 242.688,-36.3801 256.273,-33.0376 269.562,-30.0528"/>
<polygon fill="midnightblue" stroke="midnightblue" points="143.146,-66.0336 135.089,-72.9134 145.677,-72.5597 143.146,-66.0336"/>
</g>
</g>
</svg>
