<?xml version="1.0" encoding="UTF-8" standalone="no"?>
<!DOCTYPE svg PUBLIC "-//W3C//DTD SVG 1.1//EN"
 "http://www.w3.org/Graphics/SVG/1.1/DTD/svg11.dtd">
<!-- Generated by graphviz version 2.36.0 (20140111.2315)
 -->
<!-- Title: commands.templates.Command.setNumChildren Pages: 1 -->
<!--zoomable 1665 -->
<svg id="main" version="1.1" xmlns="http://www.w3.org/2000/svg" xmlns:xlink="http://www.w3.org/1999/xlink" xml:space="preserve" onload="init(evt)">
<style type="text/css"><![CDATA[
.edge:hover path { stroke: red; }
.edge:hover polygon { stroke: red; fill: red; }
]]></style>
<script type="text/javascript"><![CDATA[
var edges = document.getElementsByTagName('g');
if (edges && edges.length) {
  for (var i=0;i<edges.length;i++) {
    if (edges[i].id.substr(0,4)=='edge') {
      edges[i].setAttribute('class','edge');
    }
  }
}
]]></script>
        <defs>
                <circle id="rim" cx="0" cy="0" r="7"/>
                <circle id="rim2" cx="0" cy="0" r="3.5"/>
                <g id="zoomPlus">
                        <use xlink:href="#rim" fill="#404040">
                                <set attributeName="fill" to="#808080" begin="zoomplus.mouseover" end="zoomplus.mouseout"/>
                        </use>
                        <path d="M-4,0h8M0,-4v8" fill="none" stroke="white" stroke-width="1.5" pointer-events="none"/>
                </g>
                <g id="zoomMin">
                        <use xlink:href="#rim" fill="#404040">
                                <set attributeName="fill" to="#808080" begin="zoomminus.mouseover" end="zoomminus.mouseout"/>
                        </use>
                        <path d="M-4,0h8" fill="none" stroke="white" stroke-width="1.5" pointer-events="none"/>
                </g>
                <g id="dirArrow">
                        <path fill="none" stroke="white" stroke-width="1.5" d="M0,-3.0v7 M-2.5,-0.5L0,-3.0L2.5,-0.5"/>
                </g>
               <g id="resetDef">
                       <use xlink:href="#rim2" fill="#404040">
                               <set attributeName="fill" to="#808080" begin="reset.mouseover" end="reset.mouseout"/>
                       </use>
               </g>
        </defs>

<script type="text/javascript">
var viewWidth = 478;
var viewHeight = 1665;
var sectionId = 'dynsection-8';
</script>
<script xlink:href="../../svgpan.js"/>
<svg id="graph" class="graph">
<g id="viewport">
<title>commands.templates.Command.setNumChildren</title>
<polygon fill="white" stroke="none" points="-4,4 -4,-1661 474,-1661 474,4 -4,4"/>
<!-- Node1 -->
<g id="node1" class="node"><title>Node1</title>
<polygon fill="#bfbfbf" stroke="black" points="0,-818 0,-848 194,-848 194,-818 0,-818"/>
<text text-anchor="start" x="8" y="-836" font-family="Helvetica,sans-Serif" font-size="10.00">commands.templates.Command.set</text>
<text text-anchor="middle" x="97" y="-825" font-family="Helvetica,sans-Serif" font-size="10.00">NumChildren</text>
</g>
<!-- Node2 -->
<g id="node2" class="node"><title>Node2</title>
<g id="a_node2"><a xlink:href="../../da/d20/classcommands_1_1turtle__commands_1_1_ask_command.html#a820f9618bb3ffcd32bc5c9d6b820d1ee" target="_top" xlink:title="commands.turtle_commands.\lAskCommand.AskCommand">
<polygon fill="white" stroke="black" points="269.5,-1627 269.5,-1657 430.5,-1657 430.5,-1627 269.5,-1627"/>
<text text-anchor="start" x="277.5" y="-1645" font-family="Helvetica,sans-Serif" font-size="10.00">commands.turtle_commands.</text>
<text text-anchor="middle" x="350" y="-1634" font-family="Helvetica,sans-Serif" font-size="10.00">AskCommand.AskCommand</text>
</a>
</g>
</g>
<!-- Node1&#45;&gt;Node2 -->
<g id="edge1" class="edge"><title>Node1&#45;&gt;Node2</title>
<path fill="none" stroke="midnightblue" d="M98.5644,-858.229C101.811,-979.869 121.981,-1504.54 230,-1617 240.529,-1627.96 254.549,-1634.74 269.263,-1638.81"/>
<polygon fill="midnightblue" stroke="midnightblue" points="102.059,-857.948 98.3076,-848.04 95.0607,-858.125 102.059,-857.948"/>
</g>
<!-- Node3 -->
<g id="node3" class="node"><title>Node3</title>
<g id="a_node3"><a xlink:href="../../d0/d5e/classcommands_1_1turtle__commands_1_1_ask_with_command.html#aab8f8b48f37ce2cb51ea5da40918d4f8" target="_top" xlink:title="commands.turtle_commands.\lAskWithCommand.AskWithCommand">
<polygon fill="white" stroke="black" points="252.5,-1578 252.5,-1608 447.5,-1608 447.5,-1578 252.5,-1578"/>
<text text-anchor="start" x="260.5" y="-1596" font-family="Helvetica,sans-Serif" font-size="10.00">commands.turtle_commands.</text>
<text text-anchor="middle" x="350" y="-1585" font-family="Helvetica,sans-Serif" font-size="10.00">AskWithCommand.AskWithCommand</text>
</a>
</g>
</g>
<!-- Node1&#45;&gt;Node3 -->
<g id="edge2" class="edge"><title>Node1&#45;&gt;Node3</title>
<path fill="none" stroke="midnightblue" d="M98.8687,-858.132C103.427,-974.922 128.397,-1463.37 230,-1568 236.397,-1574.59 244.057,-1579.66 252.364,-1583.54"/>
<polygon fill="midnightblue" stroke="midnightblue" points="102.362,-857.877 98.4894,-848.016 95.3666,-858.14 102.362,-857.877"/>
</g>
<!-- Node4 -->
<g id="node4" class="node"><title>Node4</title>
<g id="a_node4"><a xlink:href="../../da/d66/classcommands_1_1turtle__commands_1_1_back_command.html#a73912fd27ef1af675e4bffc0c46b2f45" target="_top" xlink:title="commands.turtle_commands.\lBackCommand.BackCommand">
<polygon fill="white" stroke="black" points="266.5,-1529 266.5,-1559 433.5,-1559 433.5,-1529 266.5,-1529"/>
<text text-anchor="start" x="274.5" y="-1547" font-family="Helvetica,sans-Serif" font-size="10.00">commands.turtle_commands.</text>
<text text-anchor="middle" x="350" y="-1536" font-family="Helvetica,sans-Serif" font-size="10.00">BackCommand.BackCommand</text>
</a>
</g>
</g>
<!-- Node1&#45;&gt;Node4 -->
<g id="edge3" class="edge"><title>Node1&#45;&gt;Node4</title>
<path fill="none" stroke="midnightblue" d="M99.224,-858.24C105.183,-970.383 134.854,-1422.23 230,-1519 239.916,-1529.09 252.793,-1535.6 266.401,-1539.73"/>
<polygon fill="midnightblue" stroke="midnightblue" points="102.716,-857.999 98.706,-848.192 95.7256,-858.359 102.716,-857.999"/>
</g>
<!-- Node5 -->
<g id="node5" class="node"><title>Node5</title>
<g id="a_node5"><a xlink:href="../../d4/d6b/classcommands_1_1turtle__commands_1_1_clear_stamp_command.html#a9c0dbf255e88cdc553826986a10167fd" target="_top" xlink:title="commands.turtle_commands.\lClearStampCommand.ClearStampCommand">
<polygon fill="white" stroke="black" points="233,-1480 233,-1510 467,-1510 467,-1480 233,-1480"/>
<text text-anchor="start" x="241" y="-1498" font-family="Helvetica,sans-Serif" font-size="10.00">commands.turtle_commands.</text>
<text text-anchor="middle" x="350" y="-1487" font-family="Helvetica,sans-Serif" font-size="10.00">ClearStampCommand.ClearStampCommand</text>
</a>
</g>
</g>
<!-- Node1&#45;&gt;Node5 -->
<g id="edge4" class="edge"><title>Node1&#45;&gt;Node5</title>
<path fill="none" stroke="midnightblue" d="M99.6437,-858.473C107.103,-965.97 141.325,-1381.08 230,-1470 233.801,-1473.81 238.026,-1477.11 242.552,-1479.97"/>
<polygon fill="midnightblue" stroke="midnightblue" points="103.119,-857.984 98.9511,-848.244 96.1348,-858.457 103.119,-857.984"/>
</g>
<!-- Node6 -->
<g id="node6" class="node"><title>Node6</title>
<g id="a_node6"><a xlink:href="../../db/d31/classcommands_1_1turtle__commands_1_1_forward_command.html#a697b547099c04dba1a32c6e9c388f6e6" target="_top" xlink:title="commands.turtle_commands.\lForwardCommand.ForwardCommand">
<polygon fill="white" stroke="black" points="252.5,-1431 252.5,-1461 447.5,-1461 447.5,-1431 252.5,-1431"/>
<text text-anchor="start" x="260.5" y="-1449" font-family="Helvetica,sans-Serif" font-size="10.00">commands.turtle_commands.</text>
<text text-anchor="middle" x="350" y="-1438" font-family="Helvetica,sans-Serif" font-size="10.00">ForwardCommand.ForwardCommand</text>
</a>
</g>
</g>
<!-- Node1&#45;&gt;Node6 -->
<g id="edge5" class="edge"><title>Node1&#45;&gt;Node6</title>
<path fill="none" stroke="midnightblue" d="M100.089,-858.151C109.054,-959.938 147.62,-1339.75 230,-1421 236.463,-1427.37 244.112,-1432.31 252.367,-1436.12"/>
<polygon fill="midnightblue" stroke="midnightblue" points="103.573,-857.822 99.2258,-848.16 96.5992,-858.424 103.573,-857.822"/>
</g>
<!-- Node7 -->
<g id="node7" class="node"><title>Node7</title>
<g id="a_node7"><a xlink:href="../../d9/db0/classcommands_1_1turtle__commands_1_1_get_shape_command.html#a24da92adf3ea9d64acc14ff82c68fe20" target="_top" xlink:title="commands.turtle_commands.\lGetShapeCommand.GetShapeCommand">
<polygon fill="white" stroke="black" points="242,-1382 242,-1412 458,-1412 458,-1382 242,-1382"/>
<text text-anchor="start" x="250" y="-1400" font-family="Helvetica,sans-Serif" font-size="10.00">commands.turtle_commands.</text>
<text text-anchor="middle" x="350" y="-1389" font-family="Helvetica,sans-Serif" font-size="10.00">GetShapeCommand.GetShapeCommand</text>
</a>
</g>
</g>
<!-- Node1&#45;&gt;Node7 -->
<g id="edge6" class="edge"><title>Node1&#45;&gt;Node7</title>
<path fill="none" stroke="midnightblue" d="M100.645,-858.212C111.272,-954.656 153.994,-1298.47 230,-1372 233.945,-1375.82 238.316,-1379.12 242.986,-1381.96"/>
<polygon fill="midnightblue" stroke="midnightblue" points="104.116,-857.757 99.559,-848.193 97.1569,-858.512 104.116,-857.757"/>
</g>
<!-- Node8 -->
<g id="node8" class="node"><title>Node8</title>
<g id="a_node8"><a xlink:href="../../da/d19/classcommands_1_1turtle__commands_1_1_heading_query.html#af327be4a5e7140c81dcc56bf28081736" target="_top" xlink:title="commands.turtle_commands.\lHeadingQuery.HeadingQuery">
<polygon fill="white" stroke="black" points="269.5,-1333 269.5,-1363 430.5,-1363 430.5,-1333 269.5,-1333"/>
<text text-anchor="start" x="277.5" y="-1351" font-family="Helvetica,sans-Serif" font-size="10.00">commands.turtle_commands.</text>
<text text-anchor="middle" x="350" y="-1340" font-family="Helvetica,sans-Serif" font-size="10.00">HeadingQuery.HeadingQuery</text>
</a>
</g>
</g>
<!-- Node1&#45;&gt;Node8 -->
<g id="edge7" class="edge"><title>Node1&#45;&gt;Node8</title>
<path fill="none" stroke="midnightblue" d="M101.308,-858.257C113.712,-949.071 160.33,-1257.13 230,-1323 240.891,-1333.3 254.895,-1339.81 269.447,-1343.84"/>
<polygon fill="midnightblue" stroke="midnightblue" points="104.77,-857.733 99.9662,-848.29 97.8322,-858.667 104.77,-857.733"/>
</g>
<!-- Node9 -->
<g id="node9" class="node"><title>Node9</title>
<g id="a_node9"><a xlink:href="../../d6/d23/classcommands_1_1turtle__commands_1_1_hide_turtle_command.html#a9b33a3362e96e47769f99e35ef9a5be4" target="_top" xlink:title="commands.turtle_commands.\lHideTurtleCommand.HideTurtleCommand">
<polygon fill="white" stroke="black" points="242.5,-1284 242.5,-1314 457.5,-1314 457.5,-1284 242.5,-1284"/>
<text text-anchor="start" x="250.5" y="-1302" font-family="Helvetica,sans-Serif" font-size="10.00">commands.turtle_commands.</text>
<text text-anchor="middle" x="350" y="-1291" font-family="Helvetica,sans-Serif" font-size="10.00">HideTurtleCommand.HideTurtleCommand</text>
</a>
</g>
</g>
<!-- Node1&#45;&gt;Node9 -->
<g id="edge8" class="edge"><title>Node1&#45;&gt;Node9</title>
<path fill="none" stroke="midnightblue" d="M97.297,-858.382C96.6794,-934.034 105.805,-1159.8 230,-1274 234.118,-1277.79 238.658,-1281.06 243.49,-1283.88"/>
<polygon fill="midnightblue" stroke="midnightblue" points="100.797,-858.392 97.4463,-848.341 93.7979,-858.288 100.797,-858.392"/>
</g>
<!-- Node10 -->
<g id="node10" class="node"><title>Node10</title>
<g id="a_node10"><a xlink:href="../../dd/dfb/classcommands_1_1turtle__commands_1_1_home_command.html#a0092a844b7f8a17367290ab49f45e9fe" target="_top" xlink:title="commands.turtle_commands.\lHomeCommand.HomeCommand">
<polygon fill="white" stroke="black" points="260.5,-1235 260.5,-1265 439.5,-1265 439.5,-1235 260.5,-1235"/>
<text text-anchor="start" x="268.5" y="-1253" font-family="Helvetica,sans-Serif" font-size="10.00">commands.turtle_commands.</text>
<text text-anchor="middle" x="350" y="-1242" font-family="Helvetica,sans-Serif" font-size="10.00">HomeCommand.HomeCommand</text>
</a>
</g>
</g>
<!-- Node1&#45;&gt;Node10 -->
<g id="edge9" class="edge"><title>Node1&#45;&gt;Node10</title>
<path fill="none" stroke="midnightblue" d="M98.3932,-858.354C100.932,-928.342 118.162,-1125.61 230,-1225 238.758,-1232.78 249.311,-1238.37 260.471,-1242.34"/>
<polygon fill="midnightblue" stroke="midnightblue" points="101.889,-858.143 98.0995,-848.248 94.8916,-858.346 101.889,-858.143"/>
</g>
<!-- Node11 -->
<g id="node11" class="node"><title>Node11</title>
<g id="a_node11"><a xlink:href="../../df/d62/classcommands_1_1turtle__commands_1_1_id_command.html#a7f914f2f3df195c3046da0904cb8648d" target="_top" xlink:title="commands.turtle_commands.\lIdCommand.IdCommand">
<polygon fill="white" stroke="black" points="269.5,-1186 269.5,-1216 430.5,-1216 430.5,-1186 269.5,-1186"/>
<text text-anchor="start" x="277.5" y="-1204" font-family="Helvetica,sans-Serif" font-size="10.00">commands.turtle_commands.</text>
<text text-anchor="middle" x="350" y="-1193" font-family="Helvetica,sans-Serif" font-size="10.00">IdCommand.IdCommand</text>
</a>
</g>
</g>
<!-- Node1&#45;&gt;Node11 -->
<g id="edge10" class="edge"><title>Node1&#45;&gt;Node11</title>
<path fill="none" stroke="midnightblue" d="M99.759,-858.196C105.639,-922.049 130.336,-1091.16 230,-1176 241.172,-1185.51 255.049,-1191.7 269.338,-1195.67"/>
<polygon fill="midnightblue" stroke="midnightblue" points="103.245,-857.878 98.9166,-848.207 96.2694,-858.466 103.245,-857.878"/>
</g>
<!-- Node12 -->
<g id="node12" class="node"><title>Node12</title>
<g id="a_node12"><a xlink:href="../../da/d33/classcommands_1_1variable__commands_1_1_if_else_command.html#a40e4e4af29727bdaa95e2165fab03443" target="_top" xlink:title="commands.variable_commands.\lIfElseCommand.IfElseCommand">
<polygon fill="white" stroke="black" points="263.5,-1137 263.5,-1167 436.5,-1167 436.5,-1137 263.5,-1137"/>
<text text-anchor="start" x="271.5" y="-1155" font-family="Helvetica,sans-Serif" font-size="10.00">commands.variable_commands.</text>
<text text-anchor="middle" x="350" y="-1144" font-family="Helvetica,sans-Serif" font-size="10.00">IfElseCommand.IfElseCommand</text>
</a>
</g>
</g>
<!-- Node1&#45;&gt;Node12 -->
<g id="edge11" class="edge"><title>Node1&#45;&gt;Node12</title>
<path fill="none" stroke="midnightblue" d="M101.525,-858.076C110.975,-915.39 142.389,-1056.45 230,-1127 239.701,-1134.81 251.251,-1140.35 263.283,-1144.25"/>
<polygon fill="midnightblue" stroke="midnightblue" points="104.965,-857.419 99.9627,-848.08 98.0491,-858.5 104.965,-857.419"/>
</g>
<!-- Node13 -->
<g id="node13" class="node"><title>Node13</title>
<g id="a_node13"><a xlink:href="../../d4/dfe/classcommands_1_1turtle__commands_1_1_is_showing_query.html#aa36b15b85145db349bbc9e048e5ce15f" target="_top" xlink:title="commands.turtle_commands.\lIsShowingQuery.IsShowingQuery">
<polygon fill="white" stroke="black" points="265,-1088 265,-1118 435,-1118 435,-1088 265,-1088"/>
<text text-anchor="start" x="273" y="-1106" font-family="Helvetica,sans-Serif" font-size="10.00">commands.turtle_commands.</text>
<text text-anchor="middle" x="350" y="-1095" font-family="Helvetica,sans-Serif" font-size="10.00">IsShowingQuery.IsShowingQuery</text>
</a>
</g>
</g>
<!-- Node1&#45;&gt;Node13 -->
<g id="edge12" class="edge"><title>Node1&#45;&gt;Node13</title>
<path fill="none" stroke="midnightblue" d="M103.926,-857.997C117.203,-908.222 154.285,-1021.41 230,-1078 240.23,-1085.65 252.271,-1091.07 264.696,-1094.91"/>
<polygon fill="midnightblue" stroke="midnightblue" points="107.241,-856.832 101.382,-848.005 100.458,-858.559 107.241,-856.832"/>
</g>
<!-- Node14 -->
<g id="node14" class="node"><title>Node14</title>
<g id="a_node14"><a xlink:href="../../d6/d55/classcommands_1_1turtle__commands_1_1_left_command.html#a45fe7f5972f3081f27811c3335d5cbb0" target="_top" xlink:title="commands.turtle_commands.\lLeftCommand.LeftCommand">
<polygon fill="white" stroke="black" points="269.5,-1039 269.5,-1069 430.5,-1069 430.5,-1039 269.5,-1039"/>
<text text-anchor="start" x="277.5" y="-1057" font-family="Helvetica,sans-Serif" font-size="10.00">commands.turtle_commands.</text>
<text text-anchor="middle" x="350" y="-1046" font-family="Helvetica,sans-Serif" font-size="10.00">LeftCommand.LeftCommand</text>
</a>
</g>
</g>
<!-- Node1&#45;&gt;Node14 -->
<g id="edge13" class="edge"><title>Node1&#45;&gt;Node14</title>
<path fill="none" stroke="midnightblue" d="M107.323,-857.712C124.622,-899.992 165.866,-985.818 230,-1029 241.733,-1036.9 255.475,-1042.38 269.372,-1046.16"/>
<polygon fill="midnightblue" stroke="midnightblue" points="110.483,-856.186 103.533,-848.19 103.98,-858.775 110.483,-856.186"/>
</g>
<!-- Node15 -->
<g id="node15" class="node"><title>Node15</title>
<g id="a_node15"><a xlink:href="../../dc/d65/classcommands_1_1templates_1_1_one_child_command.html#a3c66bfabbd56f2da3717b8d7a0f3be08" target="_top" xlink:title="commands.templates.OneChild\lCommand.OneChildCommand">
<polygon fill="white" stroke="black" points="266,-990 266,-1020 434,-1020 434,-990 266,-990"/>
<text text-anchor="start" x="274" y="-1008" font-family="Helvetica,sans-Serif" font-size="10.00">commands.templates.OneChild</text>
<text text-anchor="middle" x="350" y="-997" font-family="Helvetica,sans-Serif" font-size="10.00">Command.OneChildCommand</text>
</a>
</g>
</g>
<!-- Node1&#45;&gt;Node15 -->
<g id="edge14" class="edge"><title>Node1&#45;&gt;Node15</title>
<path fill="none" stroke="midnightblue" d="M112.478,-856.994C133.836,-890.184 177.038,-949.458 230,-980 240.973,-986.328 253.339,-991.062 265.842,-994.604"/>
<polygon fill="midnightblue" stroke="midnightblue" points="115.336,-854.964 107.043,-848.37 109.414,-858.696 115.336,-854.964"/>
</g>
<!-- Node16 -->
<g id="node16" class="node"><title>Node16</title>
<g id="a_node16"><a xlink:href="../../d1/d15/classcommands_1_1turtle__commands_1_1_pen_color_command.html#ad07a6ac5160c3170214123c24fa81302" target="_top" xlink:title="commands.turtle_commands.\lPenColorCommand.PenColorCommand">
<polygon fill="white" stroke="black" points="247,-941 247,-971 453,-971 453,-941 247,-941"/>
<text text-anchor="start" x="255" y="-959" font-family="Helvetica,sans-Serif" font-size="10.00">commands.turtle_commands.</text>
<text text-anchor="middle" x="350" y="-948" font-family="Helvetica,sans-Serif" font-size="10.00">PenColorCommand.PenColorCommand</text>
</a>
</g>
</g>
<!-- Node1&#45;&gt;Node16 -->
<g id="edge15" class="edge"><title>Node1&#45;&gt;Node16</title>
<path fill="none" stroke="midnightblue" d="M121.072,-855.085C145.958,-877.643 187.725,-911.976 230,-931 238.663,-934.898 247.958,-938.199 257.394,-940.991"/>
<polygon fill="midnightblue" stroke="midnightblue" points="123.333,-852.409 113.606,-848.209 118.591,-857.558 123.333,-852.409"/>
</g>
<!-- Node17 -->
<g id="node17" class="node"><title>Node17</title>
<g id="a_node17"><a xlink:href="../../d6/dad/classcommands_1_1turtle__commands_1_1_pen_down_command.html#ac1814f8dc57b9fe601c3443b349c527e" target="_top" xlink:title="commands.turtle_commands.\lPenDownCommand.PenDownCommand">
<polygon fill="white" stroke="black" points="245.5,-892 245.5,-922 454.5,-922 454.5,-892 245.5,-892"/>
<text text-anchor="start" x="253.5" y="-910" font-family="Helvetica,sans-Serif" font-size="10.00">commands.turtle_commands.</text>
<text text-anchor="middle" x="350" y="-899" font-family="Helvetica,sans-Serif" font-size="10.00">PenDownCommand.PenDownCommand</text>
</a>
</g>
</g>
<!-- Node1&#45;&gt;Node17 -->
<g id="edge16" class="edge"><title>Node1&#45;&gt;Node17</title>
<path fill="none" stroke="midnightblue" d="M143.511,-851.798C168.7,-861.717 200.743,-873.547 230,-882 242.574,-885.633 256.038,-888.973 269.222,-891.948"/>
<polygon fill="midnightblue" stroke="midnightblue" points="144.799,-848.543 134.214,-848.101 142.213,-855.048 144.799,-848.543"/>
</g>
<!-- Node18 -->
<g id="node18" class="node"><title>Node18</title>
<g id="a_node18"><a xlink:href="../../dd/def/classcommands_1_1turtle__commands_1_1_pen_down_query.html#a6bde165ed4e5cac0893c676f8cd0f907" target="_top" xlink:title="commands.turtle_commands.\lPenDownQuery.PenDownQuery">
<polygon fill="white" stroke="black" points="268,-843 268,-873 432,-873 432,-843 268,-843"/>
<text text-anchor="start" x="276" y="-861" font-family="Helvetica,sans-Serif" font-size="10.00">commands.turtle_commands.</text>
<text text-anchor="middle" x="350" y="-850" font-family="Helvetica,sans-Serif" font-size="10.00">PenDownQuery.PenDownQuery</text>
</a>
</g>
</g>
<!-- Node1&#45;&gt;Node18 -->
<g id="edge17" class="edge"><title>Node1&#45;&gt;Node18</title>
<path fill="none" stroke="midnightblue" d="M204.324,-843.59C225.509,-845.7 247.441,-847.885 267.627,-849.895"/>
<polygon fill="midnightblue" stroke="midnightblue" points="204.623,-840.103 194.325,-842.594 203.929,-847.068 204.623,-840.103"/>
</g>
<!-- Node19 -->
<g id="node19" class="node"><title>Node19</title>
<g id="a_node19"><a xlink:href="../../d2/dd0/classcommands_1_1turtle__commands_1_1_pen_up_command.html#a9941b33e36480f83998bfec82a259a47" target="_top" xlink:title="commands.turtle_commands.\lPenUpCommand.PenUpCommand">
<polygon fill="white" stroke="black" points="258.5,-794 258.5,-824 441.5,-824 441.5,-794 258.5,-794"/>
<text text-anchor="start" x="266.5" y="-812" font-family="Helvetica,sans-Serif" font-size="10.00">commands.turtle_commands.</text>
<text text-anchor="middle" x="350" y="-801" font-family="Helvetica,sans-Serif" font-size="10.00">PenUpCommand.PenUpCommand</text>
</a>
</g>
</g>
<!-- Node1&#45;&gt;Node19 -->
<g id="edge18" class="edge"><title>Node1&#45;&gt;Node19</title>
<path fill="none" stroke="midnightblue" d="M204.75,-822.793C222.576,-821.088 240.918,-819.334 258.295,-817.673"/>
<polygon fill="midnightblue" stroke="midnightblue" points="203.947,-819.354 194.325,-823.79 204.613,-826.322 203.947,-819.354"/>
</g>
<!-- Node20 -->
<g id="node20" class="node"><title>Node20</title>
<g id="a_node20"><a xlink:href="../../db/dad/classcommands_1_1turtle__commands_1_1_right_command.html#ad5725e25930a4ef067bbaf658fab9e55" target="_top" xlink:title="commands.turtle_commands.\lRightCommand.RightCommand">
<polygon fill="white" stroke="black" points="266,-745 266,-775 434,-775 434,-745 266,-745"/>
<text text-anchor="start" x="274" y="-763" font-family="Helvetica,sans-Serif" font-size="10.00">commands.turtle_commands.</text>
<text text-anchor="middle" x="350" y="-752" font-family="Helvetica,sans-Serif" font-size="10.00">RightCommand.RightCommand</text>
</a>
</g>
</g>
<!-- Node1&#45;&gt;Node20 -->
<g id="edge19" class="edge"><title>Node1&#45;&gt;Node20</title>
<path fill="none" stroke="midnightblue" d="M144.687,-814.19C169.707,-804.578 201.225,-793.21 230,-785 242.688,-781.38 256.273,-778.038 269.562,-775.053"/>
<polygon fill="midnightblue" stroke="midnightblue" points="143.146,-811.034 135.089,-817.913 145.677,-817.56 143.146,-811.034"/>
</g>
<!-- Node21 -->
<g id="node21" class="node"><title>Node21</title>
<g id="a_node21"><a xlink:href="../../de/d5b/classcommands_1_1turtle__commands_1_1_set_heading_command.html#ac7f55027716ec895dd3c87487ad4c978" target="_top" xlink:title="commands.turtle_commands.\lSetHeadingCommand.SetHeadingCommand">
<polygon fill="white" stroke="black" points="233.5,-696 233.5,-726 466.5,-726 466.5,-696 233.5,-696"/>
<text text-anchor="start" x="241.5" y="-714" font-family="Helvetica,sans-Serif" font-size="10.00">commands.turtle_commands.</text>
<text text-anchor="middle" x="350" y="-703" font-family="Helvetica,sans-Serif" font-size="10.00">SetHeadingCommand.SetHeadingCommand</text>
</a>
</g>
</g>
<!-- Node1&#45;&gt;Node21 -->
<g id="edge20" class="edge"><title>Node1&#45;&gt;Node21</title>
<path fill="none" stroke="midnightblue" d="M121.115,-811.149C146.036,-788.829 187.831,-754.852 230,-736 238.673,-732.123 247.973,-728.836 257.413,-726.052"/>
<polygon fill="midnightblue" stroke="midnightblue" points="118.679,-808.634 113.638,-817.953 123.39,-813.812 118.679,-808.634"/>
</g>
<!-- Node22 -->
<g id="node22" class="node"><title>Node22</title>
<g id="a_node22"><a xlink:href="../../dd/d34/classcommands_1_1_set_palette_command.html#a07c2311ca5c55d15ed18c52a1aeb88d8" target="_top" xlink:title="commands.SetPaletteCommand.\lSetPaletteCommand">
<polygon fill="white" stroke="black" points="262,-647 262,-677 438,-677 438,-647 262,-647"/>
<text text-anchor="start" x="270" y="-665" font-family="Helvetica,sans-Serif" font-size="10.00">commands.SetPaletteCommand.</text>
<text text-anchor="middle" x="350" y="-654" font-family="Helvetica,sans-Serif" font-size="10.00">SetPaletteCommand</text>
</a>
</g>
</g>
<!-- Node1&#45;&gt;Node22 -->
<g id="edge21" class="edge"><title>Node1&#45;&gt;Node22</title>
<path fill="none" stroke="midnightblue" d="M112.519,-809.17C133.926,-776.207 177.186,-717.337 230,-687 239.794,-681.374 250.691,-677.008 261.803,-673.621"/>
<polygon fill="midnightblue" stroke="midnightblue" points="109.485,-807.419 107.071,-817.735 115.391,-811.176 109.485,-807.419"/>
</g>
<!-- Node23 -->
<g id="node23" class="node"><title>Node23</title>
<g id="a_node23"><a xlink:href="../../da/d6b/classcommands_1_1turtle__commands_1_1_set_pen_color.html#afe05e56bbf9fab127c5e8523ef0d68b0" target="_top" xlink:title="commands.turtle_commands.\lSetPenColor.SetPenColor">
<polygon fill="white" stroke="black" points="269.5,-598 269.5,-628 430.5,-628 430.5,-598 269.5,-598"/>
<text text-anchor="start" x="277.5" y="-616" font-family="Helvetica,sans-Serif" font-size="10.00">commands.turtle_commands.</text>
<text text-anchor="middle" x="350" y="-605" font-family="Helvetica,sans-Serif" font-size="10.00">SetPenColor.SetPenColor</text>
</a>
</g>
</g>
<!-- Node1&#45;&gt;Node23 -->
<g id="edge22" class="edge"><title>Node1&#45;&gt;Node23</title>
<path fill="none" stroke="midnightblue" d="M107.36,-808.413C124.714,-766.346 166.04,-680.955 230,-638 241.742,-630.114 255.489,-624.644 269.387,-620.865"/>
<polygon fill="midnightblue" stroke="midnightblue" points="104.034,-807.303 103.557,-817.887 110.53,-809.91 104.034,-807.303"/>
</g>
<!-- Node24 -->
<g id="node24" class="node"><title>Node24</title>
<g id="a_node24"><a xlink:href="../../d2/df1/classcommands_1_1turtle__commands_1_1_set_position_command.html#a96d004c42bce65957522a35196bafe34" target="_top" xlink:title="commands.turtle_commands.\lSetPositionCommand.SetPosition\lCommand">
<polygon fill="white" stroke="black" points="261,-538.5 261,-579.5 439,-579.5 439,-538.5 261,-538.5"/>
<text text-anchor="start" x="269" y="-567.5" font-family="Helvetica,sans-Serif" font-size="10.00">commands.turtle_commands.</text>
<text text-anchor="start" x="269" y="-556.5" font-family="Helvetica,sans-Serif" font-size="10.00">SetPositionCommand.SetPosition</text>
<text text-anchor="middle" x="350" y="-545.5" font-family="Helvetica,sans-Serif" font-size="10.00">Command</text>
</a>
</g>
</g>
<!-- Node1&#45;&gt;Node24 -->
<g id="edge23" class="edge"><title>Node1&#45;&gt;Node24</title>
<path fill="none" stroke="midnightblue" d="M104.246,-807.997C118.01,-758.251 155.792,-646.704 230,-589 239.167,-581.872 249.824,-576.419 260.921,-572.252"/>
<polygon fill="midnightblue" stroke="midnightblue" points="100.799,-807.339 101.599,-817.904 107.562,-809.146 100.799,-807.339"/>
</g>
<!-- Node25 -->
<g id="node25" class="node"><title>Node25</title>
<g id="a_node25"><a xlink:href="../../d9/ded/classcommands_1_1turtle__commands_1_1_set_shape_command.html#a9d770ed111bc2f530b5f7f949a91b4e2" target="_top" xlink:title="commands.turtle_commands.\lSetShapeCommand.SetShapeCommand">
<polygon fill="white" stroke="black" points="242.5,-490 242.5,-520 457.5,-520 457.5,-490 242.5,-490"/>
<text text-anchor="start" x="250.5" y="-508" font-family="Helvetica,sans-Serif" font-size="10.00">commands.turtle_commands.</text>
<text text-anchor="middle" x="350" y="-497" font-family="Helvetica,sans-Serif" font-size="10.00">SetShapeCommand.SetShapeCommand</text>
</a>
</g>
</g>
<!-- Node1&#45;&gt;Node25 -->
<g id="edge24" class="edge"><title>Node1&#45;&gt;Node25</title>
<path fill="none" stroke="midnightblue" d="M101.088,-807.824C109.71,-749.012 139.661,-602.066 230,-529 234.179,-525.62 238.706,-522.676 243.47,-520.113"/>
<polygon fill="midnightblue" stroke="midnightblue" points="97.6193,-807.357 99.7165,-817.742 104.553,-808.316 97.6193,-807.357"/>
</g>
<!-- Node26 -->
<g id="node26" class="node"><title>Node26</title>
<g id="a_node26"><a xlink:href="../../d7/d3f/classcommands_1_1turtle__commands_1_1_set_stroke_size.html#a9738961c973060d93519a030be936a45" target="_top" xlink:title="commands.turtle_commands.\lSetStrokeSize.SetStrokeSize">
<polygon fill="white" stroke="black" points="269.5,-441 269.5,-471 430.5,-471 430.5,-441 269.5,-441"/>
<text text-anchor="start" x="277.5" y="-459" font-family="Helvetica,sans-Serif" font-size="10.00">commands.turtle_commands.</text>
<text text-anchor="middle" x="350" y="-448" font-family="Helvetica,sans-Serif" font-size="10.00">SetStrokeSize.SetStrokeSize</text>
</a>
</g>
</g>
<!-- Node1&#45;&gt;Node26 -->
<g id="edge25" class="edge"><title>Node1&#45;&gt;Node26</title>
<path fill="none" stroke="midnightblue" d="M99.4964,-807.612C104.773,-742.475 128.195,-568.425 230,-481 241.131,-471.441 254.989,-465.23 269.273,-461.253"/>
<polygon fill="midnightblue" stroke="midnightblue" points="95.9911,-807.557 98.7512,-817.786 102.972,-808.068 95.9911,-807.557"/>
</g>
<!-- Node27 -->
<g id="node27" class="node"><title>Node27</title>
<g id="a_node27"><a xlink:href="../../d7/dda/classcommands_1_1turtle__commands_1_1_show_turtle_command.html#a91b5ed7e3ffa5a320c078fdafdee6e9f" target="_top" xlink:title="commands.turtle_commands.\lShowTurtleCommand.ShowTurtleCommand">
<polygon fill="white" stroke="black" points="239,-392 239,-422 461,-422 461,-392 239,-392"/>
<text text-anchor="start" x="247" y="-410" font-family="Helvetica,sans-Serif" font-size="10.00">commands.turtle_commands.</text>
<text text-anchor="middle" x="350" y="-399" font-family="Helvetica,sans-Serif" font-size="10.00">ShowTurtleCommand.ShowTurtleCommand</text>
</a>
</g>
</g>
<!-- Node1&#45;&gt;Node27 -->
<g id="edge26" class="edge"><title>Node1&#45;&gt;Node27</title>
<path fill="none" stroke="midnightblue" d="M98.1756,-807.567C100.129,-736.447 115.94,-534.061 230,-432 234.248,-428.199 238.923,-424.922 243.889,-422.1"/>
<polygon fill="midnightblue" stroke="midnightblue" points="94.6713,-807.75 97.9681,-817.819 101.67,-807.892 94.6713,-807.75"/>
</g>
<!-- Node28 -->
<g id="node28" class="node"><title>Node28</title>
<g id="a_node28"><a xlink:href="../../d2/dd3/classcommands_1_1turtle__commands_1_1_stamp_command.html#a74fcdc9022b3a32d3694240a7803f993" target="_top" xlink:title="commands.turtle_commands.\lStampCommand.StampCommand">
<polygon fill="white" stroke="black" points="257.5,-343 257.5,-373 442.5,-373 442.5,-343 257.5,-343"/>
<text text-anchor="start" x="265.5" y="-361" font-family="Helvetica,sans-Serif" font-size="10.00">commands.turtle_commands.</text>
<text text-anchor="middle" x="350" y="-350" font-family="Helvetica,sans-Serif" font-size="10.00">StampCommand.StampCommand</text>
</a>
</g>
</g>
<!-- Node1&#45;&gt;Node28 -->
<g id="edge27" class="edge"><title>Node1&#45;&gt;Node28</title>
<path fill="none" stroke="midnightblue" d="M97.1197,-807.635C95.9408,-730.999 103.513,-499.957 230,-383 237.905,-375.691 247.383,-370.301 257.494,-366.357"/>
<polygon fill="midnightblue" stroke="midnightblue" points="93.624,-807.869 97.3441,-817.789 100.622,-807.714 93.624,-807.869"/>
</g>
<!-- Node29 -->
<g id="node29" class="node"><title>Node29</title>
<g id="a_node29"><a xlink:href="../../d1/d00/classcommands_1_1turtle__commands_1_1_tell_command.html#a6aa2eca0c8abaebf51436da1b8a43ff7" target="_top" xlink:title="commands.turtle_commands.\lTellCommand.TellCommand">
<polygon fill="white" stroke="black" points="269.5,-294 269.5,-324 430.5,-324 430.5,-294 269.5,-294"/>
<text text-anchor="start" x="277.5" y="-312" font-family="Helvetica,sans-Serif" font-size="10.00">commands.turtle_commands.</text>
<text text-anchor="middle" x="350" y="-301" font-family="Helvetica,sans-Serif" font-size="10.00">TellCommand.TellCommand</text>
</a>
</g>
</g>
<!-- Node1&#45;&gt;Node29 -->
<g id="edge28" class="edge"><title>Node1&#45;&gt;Node29</title>
<path fill="none" stroke="midnightblue" d="M101.158,-807.894C113.197,-716.207 159.132,-401.307 230,-334 240.868,-323.678 254.861,-317.159 269.41,-313.126"/>
<polygon fill="midnightblue" stroke="midnightblue" points="97.671,-807.57 99.8588,-817.937 104.613,-808.469 97.671,-807.57"/>
</g>
<!-- Node30 -->
<g id="node30" class="node"><title>Node30</title>
<g id="a_node30"><a xlink:href="../../db/d90/classcommands_1_1turtle__commands_1_1_towards_command.html#af37c264c3cbd407403326d3c6effa82e" target="_top" xlink:title="commands.turtle_commands.\lTowardsCommand.TowardsCommand">
<polygon fill="white" stroke="black" points="252.5,-245 252.5,-275 447.5,-275 447.5,-245 252.5,-245"/>
<text text-anchor="start" x="260.5" y="-263" font-family="Helvetica,sans-Serif" font-size="10.00">commands.turtle_commands.</text>
<text text-anchor="middle" x="350" y="-252" font-family="Helvetica,sans-Serif" font-size="10.00">TowardsCommand.TowardsCommand</text>
</a>
</g>
</g>
<!-- Node1&#45;&gt;Node30 -->
<g id="edge29" class="edge"><title>Node1&#45;&gt;Node30</title>
<path fill="none" stroke="midnightblue" d="M100.546,-807.694C110.879,-710.102 152.853,-359.919 230,-285 236.512,-278.676 244.194,-273.771 252.469,-269.987"/>
<polygon fill="midnightblue" stroke="midnightblue" points="97.0465,-807.513 99.4925,-817.821 104.009,-808.237 97.0465,-807.513"/>
</g>
<!-- Node31 -->
<g id="node31" class="node"><title>Node31</title>
<g id="a_node31"><a xlink:href="../../d0/d45/classcommands_1_1templates_1_1_two_child_command.html#a10d2b51be42bfbd01e557ff8407ae675" target="_top" xlink:title="commands.templates.TwoChild\lCommand.TwoChildCommand">
<polygon fill="white" stroke="black" points="267.5,-196 267.5,-226 432.5,-226 432.5,-196 267.5,-196"/>
<text text-anchor="start" x="275.5" y="-214" font-family="Helvetica,sans-Serif" font-size="10.00">commands.templates.TwoChild</text>
<text text-anchor="middle" x="350" y="-203" font-family="Helvetica,sans-Serif" font-size="10.00">Command.TwoChildCommand</text>
</a>
</g>
</g>
<!-- Node1&#45;&gt;Node31 -->
<g id="edge30" class="edge"><title>Node1&#45;&gt;Node31</title>
<path fill="none" stroke="midnightblue" d="M100.001,-807.805C108.681,-704.981 146.462,-318.663 230,-236 240.204,-225.903 253.383,-219.406 267.238,-215.309"/>
<polygon fill="midnightblue" stroke="midnightblue" points="96.5033,-807.633 99.1672,-817.887 103.479,-808.21 96.5033,-807.633"/>
</g>
<!-- Node32 -->
<g id="node32" class="node"><title>Node32</title>
<g id="a_node32"><a xlink:href="../../d4/d35/classcommands_1_1variable__commands_1_1_user_defined_command.html#a159ede425568cf68cd95d2fc3b52cbcc" target="_top" xlink:title="commands.variable_commands.\lUserDefinedCommand.UserDefinedCommand">
<polygon fill="white" stroke="black" points="230.5,-147 230.5,-177 469.5,-177 469.5,-147 230.5,-147"/>
<text text-anchor="start" x="238.5" y="-165" font-family="Helvetica,sans-Serif" font-size="10.00">commands.variable_commands.</text>
<text text-anchor="middle" x="350" y="-154" font-family="Helvetica,sans-Serif" font-size="10.00">UserDefinedCommand.UserDefinedCommand</text>
</a>
</g>
</g>
<!-- Node1&#45;&gt;Node32 -->
<g id="edge31" class="edge"><title>Node1&#45;&gt;Node32</title>
<path fill="none" stroke="midnightblue" d="M99.5645,-807.525C106.748,-699.085 140.151,-277.346 230,-187 233.796,-183.183 238.017,-179.878 242.539,-177.022"/>
<polygon fill="midnightblue" stroke="midnightblue" points="96.0507,-807.628 98.8991,-817.832 103.036,-808.079 96.0507,-807.628"/>
</g>
<!-- Node33 -->
<g id="node33" class="node"><title>Node33</title>
<g id="a_node33"><a xlink:href="../../d5/def/classcommands_1_1variable__commands_1_1_user_input_command.html#aff93420501b310456eba620bef2d9144" target="_top" xlink:title="commands.variable_commands.\lUserInputCommand.UserInputCommand">
<polygon fill="white" stroke="black" points="243.5,-98 243.5,-128 456.5,-128 456.5,-98 243.5,-98"/>
<text text-anchor="start" x="251.5" y="-116" font-family="Helvetica,sans-Serif" font-size="10.00">commands.variable_commands.</text>
<text text-anchor="middle" x="350" y="-105" font-family="Helvetica,sans-Serif" font-size="10.00">UserInputCommand.UserInputCommand</text>
</a>
</g>
</g>
<!-- Node1&#45;&gt;Node33 -->
<g id="edge32" class="edge"><title>Node1&#45;&gt;Node33</title>
<path fill="none" stroke="midnightblue" d="M99.1539,-807.8C104.848,-694.822 133.664,-236.221 230,-138 233.991,-133.931 238.464,-130.442 243.273,-127.456"/>
<polygon fill="midnightblue" stroke="midnightblue" points="95.6522,-807.752 98.6604,-817.91 102.644,-808.093 95.6522,-807.752"/>
</g>
<!-- Node34 -->
<g id="node34" class="node"><title>Node34</title>
<g id="a_node34"><a xlink:href="../../d8/dcb/classcommands_1_1turtle__commands_1_1_x_cor_query.html#a5a0e5de1c3ad66e9b7753f4701cf6302" target="_top" xlink:title="commands.turtle_commands.\lXCorQuery.XCorQuery">
<polygon fill="white" stroke="black" points="269.5,-49 269.5,-79 430.5,-79 430.5,-49 269.5,-49"/>
<text text-anchor="start" x="277.5" y="-67" font-family="Helvetica,sans-Serif" font-size="10.00">commands.turtle_commands.</text>
<text text-anchor="middle" x="350" y="-56" font-family="Helvetica,sans-Serif" font-size="10.00">XCorQuery.XCorQuery</text>
</a>
</g>
</g>
<!-- Node1&#45;&gt;Node34 -->
<g id="edge33" class="edge"><title>Node1&#45;&gt;Node34</title>
<path fill="none" stroke="midnightblue" d="M98.8206,-807.563C103.162,-689.356 127.303,-194.982 230,-89 240.577,-78.0843 254.618,-71.3312 269.337,-67.2626"/>
<polygon fill="midnightblue" stroke="midnightblue" points="95.3142,-807.685 98.4603,-817.802 102.31,-807.932 95.3142,-807.685"/>
</g>
<!-- Node35 -->
<g id="node35" class="node"><title>Node35</title>
<g id="a_node35"><a xlink:href="../../d0/d94/classcommands_1_1turtle__commands_1_1_y_cor_query.html#a3694d5b98c2cc3fd1f4fe17366119823" target="_top" xlink:title="commands.turtle_commands.\lYCorQuery.YCorQuery">
<polygon fill="white" stroke="black" points="269.5,-0 269.5,-30 430.5,-30 430.5,-0 269.5,-0"/>
<text text-anchor="start" x="277.5" y="-18" font-family="Helvetica,sans-Serif" font-size="10.00">commands.turtle_commands.</text>
<text text-anchor="middle" x="350" y="-7" font-family="Helvetica,sans-Serif" font-size="10.00">YCorQuery.YCorQuery</text>
</a>
</g>
</g>
<!-- Node1&#45;&gt;Node35 -->
<g id="edge34" class="edge"><title>Node1&#45;&gt;Node35</title>
<path fill="none" stroke="midnightblue" d="M98.5189,-807.484C101.553,-684.461 120.881,-153.816 230,-40 240.519,-29.0282 254.534,-22.2505 269.247,-18.1756"/>
<polygon fill="midnightblue" stroke="midnightblue" points="95.0128,-807.711 98.2801,-817.789 102.011,-807.873 95.0128,-807.711"/>
</g>
</g>
</svg>
        <g id="navigator" transform="translate(0 0)" fill="#404254">
                <rect fill="#f2f5e9" fill-opacity="0.5" stroke="#606060" stroke-width=".5" x="0" y="0" width="60" height="60"/>
                <use id="zoomplus" xlink:href="#zoomPlus" x="17" y="9" onmousedown="handleZoom(evt,'in')"/>
                <use id="zoomminus" xlink:href="#zoomMin" x="42" y="9" onmousedown="handleZoom(evt,'out')"/>
                <use id="reset" xlink:href="#resetDef" x="30" y="36" onmousedown="handleReset()"/>
                <g id="arrowUp" xlink:href="#dirArrow" transform="translate(30 24)" onmousedown="handlePan(0,-1)">
                  <use xlink:href="#rim" fill="#404040">
                        <set attributeName="fill" to="#808080" begin="arrowUp.mouseover" end="arrowUp.mouseout"/>
                  </use>
                  <path fill="none" stroke="white" stroke-width="1.5" d="M0,-3.0v7 M-2.5,-0.5L0,-3.0L2.5,-0.5"/>
                </g>
                <g id="arrowRight" xlink:href="#dirArrow" transform="rotate(90) translate(36 -43)" onmousedown="handlePan(1,0)">
                  <use xlink:href="#rim" fill="#404040">
                        <set attributeName="fill" to="#808080" begin="arrowRight.mouseover" end="arrowRight.mouseout"/>
                  </use>
                  <path fill="none" stroke="white" stroke-width="1.5" d="M0,-3.0v7 M-2.5,-0.5L0,-3.0L2.5,-0.5"/>
                </g>
                <g id="arrowDown" xlink:href="#dirArrow" transform="rotate(180) translate(-30 -48)" onmousedown="handlePan(0,1)">
                  <use xlink:href="#rim" fill="#404040">
                        <set attributeName="fill" to="#808080" begin="arrowDown.mouseover" end="arrowDown.mouseout"/>
                  </use>
                  <path fill="none" stroke="white" stroke-width="1.5" d="M0,-3.0v7 M-2.5,-0.5L0,-3.0L2.5,-0.5"/>
                </g>
                <g id="arrowLeft" xlink:href="#dirArrow" transform="rotate(270) translate(-36 17)" onmousedown="handlePan(-1,0)">
                  <use xlink:href="#rim" fill="#404040">
                        <set attributeName="fill" to="#808080" begin="arrowLeft.mouseover" end="arrowLeft.mouseout"/>
                  </use>
                  <path fill="none" stroke="white" stroke-width="1.5" d="M0,-3.0v7 M-2.5,-0.5L0,-3.0L2.5,-0.5"/>
                </g>
        </g>
        <svg viewBox="0 0 15 15" width="100%" height="30px" preserveAspectRatio="xMaxYMin meet">
         <g id="arrow_out" transform="scale(0.3 0.3)">
          <a xlink:href="classcommands_1_1templates_1_1_command_a33bda544b01bcac7892fcc146fc67107_icgraph_org.svg" target="_base">
           <rect id="button" ry="5" rx="5" y="6" x="6" height="38" width="38"
                fill="#f2f5e9" fill-opacity="0.5" stroke="#606060" stroke-width="1.0"/>
           <path id="arrow"
             d="M 11.500037,31.436501 C 11.940474,20.09759 22.043105,11.32322 32.158766,21.979434 L 37.068811,17.246167 C 37.068811,17.246167 37.088388,32 37.088388,32 L 22.160133,31.978069 C 22.160133,31.978069 26.997745,27.140456 26.997745,27.140456 C 18.528582,18.264221 13.291696,25.230495 11.500037,31.436501 z"
             style="fill:#404040;"/>
          </a>
         </g>
        </svg>
</svg>
