<?xml version="1.0" encoding="UTF-8" standalone="no"?>
<!DOCTYPE svg PUBLIC "-//W3C//DTD SVG 1.1//EN"
 "http://www.w3.org/Graphics/SVG/1.1/DTD/svg11.dtd">
<!-- Generated by graphviz version 2.36.0 (20140111.2315)
 -->
<!-- Title: commands.templates.Command.getNumChildrenNeeded Pages: 1 -->
<!--zoomable 177 -->
<svg id="main" version="1.1" xmlns="http://www.w3.org/2000/svg" xmlns:xlink="http://www.w3.org/1999/xlink" xml:space="preserve" onload="init(evt)">
<style type="text/css"><![CDATA[
.edge:hover path { stroke: red; }
.edge:hover polygon { stroke: red; fill: red; }
]]></style>
<script type="text/javascript"><![CDATA[
var edges = document.getElementsByTagName('g');
if (edges && edges.length) {
  for (var i=0;i<edges.length;i++) {
    if (edges[i].id.substr(0,4)=='edge') {
      edges[i].setAttribute('class','edge');
    }
  }
}
]]></script>
        <defs>
                <circle id="rim" cx="0" cy="0" r="7"/>
                <circle id="rim2" cx="0" cy="0" r="3.5"/>
                <g id="zoomPlus">
                        <use xlink:href="#rim" fill="#404040">
                                <set attributeName="fill" to="#808080" begin="zoomplus.mouseover" end="zoomplus.mouseout"/>
                        </use>
                        <path d="M-4,0h8M0,-4v8" fill="none" stroke="white" stroke-width="1.5" pointer-events="none"/>
                </g>
                <g id="zoomMin">
                        <use xlink:href="#rim" fill="#404040">
                                <set attributeName="fill" to="#808080" begin="zoomminus.mouseover" end="zoomminus.mouseout"/>
                        </use>
                        <path d="M-4,0h8" fill="none" stroke="white" stroke-width="1.5" pointer-events="none"/>
                </g>
                <g id="dirArrow">
                        <path fill="none" stroke="white" stroke-width="1.5" d="M0,-3.0v7 M-2.5,-0.5L0,-3.0L2.5,-0.5"/>
                </g>
               <g id="resetDef">
                       <use xlink:href="#rim2" fill="#404040">
                               <set attributeName="fill" to="#808080" begin="reset.mouseover" end="reset.mouseout"/>
                       </use>
               </g>
        </defs>

<script type="text/javascript">
var viewWidth = 1714;
var viewHeight = 177;
var sectionId = 'dynsection-4';
</script>
<script xlink:href="../../svgpan.js"/>
<svg id="graph" class="graph">
<g id="viewport">
<title>commands.templates.Command.getNumChildrenNeeded</title>
<polygon fill="white" stroke="none" points="-4,4 -4,-173 1710,-173 1710,4 -4,4"/>
<!-- Node1 -->
<g id="node1" class="node"><title>Node1</title>
<polygon fill="#bfbfbf" stroke="black" points="0,-60 0,-90 194,-90 194,-60 0,-60"/>
<text text-anchor="start" x="8" y="-78" font-family="Helvetica,sans-Serif" font-size="10.00">commands.templates.Command.get</text>
<text text-anchor="middle" x="97" y="-67" font-family="Helvetica,sans-Serif" font-size="10.00">NumChildrenNeeded</text>
</g>
<!-- Node2 -->
<g id="node2" class="node"><title>Node2</title>
<g id="a_node2"><a xlink:href="../../d9/d1e/classback_end_1_1_parser.html#a653298ad53a1eea540beded2bb558ab4" target="_top" xlink:title="backEnd.Parser.makeTree">
<polygon fill="white" stroke="black" points="230.5,-65.5 230.5,-84.5 369.5,-84.5 369.5,-65.5 230.5,-65.5"/>
<text text-anchor="middle" x="300" y="-72.5" font-family="Helvetica,sans-Serif" font-size="10.00">backEnd.Parser.makeTree</text>
</a>
</g>
</g>
<!-- Node1&#45;&gt;Node2 -->
<g id="edge1" class="edge"><title>Node1&#45;&gt;Node2</title>
<path fill="none" stroke="midnightblue" d="M204.108,-75C212.977,-75 221.787,-75 230.262,-75"/>
<polygon fill="midnightblue" stroke="midnightblue" points="204.085,-71.5001 194.085,-75 204.085,-78.5001 204.085,-71.5001"/>
</g>
<!-- Node3 -->
<g id="node3" class="node"><title>Node3</title>
<g id="a_node3"><a xlink:href="../../d9/d1e/classback_end_1_1_parser.html#a163b8afd814babc8e7df59993f0d6440" target="_top" xlink:title="backEnd.Parser.parseScript">
<polygon fill="white" stroke="black" points="406.5,-65.5 406.5,-84.5 553.5,-84.5 553.5,-65.5 406.5,-65.5"/>
<text text-anchor="middle" x="480" y="-72.5" font-family="Helvetica,sans-Serif" font-size="10.00">backEnd.Parser.parseScript</text>
</a>
</g>
</g>
<!-- Node2&#45;&gt;Node3 -->
<g id="edge2" class="edge"><title>Node2&#45;&gt;Node3</title>
<path fill="none" stroke="midnightblue" d="M379.833,-75C388.651,-75 397.603,-75 406.338,-75"/>
<polygon fill="midnightblue" stroke="midnightblue" points="379.565,-71.5001 369.565,-75 379.565,-78.5001 379.565,-71.5001"/>
</g>
<!-- Node4 -->
<g id="node4" class="node"><title>Node4</title>
<g id="a_node4"><a xlink:href="../../d9/d98/classback_end_1_1_model.html#ade764fd1c85a48fabb9abf3dfe8b8ceb" target="_top" xlink:title="backEnd.Model.runScript">
<polygon fill="white" stroke="black" points="590.5,-65.5 590.5,-84.5 725.5,-84.5 725.5,-65.5 590.5,-65.5"/>
<text text-anchor="middle" x="658" y="-72.5" font-family="Helvetica,sans-Serif" font-size="10.00">backEnd.Model.runScript</text>
</a>
</g>
</g>
<!-- Node3&#45;&gt;Node4 -->
<g id="edge3" class="edge"><title>Node3&#45;&gt;Node4</title>
<path fill="none" stroke="midnightblue" d="M563.694,-75C572.678,-75 581.736,-75 590.491,-75"/>
<polygon fill="midnightblue" stroke="midnightblue" points="563.602,-71.5001 553.602,-75 563.602,-78.5001 563.602,-71.5001"/>
</g>
<!-- Node5 -->
<g id="node5" class="node"><title>Node5</title>
<g id="a_node5"><a xlink:href="../../d9/d49/classback_end_1_1_controller.html#ad650f48d236eaf11c2d8591b04831900" target="_top" xlink:title="backEnd.Controller.runScript">
<polygon fill="white" stroke="black" points="762,-65.5 762,-84.5 914,-84.5 914,-65.5 762,-65.5"/>
<text text-anchor="middle" x="838" y="-72.5" font-family="Helvetica,sans-Serif" font-size="10.00">backEnd.Controller.runScript</text>
</a>
</g>
</g>
<!-- Node4&#45;&gt;Node5 -->
<g id="edge4" class="edge"><title>Node4&#45;&gt;Node5</title>
<path fill="none" stroke="midnightblue" d="M735.646,-75C744.341,-75 753.196,-75 761.871,-75"/>
<polygon fill="midnightblue" stroke="midnightblue" points="735.534,-71.5001 725.534,-75 735.534,-78.5001 735.534,-71.5001"/>
</g>
<!-- Node6 -->
<g id="node6" class="node"><title>Node6</title>
<g id="a_node6"><a xlink:href="../../de/d03/classpanels_1_1_script_panel.html#ae6ae56472ef1a975597bad69844662c6" target="_top" xlink:title="panels.ScriptPanel.handler">
<polygon fill="white" stroke="black" points="952.5,-130.5 952.5,-149.5 1095.5,-149.5 1095.5,-130.5 952.5,-130.5"/>
<text text-anchor="middle" x="1024" y="-137.5" font-family="Helvetica,sans-Serif" font-size="10.00">panels.ScriptPanel.handler</text>
</a>
</g>
</g>
<!-- Node5&#45;&gt;Node6 -->
<g id="edge5" class="edge"><title>Node5&#45;&gt;Node6</title>
<path fill="none" stroke="midnightblue" d="M875.673,-87.9552C911.198,-100.505 964.232,-119.24 996.039,-130.476"/>
<polygon fill="midnightblue" stroke="midnightblue" points="876.745,-84.6218 866.15,-84.591 874.413,-91.2221 876.745,-84.6218"/>
</g>
<!-- Node8 -->
<g id="node8" class="node"><title>Node8</title>
<g id="a_node8"><a xlink:href="../../da/d04/classtitle_panes_1_1_control_title_pane.html#af28eba60fefe51c70e763d51d9123ea3" target="_top" xlink:title="titlePanes.ControlTitlePane.make\lLocationFields">
<polygon fill="white" stroke="black" points="1350.5,-0 1350.5,-30 1523.5,-30 1523.5,-0 1350.5,-0"/>
<text text-anchor="start" x="1358.5" y="-18" font-family="Helvetica,sans-Serif" font-size="10.00">titlePanes.ControlTitlePane.make</text>
<text text-anchor="middle" x="1437" y="-7" font-family="Helvetica,sans-Serif" font-size="10.00">LocationFields</text>
</a>
</g>
</g>
<!-- Node5&#45;&gt;Node8 -->
<g id="edge7" class="edge"><title>Node5&#45;&gt;Node8</title>
<path fill="none" stroke="midnightblue" d="M899.177,-63.7364C915.616,-60.9228 933.457,-58.1097 950,-56 1089.64,-38.1916 1252.88,-26.222 1350.17,-20.018"/>
<polygon fill="midnightblue" stroke="midnightblue" points="898.399,-60.3191 889.147,-65.4821 899.599,-67.2155 898.399,-60.3191"/>
</g>
<!-- Node10 -->
<g id="node10" class="node"><title>Node10</title>
<g id="a_node10"><a xlink:href="../../d9/d49/classback_end_1_1_controller.html#a3b0bbf0a084bb4fb63d118f66e7327b1" target="_top" xlink:title="backEnd.Controller.move10">
<polygon fill="white" stroke="black" points="950,-65.5 950,-84.5 1098,-84.5 1098,-65.5 950,-65.5"/>
<text text-anchor="middle" x="1024" y="-72.5" font-family="Helvetica,sans-Serif" font-size="10.00">backEnd.Controller.move10</text>
</a>
</g>
</g>
<!-- Node5&#45;&gt;Node10 -->
<g id="edge9" class="edge"><title>Node5&#45;&gt;Node10</title>
<path fill="none" stroke="midnightblue" d="M924.156,-75C932.765,-75 941.454,-75 949.92,-75"/>
<polygon fill="midnightblue" stroke="midnightblue" points="924.105,-71.5001 914.105,-75 924.105,-78.5001 924.105,-71.5001"/>
</g>
<!-- Node7 -->
<g id="node7" class="node"><title>Node7</title>
<g id="a_node7"><a xlink:href="../../de/d03/classpanels_1_1_script_panel.html#ac959f1785cff7409d857d3bea9b8ee63" target="_top" xlink:title="panels.ScriptPanel.Script\lPanel">
<polygon fill="white" stroke="black" points="1156.5,-139 1156.5,-169 1291.5,-169 1291.5,-139 1156.5,-139"/>
<text text-anchor="start" x="1164.5" y="-157" font-family="Helvetica,sans-Serif" font-size="10.00">panels.ScriptPanel.Script</text>
<text text-anchor="middle" x="1224" y="-146" font-family="Helvetica,sans-Serif" font-size="10.00">Panel</text>
</a>
</g>
</g>
<!-- Node6&#45;&gt;Node7 -->
<g id="edge6" class="edge"><title>Node6&#45;&gt;Node7</title>
<path fill="none" stroke="midnightblue" d="M1105.97,-145.725C1122.72,-146.909 1140.19,-148.144 1156.36,-149.288"/>
<polygon fill="midnightblue" stroke="midnightblue" points="1105.87,-142.209 1095.64,-144.995 1105.37,-149.192 1105.87,-142.209"/>
</g>
<!-- Node9 -->
<g id="node9" class="node"><title>Node9</title>
<g id="a_node9"><a xlink:href="../../da/d04/classtitle_panes_1_1_control_title_pane.html#ad9d4431a2657a30fedae46e0c9093867" target="_top" xlink:title="titlePanes.ControlTitlePane.\lControlTitlePane">
<polygon fill="white" stroke="black" points="1560,-24 1560,-54 1706,-54 1706,-24 1560,-24"/>
<text text-anchor="start" x="1568" y="-42" font-family="Helvetica,sans-Serif" font-size="10.00">titlePanes.ControlTitlePane.</text>
<text text-anchor="middle" x="1633" y="-31" font-family="Helvetica,sans-Serif" font-size="10.00">ControlTitlePane</text>
</a>
</g>
</g>
<!-- Node8&#45;&gt;Node9 -->
<g id="edge8" class="edge"><title>Node8&#45;&gt;Node9</title>
<path fill="none" stroke="midnightblue" d="M1533.6,-26.8271C1542.43,-27.9193 1551.28,-29.0135 1559.84,-30.0734"/>
<polygon fill="midnightblue" stroke="midnightblue" points="1534.01,-23.3509 1523.66,-25.5966 1533.15,-30.298 1534.01,-23.3509"/>
</g>
<!-- Node11 -->
<g id="node11" class="node"><title>Node11</title>
<g id="a_node11"><a xlink:href="../../d9/d49/classback_end_1_1_controller.html#a7893477f39915a5169eb8da0dff60628" target="_top" xlink:title="backEnd.Controller.build\lKeyListener">
<polygon fill="white" stroke="black" points="1158.5,-90 1158.5,-120 1289.5,-120 1289.5,-90 1158.5,-90"/>
<text text-anchor="start" x="1166.5" y="-108" font-family="Helvetica,sans-Serif" font-size="10.00">backEnd.Controller.build</text>
<text text-anchor="middle" x="1224" y="-97" font-family="Helvetica,sans-Serif" font-size="10.00">KeyListener</text>
</a>
</g>
</g>
<!-- Node10&#45;&gt;Node11 -->
<g id="edge10" class="edge"><title>Node10&#45;&gt;Node11</title>
<path fill="none" stroke="midnightblue" d="M1098.08,-86.0721C1117.79,-89.0587 1138.97,-92.2687 1158.2,-95.1816"/>
<polygon fill="midnightblue" stroke="midnightblue" points="1098.33,-82.571 1087.92,-84.5334 1097.28,-89.492 1098.33,-82.571"/>
</g>
<!-- Node13 -->
<g id="node13" class="node"><title>Node13</title>
<g id="a_node13"><a xlink:href="../../da/d04/classtitle_panes_1_1_control_title_pane.html#ae994c7b4dd988b30fc824e9e893b3ccf" target="_top" xlink:title="titlePanes.ControlTitlePane.handle">
<polygon fill="white" stroke="black" points="1134.5,-51.5 1134.5,-70.5 1313.5,-70.5 1313.5,-51.5 1134.5,-51.5"/>
<text text-anchor="middle" x="1224" y="-58.5" font-family="Helvetica,sans-Serif" font-size="10.00">titlePanes.ControlTitlePane.handle</text>
</a>
</g>
</g>
<!-- Node10&#45;&gt;Node13 -->
<g id="edge12" class="edge"><title>Node10&#45;&gt;Node13</title>
<path fill="none" stroke="midnightblue" d="M1108.22,-69.1158C1116.86,-68.5047 1125.67,-67.882 1134.37,-67.2668"/>
<polygon fill="midnightblue" stroke="midnightblue" points="1107.89,-65.63 1098.17,-69.8267 1108.39,-72.6126 1107.89,-65.63"/>
</g>
<!-- Node12 -->
<g id="node12" class="node"><title>Node12</title>
<g id="a_node12"><a xlink:href="../../d9/d49/classback_end_1_1_controller.html#a987136eaba0798749f393bac2a9a2400" target="_top" xlink:title="backEnd.Controller.Controller">
<polygon fill="white" stroke="black" points="1359.5,-98.5 1359.5,-117.5 1514.5,-117.5 1514.5,-98.5 1359.5,-98.5"/>
<text text-anchor="middle" x="1437" y="-105.5" font-family="Helvetica,sans-Serif" font-size="10.00">backEnd.Controller.Controller</text>
</a>
</g>
</g>
<!-- Node11&#45;&gt;Node12 -->
<g id="edge11" class="edge"><title>Node11&#45;&gt;Node12</title>
<path fill="none" stroke="midnightblue" d="M1299.94,-106.065C1319.15,-106.339 1339.84,-106.633 1359.15,-106.907"/>
<polygon fill="midnightblue" stroke="midnightblue" points="1299.79,-102.563 1289.74,-105.92 1299.69,-109.562 1299.79,-102.563"/>
</g>
<!-- Node13&#45;&gt;Node8 -->
<g id="edge15" class="edge"><title>Node13&#45;&gt;Node8</title>
<path fill="none" stroke="midnightblue" d="M1278.69,-49.2945C1305.53,-43.4436 1338.32,-36.2957 1367,-30.0427"/>
<polygon fill="midnightblue" stroke="midnightblue" points="1277.74,-45.919 1268.72,-51.4688 1279.24,-52.7583 1277.74,-45.919"/>
</g>
<!-- Node14 -->
<g id="node14" class="node"><title>Node14</title>
<g id="a_node14"><a xlink:href="../../da/d04/classtitle_panes_1_1_control_title_pane.html#a974c75cbdf64007af637c8b19a26b215" target="_top" xlink:title="titlePanes.ControlTitlePane.make\lButtons">
<polygon fill="white" stroke="black" points="1350.5,-49 1350.5,-79 1523.5,-79 1523.5,-49 1350.5,-49"/>
<text text-anchor="start" x="1358.5" y="-67" font-family="Helvetica,sans-Serif" font-size="10.00">titlePanes.ControlTitlePane.make</text>
<text text-anchor="middle" x="1437" y="-56" font-family="Helvetica,sans-Serif" font-size="10.00">Buttons</text>
</a>
</g>
</g>
<!-- Node13&#45;&gt;Node14 -->
<g id="edge13" class="edge"><title>Node13&#45;&gt;Node14</title>
<path fill="none" stroke="midnightblue" d="M1323.61,-62.4021C1332.55,-62.5291 1341.55,-62.6571 1350.36,-62.7824"/>
<polygon fill="midnightblue" stroke="midnightblue" points="1323.61,-58.9018 1313.57,-62.2592 1323.52,-65.9011 1323.61,-58.9018"/>
</g>
<!-- Node14&#45;&gt;Node9 -->
<g id="edge14" class="edge"><title>Node14&#45;&gt;Node9</title>
<path fill="none" stroke="midnightblue" d="M1533.6,-51.6801C1542.43,-50.5423 1551.28,-49.4026 1559.84,-48.2985"/>
<polygon fill="midnightblue" stroke="midnightblue" points="1533.13,-48.2124 1523.66,-52.9619 1534.02,-55.155 1533.13,-48.2124"/>
</g>
</g>
</svg>
        <g id="navigator" transform="translate(0 0)" fill="#404254">
                <rect fill="#f2f5e9" fill-opacity="0.5" stroke="#606060" stroke-width=".5" x="0" y="0" width="60" height="60"/>
                <use id="zoomplus" xlink:href="#zoomPlus" x="17" y="9" onmousedown="handleZoom(evt,'in')"/>
                <use id="zoomminus" xlink:href="#zoomMin" x="42" y="9" onmousedown="handleZoom(evt,'out')"/>
                <use id="reset" xlink:href="#resetDef" x="30" y="36" onmousedown="handleReset()"/>
                <g id="arrowUp" xlink:href="#dirArrow" transform="translate(30 24)" onmousedown="handlePan(0,-1)">
                  <use xlink:href="#rim" fill="#404040">
                        <set attributeName="fill" to="#808080" begin="arrowUp.mouseover" end="arrowUp.mouseout"/>
                  </use>
                  <path fill="none" stroke="white" stroke-width="1.5" d="M0,-3.0v7 M-2.5,-0.5L0,-3.0L2.5,-0.5"/>
                </g>
                <g id="arrowRight" xlink:href="#dirArrow" transform="rotate(90) translate(36 -43)" onmousedown="handlePan(1,0)">
                  <use xlink:href="#rim" fill="#404040">
                        <set attributeName="fill" to="#808080" begin="arrowRight.mouseover" end="arrowRight.mouseout"/>
                  </use>
                  <path fill="none" stroke="white" stroke-width="1.5" d="M0,-3.0v7 M-2.5,-0.5L0,-3.0L2.5,-0.5"/>
                </g>
                <g id="arrowDown" xlink:href="#dirArrow" transform="rotate(180) translate(-30 -48)" onmousedown="handlePan(0,1)">
                  <use xlink:href="#rim" fill="#404040">
                        <set attributeName="fill" to="#808080" begin="arrowDown.mouseover" end="arrowDown.mouseout"/>
                  </use>
                  <path fill="none" stroke="white" stroke-width="1.5" d="M0,-3.0v7 M-2.5,-0.5L0,-3.0L2.5,-0.5"/>
                </g>
                <g id="arrowLeft" xlink:href="#dirArrow" transform="rotate(270) translate(-36 17)" onmousedown="handlePan(-1,0)">
                  <use xlink:href="#rim" fill="#404040">
                        <set attributeName="fill" to="#808080" begin="arrowLeft.mouseover" end="arrowLeft.mouseout"/>
                  </use>
                  <path fill="none" stroke="white" stroke-width="1.5" d="M0,-3.0v7 M-2.5,-0.5L0,-3.0L2.5,-0.5"/>
                </g>
        </g>
        <svg viewBox="0 0 15 15" width="100%" height="30px" preserveAspectRatio="xMaxYMin meet">
         <g id="arrow_out" transform="scale(0.3 0.3)">
          <a xlink:href="classcommands_1_1templates_1_1_command_a0ca025dffda489d73ba4b6c12c7118fe_icgraph_org.svg" target="_base">
           <rect id="button" ry="5" rx="5" y="6" x="6" height="38" width="38"
                fill="#f2f5e9" fill-opacity="0.5" stroke="#606060" stroke-width="1.0"/>
           <path id="arrow"
             d="M 11.500037,31.436501 C 11.940474,20.09759 22.043105,11.32322 32.158766,21.979434 L 37.068811,17.246167 C 37.068811,17.246167 37.088388,32 37.088388,32 L 22.160133,31.978069 C 22.160133,31.978069 26.997745,27.140456 26.997745,27.140456 C 18.528582,18.264221 13.291696,25.230495 11.500037,31.436501 z"
             style="fill:#404040;"/>
          </a>
         </g>
        </svg>
</svg>
