<?xml version="1.0" encoding="UTF-8" standalone="no"?>
<!DOCTYPE svg PUBLIC "-//W3C//DTD SVG 1.1//EN"
 "http://www.w3.org/Graphics/SVG/1.1/DTD/svg11.dtd">
<!-- Generated by graphviz version 2.36.0 (20140111.2315)
 -->
<!-- Title: commands.templates.Command.execute Pages: 1 -->
<svg width="682pt" height="156pt"
 viewBox="0.00 0.00 682.00 155.57" xmlns="http://www.w3.org/2000/svg" xmlns:xlink="http://www.w3.org/1999/xlink">
<g id="graph0" class="graph" transform="scale(1 1) rotate(0) translate(4 151.565)">
<title>commands.templates.Command.execute</title>
<polygon fill="white" stroke="none" points="-4,4 -4,-151.565 678,-151.565 678,4 -4,4"/>
<!-- Node1 -->
<g id="node1" class="node"><title>Node1</title>
<polygon fill="#bfbfbf" stroke="black" points="0.5,-78.5 0.5,-97.5 217.5,-97.5 217.5,-78.5 0.5,-78.5"/>
<text text-anchor="middle" x="109" y="-85.5" font-family="Helvetica,sans-Serif" font-size="10.00">commands.templates.Command.execute</text>
</g>
<!-- Node2 -->
<g id="node2" class="node"><title>Node2</title>
<g id="a_node2"><a xlink:href="../../d0/d5e/classcommands_1_1turtle__commands_1_1_ask_with_command.html#aed74c73cf16407cb097ecbcbd0110ecb" target="_top" xlink:title="commands.turtle_commands.\lAskWithCommand.execute">
<polygon fill="white" stroke="black" points="512.5,-95 512.5,-125 673.5,-125 673.5,-95 512.5,-95"/>
<text text-anchor="start" x="520.5" y="-113" font-family="Helvetica,sans-Serif" font-size="10.00">commands.turtle_commands.</text>
<text text-anchor="middle" x="593" y="-102" font-family="Helvetica,sans-Serif" font-size="10.00">AskWithCommand.execute</text>
</a>
</g>
</g>
<!-- Node1&#45;&gt;Node2 -->
<g id="edge1" class="edge"><title>Node1&#45;&gt;Node2</title>
<path fill="none" stroke="midnightblue" d="M140.341,-101.592C168.976,-113.625 213.448,-130.29 254,-137 351.343,-153.108 377.978,-148.257 476,-137 496.85,-134.605 519.402,-129.865 539.029,-125.016"/>
<polygon fill="midnightblue" stroke="midnightblue" points="141.475,-98.2705 130.905,-97.5525 138.72,-104.706 141.475,-98.2705"/>
</g>
<!-- Node3 -->
<g id="node3" class="node"><title>Node3</title>
<g id="a_node3"><a xlink:href="../../d1/d00/classcommands_1_1turtle__commands_1_1_tell_command.html#a5b187b4609637fee3e88d2a51681db1a" target="_top" xlink:title="commands.turtle_commands.\lTellCommand.execute">
<polygon fill="white" stroke="black" points="284.5,-98 284.5,-128 445.5,-128 445.5,-98 284.5,-98"/>
<text text-anchor="start" x="292.5" y="-116" font-family="Helvetica,sans-Serif" font-size="10.00">commands.turtle_commands.</text>
<text text-anchor="middle" x="365" y="-105" font-family="Helvetica,sans-Serif" font-size="10.00">TellCommand.execute</text>
</a>
</g>
</g>
<!-- Node1&#45;&gt;Node3 -->
<g id="edge2" class="edge"><title>Node1&#45;&gt;Node3</title>
<path fill="none" stroke="midnightblue" d="M216.75,-98.5069C239.426,-100.739 262.986,-103.058 284.437,-105.169"/>
<polygon fill="midnightblue" stroke="midnightblue" points="217.046,-95.0192 206.751,-97.5227 216.36,-101.986 217.046,-95.0192"/>
</g>
<!-- Node4 -->
<g id="node4" class="node"><title>Node4</title>
<g id="a_node4"><a xlink:href="../../d0/d5e/classcommands_1_1turtle__commands_1_1_ask_with_command.html#a9d7784db4421d7b4b7fcf19d8c70f415" target="_top" xlink:title="commands.turtle_commands.\lAskWithCommand.executeTurtleCommand">
<polygon fill="white" stroke="black" points="254.5,-49 254.5,-79 475.5,-79 475.5,-49 254.5,-49"/>
<text text-anchor="start" x="262.5" y="-67" font-family="Helvetica,sans-Serif" font-size="10.00">commands.turtle_commands.</text>
<text text-anchor="middle" x="365" y="-56" font-family="Helvetica,sans-Serif" font-size="10.00">AskWithCommand.executeTurtleCommand</text>
</a>
</g>
</g>
<!-- Node1&#45;&gt;Node4 -->
<g id="edge3" class="edge"><title>Node1&#45;&gt;Node4</title>
<path fill="none" stroke="midnightblue" d="M220.85,-77.526C231.906,-76.4813 243.128,-75.421 254.174,-74.3773"/>
<polygon fill="midnightblue" stroke="midnightblue" points="220.379,-74.0548 210.752,-78.4801 221.037,-81.0238 220.379,-74.0548"/>
</g>
<!-- Node5 -->
<g id="node5" class="node"><title>Node5</title>
<g id="a_node5"><a xlink:href="../../da/d20/classcommands_1_1turtle__commands_1_1_ask_command.html#aad8e3c73b091789febe536557fc8bd7d" target="_top" xlink:title="commands.turtle_commands.\lAskCommand.executeTurtleCommand">
<polygon fill="white" stroke="black" points="264.5,-0 264.5,-30 465.5,-30 465.5,-0 264.5,-0"/>
<text text-anchor="start" x="272.5" y="-18" font-family="Helvetica,sans-Serif" font-size="10.00">commands.turtle_commands.</text>
<text text-anchor="middle" x="365" y="-7" font-family="Helvetica,sans-Serif" font-size="10.00">AskCommand.executeTurtleCommand</text>
</a>
</g>
</g>
<!-- Node1&#45;&gt;Node5 -->
<g id="edge5" class="edge"><title>Node1&#45;&gt;Node5</title>
<path fill="none" stroke="midnightblue" d="M144.87,-74.8951C173.82,-64.3157 216.222,-49.5124 254,-39 265.393,-35.8298 277.544,-32.8175 289.46,-30.0657"/>
<polygon fill="midnightblue" stroke="midnightblue" points="143.396,-71.7081 135.22,-78.4471 145.814,-78.2772 143.396,-71.7081"/>
</g>
<!-- Node4&#45;&gt;Node2 -->
<g id="edge4" class="edge"><title>Node4&#45;&gt;Node2</title>
<path fill="none" stroke="midnightblue" d="M449.842,-81.0652C472.281,-85.6325 496.367,-90.5349 518.219,-94.9826"/>
<polygon fill="midnightblue" stroke="midnightblue" points="450.498,-77.627 440.001,-79.0621 449.102,-84.4864 450.498,-77.627"/>
</g>
<!-- Node6 -->
<g id="node6" class="node"><title>Node6</title>
<g id="a_node6"><a xlink:href="../../da/d20/classcommands_1_1turtle__commands_1_1_ask_command.html#a9f668e7b2778cf4241b59b11db58e211" target="_top" xlink:title="commands.turtle_commands.\lAskCommand.execute">
<polygon fill="white" stroke="black" points="512.5,-0 512.5,-30 673.5,-30 673.5,-0 512.5,-0"/>
<text text-anchor="start" x="520.5" y="-18" font-family="Helvetica,sans-Serif" font-size="10.00">commands.turtle_commands.</text>
<text text-anchor="middle" x="593" y="-7" font-family="Helvetica,sans-Serif" font-size="10.00">AskCommand.execute</text>
</a>
</g>
</g>
<!-- Node5&#45;&gt;Node6 -->
<g id="edge6" class="edge"><title>Node5&#45;&gt;Node6</title>
<path fill="none" stroke="midnightblue" d="M476.064,-15C488.33,-15 500.641,-15 512.42,-15"/>
<polygon fill="midnightblue" stroke="midnightblue" points="475.785,-11.5001 465.785,-15 475.785,-18.5001 475.785,-11.5001"/>
</g>
</g>
</svg>
