<?xml version="1.0" encoding="UTF-8" standalone="no"?>
<!DOCTYPE svg PUBLIC "-//W3C//DTD SVG 1.1//EN"
 "http://www.w3.org/Graphics/SVG/1.1/DTD/svg11.dtd">
<!-- Generated by graphviz version 2.36.0 (20140111.2315)
 -->
<!-- Title: commands.templates.Command.addChild Pages: 1 -->
<svg width="1752pt" height="178pt"
 viewBox="0.00 0.00 1752.00 178.00" xmlns="http://www.w3.org/2000/svg" xmlns:xlink="http://www.w3.org/1999/xlink">
<g id="graph0" class="graph" transform="scale(1 1) rotate(0) translate(4 174)">
<title>commands.templates.Command.addChild</title>
<polygon fill="white" stroke="none" points="-4,4 -4,-174 1748,-174 1748,4 -4,4"/>
<!-- Node1 -->
<g id="node1" class="node"><title>Node1</title>
<polygon fill="#bfbfbf" stroke="black" points="0.5,-61 0.5,-91 197.5,-91 197.5,-61 0.5,-61"/>
<text text-anchor="start" x="8.5" y="-79" font-family="Helvetica,sans-Serif" font-size="10.00">commands.templates.Command.add</text>
<text text-anchor="middle" x="99" y="-68" font-family="Helvetica,sans-Serif" font-size="10.00">Child</text>
</g>
<!-- Node2 -->
<g id="node2" class="node"><title>Node2</title>
<g id="a_node2"><a xlink:href="../../d4/d35/classcommands_1_1variable__commands_1_1_user_defined_command.html#a4e7e699bc6b996e652d21c012c2106aa" target="_top" xlink:title="commands.variable_commands.\lUserDefinedCommand.execute">
<polygon fill="white" stroke="black" points="234.5,-105 234.5,-135 407.5,-135 407.5,-105 234.5,-105"/>
<text text-anchor="start" x="242.5" y="-123" font-family="Helvetica,sans-Serif" font-size="10.00">commands.variable_commands.</text>
<text text-anchor="middle" x="321" y="-112" font-family="Helvetica,sans-Serif" font-size="10.00">UserDefinedCommand.execute</text>
</a>
</g>
</g>
<!-- Node1&#45;&gt;Node2 -->
<g id="edge1" class="edge"><title>Node1&#45;&gt;Node2</title>
<path fill="none" stroke="midnightblue" d="M184.989,-92.9977C204.724,-96.9448 225.593,-101.119 244.869,-104.974"/>
<polygon fill="midnightblue" stroke="midnightblue" points="185.588,-89.5484 175.096,-91.0192 184.216,-96.4125 185.588,-89.5484"/>
</g>
<!-- Node3 -->
<g id="node3" class="node"><title>Node3</title>
<g id="a_node3"><a xlink:href="../../d9/d1e/classback_end_1_1_parser.html#a653298ad53a1eea540beded2bb558ab4" target="_top" xlink:title="backEnd.Parser.makeTree">
<polygon fill="white" stroke="black" points="251.5,-66.5 251.5,-85.5 390.5,-85.5 390.5,-66.5 251.5,-66.5"/>
<text text-anchor="middle" x="321" y="-73.5" font-family="Helvetica,sans-Serif" font-size="10.00">backEnd.Parser.makeTree</text>
</a>
</g>
</g>
<!-- Node1&#45;&gt;Node3 -->
<g id="edge2" class="edge"><title>Node1&#45;&gt;Node3</title>
<path fill="none" stroke="midnightblue" d="M207.945,-76C222.663,-76 237.429,-76 251.191,-76"/>
<polygon fill="midnightblue" stroke="midnightblue" points="207.776,-72.5001 197.776,-76 207.776,-79.5001 207.776,-72.5001"/>
</g>
<!-- Node16 -->
<g id="node16" class="node"><title>Node16</title>
<g id="a_node16"><a xlink:href="../../d0/d53/classcommands_1_1variable__commands_1_1_to_command.html#a68c53030884ee5b0a5e916a8e6117d8b" target="_top" xlink:title="commands.variable_commands.\lToCommand.ToCommand">
<polygon fill="white" stroke="black" points="234.5,-17 234.5,-47 407.5,-47 407.5,-17 234.5,-17"/>
<text text-anchor="start" x="242.5" y="-35" font-family="Helvetica,sans-Serif" font-size="10.00">commands.variable_commands.</text>
<text text-anchor="middle" x="321" y="-24" font-family="Helvetica,sans-Serif" font-size="10.00">ToCommand.ToCommand</text>
</a>
</g>
</g>
<!-- Node1&#45;&gt;Node16 -->
<g id="edge17" class="edge"><title>Node1&#45;&gt;Node16</title>
<path fill="none" stroke="midnightblue" d="M184.989,-59.0023C204.724,-55.0552 225.593,-50.8814 244.869,-47.0262"/>
<polygon fill="midnightblue" stroke="midnightblue" points="184.216,-55.5875 175.096,-60.9808 185.588,-62.4516 184.216,-55.5875"/>
</g>
<!-- Node4 -->
<g id="node4" class="node"><title>Node4</title>
<g id="a_node4"><a xlink:href="../../d9/d1e/classback_end_1_1_parser.html#a163b8afd814babc8e7df59993f0d6440" target="_top" xlink:title="backEnd.Parser.parseScript">
<polygon fill="white" stroke="black" points="444.5,-66.5 444.5,-85.5 591.5,-85.5 591.5,-66.5 444.5,-66.5"/>
<text text-anchor="middle" x="518" y="-73.5" font-family="Helvetica,sans-Serif" font-size="10.00">backEnd.Parser.parseScript</text>
</a>
</g>
</g>
<!-- Node3&#45;&gt;Node4 -->
<g id="edge3" class="edge"><title>Node3&#45;&gt;Node4</title>
<path fill="none" stroke="midnightblue" d="M401.035,-76C415.318,-76 430.15,-76 444.244,-76"/>
<polygon fill="midnightblue" stroke="midnightblue" points="400.75,-72.5001 390.75,-76 400.75,-79.5001 400.75,-72.5001"/>
</g>
<!-- Node5 -->
<g id="node5" class="node"><title>Node5</title>
<g id="a_node5"><a xlink:href="../../d9/d98/classback_end_1_1_model.html#ade764fd1c85a48fabb9abf3dfe8b8ceb" target="_top" xlink:title="backEnd.Model.runScript">
<polygon fill="white" stroke="black" points="628.5,-66.5 628.5,-85.5 763.5,-85.5 763.5,-66.5 628.5,-66.5"/>
<text text-anchor="middle" x="696" y="-73.5" font-family="Helvetica,sans-Serif" font-size="10.00">backEnd.Model.runScript</text>
</a>
</g>
</g>
<!-- Node4&#45;&gt;Node5 -->
<g id="edge4" class="edge"><title>Node4&#45;&gt;Node5</title>
<path fill="none" stroke="midnightblue" d="M601.694,-76C610.678,-76 619.736,-76 628.491,-76"/>
<polygon fill="midnightblue" stroke="midnightblue" points="601.602,-72.5001 591.602,-76 601.602,-79.5001 601.602,-72.5001"/>
</g>
<!-- Node6 -->
<g id="node6" class="node"><title>Node6</title>
<g id="a_node6"><a xlink:href="../../d9/d49/classback_end_1_1_controller.html#ad650f48d236eaf11c2d8591b04831900" target="_top" xlink:title="backEnd.Controller.runScript">
<polygon fill="white" stroke="black" points="800,-66.5 800,-85.5 952,-85.5 952,-66.5 800,-66.5"/>
<text text-anchor="middle" x="876" y="-73.5" font-family="Helvetica,sans-Serif" font-size="10.00">backEnd.Controller.runScript</text>
</a>
</g>
</g>
<!-- Node5&#45;&gt;Node6 -->
<g id="edge5" class="edge"><title>Node5&#45;&gt;Node6</title>
<path fill="none" stroke="midnightblue" d="M773.646,-76C782.341,-76 791.196,-76 799.871,-76"/>
<polygon fill="midnightblue" stroke="midnightblue" points="773.534,-72.5001 763.534,-76 773.534,-79.5001 773.534,-72.5001"/>
</g>
<!-- Node7 -->
<g id="node7" class="node"><title>Node7</title>
<g id="a_node7"><a xlink:href="../../de/d03/classpanels_1_1_script_panel.html#ae6ae56472ef1a975597bad69844662c6" target="_top" xlink:title="panels.ScriptPanel.handler">
<polygon fill="white" stroke="black" points="990.5,-131.5 990.5,-150.5 1133.5,-150.5 1133.5,-131.5 990.5,-131.5"/>
<text text-anchor="middle" x="1062" y="-138.5" font-family="Helvetica,sans-Serif" font-size="10.00">panels.ScriptPanel.handler</text>
</a>
</g>
</g>
<!-- Node6&#45;&gt;Node7 -->
<g id="edge6" class="edge"><title>Node6&#45;&gt;Node7</title>
<path fill="none" stroke="midnightblue" d="M913.673,-88.9552C949.198,-101.505 1002.23,-120.24 1034.04,-131.476"/>
<polygon fill="midnightblue" stroke="midnightblue" points="914.745,-85.6218 904.15,-85.591 912.413,-92.2221 914.745,-85.6218"/>
</g>
<!-- Node9 -->
<g id="node9" class="node"><title>Node9</title>
<g id="a_node9"><a xlink:href="../../da/d04/classtitle_panes_1_1_control_title_pane.html#af28eba60fefe51c70e763d51d9123ea3" target="_top" xlink:title="titlePanes.ControlTitlePane.make\lLocationFields">
<polygon fill="white" stroke="black" points="1388.5,-1 1388.5,-31 1561.5,-31 1561.5,-1 1388.5,-1"/>
<text text-anchor="start" x="1396.5" y="-19" font-family="Helvetica,sans-Serif" font-size="10.00">titlePanes.ControlTitlePane.make</text>
<text text-anchor="middle" x="1475" y="-8" font-family="Helvetica,sans-Serif" font-size="10.00">LocationFields</text>
</a>
</g>
</g>
<!-- Node6&#45;&gt;Node9 -->
<g id="edge8" class="edge"><title>Node6&#45;&gt;Node9</title>
<path fill="none" stroke="midnightblue" d="M937.177,-64.7364C953.616,-61.9228 971.457,-59.1097 988,-57 1127.64,-39.1916 1290.88,-27.222 1388.17,-21.018"/>
<polygon fill="midnightblue" stroke="midnightblue" points="936.399,-61.3191 927.147,-66.4821 937.599,-68.2155 936.399,-61.3191"/>
</g>
<!-- Node11 -->
<g id="node11" class="node"><title>Node11</title>
<g id="a_node11"><a xlink:href="../../d9/d49/classback_end_1_1_controller.html#a3b0bbf0a084bb4fb63d118f66e7327b1" target="_top" xlink:title="backEnd.Controller.move10">
<polygon fill="white" stroke="black" points="988,-66.5 988,-85.5 1136,-85.5 1136,-66.5 988,-66.5"/>
<text text-anchor="middle" x="1062" y="-73.5" font-family="Helvetica,sans-Serif" font-size="10.00">backEnd.Controller.move10</text>
</a>
</g>
</g>
<!-- Node6&#45;&gt;Node11 -->
<g id="edge10" class="edge"><title>Node6&#45;&gt;Node11</title>
<path fill="none" stroke="midnightblue" d="M962.156,-76C970.765,-76 979.454,-76 987.92,-76"/>
<polygon fill="midnightblue" stroke="midnightblue" points="962.105,-72.5001 952.105,-76 962.105,-79.5001 962.105,-72.5001"/>
</g>
<!-- Node8 -->
<g id="node8" class="node"><title>Node8</title>
<g id="a_node8"><a xlink:href="../../de/d03/classpanels_1_1_script_panel.html#ac959f1785cff7409d857d3bea9b8ee63" target="_top" xlink:title="panels.ScriptPanel.Script\lPanel">
<polygon fill="white" stroke="black" points="1194.5,-140 1194.5,-170 1329.5,-170 1329.5,-140 1194.5,-140"/>
<text text-anchor="start" x="1202.5" y="-158" font-family="Helvetica,sans-Serif" font-size="10.00">panels.ScriptPanel.Script</text>
<text text-anchor="middle" x="1262" y="-147" font-family="Helvetica,sans-Serif" font-size="10.00">Panel</text>
</a>
</g>
</g>
<!-- Node7&#45;&gt;Node8 -->
<g id="edge7" class="edge"><title>Node7&#45;&gt;Node8</title>
<path fill="none" stroke="midnightblue" d="M1143.97,-146.725C1160.72,-147.909 1178.19,-149.144 1194.36,-150.288"/>
<polygon fill="midnightblue" stroke="midnightblue" points="1143.87,-143.209 1133.64,-145.995 1143.37,-150.192 1143.87,-143.209"/>
</g>
<!-- Node10 -->
<g id="node10" class="node"><title>Node10</title>
<g id="a_node10"><a xlink:href="../../da/d04/classtitle_panes_1_1_control_title_pane.html#ad9d4431a2657a30fedae46e0c9093867" target="_top" xlink:title="titlePanes.ControlTitlePane.\lControlTitlePane">
<polygon fill="white" stroke="black" points="1598,-25 1598,-55 1744,-55 1744,-25 1598,-25"/>
<text text-anchor="start" x="1606" y="-43" font-family="Helvetica,sans-Serif" font-size="10.00">titlePanes.ControlTitlePane.</text>
<text text-anchor="middle" x="1671" y="-32" font-family="Helvetica,sans-Serif" font-size="10.00">ControlTitlePane</text>
</a>
</g>
</g>
<!-- Node9&#45;&gt;Node10 -->
<g id="edge9" class="edge"><title>Node9&#45;&gt;Node10</title>
<path fill="none" stroke="midnightblue" d="M1571.6,-27.8271C1580.43,-28.9193 1589.28,-30.0135 1597.84,-31.0734"/>
<polygon fill="midnightblue" stroke="midnightblue" points="1572.01,-24.3509 1561.66,-26.5966 1571.15,-31.298 1572.01,-24.3509"/>
</g>
<!-- Node12 -->
<g id="node12" class="node"><title>Node12</title>
<g id="a_node12"><a xlink:href="../../d9/d49/classback_end_1_1_controller.html#a7893477f39915a5169eb8da0dff60628" target="_top" xlink:title="backEnd.Controller.build\lKeyListener">
<polygon fill="white" stroke="black" points="1196.5,-91 1196.5,-121 1327.5,-121 1327.5,-91 1196.5,-91"/>
<text text-anchor="start" x="1204.5" y="-109" font-family="Helvetica,sans-Serif" font-size="10.00">backEnd.Controller.build</text>
<text text-anchor="middle" x="1262" y="-98" font-family="Helvetica,sans-Serif" font-size="10.00">KeyListener</text>
</a>
</g>
</g>
<!-- Node11&#45;&gt;Node12 -->
<g id="edge11" class="edge"><title>Node11&#45;&gt;Node12</title>
<path fill="none" stroke="midnightblue" d="M1136.08,-87.0721C1155.79,-90.0587 1176.97,-93.2687 1196.2,-96.1816"/>
<polygon fill="midnightblue" stroke="midnightblue" points="1136.33,-83.571 1125.92,-85.5334 1135.28,-90.492 1136.33,-83.571"/>
</g>
<!-- Node14 -->
<g id="node14" class="node"><title>Node14</title>
<g id="a_node14"><a xlink:href="../../da/d04/classtitle_panes_1_1_control_title_pane.html#ae994c7b4dd988b30fc824e9e893b3ccf" target="_top" xlink:title="titlePanes.ControlTitlePane.handle">
<polygon fill="white" stroke="black" points="1172.5,-52.5 1172.5,-71.5 1351.5,-71.5 1351.5,-52.5 1172.5,-52.5"/>
<text text-anchor="middle" x="1262" y="-59.5" font-family="Helvetica,sans-Serif" font-size="10.00">titlePanes.ControlTitlePane.handle</text>
</a>
</g>
</g>
<!-- Node11&#45;&gt;Node14 -->
<g id="edge13" class="edge"><title>Node11&#45;&gt;Node14</title>
<path fill="none" stroke="midnightblue" d="M1146.22,-70.1158C1154.86,-69.5047 1163.67,-68.882 1172.37,-68.2668"/>
<polygon fill="midnightblue" stroke="midnightblue" points="1145.89,-66.63 1136.17,-70.8267 1146.39,-73.6126 1145.89,-66.63"/>
</g>
<!-- Node13 -->
<g id="node13" class="node"><title>Node13</title>
<g id="a_node13"><a xlink:href="../../d9/d49/classback_end_1_1_controller.html#a987136eaba0798749f393bac2a9a2400" target="_top" xlink:title="backEnd.Controller.Controller">
<polygon fill="white" stroke="black" points="1397.5,-99.5 1397.5,-118.5 1552.5,-118.5 1552.5,-99.5 1397.5,-99.5"/>
<text text-anchor="middle" x="1475" y="-106.5" font-family="Helvetica,sans-Serif" font-size="10.00">backEnd.Controller.Controller</text>
</a>
</g>
</g>
<!-- Node12&#45;&gt;Node13 -->
<g id="edge12" class="edge"><title>Node12&#45;&gt;Node13</title>
<path fill="none" stroke="midnightblue" d="M1337.94,-107.065C1357.15,-107.339 1377.84,-107.633 1397.15,-107.907"/>
<polygon fill="midnightblue" stroke="midnightblue" points="1337.79,-103.563 1327.74,-106.92 1337.69,-110.562 1337.79,-103.563"/>
</g>
<!-- Node14&#45;&gt;Node9 -->
<g id="edge16" class="edge"><title>Node14&#45;&gt;Node9</title>
<path fill="none" stroke="midnightblue" d="M1316.69,-50.2945C1343.53,-44.4436 1376.32,-37.2957 1405,-31.0427"/>
<polygon fill="midnightblue" stroke="midnightblue" points="1315.74,-46.919 1306.72,-52.4688 1317.24,-53.7583 1315.74,-46.919"/>
</g>
<!-- Node15 -->
<g id="node15" class="node"><title>Node15</title>
<g id="a_node15"><a xlink:href="../../da/d04/classtitle_panes_1_1_control_title_pane.html#a974c75cbdf64007af637c8b19a26b215" target="_top" xlink:title="titlePanes.ControlTitlePane.make\lButtons">
<polygon fill="white" stroke="black" points="1388.5,-50 1388.5,-80 1561.5,-80 1561.5,-50 1388.5,-50"/>
<text text-anchor="start" x="1396.5" y="-68" font-family="Helvetica,sans-Serif" font-size="10.00">titlePanes.ControlTitlePane.make</text>
<text text-anchor="middle" x="1475" y="-57" font-family="Helvetica,sans-Serif" font-size="10.00">Buttons</text>
</a>
</g>
</g>
<!-- Node14&#45;&gt;Node15 -->
<g id="edge14" class="edge"><title>Node14&#45;&gt;Node15</title>
<path fill="none" stroke="midnightblue" d="M1361.61,-63.4021C1370.55,-63.5291 1379.55,-63.6571 1388.36,-63.7824"/>
<polygon fill="midnightblue" stroke="midnightblue" points="1361.61,-59.9018 1351.57,-63.2592 1361.52,-66.9011 1361.61,-59.9018"/>
</g>
<!-- Node15&#45;&gt;Node10 -->
<g id="edge15" class="edge"><title>Node15&#45;&gt;Node10</title>
<path fill="none" stroke="midnightblue" d="M1571.6,-52.6801C1580.43,-51.5423 1589.28,-50.4026 1597.84,-49.2985"/>
<polygon fill="midnightblue" stroke="midnightblue" points="1571.13,-49.2124 1561.66,-53.9619 1572.02,-56.155 1571.13,-49.2124"/>
</g>
</g>
</svg>
