<?xml version="1.0" encoding="UTF-8" standalone="no"?>
<!DOCTYPE svg PUBLIC "-//W3C//DTD SVG 1.1//EN"
 "http://www.w3.org/Graphics/SVG/1.1/DTD/svg11.dtd">
<!-- Generated by graphviz version 2.36.0 (20140111.2315)
 -->
<!-- Title: commands.templates.Command.execute Pages: 1 -->
<!--zoomable 156 -->
<svg id="main" version="1.1" xmlns="http://www.w3.org/2000/svg" xmlns:xlink="http://www.w3.org/1999/xlink" xml:space="preserve" onload="init(evt)">
<style type="text/css"><![CDATA[
.edge:hover path { stroke: red; }
.edge:hover polygon { stroke: red; fill: red; }
]]></style>
<script type="text/javascript"><![CDATA[
var edges = document.getElementsByTagName('g');
if (edges && edges.length) {
  for (var i=0;i<edges.length;i++) {
    if (edges[i].id.substr(0,4)=='edge') {
      edges[i].setAttribute('class','edge');
    }
  }
}
]]></script>
        <defs>
                <circle id="rim" cx="0" cy="0" r="7"/>
                <circle id="rim2" cx="0" cy="0" r="3.5"/>
                <g id="zoomPlus">
                        <use xlink:href="#rim" fill="#404040">
                                <set attributeName="fill" to="#808080" begin="zoomplus.mouseover" end="zoomplus.mouseout"/>
                        </use>
                        <path d="M-4,0h8M0,-4v8" fill="none" stroke="white" stroke-width="1.5" pointer-events="none"/>
                </g>
                <g id="zoomMin">
                        <use xlink:href="#rim" fill="#404040">
                                <set attributeName="fill" to="#808080" begin="zoomminus.mouseover" end="zoomminus.mouseout"/>
                        </use>
                        <path d="M-4,0h8" fill="none" stroke="white" stroke-width="1.5" pointer-events="none"/>
                </g>
                <g id="dirArrow">
                        <path fill="none" stroke="white" stroke-width="1.5" d="M0,-3.0v7 M-2.5,-0.5L0,-3.0L2.5,-0.5"/>
                </g>
               <g id="resetDef">
                       <use xlink:href="#rim2" fill="#404040">
                               <set attributeName="fill" to="#808080" begin="reset.mouseover" end="reset.mouseout"/>
                       </use>
               </g>
        </defs>

<script type="text/javascript">
var viewWidth = 682;
var viewHeight = 156;
var sectionId = 'dynsection-3';
</script>
<script xlink:href="../../svgpan.js"/>
<svg id="graph" class="graph">
<g id="viewport">
<title>commands.templates.Command.execute</title>
<polygon fill="white" stroke="none" points="-4,4 -4,-151.565 678,-151.565 678,4 -4,4"/>
<!-- Node1 -->
<g id="node1" class="node"><title>Node1</title>
<polygon fill="#bfbfbf" stroke="black" points="0.5,-78.5 0.5,-97.5 217.5,-97.5 217.5,-78.5 0.5,-78.5"/>
<text text-anchor="middle" x="109" y="-85.5" font-family="Helvetica,sans-Serif" font-size="10.00">commands.templates.Command.execute</text>
</g>
<!-- Node2 -->
<g id="node2" class="node"><title>Node2</title>
<g id="a_node2"><a xlink:href="../../d0/d5e/classcommands_1_1turtle__commands_1_1_ask_with_command.html#aed74c73cf16407cb097ecbcbd0110ecb" target="_top" xlink:title="commands.turtle_commands.\lAskWithCommand.execute">
<polygon fill="white" stroke="black" points="512.5,-95 512.5,-125 673.5,-125 673.5,-95 512.5,-95"/>
<text text-anchor="start" x="520.5" y="-113" font-family="Helvetica,sans-Serif" font-size="10.00">commands.turtle_commands.</text>
<text text-anchor="middle" x="593" y="-102" font-family="Helvetica,sans-Serif" font-size="10.00">AskWithCommand.execute</text>
</a>
</g>
</g>
<!-- Node1&#45;&gt;Node2 -->
<g id="edge1" class="edge"><title>Node1&#45;&gt;Node2</title>
<path fill="none" stroke="midnightblue" d="M140.341,-101.592C168.976,-113.625 213.448,-130.29 254,-137 351.343,-153.108 377.978,-148.257 476,-137 496.85,-134.605 519.402,-129.865 539.029,-125.016"/>
<polygon fill="midnightblue" stroke="midnightblue" points="141.475,-98.2705 130.905,-97.5525 138.72,-104.706 141.475,-98.2705"/>
</g>
<!-- Node3 -->
<g id="node3" class="node"><title>Node3</title>
<g id="a_node3"><a xlink:href="../../d1/d00/classcommands_1_1turtle__commands_1_1_tell_command.html#a5b187b4609637fee3e88d2a51681db1a" target="_top" xlink:title="commands.turtle_commands.\lTellCommand.execute">
<polygon fill="white" stroke="black" points="284.5,-98 284.5,-128 445.5,-128 445.5,-98 284.5,-98"/>
<text text-anchor="start" x="292.5" y="-116" font-family="Helvetica,sans-Serif" font-size="10.00">commands.turtle_commands.</text>
<text text-anchor="middle" x="365" y="-105" font-family="Helvetica,sans-Serif" font-size="10.00">TellCommand.execute</text>
</a>
</g>
</g>
<!-- Node1&#45;&gt;Node3 -->
<g id="edge2" class="edge"><title>Node1&#45;&gt;Node3</title>
<path fill="none" stroke="midnightblue" d="M216.75,-98.5069C239.426,-100.739 262.986,-103.058 284.437,-105.169"/>
<polygon fill="midnightblue" stroke="midnightblue" points="217.046,-95.0192 206.751,-97.5227 216.36,-101.986 217.046,-95.0192"/>
</g>
<!-- Node4 -->
<g id="node4" class="node"><title>Node4</title>
<g id="a_node4"><a xlink:href="../../d0/d5e/classcommands_1_1turtle__commands_1_1_ask_with_command.html#a9d7784db4421d7b4b7fcf19d8c70f415" target="_top" xlink:title="commands.turtle_commands.\lAskWithCommand.executeTurtleCommand">
<polygon fill="white" stroke="black" points="254.5,-49 254.5,-79 475.5,-79 475.5,-49 254.5,-49"/>
<text text-anchor="start" x="262.5" y="-67" font-family="Helvetica,sans-Serif" font-size="10.00">commands.turtle_commands.</text>
<text text-anchor="middle" x="365" y="-56" font-family="Helvetica,sans-Serif" font-size="10.00">AskWithCommand.executeTurtleCommand</text>
</a>
</g>
</g>
<!-- Node1&#45;&gt;Node4 -->
<g id="edge3" class="edge"><title>Node1&#45;&gt;Node4</title>
<path fill="none" stroke="midnightblue" d="M220.85,-77.526C231.906,-76.4813 243.128,-75.421 254.174,-74.3773"/>
<polygon fill="midnightblue" stroke="midnightblue" points="220.379,-74.0548 210.752,-78.4801 221.037,-81.0238 220.379,-74.0548"/>
</g>
<!-- Node5 -->
<g id="node5" class="node"><title>Node5</title>
<g id="a_node5"><a xlink:href="../../da/d20/classcommands_1_1turtle__commands_1_1_ask_command.html#aad8e3c73b091789febe536557fc8bd7d" target="_top" xlink:title="commands.turtle_commands.\lAskCommand.executeTurtleCommand">
<polygon fill="white" stroke="black" points="264.5,-0 264.5,-30 465.5,-30 465.5,-0 264.5,-0"/>
<text text-anchor="start" x="272.5" y="-18" font-family="Helvetica,sans-Serif" font-size="10.00">commands.turtle_commands.</text>
<text text-anchor="middle" x="365" y="-7" font-family="Helvetica,sans-Serif" font-size="10.00">AskCommand.executeTurtleCommand</text>
</a>
</g>
</g>
<!-- Node1&#45;&gt;Node5 -->
<g id="edge5" class="edge"><title>Node1&#45;&gt;Node5</title>
<path fill="none" stroke="midnightblue" d="M144.87,-74.8951C173.82,-64.3157 216.222,-49.5124 254,-39 265.393,-35.8298 277.544,-32.8175 289.46,-30.0657"/>
<polygon fill="midnightblue" stroke="midnightblue" points="143.396,-71.7081 135.22,-78.4471 145.814,-78.2772 143.396,-71.7081"/>
</g>
<!-- Node4&#45;&gt;Node2 -->
<g id="edge4" class="edge"><title>Node4&#45;&gt;Node2</title>
<path fill="none" stroke="midnightblue" d="M449.842,-81.0652C472.281,-85.6325 496.367,-90.5349 518.219,-94.9826"/>
<polygon fill="midnightblue" stroke="midnightblue" points="450.498,-77.627 440.001,-79.0621 449.102,-84.4864 450.498,-77.627"/>
</g>
<!-- Node6 -->
<g id="node6" class="node"><title>Node6</title>
<g id="a_node6"><a xlink:href="../../da/d20/classcommands_1_1turtle__commands_1_1_ask_command.html#a9f668e7b2778cf4241b59b11db58e211" target="_top" xlink:title="commands.turtle_commands.\lAskCommand.execute">
<polygon fill="white" stroke="black" points="512.5,-0 512.5,-30 673.5,-30 673.5,-0 512.5,-0"/>
<text text-anchor="start" x="520.5" y="-18" font-family="Helvetica,sans-Serif" font-size="10.00">commands.turtle_commands.</text>
<text text-anchor="middle" x="593" y="-7" font-family="Helvetica,sans-Serif" font-size="10.00">AskCommand.execute</text>
</a>
</g>
</g>
<!-- Node5&#45;&gt;Node6 -->
<g id="edge6" class="edge"><title>Node5&#45;&gt;Node6</title>
<path fill="none" stroke="midnightblue" d="M476.064,-15C488.33,-15 500.641,-15 512.42,-15"/>
<polygon fill="midnightblue" stroke="midnightblue" points="475.785,-11.5001 465.785,-15 475.785,-18.5001 475.785,-11.5001"/>
</g>
</g>
</svg>
        <g id="navigator" transform="translate(0 0)" fill="#404254">
                <rect fill="#f2f5e9" fill-opacity="0.5" stroke="#606060" stroke-width=".5" x="0" y="0" width="60" height="60"/>
                <use id="zoomplus" xlink:href="#zoomPlus" x="17" y="9" onmousedown="handleZoom(evt,'in')"/>
                <use id="zoomminus" xlink:href="#zoomMin" x="42" y="9" onmousedown="handleZoom(evt,'out')"/>
                <use id="reset" xlink:href="#resetDef" x="30" y="36" onmousedown="handleReset()"/>
                <g id="arrowUp" xlink:href="#dirArrow" transform="translate(30 24)" onmousedown="handlePan(0,-1)">
                  <use xlink:href="#rim" fill="#404040">
                        <set attributeName="fill" to="#808080" begin="arrowUp.mouseover" end="arrowUp.mouseout"/>
                  </use>
                  <path fill="none" stroke="white" stroke-width="1.5" d="M0,-3.0v7 M-2.5,-0.5L0,-3.0L2.5,-0.5"/>
                </g>
                <g id="arrowRight" xlink:href="#dirArrow" transform="rotate(90) translate(36 -43)" onmousedown="handlePan(1,0)">
                  <use xlink:href="#rim" fill="#404040">
                        <set attributeName="fill" to="#808080" begin="arrowRight.mouseover" end="arrowRight.mouseout"/>
                  </use>
                  <path fill="none" stroke="white" stroke-width="1.5" d="M0,-3.0v7 M-2.5,-0.5L0,-3.0L2.5,-0.5"/>
                </g>
                <g id="arrowDown" xlink:href="#dirArrow" transform="rotate(180) translate(-30 -48)" onmousedown="handlePan(0,1)">
                  <use xlink:href="#rim" fill="#404040">
                        <set attributeName="fill" to="#808080" begin="arrowDown.mouseover" end="arrowDown.mouseout"/>
                  </use>
                  <path fill="none" stroke="white" stroke-width="1.5" d="M0,-3.0v7 M-2.5,-0.5L0,-3.0L2.5,-0.5"/>
                </g>
                <g id="arrowLeft" xlink:href="#dirArrow" transform="rotate(270) translate(-36 17)" onmousedown="handlePan(-1,0)">
                  <use xlink:href="#rim" fill="#404040">
                        <set attributeName="fill" to="#808080" begin="arrowLeft.mouseover" end="arrowLeft.mouseout"/>
                  </use>
                  <path fill="none" stroke="white" stroke-width="1.5" d="M0,-3.0v7 M-2.5,-0.5L0,-3.0L2.5,-0.5"/>
                </g>
        </g>
        <svg viewBox="0 0 15 15" width="100%" height="30px" preserveAspectRatio="xMaxYMin meet">
         <g id="arrow_out" transform="scale(0.3 0.3)">
          <a xlink:href="classcommands_1_1templates_1_1_command_a8bc87b30554d28c6740a25a75b9e1a81_icgraph_org.svg" target="_base">
           <rect id="button" ry="5" rx="5" y="6" x="6" height="38" width="38"
                fill="#f2f5e9" fill-opacity="0.5" stroke="#606060" stroke-width="1.0"/>
           <path id="arrow"
             d="M 11.500037,31.436501 C 11.940474,20.09759 22.043105,11.32322 32.158766,21.979434 L 37.068811,17.246167 C 37.068811,17.246167 37.088388,32 37.088388,32 L 22.160133,31.978069 C 22.160133,31.978069 26.997745,27.140456 26.997745,27.140456 C 18.528582,18.264221 13.291696,25.230495 11.500037,31.436501 z"
             style="fill:#404040;"/>
          </a>
         </g>
        </svg>
</svg>
