<?xml version="1.0" encoding="UTF-8" standalone="no"?>
<!DOCTYPE svg PUBLIC "-//W3C//DTD SVG 1.1//EN"
 "http://www.w3.org/Graphics/SVG/1.1/DTD/svg11.dtd">
<!-- Generated by graphviz version 2.36.0 (20140111.2315)
 -->
<!-- Title: commands.templates.Command.toString Pages: 1 -->
<!--zoomable 191 -->
<svg id="main" version="1.1" xmlns="http://www.w3.org/2000/svg" xmlns:xlink="http://www.w3.org/1999/xlink" xml:space="preserve" onload="init(evt)">
<style type="text/css"><![CDATA[
.edge:hover path { stroke: red; }
.edge:hover polygon { stroke: red; fill: red; }
]]></style>
<script type="text/javascript"><![CDATA[
var edges = document.getElementsByTagName('g');
if (edges && edges.length) {
  for (var i=0;i<edges.length;i++) {
    if (edges[i].id.substr(0,4)=='edge') {
      edges[i].setAttribute('class','edge');
    }
  }
}
]]></script>
        <defs>
                <circle id="rim" cx="0" cy="0" r="7"/>
                <circle id="rim2" cx="0" cy="0" r="3.5"/>
                <g id="zoomPlus">
                        <use xlink:href="#rim" fill="#404040">
                                <set attributeName="fill" to="#808080" begin="zoomplus.mouseover" end="zoomplus.mouseout"/>
                        </use>
                        <path d="M-4,0h8M0,-4v8" fill="none" stroke="white" stroke-width="1.5" pointer-events="none"/>
                </g>
                <g id="zoomMin">
                        <use xlink:href="#rim" fill="#404040">
                                <set attributeName="fill" to="#808080" begin="zoomminus.mouseover" end="zoomminus.mouseout"/>
                        </use>
                        <path d="M-4,0h8" fill="none" stroke="white" stroke-width="1.5" pointer-events="none"/>
                </g>
                <g id="dirArrow">
                        <path fill="none" stroke="white" stroke-width="1.5" d="M0,-3.0v7 M-2.5,-0.5L0,-3.0L2.5,-0.5"/>
                </g>
               <g id="resetDef">
                       <use xlink:href="#rim2" fill="#404040">
                               <set attributeName="fill" to="#808080" begin="reset.mouseover" end="reset.mouseout"/>
                       </use>
               </g>
        </defs>

<script type="text/javascript">
var viewWidth = 1616;
var viewHeight = 191;
var sectionId = 'dynsection-10';
</script>
<script xlink:href="../../svgpan.js"/>
<svg id="graph" class="graph">
<g id="viewport">
<title>commands.templates.Command.toString</title>
<polygon fill="white" stroke="none" points="-4,4 -4,-187 1612,-187 1612,4 -4,4"/>
<!-- Node1 -->
<g id="node1" class="node"><title>Node1</title>
<polygon fill="#bfbfbf" stroke="black" points="0,-104 0,-134 188,-134 188,-104 0,-104"/>
<text text-anchor="start" x="8" y="-122" font-family="Helvetica,sans-Serif" font-size="10.00">commands.templates.Command.to</text>
<text text-anchor="middle" x="94" y="-111" font-family="Helvetica,sans-Serif" font-size="10.00">String</text>
</g>
<!-- Node2 -->
<g id="node2" class="node"><title>Node2</title>
<g id="a_node2"><a xlink:href="../../d5/def/classcommands_1_1variable__commands_1_1_user_input_command.html#aa2fac1d96d80357ca5120984ecba8d0a" target="_top" xlink:title="commands.variable_commands.\lUserInputCommand.execute">
<polygon fill="white" stroke="black" points="234.5,-153 234.5,-183 407.5,-183 407.5,-153 234.5,-153"/>
<text text-anchor="start" x="242.5" y="-171" font-family="Helvetica,sans-Serif" font-size="10.00">commands.variable_commands.</text>
<text text-anchor="middle" x="321" y="-160" font-family="Helvetica,sans-Serif" font-size="10.00">UserInputCommand.execute</text>
</a>
</g>
</g>
<!-- Node1&#45;&gt;Node2 -->
<g id="edge1" class="edge"><title>Node1&#45;&gt;Node2</title>
<path fill="none" stroke="midnightblue" d="M173.912,-136.185C199.073,-141.665 226.701,-147.682 251.094,-152.994"/>
<polygon fill="midnightblue" stroke="midnightblue" points="174.552,-132.743 164.037,-134.035 173.063,-139.582 174.552,-132.743"/>
</g>
<!-- Node3 -->
<g id="node3" class="node"><title>Node3</title>
<g id="a_node3"><a xlink:href="../../d4/d35/classcommands_1_1variable__commands_1_1_user_defined_command.html#adda270c7e35b96f9076d7fa24e0d207c" target="_top" xlink:title="commands.variable_commands.\lUserDefinedCommand.mapVariables">
<polygon fill="white" stroke="black" points="224,-104 224,-134 418,-134 418,-104 224,-104"/>
<text text-anchor="start" x="232" y="-122" font-family="Helvetica,sans-Serif" font-size="10.00">commands.variable_commands.</text>
<text text-anchor="middle" x="321" y="-111" font-family="Helvetica,sans-Serif" font-size="10.00">UserDefinedCommand.mapVariables</text>
</a>
</g>
</g>
<!-- Node1&#45;&gt;Node3 -->
<g id="edge2" class="edge"><title>Node1&#45;&gt;Node3</title>
<path fill="none" stroke="midnightblue" d="M198.369,-119C206.794,-119 215.287,-119 223.659,-119"/>
<polygon fill="midnightblue" stroke="midnightblue" points="198.14,-115.5 188.14,-119 198.14,-122.5 198.14,-115.5"/>
</g>
<!-- Node5 -->
<g id="node5" class="node"><title>Node5</title>
<g id="a_node5"><a xlink:href="../../d9/d1e/classback_end_1_1_parser.html#a163b8afd814babc8e7df59993f0d6440" target="_top" xlink:title="backEnd.Parser.parseScript">
<polygon fill="white" stroke="black" points="247.5,-65.5 247.5,-84.5 394.5,-84.5 394.5,-65.5 247.5,-65.5"/>
<text text-anchor="middle" x="321" y="-72.5" font-family="Helvetica,sans-Serif" font-size="10.00">backEnd.Parser.parseScript</text>
</a>
</g>
</g>
<!-- Node1&#45;&gt;Node5 -->
<g id="edge4" class="edge"><title>Node1&#45;&gt;Node5</title>
<path fill="none" stroke="midnightblue" d="M181.977,-101.991C212.312,-96.0589 245.261,-89.6155 271.357,-84.5124"/>
<polygon fill="midnightblue" stroke="midnightblue" points="180.945,-98.6265 171.803,-103.981 182.289,-105.496 180.945,-98.6265"/>
</g>
<!-- Node4 -->
<g id="node4" class="node"><title>Node4</title>
<g id="a_node4"><a xlink:href="../../d4/d35/classcommands_1_1variable__commands_1_1_user_defined_command.html#a4e7e699bc6b996e652d21c012c2106aa" target="_top" xlink:title="commands.variable_commands.\lUserDefinedCommand.execute">
<polygon fill="white" stroke="black" points="454.5,-104 454.5,-134 627.5,-134 627.5,-104 454.5,-104"/>
<text text-anchor="start" x="462.5" y="-122" font-family="Helvetica,sans-Serif" font-size="10.00">commands.variable_commands.</text>
<text text-anchor="middle" x="541" y="-111" font-family="Helvetica,sans-Serif" font-size="10.00">UserDefinedCommand.execute</text>
</a>
</g>
</g>
<!-- Node3&#45;&gt;Node4 -->
<g id="edge3" class="edge"><title>Node3&#45;&gt;Node4</title>
<path fill="none" stroke="midnightblue" d="M428.394,-119C437.053,-119 445.733,-119 454.217,-119"/>
<polygon fill="midnightblue" stroke="midnightblue" points="428.253,-115.5 418.253,-119 428.253,-122.5 428.253,-115.5"/>
</g>
<!-- Node6 -->
<g id="node6" class="node"><title>Node6</title>
<g id="a_node6"><a xlink:href="../../d9/d98/classback_end_1_1_model.html#ade764fd1c85a48fabb9abf3dfe8b8ceb" target="_top" xlink:title="backEnd.Model.runScript">
<polygon fill="white" stroke="black" points="473.5,-65.5 473.5,-84.5 608.5,-84.5 608.5,-65.5 473.5,-65.5"/>
<text text-anchor="middle" x="541" y="-72.5" font-family="Helvetica,sans-Serif" font-size="10.00">backEnd.Model.runScript</text>
</a>
</g>
</g>
<!-- Node5&#45;&gt;Node6 -->
<g id="edge5" class="edge"><title>Node5&#45;&gt;Node6</title>
<path fill="none" stroke="midnightblue" d="M404.85,-75C427.456,-75 451.657,-75 473.244,-75"/>
<polygon fill="midnightblue" stroke="midnightblue" points="404.591,-71.5001 394.591,-75 404.591,-78.5001 404.591,-71.5001"/>
</g>
<!-- Node7 -->
<g id="node7" class="node"><title>Node7</title>
<g id="a_node7"><a xlink:href="../../d9/d49/classback_end_1_1_controller.html#ad650f48d236eaf11c2d8591b04831900" target="_top" xlink:title="backEnd.Controller.runScript">
<polygon fill="white" stroke="black" points="664,-65.5 664,-84.5 816,-84.5 816,-65.5 664,-65.5"/>
<text text-anchor="middle" x="740" y="-72.5" font-family="Helvetica,sans-Serif" font-size="10.00">backEnd.Controller.runScript</text>
</a>
</g>
</g>
<!-- Node6&#45;&gt;Node7 -->
<g id="edge6" class="edge"><title>Node6&#45;&gt;Node7</title>
<path fill="none" stroke="midnightblue" d="M618.824,-75C633.638,-75 649.141,-75 663.899,-75"/>
<polygon fill="midnightblue" stroke="midnightblue" points="618.695,-71.5001 608.695,-75 618.695,-78.5001 618.695,-71.5001"/>
</g>
<!-- Node8 -->
<g id="node8" class="node"><title>Node8</title>
<g id="a_node8"><a xlink:href="../../de/d03/classpanels_1_1_script_panel.html#ae6ae56472ef1a975597bad69844662c6" target="_top" xlink:title="panels.ScriptPanel.handler">
<polygon fill="white" stroke="black" points="854.5,-130.5 854.5,-149.5 997.5,-149.5 997.5,-130.5 854.5,-130.5"/>
<text text-anchor="middle" x="926" y="-137.5" font-family="Helvetica,sans-Serif" font-size="10.00">panels.ScriptPanel.handler</text>
</a>
</g>
</g>
<!-- Node7&#45;&gt;Node8 -->
<g id="edge7" class="edge"><title>Node7&#45;&gt;Node8</title>
<path fill="none" stroke="midnightblue" d="M777.673,-87.9552C813.198,-100.505 866.232,-119.24 898.039,-130.476"/>
<polygon fill="midnightblue" stroke="midnightblue" points="778.745,-84.6218 768.15,-84.591 776.413,-91.2221 778.745,-84.6218"/>
</g>
<!-- Node10 -->
<g id="node10" class="node"><title>Node10</title>
<g id="a_node10"><a xlink:href="../../da/d04/classtitle_panes_1_1_control_title_pane.html#af28eba60fefe51c70e763d51d9123ea3" target="_top" xlink:title="titlePanes.ControlTitlePane.make\lLocationFields">
<polygon fill="white" stroke="black" points="1252.5,-0 1252.5,-30 1425.5,-30 1425.5,-0 1252.5,-0"/>
<text text-anchor="start" x="1260.5" y="-18" font-family="Helvetica,sans-Serif" font-size="10.00">titlePanes.ControlTitlePane.make</text>
<text text-anchor="middle" x="1339" y="-7" font-family="Helvetica,sans-Serif" font-size="10.00">LocationFields</text>
</a>
</g>
</g>
<!-- Node7&#45;&gt;Node10 -->
<g id="edge9" class="edge"><title>Node7&#45;&gt;Node10</title>
<path fill="none" stroke="midnightblue" d="M801.177,-63.7364C817.616,-60.9228 835.457,-58.1097 852,-56 991.641,-38.1916 1154.88,-26.222 1252.17,-20.018"/>
<polygon fill="midnightblue" stroke="midnightblue" points="800.399,-60.3191 791.147,-65.4821 801.599,-67.2155 800.399,-60.3191"/>
</g>
<!-- Node12 -->
<g id="node12" class="node"><title>Node12</title>
<g id="a_node12"><a xlink:href="../../d9/d49/classback_end_1_1_controller.html#a3b0bbf0a084bb4fb63d118f66e7327b1" target="_top" xlink:title="backEnd.Controller.move10">
<polygon fill="white" stroke="black" points="852,-65.5 852,-84.5 1000,-84.5 1000,-65.5 852,-65.5"/>
<text text-anchor="middle" x="926" y="-72.5" font-family="Helvetica,sans-Serif" font-size="10.00">backEnd.Controller.move10</text>
</a>
</g>
</g>
<!-- Node7&#45;&gt;Node12 -->
<g id="edge11" class="edge"><title>Node7&#45;&gt;Node12</title>
<path fill="none" stroke="midnightblue" d="M826.156,-75C834.765,-75 843.454,-75 851.92,-75"/>
<polygon fill="midnightblue" stroke="midnightblue" points="826.105,-71.5001 816.105,-75 826.105,-78.5001 826.105,-71.5001"/>
</g>
<!-- Node9 -->
<g id="node9" class="node"><title>Node9</title>
<g id="a_node9"><a xlink:href="../../de/d03/classpanels_1_1_script_panel.html#ac959f1785cff7409d857d3bea9b8ee63" target="_top" xlink:title="panels.ScriptPanel.Script\lPanel">
<polygon fill="white" stroke="black" points="1058.5,-139 1058.5,-169 1193.5,-169 1193.5,-139 1058.5,-139"/>
<text text-anchor="start" x="1066.5" y="-157" font-family="Helvetica,sans-Serif" font-size="10.00">panels.ScriptPanel.Script</text>
<text text-anchor="middle" x="1126" y="-146" font-family="Helvetica,sans-Serif" font-size="10.00">Panel</text>
</a>
</g>
</g>
<!-- Node8&#45;&gt;Node9 -->
<g id="edge8" class="edge"><title>Node8&#45;&gt;Node9</title>
<path fill="none" stroke="midnightblue" d="M1007.97,-145.725C1024.72,-146.909 1042.19,-148.144 1058.36,-149.288"/>
<polygon fill="midnightblue" stroke="midnightblue" points="1007.87,-142.209 997.644,-144.995 1007.37,-149.192 1007.87,-142.209"/>
</g>
<!-- Node11 -->
<g id="node11" class="node"><title>Node11</title>
<g id="a_node11"><a xlink:href="../../da/d04/classtitle_panes_1_1_control_title_pane.html#ad9d4431a2657a30fedae46e0c9093867" target="_top" xlink:title="titlePanes.ControlTitlePane.\lControlTitlePane">
<polygon fill="white" stroke="black" points="1462,-24 1462,-54 1608,-54 1608,-24 1462,-24"/>
<text text-anchor="start" x="1470" y="-42" font-family="Helvetica,sans-Serif" font-size="10.00">titlePanes.ControlTitlePane.</text>
<text text-anchor="middle" x="1535" y="-31" font-family="Helvetica,sans-Serif" font-size="10.00">ControlTitlePane</text>
</a>
</g>
</g>
<!-- Node10&#45;&gt;Node11 -->
<g id="edge10" class="edge"><title>Node10&#45;&gt;Node11</title>
<path fill="none" stroke="midnightblue" d="M1435.6,-26.8271C1444.43,-27.9193 1453.28,-29.0135 1461.84,-30.0734"/>
<polygon fill="midnightblue" stroke="midnightblue" points="1436.01,-23.3509 1425.66,-25.5966 1435.15,-30.298 1436.01,-23.3509"/>
</g>
<!-- Node13 -->
<g id="node13" class="node"><title>Node13</title>
<g id="a_node13"><a xlink:href="../../d9/d49/classback_end_1_1_controller.html#a7893477f39915a5169eb8da0dff60628" target="_top" xlink:title="backEnd.Controller.build\lKeyListener">
<polygon fill="white" stroke="black" points="1060.5,-90 1060.5,-120 1191.5,-120 1191.5,-90 1060.5,-90"/>
<text text-anchor="start" x="1068.5" y="-108" font-family="Helvetica,sans-Serif" font-size="10.00">backEnd.Controller.build</text>
<text text-anchor="middle" x="1126" y="-97" font-family="Helvetica,sans-Serif" font-size="10.00">KeyListener</text>
</a>
</g>
</g>
<!-- Node12&#45;&gt;Node13 -->
<g id="edge12" class="edge"><title>Node12&#45;&gt;Node13</title>
<path fill="none" stroke="midnightblue" d="M1000.08,-86.0721C1019.79,-89.0587 1040.97,-92.2687 1060.2,-95.1816"/>
<polygon fill="midnightblue" stroke="midnightblue" points="1000.33,-82.571 989.92,-84.5334 999.283,-89.492 1000.33,-82.571"/>
</g>
<!-- Node15 -->
<g id="node15" class="node"><title>Node15</title>
<g id="a_node15"><a xlink:href="../../da/d04/classtitle_panes_1_1_control_title_pane.html#ae994c7b4dd988b30fc824e9e893b3ccf" target="_top" xlink:title="titlePanes.ControlTitlePane.handle">
<polygon fill="white" stroke="black" points="1036.5,-51.5 1036.5,-70.5 1215.5,-70.5 1215.5,-51.5 1036.5,-51.5"/>
<text text-anchor="middle" x="1126" y="-58.5" font-family="Helvetica,sans-Serif" font-size="10.00">titlePanes.ControlTitlePane.handle</text>
</a>
</g>
</g>
<!-- Node12&#45;&gt;Node15 -->
<g id="edge14" class="edge"><title>Node12&#45;&gt;Node15</title>
<path fill="none" stroke="midnightblue" d="M1010.22,-69.1158C1018.86,-68.5047 1027.67,-67.882 1036.37,-67.2668"/>
<polygon fill="midnightblue" stroke="midnightblue" points="1009.89,-65.63 1000.17,-69.8267 1010.39,-72.6126 1009.89,-65.63"/>
</g>
<!-- Node14 -->
<g id="node14" class="node"><title>Node14</title>
<g id="a_node14"><a xlink:href="../../d9/d49/classback_end_1_1_controller.html#a987136eaba0798749f393bac2a9a2400" target="_top" xlink:title="backEnd.Controller.Controller">
<polygon fill="white" stroke="black" points="1261.5,-98.5 1261.5,-117.5 1416.5,-117.5 1416.5,-98.5 1261.5,-98.5"/>
<text text-anchor="middle" x="1339" y="-105.5" font-family="Helvetica,sans-Serif" font-size="10.00">backEnd.Controller.Controller</text>
</a>
</g>
</g>
<!-- Node13&#45;&gt;Node14 -->
<g id="edge13" class="edge"><title>Node13&#45;&gt;Node14</title>
<path fill="none" stroke="midnightblue" d="M1201.94,-106.065C1221.15,-106.339 1241.84,-106.633 1261.15,-106.907"/>
<polygon fill="midnightblue" stroke="midnightblue" points="1201.79,-102.563 1191.74,-105.92 1201.69,-109.562 1201.79,-102.563"/>
</g>
<!-- Node15&#45;&gt;Node10 -->
<g id="edge17" class="edge"><title>Node15&#45;&gt;Node10</title>
<path fill="none" stroke="midnightblue" d="M1180.69,-49.2945C1207.53,-43.4436 1240.32,-36.2957 1269,-30.0427"/>
<polygon fill="midnightblue" stroke="midnightblue" points="1179.74,-45.919 1170.72,-51.4688 1181.24,-52.7583 1179.74,-45.919"/>
</g>
<!-- Node16 -->
<g id="node16" class="node"><title>Node16</title>
<g id="a_node16"><a xlink:href="../../da/d04/classtitle_panes_1_1_control_title_pane.html#a974c75cbdf64007af637c8b19a26b215" target="_top" xlink:title="titlePanes.ControlTitlePane.make\lButtons">
<polygon fill="white" stroke="black" points="1252.5,-49 1252.5,-79 1425.5,-79 1425.5,-49 1252.5,-49"/>
<text text-anchor="start" x="1260.5" y="-67" font-family="Helvetica,sans-Serif" font-size="10.00">titlePanes.ControlTitlePane.make</text>
<text text-anchor="middle" x="1339" y="-56" font-family="Helvetica,sans-Serif" font-size="10.00">Buttons</text>
</a>
</g>
</g>
<!-- Node15&#45;&gt;Node16 -->
<g id="edge15" class="edge"><title>Node15&#45;&gt;Node16</title>
<path fill="none" stroke="midnightblue" d="M1225.61,-62.4021C1234.55,-62.5291 1243.55,-62.6571 1252.36,-62.7824"/>
<polygon fill="midnightblue" stroke="midnightblue" points="1225.61,-58.9018 1215.57,-62.2592 1225.52,-65.9011 1225.61,-58.9018"/>
</g>
<!-- Node16&#45;&gt;Node11 -->
<g id="edge16" class="edge"><title>Node16&#45;&gt;Node11</title>
<path fill="none" stroke="midnightblue" d="M1435.6,-51.6801C1444.43,-50.5423 1453.28,-49.4026 1461.84,-48.2985"/>
<polygon fill="midnightblue" stroke="midnightblue" points="1435.13,-48.2124 1425.66,-52.9619 1436.02,-55.155 1435.13,-48.2124"/>
</g>
</g>
</svg>
        <g id="navigator" transform="translate(0 0)" fill="#404254">
                <rect fill="#f2f5e9" fill-opacity="0.5" stroke="#606060" stroke-width=".5" x="0" y="0" width="60" height="60"/>
                <use id="zoomplus" xlink:href="#zoomPlus" x="17" y="9" onmousedown="handleZoom(evt,'in')"/>
                <use id="zoomminus" xlink:href="#zoomMin" x="42" y="9" onmousedown="handleZoom(evt,'out')"/>
                <use id="reset" xlink:href="#resetDef" x="30" y="36" onmousedown="handleReset()"/>
                <g id="arrowUp" xlink:href="#dirArrow" transform="translate(30 24)" onmousedown="handlePan(0,-1)">
                  <use xlink:href="#rim" fill="#404040">
                        <set attributeName="fill" to="#808080" begin="arrowUp.mouseover" end="arrowUp.mouseout"/>
                  </use>
                  <path fill="none" stroke="white" stroke-width="1.5" d="M0,-3.0v7 M-2.5,-0.5L0,-3.0L2.5,-0.5"/>
                </g>
                <g id="arrowRight" xlink:href="#dirArrow" transform="rotate(90) translate(36 -43)" onmousedown="handlePan(1,0)">
                  <use xlink:href="#rim" fill="#404040">
                        <set attributeName="fill" to="#808080" begin="arrowRight.mouseover" end="arrowRight.mouseout"/>
                  </use>
                  <path fill="none" stroke="white" stroke-width="1.5" d="M0,-3.0v7 M-2.5,-0.5L0,-3.0L2.5,-0.5"/>
                </g>
                <g id="arrowDown" xlink:href="#dirArrow" transform="rotate(180) translate(-30 -48)" onmousedown="handlePan(0,1)">
                  <use xlink:href="#rim" fill="#404040">
                        <set attributeName="fill" to="#808080" begin="arrowDown.mouseover" end="arrowDown.mouseout"/>
                  </use>
                  <path fill="none" stroke="white" stroke-width="1.5" d="M0,-3.0v7 M-2.5,-0.5L0,-3.0L2.5,-0.5"/>
                </g>
                <g id="arrowLeft" xlink:href="#dirArrow" transform="rotate(270) translate(-36 17)" onmousedown="handlePan(-1,0)">
                  <use xlink:href="#rim" fill="#404040">
                        <set attributeName="fill" to="#808080" begin="arrowLeft.mouseover" end="arrowLeft.mouseout"/>
                  </use>
                  <path fill="none" stroke="white" stroke-width="1.5" d="M0,-3.0v7 M-2.5,-0.5L0,-3.0L2.5,-0.5"/>
                </g>
        </g>
        <svg viewBox="0 0 15 15" width="100%" height="30px" preserveAspectRatio="xMaxYMin meet">
         <g id="arrow_out" transform="scale(0.3 0.3)">
          <a xlink:href="classcommands_1_1templates_1_1_command_aa1c27b6285999798be609159ee5c7a83_icgraph_org.svg" target="_base">
           <rect id="button" ry="5" rx="5" y="6" x="6" height="38" width="38"
                fill="#f2f5e9" fill-opacity="0.5" stroke="#606060" stroke-width="1.0"/>
           <path id="arrow"
             d="M 11.500037,31.436501 C 11.940474,20.09759 22.043105,11.32322 32.158766,21.979434 L 37.068811,17.246167 C 37.068811,17.246167 37.088388,32 37.088388,32 L 22.160133,31.978069 C 22.160133,31.978069 26.997745,27.140456 26.997745,27.140456 C 18.528582,18.264221 13.291696,25.230495 11.500037,31.436501 z"
             style="fill:#404040;"/>
          </a>
         </g>
        </svg>
</svg>
