<?xml version="1.0" encoding="UTF-8" standalone="no"?>
<!DOCTYPE svg PUBLIC "-//W3C//DTD SVG 1.1//EN"
 "http://www.w3.org/Graphics/SVG/1.1/DTD/svg11.dtd">
<!-- Generated by graphviz version 2.36.0 (20140111.2315)
 -->
<!-- Title: backEnd.turtle.TurtleManager.addTemporaryTurtleList Pages: 1 -->
<svg width="620pt" height="38pt"
 viewBox="0.00 0.00 620.00 38.00" xmlns="http://www.w3.org/2000/svg" xmlns:xlink="http://www.w3.org/1999/xlink">
<g id="graph0" class="graph" transform="scale(1 1) rotate(0) translate(4 34)">
<title>backEnd.turtle.TurtleManager.addTemporaryTurtleList</title>
<polygon fill="white" stroke="none" points="-4,4 -4,-34 616,-34 616,4 -4,4"/>
<!-- Node1 -->
<g id="node1" class="node"><title>Node1</title>
<polygon fill="#bfbfbf" stroke="black" points="0,-0 0,-30 176,-30 176,-0 0,-0"/>
<text text-anchor="start" x="8" y="-18" font-family="Helvetica,sans-Serif" font-size="10.00">backEnd.turtle.TurtleManager.add</text>
<text text-anchor="middle" x="88" y="-7" font-family="Helvetica,sans-Serif" font-size="10.00">TemporaryTurtleList</text>
</g>
<!-- Node2 -->
<g id="node2" class="node"><title>Node2</title>
<g id="a_node2"><a xlink:href="../../da/d20/classcommands_1_1turtle__commands_1_1_ask_command.html#aad8e3c73b091789febe536557fc8bd7d" target="_top" xlink:title="commands.turtle_commands.\lAskCommand.executeTurtleCommand">
<polygon fill="white" stroke="black" points="212.5,-0 212.5,-30 413.5,-30 413.5,-0 212.5,-0"/>
<text text-anchor="start" x="220.5" y="-18" font-family="Helvetica,sans-Serif" font-size="10.00">commands.turtle_commands.</text>
<text text-anchor="middle" x="313" y="-7" font-family="Helvetica,sans-Serif" font-size="10.00">AskCommand.executeTurtleCommand</text>
</a>
</g>
</g>
<!-- Node1&#45;&gt;Node2 -->
<g id="edge1" class="edge"><title>Node1&#45;&gt;Node2</title>
<path fill="none" stroke="midnightblue" d="M186.252,-15C194.892,-15 203.648,-15 212.308,-15"/>
<polygon fill="midnightblue" stroke="midnightblue" points="186.176,-11.5001 176.176,-15 186.176,-18.5001 186.176,-11.5001"/>
</g>
<!-- Node3 -->
<g id="node3" class="node"><title>Node3</title>
<g id="a_node3"><a xlink:href="../../da/d20/classcommands_1_1turtle__commands_1_1_ask_command.html#a9f668e7b2778cf4241b59b11db58e211" target="_top" xlink:title="commands.turtle_commands.\lAskCommand.execute">
<polygon fill="white" stroke="black" points="450.5,-0 450.5,-30 611.5,-30 611.5,-0 450.5,-0"/>
<text text-anchor="start" x="458.5" y="-18" font-family="Helvetica,sans-Serif" font-size="10.00">commands.turtle_commands.</text>
<text text-anchor="middle" x="531" y="-7" font-family="Helvetica,sans-Serif" font-size="10.00">AskCommand.execute</text>
</a>
</g>
</g>
<!-- Node2&#45;&gt;Node3 -->
<g id="edge2" class="edge"><title>Node2&#45;&gt;Node3</title>
<path fill="none" stroke="midnightblue" d="M423.864,-15C432.801,-15 441.721,-15 450.378,-15"/>
<polygon fill="midnightblue" stroke="midnightblue" points="423.781,-11.5001 413.781,-15 423.78,-18.5001 423.781,-11.5001"/>
</g>
</g>
</svg>
