<?xml version="1.0" encoding="UTF-8" standalone="no"?>
<!DOCTYPE svg PUBLIC "-//W3C//DTD SVG 1.1//EN"
 "http://www.w3.org/Graphics/SVG/1.1/DTD/svg11.dtd">
<!-- Generated by graphviz version 2.36.0 (20140111.2315)
 -->
<!-- Title: backEnd.turtle.TurtleManager.createTurtleList Pages: 1 -->
<svg width="862pt" height="136pt"
 viewBox="0.00 0.00 862.00 136.00" xmlns="http://www.w3.org/2000/svg" xmlns:xlink="http://www.w3.org/1999/xlink">
<g id="graph0" class="graph" transform="scale(1 1) rotate(0) translate(4 132)">
<title>backEnd.turtle.TurtleManager.createTurtleList</title>
<polygon fill="white" stroke="none" points="-4,4 -4,-132 858,-132 858,4 -4,4"/>
<!-- Node1 -->
<g id="node1" class="node"><title>Node1</title>
<polygon fill="#bfbfbf" stroke="black" points="0.5,-73 0.5,-103 189.5,-103 189.5,-73 0.5,-73"/>
<text text-anchor="start" x="8.5" y="-91" font-family="Helvetica,sans-Serif" font-size="10.00">backEnd.turtle.TurtleManager.create</text>
<text text-anchor="middle" x="95" y="-80" font-family="Helvetica,sans-Serif" font-size="10.00">TurtleList</text>
</g>
<!-- Node2 -->
<g id="node2" class="node"><title>Node2</title>
<g id="a_node2"><a xlink:href="../../d4/d07/classback_end_1_1turtle_1_1_turtle_manager.html#ad8328ab562caaff3f28ff7318542fe8d" target="_top" xlink:title="backEnd.turtle.TurtleManager.add\lTemporaryTurtleList">
<polygon fill="white" stroke="black" points="234,-98 234,-128 410,-128 410,-98 234,-98"/>
<text text-anchor="start" x="242" y="-116" font-family="Helvetica,sans-Serif" font-size="10.00">backEnd.turtle.TurtleManager.add</text>
<text text-anchor="middle" x="322" y="-105" font-family="Helvetica,sans-Serif" font-size="10.00">TemporaryTurtleList</text>
</a>
</g>
</g>
<!-- Node1&#45;&gt;Node2 -->
<g id="edge1" class="edge"><title>Node1&#45;&gt;Node2</title>
<path fill="none" stroke="midnightblue" d="M199.762,-99.5292C211.158,-100.795 222.674,-102.075 233.839,-103.315"/>
<polygon fill="midnightblue" stroke="midnightblue" points="200.116,-96.047 189.791,-98.4212 199.343,-103.004 200.116,-96.047"/>
</g>
<!-- Node5 -->
<g id="node5" class="node"><title>Node5</title>
<g id="a_node5"><a xlink:href="../../d4/d07/classback_end_1_1turtle_1_1_turtle_manager.html#ac514debd7deab42db9d2f5337359ea6a" target="_top" xlink:title="backEnd.turtle.TurtleManager.update\lActiveTurtleList">
<polygon fill="white" stroke="black" points="226,-49 226,-79 418,-79 418,-49 226,-49"/>
<text text-anchor="start" x="234" y="-67" font-family="Helvetica,sans-Serif" font-size="10.00">backEnd.turtle.TurtleManager.update</text>
<text text-anchor="middle" x="322" y="-56" font-family="Helvetica,sans-Serif" font-size="10.00">ActiveTurtleList</text>
</a>
</g>
</g>
<!-- Node1&#45;&gt;Node5 -->
<g id="edge4" class="edge"><title>Node1&#45;&gt;Node5</title>
<path fill="none" stroke="midnightblue" d="M199.919,-76.9153C208.585,-75.991 217.318,-75.0594 225.913,-74.1426"/>
<polygon fill="midnightblue" stroke="midnightblue" points="199.363,-73.4546 189.791,-77.9956 200.106,-80.4151 199.363,-73.4546"/>
</g>
<!-- Node3 -->
<g id="node3" class="node"><title>Node3</title>
<g id="a_node3"><a xlink:href="../../da/d20/classcommands_1_1turtle__commands_1_1_ask_command.html#aad8e3c73b091789febe536557fc8bd7d" target="_top" xlink:title="commands.turtle_commands.\lAskCommand.executeTurtleCommand">
<polygon fill="white" stroke="black" points="454.5,-98 454.5,-128 655.5,-128 655.5,-98 454.5,-98"/>
<text text-anchor="start" x="462.5" y="-116" font-family="Helvetica,sans-Serif" font-size="10.00">commands.turtle_commands.</text>
<text text-anchor="middle" x="555" y="-105" font-family="Helvetica,sans-Serif" font-size="10.00">AskCommand.executeTurtleCommand</text>
</a>
</g>
</g>
<!-- Node2&#45;&gt;Node3 -->
<g id="edge2" class="edge"><title>Node2&#45;&gt;Node3</title>
<path fill="none" stroke="midnightblue" d="M420.256,-113C431.507,-113 442.995,-113 454.279,-113"/>
<polygon fill="midnightblue" stroke="midnightblue" points="420.002,-109.5 410.002,-113 420.002,-116.5 420.002,-109.5"/>
</g>
<!-- Node4 -->
<g id="node4" class="node"><title>Node4</title>
<g id="a_node4"><a xlink:href="../../da/d20/classcommands_1_1turtle__commands_1_1_ask_command.html#a9f668e7b2778cf4241b59b11db58e211" target="_top" xlink:title="commands.turtle_commands.\lAskCommand.execute">
<polygon fill="white" stroke="black" points="692.5,-98 692.5,-128 853.5,-128 853.5,-98 692.5,-98"/>
<text text-anchor="start" x="700.5" y="-116" font-family="Helvetica,sans-Serif" font-size="10.00">commands.turtle_commands.</text>
<text text-anchor="middle" x="773" y="-105" font-family="Helvetica,sans-Serif" font-size="10.00">AskCommand.execute</text>
</a>
</g>
</g>
<!-- Node3&#45;&gt;Node4 -->
<g id="edge3" class="edge"><title>Node3&#45;&gt;Node4</title>
<path fill="none" stroke="midnightblue" d="M665.864,-113C674.801,-113 683.721,-113 692.378,-113"/>
<polygon fill="midnightblue" stroke="midnightblue" points="665.781,-109.5 655.781,-113 665.78,-116.5 665.781,-109.5"/>
</g>
<!-- Node6 -->
<g id="node6" class="node"><title>Node6</title>
<g id="a_node6"><a xlink:href="../../d9/d98/classback_end_1_1_model.html#a0c1150b8c4ffe07001a42b5d4cdacbd2" target="_top" xlink:title="backEnd.Model.setupTurtle\lManager">
<polygon fill="white" stroke="black" points="483,-49 483,-79 627,-79 627,-49 483,-49"/>
<text text-anchor="start" x="491" y="-67" font-family="Helvetica,sans-Serif" font-size="10.00">backEnd.Model.setupTurtle</text>
<text text-anchor="middle" x="555" y="-56" font-family="Helvetica,sans-Serif" font-size="10.00">Manager</text>
</a>
</g>
</g>
<!-- Node5&#45;&gt;Node6 -->
<g id="edge5" class="edge"><title>Node5&#45;&gt;Node6</title>
<path fill="none" stroke="midnightblue" d="M428.486,-64C446.924,-64 465.705,-64 482.931,-64"/>
<polygon fill="midnightblue" stroke="midnightblue" points="428.29,-60.5001 418.29,-64 428.29,-67.5001 428.29,-60.5001"/>
</g>
<!-- Node8 -->
<g id="node8" class="node"><title>Node8</title>
<g id="a_node8"><a xlink:href="../../d1/d00/classcommands_1_1turtle__commands_1_1_tell_command.html#a5b187b4609637fee3e88d2a51681db1a" target="_top" xlink:title="commands.turtle_commands.\lTellCommand.execute">
<polygon fill="white" stroke="black" points="474.5,-0 474.5,-30 635.5,-30 635.5,-0 474.5,-0"/>
<text text-anchor="start" x="482.5" y="-18" font-family="Helvetica,sans-Serif" font-size="10.00">commands.turtle_commands.</text>
<text text-anchor="middle" x="555" y="-7" font-family="Helvetica,sans-Serif" font-size="10.00">TellCommand.execute</text>
</a>
</g>
</g>
<!-- Node5&#45;&gt;Node8 -->
<g id="edge7" class="edge"><title>Node5&#45;&gt;Node8</title>
<path fill="none" stroke="midnightblue" d="M403.674,-46.8873C429.597,-41.3885 458.102,-35.342 483.257,-30.0062"/>
<polygon fill="midnightblue" stroke="midnightblue" points="402.934,-43.4664 393.877,-48.9654 404.386,-50.3141 402.934,-43.4664"/>
</g>
<!-- Node7 -->
<g id="node7" class="node"><title>Node7</title>
<g id="a_node7"><a xlink:href="../../d9/d49/classback_end_1_1_controller.html#a987136eaba0798749f393bac2a9a2400" target="_top" xlink:title="backEnd.Controller.Controller">
<polygon fill="white" stroke="black" points="695.5,-54.5 695.5,-73.5 850.5,-73.5 850.5,-54.5 695.5,-54.5"/>
<text text-anchor="middle" x="773" y="-61.5" font-family="Helvetica,sans-Serif" font-size="10.00">backEnd.Controller.Controller</text>
</a>
</g>
</g>
<!-- Node6&#45;&gt;Node7 -->
<g id="edge6" class="edge"><title>Node6&#45;&gt;Node7</title>
<path fill="none" stroke="midnightblue" d="M637.174,-64C656.238,-64 676.493,-64 695.351,-64"/>
<polygon fill="midnightblue" stroke="midnightblue" points="637.026,-60.5001 627.026,-64 637.026,-67.5001 637.026,-60.5001"/>
</g>
</g>
</svg>
