<?xml version="1.0" encoding="UTF-8" standalone="no"?>
<!DOCTYPE svg PUBLIC "-//W3C//DTD SVG 1.1//EN"
 "http://www.w3.org/Graphics/SVG/1.1/DTD/svg11.dtd">
<!-- Generated by graphviz version 2.36.0 (20140111.2315)
 -->
<!-- Title: backEnd.turtle.TurtleManager.addNewTurtle Pages: 1 -->
<svg width="1074pt" height="136pt"
 viewBox="0.00 0.00 1074.00 136.00" xmlns="http://www.w3.org/2000/svg" xmlns:xlink="http://www.w3.org/1999/xlink">
<g id="graph0" class="graph" transform="scale(1 1) rotate(0) translate(4 132)">
<title>backEnd.turtle.TurtleManager.addNewTurtle</title>
<polygon fill="white" stroke="none" points="-4,4 -4,-132 1070,-132 1070,4 -4,4"/>
<!-- Node1 -->
<g id="node1" class="node"><title>Node1</title>
<polygon fill="#bfbfbf" stroke="black" points="0,-24 0,-54 176,-54 176,-24 0,-24"/>
<text text-anchor="start" x="8" y="-42" font-family="Helvetica,sans-Serif" font-size="10.00">backEnd.turtle.TurtleManager.add</text>
<text text-anchor="middle" x="88" y="-31" font-family="Helvetica,sans-Serif" font-size="10.00">NewTurtle</text>
</g>
<!-- Node2 -->
<g id="node2" class="node"><title>Node2</title>
<g id="a_node2"><a xlink:href="../../d4/d07/classback_end_1_1turtle_1_1_turtle_manager.html#a84ec440cfc5cbefdfab52c661599b956" target="_top" xlink:title="backEnd.turtle.TurtleManager.create\lTurtleList">
<polygon fill="white" stroke="black" points="212.5,-24 212.5,-54 401.5,-54 401.5,-24 212.5,-24"/>
<text text-anchor="start" x="220.5" y="-42" font-family="Helvetica,sans-Serif" font-size="10.00">backEnd.turtle.TurtleManager.create</text>
<text text-anchor="middle" x="307" y="-31" font-family="Helvetica,sans-Serif" font-size="10.00">TurtleList</text>
</a>
</g>
</g>
<!-- Node1&#45;&gt;Node2 -->
<g id="edge1" class="edge"><title>Node1&#45;&gt;Node2</title>
<path fill="none" stroke="midnightblue" d="M186.132,-39C194.803,-39 203.571,-39 212.213,-39"/>
<polygon fill="midnightblue" stroke="midnightblue" points="186.012,-35.5001 176.012,-39 186.012,-42.5001 186.012,-35.5001"/>
</g>
<!-- Node3 -->
<g id="node3" class="node"><title>Node3</title>
<g id="a_node3"><a xlink:href="../../d4/d07/classback_end_1_1turtle_1_1_turtle_manager.html#ac514debd7deab42db9d2f5337359ea6a" target="_top" xlink:title="backEnd.turtle.TurtleManager.update\lActiveTurtleList">
<polygon fill="white" stroke="black" points="438,-49 438,-79 630,-79 630,-49 438,-49"/>
<text text-anchor="start" x="446" y="-67" font-family="Helvetica,sans-Serif" font-size="10.00">backEnd.turtle.TurtleManager.update</text>
<text text-anchor="middle" x="534" y="-56" font-family="Helvetica,sans-Serif" font-size="10.00">ActiveTurtleList</text>
</a>
</g>
</g>
<!-- Node2&#45;&gt;Node3 -->
<g id="edge2" class="edge"><title>Node2&#45;&gt;Node3</title>
<path fill="none" stroke="midnightblue" d="M411.919,-50.5466C420.585,-51.5094 429.318,-52.4798 437.913,-53.4348"/>
<polygon fill="midnightblue" stroke="midnightblue" points="412.116,-47.047 401.791,-49.4212 411.343,-54.0042 412.116,-47.047"/>
</g>
<!-- Node7 -->
<g id="node7" class="node"><title>Node7</title>
<g id="a_node7"><a xlink:href="../../d4/d07/classback_end_1_1turtle_1_1_turtle_manager.html#ad8328ab562caaff3f28ff7318542fe8d" target="_top" xlink:title="backEnd.turtle.TurtleManager.add\lTemporaryTurtleList">
<polygon fill="white" stroke="black" points="446,-0 446,-30 622,-30 622,-0 446,-0"/>
<text text-anchor="start" x="454" y="-18" font-family="Helvetica,sans-Serif" font-size="10.00">backEnd.turtle.TurtleManager.add</text>
<text text-anchor="middle" x="534" y="-7" font-family="Helvetica,sans-Serif" font-size="10.00">TemporaryTurtleList</text>
</a>
</g>
</g>
<!-- Node2&#45;&gt;Node7 -->
<g id="edge6" class="edge"><title>Node2&#45;&gt;Node7</title>
<path fill="none" stroke="midnightblue" d="M411.762,-27.932C423.158,-26.7165 434.674,-25.4881 445.839,-24.2972"/>
<polygon fill="midnightblue" stroke="midnightblue" points="411.363,-24.4546 401.791,-28.9956 412.106,-31.4151 411.363,-24.4546"/>
</g>
<!-- Node4 -->
<g id="node4" class="node"><title>Node4</title>
<g id="a_node4"><a xlink:href="../../d9/d98/classback_end_1_1_model.html#a0c1150b8c4ffe07001a42b5d4cdacbd2" target="_top" xlink:title="backEnd.Model.setupTurtle\lManager">
<polygon fill="white" stroke="black" points="695,-98 695,-128 839,-128 839,-98 695,-98"/>
<text text-anchor="start" x="703" y="-116" font-family="Helvetica,sans-Serif" font-size="10.00">backEnd.Model.setupTurtle</text>
<text text-anchor="middle" x="767" y="-105" font-family="Helvetica,sans-Serif" font-size="10.00">Manager</text>
</a>
</g>
</g>
<!-- Node3&#45;&gt;Node4 -->
<g id="edge3" class="edge"><title>Node3&#45;&gt;Node4</title>
<path fill="none" stroke="midnightblue" d="M615.674,-81.1127C641.597,-86.6115 670.102,-92.658 695.257,-97.9938"/>
<polygon fill="midnightblue" stroke="midnightblue" points="616.386,-77.6859 605.877,-79.0346 614.934,-84.5336 616.386,-77.6859"/>
</g>
<!-- Node6 -->
<g id="node6" class="node"><title>Node6</title>
<g id="a_node6"><a xlink:href="../../d1/d00/classcommands_1_1turtle__commands_1_1_tell_command.html#a5b187b4609637fee3e88d2a51681db1a" target="_top" xlink:title="commands.turtle_commands.\lTellCommand.execute">
<polygon fill="white" stroke="black" points="686.5,-49 686.5,-79 847.5,-79 847.5,-49 686.5,-49"/>
<text text-anchor="start" x="694.5" y="-67" font-family="Helvetica,sans-Serif" font-size="10.00">commands.turtle_commands.</text>
<text text-anchor="middle" x="767" y="-56" font-family="Helvetica,sans-Serif" font-size="10.00">TellCommand.execute</text>
</a>
</g>
</g>
<!-- Node3&#45;&gt;Node6 -->
<g id="edge5" class="edge"><title>Node3&#45;&gt;Node6</title>
<path fill="none" stroke="midnightblue" d="M640.398,-64C655.85,-64 671.546,-64 686.366,-64"/>
<polygon fill="midnightblue" stroke="midnightblue" points="640.29,-60.5001 630.29,-64 640.29,-67.5001 640.29,-60.5001"/>
</g>
<!-- Node5 -->
<g id="node5" class="node"><title>Node5</title>
<g id="a_node5"><a xlink:href="../../d9/d49/classback_end_1_1_controller.html#a987136eaba0798749f393bac2a9a2400" target="_top" xlink:title="backEnd.Controller.Controller">
<polygon fill="white" stroke="black" points="907.5,-103.5 907.5,-122.5 1062.5,-122.5 1062.5,-103.5 907.5,-103.5"/>
<text text-anchor="middle" x="985" y="-110.5" font-family="Helvetica,sans-Serif" font-size="10.00">backEnd.Controller.Controller</text>
</a>
</g>
</g>
<!-- Node4&#45;&gt;Node5 -->
<g id="edge4" class="edge"><title>Node4&#45;&gt;Node5</title>
<path fill="none" stroke="midnightblue" d="M849.174,-113C868.238,-113 888.493,-113 907.351,-113"/>
<polygon fill="midnightblue" stroke="midnightblue" points="849.026,-109.5 839.026,-113 849.026,-116.5 849.026,-109.5"/>
</g>
<!-- Node8 -->
<g id="node8" class="node"><title>Node8</title>
<g id="a_node8"><a xlink:href="../../da/d20/classcommands_1_1turtle__commands_1_1_ask_command.html#aad8e3c73b091789febe536557fc8bd7d" target="_top" xlink:title="commands.turtle_commands.\lAskCommand.executeTurtleCommand">
<polygon fill="white" stroke="black" points="666.5,-0 666.5,-30 867.5,-30 867.5,-0 666.5,-0"/>
<text text-anchor="start" x="674.5" y="-18" font-family="Helvetica,sans-Serif" font-size="10.00">commands.turtle_commands.</text>
<text text-anchor="middle" x="767" y="-7" font-family="Helvetica,sans-Serif" font-size="10.00">AskCommand.executeTurtleCommand</text>
</a>
</g>
</g>
<!-- Node7&#45;&gt;Node8 -->
<g id="edge7" class="edge"><title>Node7&#45;&gt;Node8</title>
<path fill="none" stroke="midnightblue" d="M632.256,-15C643.507,-15 654.995,-15 666.279,-15"/>
<polygon fill="midnightblue" stroke="midnightblue" points="632.002,-11.5001 622.002,-15 632.002,-18.5001 632.002,-11.5001"/>
</g>
<!-- Node9 -->
<g id="node9" class="node"><title>Node9</title>
<g id="a_node9"><a xlink:href="../../da/d20/classcommands_1_1turtle__commands_1_1_ask_command.html#a9f668e7b2778cf4241b59b11db58e211" target="_top" xlink:title="commands.turtle_commands.\lAskCommand.execute">
<polygon fill="white" stroke="black" points="904.5,-0 904.5,-30 1065.5,-30 1065.5,-0 904.5,-0"/>
<text text-anchor="start" x="912.5" y="-18" font-family="Helvetica,sans-Serif" font-size="10.00">commands.turtle_commands.</text>
<text text-anchor="middle" x="985" y="-7" font-family="Helvetica,sans-Serif" font-size="10.00">AskCommand.execute</text>
</a>
</g>
</g>
<!-- Node8&#45;&gt;Node9 -->
<g id="edge8" class="edge"><title>Node8&#45;&gt;Node9</title>
<path fill="none" stroke="midnightblue" d="M877.864,-15C886.801,-15 895.721,-15 904.378,-15"/>
<polygon fill="midnightblue" stroke="midnightblue" points="877.781,-11.5001 867.781,-15 877.78,-18.5001 877.781,-11.5001"/>
</g>
</g>
</svg>
