<?xml version="1.0" encoding="UTF-8" standalone="no"?>
<!DOCTYPE svg PUBLIC "-//W3C//DTD SVG 1.1//EN"
 "http://www.w3.org/Graphics/SVG/1.1/DTD/svg11.dtd">
<!-- Generated by graphviz version 2.36.0 (20140111.2315)
 -->
<!-- Title: backEnd.turtle.TurtleManager.getNumberOfTurtles Pages: 1 -->
<svg width="632pt" height="38pt"
 viewBox="0.00 0.00 632.00 38.00" xmlns="http://www.w3.org/2000/svg" xmlns:xlink="http://www.w3.org/1999/xlink">
<g id="graph0" class="graph" transform="scale(1 1) rotate(0) translate(4 34)">
<title>backEnd.turtle.TurtleManager.getNumberOfTurtles</title>
<polygon fill="white" stroke="none" points="-4,4 -4,-34 628,-34 628,4 -4,4"/>
<!-- Node1 -->
<g id="node1" class="node"><title>Node1</title>
<polygon fill="#bfbfbf" stroke="black" points="0,-0 0,-30 174,-30 174,-0 0,-0"/>
<text text-anchor="start" x="8" y="-18" font-family="Helvetica,sans-Serif" font-size="10.00">backEnd.turtle.TurtleManager.get</text>
<text text-anchor="middle" x="87" y="-7" font-family="Helvetica,sans-Serif" font-size="10.00">NumberOfTurtles</text>
</g>
<!-- Node2 -->
<g id="node2" class="node"><title>Node2</title>
<g id="a_node2"><a xlink:href="../../d4/da8/classcommands_1_1turtle__commands_1_1_turtles_command.html#a89b33996a22b597da85fd6553c7a3af1" target="_top" xlink:title="commands.turtle_commands.\lTurtlesCommand.executeTurtleCommand">
<polygon fill="white" stroke="black" points="210.5,-0 210.5,-30 425.5,-30 425.5,-0 210.5,-0"/>
<text text-anchor="start" x="218.5" y="-18" font-family="Helvetica,sans-Serif" font-size="10.00">commands.turtle_commands.</text>
<text text-anchor="middle" x="318" y="-7" font-family="Helvetica,sans-Serif" font-size="10.00">TurtlesCommand.executeTurtleCommand</text>
</a>
</g>
</g>
<!-- Node1&#45;&gt;Node2 -->
<g id="edge1" class="edge"><title>Node1&#45;&gt;Node2</title>
<path fill="none" stroke="midnightblue" d="M184.287,-15C192.903,-15 201.66,-15 210.357,-15"/>
<polygon fill="midnightblue" stroke="midnightblue" points="184.249,-11.5001 174.249,-15 184.249,-18.5001 184.249,-11.5001"/>
</g>
<!-- Node3 -->
<g id="node3" class="node"><title>Node3</title>
<g id="a_node3"><a xlink:href="../../d4/da8/classcommands_1_1turtle__commands_1_1_turtles_command.html#a7381223a6f538fcfb9f630f656dd6385" target="_top" xlink:title="commands.turtle_commands.\lTurtlesCommand.execute">
<polygon fill="white" stroke="black" points="462.5,-0 462.5,-30 623.5,-30 623.5,-0 462.5,-0"/>
<text text-anchor="start" x="470.5" y="-18" font-family="Helvetica,sans-Serif" font-size="10.00">commands.turtle_commands.</text>
<text text-anchor="middle" x="543" y="-7" font-family="Helvetica,sans-Serif" font-size="10.00">TurtlesCommand.execute</text>
</a>
</g>
</g>
<!-- Node2&#45;&gt;Node3 -->
<g id="edge2" class="edge"><title>Node2&#45;&gt;Node3</title>
<path fill="none" stroke="midnightblue" d="M435.712,-15C444.66,-15 453.564,-15 462.192,-15"/>
<polygon fill="midnightblue" stroke="midnightblue" points="435.602,-11.5001 425.601,-15 435.601,-18.5001 435.602,-11.5001"/>
</g>
</g>
</svg>
