<?xml version="1.0" encoding="UTF-8" standalone="no"?>
<!DOCTYPE svg PUBLIC "-//W3C//DTD SVG 1.1//EN"
 "http://www.w3.org/Graphics/SVG/1.1/DTD/svg11.dtd">
<!-- Generated by graphviz version 2.36.0 (20140111.2315)
 -->
<!-- Title: backEnd.turtle.TurtleManager.updateActiveTurtleList Pages: 1 -->
<svg width="590pt" height="87pt"
 viewBox="0.00 0.00 590.00 87.00" xmlns="http://www.w3.org/2000/svg" xmlns:xlink="http://www.w3.org/1999/xlink">
<g id="graph0" class="graph" transform="scale(1 1) rotate(0) translate(4 83)">
<title>backEnd.turtle.TurtleManager.updateActiveTurtleList</title>
<polygon fill="white" stroke="none" points="-4,4 -4,-83 586,-83 586,4 -4,4"/>
<!-- Node1 -->
<g id="node1" class="node"><title>Node1</title>
<polygon fill="#bfbfbf" stroke="black" points="0,-24 0,-54 192,-54 192,-24 0,-24"/>
<text text-anchor="start" x="8" y="-42" font-family="Helvetica,sans-Serif" font-size="10.00">backEnd.turtle.TurtleManager.update</text>
<text text-anchor="middle" x="96" y="-31" font-family="Helvetica,sans-Serif" font-size="10.00">ActiveTurtleList</text>
</g>
<!-- Node2 -->
<g id="node2" class="node"><title>Node2</title>
<g id="a_node2"><a xlink:href="../../d1/d00/classcommands_1_1turtle__commands_1_1_tell_command.html#a5b187b4609637fee3e88d2a51681db1a" target="_top" xlink:title="commands.turtle_commands.\lTellCommand.execute">
<polygon fill="white" stroke="black" points="228.5,-49 228.5,-79 389.5,-79 389.5,-49 228.5,-49"/>
<text text-anchor="start" x="236.5" y="-67" font-family="Helvetica,sans-Serif" font-size="10.00">commands.turtle_commands.</text>
<text text-anchor="middle" x="309" y="-56" font-family="Helvetica,sans-Serif" font-size="10.00">TellCommand.execute</text>
</a>
</g>
</g>
<!-- Node1&#45;&gt;Node2 -->
<g id="edge1" class="edge"><title>Node1&#45;&gt;Node2</title>
<path fill="none" stroke="midnightblue" d="M201.995,-51.4402C210.856,-52.49 219.721,-53.5404 228.342,-54.5618"/>
<polygon fill="midnightblue" stroke="midnightblue" points="202.349,-47.9577 192.007,-50.2567 201.525,-54.9091 202.349,-47.9577"/>
</g>
<!-- Node3 -->
<g id="node3" class="node"><title>Node3</title>
<g id="a_node3"><a xlink:href="../../d9/d98/classback_end_1_1_model.html#a0c1150b8c4ffe07001a42b5d4cdacbd2" target="_top" xlink:title="backEnd.Model.setupTurtle\lManager">
<polygon fill="white" stroke="black" points="237,-0 237,-30 381,-30 381,-0 237,-0"/>
<text text-anchor="start" x="245" y="-18" font-family="Helvetica,sans-Serif" font-size="10.00">backEnd.Model.setupTurtle</text>
<text text-anchor="middle" x="309" y="-7" font-family="Helvetica,sans-Serif" font-size="10.00">Manager</text>
</a>
</g>
</g>
<!-- Node1&#45;&gt;Node3 -->
<g id="edge2" class="edge"><title>Node1&#45;&gt;Node3</title>
<path fill="none" stroke="midnightblue" d="M202.297,-27.0231C214.023,-25.6893 225.753,-24.3551 236.907,-23.0864"/>
<polygon fill="midnightblue" stroke="midnightblue" points="201.547,-23.5857 192.007,-28.1936 202.338,-30.5409 201.547,-23.5857"/>
</g>
<!-- Node4 -->
<g id="node4" class="node"><title>Node4</title>
<g id="a_node4"><a xlink:href="../../d9/d49/classback_end_1_1_controller.html#a987136eaba0798749f393bac2a9a2400" target="_top" xlink:title="backEnd.Controller.Controller">
<polygon fill="white" stroke="black" points="426.5,-5.5 426.5,-24.5 581.5,-24.5 581.5,-5.5 426.5,-5.5"/>
<text text-anchor="middle" x="504" y="-12.5" font-family="Helvetica,sans-Serif" font-size="10.00">backEnd.Controller.Controller</text>
</a>
</g>
</g>
<!-- Node3&#45;&gt;Node4 -->
<g id="edge3" class="edge"><title>Node3&#45;&gt;Node4</title>
<path fill="none" stroke="midnightblue" d="M391.166,-15C402.793,-15 414.725,-15 426.264,-15"/>
<polygon fill="midnightblue" stroke="midnightblue" points="391.044,-11.5001 381.044,-15 391.044,-18.5001 391.044,-11.5001"/>
</g>
</g>
</svg>
