<?xml version="1.0" encoding="UTF-8" standalone="no"?>
<!DOCTYPE svg PUBLIC "-//W3C//DTD SVG 1.1//EN"
 "http://www.w3.org/Graphics/SVG/1.1/DTD/svg11.dtd">
<!-- Generated by graphviz version 2.36.0 (20140111.2315)
 -->
<!-- Title: backEnd.VariableManager.pushVarProperties Pages: 1 -->
<svg width="384pt" height="87pt"
 viewBox="0.00 0.00 384.00 87.00" xmlns="http://www.w3.org/2000/svg" xmlns:xlink="http://www.w3.org/1999/xlink">
<g id="graph0" class="graph" transform="scale(1 1) rotate(0) translate(4 83)">
<title>backEnd.VariableManager.pushVarProperties</title>
<polygon fill="white" stroke="none" points="-4,4 -4,-83 380,-83 380,4 -4,4"/>
<!-- Node1 -->
<g id="node1" class="node"><title>Node1</title>
<polygon fill="#bfbfbf" stroke="black" points="0,-24 0,-54 166,-54 166,-24 0,-24"/>
<text text-anchor="start" x="8" y="-42" font-family="Helvetica,sans-Serif" font-size="10.00">backEnd.VariableManager.push</text>
<text text-anchor="middle" x="83" y="-31" font-family="Helvetica,sans-Serif" font-size="10.00">VarProperties</text>
</g>
<!-- Node2 -->
<g id="node2" class="node"><title>Node2</title>
<g id="a_node2"><a xlink:href="../../db/de1/classcommands_1_1variable__commands_1_1_do_times_command.html#a253ff97841bc0d124f96d90484e2dbe5" target="_top" xlink:title="commands.variable_commands.\lDoTimesCommand.execute">
<polygon fill="white" stroke="black" points="202.5,-49 202.5,-79 375.5,-79 375.5,-49 202.5,-49"/>
<text text-anchor="start" x="210.5" y="-67" font-family="Helvetica,sans-Serif" font-size="10.00">commands.variable_commands.</text>
<text text-anchor="middle" x="289" y="-56" font-family="Helvetica,sans-Serif" font-size="10.00">DoTimesCommand.execute</text>
</a>
</g>
</g>
<!-- Node1&#45;&gt;Node2 -->
<g id="edge1" class="edge"><title>Node1&#45;&gt;Node2</title>
<path fill="none" stroke="midnightblue" d="M176.256,-50.3059C184.965,-51.3731 193.769,-52.4521 202.412,-53.5112"/>
<polygon fill="midnightblue" stroke="midnightblue" points="176.444,-46.8029 166.093,-49.0604 175.593,-53.7509 176.444,-46.8029"/>
</g>
<!-- Node3 -->
<g id="node3" class="node"><title>Node3</title>
<g id="a_node3"><a xlink:href="../../d4/d35/classcommands_1_1variable__commands_1_1_user_defined_command.html#a4e7e699bc6b996e652d21c012c2106aa" target="_top" xlink:title="commands.variable_commands.\lUserDefinedCommand.execute">
<polygon fill="white" stroke="black" points="202.5,-0 202.5,-30 375.5,-30 375.5,-0 202.5,-0"/>
<text text-anchor="start" x="210.5" y="-18" font-family="Helvetica,sans-Serif" font-size="10.00">commands.variable_commands.</text>
<text text-anchor="middle" x="289" y="-7" font-family="Helvetica,sans-Serif" font-size="10.00">UserDefinedCommand.execute</text>
</a>
</g>
</g>
<!-- Node1&#45;&gt;Node3 -->
<g id="edge2" class="edge"><title>Node1&#45;&gt;Node3</title>
<path fill="none" stroke="midnightblue" d="M176.256,-28.1463C184.965,-27.1218 193.769,-26.086 202.412,-25.0692"/>
<polygon fill="midnightblue" stroke="midnightblue" points="175.615,-24.6975 166.093,-29.342 176.433,-31.6496 175.615,-24.6975"/>
</g>
</g>
</svg>
