<?xml version="1.0" encoding="UTF-8" standalone="no"?>
<!DOCTYPE svg PUBLIC "-//W3C//DTD SVG 1.1//EN"
 "http://www.w3.org/Graphics/SVG/1.1/DTD/svg11.dtd">
<!-- Generated by graphviz version 2.36.0 (20140111.2315)
 -->
<!-- Title: backEnd.VariableManager.addVar Pages: 1 -->
<svg width="394pt" height="87pt"
 viewBox="0.00 0.00 394.00 87.00" xmlns="http://www.w3.org/2000/svg" xmlns:xlink="http://www.w3.org/1999/xlink">
<g id="graph0" class="graph" transform="scale(1 1) rotate(0) translate(4 83)">
<title>backEnd.VariableManager.addVar</title>
<polygon fill="white" stroke="none" points="-4,4 -4,-83 390,-83 390,4 -4,4"/>
<!-- Node1 -->
<g id="node1" class="node"><title>Node1</title>
<polygon fill="#bfbfbf" stroke="black" points="0,-29.5 0,-48.5 176,-48.5 176,-29.5 0,-29.5"/>
<text text-anchor="middle" x="88" y="-36.5" font-family="Helvetica,sans-Serif" font-size="10.00">backEnd.VariableManager.addVar</text>
</g>
<!-- Node2 -->
<g id="node2" class="node"><title>Node2</title>
<g id="a_node2"><a xlink:href="../../da/d32/classcommands_1_1variable__commands_1_1_make_command.html#a9dfc6c7ab19bf5fddd2f77a8a57cf478" target="_top" xlink:title="commands.variable_commands.\lMakeCommand.execute">
<polygon fill="white" stroke="black" points="212.5,-49 212.5,-79 385.5,-79 385.5,-49 212.5,-49"/>
<text text-anchor="start" x="220.5" y="-67" font-family="Helvetica,sans-Serif" font-size="10.00">commands.variable_commands.</text>
<text text-anchor="middle" x="299" y="-56" font-family="Helvetica,sans-Serif" font-size="10.00">MakeCommand.execute</text>
</a>
</g>
</g>
<!-- Node1&#45;&gt;Node2 -->
<g id="edge1" class="edge"><title>Node1&#45;&gt;Node2</title>
<path fill="none" stroke="midnightblue" d="M178.762,-49.7371C189.902,-51.0696 201.27,-52.4295 212.346,-53.7543"/>
<polygon fill="midnightblue" stroke="midnightblue" points="178.955,-46.2353 168.61,-48.5227 178.124,-53.1858 178.955,-46.2353"/>
</g>
<!-- Node3 -->
<g id="node3" class="node"><title>Node3</title>
<g id="a_node3"><a xlink:href="../../d5/d12/classcommands_1_1variable__commands_1_1_for_command.html#af6af8e22454fd04fe9c3f1d53025ac69" target="_top" xlink:title="commands.variable_commands.\lForCommand.execute">
<polygon fill="white" stroke="black" points="212.5,-0 212.5,-30 385.5,-30 385.5,-0 212.5,-0"/>
<text text-anchor="start" x="220.5" y="-18" font-family="Helvetica,sans-Serif" font-size="10.00">commands.variable_commands.</text>
<text text-anchor="middle" x="299" y="-7" font-family="Helvetica,sans-Serif" font-size="10.00">ForCommand.execute</text>
</a>
</g>
</g>
<!-- Node1&#45;&gt;Node3 -->
<g id="edge2" class="edge"><title>Node1&#45;&gt;Node3</title>
<path fill="none" stroke="midnightblue" d="M181.981,-28.3228C192.122,-27.1582 202.41,-25.9768 212.456,-24.8232"/>
<polygon fill="midnightblue" stroke="midnightblue" points="181.438,-24.862 171.903,-29.4801 182.237,-31.8163 181.438,-24.862"/>
</g>
</g>
</svg>
