<?xml version="1.0" encoding="UTF-8" standalone="no"?>
<!DOCTYPE svg PUBLIC "-//W3C//DTD SVG 1.1//EN"
 "http://www.w3.org/Graphics/SVG/1.1/DTD/svg11.dtd">
<!-- Generated by graphviz version 2.36.0 (20140111.2315)
 -->
<!-- Title: backEnd.VariableManager.writeVarsToFile Pages: 1 -->
<!--zoomable 185 -->
<svg id="main" version="1.1" xmlns="http://www.w3.org/2000/svg" xmlns:xlink="http://www.w3.org/1999/xlink" xml:space="preserve" onload="init(evt)">
<style type="text/css"><![CDATA[
.edge:hover path { stroke: red; }
.edge:hover polygon { stroke: red; fill: red; }
]]></style>
<script type="text/javascript"><![CDATA[
var edges = document.getElementsByTagName('g');
if (edges && edges.length) {
  for (var i=0;i<edges.length;i++) {
    if (edges[i].id.substr(0,4)=='edge') {
      edges[i].setAttribute('class','edge');
    }
  }
}
]]></script>
        <defs>
                <circle id="rim" cx="0" cy="0" r="7"/>
                <circle id="rim2" cx="0" cy="0" r="3.5"/>
                <g id="zoomPlus">
                        <use xlink:href="#rim" fill="#404040">
                                <set attributeName="fill" to="#808080" begin="zoomplus.mouseover" end="zoomplus.mouseout"/>
                        </use>
                        <path d="M-4,0h8M0,-4v8" fill="none" stroke="white" stroke-width="1.5" pointer-events="none"/>
                </g>
                <g id="zoomMin">
                        <use xlink:href="#rim" fill="#404040">
                                <set attributeName="fill" to="#808080" begin="zoomminus.mouseover" end="zoomminus.mouseout"/>
                        </use>
                        <path d="M-4,0h8" fill="none" stroke="white" stroke-width="1.5" pointer-events="none"/>
                </g>
                <g id="dirArrow">
                        <path fill="none" stroke="white" stroke-width="1.5" d="M0,-3.0v7 M-2.5,-0.5L0,-3.0L2.5,-0.5"/>
                </g>
               <g id="resetDef">
                       <use xlink:href="#rim2" fill="#404040">
                               <set attributeName="fill" to="#808080" begin="reset.mouseover" end="reset.mouseout"/>
                       </use>
               </g>
        </defs>

<script type="text/javascript">
var viewWidth = 596;
var viewHeight = 185;
var sectionId = 'dynsection-11';
</script>
<script xlink:href="../../svgpan.js"/>
<svg id="graph" class="graph">
<g id="viewport">
<title>backEnd.VariableManager.writeVarsToFile</title>
<polygon fill="white" stroke="none" points="-4,4 -4,-181 592,-181 592,4 -4,4"/>
<!-- Node1 -->
<g id="node1" class="node"><title>Node1</title>
<polygon fill="#bfbfbf" stroke="black" points="0.5,-49 0.5,-79 165.5,-79 165.5,-49 0.5,-49"/>
<text text-anchor="start" x="8.5" y="-67" font-family="Helvetica,sans-Serif" font-size="10.00">backEnd.VariableManager.write</text>
<text text-anchor="middle" x="83" y="-56" font-family="Helvetica,sans-Serif" font-size="10.00">VarsToFile</text>
</g>
<!-- Node2 -->
<g id="node2" class="node"><title>Node2</title>
<g id="a_node2"><a xlink:href="../../d8/d6a/classback_end_1_1_variable_manager.html#a4e95d5d32265cdc2ad3a3c96bc248ef0" target="_top" xlink:title="backEnd.VariableManager.addVar">
<polygon fill="white" stroke="black" points="202,-103.5 202,-122.5 378,-122.5 378,-103.5 202,-103.5"/>
<text text-anchor="middle" x="290" y="-110.5" font-family="Helvetica,sans-Serif" font-size="10.00">backEnd.VariableManager.addVar</text>
</a>
</g>
</g>
<!-- Node1&#45;&gt;Node2 -->
<g id="edge1" class="edge"><title>Node1&#45;&gt;Node2</title>
<path fill="none" stroke="midnightblue" d="M156.831,-81.4083C187.898,-88.834 222.944,-97.2109 249.138,-103.472"/>
<polygon fill="midnightblue" stroke="midnightblue" points="157.44,-77.9553 146.9,-79.0346 155.812,-84.7636 157.44,-77.9553"/>
</g>
<!-- Node5 -->
<g id="node5" class="node"><title>Node5</title>
<g id="a_node5"><a xlink:href="../../d8/d6a/classback_end_1_1_variable_manager.html#ab5a2479748c71a1a11734df41ffffbbc" target="_top" xlink:title="backEnd.VariableManager.pop\lVarProperties">
<polygon fill="white" stroke="black" points="209.5,-0 209.5,-30 370.5,-30 370.5,-0 209.5,-0"/>
<text text-anchor="start" x="217.5" y="-18" font-family="Helvetica,sans-Serif" font-size="10.00">backEnd.VariableManager.pop</text>
<text text-anchor="middle" x="290" y="-7" font-family="Helvetica,sans-Serif" font-size="10.00">VarProperties</text>
</a>
</g>
</g>
<!-- Node1&#45;&gt;Node5 -->
<g id="edge4" class="edge"><title>Node1&#45;&gt;Node5</title>
<path fill="none" stroke="midnightblue" d="M156.812,-46.5962C179.49,-41.1757 204.289,-35.248 226.219,-30.0062"/>
<polygon fill="midnightblue" stroke="midnightblue" points="155.812,-43.2364 146.9,-48.9654 157.44,-50.0447 155.812,-43.2364"/>
</g>
<!-- Node8 -->
<g id="node8" class="node"><title>Node8</title>
<g id="a_node8"><a xlink:href="../../d8/d6a/classback_end_1_1_variable_manager.html#a4a9b2d97f80304599d18d68700ea8b90" target="_top" xlink:title="backEnd.VariableManager.push\lVarProperties">
<polygon fill="white" stroke="black" points="207,-49 207,-79 373,-79 373,-49 207,-49"/>
<text text-anchor="start" x="215" y="-67" font-family="Helvetica,sans-Serif" font-size="10.00">backEnd.VariableManager.push</text>
<text text-anchor="middle" x="290" y="-56" font-family="Helvetica,sans-Serif" font-size="10.00">VarProperties</text>
</a>
</g>
</g>
<!-- Node1&#45;&gt;Node8 -->
<g id="edge7" class="edge"><title>Node1&#45;&gt;Node8</title>
<path fill="none" stroke="midnightblue" d="M175.823,-64C186.098,-64 196.519,-64 206.665,-64"/>
<polygon fill="midnightblue" stroke="midnightblue" points="175.61,-60.5001 165.61,-64 175.61,-67.5001 175.61,-60.5001"/>
</g>
<!-- Node3 -->
<g id="node3" class="node"><title>Node3</title>
<g id="a_node3"><a xlink:href="../../da/d32/classcommands_1_1variable__commands_1_1_make_command.html#a9dfc6c7ab19bf5fddd2f77a8a57cf478" target="_top" xlink:title="commands.variable_commands.\lMakeCommand.execute">
<polygon fill="white" stroke="black" points="414.5,-147 414.5,-177 587.5,-177 587.5,-147 414.5,-147"/>
<text text-anchor="start" x="422.5" y="-165" font-family="Helvetica,sans-Serif" font-size="10.00">commands.variable_commands.</text>
<text text-anchor="middle" x="501" y="-154" font-family="Helvetica,sans-Serif" font-size="10.00">MakeCommand.execute</text>
</a>
</g>
</g>
<!-- Node2&#45;&gt;Node3 -->
<g id="edge2" class="edge"><title>Node2&#45;&gt;Node3</title>
<path fill="none" stroke="midnightblue" d="M341.871,-124.927C370.173,-131.562 405.673,-139.885 435.863,-146.963"/>
<polygon fill="midnightblue" stroke="midnightblue" points="342.328,-121.439 331.793,-122.564 340.731,-128.254 342.328,-121.439"/>
</g>
<!-- Node4 -->
<g id="node4" class="node"><title>Node4</title>
<g id="a_node4"><a xlink:href="../../d5/d12/classcommands_1_1variable__commands_1_1_for_command.html#af6af8e22454fd04fe9c3f1d53025ac69" target="_top" xlink:title="commands.variable_commands.\lForCommand.execute">
<polygon fill="white" stroke="black" points="414.5,-98 414.5,-128 587.5,-128 587.5,-98 414.5,-98"/>
<text text-anchor="start" x="422.5" y="-116" font-family="Helvetica,sans-Serif" font-size="10.00">commands.variable_commands.</text>
<text text-anchor="middle" x="501" y="-105" font-family="Helvetica,sans-Serif" font-size="10.00">ForCommand.execute</text>
</a>
</g>
</g>
<!-- Node2&#45;&gt;Node4 -->
<g id="edge3" class="edge"><title>Node2&#45;&gt;Node4</title>
<path fill="none" stroke="midnightblue" d="M388.293,-113C396.997,-113 405.768,-113 414.362,-113"/>
<polygon fill="midnightblue" stroke="midnightblue" points="388.121,-109.5 378.121,-113 388.121,-116.5 388.121,-109.5"/>
</g>
<!-- Node6 -->
<g id="node6" class="node"><title>Node6</title>
<g id="a_node6"><a xlink:href="../../db/de1/classcommands_1_1variable__commands_1_1_do_times_command.html#a253ff97841bc0d124f96d90484e2dbe5" target="_top" xlink:title="commands.variable_commands.\lDoTimesCommand.execute">
<polygon fill="white" stroke="black" points="414.5,-49 414.5,-79 587.5,-79 587.5,-49 414.5,-49"/>
<text text-anchor="start" x="422.5" y="-67" font-family="Helvetica,sans-Serif" font-size="10.00">commands.variable_commands.</text>
<text text-anchor="middle" x="501" y="-56" font-family="Helvetica,sans-Serif" font-size="10.00">DoTimesCommand.execute</text>
</a>
</g>
</g>
<!-- Node5&#45;&gt;Node6 -->
<g id="edge5" class="edge"><title>Node5&#45;&gt;Node6</title>
<path fill="none" stroke="midnightblue" d="M364.922,-32.3309C388.126,-37.7712 413.536,-43.7285 435.994,-48.9938"/>
<polygon fill="midnightblue" stroke="midnightblue" points="365.662,-28.9097 355.127,-30.0346 364.064,-35.7249 365.662,-28.9097"/>
</g>
<!-- Node7 -->
<g id="node7" class="node"><title>Node7</title>
<g id="a_node7"><a xlink:href="../../d4/d35/classcommands_1_1variable__commands_1_1_user_defined_command.html#a4e7e699bc6b996e652d21c012c2106aa" target="_top" xlink:title="commands.variable_commands.\lUserDefinedCommand.execute">
<polygon fill="white" stroke="black" points="414.5,-0 414.5,-30 587.5,-30 587.5,-0 414.5,-0"/>
<text text-anchor="start" x="422.5" y="-18" font-family="Helvetica,sans-Serif" font-size="10.00">commands.variable_commands.</text>
<text text-anchor="middle" x="501" y="-7" font-family="Helvetica,sans-Serif" font-size="10.00">UserDefinedCommand.execute</text>
</a>
</g>
</g>
<!-- Node5&#45;&gt;Node7 -->
<g id="edge6" class="edge"><title>Node5&#45;&gt;Node7</title>
<path fill="none" stroke="midnightblue" d="M380.762,-15C391.902,-15 403.27,-15 414.346,-15"/>
<polygon fill="midnightblue" stroke="midnightblue" points="380.61,-11.5001 370.61,-15 380.61,-18.5001 380.61,-11.5001"/>
</g>
<!-- Node8&#45;&gt;Node6 -->
<g id="edge8" class="edge"><title>Node8&#45;&gt;Node6</title>
<path fill="none" stroke="midnightblue" d="M383.294,-64C393.655,-64 404.178,-64 414.449,-64"/>
<polygon fill="midnightblue" stroke="midnightblue" points="383.003,-60.5001 373.002,-64 383.002,-67.5001 383.003,-60.5001"/>
</g>
<!-- Node8&#45;&gt;Node7 -->
<g id="edge9" class="edge"><title>Node8&#45;&gt;Node7</title>
<path fill="none" stroke="midnightblue" d="M364.922,-46.6691C388.126,-41.2288 413.536,-35.2715 435.994,-30.0062"/>
<polygon fill="midnightblue" stroke="midnightblue" points="364.064,-43.2751 355.127,-48.9654 365.662,-50.0903 364.064,-43.2751"/>
</g>
</g>
</svg>
        <g id="navigator" transform="translate(0 0)" fill="#404254">
                <rect fill="#f2f5e9" fill-opacity="0.5" stroke="#606060" stroke-width=".5" x="0" y="0" width="60" height="60"/>
                <use id="zoomplus" xlink:href="#zoomPlus" x="17" y="9" onmousedown="handleZoom(evt,'in')"/>
                <use id="zoomminus" xlink:href="#zoomMin" x="42" y="9" onmousedown="handleZoom(evt,'out')"/>
                <use id="reset" xlink:href="#resetDef" x="30" y="36" onmousedown="handleReset()"/>
                <g id="arrowUp" xlink:href="#dirArrow" transform="translate(30 24)" onmousedown="handlePan(0,-1)">
                  <use xlink:href="#rim" fill="#404040">
                        <set attributeName="fill" to="#808080" begin="arrowUp.mouseover" end="arrowUp.mouseout"/>
                  </use>
                  <path fill="none" stroke="white" stroke-width="1.5" d="M0,-3.0v7 M-2.5,-0.5L0,-3.0L2.5,-0.5"/>
                </g>
                <g id="arrowRight" xlink:href="#dirArrow" transform="rotate(90) translate(36 -43)" onmousedown="handlePan(1,0)">
                  <use xlink:href="#rim" fill="#404040">
                        <set attributeName="fill" to="#808080" begin="arrowRight.mouseover" end="arrowRight.mouseout"/>
                  </use>
                  <path fill="none" stroke="white" stroke-width="1.5" d="M0,-3.0v7 M-2.5,-0.5L0,-3.0L2.5,-0.5"/>
                </g>
                <g id="arrowDown" xlink:href="#dirArrow" transform="rotate(180) translate(-30 -48)" onmousedown="handlePan(0,1)">
                  <use xlink:href="#rim" fill="#404040">
                        <set attributeName="fill" to="#808080" begin="arrowDown.mouseover" end="arrowDown.mouseout"/>
                  </use>
                  <path fill="none" stroke="white" stroke-width="1.5" d="M0,-3.0v7 M-2.5,-0.5L0,-3.0L2.5,-0.5"/>
                </g>
                <g id="arrowLeft" xlink:href="#dirArrow" transform="rotate(270) translate(-36 17)" onmousedown="handlePan(-1,0)">
                  <use xlink:href="#rim" fill="#404040">
                        <set attributeName="fill" to="#808080" begin="arrowLeft.mouseover" end="arrowLeft.mouseout"/>
                  </use>
                  <path fill="none" stroke="white" stroke-width="1.5" d="M0,-3.0v7 M-2.5,-0.5L0,-3.0L2.5,-0.5"/>
                </g>
        </g>
        <svg viewBox="0 0 15 15" width="100%" height="30px" preserveAspectRatio="xMaxYMin meet">
         <g id="arrow_out" transform="scale(0.3 0.3)">
          <a xlink:href="classback_end_1_1_variable_manager_a66147ad86c3557de1b28c8073c368dec_icgraph_org.svg" target="_base">
           <rect id="button" ry="5" rx="5" y="6" x="6" height="38" width="38"
                fill="#f2f5e9" fill-opacity="0.5" stroke="#606060" stroke-width="1.0"/>
           <path id="arrow"
             d="M 11.500037,31.436501 C 11.940474,20.09759 22.043105,11.32322 32.158766,21.979434 L 37.068811,17.246167 C 37.068811,17.246167 37.088388,32 37.088388,32 L 22.160133,31.978069 C 22.160133,31.978069 26.997745,27.140456 26.997745,27.140456 C 18.528582,18.264221 13.291696,25.230495 11.500037,31.436501 z"
             style="fill:#404040;"/>
          </a>
         </g>
        </svg>
</svg>
