<?xml version="1.0" encoding="UTF-8" standalone="no"?>
<!DOCTYPE svg PUBLIC "-//W3C//DTD SVG 1.1//EN"
 "http://www.w3.org/Graphics/SVG/1.1/DTD/svg11.dtd">
<!-- Generated by graphviz version 2.36.0 (20140111.2315)
 -->
<!-- Title: backEnd.VariableManager.getVar Pages: 1 -->
<svg width="392pt" height="87pt"
 viewBox="0.00 0.00 392.00 87.00" xmlns="http://www.w3.org/2000/svg" xmlns:xlink="http://www.w3.org/1999/xlink">
<g id="graph0" class="graph" transform="scale(1 1) rotate(0) translate(4 83)">
<title>backEnd.VariableManager.getVar</title>
<polygon fill="white" stroke="none" points="-4,4 -4,-83 388,-83 388,4 -4,4"/>
<!-- Node1 -->
<g id="node1" class="node"><title>Node1</title>
<polygon fill="#bfbfbf" stroke="black" points="0,-29.5 0,-48.5 174,-48.5 174,-29.5 0,-29.5"/>
<text text-anchor="middle" x="87" y="-36.5" font-family="Helvetica,sans-Serif" font-size="10.00">backEnd.VariableManager.getVar</text>
</g>
<!-- Node2 -->
<g id="node2" class="node"><title>Node2</title>
<g id="a_node2"><a xlink:href="../../da/d32/classcommands_1_1variable__commands_1_1_make_command.html#a9dfc6c7ab19bf5fddd2f77a8a57cf478" target="_top" xlink:title="commands.variable_commands.\lMakeCommand.execute">
<polygon fill="white" stroke="black" points="210.5,-49 210.5,-79 383.5,-79 383.5,-49 210.5,-49"/>
<text text-anchor="start" x="218.5" y="-67" font-family="Helvetica,sans-Serif" font-size="10.00">commands.variable_commands.</text>
<text text-anchor="middle" x="297" y="-56" font-family="Helvetica,sans-Serif" font-size="10.00">MakeCommand.execute</text>
</a>
</g>
</g>
<!-- Node1&#45;&gt;Node2 -->
<g id="edge1" class="edge"><title>Node1&#45;&gt;Node2</title>
<path fill="none" stroke="midnightblue" d="M177.25,-49.7272C188.247,-51.0489 199.467,-52.3975 210.408,-53.7125"/>
<polygon fill="midnightblue" stroke="midnightblue" points="177.575,-46.2412 167.229,-48.5227 176.74,-53.1912 177.575,-46.2412"/>
</g>
<!-- Node3 -->
<g id="node3" class="node"><title>Node3</title>
<g id="a_node3"><a xlink:href="../../dd/d05/classcommands_1_1variable__commands_1_1_variable.html#ab7f4bd1308192f8ec8df00ff2c5339e8" target="_top" xlink:title="commands.variable_commands.\lVariable.execute">
<polygon fill="white" stroke="black" points="210.5,-0 210.5,-30 383.5,-30 383.5,-0 210.5,-0"/>
<text text-anchor="start" x="218.5" y="-18" font-family="Helvetica,sans-Serif" font-size="10.00">commands.variable_commands.</text>
<text text-anchor="middle" x="297" y="-7" font-family="Helvetica,sans-Serif" font-size="10.00">Variable.execute</text>
</a>
</g>
</g>
<!-- Node1&#45;&gt;Node3 -->
<g id="edge2" class="edge"><title>Node1&#45;&gt;Node3</title>
<path fill="none" stroke="midnightblue" d="M180.673,-28.3069C190.492,-27.174 200.446,-26.0254 210.182,-24.9021"/>
<polygon fill="midnightblue" stroke="midnightblue" points="180.039,-24.8568 170.506,-29.4801 180.841,-31.8107 180.039,-24.8568"/>
</g>
</g>
</svg>
