<?xml version="1.0" encoding="UTF-8" standalone="no"?>
<!DOCTYPE svg PUBLIC "-//W3C//DTD SVG 1.1//EN"
 "http://www.w3.org/Graphics/SVG/1.1/DTD/svg11.dtd">
<!-- Generated by graphviz version 2.36.0 (20140111.2315)
 -->
<!-- Title: backEnd.VariableManager.setVarProperties Pages: 1 -->
<svg width="924pt" height="38pt"
 viewBox="0.00 0.00 924.00 38.00" xmlns="http://www.w3.org/2000/svg" xmlns:xlink="http://www.w3.org/1999/xlink">
<g id="graph0" class="graph" transform="scale(1 1) rotate(0) translate(4 34)">
<title>backEnd.VariableManager.setVarProperties</title>
<polygon fill="white" stroke="none" points="-4,4 -4,-34 920,-34 920,4 -4,4"/>
<!-- Node1 -->
<g id="node1" class="node"><title>Node1</title>
<polygon fill="#bfbfbf" stroke="black" points="0,-0 0,-30 158,-30 158,-0 0,-0"/>
<text text-anchor="start" x="8" y="-18" font-family="Helvetica,sans-Serif" font-size="10.00">backEnd.VariableManager.set</text>
<text text-anchor="middle" x="79" y="-7" font-family="Helvetica,sans-Serif" font-size="10.00">VarProperties</text>
</g>
<!-- Node2 -->
<g id="node2" class="node"><title>Node2</title>
<g id="a_node2"><a xlink:href="../../d9/d98/classback_end_1_1_model.html#aea0aabbfcf51ab9a8bdfc671be6eb798" target="_top" xlink:title="backEnd.Model.setVariable\lProperties">
<polygon fill="white" stroke="black" points="194.5,-0 194.5,-30 339.5,-30 339.5,-0 194.5,-0"/>
<text text-anchor="start" x="202.5" y="-18" font-family="Helvetica,sans-Serif" font-size="10.00">backEnd.Model.setVariable</text>
<text text-anchor="middle" x="267" y="-7" font-family="Helvetica,sans-Serif" font-size="10.00">Properties</text>
</a>
</g>
</g>
<!-- Node1&#45;&gt;Node2 -->
<g id="edge1" class="edge"><title>Node1&#45;&gt;Node2</title>
<path fill="none" stroke="midnightblue" d="M168.285,-15C177.022,-15 185.814,-15 194.353,-15"/>
<polygon fill="midnightblue" stroke="midnightblue" points="168.072,-11.5001 158.072,-15 168.072,-18.5001 168.072,-11.5001"/>
</g>
<!-- Node3 -->
<g id="node3" class="node"><title>Node3</title>
<g id="a_node3"><a xlink:href="../../d9/d49/classback_end_1_1_controller.html#acf935e88b95d20cbba2c7d112f9c2f54" target="_top" xlink:title="backEnd.Controller.setVariable\lProperties">
<polygon fill="white" stroke="black" points="376,-0 376,-30 538,-30 538,-0 376,-0"/>
<text text-anchor="start" x="384" y="-18" font-family="Helvetica,sans-Serif" font-size="10.00">backEnd.Controller.setVariable</text>
<text text-anchor="middle" x="457" y="-7" font-family="Helvetica,sans-Serif" font-size="10.00">Properties</text>
</a>
</g>
</g>
<!-- Node2&#45;&gt;Node3 -->
<g id="edge2" class="edge"><title>Node2&#45;&gt;Node3</title>
<path fill="none" stroke="midnightblue" d="M349.693,-15C358.353,-15 367.154,-15 375.796,-15"/>
<polygon fill="midnightblue" stroke="midnightblue" points="349.611,-11.5001 339.611,-15 349.611,-18.5001 349.611,-11.5001"/>
</g>
<!-- Node4 -->
<g id="node4" class="node"><title>Node4</title>
<g id="a_node4"><a xlink:href="../../d7/d28/classtitle_panes_1_1_load_variables_title_pane.html#a3ab37d9b46d60d0562afb24edaa6a707" target="_top" xlink:title="titlePanes.LoadVariables\lTitlePane.openFile">
<polygon fill="white" stroke="black" points="574.5,-0 574.5,-30 707.5,-30 707.5,-0 574.5,-0"/>
<text text-anchor="start" x="582.5" y="-18" font-family="Helvetica,sans-Serif" font-size="10.00">titlePanes.LoadVariables</text>
<text text-anchor="middle" x="641" y="-7" font-family="Helvetica,sans-Serif" font-size="10.00">TitlePane.openFile</text>
</a>
</g>
</g>
<!-- Node3&#45;&gt;Node4 -->
<g id="edge3" class="edge"><title>Node3&#45;&gt;Node4</title>
<path fill="none" stroke="midnightblue" d="M548.355,-15C557.116,-15 565.885,-15 574.338,-15"/>
<polygon fill="midnightblue" stroke="midnightblue" points="548.093,-11.5001 538.093,-15 548.093,-18.5001 548.093,-11.5001"/>
</g>
<!-- Node5 -->
<g id="node5" class="node"><title>Node5</title>
<g id="a_node5"><a xlink:href="../../d7/d28/classtitle_panes_1_1_load_variables_title_pane.html#af7eb41c10127c811d6d8b0ee8d6cf879" target="_top" xlink:title="titlePanes.LoadVariables\lTitlePane.LoadVariablesTitlePane">
<polygon fill="white" stroke="black" points="744,-0 744,-30 916,-30 916,-0 744,-0"/>
<text text-anchor="start" x="752" y="-18" font-family="Helvetica,sans-Serif" font-size="10.00">titlePanes.LoadVariables</text>
<text text-anchor="middle" x="830" y="-7" font-family="Helvetica,sans-Serif" font-size="10.00">TitlePane.LoadVariablesTitlePane</text>
</a>
</g>
</g>
<!-- Node4&#45;&gt;Node5 -->
<g id="edge4" class="edge"><title>Node4&#45;&gt;Node5</title>
<path fill="none" stroke="midnightblue" d="M717.936,-15C726.454,-15 735.174,-15 743.798,-15"/>
<polygon fill="midnightblue" stroke="midnightblue" points="717.666,-11.5001 707.666,-15 717.666,-18.5001 717.666,-11.5001"/>
</g>
</g>
</svg>
