<?xml version="1.0" encoding="UTF-8" standalone="no"?>
<!DOCTYPE svg PUBLIC "-//W3C//DTD SVG 1.1//EN"
 "http://www.w3.org/Graphics/SVG/1.1/DTD/svg11.dtd">
<!-- Generated by graphviz version 2.36.0 (20140111.2315)
 -->
<!-- Title: commands.variable_commands.IfElseCommand Pages: 1 -->
<svg width="354pt" height="246pt"
 viewBox="0.00 0.00 354.00 246.00" xmlns="http://www.w3.org/2000/svg" xmlns:xlink="http://www.w3.org/1999/xlink">
<g id="graph0" class="graph" transform="scale(1 1) rotate(0) translate(4 242)">
<title>commands.variable_commands.IfElseCommand</title>
<polygon fill="white" stroke="none" points="-4,4 -4,-242 350,-242 350,4 -4,4"/>
<!-- Node1 -->
<g id="node1" class="node"><title>Node1</title>
<polygon fill="#bfbfbf" stroke="black" points="50.5,-1 50.5,-31 223.5,-31 223.5,-1 50.5,-1"/>
<text text-anchor="start" x="58.5" y="-19" font-family="Helvetica,sans-Serif" font-size="10.00">commands.variable_commands.</text>
<text text-anchor="middle" x="137" y="-8" font-family="Helvetica,sans-Serif" font-size="10.00">IfElseCommand</text>
</g>
<!-- Node2 -->
<g id="node2" class="node"><title>Node2</title>
<g id="a_node2"><a xlink:href="../../d5/d62/classcommands_1_1templates_1_1_command.html" target="_top" xlink:title="commands.templates.Command">
<polygon fill="white" stroke="black" points="49,-70.5 49,-89.5 225,-89.5 225,-70.5 49,-70.5"/>
<text text-anchor="middle" x="137" y="-77.5" font-family="Helvetica,sans-Serif" font-size="10.00">commands.templates.Command</text>
</a>
</g>
</g>
<!-- Node2&#45;&gt;Node1 -->
<g id="edge1" class="edge"><title>Node2&#45;&gt;Node1</title>
<path fill="none" stroke="midnightblue" d="M137,-60.1826C137,-50.8859 137,-39.8507 137,-31.263"/>
<polygon fill="midnightblue" stroke="midnightblue" points="133.5,-60.3791 137,-70.3792 140.5,-60.3792 133.5,-60.3791"/>
</g>
<!-- Node3 -->
<g id="node3" class="node"><title>Node3</title>
<polygon fill="white" stroke="#bfbfbf" points="-0.5,-139 -0.5,-169 152.5,-169 152.5,-139 -0.5,-139"/>
<text text-anchor="start" x="7.5" y="-157" font-family="Helvetica,sans-Serif" font-size="10.00">List&lt; commands.templates.</text>
<text text-anchor="middle" x="76" y="-146" font-family="Helvetica,sans-Serif" font-size="10.00">Command &gt;</text>
</g>
<!-- Node3&#45;&gt;Node2 -->
<g id="edge2" class="edge"><title>Node3&#45;&gt;Node2</title>
<path fill="none" stroke="#9a32cd" stroke-dasharray="5,2" d="M94.5922,-131.055C106.364,-117.16 120.943,-99.952 129.579,-89.7589"/>
<polygon fill="#9a32cd" stroke="#9a32cd" points="91.8454,-128.883 88.0516,-138.775 97.1863,-133.408 91.8454,-128.883"/>
<text text-anchor="middle" x="143" y="-111.5" font-family="Helvetica,sans-Serif" font-size="10.00"> myChildren</text>
</g>
<!-- Node4 -->
<g id="node4" class="node"><title>Node4</title>
<g id="a_node4"><a xlink:href="../../d8/d6a/classback_end_1_1_variable_manager.html" target="_top" xlink:title="backEnd.VariableManager">
<polygon fill="white" stroke="black" points="171,-144.5 171,-163.5 311,-163.5 311,-144.5 171,-144.5"/>
<text text-anchor="middle" x="241" y="-151.5" font-family="Helvetica,sans-Serif" font-size="10.00">backEnd.VariableManager</text>
</a>
</g>
</g>
<!-- Node4&#45;&gt;Node2 -->
<g id="edge3" class="edge"><title>Node4&#45;&gt;Node2</title>
<path fill="none" stroke="#9a32cd" stroke-dasharray="5,2" d="M220.326,-138.687C199.118,-124.005 166.827,-101.65 149.323,-89.531"/>
<polygon fill="#9a32cd" stroke="#9a32cd" points="218.447,-141.643 228.661,-144.458 222.432,-135.888 218.447,-141.643"/>
<text text-anchor="middle" x="242.5" y="-111.5" font-family="Helvetica,sans-Serif" font-size="10.00"> myVariableManager</text>
</g>
<!-- Node5 -->
<g id="node5" class="node"><title>Node5</title>
<polygon fill="white" stroke="#bfbfbf" points="124.5,-218.5 124.5,-237.5 239.5,-237.5 239.5,-218.5 124.5,-218.5"/>
<text text-anchor="middle" x="182" y="-225.5" font-family="Helvetica,sans-Serif" font-size="10.00">Stack&lt; Properties &gt;</text>
</g>
<!-- Node5&#45;&gt;Node4 -->
<g id="edge4" class="edge"><title>Node5&#45;&gt;Node4</title>
<path fill="none" stroke="#9a32cd" stroke-dasharray="5,2" d="M176.228,-208.421C175.178,-201.581 175.375,-194.036 179,-188 185.969,-176.397 198.55,-168.652 210.567,-163.6"/>
<polygon fill="#9a32cd" stroke="#9a32cd" points="172.855,-209.365 178.589,-218.274 179.662,-207.733 172.855,-209.365"/>
<text text-anchor="middle" x="226" y="-191.5" font-family="Helvetica,sans-Serif" font-size="10.00"> myStoredVariables</text>
</g>
<!-- Node6 -->
<g id="node6" class="node"><title>Node6</title>
<polygon fill="white" stroke="#bfbfbf" points="266.5,-218.5 266.5,-237.5 331.5,-237.5 331.5,-218.5 266.5,-218.5"/>
<text text-anchor="middle" x="299" y="-225.5" font-family="Helvetica,sans-Serif" font-size="10.00">Properties</text>
</g>
<!-- Node6&#45;&gt;Node4 -->
<g id="edge5" class="edge"><title>Node6&#45;&gt;Node4</title>
<path fill="none" stroke="#9a32cd" stroke-dasharray="5,2" d="M290.487,-209.199C286.791,-202.271 282.133,-194.462 277,-188 269.723,-178.838 259.83,-169.964 252.257,-163.731"/>
<polygon fill="#9a32cd" stroke="#9a32cd" points="287.528,-211.104 295.155,-218.458 293.779,-207.953 287.528,-211.104"/>
<text text-anchor="middle" x="315" y="-191.5" font-family="Helvetica,sans-Serif" font-size="10.00"> myVariables</text>
</g>
</g>
</svg>
