<?xml version="1.0" encoding="UTF-8" standalone="no"?>
<!DOCTYPE svg PUBLIC "-//W3C//DTD SVG 1.1//EN"
 "http://www.w3.org/Graphics/SVG/1.1/DTD/svg11.dtd">
<!-- Generated by graphviz version 2.36.0 (20140111.2315)
 -->
<!-- Title: commands.SetPaletteCommand.execute Pages: 1 -->
<svg width="454pt" height="87pt"
 viewBox="0.00 0.00 454.00 87.00" xmlns="http://www.w3.org/2000/svg" xmlns:xlink="http://www.w3.org/1999/xlink">
<g id="graph0" class="graph" transform="scale(1 1) rotate(0) translate(4 83)">
<title>commands.SetPaletteCommand.execute</title>
<polygon fill="white" stroke="none" points="-4,4 -4,-83 450,-83 450,4 -4,4"/>
<!-- Node1 -->
<g id="node1" class="node"><title>Node1</title>
<polygon fill="#bfbfbf" stroke="black" points="0.5,-29.5 0.5,-48.5 215.5,-48.5 215.5,-29.5 0.5,-29.5"/>
<text text-anchor="middle" x="108" y="-36.5" font-family="Helvetica,sans-Serif" font-size="10.00">commands.SetPaletteCommand.execute</text>
</g>
<!-- Node2 -->
<g id="node2" class="node"><title>Node2</title>
<g id="a_node2"><a xlink:href="../../d5/d62/classcommands_1_1templates_1_1_command.html#ae48716b79da0af7e6815fbe6fc113075" target="_top" xlink:title="commands.templates.Command.get\lMyChildren">
<polygon fill="white" stroke="black" points="252,-49 252,-79 446,-79 446,-49 252,-49"/>
<text text-anchor="start" x="260" y="-67" font-family="Helvetica,sans-Serif" font-size="10.00">commands.templates.Command.get</text>
<text text-anchor="middle" x="349" y="-56" font-family="Helvetica,sans-Serif" font-size="10.00">MyChildren</text>
</a>
</g>
</g>
<!-- Node1&#45;&gt;Node2 -->
<g id="edge1" class="edge"><title>Node1&#45;&gt;Node2</title>
<path fill="none" stroke="midnightblue" d="M200.037,-48.5227C213.625,-49.944 227.734,-51.4198 241.604,-52.8707"/>
<polygon fill="midnightblue" stroke="midnightblue" points="241.341,-56.3622 251.651,-53.9216 242.069,-49.4002 241.341,-56.3622"/>
</g>
<!-- Node3 -->
<g id="node3" class="node"><title>Node3</title>
<g id="a_node3"><a xlink:href="../../d9/d98/classback_end_1_1_model.html#a380ae28221e627d436e52dd476c631b8" target="_top" xlink:title="backEnd.Model.setPalette\lArguments">
<polygon fill="white" stroke="black" points="279,-0 279,-30 419,-30 419,-0 279,-0"/>
<text text-anchor="start" x="287" y="-18" font-family="Helvetica,sans-Serif" font-size="10.00">backEnd.Model.setPalette</text>
<text text-anchor="middle" x="349" y="-7" font-family="Helvetica,sans-Serif" font-size="10.00">Arguments</text>
</a>
</g>
</g>
<!-- Node1&#45;&gt;Node3 -->
<g id="edge2" class="edge"><title>Node1&#45;&gt;Node3</title>
<path fill="none" stroke="midnightblue" d="M203.802,-29.4801C225.306,-27.3207 247.926,-25.0493 268.709,-22.9623"/>
<polygon fill="midnightblue" stroke="midnightblue" points="269.151,-26.4356 278.751,-21.9539 268.451,-19.4706 269.151,-26.4356"/>
</g>
</g>
</svg>
