<?xml version="1.0" encoding="UTF-8" standalone="no"?>
<!DOCTYPE svg PUBLIC "-//W3C//DTD SVG 1.1//EN"
 "http://www.w3.org/Graphics/SVG/1.1/DTD/svg11.dtd">
<!-- Generated by graphviz version 2.36.0 (20140111.2315)
 -->
<!-- Title: commands.variable_commands.MakeCommand.execute Pages: 1 -->
<svg width="624pt" height="158pt"
 viewBox="0.00 0.00 624.00 158.00" xmlns="http://www.w3.org/2000/svg" xmlns:xlink="http://www.w3.org/1999/xlink">
<g id="graph0" class="graph" transform="scale(1 1) rotate(0) translate(4 154)">
<title>commands.variable_commands.MakeCommand.execute</title>
<polygon fill="white" stroke="none" points="-4,4 -4,-154 620,-154 620,4 -4,4"/>
<!-- Node1 -->
<g id="node1" class="node"><title>Node1</title>
<polygon fill="#bfbfbf" stroke="black" points="0.5,-63 0.5,-93 173.5,-93 173.5,-63 0.5,-63"/>
<text text-anchor="start" x="8.5" y="-81" font-family="Helvetica,sans-Serif" font-size="10.00">commands.variable_commands.</text>
<text text-anchor="middle" x="87" y="-70" font-family="Helvetica,sans-Serif" font-size="10.00">MakeCommand.execute</text>
</g>
<!-- Node2 -->
<g id="node2" class="node"><title>Node2</title>
<g id="a_node2"><a xlink:href="../../d8/d6a/classback_end_1_1_variable_manager.html#a4e95d5d32265cdc2ad3a3c96bc248ef0" target="_top" xlink:title="backEnd.VariableManager.addVar">
<polygon fill="white" stroke="black" points="210,-125.5 210,-144.5 386,-144.5 386,-125.5 210,-125.5"/>
<text text-anchor="middle" x="298" y="-132.5" font-family="Helvetica,sans-Serif" font-size="10.00">backEnd.VariableManager.addVar</text>
</a>
</g>
</g>
<!-- Node1&#45;&gt;Node2 -->
<g id="edge1" class="edge"><title>Node1&#45;&gt;Node2</title>
<path fill="none" stroke="midnightblue" d="M143.186,-93.0506C177.125,-102.307 220.068,-114.019 251.949,-122.713"/>
<polygon fill="midnightblue" stroke="midnightblue" points="251.317,-126.169 261.886,-125.423 253.159,-119.416 251.317,-126.169"/>
</g>
<!-- Node4 -->
<g id="node4" class="node"><title>Node4</title>
<g id="a_node4"><a xlink:href="../../d5/d62/classcommands_1_1templates_1_1_command.html#ae48716b79da0af7e6815fbe6fc113075" target="_top" xlink:title="commands.templates.Command.get\lMyChildren">
<polygon fill="white" stroke="black" points="422,-36 422,-66 616,-66 616,-36 422,-36"/>
<text text-anchor="start" x="430" y="-54" font-family="Helvetica,sans-Serif" font-size="10.00">commands.templates.Command.get</text>
<text text-anchor="middle" x="519" y="-43" font-family="Helvetica,sans-Serif" font-size="10.00">MyChildren</text>
</a>
</g>
</g>
<!-- Node1&#45;&gt;Node4 -->
<g id="edge3" class="edge"><title>Node1&#45;&gt;Node4</title>
<path fill="none" stroke="midnightblue" d="M173.652,-82.5607C233.334,-84.6244 314.71,-85.2163 386,-78 406.207,-75.9545 427.892,-72.1904 447.728,-68.1089"/>
<polygon fill="midnightblue" stroke="midnightblue" points="448.548,-71.513 457.608,-66.0198 447.1,-64.6645 448.548,-71.513"/>
</g>
<!-- Node5 -->
<g id="node5" class="node"><title>Node5</title>
<g id="a_node5"><a xlink:href="../../d8/d6a/classback_end_1_1_variable_manager.html#a72ee803ba1a215c750d95f2af19b4c73" target="_top" xlink:title="backEnd.VariableManager.getVar">
<polygon fill="white" stroke="black" points="211,-49.5 211,-68.5 385,-68.5 385,-49.5 211,-49.5"/>
<text text-anchor="middle" x="298" y="-56.5" font-family="Helvetica,sans-Serif" font-size="10.00">backEnd.VariableManager.getVar</text>
</a>
</g>
</g>
<!-- Node1&#45;&gt;Node5 -->
<g id="edge4" class="edge"><title>Node1&#45;&gt;Node5</title>
<path fill="none" stroke="midnightblue" d="M173.611,-70.2172C182.539,-69.4055 191.657,-68.5766 200.693,-67.7552"/>
<polygon fill="midnightblue" stroke="midnightblue" points="201.203,-71.2233 210.845,-66.8323 200.569,-64.2521 201.203,-71.2233"/>
</g>
<!-- Node6 -->
<g id="node6" class="node"><title>Node6</title>
<g id="a_node6"><a xlink:href="../../da/d32/classcommands_1_1variable__commands_1_1_make_command.html#a9f050dbf57b90f8cc960a9288ec7d6f8" target="_top" xlink:title="commands.variable_commands.\lMakeCommand.toString">
<polygon fill="white" stroke="black" points="211.5,-0 211.5,-30 384.5,-30 384.5,-0 211.5,-0"/>
<text text-anchor="start" x="219.5" y="-18" font-family="Helvetica,sans-Serif" font-size="10.00">commands.variable_commands.</text>
<text text-anchor="middle" x="298" y="-7" font-family="Helvetica,sans-Serif" font-size="10.00">MakeCommand.toString</text>
</a>
</g>
</g>
<!-- Node1&#45;&gt;Node6 -->
<g id="edge5" class="edge"><title>Node1&#45;&gt;Node6</title>
<path fill="none" stroke="midnightblue" d="M135.434,-62.9578C157.987,-55.8746 185.347,-47.3804 210,-40 217.813,-37.6609 226.034,-35.2427 234.177,-32.8736"/>
<polygon fill="midnightblue" stroke="midnightblue" points="235.406,-36.1615 244.037,-30.0169 233.458,-29.4381 235.406,-36.1615"/>
</g>
<!-- Node3 -->
<g id="node3" class="node"><title>Node3</title>
<g id="a_node3"><a xlink:href="../../d8/d6a/classback_end_1_1_variable_manager.html#a66147ad86c3557de1b28c8073c368dec" target="_top" xlink:title="backEnd.VariableManager.write\lVarsToFile">
<polygon fill="white" stroke="black" points="436.5,-120 436.5,-150 601.5,-150 601.5,-120 436.5,-120"/>
<text text-anchor="start" x="444.5" y="-138" font-family="Helvetica,sans-Serif" font-size="10.00">backEnd.VariableManager.write</text>
<text text-anchor="middle" x="519" y="-127" font-family="Helvetica,sans-Serif" font-size="10.00">VarsToFile</text>
</a>
</g>
</g>
<!-- Node2&#45;&gt;Node3 -->
<g id="edge2" class="edge"><title>Node2&#45;&gt;Node3</title>
<path fill="none" stroke="midnightblue" d="M386.184,-135C399.396,-135 413.061,-135 426.364,-135"/>
<polygon fill="midnightblue" stroke="midnightblue" points="426.454,-138.5 436.454,-135 426.454,-131.5 426.454,-138.5"/>
</g>
<!-- Node6&#45;&gt;Node4 -->
<g id="edge6" class="edge"><title>Node6&#45;&gt;Node4</title>
<path fill="none" stroke="midnightblue" d="M384.612,-29.0732C395.067,-30.7918 405.827,-32.5607 416.486,-34.3128"/>
<polygon fill="midnightblue" stroke="midnightblue" points="416.226,-37.8169 426.661,-35.9854 417.361,-30.9096 416.226,-37.8169"/>
</g>
</g>
</svg>
