<?xml version="1.0" encoding="UTF-8" standalone="no"?>
<!DOCTYPE svg PUBLIC "-//W3C//DTD SVG 1.1//EN"
 "http://www.w3.org/Graphics/SVG/1.1/DTD/svg11.dtd">
<!-- Generated by graphviz version 2.36.0 (20140111.2315)
 -->
<!-- Title: backEnd.turtle.TurtleProperties.TurtleProperties Pages: 1 -->
<svg width="350pt" height="87pt"
 viewBox="0.00 0.00 350.00 87.00" xmlns="http://www.w3.org/2000/svg" xmlns:xlink="http://www.w3.org/1999/xlink">
<g id="graph0" class="graph" transform="scale(1 1) rotate(0) translate(4 83)">
<title>backEnd.turtle.TurtleProperties.TurtleProperties</title>
<polygon fill="white" stroke="none" points="-4,4 -4,-83 346,-83 346,4 -4,4"/>
<!-- Node1 -->
<g id="node1" class="node"><title>Node1</title>
<polygon fill="#bfbfbf" stroke="black" points="0,-24 0,-54 166,-54 166,-24 0,-24"/>
<text text-anchor="start" x="8" y="-42" font-family="Helvetica,sans-Serif" font-size="10.00">backEnd.turtle.TurtleProperties.</text>
<text text-anchor="middle" x="83" y="-31" font-family="Helvetica,sans-Serif" font-size="10.00">TurtleProperties</text>
</g>
<!-- Node2 -->
<g id="node2" class="node"><title>Node2</title>
<g id="a_node2"><a xlink:href="../../dd/d87/classback_end_1_1turtle_1_1_pen.html#a675c099ecfc1d32f723a763deecd35de" target="_top" xlink:title="backEnd.turtle.Pen.getMy\lPenColorProperty">
<polygon fill="white" stroke="black" points="202.5,-49 202.5,-79 341.5,-79 341.5,-49 202.5,-49"/>
<text text-anchor="start" x="210.5" y="-67" font-family="Helvetica,sans-Serif" font-size="10.00">backEnd.turtle.Pen.getMy</text>
<text text-anchor="middle" x="272" y="-56" font-family="Helvetica,sans-Serif" font-size="10.00">PenColorProperty</text>
</a>
</g>
</g>
<!-- Node1&#45;&gt;Node2 -->
<g id="edge1" class="edge"><title>Node1&#45;&gt;Node2</title>
<path fill="none" stroke="midnightblue" d="M166.021,-49.9654C174.767,-51.1346 183.649,-52.3221 192.355,-53.486"/>
<polygon fill="midnightblue" stroke="midnightblue" points="192.1,-56.9829 202.476,-54.839 193.028,-50.0446 192.1,-56.9829"/>
</g>
<!-- Node3 -->
<g id="node3" class="node"><title>Node3</title>
<g id="a_node3"><a xlink:href="../../dd/d87/classback_end_1_1turtle_1_1_pen.html#aa1587c9aab7814c237c11fa4faacb85b" target="_top" xlink:title="backEnd.turtle.Pen.getMy\lPenSize">
<polygon fill="white" stroke="black" points="202.5,-0 202.5,-30 341.5,-30 341.5,-0 202.5,-0"/>
<text text-anchor="start" x="210.5" y="-18" font-family="Helvetica,sans-Serif" font-size="10.00">backEnd.turtle.Pen.getMy</text>
<text text-anchor="middle" x="272" y="-7" font-family="Helvetica,sans-Serif" font-size="10.00">PenSize</text>
</a>
</g>
</g>
<!-- Node1&#45;&gt;Node3 -->
<g id="edge2" class="edge"><title>Node1&#45;&gt;Node3</title>
<path fill="none" stroke="midnightblue" d="M166.021,-28.4733C174.767,-27.3507 183.649,-26.2108 192.355,-25.0934"/>
<polygon fill="midnightblue" stroke="midnightblue" points="193.002,-28.5392 202.476,-23.7946 192.111,-21.5961 193.002,-28.5392"/>
</g>
</g>
</svg>
