<?xml version="1.0" encoding="UTF-8" standalone="no"?>
<!DOCTYPE svg PUBLIC "-//W3C//DTD SVG 1.1//EN"
 "http://www.w3.org/Graphics/SVG/1.1/DTD/svg11.dtd">
<!-- Generated by graphviz version 2.36.0 (20140111.2315)
 -->
<!-- Title: backEnd.turtle.TurtleProperties.getPenSize Pages: 1 -->
<svg width="550pt" height="38pt"
 viewBox="0.00 0.00 550.00 38.00" xmlns="http://www.w3.org/2000/svg" xmlns:xlink="http://www.w3.org/1999/xlink">
<g id="graph0" class="graph" transform="scale(1 1) rotate(0) translate(4 34)">
<title>backEnd.turtle.TurtleProperties.getPenSize</title>
<polygon fill="white" stroke="none" points="-4,4 -4,-34 546,-34 546,4 -4,4"/>
<!-- Node1 -->
<g id="node1" class="node"><title>Node1</title>
<polygon fill="#bfbfbf" stroke="black" points="0,-0 0,-30 182,-30 182,-0 0,-0"/>
<text text-anchor="start" x="8" y="-18" font-family="Helvetica,sans-Serif" font-size="10.00">backEnd.turtle.TurtleProperties.get</text>
<text text-anchor="middle" x="91" y="-7" font-family="Helvetica,sans-Serif" font-size="10.00">PenSize</text>
</g>
<!-- Node2 -->
<g id="node2" class="node"><title>Node2</title>
<g id="a_node2"><a xlink:href="../../dc/dcd/classfront_end_1_1_turtle_view.html#a786dafb4fc29738c24e51c8e2d5ef1e8" target="_top" xlink:title="frontEnd.TurtleView.bind\lProperties">
<polygon fill="white" stroke="black" points="218,-0 218,-30 348,-30 348,-0 218,-0"/>
<text text-anchor="start" x="226" y="-18" font-family="Helvetica,sans-Serif" font-size="10.00">frontEnd.TurtleView.bind</text>
<text text-anchor="middle" x="283" y="-7" font-family="Helvetica,sans-Serif" font-size="10.00">Properties</text>
</a>
</g>
</g>
<!-- Node1&#45;&gt;Node2 -->
<g id="edge1" class="edge"><title>Node1&#45;&gt;Node2</title>
<path fill="none" stroke="midnightblue" d="M192.456,-15C201.124,-15 209.732,-15 217.988,-15"/>
<polygon fill="midnightblue" stroke="midnightblue" points="192.27,-11.5001 182.27,-15 192.27,-18.5001 192.27,-11.5001"/>
</g>
<!-- Node3 -->
<g id="node3" class="node"><title>Node3</title>
<g id="a_node3"><a xlink:href="../../dc/dcd/classfront_end_1_1_turtle_view.html#a68db2241e0b2e23e1894492f87975e1b" target="_top" xlink:title="frontEnd.TurtleView.TurtleView">
<polygon fill="white" stroke="black" points="384.5,-5.5 384.5,-24.5 541.5,-24.5 541.5,-5.5 384.5,-5.5"/>
<text text-anchor="middle" x="463" y="-12.5" font-family="Helvetica,sans-Serif" font-size="10.00">frontEnd.TurtleView.TurtleView</text>
</a>
</g>
</g>
<!-- Node2&#45;&gt;Node3 -->
<g id="edge2" class="edge"><title>Node2&#45;&gt;Node3</title>
<path fill="none" stroke="midnightblue" d="M358.064,-15C366.721,-15 375.573,-15 384.278,-15"/>
<polygon fill="midnightblue" stroke="midnightblue" points="358.011,-11.5001 348.011,-15 358.011,-18.5001 358.011,-11.5001"/>
</g>
</g>
</svg>
