<?xml version="1.0" encoding="UTF-8" standalone="no"?>
<!DOCTYPE svg PUBLIC "-//W3C//DTD SVG 1.1//EN"
 "http://www.w3.org/Graphics/SVG/1.1/DTD/svg11.dtd">
<!-- Generated by graphviz version 2.36.0 (20140111.2315)
 -->
<!-- Title: backEnd.turtle.TurtleProperties.getXPosition Pages: 1 -->
<svg width="384pt" height="38pt"
 viewBox="0.00 0.00 384.00 38.00" xmlns="http://www.w3.org/2000/svg" xmlns:xlink="http://www.w3.org/1999/xlink">
<g id="graph0" class="graph" transform="scale(1 1) rotate(0) translate(4 34)">
<title>backEnd.turtle.TurtleProperties.getXPosition</title>
<polygon fill="white" stroke="none" points="-4,4 -4,-34 380,-34 380,4 -4,4"/>
<!-- Node1 -->
<g id="node1" class="node"><title>Node1</title>
<polygon fill="#bfbfbf" stroke="black" points="0,-0 0,-30 182,-30 182,-0 0,-0"/>
<text text-anchor="start" x="8" y="-18" font-family="Helvetica,sans-Serif" font-size="10.00">backEnd.turtle.TurtleProperties.get</text>
<text text-anchor="middle" x="91" y="-7" font-family="Helvetica,sans-Serif" font-size="10.00">XPosition</text>
</g>
<!-- Node2 -->
<g id="node2" class="node"><title>Node2</title>
<g id="a_node2"><a xlink:href="../../de/d6c/classback_end_1_1turtle_1_1_turtle_point.html#aab69296ace249631f5145d1f939b674b" target="_top" xlink:title="backEnd.turtle.TurtlePoint.get\lBindableX">
<polygon fill="white" stroke="black" points="218.5,-0 218.5,-30 375.5,-30 375.5,-0 218.5,-0"/>
<text text-anchor="start" x="226.5" y="-18" font-family="Helvetica,sans-Serif" font-size="10.00">backEnd.turtle.TurtlePoint.get</text>
<text text-anchor="middle" x="297" y="-7" font-family="Helvetica,sans-Serif" font-size="10.00">BindableX</text>
</a>
</g>
</g>
<!-- Node1&#45;&gt;Node2 -->
<g id="edge1" class="edge"><title>Node1&#45;&gt;Node2</title>
<path fill="none" stroke="midnightblue" d="M182.071,-15C190.74,-15 199.526,-15 208.173,-15"/>
<polygon fill="midnightblue" stroke="midnightblue" points="208.244,-18.5001 218.244,-15 208.244,-11.5001 208.244,-18.5001"/>
</g>
</g>
</svg>
