<?xml version="1.0" encoding="UTF-8" standalone="no"?>
<!DOCTYPE svg PUBLIC "-//W3C//DTD SVG 1.1//EN"
 "http://www.w3.org/Graphics/SVG/1.1/DTD/svg11.dtd">
<!-- Generated by graphviz version 2.36.0 (20140111.2315)
 -->
<!-- Title: commands.variable_commands.Variable.execute Pages: 1 -->
<svg width="412pt" height="77pt"
 viewBox="0.00 0.00 412.00 77.00" xmlns="http://www.w3.org/2000/svg" xmlns:xlink="http://www.w3.org/1999/xlink">
<g id="graph0" class="graph" transform="scale(1 1) rotate(0) translate(4 73)">
<title>commands.variable_commands.Variable.execute</title>
<polygon fill="white" stroke="none" points="-4,4 -4,-73 408,-73 408,4 -4,4"/>
<!-- Node1 -->
<g id="node1" class="node"><title>Node1</title>
<polygon fill="#bfbfbf" stroke="black" points="0.5,-22 0.5,-52 173.5,-52 173.5,-22 0.5,-22"/>
<text text-anchor="start" x="8.5" y="-40" font-family="Helvetica,sans-Serif" font-size="10.00">commands.variable_commands.</text>
<text text-anchor="middle" x="87" y="-29" font-family="Helvetica,sans-Serif" font-size="10.00">Variable.execute</text>
</g>
<!-- Node2 -->
<g id="node2" class="node"><title>Node2</title>
<g id="a_node2"><a xlink:href="../../d8/d6a/classback_end_1_1_variable_manager.html#a72ee803ba1a215c750d95f2af19b4c73" target="_top" xlink:title="backEnd.VariableManager.getVar">
<polygon fill="white" stroke="black" points="220,-49.5 220,-68.5 394,-68.5 394,-49.5 220,-49.5"/>
<text text-anchor="middle" x="307" y="-56.5" font-family="Helvetica,sans-Serif" font-size="10.00">backEnd.VariableManager.getVar</text>
</a>
</g>
</g>
<!-- Node1&#45;&gt;Node2 -->
<g id="edge1" class="edge"><title>Node1&#45;&gt;Node2</title>
<path fill="none" stroke="midnightblue" d="M173.534,-45.6318C185.462,-46.8356 197.784,-48.0792 209.891,-49.301"/>
<polygon fill="midnightblue" stroke="midnightblue" points="209.696,-52.799 219.997,-50.3208 210.399,-45.8343 209.696,-52.799"/>
</g>
<!-- Node3 -->
<g id="node3" class="node"><title>Node3</title>
<g id="a_node3"><a xlink:href="../../d5/d62/classcommands_1_1templates_1_1_command.html#ac62c003e82cf2518fc257f51c92bd93b" target="_top" xlink:title="commands.templates.Command.get\lVariableManager">
<polygon fill="white" stroke="black" points="210,-0 210,-30 404,-30 404,-0 210,-0"/>
<text text-anchor="start" x="218" y="-18" font-family="Helvetica,sans-Serif" font-size="10.00">commands.templates.Command.get</text>
<text text-anchor="middle" x="307" y="-7" font-family="Helvetica,sans-Serif" font-size="10.00">VariableManager</text>
</a>
</g>
</g>
<!-- Node1&#45;&gt;Node3 -->
<g id="edge2" class="edge"><title>Node1&#45;&gt;Node3</title>
<path fill="none" stroke="midnightblue" d="M173.534,-28.3682C182.2,-27.4935 191.075,-26.5979 199.924,-25.7049"/>
<polygon fill="midnightblue" stroke="midnightblue" points="200.293,-29.1855 209.891,-24.699 199.59,-22.2209 200.293,-29.1855"/>
</g>
</g>
</svg>
