<?xml version="1.0" encoding="UTF-8" standalone="no"?>
<!DOCTYPE svg PUBLIC "-//W3C//DTD SVG 1.1//EN"
 "http://www.w3.org/Graphics/SVG/1.1/DTD/svg11.dtd">
<!-- Generated by graphviz version 2.36.0 (20140111.2315)
 -->
<!-- Title: commands.templates.TurtleCommand.getMyTurtleManager Pages: 1 -->
<!--zoomable 1459 -->
<svg id="main" version="1.1" xmlns="http://www.w3.org/2000/svg" xmlns:xlink="http://www.w3.org/1999/xlink" xml:space="preserve" onload="init(evt)">
<style type="text/css"><![CDATA[
.edge:hover path { stroke: red; }
.edge:hover polygon { stroke: red; fill: red; }
]]></style>
<script type="text/javascript"><![CDATA[
var edges = document.getElementsByTagName('g');
if (edges && edges.length) {
  for (var i=0;i<edges.length;i++) {
    if (edges[i].id.substr(0,4)=='edge') {
      edges[i].setAttribute('class','edge');
    }
  }
}
]]></script>
        <defs>
                <circle id="rim" cx="0" cy="0" r="7"/>
                <circle id="rim2" cx="0" cy="0" r="3.5"/>
                <g id="zoomPlus">
                        <use xlink:href="#rim" fill="#404040">
                                <set attributeName="fill" to="#808080" begin="zoomplus.mouseover" end="zoomplus.mouseout"/>
                        </use>
                        <path d="M-4,0h8M0,-4v8" fill="none" stroke="white" stroke-width="1.5" pointer-events="none"/>
                </g>
                <g id="zoomMin">
                        <use xlink:href="#rim" fill="#404040">
                                <set attributeName="fill" to="#808080" begin="zoomminus.mouseover" end="zoomminus.mouseout"/>
                        </use>
                        <path d="M-4,0h8" fill="none" stroke="white" stroke-width="1.5" pointer-events="none"/>
                </g>
                <g id="dirArrow">
                        <path fill="none" stroke="white" stroke-width="1.5" d="M0,-3.0v7 M-2.5,-0.5L0,-3.0L2.5,-0.5"/>
                </g>
               <g id="resetDef">
                       <use xlink:href="#rim2" fill="#404040">
                               <set attributeName="fill" to="#808080" begin="reset.mouseover" end="reset.mouseout"/>
                       </use>
               </g>
        </defs>

<script type="text/javascript">
var viewWidth = 636;
var viewHeight = 1459;
var sectionId = 'dynsection-3';
</script>
<script xlink:href="../../svgpan.js"/>
<svg id="graph" class="graph">
<g id="viewport">
<title>commands.templates.TurtleCommand.getMyTurtleManager</title>
<polygon fill="white" stroke="none" points="-4,4 -4,-1455 632,-1455 632,4 -4,4"/>
<!-- Node1 -->
<g id="node1" class="node"><title>Node1</title>
<polygon fill="#bfbfbf" stroke="black" points="0.5,-710 0.5,-740 167.5,-740 167.5,-710 0.5,-710"/>
<text text-anchor="start" x="8.5" y="-728" font-family="Helvetica,sans-Serif" font-size="10.00">commands.templates.Turtle</text>
<text text-anchor="middle" x="84" y="-717" font-family="Helvetica,sans-Serif" font-size="10.00">Command.getMyTurtleManager</text>
</g>
<!-- Node2 -->
<g id="node2" class="node"><title>Node2</title>
<g id="a_node2"><a xlink:href="../../d0/d5e/classcommands_1_1turtle__commands_1_1_ask_with_command.html#aed74c73cf16407cb097ecbcbd0110ecb" target="_top" xlink:title="commands.turtle_commands.\lAskWithCommand.execute">
<polygon fill="white" stroke="black" points="206.5,-1421 206.5,-1451 367.5,-1451 367.5,-1421 206.5,-1421"/>
<text text-anchor="start" x="214.5" y="-1439" font-family="Helvetica,sans-Serif" font-size="10.00">commands.turtle_commands.</text>
<text text-anchor="middle" x="287" y="-1428" font-family="Helvetica,sans-Serif" font-size="10.00">AskWithCommand.execute</text>
</a>
</g>
</g>
<!-- Node1&#45;&gt;Node2 -->
<g id="edge1" class="edge"><title>Node1&#45;&gt;Node2</title>
<path fill="none" stroke="midnightblue" d="M85.9395,-750.358C90.581,-862.126 114.566,-1309.71 204,-1411 207.349,-1414.79 211.255,-1418.02 215.511,-1420.76"/>
<polygon fill="midnightblue" stroke="midnightblue" points="89.4245,-749.911 85.5279,-740.058 82.4301,-750.19 89.4245,-749.911"/>
</g>
<!-- Node3 -->
<g id="node3" class="node"><title>Node3</title>
<g id="a_node3"><a xlink:href="../../d4/da8/classcommands_1_1turtle__commands_1_1_turtles_command.html#a7381223a6f538fcfb9f630f656dd6385" target="_top" xlink:title="commands.turtle_commands.\lTurtlesCommand.execute">
<polygon fill="white" stroke="black" points="206.5,-1372 206.5,-1402 367.5,-1402 367.5,-1372 206.5,-1372"/>
<text text-anchor="start" x="214.5" y="-1390" font-family="Helvetica,sans-Serif" font-size="10.00">commands.turtle_commands.</text>
<text text-anchor="middle" x="287" y="-1379" font-family="Helvetica,sans-Serif" font-size="10.00">TurtlesCommand.execute</text>
</a>
</g>
</g>
<!-- Node1&#45;&gt;Node3 -->
<g id="edge2" class="edge"><title>Node1&#45;&gt;Node3</title>
<path fill="none" stroke="midnightblue" d="M86.3029,-750.249C92.2982,-856.837 120.6,-1268.77 204,-1362 207.473,-1365.88 211.529,-1369.17 215.944,-1371.95"/>
<polygon fill="midnightblue" stroke="midnightblue" points="89.7893,-749.902 85.7488,-740.108 82.7997,-750.284 89.7893,-749.902"/>
</g>
<!-- Node4 -->
<g id="node4" class="node"><title>Node4</title>
<g id="a_node4"><a xlink:href="../../d8/dcb/classcommands_1_1turtle__commands_1_1_x_cor_query.html#a81bf278aa55931e1f63dc46fe7cc6604" target="_top" xlink:title="commands.turtle_commands.\lXCorQuery.execute">
<polygon fill="white" stroke="black" points="206.5,-1323 206.5,-1353 367.5,-1353 367.5,-1323 206.5,-1323"/>
<text text-anchor="start" x="214.5" y="-1341" font-family="Helvetica,sans-Serif" font-size="10.00">commands.turtle_commands.</text>
<text text-anchor="middle" x="287" y="-1330" font-family="Helvetica,sans-Serif" font-size="10.00">XCorQuery.execute</text>
</a>
</g>
</g>
<!-- Node1&#45;&gt;Node4 -->
<g id="edge3" class="edge"><title>Node1&#45;&gt;Node4</title>
<path fill="none" stroke="midnightblue" d="M86.7295,-750.236C94.1683,-851.607 126.64,-1227.81 204,-1313 207.502,-1316.86 211.579,-1320.13 216.009,-1322.9"/>
<polygon fill="midnightblue" stroke="midnightblue" points="90.2036,-749.748 85.9974,-740.024 83.2215,-750.248 90.2036,-749.748"/>
</g>
<!-- Node5 -->
<g id="node5" class="node"><title>Node5</title>
<g id="a_node5"><a xlink:href="../../d2/dd3/classcommands_1_1turtle__commands_1_1_stamp_command.html#a33c3d71416f2018768e69b504b6940dc" target="_top" xlink:title="commands.turtle_commands.\lStampCommand.execute">
<polygon fill="white" stroke="black" points="206.5,-1274 206.5,-1304 367.5,-1304 367.5,-1274 206.5,-1274"/>
<text text-anchor="start" x="214.5" y="-1292" font-family="Helvetica,sans-Serif" font-size="10.00">commands.turtle_commands.</text>
<text text-anchor="middle" x="287" y="-1281" font-family="Helvetica,sans-Serif" font-size="10.00">StampCommand.execute</text>
</a>
</g>
</g>
<!-- Node1&#45;&gt;Node5 -->
<g id="edge4" class="edge"><title>Node1&#45;&gt;Node5</title>
<path fill="none" stroke="midnightblue" d="M87.2363,-750.277C96.2187,-846.289 132.672,-1186.83 204,-1264 207.536,-1267.83 211.637,-1271.07 216.084,-1273.83"/>
<polygon fill="midnightblue" stroke="midnightblue" points="90.6975,-749.693 86.2981,-740.054 83.7268,-750.332 90.6975,-749.693"/>
</g>
<!-- Node6 -->
<g id="node6" class="node"><title>Node6</title>
<g id="a_node6"><a xlink:href="../../da/d66/classcommands_1_1turtle__commands_1_1_back_command.html#a6064fe4c8969503827730da561c9a7da" target="_top" xlink:title="commands.turtle_commands.\lBackCommand.execute">
<polygon fill="white" stroke="black" points="206.5,-1225 206.5,-1255 367.5,-1255 367.5,-1225 206.5,-1225"/>
<text text-anchor="start" x="214.5" y="-1243" font-family="Helvetica,sans-Serif" font-size="10.00">commands.turtle_commands.</text>
<text text-anchor="middle" x="287" y="-1232" font-family="Helvetica,sans-Serif" font-size="10.00">BackCommand.execute</text>
</a>
</g>
</g>
<!-- Node1&#45;&gt;Node6 -->
<g id="edge5" class="edge"><title>Node1&#45;&gt;Node6</title>
<path fill="none" stroke="midnightblue" d="M87.8409,-750.302C98.4713,-840.67 138.672,-1145.79 204,-1215 207.678,-1218.9 211.943,-1222.19 216.557,-1224.98"/>
<polygon fill="midnightblue" stroke="midnightblue" points="91.2922,-749.68 86.6654,-740.148 84.3387,-750.485 91.2922,-749.68"/>
</g>
<!-- Node7 -->
<g id="node7" class="node"><title>Node7</title>
<g id="a_node7"><a xlink:href="../../d0/d94/classcommands_1_1turtle__commands_1_1_y_cor_query.html#aa1fa450ce3d9885534a8a51ca854aeae" target="_top" xlink:title="commands.turtle_commands.\lYCorQuery.execute">
<polygon fill="white" stroke="black" points="206.5,-1176 206.5,-1206 367.5,-1206 367.5,-1176 206.5,-1176"/>
<text text-anchor="start" x="214.5" y="-1194" font-family="Helvetica,sans-Serif" font-size="10.00">commands.turtle_commands.</text>
<text text-anchor="middle" x="287" y="-1183" font-family="Helvetica,sans-Serif" font-size="10.00">YCorQuery.execute</text>
</a>
</g>
</g>
<!-- Node1&#45;&gt;Node7 -->
<g id="edge6" class="edge"><title>Node1&#45;&gt;Node7</title>
<path fill="none" stroke="midnightblue" d="M88.5212,-749.95C100.848,-833.944 144.551,-1104.6 204,-1166 207.727,-1169.85 212.027,-1173.11 216.666,-1175.87"/>
<polygon fill="midnightblue" stroke="midnightblue" points="91.9795,-749.409 87.0825,-740.014 85.0518,-750.413 91.9795,-749.409"/>
</g>
<!-- Node8 -->
<g id="node8" class="node"><title>Node8</title>
<g id="a_node8"><a xlink:href="../../de/d5b/classcommands_1_1turtle__commands_1_1_set_heading_command.html#a0820b8d48ea0912bf1190b7cb0cd3495" target="_top" xlink:title="commands.turtle_commands.\lSetHeadingCommand.execute">
<polygon fill="white" stroke="black" points="205,-1127 205,-1157 369,-1157 369,-1127 205,-1127"/>
<text text-anchor="start" x="213" y="-1145" font-family="Helvetica,sans-Serif" font-size="10.00">commands.turtle_commands.</text>
<text text-anchor="middle" x="287" y="-1134" font-family="Helvetica,sans-Serif" font-size="10.00">SetHeadingCommand.execute</text>
</a>
</g>
</g>
<!-- Node1&#45;&gt;Node8 -->
<g id="edge7" class="edge"><title>Node1&#45;&gt;Node8</title>
<path fill="none" stroke="midnightblue" d="M84.9663,-750.684C86.3082,-819.988 99.733,-1012.61 204,-1117 207.892,-1120.9 212.371,-1124.19 217.187,-1126.97"/>
<polygon fill="midnightblue" stroke="midnightblue" points="88.4614,-750.25 84.841,-740.293 81.4619,-750.334 88.4614,-750.25"/>
</g>
<!-- Node9 -->
<g id="node9" class="node"><title>Node9</title>
<g id="a_node9"><a xlink:href="../../df/d09/classcommands_1_1turtle__commands_1_1_clear_command.html#a320f36405c7df1c95f2b14072ee69121" target="_top" xlink:title="commands.turtle_commands.\lClearCommand.execute">
<polygon fill="white" stroke="black" points="206.5,-1078 206.5,-1108 367.5,-1108 367.5,-1078 206.5,-1078"/>
<text text-anchor="start" x="214.5" y="-1096" font-family="Helvetica,sans-Serif" font-size="10.00">commands.turtle_commands.</text>
<text text-anchor="middle" x="287" y="-1085" font-family="Helvetica,sans-Serif" font-size="10.00">ClearCommand.execute</text>
</a>
</g>
</g>
<!-- Node1&#45;&gt;Node9 -->
<g id="edge8" class="edge"><title>Node1&#45;&gt;Node9</title>
<path fill="none" stroke="midnightblue" d="M86.2532,-750.448C90.7538,-813.58 111.259,-978.719 204,-1068 207.967,-1071.82 212.5,-1075.06 217.353,-1077.8"/>
<polygon fill="midnightblue" stroke="midnightblue" points="89.7304,-749.976 85.6035,-740.218 82.7445,-750.42 89.7304,-749.976"/>
</g>
<!-- Node10 -->
<g id="node10" class="node"><title>Node10</title>
<g id="a_node10"><a xlink:href="../../dd/def/classcommands_1_1turtle__commands_1_1_pen_down_query.html#a44c3c19cff6c94f6b2e08a831332f6c4" target="_top" xlink:title="commands.turtle_commands.\lPenDownQuery.execute">
<polygon fill="white" stroke="black" points="206.5,-1029 206.5,-1059 367.5,-1059 367.5,-1029 206.5,-1029"/>
<text text-anchor="start" x="214.5" y="-1047" font-family="Helvetica,sans-Serif" font-size="10.00">commands.turtle_commands.</text>
<text text-anchor="middle" x="287" y="-1036" font-family="Helvetica,sans-Serif" font-size="10.00">PenDownQuery.execute</text>
</a>
</g>
</g>
<!-- Node1&#45;&gt;Node10 -->
<g id="edge9" class="edge"><title>Node1&#45;&gt;Node10</title>
<path fill="none" stroke="midnightblue" d="M87.9098,-750.245C95.7802,-806.816 122.689,-944.597 204,-1019 208.172,-1022.82 212.913,-1026.05 217.961,-1028.79"/>
<polygon fill="midnightblue" stroke="midnightblue" points="91.3448,-749.519 86.579,-740.057 84.4037,-750.426 91.3448,-749.519"/>
</g>
<!-- Node11 -->
<g id="node11" class="node"><title>Node11</title>
<g id="a_node11"><a xlink:href="../../df/d62/classcommands_1_1turtle__commands_1_1_id_command.html#a07f0df55d06e9fc7ed7cec7edadb327d" target="_top" xlink:title="commands.turtle_commands.\lIdCommand.execute">
<polygon fill="white" stroke="black" points="206.5,-980 206.5,-1010 367.5,-1010 367.5,-980 206.5,-980"/>
<text text-anchor="start" x="214.5" y="-998" font-family="Helvetica,sans-Serif" font-size="10.00">commands.turtle_commands.</text>
<text text-anchor="middle" x="287" y="-987" font-family="Helvetica,sans-Serif" font-size="10.00">IdCommand.execute</text>
</a>
</g>
</g>
<!-- Node1&#45;&gt;Node11 -->
<g id="edge10" class="edge"><title>Node1&#45;&gt;Node11</title>
<path fill="none" stroke="midnightblue" d="M90.1616,-750.116C101.647,-799.62 134.012,-910.173 204,-970 208.525,-973.868 213.638,-977.138 219.045,-979.902"/>
<polygon fill="midnightblue" stroke="midnightblue" points="93.5544,-749.248 87.964,-740.249 86.7218,-750.77 93.5544,-749.248"/>
</g>
<!-- Node12 -->
<g id="node12" class="node"><title>Node12</title>
<g id="a_node12"><a xlink:href="../../da/d6b/classcommands_1_1turtle__commands_1_1_set_pen_color.html#a4c680c5c31ae61d1241f883d7b3514bc" target="_top" xlink:title="commands.turtle_commands.\lSetPenColor.execute">
<polygon fill="white" stroke="black" points="206.5,-931 206.5,-961 367.5,-961 367.5,-931 206.5,-931"/>
<text text-anchor="start" x="214.5" y="-949" font-family="Helvetica,sans-Serif" font-size="10.00">commands.turtle_commands.</text>
<text text-anchor="middle" x="287" y="-938" font-family="Helvetica,sans-Serif" font-size="10.00">SetPenColor.execute</text>
</a>
</g>
</g>
<!-- Node1&#45;&gt;Node12 -->
<g id="edge11" class="edge"><title>Node1&#45;&gt;Node12</title>
<path fill="none" stroke="midnightblue" d="M93.3158,-749.686C108.581,-791.259 145.027,-875.18 204,-921 208.936,-924.835 214.46,-928.085 220.245,-930.838"/>
<polygon fill="midnightblue" stroke="midnightblue" points="96.5453,-748.321 89.8903,-740.077 89.9518,-750.672 96.5453,-748.321"/>
</g>
<!-- Node13 -->
<g id="node13" class="node"><title>Node13</title>
<g id="a_node13"><a xlink:href="../../d2/df1/classcommands_1_1turtle__commands_1_1_set_position_command.html#acd67ddeed20e6efb4f0a5c71f3e0ad41" target="_top" xlink:title="commands.turtle_commands.\lSetPositionCommand.execute">
<polygon fill="white" stroke="black" points="206,-882 206,-912 368,-912 368,-882 206,-882"/>
<text text-anchor="start" x="214" y="-900" font-family="Helvetica,sans-Serif" font-size="10.00">commands.turtle_commands.</text>
<text text-anchor="middle" x="287" y="-889" font-family="Helvetica,sans-Serif" font-size="10.00">SetPositionCommand.execute</text>
</a>
</g>
</g>
<!-- Node1&#45;&gt;Node13 -->
<g id="edge12" class="edge"><title>Node1&#45;&gt;Node13</title>
<path fill="none" stroke="midnightblue" d="M98.3746,-749.314C117.556,-781.96 155.925,-839.595 204,-872 209.677,-875.827 215.961,-879.085 222.452,-881.856"/>
<polygon fill="midnightblue" stroke="midnightblue" points="101.283,-747.35 93.2643,-740.425 95.2143,-750.839 101.283,-747.35"/>
</g>
<!-- Node15 -->
<g id="node15" class="node"><title>Node15</title>
<g id="a_node15"><a xlink:href="../../d7/d3f/classcommands_1_1turtle__commands_1_1_set_stroke_size.html#a4b0c43f45a8b003649cf6f1497fba393" target="_top" xlink:title="commands.turtle_commands.\lSetStrokeSize.execute">
<polygon fill="white" stroke="black" points="206.5,-833 206.5,-863 367.5,-863 367.5,-833 206.5,-833"/>
<text text-anchor="start" x="214.5" y="-851" font-family="Helvetica,sans-Serif" font-size="10.00">commands.turtle_commands.</text>
<text text-anchor="middle" x="287" y="-840" font-family="Helvetica,sans-Serif" font-size="10.00">SetStrokeSize.execute</text>
</a>
</g>
</g>
<!-- Node1&#45;&gt;Node15 -->
<g id="edge15" class="edge"><title>Node1&#45;&gt;Node15</title>
<path fill="none" stroke="midnightblue" d="M106.682,-747.417C129.159,-769.485 166.237,-802.74 204,-823 211.082,-826.8 218.825,-830.109 226.635,-832.965"/>
<polygon fill="midnightblue" stroke="midnightblue" points="108.916,-744.701 99.3637,-740.117 103.972,-749.657 108.916,-744.701"/>
</g>
<!-- Node16 -->
<g id="node16" class="node"><title>Node16</title>
<g id="a_node16"><a xlink:href="../../d9/db0/classcommands_1_1turtle__commands_1_1_get_shape_command.html#a4586179e0bc294584046bd557aa45c0e" target="_top" xlink:title="commands.turtle_commands.\lGetShapeCommand.execute">
<polygon fill="white" stroke="black" points="206.5,-784 206.5,-814 367.5,-814 367.5,-784 206.5,-784"/>
<text text-anchor="start" x="214.5" y="-802" font-family="Helvetica,sans-Serif" font-size="10.00">commands.turtle_commands.</text>
<text text-anchor="middle" x="287" y="-791" font-family="Helvetica,sans-Serif" font-size="10.00">GetShapeCommand.execute</text>
</a>
</g>
</g>
<!-- Node1&#45;&gt;Node16 -->
<g id="edge16" class="edge"><title>Node1&#45;&gt;Node16</title>
<path fill="none" stroke="midnightblue" d="M128.277,-743.976C150.681,-753.504 178.595,-764.92 204,-774 213.53,-777.406 223.783,-780.767 233.702,-783.866"/>
<polygon fill="midnightblue" stroke="midnightblue" points="129.606,-740.738 119.036,-740.02 126.851,-747.173 129.606,-740.738"/>
</g>
<!-- Node17 -->
<g id="node17" class="node"><title>Node17</title>
<g id="a_node17"><a xlink:href="../../d4/dfe/classcommands_1_1turtle__commands_1_1_is_showing_query.html#a36c93017acaed64792e490cfbe929300" target="_top" xlink:title="commands.turtle_commands.\lIsShowingQuery.execute">
<polygon fill="white" stroke="black" points="206.5,-735 206.5,-765 367.5,-765 367.5,-735 206.5,-735"/>
<text text-anchor="start" x="214.5" y="-753" font-family="Helvetica,sans-Serif" font-size="10.00">commands.turtle_commands.</text>
<text text-anchor="middle" x="287" y="-742" font-family="Helvetica,sans-Serif" font-size="10.00">IsShowingQuery.execute</text>
</a>
</g>
</g>
<!-- Node1&#45;&gt;Node17 -->
<g id="edge17" class="edge"><title>Node1&#45;&gt;Node17</title>
<path fill="none" stroke="midnightblue" d="M177.571,-736.514C187.164,-737.707 196.854,-738.912 206.288,-740.086"/>
<polygon fill="midnightblue" stroke="midnightblue" points="177.98,-733.038 167.625,-735.277 177.116,-739.984 177.98,-733.038"/>
</g>
<!-- Node18 -->
<g id="node18" class="node"><title>Node18</title>
<g id="a_node18"><a xlink:href="../../d1/d15/classcommands_1_1turtle__commands_1_1_pen_color_command.html#a1f19373d20288564123c75f30de2d0f9" target="_top" xlink:title="commands.turtle_commands.\lPenColorCommand.execute">
<polygon fill="white" stroke="black" points="206.5,-686 206.5,-716 367.5,-716 367.5,-686 206.5,-686"/>
<text text-anchor="start" x="214.5" y="-704" font-family="Helvetica,sans-Serif" font-size="10.00">commands.turtle_commands.</text>
<text text-anchor="middle" x="287" y="-693" font-family="Helvetica,sans-Serif" font-size="10.00">PenColorCommand.execute</text>
</a>
</g>
</g>
<!-- Node1&#45;&gt;Node18 -->
<g id="edge18" class="edge"><title>Node1&#45;&gt;Node18</title>
<path fill="none" stroke="midnightblue" d="M177.571,-713.947C187.164,-712.801 196.854,-711.644 206.288,-710.518"/>
<polygon fill="midnightblue" stroke="midnightblue" points="177.139,-710.473 167.625,-715.134 177.969,-717.424 177.139,-710.473"/>
</g>
<!-- Node19 -->
<g id="node19" class="node"><title>Node19</title>
<g id="a_node19"><a xlink:href="../../d6/dad/classcommands_1_1turtle__commands_1_1_pen_down_command.html#ae68eb0c792c3148f505a535a2010c4ca" target="_top" xlink:title="commands.turtle_commands.\lPenDownCommand.execute">
<polygon fill="white" stroke="black" points="206.5,-637 206.5,-667 367.5,-667 367.5,-637 206.5,-637"/>
<text text-anchor="start" x="214.5" y="-655" font-family="Helvetica,sans-Serif" font-size="10.00">commands.turtle_commands.</text>
<text text-anchor="middle" x="287" y="-644" font-family="Helvetica,sans-Serif" font-size="10.00">PenDownCommand.execute</text>
</a>
</g>
</g>
<!-- Node1&#45;&gt;Node19 -->
<g id="edge19" class="edge"><title>Node1&#45;&gt;Node19</title>
<path fill="none" stroke="midnightblue" d="M129.588,-705.938C151.779,-696.727 179.116,-685.793 204,-677 213.683,-673.579 224.103,-670.185 234.159,-667.054"/>
<polygon fill="midnightblue" stroke="midnightblue" points="127.978,-702.817 120.099,-709.901 130.676,-709.276 127.978,-702.817"/>
</g>
<!-- Node20 -->
<g id="node20" class="node"><title>Node20</title>
<g id="a_node20"><a xlink:href="../../d6/d23/classcommands_1_1turtle__commands_1_1_hide_turtle_command.html#aaee51dd86735dd045e8c6918c889365c" target="_top" xlink:title="commands.turtle_commands.\lHideTurtleCommand.execute">
<polygon fill="white" stroke="black" points="206.5,-588 206.5,-618 367.5,-618 367.5,-588 206.5,-588"/>
<text text-anchor="start" x="214.5" y="-606" font-family="Helvetica,sans-Serif" font-size="10.00">commands.turtle_commands.</text>
<text text-anchor="middle" x="287" y="-595" font-family="Helvetica,sans-Serif" font-size="10.00">HideTurtleCommand.execute</text>
</a>
</g>
</g>
<!-- Node1&#45;&gt;Node20 -->
<g id="edge20" class="edge"><title>Node1&#45;&gt;Node20</title>
<path fill="none" stroke="midnightblue" d="M107.105,-702.457C129.652,-680.623 166.552,-647.97 204,-628 211.092,-624.218 218.84,-620.92 226.652,-618.068"/>
<polygon fill="midnightblue" stroke="midnightblue" points="104.426,-700.182 99.751,-709.69 109.335,-705.173 104.426,-700.182"/>
</g>
<!-- Node21 -->
<g id="node21" class="node"><title>Node21</title>
<g id="a_node21"><a xlink:href="../../d6/d55/classcommands_1_1turtle__commands_1_1_left_command.html#a953dcfa9ea19f47c019dacb50254cc1d" target="_top" xlink:title="commands.turtle_commands.\lLeftCommand.execute">
<polygon fill="white" stroke="black" points="206.5,-539 206.5,-569 367.5,-569 367.5,-539 206.5,-539"/>
<text text-anchor="start" x="214.5" y="-557" font-family="Helvetica,sans-Serif" font-size="10.00">commands.turtle_commands.</text>
<text text-anchor="middle" x="287" y="-546" font-family="Helvetica,sans-Serif" font-size="10.00">LeftCommand.execute</text>
</a>
</g>
</g>
<!-- Node1&#45;&gt;Node21 -->
<g id="edge21" class="edge"><title>Node1&#45;&gt;Node21</title>
<path fill="none" stroke="midnightblue" d="M98.4161,-700.853C117.645,-668.433 156.068,-611.192 204,-579 209.683,-575.183 215.972,-571.93 222.464,-569.163"/>
<polygon fill="midnightblue" stroke="midnightblue" points="95.2852,-699.275 93.292,-709.681 101.339,-702.79 95.2852,-699.275"/>
</g>
<!-- Node22 -->
<g id="node22" class="node"><title>Node22</title>
<g id="a_node22"><a xlink:href="../../da/d19/classcommands_1_1turtle__commands_1_1_heading_query.html#aeff9f68af56b6777c04ae21e08375fee" target="_top" xlink:title="commands.turtle_commands.\lHeadingQuery.execute">
<polygon fill="white" stroke="black" points="206.5,-490 206.5,-520 367.5,-520 367.5,-490 206.5,-490"/>
<text text-anchor="start" x="214.5" y="-508" font-family="Helvetica,sans-Serif" font-size="10.00">commands.turtle_commands.</text>
<text text-anchor="middle" x="287" y="-497" font-family="Helvetica,sans-Serif" font-size="10.00">HeadingQuery.execute</text>
</a>
</g>
</g>
<!-- Node1&#45;&gt;Node22 -->
<g id="edge22" class="edge"><title>Node1&#45;&gt;Node22</title>
<path fill="none" stroke="midnightblue" d="M93.3518,-700.44C108.671,-659.077 145.195,-575.582 204,-530 208.94,-526.17 214.467,-522.925 220.254,-520.174"/>
<polygon fill="midnightblue" stroke="midnightblue" points="90.0046,-699.404 89.9133,-709.999 96.5915,-701.774 90.0046,-699.404"/>
</g>
<!-- Node23 -->
<g id="node23" class="node"><title>Node23</title>
<g id="a_node23"><a xlink:href="../../d4/d6b/classcommands_1_1turtle__commands_1_1_clear_stamp_command.html#a1bd5a213993e5208bedf1e0263b8b313" target="_top" xlink:title="commands.turtle_commands.\lClearStampCommand.execute">
<polygon fill="white" stroke="black" points="204.5,-441 204.5,-471 369.5,-471 369.5,-441 204.5,-441"/>
<text text-anchor="start" x="212.5" y="-459" font-family="Helvetica,sans-Serif" font-size="10.00">commands.turtle_commands.</text>
<text text-anchor="middle" x="287" y="-448" font-family="Helvetica,sans-Serif" font-size="10.00">ClearStampCommand.execute</text>
</a>
</g>
</g>
<!-- Node1&#45;&gt;Node23 -->
<g id="edge23" class="edge"><title>Node1&#45;&gt;Node23</title>
<path fill="none" stroke="midnightblue" d="M90.1931,-699.985C101.735,-650.68 134.196,-540.573 204,-481 208.528,-477.135 213.644,-473.868 219.052,-471.106"/>
<polygon fill="midnightblue" stroke="midnightblue" points="86.7625,-699.288 87.9839,-709.813 93.5921,-700.824 86.7625,-699.288"/>
</g>
<!-- Node24 -->
<g id="node24" class="node"><title>Node24</title>
<g id="a_node24"><a xlink:href="../../d9/ded/classcommands_1_1turtle__commands_1_1_set_shape_command.html#ab651615547aea277ae832fcebf48423b" target="_top" xlink:title="commands.turtle_commands.\lSetShapeCommand.execute">
<polygon fill="white" stroke="black" points="206.5,-392 206.5,-422 367.5,-422 367.5,-392 206.5,-392"/>
<text text-anchor="start" x="214.5" y="-410" font-family="Helvetica,sans-Serif" font-size="10.00">commands.turtle_commands.</text>
<text text-anchor="middle" x="287" y="-399" font-family="Helvetica,sans-Serif" font-size="10.00">SetShapeCommand.execute</text>
</a>
</g>
</g>
<!-- Node1&#45;&gt;Node24 -->
<g id="edge24" class="edge"><title>Node1&#45;&gt;Node24</title>
<path fill="none" stroke="midnightblue" d="M87.9374,-699.839C95.8647,-643.457 122.882,-506.137 204,-432 208.175,-428.185 212.917,-424.951 217.966,-422.211"/>
<polygon fill="midnightblue" stroke="midnightblue" points="84.4358,-699.621 86.5961,-709.994 91.3756,-700.538 84.4358,-699.621"/>
</g>
<!-- Node25 -->
<g id="node25" class="node"><title>Node25</title>
<g id="a_node25"><a xlink:href="../../d2/dd0/classcommands_1_1turtle__commands_1_1_pen_up_command.html#a07d7143e0b66160d9edd87d49ac4543d" target="_top" xlink:title="commands.turtle_commands.\lPenUpCommand.execute">
<polygon fill="white" stroke="black" points="206.5,-343 206.5,-373 367.5,-373 367.5,-343 206.5,-343"/>
<text text-anchor="start" x="214.5" y="-361" font-family="Helvetica,sans-Serif" font-size="10.00">commands.turtle_commands.</text>
<text text-anchor="middle" x="287" y="-350" font-family="Helvetica,sans-Serif" font-size="10.00">PenUpCommand.execute</text>
</a>
</g>
</g>
<!-- Node1&#45;&gt;Node25 -->
<g id="edge25" class="edge"><title>Node1&#45;&gt;Node25</title>
<path fill="none" stroke="midnightblue" d="M86.2779,-699.624C90.8351,-636.673 111.46,-472.006 204,-383 207.969,-379.183 212.503,-375.947 217.357,-373.203"/>
<polygon fill="midnightblue" stroke="midnightblue" points="82.771,-699.62 85.6187,-709.825 89.7564,-700.071 82.771,-699.62"/>
</g>
<!-- Node26 -->
<g id="node26" class="node"><title>Node26</title>
<g id="a_node26"><a xlink:href="../../db/d31/classcommands_1_1turtle__commands_1_1_forward_command.html#a7b9e64ff5e8f0bacbebc88db90a682bc" target="_top" xlink:title="commands.turtle_commands.\lForwardCommand.execute">
<polygon fill="white" stroke="black" points="206.5,-294 206.5,-324 367.5,-324 367.5,-294 206.5,-294"/>
<text text-anchor="start" x="214.5" y="-312" font-family="Helvetica,sans-Serif" font-size="10.00">commands.turtle_commands.</text>
<text text-anchor="middle" x="287" y="-301" font-family="Helvetica,sans-Serif" font-size="10.00">ForwardCommand.execute</text>
</a>
</g>
</g>
<!-- Node1&#45;&gt;Node26 -->
<g id="edge26" class="edge"><title>Node1&#45;&gt;Node26</title>
<path fill="none" stroke="midnightblue" d="M84.9886,-699.38C86.3866,-630.249 99.9395,-438.111 204,-334 207.893,-330.105 212.373,-326.814 217.19,-324.033"/>
<polygon fill="midnightblue" stroke="midnightblue" points="81.4843,-699.701 84.8546,-709.745 88.4837,-699.792 81.4843,-699.701"/>
</g>
<!-- Node27 -->
<g id="node27" class="node"><title>Node27</title>
<g id="a_node27"><a xlink:href="../../db/d90/classcommands_1_1turtle__commands_1_1_towards_command.html#a8cd9a083d87b20c53a805b4fe8e0aa06" target="_top" xlink:title="commands.turtle_commands.\lTowardsCommand.execute">
<polygon fill="white" stroke="black" points="206.5,-245 206.5,-275 367.5,-275 367.5,-245 206.5,-245"/>
<text text-anchor="start" x="214.5" y="-263" font-family="Helvetica,sans-Serif" font-size="10.00">commands.turtle_commands.</text>
<text text-anchor="middle" x="287" y="-252" font-family="Helvetica,sans-Serif" font-size="10.00">TowardsCommand.execute</text>
</a>
</g>
</g>
<!-- Node1&#45;&gt;Node27 -->
<g id="edge27" class="edge"><title>Node1&#45;&gt;Node27</title>
<path fill="none" stroke="midnightblue" d="M88.6121,-699.544C101.076,-615.102 144.791,-346.122 204,-285 207.728,-281.152 212.029,-277.891 216.668,-275.13"/>
<polygon fill="midnightblue" stroke="midnightblue" points="85.1325,-699.152 87.1545,-709.552 92.0594,-700.161 85.1325,-699.152"/>
</g>
<!-- Node29 -->
<g id="node29" class="node"><title>Node29</title>
<g id="a_node29"><a xlink:href="../../d7/dda/classcommands_1_1turtle__commands_1_1_show_turtle_command.html#a0a886f8c26945d74cd640875b9a84b28" target="_top" xlink:title="commands.turtle_commands.\lShowTurtleCommand.execute">
<polygon fill="white" stroke="black" points="206.5,-196 206.5,-226 367.5,-226 367.5,-196 206.5,-196"/>
<text text-anchor="start" x="214.5" y="-214" font-family="Helvetica,sans-Serif" font-size="10.00">commands.turtle_commands.</text>
<text text-anchor="middle" x="287" y="-203" font-family="Helvetica,sans-Serif" font-size="10.00">ShowTurtleCommand.execute</text>
</a>
</g>
</g>
<!-- Node1&#45;&gt;Node29 -->
<g id="edge30" class="edge"><title>Node1&#45;&gt;Node29</title>
<path fill="none" stroke="midnightblue" d="M87.8484,-699.749C98.5043,-609.564 138.782,-305.061 204,-236 207.679,-232.105 211.944,-228.81 216.559,-226.025"/>
<polygon fill="midnightblue" stroke="midnightblue" points="84.3486,-699.545 86.6699,-709.882 91.3017,-700.353 84.3486,-699.545"/>
</g>
<!-- Node30 -->
<g id="node30" class="node"><title>Node30</title>
<g id="a_node30"><a xlink:href="../../dd/dfb/classcommands_1_1turtle__commands_1_1_home_command.html#aef0ad78e6e100992345edaf73ecd78c1" target="_top" xlink:title="commands.turtle_commands.\lHomeCommand.execute">
<polygon fill="white" stroke="black" points="206.5,-147 206.5,-177 367.5,-177 367.5,-147 206.5,-147"/>
<text text-anchor="start" x="214.5" y="-165" font-family="Helvetica,sans-Serif" font-size="10.00">commands.turtle_commands.</text>
<text text-anchor="middle" x="287" y="-154" font-family="Helvetica,sans-Serif" font-size="10.00">HomeCommand.execute</text>
</a>
</g>
</g>
<!-- Node1&#45;&gt;Node30 -->
<g id="edge31" class="edge"><title>Node1&#45;&gt;Node30</title>
<path fill="none" stroke="midnightblue" d="M87.2432,-699.769C96.2506,-603.934 132.783,-264.019 204,-187 207.536,-183.175 211.639,-179.929 216.086,-177.175"/>
<polygon fill="midnightblue" stroke="midnightblue" points="83.7353,-699.694 86.3023,-709.973 90.7058,-700.337 83.7353,-699.694"/>
</g>
<!-- Node31 -->
<g id="node31" class="node"><title>Node31</title>
<g id="a_node31"><a xlink:href="../../db/dad/classcommands_1_1turtle__commands_1_1_right_command.html#a356afbf240a6d680dbd8c39c17d00fbd" target="_top" xlink:title="commands.turtle_commands.\lRightCommand.execute">
<polygon fill="white" stroke="black" points="206.5,-98 206.5,-128 367.5,-128 367.5,-98 206.5,-98"/>
<text text-anchor="start" x="214.5" y="-116" font-family="Helvetica,sans-Serif" font-size="10.00">commands.turtle_commands.</text>
<text text-anchor="middle" x="287" y="-105" font-family="Helvetica,sans-Serif" font-size="10.00">RightCommand.execute</text>
</a>
</g>
</g>
<!-- Node1&#45;&gt;Node31 -->
<g id="edge32" class="edge"><title>Node1&#45;&gt;Node31</title>
<path fill="none" stroke="midnightblue" d="M86.7603,-699.475C94.2701,-597.787 126.837,-222.943 204,-138 207.503,-134.144 211.58,-130.876 216.01,-128.105"/>
<polygon fill="midnightblue" stroke="midnightblue" points="83.2493,-699.503 86.0204,-709.729 90.2311,-700.007 83.2493,-699.503"/>
</g>
<!-- Node32 -->
<g id="node32" class="node"><title>Node32</title>
<g id="a_node32"><a xlink:href="../../da/d20/classcommands_1_1turtle__commands_1_1_ask_command.html#a9f668e7b2778cf4241b59b11db58e211" target="_top" xlink:title="commands.turtle_commands.\lAskCommand.execute">
<polygon fill="white" stroke="black" points="206.5,-49 206.5,-79 367.5,-79 367.5,-49 206.5,-49"/>
<text text-anchor="start" x="214.5" y="-67" font-family="Helvetica,sans-Serif" font-size="10.00">commands.turtle_commands.</text>
<text text-anchor="middle" x="287" y="-56" font-family="Helvetica,sans-Serif" font-size="10.00">AskCommand.execute</text>
</a>
</g>
</g>
<!-- Node1&#45;&gt;Node32 -->
<g id="edge33" class="edge"><title>Node1&#45;&gt;Node32</title>
<path fill="none" stroke="midnightblue" d="M86.3088,-699.79C92.328,-593.369 120.714,-182.081 204,-89 207.473,-85.1181 211.53,-81.8303 215.945,-79.0468"/>
<polygon fill="midnightblue" stroke="midnightblue" points="82.8064,-699.738 85.7523,-709.915 89.7959,-700.123 82.8064,-699.738"/>
</g>
<!-- Node33 -->
<g id="node33" class="node"><title>Node33</title>
<g id="a_node33"><a xlink:href="../../d1/d00/classcommands_1_1turtle__commands_1_1_tell_command.html#a5b187b4609637fee3e88d2a51681db1a" target="_top" xlink:title="commands.turtle_commands.\lTellCommand.execute">
<polygon fill="white" stroke="black" points="206.5,-0 206.5,-30 367.5,-30 367.5,-0 206.5,-0"/>
<text text-anchor="start" x="214.5" y="-18" font-family="Helvetica,sans-Serif" font-size="10.00">commands.turtle_commands.</text>
<text text-anchor="middle" x="287" y="-7" font-family="Helvetica,sans-Serif" font-size="10.00">TellCommand.execute</text>
</a>
</g>
</g>
<!-- Node1&#45;&gt;Node33 -->
<g id="edge34" class="edge"><title>Node1&#45;&gt;Node33</title>
<path fill="none" stroke="midnightblue" d="M85.945,-699.679C90.6099,-588.072 114.68,-141.135 204,-40 207.35,-36.2072 211.256,-32.9809 215.512,-30.2374"/>
<polygon fill="midnightblue" stroke="midnightblue" points="82.4361,-699.831 85.5312,-709.963 89.4305,-700.112 82.4361,-699.831"/>
</g>
<!-- Node14 -->
<g id="node14" class="node"><title>Node14</title>
<g id="a_node14"><a xlink:href="../../d2/df1/classcommands_1_1turtle__commands_1_1_set_position_command.html#a3b86ee87ea44f3075f71a98f001b86a5" target="_top" xlink:title="commands.turtle_commands.\lSetPositionCommand.executeTurtle\lCommand">
<polygon fill="white" stroke="black" points="423,-876.5 423,-917.5 611,-917.5 611,-876.5 423,-876.5"/>
<text text-anchor="start" x="431" y="-905.5" font-family="Helvetica,sans-Serif" font-size="10.00">commands.turtle_commands.</text>
<text text-anchor="start" x="431" y="-894.5" font-family="Helvetica,sans-Serif" font-size="10.00">SetPositionCommand.executeTurtle</text>
<text text-anchor="middle" x="517" y="-883.5" font-family="Helvetica,sans-Serif" font-size="10.00">Command</text>
</a>
</g>
</g>
<!-- Node13&#45;&gt;Node14 -->
<g id="edge13" class="edge"><title>Node13&#45;&gt;Node14</title>
<path fill="none" stroke="midnightblue" d="M378.138,-890.383C392.836,-890.217 408.088,-890.206 422.856,-890.351"/>
<polygon fill="midnightblue" stroke="midnightblue" points="378.014,-886.884 368.064,-890.523 378.111,-893.884 378.014,-886.884"/>
</g>
<!-- Node14&#45;&gt;Node13 -->
<g id="edge14" class="edge"><title>Node14&#45;&gt;Node13</title>
<path fill="none" stroke="midnightblue" d="M412.568,-903.724C397.631,-903.797 382.451,-903.715 368.064,-903.477"/>
<polygon fill="midnightblue" stroke="midnightblue" points="412.882,-907.222 422.856,-903.649 412.831,-900.222 412.882,-907.222"/>
</g>
<!-- Node28 -->
<g id="node28" class="node"><title>Node28</title>
<g id="a_node28"><a xlink:href="../../db/d90/classcommands_1_1turtle__commands_1_1_towards_command.html#afc72967a871441377946f43e8ff47895" target="_top" xlink:title="commands.turtle_commands.\lTowardsCommand.executeTurtleCommand">
<polygon fill="white" stroke="black" points="406.5,-245 406.5,-275 627.5,-275 627.5,-245 406.5,-245"/>
<text text-anchor="start" x="414.5" y="-263" font-family="Helvetica,sans-Serif" font-size="10.00">commands.turtle_commands.</text>
<text text-anchor="middle" x="517" y="-252" font-family="Helvetica,sans-Serif" font-size="10.00">TowardsCommand.executeTurtleCommand</text>
</a>
</g>
</g>
<!-- Node27&#45;&gt;Node28 -->
<g id="edge28" class="edge"><title>Node27&#45;&gt;Node28</title>
<path fill="none" stroke="midnightblue" d="M377.784,-253.387C387.131,-253.28 396.706,-253.235 406.242,-253.254"/>
<polygon fill="midnightblue" stroke="midnightblue" points="377.693,-249.888 367.743,-253.529 377.792,-256.887 377.693,-249.888"/>
</g>
<!-- Node28&#45;&gt;Node27 -->
<g id="edge29" class="edge"><title>Node28&#45;&gt;Node27</title>
<path fill="none" stroke="midnightblue" d="M396.196,-266.742C386.564,-266.716 376.988,-266.626 367.743,-266.471"/>
<polygon fill="midnightblue" stroke="midnightblue" points="396.24,-270.242 406.242,-266.746 396.243,-263.242 396.24,-270.242"/>
</g>
</g>
</svg>
        <g id="navigator" transform="translate(0 0)" fill="#404254">
                <rect fill="#f2f5e9" fill-opacity="0.5" stroke="#606060" stroke-width=".5" x="0" y="0" width="60" height="60"/>
                <use id="zoomplus" xlink:href="#zoomPlus" x="17" y="9" onmousedown="handleZoom(evt,'in')"/>
                <use id="zoomminus" xlink:href="#zoomMin" x="42" y="9" onmousedown="handleZoom(evt,'out')"/>
                <use id="reset" xlink:href="#resetDef" x="30" y="36" onmousedown="handleReset()"/>
                <g id="arrowUp" xlink:href="#dirArrow" transform="translate(30 24)" onmousedown="handlePan(0,-1)">
                  <use xlink:href="#rim" fill="#404040">
                        <set attributeName="fill" to="#808080" begin="arrowUp.mouseover" end="arrowUp.mouseout"/>
                  </use>
                  <path fill="none" stroke="white" stroke-width="1.5" d="M0,-3.0v7 M-2.5,-0.5L0,-3.0L2.5,-0.5"/>
                </g>
                <g id="arrowRight" xlink:href="#dirArrow" transform="rotate(90) translate(36 -43)" onmousedown="handlePan(1,0)">
                  <use xlink:href="#rim" fill="#404040">
                        <set attributeName="fill" to="#808080" begin="arrowRight.mouseover" end="arrowRight.mouseout"/>
                  </use>
                  <path fill="none" stroke="white" stroke-width="1.5" d="M0,-3.0v7 M-2.5,-0.5L0,-3.0L2.5,-0.5"/>
                </g>
                <g id="arrowDown" xlink:href="#dirArrow" transform="rotate(180) translate(-30 -48)" onmousedown="handlePan(0,1)">
                  <use xlink:href="#rim" fill="#404040">
                        <set attributeName="fill" to="#808080" begin="arrowDown.mouseover" end="arrowDown.mouseout"/>
                  </use>
                  <path fill="none" stroke="white" stroke-width="1.5" d="M0,-3.0v7 M-2.5,-0.5L0,-3.0L2.5,-0.5"/>
                </g>
                <g id="arrowLeft" xlink:href="#dirArrow" transform="rotate(270) translate(-36 17)" onmousedown="handlePan(-1,0)">
                  <use xlink:href="#rim" fill="#404040">
                        <set attributeName="fill" to="#808080" begin="arrowLeft.mouseover" end="arrowLeft.mouseout"/>
                  </use>
                  <path fill="none" stroke="white" stroke-width="1.5" d="M0,-3.0v7 M-2.5,-0.5L0,-3.0L2.5,-0.5"/>
                </g>
        </g>
        <svg viewBox="0 0 15 15" width="100%" height="30px" preserveAspectRatio="xMaxYMin meet">
         <g id="arrow_out" transform="scale(0.3 0.3)">
          <a xlink:href="classcommands_1_1templates_1_1_turtle_command_ae4d2a640c2db20e624d831deed30484d_icgraph_org.svg" target="_base">
           <rect id="button" ry="5" rx="5" y="6" x="6" height="38" width="38"
                fill="#f2f5e9" fill-opacity="0.5" stroke="#606060" stroke-width="1.0"/>
           <path id="arrow"
             d="M 11.500037,31.436501 C 11.940474,20.09759 22.043105,11.32322 32.158766,21.979434 L 37.068811,17.246167 C 37.068811,17.246167 37.088388,32 37.088388,32 L 22.160133,31.978069 C 22.160133,31.978069 26.997745,27.140456 26.997745,27.140456 C 18.528582,18.264221 13.291696,25.230495 11.500037,31.436501 z"
             style="fill:#404040;"/>
          </a>
         </g>
        </svg>
</svg>
