<?xml version="1.0" encoding="UTF-8" standalone="no"?>
<!DOCTYPE svg PUBLIC "-//W3C//DTD SVG 1.1//EN"
 "http://www.w3.org/Graphics/SVG/1.1/DTD/svg11.dtd">
<!-- Generated by graphviz version 2.36.0 (20140111.2315)
 -->
<!-- Title: commands.twochildren.RemainderCommand Pages: 1 -->
<svg width="190pt" height="164pt"
 viewBox="0.00 0.00 190.00 164.00" xmlns="http://www.w3.org/2000/svg" xmlns:xlink="http://www.w3.org/1999/xlink">
<g id="graph0" class="graph" transform="scale(1 1) rotate(0) translate(4 160)">
<title>commands.twochildren.RemainderCommand</title>
<polygon fill="white" stroke="none" points="-4,4 -4,-160 186,-160 186,4 -4,4"/>
<!-- Node1 -->
<g id="node1" class="node"><title>Node1</title>
<polygon fill="#bfbfbf" stroke="black" points="0,-1 0,-31 182,-31 182,-1 0,-1"/>
<text text-anchor="start" x="8" y="-19" font-family="Helvetica,sans-Serif" font-size="10.00">commands.twochildren.Remainder</text>
<text text-anchor="middle" x="91" y="-8" font-family="Helvetica,sans-Serif" font-size="10.00">Command</text>
</g>
<!-- Node2 -->
<g id="node2" class="node"><title>Node2</title>
<g id="a_node2"><a xlink:href="../../d0/d45/classcommands_1_1templates_1_1_two_child_command.html" target="_top" xlink:title="commands.templates.TwoChild\lCommand">
<polygon fill="white" stroke="black" points="8.5,-69 8.5,-99 173.5,-99 173.5,-69 8.5,-69"/>
<text text-anchor="start" x="16.5" y="-87" font-family="Helvetica,sans-Serif" font-size="10.00">commands.templates.TwoChild</text>
<text text-anchor="middle" x="91" y="-76" font-family="Helvetica,sans-Serif" font-size="10.00">Command</text>
</a>
</g>
</g>
<!-- Node2&#45;&gt;Node1 -->
<g id="edge1" class="edge"><title>Node2&#45;&gt;Node1</title>
<path fill="none" stroke="midnightblue" d="M91,-58.5322C91,-49.3606 91,-39.2449 91,-31.2931"/>
<polygon fill="midnightblue" stroke="midnightblue" points="87.5001,-58.6789 91,-68.679 94.5001,-58.679 87.5001,-58.6789"/>
</g>
<!-- Node3 -->
<g id="node3" class="node"><title>Node3</title>
<g id="a_node3"><a xlink:href="../../d5/d62/classcommands_1_1templates_1_1_command.html" target="_top" xlink:title="commands.templates.Command">
<polygon fill="white" stroke="black" points="3,-136.5 3,-155.5 179,-155.5 179,-136.5 3,-136.5"/>
<text text-anchor="middle" x="91" y="-143.5" font-family="Helvetica,sans-Serif" font-size="10.00">commands.templates.Command</text>
</a>
</g>
</g>
<!-- Node3&#45;&gt;Node2 -->
<g id="edge2" class="edge"><title>Node3&#45;&gt;Node2</title>
<path fill="none" stroke="midnightblue" d="M91,-126.371C91,-117.585 91,-107.272 91,-99.1408"/>
<polygon fill="midnightblue" stroke="midnightblue" points="87.5001,-126.403 91,-136.403 94.5001,-126.403 87.5001,-126.403"/>
</g>
</g>
</svg>
