<?xml version="1.0" encoding="UTF-8" standalone="no"?>
<!DOCTYPE svg PUBLIC "-//W3C//DTD SVG 1.1//EN"
 "http://www.w3.org/Graphics/SVG/1.1/DTD/svg11.dtd">
<!-- Generated by graphviz version 2.36.0 (20140111.2315)
 -->
<!-- Title: commands.turtle_commands.LeftCommand.execute Pages: 1 -->
<!--zoomable 209 -->
<svg id="main" version="1.1" xmlns="http://www.w3.org/2000/svg" xmlns:xlink="http://www.w3.org/1999/xlink" xml:space="preserve" onload="init(evt)">
<style type="text/css"><![CDATA[
.edge:hover path { stroke: red; }
.edge:hover polygon { stroke: red; fill: red; }
]]></style>
<script type="text/javascript"><![CDATA[
var edges = document.getElementsByTagName('g');
if (edges && edges.length) {
  for (var i=0;i<edges.length;i++) {
    if (edges[i].id.substr(0,4)=='edge') {
      edges[i].setAttribute('class','edge');
    }
  }
}
]]></script>
        <defs>
                <circle id="rim" cx="0" cy="0" r="7"/>
                <circle id="rim2" cx="0" cy="0" r="3.5"/>
                <g id="zoomPlus">
                        <use xlink:href="#rim" fill="#404040">
                                <set attributeName="fill" to="#808080" begin="zoomplus.mouseover" end="zoomplus.mouseout"/>
                        </use>
                        <path d="M-4,0h8M0,-4v8" fill="none" stroke="white" stroke-width="1.5" pointer-events="none"/>
                </g>
                <g id="zoomMin">
                        <use xlink:href="#rim" fill="#404040">
                                <set attributeName="fill" to="#808080" begin="zoomminus.mouseover" end="zoomminus.mouseout"/>
                        </use>
                        <path d="M-4,0h8" fill="none" stroke="white" stroke-width="1.5" pointer-events="none"/>
                </g>
                <g id="dirArrow">
                        <path fill="none" stroke="white" stroke-width="1.5" d="M0,-3.0v7 M-2.5,-0.5L0,-3.0L2.5,-0.5"/>
                </g>
               <g id="resetDef">
                       <use xlink:href="#rim2" fill="#404040">
                               <set attributeName="fill" to="#808080" begin="reset.mouseover" end="reset.mouseout"/>
                       </use>
               </g>
        </defs>

<script type="text/javascript">
var viewWidth = 638;
var viewHeight = 209;
var sectionId = 'dynsection-3';
</script>
<script xlink:href="../../svgpan.js"/>
<svg id="graph" class="graph">
<g id="viewport">
<title>commands.turtle_commands.LeftCommand.execute</title>
<polygon fill="white" stroke="none" points="-4,4 -4,-205 634,-205 634,4 -4,4"/>
<!-- Node1 -->
<g id="node1" class="node"><title>Node1</title>
<polygon fill="#bfbfbf" stroke="black" points="0.5,-73 0.5,-103 161.5,-103 161.5,-73 0.5,-73"/>
<text text-anchor="start" x="8.5" y="-91" font-family="Helvetica,sans-Serif" font-size="10.00">commands.turtle_commands.</text>
<text text-anchor="middle" x="81" y="-80" font-family="Helvetica,sans-Serif" font-size="10.00">LeftCommand.execute</text>
</g>
<!-- Node2 -->
<g id="node2" class="node"><title>Node2</title>
<g id="a_node2"><a xlink:href="../../d6/d55/classcommands_1_1turtle__commands_1_1_left_command.html#a39f24130fa56eba0bf4511068167c775" target="_top" xlink:title="commands.turtle_commands.\lLeftCommand.executeTurtleCommand">
<polygon fill="white" stroke="black" points="198,-147 198,-177 400,-177 400,-147 198,-147"/>
<text text-anchor="start" x="206" y="-165" font-family="Helvetica,sans-Serif" font-size="10.00">commands.turtle_commands.</text>
<text text-anchor="middle" x="299" y="-154" font-family="Helvetica,sans-Serif" font-size="10.00">LeftCommand.executeTurtleCommand</text>
</a>
</g>
</g>
<!-- Node1&#45;&gt;Node2 -->
<g id="edge1" class="edge"><title>Node1&#45;&gt;Node2</title>
<path fill="none" stroke="midnightblue" d="M113.986,-103.093C136.999,-113.559 168.97,-127.305 198,-137 205.663,-139.559 213.733,-141.993 221.828,-144.267"/>
<polygon fill="midnightblue" stroke="midnightblue" points="221.121,-147.701 231.689,-146.958 222.963,-140.948 221.121,-147.701"/>
</g>
<!-- Node5 -->
<g id="node5" class="node"><title>Node5</title>
<g id="a_node5"><a xlink:href="../../d5/d62/classcommands_1_1templates_1_1_command.html#ae48716b79da0af7e6815fbe6fc113075" target="_top" xlink:title="commands.templates.Command.get\lMyChildren">
<polygon fill="white" stroke="black" points="202,-98 202,-128 396,-128 396,-98 202,-98"/>
<text text-anchor="start" x="210" y="-116" font-family="Helvetica,sans-Serif" font-size="10.00">commands.templates.Command.get</text>
<text text-anchor="middle" x="299" y="-105" font-family="Helvetica,sans-Serif" font-size="10.00">MyChildren</text>
</a>
</g>
</g>
<!-- Node1&#45;&gt;Node5 -->
<g id="edge4" class="edge"><title>Node1&#45;&gt;Node5</title>
<path fill="none" stroke="midnightblue" d="M161.51,-97.2026C171.344,-98.3407 181.517,-99.5182 191.67,-100.693"/>
<polygon fill="midnightblue" stroke="midnightblue" points="191.468,-104.193 201.804,-101.866 192.273,-97.2396 191.468,-104.193"/>
</g>
<!-- Node6 -->
<g id="node6" class="node"><title>Node6</title>
<g id="a_node6"><a xlink:href="../../dc/d36/classcommands_1_1templates_1_1_turtle_command.html#ae4d2a640c2db20e624d831deed30484d" target="_top" xlink:title="commands.templates.Turtle\lCommand.getMyTurtleManager">
<polygon fill="white" stroke="black" points="215.5,-49 215.5,-79 382.5,-79 382.5,-49 215.5,-49"/>
<text text-anchor="start" x="223.5" y="-67" font-family="Helvetica,sans-Serif" font-size="10.00">commands.templates.Turtle</text>
<text text-anchor="middle" x="299" y="-56" font-family="Helvetica,sans-Serif" font-size="10.00">Command.getMyTurtleManager</text>
</a>
</g>
</g>
<!-- Node1&#45;&gt;Node6 -->
<g id="edge5" class="edge"><title>Node1&#45;&gt;Node6</title>
<path fill="none" stroke="midnightblue" d="M161.51,-79.1655C175.78,-77.58 190.764,-75.9151 205.365,-74.2927"/>
<polygon fill="midnightblue" stroke="midnightblue" points="205.847,-77.7608 215.399,-73.1778 205.074,-70.8037 205.847,-77.7608"/>
</g>
<!-- Node8 -->
<g id="node8" class="node"><title>Node8</title>
<g id="a_node8"><a xlink:href="../../d5/d62/classcommands_1_1templates_1_1_command.html#a632193b631b368f6ffbc514865f062e5" target="_top" xlink:title="commands.templates.Command.set\lValue">
<polygon fill="white" stroke="black" points="202,-0 202,-30 396,-30 396,-0 202,-0"/>
<text text-anchor="start" x="210" y="-18" font-family="Helvetica,sans-Serif" font-size="10.00">commands.templates.Command.set</text>
<text text-anchor="middle" x="299" y="-7" font-family="Helvetica,sans-Serif" font-size="10.00">Value</text>
</a>
</g>
</g>
<!-- Node1&#45;&gt;Node8 -->
<g id="edge7" class="edge"><title>Node1&#45;&gt;Node8</title>
<path fill="none" stroke="midnightblue" d="M115.011,-72.8129C137.96,-62.635 169.437,-49.4229 198,-40 205.817,-37.421 214.054,-34.9616 222.307,-32.6622"/>
<polygon fill="midnightblue" stroke="midnightblue" points="223.244,-36.0346 231.979,-30.0387 221.412,-29.2788 223.244,-36.0346"/>
</g>
<!-- Node3 -->
<g id="node3" class="node"><title>Node3</title>
<g id="a_node3"><a xlink:href="../../d4/d07/classback_end_1_1turtle_1_1_turtle_manager.html#abd8e7545c1f29c7714bc7aaf59d3875b" target="_top" xlink:title="backEnd.turtle.TurtleManager.get\lTurtleList">
<polygon fill="white" stroke="black" points="446,-171 446,-201 620,-201 620,-171 446,-171"/>
<text text-anchor="start" x="454" y="-189" font-family="Helvetica,sans-Serif" font-size="10.00">backEnd.turtle.TurtleManager.get</text>
<text text-anchor="middle" x="533" y="-178" font-family="Helvetica,sans-Serif" font-size="10.00">TurtleList</text>
</a>
</g>
</g>
<!-- Node2&#45;&gt;Node3 -->
<g id="edge2" class="edge"><title>Node2&#45;&gt;Node3</title>
<path fill="none" stroke="midnightblue" d="M400.072,-172.352C411.834,-173.569 423.818,-174.809 435.529,-176.02"/>
<polygon fill="midnightblue" stroke="midnightblue" points="435.431,-179.529 445.738,-177.076 436.151,-172.566 435.431,-179.529"/>
</g>
<!-- Node4 -->
<g id="node4" class="node"><title>Node4</title>
<g id="a_node4"><a xlink:href="../../d5/d62/classcommands_1_1templates_1_1_command.html#a97358158dd12c0a83a49df3c1e379790" target="_top" xlink:title="commands.templates.Command.get\lValue">
<polygon fill="white" stroke="black" points="436,-122 436,-152 630,-152 630,-122 436,-122"/>
<text text-anchor="start" x="444" y="-140" font-family="Helvetica,sans-Serif" font-size="10.00">commands.templates.Command.get</text>
<text text-anchor="middle" x="533" y="-129" font-family="Helvetica,sans-Serif" font-size="10.00">Value</text>
</a>
</g>
</g>
<!-- Node2&#45;&gt;Node4 -->
<g id="edge3" class="edge"><title>Node2&#45;&gt;Node4</title>
<path fill="none" stroke="midnightblue" d="M400.072,-151.216C408.622,-150.295 417.29,-149.361 425.885,-148.435"/>
<polygon fill="midnightblue" stroke="midnightblue" points="426.363,-151.904 435.93,-147.352 425.612,-144.944 426.363,-151.904"/>
</g>
<!-- Node7 -->
<g id="node7" class="node"><title>Node7</title>
<g id="a_node7"><a xlink:href="../../d9/d98/classback_end_1_1_model.html#a1f54b1acaee5f2f608376ce454fa82f2" target="_top" xlink:title="backEnd.Model.getTurtleManager">
<polygon fill="white" stroke="black" points="445.5,-54.5 445.5,-73.5 620.5,-73.5 620.5,-54.5 445.5,-54.5"/>
<text text-anchor="middle" x="533" y="-61.5" font-family="Helvetica,sans-Serif" font-size="10.00">backEnd.Model.getTurtleManager</text>
</a>
</g>
</g>
<!-- Node6&#45;&gt;Node7 -->
<g id="edge6" class="edge"><title>Node6&#45;&gt;Node7</title>
<path fill="none" stroke="midnightblue" d="M382.775,-64C399.745,-64 417.751,-64 435.164,-64"/>
<polygon fill="midnightblue" stroke="midnightblue" points="435.336,-67.5001 445.336,-64 435.336,-60.5001 435.336,-67.5001"/>
</g>
</g>
</svg>
        <g id="navigator" transform="translate(0 0)" fill="#404254">
                <rect fill="#f2f5e9" fill-opacity="0.5" stroke="#606060" stroke-width=".5" x="0" y="0" width="60" height="60"/>
                <use id="zoomplus" xlink:href="#zoomPlus" x="17" y="9" onmousedown="handleZoom(evt,'in')"/>
                <use id="zoomminus" xlink:href="#zoomMin" x="42" y="9" onmousedown="handleZoom(evt,'out')"/>
                <use id="reset" xlink:href="#resetDef" x="30" y="36" onmousedown="handleReset()"/>
                <g id="arrowUp" xlink:href="#dirArrow" transform="translate(30 24)" onmousedown="handlePan(0,-1)">
                  <use xlink:href="#rim" fill="#404040">
                        <set attributeName="fill" to="#808080" begin="arrowUp.mouseover" end="arrowUp.mouseout"/>
                  </use>
                  <path fill="none" stroke="white" stroke-width="1.5" d="M0,-3.0v7 M-2.5,-0.5L0,-3.0L2.5,-0.5"/>
                </g>
                <g id="arrowRight" xlink:href="#dirArrow" transform="rotate(90) translate(36 -43)" onmousedown="handlePan(1,0)">
                  <use xlink:href="#rim" fill="#404040">
                        <set attributeName="fill" to="#808080" begin="arrowRight.mouseover" end="arrowRight.mouseout"/>
                  </use>
                  <path fill="none" stroke="white" stroke-width="1.5" d="M0,-3.0v7 M-2.5,-0.5L0,-3.0L2.5,-0.5"/>
                </g>
                <g id="arrowDown" xlink:href="#dirArrow" transform="rotate(180) translate(-30 -48)" onmousedown="handlePan(0,1)">
                  <use xlink:href="#rim" fill="#404040">
                        <set attributeName="fill" to="#808080" begin="arrowDown.mouseover" end="arrowDown.mouseout"/>
                  </use>
                  <path fill="none" stroke="white" stroke-width="1.5" d="M0,-3.0v7 M-2.5,-0.5L0,-3.0L2.5,-0.5"/>
                </g>
                <g id="arrowLeft" xlink:href="#dirArrow" transform="rotate(270) translate(-36 17)" onmousedown="handlePan(-1,0)">
                  <use xlink:href="#rim" fill="#404040">
                        <set attributeName="fill" to="#808080" begin="arrowLeft.mouseover" end="arrowLeft.mouseout"/>
                  </use>
                  <path fill="none" stroke="white" stroke-width="1.5" d="M0,-3.0v7 M-2.5,-0.5L0,-3.0L2.5,-0.5"/>
                </g>
        </g>
        <svg viewBox="0 0 15 15" width="100%" height="30px" preserveAspectRatio="xMaxYMin meet">
         <g id="arrow_out" transform="scale(0.3 0.3)">
          <a xlink:href="classcommands_1_1turtle__commands_1_1_left_command_a953dcfa9ea19f47c019dacb50254cc1d_cgraph_org.svg" target="_base">
           <rect id="button" ry="5" rx="5" y="6" x="6" height="38" width="38"
                fill="#f2f5e9" fill-opacity="0.5" stroke="#606060" stroke-width="1.0"/>
           <path id="arrow"
             d="M 11.500037,31.436501 C 11.940474,20.09759 22.043105,11.32322 32.158766,21.979434 L 37.068811,17.246167 C 37.068811,17.246167 37.088388,32 37.088388,32 L 22.160133,31.978069 C 22.160133,31.978069 26.997745,27.140456 26.997745,27.140456 C 18.528582,18.264221 13.291696,25.230495 11.500037,31.436501 z"
             style="fill:#404040;"/>
          </a>
         </g>
        </svg>
</svg>
