<?xml version="1.0" encoding="UTF-8" standalone="no"?>
<!DOCTYPE svg PUBLIC "-//W3C//DTD SVG 1.1//EN"
 "http://www.w3.org/Graphics/SVG/1.1/DTD/svg11.dtd">
<!-- Generated by graphviz version 2.36.0 (20140111.2315)
 -->
<!-- Title: commands.templates.TwoChildCommand Pages: 1 -->
<!--zoomable 812 -->
<svg id="main" version="1.1" xmlns="http://www.w3.org/2000/svg" xmlns:xlink="http://www.w3.org/1999/xlink" xml:space="preserve" onload="init(evt)">
<style type="text/css"><![CDATA[
.edge:hover path { stroke: red; }
.edge:hover polygon { stroke: red; fill: red; }
]]></style>
<script type="text/javascript"><![CDATA[
var edges = document.getElementsByTagName('g');
if (edges && edges.length) {
  for (var i=0;i<edges.length;i++) {
    if (edges[i].id.substr(0,4)=='edge') {
      edges[i].setAttribute('class','edge');
    }
  }
}
]]></script>
        <defs>
                <circle id="rim" cx="0" cy="0" r="7"/>
                <circle id="rim2" cx="0" cy="0" r="3.5"/>
                <g id="zoomPlus">
                        <use xlink:href="#rim" fill="#404040">
                                <set attributeName="fill" to="#808080" begin="zoomplus.mouseover" end="zoomplus.mouseout"/>
                        </use>
                        <path d="M-4,0h8M0,-4v8" fill="none" stroke="white" stroke-width="1.5" pointer-events="none"/>
                </g>
                <g id="zoomMin">
                        <use xlink:href="#rim" fill="#404040">
                                <set attributeName="fill" to="#808080" begin="zoomminus.mouseover" end="zoomminus.mouseout"/>
                        </use>
                        <path d="M-4,0h8" fill="none" stroke="white" stroke-width="1.5" pointer-events="none"/>
                </g>
                <g id="dirArrow">
                        <path fill="none" stroke="white" stroke-width="1.5" d="M0,-3.0v7 M-2.5,-0.5L0,-3.0L2.5,-0.5"/>
                </g>
               <g id="resetDef">
                       <use xlink:href="#rim2" fill="#404040">
                               <set attributeName="fill" to="#808080" begin="reset.mouseover" end="reset.mouseout"/>
                       </use>
               </g>
        </defs>

<script type="text/javascript">
var viewWidth = 614;
var viewHeight = 812;
var sectionId = 'dynsection-0';
</script>
<script xlink:href="../../svgpan.js"/>
<svg id="graph" class="graph">
<g id="viewport">
<title>commands.templates.TwoChildCommand</title>
<polygon fill="white" stroke="none" points="-4,4 -4,-808 610,-808 610,4 -4,4"/>
<!-- Node1 -->
<g id="node1" class="node"><title>Node1</title>
<polygon fill="#bfbfbf" stroke="black" points="212.5,-392 212.5,-422 377.5,-422 377.5,-392 212.5,-392"/>
<text text-anchor="start" x="220.5" y="-410" font-family="Helvetica,sans-Serif" font-size="10.00">commands.templates.TwoChild</text>
<text text-anchor="middle" x="295" y="-399" font-family="Helvetica,sans-Serif" font-size="10.00">Command</text>
</g>
<!-- Node3 -->
<g id="node3" class="node"><title>Node3</title>
<g id="a_node3"><a xlink:href="../../df/d84/classcommands_1_1twochildren_1_1_and_command.html" target="_top" xlink:title="commands.twochildren.And\lCommand">
<polygon fill="white" stroke="black" points="435.5,-774 435.5,-804 584.5,-804 584.5,-774 435.5,-774"/>
<text text-anchor="start" x="443.5" y="-792" font-family="Helvetica,sans-Serif" font-size="10.00">commands.twochildren.And</text>
<text text-anchor="middle" x="510" y="-781" font-family="Helvetica,sans-Serif" font-size="10.00">Command</text>
</a>
</g>
</g>
<!-- Node1&#45;&gt;Node3 -->
<g id="edge2" class="edge"><title>Node1&#45;&gt;Node3</title>
<path fill="none" stroke="midnightblue" d="M296.549,-432.37C299.382,-497.529 316.205,-672.079 414,-764 420.089,-769.723 427.328,-774.172 435.053,-777.623"/>
<polygon fill="midnightblue" stroke="midnightblue" points="300.04,-432.065 296.184,-422.197 293.045,-432.316 300.04,-432.065"/>
</g>
<!-- Node4 -->
<g id="node4" class="node"><title>Node4</title>
<g id="a_node4"><a xlink:href="../../d2/d45/classcommands_1_1twochildren_1_1_difference_command.html" target="_top" xlink:title="commands.twochildren.Difference\lCommand">
<polygon fill="white" stroke="black" points="420.5,-725 420.5,-755 599.5,-755 599.5,-725 420.5,-725"/>
<text text-anchor="start" x="428.5" y="-743" font-family="Helvetica,sans-Serif" font-size="10.00">commands.twochildren.Difference</text>
<text text-anchor="middle" x="510" y="-732" font-family="Helvetica,sans-Serif" font-size="10.00">Command</text>
</a>
</g>
</g>
<!-- Node1&#45;&gt;Node4 -->
<g id="edge3" class="edge"><title>Node1&#45;&gt;Node4</title>
<path fill="none" stroke="midnightblue" d="M298.087,-432.448C304.319,-491.36 328.101,-637.953 414,-715 418.317,-718.872 423.162,-722.156 428.32,-724.941"/>
<polygon fill="midnightblue" stroke="midnightblue" points="301.541,-431.806 297.089,-422.192 294.574,-432.484 301.541,-431.806"/>
</g>
<!-- Node5 -->
<g id="node5" class="node"><title>Node5</title>
<g id="a_node5"><a xlink:href="../../d5/da8/classcommands_1_1twochildren_1_1_equal_command.html" target="_top" xlink:title="commands.twochildren.Equal\lCommand">
<polygon fill="white" stroke="black" points="431.5,-676 431.5,-706 588.5,-706 588.5,-676 431.5,-676"/>
<text text-anchor="start" x="439.5" y="-694" font-family="Helvetica,sans-Serif" font-size="10.00">commands.twochildren.Equal</text>
<text text-anchor="middle" x="510" y="-683" font-family="Helvetica,sans-Serif" font-size="10.00">Command</text>
</a>
</g>
</g>
<!-- Node1&#45;&gt;Node5 -->
<g id="edge4" class="edge"><title>Node1&#45;&gt;Node5</title>
<path fill="none" stroke="midnightblue" d="M300.125,-432.312C309.959,-484.291 339.749,-603.42 414,-666 419.216,-670.396 425.122,-674.029 431.374,-677.03"/>
<polygon fill="midnightblue" stroke="midnightblue" points="303.536,-431.506 298.32,-422.284 296.647,-432.746 303.536,-431.506"/>
</g>
<!-- Node6 -->
<g id="node6" class="node"><title>Node6</title>
<g id="a_node6"><a xlink:href="../../d7/d1b/classcommands_1_1twochildren_1_1_greater_than_command.html" target="_top" xlink:title="commands.twochildren.Greater\lThanCommand">
<polygon fill="white" stroke="black" points="426.5,-627 426.5,-657 593.5,-657 593.5,-627 426.5,-627"/>
<text text-anchor="start" x="434.5" y="-645" font-family="Helvetica,sans-Serif" font-size="10.00">commands.twochildren.Greater</text>
<text text-anchor="middle" x="510" y="-634" font-family="Helvetica,sans-Serif" font-size="10.00">ThanCommand</text>
</a>
</g>
</g>
<!-- Node1&#45;&gt;Node6 -->
<g id="edge5" class="edge"><title>Node1&#45;&gt;Node6</title>
<path fill="none" stroke="midnightblue" d="M302.897,-431.814C316.496,-476.025 351.054,-568.34 414,-617 418.992,-620.859 424.526,-624.125 430.34,-626.889"/>
<polygon fill="midnightblue" stroke="midnightblue" points="306.23,-430.744 300.026,-422.156 299.52,-432.738 306.23,-430.744"/>
</g>
<!-- Node7 -->
<g id="node7" class="node"><title>Node7</title>
<g id="a_node7"><a xlink:href="../../d3/d0e/classcommands_1_1twochildren_1_1_less_than_command.html" target="_top" xlink:title="commands.twochildren.Less\lThanCommand">
<polygon fill="white" stroke="black" points="434,-578 434,-608 586,-608 586,-578 434,-578"/>
<text text-anchor="start" x="442" y="-596" font-family="Helvetica,sans-Serif" font-size="10.00">commands.twochildren.Less</text>
<text text-anchor="middle" x="510" y="-585" font-family="Helvetica,sans-Serif" font-size="10.00">ThanCommand</text>
</a>
</g>
</g>
<!-- Node1&#45;&gt;Node7 -->
<g id="edge6" class="edge"><title>Node1&#45;&gt;Node7</title>
<path fill="none" stroke="midnightblue" d="M307.104,-431.278C324.64,-466.842 362.158,-532.699 414,-568 420.062,-572.128 426.767,-575.574 433.729,-578.451"/>
<polygon fill="midnightblue" stroke="midnightblue" points="310.18,-429.597 302.693,-422.101 303.871,-432.63 310.18,-429.597"/>
</g>
<!-- Node8 -->
<g id="node8" class="node"><title>Node8</title>
<g id="a_node8"><a xlink:href="../../d0/d0a/classcommands_1_1twochildren_1_1_not_equal_command.html" target="_top" xlink:title="commands.twochildren.Not\lEqualCommand">
<polygon fill="white" stroke="black" points="436,-529 436,-559 584,-559 584,-529 436,-529"/>
<text text-anchor="start" x="444" y="-547" font-family="Helvetica,sans-Serif" font-size="10.00">commands.twochildren.Not</text>
<text text-anchor="middle" x="510" y="-536" font-family="Helvetica,sans-Serif" font-size="10.00">EqualCommand</text>
</a>
</g>
</g>
<!-- Node1&#45;&gt;Node8 -->
<g id="edge7" class="edge"><title>Node1&#45;&gt;Node8</title>
<path fill="none" stroke="midnightblue" d="M314.231,-430.236C335.491,-455.759 372.99,-496.151 414,-519 420.853,-522.818 428.311,-526.072 435.934,-528.84"/>
<polygon fill="midnightblue" stroke="midnightblue" points="316.7,-427.726 307.662,-422.198 311.279,-432.156 316.7,-427.726"/>
</g>
<!-- Node9 -->
<g id="node9" class="node"><title>Node9</title>
<g id="a_node9"><a xlink:href="../../d0/d90/classcommands_1_1twochildren_1_1_or_command.html" target="_top" xlink:title="commands.twochildren.OrCommand">
<polygon fill="white" stroke="black" points="414,-490.5 414,-509.5 606,-509.5 606,-490.5 414,-490.5"/>
<text text-anchor="middle" x="510" y="-497.5" font-family="Helvetica,sans-Serif" font-size="10.00">commands.twochildren.OrCommand</text>
</a>
</g>
</g>
<!-- Node1&#45;&gt;Node9 -->
<g id="edge8" class="edge"><title>Node1&#45;&gt;Node9</title>
<path fill="none" stroke="midnightblue" d="M323.988,-428.21C347.006,-444.665 381.081,-466.823 414,-480 424.797,-484.322 436.675,-487.767 448.267,-490.494"/>
<polygon fill="midnightblue" stroke="midnightblue" points="325.881,-425.259 315.733,-422.213 321.767,-430.922 325.881,-425.259"/>
</g>
<!-- Node10 -->
<g id="node10" class="node"><title>Node10</title>
<g id="a_node10"><a xlink:href="../../d5/d38/classcommands_1_1twochildren_1_1_power_command.html" target="_top" xlink:title="commands.twochildren.Power\lCommand">
<polygon fill="white" stroke="black" points="430.5,-441 430.5,-471 589.5,-471 589.5,-441 430.5,-441"/>
<text text-anchor="start" x="438.5" y="-459" font-family="Helvetica,sans-Serif" font-size="10.00">commands.twochildren.Power</text>
<text text-anchor="middle" x="510" y="-448" font-family="Helvetica,sans-Serif" font-size="10.00">Command</text>
</a>
</g>
</g>
<!-- Node1&#45;&gt;Node10 -->
<g id="edge9" class="edge"><title>Node1&#45;&gt;Node10</title>
<path fill="none" stroke="midnightblue" d="M371.337,-424.331C394.985,-429.771 420.881,-435.729 443.769,-440.994"/>
<polygon fill="midnightblue" stroke="midnightblue" points="371.885,-420.866 361.355,-422.035 370.315,-427.688 371.885,-420.866"/>
</g>
<!-- Node11 -->
<g id="node11" class="node"><title>Node11</title>
<g id="a_node11"><a xlink:href="../../d1/d2e/classcommands_1_1twochildren_1_1_product_command.html" target="_top" xlink:title="commands.twochildren.Product\lCommand">
<polygon fill="white" stroke="black" points="426.5,-392 426.5,-422 593.5,-422 593.5,-392 426.5,-392"/>
<text text-anchor="start" x="434.5" y="-410" font-family="Helvetica,sans-Serif" font-size="10.00">commands.twochildren.Product</text>
<text text-anchor="middle" x="510" y="-399" font-family="Helvetica,sans-Serif" font-size="10.00">Command</text>
</a>
</g>
</g>
<!-- Node1&#45;&gt;Node11 -->
<g id="edge10" class="edge"><title>Node1&#45;&gt;Node11</title>
<path fill="none" stroke="midnightblue" d="M387.929,-407C400.726,-407 413.809,-407 426.42,-407"/>
<polygon fill="midnightblue" stroke="midnightblue" points="387.742,-403.5 377.742,-407 387.742,-410.5 387.742,-403.5"/>
</g>
<!-- Node12 -->
<g id="node12" class="node"><title>Node12</title>
<g id="a_node12"><a xlink:href="../../d7/d34/classcommands_1_1twochildren_1_1_quotient_command.html" target="_top" xlink:title="commands.twochildren.Quotient\lCommand">
<polygon fill="white" stroke="black" points="424,-343 424,-373 596,-373 596,-343 424,-343"/>
<text text-anchor="start" x="432" y="-361" font-family="Helvetica,sans-Serif" font-size="10.00">commands.twochildren.Quotient</text>
<text text-anchor="middle" x="510" y="-350" font-family="Helvetica,sans-Serif" font-size="10.00">Command</text>
</a>
</g>
</g>
<!-- Node1&#45;&gt;Node12 -->
<g id="edge11" class="edge"><title>Node1&#45;&gt;Node12</title>
<path fill="none" stroke="midnightblue" d="M371.337,-389.669C394.985,-384.229 420.881,-378.271 443.769,-373.006"/>
<polygon fill="midnightblue" stroke="midnightblue" points="370.315,-386.312 361.355,-391.965 371.885,-393.134 370.315,-386.312"/>
</g>
<!-- Node13 -->
<g id="node13" class="node"><title>Node13</title>
<g id="a_node13"><a xlink:href="../../da/d34/classcommands_1_1twochildren_1_1_remainder_command.html" target="_top" xlink:title="commands.twochildren.Remainder\lCommand">
<polygon fill="white" stroke="black" points="419,-294 419,-324 601,-324 601,-294 419,-294"/>
<text text-anchor="start" x="427" y="-312" font-family="Helvetica,sans-Serif" font-size="10.00">commands.twochildren.Remainder</text>
<text text-anchor="middle" x="510" y="-301" font-family="Helvetica,sans-Serif" font-size="10.00">Command</text>
</a>
</g>
</g>
<!-- Node1&#45;&gt;Node13 -->
<g id="edge12" class="edge"><title>Node1&#45;&gt;Node13</title>
<path fill="none" stroke="midnightblue" d="M324.09,-385.839C347.166,-369.352 381.269,-346.985 414,-333 421.9,-329.625 430.38,-326.647 438.903,-324.042"/>
<polygon fill="midnightblue" stroke="midnightblue" points="321.854,-383.137 315.812,-391.84 325.962,-388.805 321.854,-383.137"/>
</g>
<!-- Node14 -->
<g id="node14" class="node"><title>Node14</title>
<g id="a_node14"><a xlink:href="../../d2/de1/classcommands_1_1twochildren_1_1_sum_command.html" target="_top" xlink:title="commands.twochildren.Sum\lCommand">
<polygon fill="white" stroke="black" points="433.5,-245 433.5,-275 586.5,-275 586.5,-245 433.5,-245"/>
<text text-anchor="start" x="441.5" y="-263" font-family="Helvetica,sans-Serif" font-size="10.00">commands.twochildren.Sum</text>
<text text-anchor="middle" x="510" y="-252" font-family="Helvetica,sans-Serif" font-size="10.00">Command</text>
</a>
</g>
</g>
<!-- Node1&#45;&gt;Node14 -->
<g id="edge13" class="edge"><title>Node1&#45;&gt;Node14</title>
<path fill="none" stroke="midnightblue" d="M312.085,-383.514C332.506,-355.527 370.375,-309.373 414,-284 420.029,-280.493 426.564,-277.494 433.287,-274.93"/>
<polygon fill="midnightblue" stroke="midnightblue" points="309.049,-381.742 306.082,-391.913 314.745,-385.812 309.049,-381.742"/>
</g>
<!-- Node15 -->
<g id="node15" class="node"><title>Node15</title>
<g id="a_node15"><a xlink:href="../../db/de1/classcommands_1_1variable__commands_1_1_do_times_command.html" target="_top" xlink:title="commands.variable_commands.\lDoTimesCommand">
<polygon fill="white" stroke="black" points="423.5,-196 423.5,-226 596.5,-226 596.5,-196 423.5,-196"/>
<text text-anchor="start" x="431.5" y="-214" font-family="Helvetica,sans-Serif" font-size="10.00">commands.variable_commands.</text>
<text text-anchor="middle" x="510" y="-203" font-family="Helvetica,sans-Serif" font-size="10.00">DoTimesCommand</text>
</a>
</g>
</g>
<!-- Node1&#45;&gt;Node15 -->
<g id="edge14" class="edge"><title>Node1&#45;&gt;Node15</title>
<path fill="none" stroke="midnightblue" d="M305.887,-382.626C322.451,-344.961 359.448,-273.004 414,-235 418.885,-231.597 424.211,-228.675 429.764,-226.168"/>
<polygon fill="midnightblue" stroke="midnightblue" points="302.655,-381.282 301.938,-391.853 309.091,-384.036 302.655,-381.282"/>
</g>
<!-- Node16 -->
<g id="node16" class="node"><title>Node16</title>
<g id="a_node16"><a xlink:href="../../d5/d12/classcommands_1_1variable__commands_1_1_for_command.html" target="_top" xlink:title="commands.variable_commands.\lForCommand">
<polygon fill="white" stroke="black" points="423.5,-147 423.5,-177 596.5,-177 596.5,-147 423.5,-147"/>
<text text-anchor="start" x="431.5" y="-165" font-family="Helvetica,sans-Serif" font-size="10.00">commands.variable_commands.</text>
<text text-anchor="middle" x="510" y="-154" font-family="Helvetica,sans-Serif" font-size="10.00">ForCommand</text>
</a>
</g>
</g>
<!-- Node1&#45;&gt;Node16 -->
<g id="edge15" class="edge"><title>Node1&#45;&gt;Node16</title>
<path fill="none" stroke="midnightblue" d="M302.097,-382.147C314.725,-336.084 348.215,-237.47 414,-186 418.421,-182.541 423.281,-179.575 428.393,-177.032"/>
<polygon fill="midnightblue" stroke="midnightblue" points="298.689,-381.345 299.521,-391.907 305.457,-383.132 298.689,-381.345"/>
</g>
<!-- Node17 -->
<g id="node17" class="node"><title>Node17</title>
<g id="a_node17"><a xlink:href="../../d0/db6/classcommands_1_1variable__commands_1_1_if_command.html" target="_top" xlink:title="commands.variable_commands.\lIfCommand">
<polygon fill="white" stroke="black" points="423.5,-98 423.5,-128 596.5,-128 596.5,-98 423.5,-98"/>
<text text-anchor="start" x="431.5" y="-116" font-family="Helvetica,sans-Serif" font-size="10.00">commands.variable_commands.</text>
<text text-anchor="middle" x="510" y="-105" font-family="Helvetica,sans-Serif" font-size="10.00">IfCommand</text>
</a>
</g>
</g>
<!-- Node1&#45;&gt;Node17 -->
<g id="edge16" class="edge"><title>Node1&#45;&gt;Node17</title>
<path fill="none" stroke="midnightblue" d="M299.546,-381.68C308.438,-328.025 336.785,-202.45 414,-137 418.023,-133.59 422.464,-130.654 427.164,-128.127"/>
<polygon fill="midnightblue" stroke="midnightblue" points="296.066,-381.282 297.975,-391.703 302.981,-382.365 296.066,-381.282"/>
</g>
<!-- Node18 -->
<g id="node18" class="node"><title>Node18</title>
<g id="a_node18"><a xlink:href="../../da/d32/classcommands_1_1variable__commands_1_1_make_command.html" target="_top" xlink:title="commands.variable_commands.\lMakeCommand">
<polygon fill="white" stroke="black" points="423.5,-49 423.5,-79 596.5,-79 596.5,-49 423.5,-49"/>
<text text-anchor="start" x="431.5" y="-67" font-family="Helvetica,sans-Serif" font-size="10.00">commands.variable_commands.</text>
<text text-anchor="middle" x="510" y="-56" font-family="Helvetica,sans-Serif" font-size="10.00">MakeCommand</text>
</a>
</g>
</g>
<!-- Node1&#45;&gt;Node18 -->
<g id="edge17" class="edge"><title>Node1&#45;&gt;Node18</title>
<path fill="none" stroke="midnightblue" d="M297.623,-381.831C302.909,-321.567 324.89,-168.064 414,-88 417.796,-84.5892 422.007,-81.6482 426.484,-79.1138"/>
<polygon fill="midnightblue" stroke="midnightblue" points="294.122,-381.714 296.818,-391.96 301.1,-382.269 294.122,-381.714"/>
</g>
<!-- Node19 -->
<g id="node19" class="node"><title>Node19</title>
<g id="a_node19"><a xlink:href="../../d3/d05/classcommands_1_1variable__commands_1_1_repeat_command.html" target="_top" xlink:title="commands.variable_commands.\lRepeatCommand">
<polygon fill="white" stroke="black" points="423.5,-0 423.5,-30 596.5,-30 596.5,-0 423.5,-0"/>
<text text-anchor="start" x="431.5" y="-18" font-family="Helvetica,sans-Serif" font-size="10.00">commands.variable_commands.</text>
<text text-anchor="middle" x="510" y="-7" font-family="Helvetica,sans-Serif" font-size="10.00">RepeatCommand</text>
</a>
</g>
</g>
<!-- Node1&#45;&gt;Node19 -->
<g id="edge18" class="edge"><title>Node1&#45;&gt;Node19</title>
<path fill="none" stroke="midnightblue" d="M296.201,-381.686C298.163,-315.13 313.001,-133.843 414,-39 417.596,-35.623 421.597,-32.7031 425.864,-30.1801"/>
<polygon fill="midnightblue" stroke="midnightblue" points="292.701,-381.626 295.98,-391.7 299.7,-381.78 292.701,-381.626"/>
</g>
<!-- Node2 -->
<g id="node2" class="node"><title>Node2</title>
<g id="a_node2"><a xlink:href="../../d5/d62/classcommands_1_1templates_1_1_command.html" target="_top" xlink:title="commands.templates.Command">
<polygon fill="white" stroke="black" points="0,-397.5 0,-416.5 176,-416.5 176,-397.5 0,-397.5"/>
<text text-anchor="middle" x="88" y="-404.5" font-family="Helvetica,sans-Serif" font-size="10.00">commands.templates.Command</text>
</a>
</g>
</g>
<!-- Node2&#45;&gt;Node1 -->
<g id="edge1" class="edge"><title>Node2&#45;&gt;Node1</title>
<path fill="none" stroke="midnightblue" d="M186.403,-407C195.095,-407 203.837,-407 212.377,-407"/>
<polygon fill="midnightblue" stroke="midnightblue" points="186.236,-403.5 176.236,-407 186.236,-410.5 186.236,-403.5"/>
</g>
</g>
</svg>
        <g id="navigator" transform="translate(0 0)" fill="#404254">
                <rect fill="#f2f5e9" fill-opacity="0.5" stroke="#606060" stroke-width=".5" x="0" y="0" width="60" height="60"/>
                <use id="zoomplus" xlink:href="#zoomPlus" x="17" y="9" onmousedown="handleZoom(evt,'in')"/>
                <use id="zoomminus" xlink:href="#zoomMin" x="42" y="9" onmousedown="handleZoom(evt,'out')"/>
                <use id="reset" xlink:href="#resetDef" x="30" y="36" onmousedown="handleReset()"/>
                <g id="arrowUp" xlink:href="#dirArrow" transform="translate(30 24)" onmousedown="handlePan(0,-1)">
                  <use xlink:href="#rim" fill="#404040">
                        <set attributeName="fill" to="#808080" begin="arrowUp.mouseover" end="arrowUp.mouseout"/>
                  </use>
                  <path fill="none" stroke="white" stroke-width="1.5" d="M0,-3.0v7 M-2.5,-0.5L0,-3.0L2.5,-0.5"/>
                </g>
                <g id="arrowRight" xlink:href="#dirArrow" transform="rotate(90) translate(36 -43)" onmousedown="handlePan(1,0)">
                  <use xlink:href="#rim" fill="#404040">
                        <set attributeName="fill" to="#808080" begin="arrowRight.mouseover" end="arrowRight.mouseout"/>
                  </use>
                  <path fill="none" stroke="white" stroke-width="1.5" d="M0,-3.0v7 M-2.5,-0.5L0,-3.0L2.5,-0.5"/>
                </g>
                <g id="arrowDown" xlink:href="#dirArrow" transform="rotate(180) translate(-30 -48)" onmousedown="handlePan(0,1)">
                  <use xlink:href="#rim" fill="#404040">
                        <set attributeName="fill" to="#808080" begin="arrowDown.mouseover" end="arrowDown.mouseout"/>
                  </use>
                  <path fill="none" stroke="white" stroke-width="1.5" d="M0,-3.0v7 M-2.5,-0.5L0,-3.0L2.5,-0.5"/>
                </g>
                <g id="arrowLeft" xlink:href="#dirArrow" transform="rotate(270) translate(-36 17)" onmousedown="handlePan(-1,0)">
                  <use xlink:href="#rim" fill="#404040">
                        <set attributeName="fill" to="#808080" begin="arrowLeft.mouseover" end="arrowLeft.mouseout"/>
                  </use>
                  <path fill="none" stroke="white" stroke-width="1.5" d="M0,-3.0v7 M-2.5,-0.5L0,-3.0L2.5,-0.5"/>
                </g>
        </g>
        <svg viewBox="0 0 15 15" width="100%" height="30px" preserveAspectRatio="xMaxYMin meet">
         <g id="arrow_out" transform="scale(0.3 0.3)">
          <a xlink:href="classcommands_1_1templates_1_1_two_child_command__inherit__graph_org.svg" target="_base">
           <rect id="button" ry="5" rx="5" y="6" x="6" height="38" width="38"
                fill="#f2f5e9" fill-opacity="0.5" stroke="#606060" stroke-width="1.0"/>
           <path id="arrow"
             d="M 11.500037,31.436501 C 11.940474,20.09759 22.043105,11.32322 32.158766,21.979434 L 37.068811,17.246167 C 37.068811,17.246167 37.088388,32 37.088388,32 L 22.160133,31.978069 C 22.160133,31.978069 26.997745,27.140456 26.997745,27.140456 C 18.528582,18.264221 13.291696,25.230495 11.500037,31.436501 z"
             style="fill:#404040;"/>
          </a>
         </g>
        </svg>
</svg>
