<?xml version="1.0" encoding="UTF-8" standalone="no"?>
<!DOCTYPE svg PUBLIC "-//W3C//DTD SVG 1.1//EN"
 "http://www.w3.org/Graphics/SVG/1.1/DTD/svg11.dtd">
<!-- Generated by graphviz version 2.36.0 (20140111.2315)
 -->
<!-- Title: backEnd.turtle.Turtle Pages: 1 -->
<svg width="552pt" height="302pt"
 viewBox="0.00 0.00 552.00 302.12" xmlns="http://www.w3.org/2000/svg" xmlns:xlink="http://www.w3.org/1999/xlink">
<g id="graph0" class="graph" transform="scale(1 1) rotate(0) translate(4 298.123)">
<title>backEnd.turtle.Turtle</title>
<polygon fill="white" stroke="none" points="-4,4 -4,-298.123 548,-298.123 548,4 -4,4"/>
<!-- Node1 -->
<g id="node1" class="node"><title>Node1</title>
<polygon fill="#bfbfbf" stroke="black" points="430,-148.623 430,-167.623 544,-167.623 544,-148.623 430,-148.623"/>
<text text-anchor="middle" x="487" y="-155.623" font-family="Helvetica,sans-Serif" font-size="10.00">backEnd.turtle.Turtle</text>
</g>
<!-- Node2 -->
<g id="node2" class="node"><title>Node2</title>
<polygon fill="white" stroke="#bfbfbf" points="223.5,-274.623 223.5,-293.623 294.5,-293.623 294.5,-274.623 223.5,-274.623"/>
<text text-anchor="middle" x="259" y="-281.623" font-family="Helvetica,sans-Serif" font-size="10.00">Observable</text>
</g>
<!-- Node2&#45;&gt;Node1 -->
<g id="edge1" class="edge"><title>Node2&#45;&gt;Node1</title>
<path fill="none" stroke="midnightblue" d="M304.631,-276.661C336.366,-269.897 379.036,-257.743 412,-237.123 442.112,-218.288 468.096,-184.204 479.635,-167.654"/>
<polygon fill="midnightblue" stroke="midnightblue" points="303.84,-273.25 294.738,-278.672 305.234,-280.11 303.84,-273.25"/>
</g>
<!-- Node3 -->
<g id="node3" class="node"><title>Node3</title>
<g id="a_node3"><a xlink:href="../../dd/d87/classback_end_1_1turtle_1_1_pen.html" target="_top" xlink:title="backEnd.turtle.Pen">
<polygon fill="white" stroke="black" points="205.5,-167.623 205.5,-186.623 312.5,-186.623 312.5,-167.623 205.5,-167.623"/>
<text text-anchor="middle" x="259" y="-174.623" font-family="Helvetica,sans-Serif" font-size="10.00">backEnd.turtle.Pen</text>
</a>
</g>
</g>
<!-- Node3&#45;&gt;Node1 -->
<g id="edge2" class="edge"><title>Node3&#45;&gt;Node1</title>
<path fill="none" stroke="#9a32cd" stroke-dasharray="5,2" d="M322.841,-171.84C356.333,-169.025 397.2,-165.589 429.655,-162.86"/>
<polygon fill="#9a32cd" stroke="#9a32cd" points="322.373,-168.367 312.702,-172.693 322.96,-175.343 322.373,-168.367"/>
<text text-anchor="middle" x="379" y="-172.123" font-family="Helvetica,sans-Serif" font-size="10.00"> myPen</text>
</g>
<!-- Node4 -->
<g id="node4" class="node"><title>Node4</title>
<polygon fill="white" stroke="#bfbfbf" points="0.5,-176.623 0.5,-195.623 91.5,-195.623 91.5,-176.623 0.5,-176.623"/>
<text text-anchor="middle" x="46" y="-183.623" font-family="Helvetica,sans-Serif" font-size="10.00">DoubleProperty</text>
</g>
<!-- Node4&#45;&gt;Node1 -->
<g id="edge4" class="edge"><title>Node4&#45;&gt;Node1</title>
<path fill="none" stroke="#9a32cd" stroke-dasharray="5,2" d="M76.8487,-199.444C87.1398,-203.378 98.8783,-207.157 110,-209.123 137.135,-213.922 144.468,-210.269 172,-209.123 279.151,-204.667 307.827,-209.604 412,-184.123 429.328,-179.885 448.299,-173.176 462.694,-167.635"/>
<polygon fill="#9a32cd" stroke="#9a32cd" points="78.0765,-196.165 67.4929,-195.677 75.4623,-202.658 78.0765,-196.165"/>
<text text-anchor="middle" x="259" y="-233.123" font-family="Helvetica,sans-Serif" font-size="10.00"> myShapeIndex</text>
<text text-anchor="middle" x="259" y="-222.123" font-family="Helvetica,sans-Serif" font-size="10.00">myStampCount</text>
<text text-anchor="middle" x="259" y="-211.123" font-family="Helvetica,sans-Serif" font-size="10.00">myOrientation</text>
</g>
<!-- Node4&#45;&gt;Node3 -->
<g id="edge3" class="edge"><title>Node4&#45;&gt;Node3</title>
<path fill="none" stroke="#9a32cd" stroke-dasharray="5,2" d="M101.822,-183.785C133.8,-182.421 173.924,-180.71 205.495,-179.363"/>
<polygon fill="#9a32cd" stroke="#9a32cd" points="101.589,-180.292 91.7477,-184.215 101.888,-187.285 101.589,-180.292"/>
<text text-anchor="middle" x="141" y="-197.123" font-family="Helvetica,sans-Serif" font-size="10.00"> myPenColor</text>
<text text-anchor="middle" x="141" y="-186.123" font-family="Helvetica,sans-Serif" font-size="10.00">myPenSize</text>
</g>
<!-- Node6 -->
<g id="node6" class="node"><title>Node6</title>
<g id="a_node6"><a xlink:href="../../de/d6c/classback_end_1_1turtle_1_1_turtle_point.html" target="_top" xlink:title="backEnd.turtle.TurtlePoint">
<polygon fill="white" stroke="black" points="190,-129.623 190,-148.623 328,-148.623 328,-129.623 190,-129.623"/>
<text text-anchor="middle" x="259" y="-136.623" font-family="Helvetica,sans-Serif" font-size="10.00">backEnd.turtle.TurtlePoint</text>
</a>
</g>
</g>
<!-- Node4&#45;&gt;Node6 -->
<g id="edge7" class="edge"><title>Node4&#45;&gt;Node6</title>
<path fill="none" stroke="#9a32cd" stroke-dasharray="5,2" d="M70.777,-171.414C82.2221,-165.032 96.3898,-158.118 110,-154.123 135.524,-146.632 164.468,-142.741 189.947,-140.765"/>
<polygon fill="#9a32cd" stroke="#9a32cd" points="68.7722,-168.53 61.8755,-176.573 72.2825,-174.587 68.7722,-168.53"/>
<text text-anchor="middle" x="141" y="-168.123" font-family="Helvetica,sans-Serif" font-size="10.00"> myYPosition</text>
<text text-anchor="middle" x="141" y="-157.123" font-family="Helvetica,sans-Serif" font-size="10.00">myXPosition</text>
</g>
<!-- Node5 -->
<g id="node5" class="node"><title>Node5</title>
<polygon fill="white" stroke="#bfbfbf" points="19,-81.6235 19,-100.623 73,-100.623 73,-81.6235 19,-81.6235"/>
<text text-anchor="middle" x="46" y="-88.6235" font-family="Helvetica,sans-Serif" font-size="10.00">Point2D</text>
</g>
<!-- Node5&#45;&gt;Node1 -->
<g id="edge5" class="edge"><title>Node5&#45;&gt;Node1</title>
<path fill="none" stroke="#9a32cd" stroke-dasharray="5,2" d="M83.2923,-90.7218C137.158,-90.738 241.241,-93.1257 328,-109.123 376.437,-118.055 430.886,-137.011 461.553,-148.551"/>
<polygon fill="#9a32cd" stroke="#9a32cd" points="83.1999,-87.2219 73.2087,-90.7468 83.2174,-94.2218 83.1999,-87.2219"/>
<text text-anchor="middle" x="259" y="-112.123" font-family="Helvetica,sans-Serif" font-size="10.00"> myHome</text>
</g>
<!-- Node5&#45;&gt;Node6 -->
<g id="edge8" class="edge"><title>Node5&#45;&gt;Node6</title>
<path fill="none" stroke="#9a32cd" stroke-dasharray="5,2" d="M83.1276,-99.3421C120.006,-107.732 177.2,-120.743 216.057,-129.582"/>
<polygon fill="#9a32cd" stroke="#9a32cd" points="83.8239,-95.9111 73.2967,-97.1057 82.2711,-102.737 83.8239,-95.9111"/>
<text text-anchor="middle" x="141" y="-122.123" font-family="Helvetica,sans-Serif" font-size="10.00"> myPosition</text>
</g>
<!-- Node6&#45;&gt;Node1 -->
<g id="edge6" class="edge"><title>Node6&#45;&gt;Node1</title>
<path fill="none" stroke="#9a32cd" stroke-dasharray="5,2" d="M338.174,-143.435C361.906,-144.968 388.039,-146.88 412,-149.123 417.798,-149.666 423.845,-150.297 429.873,-150.966"/>
<polygon fill="#9a32cd" stroke="#9a32cd" points="338.364,-139.94 328.163,-142.801 337.922,-146.926 338.364,-139.94"/>
<text text-anchor="middle" x="379" y="-152.123" font-family="Helvetica,sans-Serif" font-size="10.00"> myPosition</text>
</g>
<!-- Node7 -->
<g id="node7" class="node"><title>Node7</title>
<polygon fill="white" stroke="#bfbfbf" points="211,-5.62349 211,-24.6235 307,-24.6235 307,-5.62349 211,-5.62349"/>
<text text-anchor="middle" x="259" y="-12.6235" font-family="Helvetica,sans-Serif" font-size="10.00">BooleanProperty</text>
</g>
<!-- Node7&#45;&gt;Node1 -->
<g id="edge9" class="edge"><title>Node7&#45;&gt;Node1</title>
<path fill="none" stroke="#9a32cd" stroke-dasharray="5,2" d="M305.709,-3.72389C337.78,1.62585 380.403,3.18283 412,-16.1235 461.578,-46.417 479.527,-121.893 484.446,-148.585"/>
<polygon fill="#9a32cd" stroke="#9a32cd" points="304.893,-0.315271 295.695,-5.57245 306.164,-7.19898 304.893,-0.315271"/>
<text text-anchor="middle" x="379" y="-52.1235" font-family="Helvetica,sans-Serif" font-size="10.00"> myVisibility</text>
<text text-anchor="middle" x="379" y="-41.1235" font-family="Helvetica,sans-Serif" font-size="10.00">myClearLines</text>
<text text-anchor="middle" x="379" y="-30.1235" font-family="Helvetica,sans-Serif" font-size="10.00">myActivity</text>
<text text-anchor="middle" x="379" y="-19.1235" font-family="Helvetica,sans-Serif" font-size="10.00">myPenDown</text>
</g>
</g>
</svg>
