<?xml version="1.0" encoding="UTF-8" standalone="no"?>
<!DOCTYPE svg PUBLIC "-//W3C//DTD SVG 1.1//EN"
 "http://www.w3.org/Graphics/SVG/1.1/DTD/svg11.dtd">
<!-- Generated by graphviz version 2.36.0 (20140111.2315)
 -->
<!-- Title: backEnd.turtle.Turtle Pages: 1 -->
<!--zoomable 302 -->
<svg id="main" version="1.1" xmlns="http://www.w3.org/2000/svg" xmlns:xlink="http://www.w3.org/1999/xlink" xml:space="preserve" onload="init(evt)">
<style type="text/css"><![CDATA[
.edge:hover path { stroke: red; }
.edge:hover polygon { stroke: red; fill: red; }
]]></style>
<script type="text/javascript"><![CDATA[
var edges = document.getElementsByTagName('g');
if (edges && edges.length) {
  for (var i=0;i<edges.length;i++) {
    if (edges[i].id.substr(0,4)=='edge') {
      edges[i].setAttribute('class','edge');
    }
  }
}
]]></script>
        <defs>
                <circle id="rim" cx="0" cy="0" r="7"/>
                <circle id="rim2" cx="0" cy="0" r="3.5"/>
                <g id="zoomPlus">
                        <use xlink:href="#rim" fill="#404040">
                                <set attributeName="fill" to="#808080" begin="zoomplus.mouseover" end="zoomplus.mouseout"/>
                        </use>
                        <path d="M-4,0h8M0,-4v8" fill="none" stroke="white" stroke-width="1.5" pointer-events="none"/>
                </g>
                <g id="zoomMin">
                        <use xlink:href="#rim" fill="#404040">
                                <set attributeName="fill" to="#808080" begin="zoomminus.mouseover" end="zoomminus.mouseout"/>
                        </use>
                        <path d="M-4,0h8" fill="none" stroke="white" stroke-width="1.5" pointer-events="none"/>
                </g>
                <g id="dirArrow">
                        <path fill="none" stroke="white" stroke-width="1.5" d="M0,-3.0v7 M-2.5,-0.5L0,-3.0L2.5,-0.5"/>
                </g>
               <g id="resetDef">
                       <use xlink:href="#rim2" fill="#404040">
                               <set attributeName="fill" to="#808080" begin="reset.mouseover" end="reset.mouseout"/>
                       </use>
               </g>
        </defs>

<script type="text/javascript">
var viewWidth = 552;
var viewHeight = 302;
var sectionId = 'dynsection-1';
</script>
<script xlink:href="../../svgpan.js"/>
<svg id="graph" class="graph">
<g id="viewport">
<title>backEnd.turtle.Turtle</title>
<polygon fill="white" stroke="none" points="-4,4 -4,-298.123 548,-298.123 548,4 -4,4"/>
<!-- Node1 -->
<g id="node1" class="node"><title>Node1</title>
<polygon fill="#bfbfbf" stroke="black" points="430,-148.623 430,-167.623 544,-167.623 544,-148.623 430,-148.623"/>
<text text-anchor="middle" x="487" y="-155.623" font-family="Helvetica,sans-Serif" font-size="10.00">backEnd.turtle.Turtle</text>
</g>
<!-- Node2 -->
<g id="node2" class="node"><title>Node2</title>
<polygon fill="white" stroke="#bfbfbf" points="223.5,-274.623 223.5,-293.623 294.5,-293.623 294.5,-274.623 223.5,-274.623"/>
<text text-anchor="middle" x="259" y="-281.623" font-family="Helvetica,sans-Serif" font-size="10.00">Observable</text>
</g>
<!-- Node2&#45;&gt;Node1 -->
<g id="edge1" class="edge"><title>Node2&#45;&gt;Node1</title>
<path fill="none" stroke="midnightblue" d="M304.631,-276.661C336.366,-269.897 379.036,-257.743 412,-237.123 442.112,-218.288 468.096,-184.204 479.635,-167.654"/>
<polygon fill="midnightblue" stroke="midnightblue" points="303.84,-273.25 294.738,-278.672 305.234,-280.11 303.84,-273.25"/>
</g>
<!-- Node3 -->
<g id="node3" class="node"><title>Node3</title>
<g id="a_node3"><a xlink:href="../../dd/d87/classback_end_1_1turtle_1_1_pen.html" target="_top" xlink:title="backEnd.turtle.Pen">
<polygon fill="white" stroke="black" points="205.5,-167.623 205.5,-186.623 312.5,-186.623 312.5,-167.623 205.5,-167.623"/>
<text text-anchor="middle" x="259" y="-174.623" font-family="Helvetica,sans-Serif" font-size="10.00">backEnd.turtle.Pen</text>
</a>
</g>
</g>
<!-- Node3&#45;&gt;Node1 -->
<g id="edge2" class="edge"><title>Node3&#45;&gt;Node1</title>
<path fill="none" stroke="#9a32cd" stroke-dasharray="5,2" d="M322.841,-171.84C356.333,-169.025 397.2,-165.589 429.655,-162.86"/>
<polygon fill="#9a32cd" stroke="#9a32cd" points="322.373,-168.367 312.702,-172.693 322.96,-175.343 322.373,-168.367"/>
<text text-anchor="middle" x="379" y="-172.123" font-family="Helvetica,sans-Serif" font-size="10.00"> myPen</text>
</g>
<!-- Node4 -->
<g id="node4" class="node"><title>Node4</title>
<polygon fill="white" stroke="#bfbfbf" points="0.5,-176.623 0.5,-195.623 91.5,-195.623 91.5,-176.623 0.5,-176.623"/>
<text text-anchor="middle" x="46" y="-183.623" font-family="Helvetica,sans-Serif" font-size="10.00">DoubleProperty</text>
</g>
<!-- Node4&#45;&gt;Node1 -->
<g id="edge4" class="edge"><title>Node4&#45;&gt;Node1</title>
<path fill="none" stroke="#9a32cd" stroke-dasharray="5,2" d="M76.8487,-199.444C87.1398,-203.378 98.8783,-207.157 110,-209.123 137.135,-213.922 144.468,-210.269 172,-209.123 279.151,-204.667 307.827,-209.604 412,-184.123 429.328,-179.885 448.299,-173.176 462.694,-167.635"/>
<polygon fill="#9a32cd" stroke="#9a32cd" points="78.0765,-196.165 67.4929,-195.677 75.4623,-202.658 78.0765,-196.165"/>
<text text-anchor="middle" x="259" y="-233.123" font-family="Helvetica,sans-Serif" font-size="10.00"> myShapeIndex</text>
<text text-anchor="middle" x="259" y="-222.123" font-family="Helvetica,sans-Serif" font-size="10.00">myStampCount</text>
<text text-anchor="middle" x="259" y="-211.123" font-family="Helvetica,sans-Serif" font-size="10.00">myOrientation</text>
</g>
<!-- Node4&#45;&gt;Node3 -->
<g id="edge3" class="edge"><title>Node4&#45;&gt;Node3</title>
<path fill="none" stroke="#9a32cd" stroke-dasharray="5,2" d="M101.822,-183.785C133.8,-182.421 173.924,-180.71 205.495,-179.363"/>
<polygon fill="#9a32cd" stroke="#9a32cd" points="101.589,-180.292 91.7477,-184.215 101.888,-187.285 101.589,-180.292"/>
<text text-anchor="middle" x="141" y="-197.123" font-family="Helvetica,sans-Serif" font-size="10.00"> myPenColor</text>
<text text-anchor="middle" x="141" y="-186.123" font-family="Helvetica,sans-Serif" font-size="10.00">myPenSize</text>
</g>
<!-- Node6 -->
<g id="node6" class="node"><title>Node6</title>
<g id="a_node6"><a xlink:href="../../de/d6c/classback_end_1_1turtle_1_1_turtle_point.html" target="_top" xlink:title="backEnd.turtle.TurtlePoint">
<polygon fill="white" stroke="black" points="190,-129.623 190,-148.623 328,-148.623 328,-129.623 190,-129.623"/>
<text text-anchor="middle" x="259" y="-136.623" font-family="Helvetica,sans-Serif" font-size="10.00">backEnd.turtle.TurtlePoint</text>
</a>
</g>
</g>
<!-- Node4&#45;&gt;Node6 -->
<g id="edge7" class="edge"><title>Node4&#45;&gt;Node6</title>
<path fill="none" stroke="#9a32cd" stroke-dasharray="5,2" d="M70.777,-171.414C82.2221,-165.032 96.3898,-158.118 110,-154.123 135.524,-146.632 164.468,-142.741 189.947,-140.765"/>
<polygon fill="#9a32cd" stroke="#9a32cd" points="68.7722,-168.53 61.8755,-176.573 72.2825,-174.587 68.7722,-168.53"/>
<text text-anchor="middle" x="141" y="-168.123" font-family="Helvetica,sans-Serif" font-size="10.00"> myYPosition</text>
<text text-anchor="middle" x="141" y="-157.123" font-family="Helvetica,sans-Serif" font-size="10.00">myXPosition</text>
</g>
<!-- Node5 -->
<g id="node5" class="node"><title>Node5</title>
<polygon fill="white" stroke="#bfbfbf" points="19,-81.6235 19,-100.623 73,-100.623 73,-81.6235 19,-81.6235"/>
<text text-anchor="middle" x="46" y="-88.6235" font-family="Helvetica,sans-Serif" font-size="10.00">Point2D</text>
</g>
<!-- Node5&#45;&gt;Node1 -->
<g id="edge5" class="edge"><title>Node5&#45;&gt;Node1</title>
<path fill="none" stroke="#9a32cd" stroke-dasharray="5,2" d="M83.2923,-90.7218C137.158,-90.738 241.241,-93.1257 328,-109.123 376.437,-118.055 430.886,-137.011 461.553,-148.551"/>
<polygon fill="#9a32cd" stroke="#9a32cd" points="83.1999,-87.2219 73.2087,-90.7468 83.2174,-94.2218 83.1999,-87.2219"/>
<text text-anchor="middle" x="259" y="-112.123" font-family="Helvetica,sans-Serif" font-size="10.00"> myHome</text>
</g>
<!-- Node5&#45;&gt;Node6 -->
<g id="edge8" class="edge"><title>Node5&#45;&gt;Node6</title>
<path fill="none" stroke="#9a32cd" stroke-dasharray="5,2" d="M83.1276,-99.3421C120.006,-107.732 177.2,-120.743 216.057,-129.582"/>
<polygon fill="#9a32cd" stroke="#9a32cd" points="83.8239,-95.9111 73.2967,-97.1057 82.2711,-102.737 83.8239,-95.9111"/>
<text text-anchor="middle" x="141" y="-122.123" font-family="Helvetica,sans-Serif" font-size="10.00"> myPosition</text>
</g>
<!-- Node6&#45;&gt;Node1 -->
<g id="edge6" class="edge"><title>Node6&#45;&gt;Node1</title>
<path fill="none" stroke="#9a32cd" stroke-dasharray="5,2" d="M338.174,-143.435C361.906,-144.968 388.039,-146.88 412,-149.123 417.798,-149.666 423.845,-150.297 429.873,-150.966"/>
<polygon fill="#9a32cd" stroke="#9a32cd" points="338.364,-139.94 328.163,-142.801 337.922,-146.926 338.364,-139.94"/>
<text text-anchor="middle" x="379" y="-152.123" font-family="Helvetica,sans-Serif" font-size="10.00"> myPosition</text>
</g>
<!-- Node7 -->
<g id="node7" class="node"><title>Node7</title>
<polygon fill="white" stroke="#bfbfbf" points="211,-5.62349 211,-24.6235 307,-24.6235 307,-5.62349 211,-5.62349"/>
<text text-anchor="middle" x="259" y="-12.6235" font-family="Helvetica,sans-Serif" font-size="10.00">BooleanProperty</text>
</g>
<!-- Node7&#45;&gt;Node1 -->
<g id="edge9" class="edge"><title>Node7&#45;&gt;Node1</title>
<path fill="none" stroke="#9a32cd" stroke-dasharray="5,2" d="M305.709,-3.72389C337.78,1.62585 380.403,3.18283 412,-16.1235 461.578,-46.417 479.527,-121.893 484.446,-148.585"/>
<polygon fill="#9a32cd" stroke="#9a32cd" points="304.893,-0.315271 295.695,-5.57245 306.164,-7.19898 304.893,-0.315271"/>
<text text-anchor="middle" x="379" y="-52.1235" font-family="Helvetica,sans-Serif" font-size="10.00"> myVisibility</text>
<text text-anchor="middle" x="379" y="-41.1235" font-family="Helvetica,sans-Serif" font-size="10.00">myClearLines</text>
<text text-anchor="middle" x="379" y="-30.1235" font-family="Helvetica,sans-Serif" font-size="10.00">myActivity</text>
<text text-anchor="middle" x="379" y="-19.1235" font-family="Helvetica,sans-Serif" font-size="10.00">myPenDown</text>
</g>
</g>
</svg>
        <g id="navigator" transform="translate(0 0)" fill="#404254">
                <rect fill="#f2f5e9" fill-opacity="0.5" stroke="#606060" stroke-width=".5" x="0" y="0" width="60" height="60"/>
                <use id="zoomplus" xlink:href="#zoomPlus" x="17" y="9" onmousedown="handleZoom(evt,'in')"/>
                <use id="zoomminus" xlink:href="#zoomMin" x="42" y="9" onmousedown="handleZoom(evt,'out')"/>
                <use id="reset" xlink:href="#resetDef" x="30" y="36" onmousedown="handleReset()"/>
                <g id="arrowUp" xlink:href="#dirArrow" transform="translate(30 24)" onmousedown="handlePan(0,-1)">
                  <use xlink:href="#rim" fill="#404040">
                        <set attributeName="fill" to="#808080" begin="arrowUp.mouseover" end="arrowUp.mouseout"/>
                  </use>
                  <path fill="none" stroke="white" stroke-width="1.5" d="M0,-3.0v7 M-2.5,-0.5L0,-3.0L2.5,-0.5"/>
                </g>
                <g id="arrowRight" xlink:href="#dirArrow" transform="rotate(90) translate(36 -43)" onmousedown="handlePan(1,0)">
                  <use xlink:href="#rim" fill="#404040">
                        <set attributeName="fill" to="#808080" begin="arrowRight.mouseover" end="arrowRight.mouseout"/>
                  </use>
                  <path fill="none" stroke="white" stroke-width="1.5" d="M0,-3.0v7 M-2.5,-0.5L0,-3.0L2.5,-0.5"/>
                </g>
                <g id="arrowDown" xlink:href="#dirArrow" transform="rotate(180) translate(-30 -48)" onmousedown="handlePan(0,1)">
                  <use xlink:href="#rim" fill="#404040">
                        <set attributeName="fill" to="#808080" begin="arrowDown.mouseover" end="arrowDown.mouseout"/>
                  </use>
                  <path fill="none" stroke="white" stroke-width="1.5" d="M0,-3.0v7 M-2.5,-0.5L0,-3.0L2.5,-0.5"/>
                </g>
                <g id="arrowLeft" xlink:href="#dirArrow" transform="rotate(270) translate(-36 17)" onmousedown="handlePan(-1,0)">
                  <use xlink:href="#rim" fill="#404040">
                        <set attributeName="fill" to="#808080" begin="arrowLeft.mouseover" end="arrowLeft.mouseout"/>
                  </use>
                  <path fill="none" stroke="white" stroke-width="1.5" d="M0,-3.0v7 M-2.5,-0.5L0,-3.0L2.5,-0.5"/>
                </g>
        </g>
        <svg viewBox="0 0 15 15" width="100%" height="30px" preserveAspectRatio="xMaxYMin meet">
         <g id="arrow_out" transform="scale(0.3 0.3)">
          <a xlink:href="classback_end_1_1turtle_1_1_turtle__coll__graph_org.svg" target="_base">
           <rect id="button" ry="5" rx="5" y="6" x="6" height="38" width="38"
                fill="#f2f5e9" fill-opacity="0.5" stroke="#606060" stroke-width="1.0"/>
           <path id="arrow"
             d="M 11.500037,31.436501 C 11.940474,20.09759 22.043105,11.32322 32.158766,21.979434 L 37.068811,17.246167 C 37.068811,17.246167 37.088388,32 37.088388,32 L 22.160133,31.978069 C 22.160133,31.978069 26.997745,27.140456 26.997745,27.140456 C 18.528582,18.264221 13.291696,25.230495 11.500037,31.436501 z"
             style="fill:#404040;"/>
          </a>
         </g>
        </svg>
</svg>
