<?xml version="1.0" encoding="UTF-8" standalone="no"?>
<!DOCTYPE svg PUBLIC "-//W3C//DTD SVG 1.1//EN"
 "http://www.w3.org/Graphics/SVG/1.1/DTD/svg11.dtd">
<!-- Generated by graphviz version 2.36.0 (20140111.2315)
 -->
<!-- Title: frontEnd.AnimatorLoop Pages: 1 -->
<svg width="249pt" height="96pt"
 viewBox="0.00 0.00 249.00 96.00" xmlns="http://www.w3.org/2000/svg" xmlns:xlink="http://www.w3.org/1999/xlink">
<g id="graph0" class="graph" transform="scale(1 1) rotate(0) translate(4 92)">
<title>frontEnd.AnimatorLoop</title>
<polygon fill="white" stroke="none" points="-4,4 -4,-92 245,-92 245,4 -4,4"/>
<!-- Node1 -->
<g id="node1" class="node"><title>Node1</title>
<polygon fill="#bfbfbf" stroke="black" points="32,-0.5 32,-19.5 160,-19.5 160,-0.5 32,-0.5"/>
<text text-anchor="middle" x="96" y="-7.5" font-family="Helvetica,sans-Serif" font-size="10.00">frontEnd.AnimatorLoop</text>
</g>
<!-- Node2 -->
<g id="node2" class="node"><title>Node2</title>
<polygon fill="white" stroke="#bfbfbf" points="-0.5,-68.5 -0.5,-87.5 62.5,-87.5 62.5,-68.5 -0.5,-68.5"/>
<text text-anchor="middle" x="31" y="-75.5" font-family="Helvetica,sans-Serif" font-size="10.00">KeyFrame</text>
</g>
<!-- Node2&#45;&gt;Node1 -->
<g id="edge1" class="edge"><title>Node2&#45;&gt;Node1</title>
<path fill="none" stroke="#9a32cd" stroke-dasharray="5,2" d="M46.7109,-61.0474C59.4512,-48.1111 76.9365,-30.3567 87.2928,-19.8411"/>
<polygon fill="#9a32cd" stroke="#9a32cd" points="44.0208,-58.7909 39.4976,-68.3717 49.0082,-63.7027 44.0208,-58.7909"/>
<text text-anchor="middle" x="94.5" y="-41.5" font-family="Helvetica,sans-Serif" font-size="10.00"> myFrame</text>
</g>
<!-- Node3 -->
<g id="node3" class="node"><title>Node3</title>
<polygon fill="white" stroke="#bfbfbf" points="80.5,-68.5 80.5,-87.5 241.5,-87.5 241.5,-68.5 80.5,-68.5"/>
<text text-anchor="middle" x="161" y="-75.5" font-family="Helvetica,sans-Serif" font-size="10.00">EventHandler&lt; ActionEvent &gt;</text>
</g>
<!-- Node3&#45;&gt;Node1 -->
<g id="edge2" class="edge"><title>Node3&#45;&gt;Node1</title>
<path fill="none" stroke="#9a32cd" stroke-dasharray="5,2" d="M145.274,-60.7661C138.449,-53.745 130.351,-45.4469 123,-38 117.039,-31.9612 110.289,-25.2112 105.029,-19.9709"/>
<polygon fill="#9a32cd" stroke="#9a32cd" points="143.104,-63.5557 152.58,-68.2941 148.127,-58.6805 143.104,-63.5557"/>
<text text-anchor="middle" x="168" y="-41.5" font-family="Helvetica,sans-Serif" font-size="10.00"> myOneFrame</text>
</g>
</g>
</svg>
