<?xml version="1.0" encoding="UTF-8" standalone="no"?>
<!DOCTYPE svg PUBLIC "-//W3C//DTD SVG 1.1//EN"
 "http://www.w3.org/Graphics/SVG/1.1/DTD/svg11.dtd">
<!-- Generated by graphviz version 2.36.0 (20140111.2315)
 -->
<!-- Title: main.ResourceFinder Pages: 1 -->
<svg width="201pt" height="128pt"
 viewBox="0.00 0.00 201.00 128.00" xmlns="http://www.w3.org/2000/svg" xmlns:xlink="http://www.w3.org/1999/xlink">
<g id="graph0" class="graph" transform="scale(1 1) rotate(0) translate(4 124)">
<title>main.ResourceFinder</title>
<polygon fill="white" stroke="none" points="-4,4 -4,-124 197,-124 197,4 -4,4"/>
<!-- Node1 -->
<g id="node1" class="node"><title>Node1</title>
<polygon fill="#bfbfbf" stroke="black" points="-1,-0.5 -1,-19.5 115,-19.5 115,-0.5 -1,-0.5"/>
<text text-anchor="middle" x="57" y="-7.5" font-family="Helvetica,sans-Serif" font-size="10.00">main.ResourceFinder</text>
</g>
<!-- Node2 -->
<g id="node2" class="node"><title>Node2</title>
<polygon fill="white" stroke="#bfbfbf" points="10.5,-100.5 10.5,-119.5 103.5,-119.5 103.5,-100.5 10.5,-100.5"/>
<text text-anchor="middle" x="57" y="-107.5" font-family="Helvetica,sans-Serif" font-size="10.00">ResourceBundle</text>
</g>
<!-- Node2&#45;&gt;Node1 -->
<g id="edge1" class="edge"><title>Node2&#45;&gt;Node1</title>
<path fill="none" stroke="#9a32cd" stroke-dasharray="5,2" d="M57,-90.2203C57,-68.9514 57,-35.2197 57,-19.5374"/>
<polygon fill="#9a32cd" stroke="#9a32cd" points="53.5001,-90.3031 57,-100.303 60.5001,-90.3032 53.5001,-90.3031"/>
<text text-anchor="middle" x="125" y="-74" font-family="Helvetica,sans-Serif" font-size="10.00"> myLanguageResources</text>
<text text-anchor="start" x="57" y="-63" font-family="Helvetica,sans-Serif" font-size="10.00">MY_POSSIBLE_LANGUAGES</text>
<text text-anchor="middle" x="125" y="-52" font-family="Helvetica,sans-Serif" font-size="10.00">_RESOURCES</text>
<text text-anchor="middle" x="125" y="-41" font-family="Helvetica,sans-Serif" font-size="10.00">MY_COMMAND_RESOURCES</text>
</g>
</g>
</svg>
