<?xml version="1.0" encoding="UTF-8" standalone="no"?>
<!DOCTYPE svg PUBLIC "-//W3C//DTD SVG 1.1//EN"
 "http://www.w3.org/Graphics/SVG/1.1/DTD/svg11.dtd">
<!-- Generated by graphviz version 2.36.0 (20140111.2315)
 -->
<!-- Title: backEnd.Model Pages: 1 -->
<svg width="986pt" height="592pt"
 viewBox="0.00 0.00 986.00 591.63" xmlns="http://www.w3.org/2000/svg" xmlns:xlink="http://www.w3.org/1999/xlink">
<g id="graph0" class="graph" transform="scale(1 1) rotate(0) translate(4 587.631)">
<title>backEnd.Model</title>
<polygon fill="white" stroke="none" points="-4,4 -4,-587.631 982,-587.631 982,4 -4,4"/>
<!-- Node1 -->
<g id="node1" class="node"><title>Node1</title>
<polygon fill="#bfbfbf" stroke="black" points="888.5,-423.131 888.5,-442.131 977.5,-442.131 977.5,-423.131 888.5,-423.131"/>
<text text-anchor="middle" x="933" y="-430.131" font-family="Helvetica,sans-Serif" font-size="10.00">backEnd.Model</text>
</g>
<!-- Node2 -->
<g id="node2" class="node"><title>Node2</title>
<polygon fill="white" stroke="#bfbfbf" points="609,-558.131 609,-577.131 695,-577.131 695,-558.131 609,-558.131"/>
<text text-anchor="middle" x="652" y="-565.131" font-family="Helvetica,sans-Serif" font-size="10.00">StringProperty</text>
</g>
<!-- Node2&#45;&gt;Node1 -->
<g id="edge1" class="edge"><title>Node2&#45;&gt;Node1</title>
<path fill="none" stroke="#9a32cd" stroke-dasharray="5,2" d="M705.129,-574.232C752.12,-577.441 821.14,-575.072 870,-542.631 906.708,-518.258 923.994,-464.347 929.727,-442.307"/>
<polygon fill="#9a32cd" stroke="#9a32cd" points="705.402,-570.743 695.157,-573.445 704.851,-577.721 705.402,-570.743"/>
<text text-anchor="middle" x="824" y="-575.631" font-family="Helvetica,sans-Serif" font-size="10.00"> myPalette</text>
</g>
<!-- Node3 -->
<g id="node3" class="node"><title>Node3</title>
<polygon fill="white" stroke="#bfbfbf" points="12.5,-130.131 12.5,-149.131 103.5,-149.131 103.5,-130.131 12.5,-130.131"/>
<text text-anchor="middle" x="58" y="-137.131" font-family="Helvetica,sans-Serif" font-size="10.00">DoubleProperty</text>
</g>
<!-- Node3&#45;&gt;Node1 -->
<g id="edge2" class="edge"><title>Node3&#45;&gt;Node1</title>
<path fill="none" stroke="#9a32cd" stroke-dasharray="5,2" d="M82.0114,-155.224C116.206,-177.611 183.168,-218.486 246,-239.631 465.25,-313.418 540.796,-247.708 760,-321.631 812.569,-339.359 824.06,-349.531 870,-380.631 889.544,-393.862 910.138,-412.122 921.986,-423.112"/>
<polygon fill="#9a32cd" stroke="#9a32cd" points="83.5361,-152.035 73.2663,-149.431 79.6707,-157.871 83.5361,-152.035"/>
<text text-anchor="middle" x="475" y="-284.631" font-family="Helvetica,sans-Serif" font-size="10.00"> myBackgroundIndex</text>
</g>
<!-- Node16 -->
<g id="node16" class="node"><title>Node16</title>
<g id="a_node16"><a xlink:href="../../d8/d32/classback_end_1_1turtle_1_1_turtle.html" target="_top" xlink:title="backEnd.turtle.Turtle">
<polygon fill="white" stroke="black" points="595,-94.1312 595,-113.131 709,-113.131 709,-94.1312 595,-94.1312"/>
<text text-anchor="middle" x="652" y="-101.131" font-family="Helvetica,sans-Serif" font-size="10.00">backEnd.turtle.Turtle</text>
</a>
</g>
</g>
<!-- Node3&#45;&gt;Node16 -->
<g id="edge19" class="edge"><title>Node3&#45;&gt;Node16</title>
<path fill="none" stroke="#9a32cd" stroke-dasharray="5,2" d="M113.523,-147.374C201.207,-158.334 378.656,-174.345 526,-148.631 564.626,-141.89 607.074,-124.258 631.235,-113.172"/>
<polygon fill="#9a32cd" stroke="#9a32cd" points="113.9,-143.894 103.537,-146.099 113.013,-150.837 113.9,-143.894"/>
<text text-anchor="middle" x="326" y="-187.631" font-family="Helvetica,sans-Serif" font-size="10.00"> myShapeIndex</text>
<text text-anchor="middle" x="326" y="-176.631" font-family="Helvetica,sans-Serif" font-size="10.00">myStampCount</text>
<text text-anchor="middle" x="326" y="-165.631" font-family="Helvetica,sans-Serif" font-size="10.00">myOrientation</text>
</g>
<!-- Node17 -->
<g id="node17" class="node"><title>Node17</title>
<g id="a_node17"><a xlink:href="../../dd/d87/classback_end_1_1turtle_1_1_pen.html" target="_top" xlink:title="backEnd.turtle.Pen">
<polygon fill="white" stroke="black" points="272.5,-64.1312 272.5,-83.1312 379.5,-83.1312 379.5,-64.1312 272.5,-64.1312"/>
<text text-anchor="middle" x="326" y="-71.1312" font-family="Helvetica,sans-Serif" font-size="10.00">backEnd.turtle.Pen</text>
</a>
</g>
</g>
<!-- Node3&#45;&gt;Node17 -->
<g id="edge18" class="edge"><title>Node3&#45;&gt;Node17</title>
<path fill="none" stroke="#9a32cd" stroke-dasharray="5,2" d="M108.752,-127.646C142.464,-119.431 187.99,-108.158 228,-97.6312 236.03,-95.5186 237.962,-94.7134 246,-92.6312 258.29,-89.4473 271.703,-86.1538 283.93,-83.2212"/>
<polygon fill="#9a32cd" stroke="#9a32cd" points="107.578,-124.329 98.6884,-130.093 109.232,-131.131 107.578,-124.329"/>
<text text-anchor="middle" x="181" y="-135.631" font-family="Helvetica,sans-Serif" font-size="10.00"> myPenColor</text>
<text text-anchor="middle" x="181" y="-124.631" font-family="Helvetica,sans-Serif" font-size="10.00">myPenSize</text>
</g>
<!-- Node19 -->
<g id="node19" class="node"><title>Node19</title>
<g id="a_node19"><a xlink:href="../../de/d6c/classback_end_1_1turtle_1_1_turtle_point.html" target="_top" xlink:title="backEnd.turtle.TurtlePoint">
<polygon fill="white" stroke="black" points="257,-26.1312 257,-45.1312 395,-45.1312 395,-26.1312 257,-26.1312"/>
<text text-anchor="middle" x="326" y="-33.1312" font-family="Helvetica,sans-Serif" font-size="10.00">backEnd.turtle.TurtlePoint</text>
</a>
</g>
</g>
<!-- Node3&#45;&gt;Node19 -->
<g id="edge22" class="edge"><title>Node3&#45;&gt;Node19</title>
<path fill="none" stroke="#9a32cd" stroke-dasharray="5,2" d="M73.3527,-121.969C87.1851,-106.202 109.567,-83.779 134,-71.6312 155.302,-61.0403 211.08,-51.195 256.895,-44.4868"/>
<polygon fill="#9a32cd" stroke="#9a32cd" points="70.3924,-120.048 66.5889,-129.937 75.7288,-124.578 70.3924,-120.048"/>
<text text-anchor="middle" x="181" y="-85.6312" font-family="Helvetica,sans-Serif" font-size="10.00"> myYPosition</text>
<text text-anchor="middle" x="181" y="-74.6312" font-family="Helvetica,sans-Serif" font-size="10.00">myXPosition</text>
</g>
<!-- Node4 -->
<g id="node4" class="node"><title>Node4</title>
<polygon fill="white" stroke="#bfbfbf" points="544,-461.631 544,-491.631 760,-491.631 760,-461.631 544,-461.631"/>
<text text-anchor="start" x="552" y="-479.631" font-family="Helvetica,sans-Serif" font-size="10.00">HashMap&lt; String, commands.templates.</text>
<text text-anchor="middle" x="652" y="-468.631" font-family="Helvetica,sans-Serif" font-size="10.00">Command &gt;</text>
</g>
<!-- Node4&#45;&gt;Node1 -->
<g id="edge3" class="edge"><title>Node4&#45;&gt;Node1</title>
<path fill="none" stroke="#9a32cd" stroke-dasharray="5,2" d="M770.12,-463.258C802.578,-458.934 837.751,-453.67 870,-447.631 878.273,-446.082 887.098,-444.131 895.418,-442.152"/>
<polygon fill="#9a32cd" stroke="#9a32cd" points="769.598,-459.796 760.14,-464.57 770.511,-466.737 769.598,-459.796"/>
<text text-anchor="middle" x="824" y="-465.631" font-family="Helvetica,sans-Serif" font-size="10.00"> myCommandsList</text>
</g>
<!-- Node5 -->
<g id="node5" class="node"><title>Node5</title>
<g id="a_node5"><a xlink:href="../../d9/d1e/classback_end_1_1_parser.html" target="_top" xlink:title="backEnd.Parser">
<polygon fill="white" stroke="black" points="607,-423.131 607,-442.131 697,-442.131 697,-423.131 607,-423.131"/>
<text text-anchor="middle" x="652" y="-430.131" font-family="Helvetica,sans-Serif" font-size="10.00">backEnd.Parser</text>
</a>
</g>
</g>
<!-- Node5&#45;&gt;Node1 -->
<g id="edge4" class="edge"><title>Node5&#45;&gt;Node1</title>
<path fill="none" stroke="#9a32cd" stroke-dasharray="5,2" d="M707.418,-432.631C760.313,-432.631 839.612,-432.631 888.458,-432.631"/>
<polygon fill="#9a32cd" stroke="#9a32cd" points="707.208,-429.131 697.208,-432.631 707.208,-436.131 707.208,-429.131"/>
<text text-anchor="middle" x="824" y="-435.631" font-family="Helvetica,sans-Serif" font-size="10.00"> myParser</text>
</g>
<!-- Node6 -->
<g id="node6" class="node"><title>Node6</title>
<polygon fill="white" stroke="#bfbfbf" points="281.5,-462.131 281.5,-481.131 370.5,-481.131 370.5,-462.131 281.5,-462.131"/>
<text text-anchor="middle" x="326" y="-469.131" font-family="Helvetica,sans-Serif" font-size="10.00">StringTokenizer</text>
</g>
<!-- Node6&#45;&gt;Node5 -->
<g id="edge5" class="edge"><title>Node6&#45;&gt;Node5</title>
<path fill="none" stroke="#9a32cd" stroke-dasharray="5,2" d="M380.886,-465.145C444.249,-457.518 548.209,-445.004 606.961,-437.932"/>
<polygon fill="#9a32cd" stroke="#9a32cd" points="380.206,-461.701 370.696,-466.371 381.043,-468.651 380.206,-461.701"/>
<text text-anchor="middle" x="475" y="-462.631" font-family="Helvetica,sans-Serif" font-size="10.00"> myInstructions</text>
</g>
<!-- Node7 -->
<g id="node7" class="node"><title>Node7</title>
<g id="a_node7"><a xlink:href="../../d5/d1d/classcommands_1_1_command_factory.html" target="_top" xlink:title="commands.CommandFactory">
<polygon fill="white" stroke="black" points="247,-424.131 247,-443.131 405,-443.131 405,-424.131 247,-424.131"/>
<text text-anchor="middle" x="326" y="-431.131" font-family="Helvetica,sans-Serif" font-size="10.00">commands.CommandFactory</text>
</a>
</g>
</g>
<!-- Node7&#45;&gt;Node5 -->
<g id="edge6" class="edge"><title>Node7&#45;&gt;Node5</title>
<path fill="none" stroke="#9a32cd" stroke-dasharray="5,2" d="M415.189,-433.359C477.158,-433.168 557.455,-432.92 606.55,-432.768"/>
<polygon fill="#9a32cd" stroke="#9a32cd" points="415.007,-429.859 405.018,-433.39 415.029,-436.859 415.007,-429.859"/>
<text text-anchor="middle" x="475" y="-436.631" font-family="Helvetica,sans-Serif" font-size="10.00"> myFactory</text>
</g>
<!-- Node8 -->
<g id="node8" class="node"><title>Node8</title>
<g id="a_node8"><a xlink:href="../../d8/d6a/classback_end_1_1_variable_manager.html" target="_top" xlink:title="backEnd.VariableManager">
<polygon fill="white" stroke="black" points="256,-510.131 256,-529.131 396,-529.131 396,-510.131 256,-510.131"/>
<text text-anchor="middle" x="326" y="-517.131" font-family="Helvetica,sans-Serif" font-size="10.00">backEnd.VariableManager</text>
</a>
</g>
</g>
<!-- Node8&#45;&gt;Node1 -->
<g id="edge25" class="edge"><title>Node8&#45;&gt;Node1</title>
<path fill="none" stroke="#9a32cd" stroke-dasharray="5,2" d="M406.406,-520.372C493.531,-520.204 637.322,-517.037 760,-500.631 809.505,-494.011 824.333,-497.859 870,-477.631 889.943,-468.797 909.779,-452.814 921.46,-442.466"/>
<polygon fill="#9a32cd" stroke="#9a32cd" points="406.326,-516.872 396.328,-520.379 406.33,-523.872 406.326,-516.872"/>
<text text-anchor="middle" x="652" y="-520.631" font-family="Helvetica,sans-Serif" font-size="10.00"> myVariableManager</text>
</g>
<!-- Node8&#45;&gt;Node5 -->
<g id="edge7" class="edge"><title>Node8&#45;&gt;Node5</title>
<path fill="none" stroke="#9a32cd" stroke-dasharray="5,2" d="M387.287,-508.124C441.438,-497.443 514.203,-482.102 526,-474.631 536.966,-467.686 532.875,-458.319 544,-451.631 562.758,-440.356 586.486,-435.397 606.828,-433.347"/>
<polygon fill="#9a32cd" stroke="#9a32cd" points="386.551,-504.701 377.412,-510.061 387.898,-511.571 386.551,-504.701"/>
<text text-anchor="middle" x="475" y="-503.631" font-family="Helvetica,sans-Serif" font-size="10.00"> myVariableManager</text>
</g>
<!-- Node9 -->
<g id="node9" class="node"><title>Node9</title>
<polygon fill="white" stroke="#bfbfbf" points="0.5,-529.131 0.5,-548.131 115.5,-548.131 115.5,-529.131 0.5,-529.131"/>
<text text-anchor="middle" x="58" y="-536.131" font-family="Helvetica,sans-Serif" font-size="10.00">Stack&lt; Properties &gt;</text>
</g>
<!-- Node9&#45;&gt;Node8 -->
<g id="edge8" class="edge"><title>Node9&#45;&gt;Node8</title>
<path fill="none" stroke="#9a32cd" stroke-dasharray="5,2" d="M125.827,-533.858C165.428,-531.029 215.534,-527.45 255.581,-524.59"/>
<polygon fill="#9a32cd" stroke="#9a32cd" points="125.463,-530.375 115.737,-534.578 125.961,-537.357 125.463,-530.375"/>
<text text-anchor="middle" x="181" y="-536.631" font-family="Helvetica,sans-Serif" font-size="10.00"> myStoredVariables</text>
</g>
<!-- Node10 -->
<g id="node10" class="node"><title>Node10</title>
<polygon fill="white" stroke="#bfbfbf" points="25.5,-491.131 25.5,-510.131 90.5,-510.131 90.5,-491.131 25.5,-491.131"/>
<text text-anchor="middle" x="58" y="-498.131" font-family="Helvetica,sans-Serif" font-size="10.00">Properties</text>
</g>
<!-- Node10&#45;&gt;Node8 -->
<g id="edge9" class="edge"><title>Node10&#45;&gt;Node8</title>
<path fill="none" stroke="#9a32cd" stroke-dasharray="5,2" d="M100.867,-503.59C135.067,-506.011 184.661,-509.529 228,-512.631 237.01,-513.276 246.49,-513.957 255.851,-514.631"/>
<polygon fill="#9a32cd" stroke="#9a32cd" points="100.994,-500.091 90.7716,-502.876 100.5,-507.073 100.994,-500.091"/>
<text text-anchor="middle" x="181" y="-515.631" font-family="Helvetica,sans-Serif" font-size="10.00"> myVariables</text>
</g>
<!-- Node11 -->
<g id="node11" class="node"><title>Node11</title>
<g id="a_node11"><a xlink:href="../../d4/d07/classback_end_1_1turtle_1_1_turtle_manager.html" target="_top" xlink:title="backEnd.turtle.TurtleManager">
<polygon fill="white" stroke="black" points="574,-331.131 574,-350.131 730,-350.131 730,-331.131 574,-331.131"/>
<text text-anchor="middle" x="652" y="-338.131" font-family="Helvetica,sans-Serif" font-size="10.00">backEnd.turtle.TurtleManager</text>
</a>
</g>
</g>
<!-- Node11&#45;&gt;Node1 -->
<g id="edge10" class="edge"><title>Node11&#45;&gt;Node1</title>
<path fill="none" stroke="#9a32cd" stroke-dasharray="5,2" d="M691.733,-353.403C748.359,-372.076 852.485,-406.411 902.997,-423.067"/>
<polygon fill="#9a32cd" stroke="#9a32cd" points="692.661,-350.024 682.068,-350.216 690.469,-356.672 692.661,-350.024"/>
<text text-anchor="middle" x="824" y="-413.631" font-family="Helvetica,sans-Serif" font-size="10.00"> myTurtleManager</text>
</g>
<!-- Node12 -->
<g id="node12" class="node"><title>Node12</title>
<polygon fill="white" stroke="#bfbfbf" points="290.5,-211.131 290.5,-230.131 361.5,-230.131 361.5,-211.131 290.5,-211.131"/>
<text text-anchor="middle" x="326" y="-218.131" font-family="Helvetica,sans-Serif" font-size="10.00">Observable</text>
</g>
<!-- Node12&#45;&gt;Node11 -->
<g id="edge11" class="edge"><title>Node12&#45;&gt;Node11</title>
<path fill="none" stroke="midnightblue" d="M371.615,-216.697C413.151,-214.747 475.996,-216.247 526,-236.631 578.283,-257.945 625.168,-309.432 643.178,-330.938"/>
<polygon fill="midnightblue" stroke="midnightblue" points="371.325,-213.208 361.535,-217.257 371.714,-220.197 371.325,-213.208"/>
</g>
<!-- Node12&#45;&gt;Node16 -->
<g id="edge16" class="edge"><title>Node12&#45;&gt;Node16</title>
<path fill="none" stroke="midnightblue" d="M371.736,-214.808C412.85,-208.515 474.97,-196.605 526,-176.631 569.528,-159.593 615.791,-128.777 637.837,-113.199"/>
<polygon fill="midnightblue" stroke="midnightblue" points="371.133,-211.359 361.755,-216.289 372.16,-218.284 371.133,-211.359"/>
</g>
<!-- Node13 -->
<g id="node13" class="node"><title>Node13</title>
<polygon fill="white" stroke="#bfbfbf" points="246,-325.631 246,-355.631 406,-355.631 406,-325.631 246,-325.631"/>
<text text-anchor="start" x="254" y="-343.631" font-family="Helvetica,sans-Serif" font-size="10.00">Map&lt; Double, backEnd.turtle.</text>
<text text-anchor="middle" x="326" y="-332.631" font-family="Helvetica,sans-Serif" font-size="10.00">Turtle &gt;</text>
</g>
<!-- Node13&#45;&gt;Node11 -->
<g id="edge12" class="edge"><title>Node13&#45;&gt;Node11</title>
<path fill="none" stroke="#9a32cd" stroke-dasharray="5,2" d="M416.309,-340.631C465.759,-340.631 526.608,-340.631 573.956,-340.631"/>
<polygon fill="#9a32cd" stroke="#9a32cd" points="416.259,-337.131 406.259,-340.631 416.259,-344.131 416.259,-337.131"/>
<text text-anchor="middle" x="475" y="-343.631" font-family="Helvetica,sans-Serif" font-size="10.00"> myTurtles</text>
</g>
<!-- Node14 -->
<g id="node14" class="node"><title>Node14</title>
<polygon fill="white" stroke="#bfbfbf" points="249.5,-287.131 249.5,-306.131 402.5,-306.131 402.5,-287.131 249.5,-287.131"/>
<text text-anchor="middle" x="326" y="-294.131" font-family="Helvetica,sans-Serif" font-size="10.00">List&lt; backEnd.turtle.Turtle &gt;</text>
</g>
<!-- Node14&#45;&gt;Node11 -->
<g id="edge13" class="edge"><title>Node14&#45;&gt;Node11</title>
<path fill="none" stroke="#9a32cd" stroke-dasharray="5,2" d="M407.391,-307.548C460.64,-314.78 529.811,-324.173 580.834,-331.102"/>
<polygon fill="#9a32cd" stroke="#9a32cd" points="407.683,-304.056 397.303,-306.179 406.741,-310.992 407.683,-304.056"/>
<text text-anchor="middle" x="475" y="-325.631" font-family="Helvetica,sans-Serif" font-size="10.00"> myActiveTurtles</text>
</g>
<!-- Node15 -->
<g id="node15" class="node"><title>Node15</title>
<polygon fill="white" stroke="#bfbfbf" points="248.5,-374.631 248.5,-404.631 403.5,-404.631 403.5,-374.631 248.5,-374.631"/>
<text text-anchor="start" x="256.5" y="-392.631" font-family="Helvetica,sans-Serif" font-size="10.00">Stack&lt; List&lt; backEnd.turtle.</text>
<text text-anchor="middle" x="326" y="-381.631" font-family="Helvetica,sans-Serif" font-size="10.00">Turtle &gt; &gt;</text>
</g>
<!-- Node15&#45;&gt;Node11 -->
<g id="edge14" class="edge"><title>Node15&#45;&gt;Node11</title>
<path fill="none" stroke="#9a32cd" stroke-dasharray="5,2" d="M413.857,-376.495C468.772,-368.19 538.487,-357.647 588.084,-350.146"/>
<polygon fill="#9a32cd" stroke="#9a32cd" points="413.148,-373.063 403.783,-378.019 414.194,-379.984 413.148,-373.063"/>
<text text-anchor="middle" x="475" y="-377.631" font-family="Helvetica,sans-Serif" font-size="10.00"> myStoredTurtleLists</text>
</g>
<!-- Node16&#45;&gt;Node1 -->
<g id="edge15" class="edge"><title>Node16&#45;&gt;Node1</title>
<path fill="none" stroke="#9a32cd" stroke-dasharray="5,2" d="M691.37,-116.76C739.921,-135.301 822.879,-173.729 870,-233.631 917.655,-294.211 928.93,-391.745 931.373,-422.801"/>
<polygon fill="#9a32cd" stroke="#9a32cd" points="692.44,-113.424 681.848,-113.211 689.995,-119.983 692.44,-113.424"/>
<text text-anchor="middle" x="824" y="-236.631" font-family="Helvetica,sans-Serif" font-size="10.00"> myTurtle</text>
</g>
<!-- Node17&#45;&gt;Node16 -->
<g id="edge17" class="edge"><title>Node17&#45;&gt;Node16</title>
<path fill="none" stroke="#9a32cd" stroke-dasharray="5,2" d="M390.042,-77.6681C429.209,-80.3535 480.577,-84.196 526,-88.6312 548.515,-90.8295 573.257,-93.7022 594.744,-96.3445"/>
<polygon fill="#9a32cd" stroke="#9a32cd" points="390.061,-74.1615 379.847,-76.9764 389.587,-81.1454 390.061,-74.1615"/>
<text text-anchor="middle" x="475" y="-91.6312" font-family="Helvetica,sans-Serif" font-size="10.00"> myPen</text>
</g>
<!-- Node18 -->
<g id="node18" class="node"><title>Node18</title>
<polygon fill="white" stroke="#bfbfbf" points="31,-6.13116 31,-25.1312 85,-25.1312 85,-6.13116 31,-6.13116"/>
<text text-anchor="middle" x="58" y="-13.1312" font-family="Helvetica,sans-Serif" font-size="10.00">Point2D</text>
</g>
<!-- Node18&#45;&gt;Node16 -->
<g id="edge20" class="edge"><title>Node18&#45;&gt;Node16</title>
<path fill="none" stroke="#9a32cd" stroke-dasharray="5,2" d="M95.2929,-13.1148C132.953,-10.6389 193.567,-7.03211 246,-5.63116 317.086,-3.73183 335.765,5.49562 406,-5.63116 461.389,-14.4059 473.872,-23.9545 526,-44.6312 564.814,-60.0265 608.612,-81.7503 632.688,-94.0876"/>
<polygon fill="#9a32cd" stroke="#9a32cd" points="95.0506,-9.62309 85.3055,-13.7804 95.5162,-16.6076 95.0506,-9.62309"/>
<text text-anchor="middle" x="326" y="-8.63116" font-family="Helvetica,sans-Serif" font-size="10.00"> myHome</text>
</g>
<!-- Node18&#45;&gt;Node19 -->
<g id="edge23" class="edge"><title>Node18&#45;&gt;Node19</title>
<path fill="none" stroke="#9a32cd" stroke-dasharray="5,2" d="M95.6667,-18.3881C137.142,-21.5065 205.583,-26.6524 256.922,-30.5125"/>
<polygon fill="#9a32cd" stroke="#9a32cd" points="95.7119,-14.8817 85.4776,-17.622 95.187,-21.862 95.7119,-14.8817"/>
<text text-anchor="middle" x="181" y="-31.6312" font-family="Helvetica,sans-Serif" font-size="10.00"> myPosition</text>
</g>
<!-- Node19&#45;&gt;Node16 -->
<g id="edge21" class="edge"><title>Node19&#45;&gt;Node16</title>
<path fill="none" stroke="#9a32cd" stroke-dasharray="5,2" d="M405.338,-44.7624C442.189,-49.7397 486.595,-56.7212 526,-65.6312 560.07,-73.3349 598.384,-85.5214 623.507,-94.0096"/>
<polygon fill="#9a32cd" stroke="#9a32cd" points="405.528,-41.257 395.155,-43.4117 404.608,-48.1963 405.528,-41.257"/>
<text text-anchor="middle" x="475" y="-68.6312" font-family="Helvetica,sans-Serif" font-size="10.00"> myPosition</text>
</g>
<!-- Node20 -->
<g id="node20" class="node"><title>Node20</title>
<polygon fill="white" stroke="#bfbfbf" points="278,-102.131 278,-121.131 374,-121.131 374,-102.131 278,-102.131"/>
<text text-anchor="middle" x="326" y="-109.131" font-family="Helvetica,sans-Serif" font-size="10.00">BooleanProperty</text>
</g>
<!-- Node20&#45;&gt;Node16 -->
<g id="edge24" class="edge"><title>Node20&#45;&gt;Node16</title>
<path fill="none" stroke="#9a32cd" stroke-dasharray="5,2" d="M384.539,-106.834C397.51,-105.932 411.22,-105.12 424,-104.631 482.087,-102.41 548.596,-102.416 594.539,-102.821"/>
<polygon fill="#9a32cd" stroke="#9a32cd" points="384.05,-103.36 374.328,-107.572 384.554,-110.342 384.05,-103.36"/>
<text text-anchor="middle" x="475" y="-140.631" font-family="Helvetica,sans-Serif" font-size="10.00"> myVisibility</text>
<text text-anchor="middle" x="475" y="-129.631" font-family="Helvetica,sans-Serif" font-size="10.00">myClearLines</text>
<text text-anchor="middle" x="475" y="-118.631" font-family="Helvetica,sans-Serif" font-size="10.00">myActivity</text>
<text text-anchor="middle" x="475" y="-107.631" font-family="Helvetica,sans-Serif" font-size="10.00">myPenDown</text>
</g>
</g>
</svg>
