<?xml version="1.0" encoding="UTF-8" standalone="no"?>
<!DOCTYPE svg PUBLIC "-//W3C//DTD SVG 1.1//EN"
 "http://www.w3.org/Graphics/SVG/1.1/DTD/svg11.dtd">
<!-- Generated by graphviz version 2.36.0 (20140111.2315)
 -->
<!-- Title: commands.variable_commands.UserDefinedCommand.UserDefinedCommand Pages: 1 -->
<svg width="484pt" height="185pt"
 viewBox="0.00 0.00 484.00 185.00" xmlns="http://www.w3.org/2000/svg" xmlns:xlink="http://www.w3.org/1999/xlink">
<g id="graph0" class="graph" transform="scale(1 1) rotate(0) translate(4 181)">
<title>commands.variable_commands.UserDefinedCommand.UserDefinedCommand</title>
<polygon fill="white" stroke="none" points="-4,4 -4,-181 480,-181 480,4 -4,4"/>
<!-- Node1 -->
<g id="node1" class="node"><title>Node1</title>
<polygon fill="#bfbfbf" stroke="black" points="0.5,-73 0.5,-103 239.5,-103 239.5,-73 0.5,-73"/>
<text text-anchor="start" x="8.5" y="-91" font-family="Helvetica,sans-Serif" font-size="10.00">commands.variable_commands.</text>
<text text-anchor="middle" x="120" y="-80" font-family="Helvetica,sans-Serif" font-size="10.00">UserDefinedCommand.UserDefinedCommand</text>
</g>
<!-- Node2 -->
<g id="node2" class="node"><title>Node2</title>
<g id="a_node2"><a xlink:href="../../d5/d62/classcommands_1_1templates_1_1_command.html#ae48716b79da0af7e6815fbe6fc113075" target="_top" xlink:title="commands.templates.Command.get\lMyChildren">
<polygon fill="white" stroke="black" points="279,-147 279,-177 473,-177 473,-147 279,-147"/>
<text text-anchor="start" x="287" y="-165" font-family="Helvetica,sans-Serif" font-size="10.00">commands.templates.Command.get</text>
<text text-anchor="middle" x="376" y="-154" font-family="Helvetica,sans-Serif" font-size="10.00">MyChildren</text>
</a>
</g>
</g>
<!-- Node1&#45;&gt;Node2 -->
<g id="edge1" class="edge"><title>Node1&#45;&gt;Node2</title>
<path fill="none" stroke="midnightblue" d="M166.23,-103.072C197.031,-113.145 238.807,-126.435 276,-137 284.766,-139.49 294.003,-141.988 303.17,-144.391"/>
<polygon fill="midnightblue" stroke="midnightblue" points="302.504,-147.834 313.062,-146.955 304.26,-141.058 302.504,-147.834"/>
</g>
<!-- Node3 -->
<g id="node3" class="node"><title>Node3</title>
<g id="a_node3"><a xlink:href="../../d5/def/classcommands_1_1variable__commands_1_1_user_input_command.html#a0953b0ee9cfe2cba82553ac21bb18026" target="_top" xlink:title="commands.variable_commands.\lUserInputCommand.getParameterList">
<polygon fill="white" stroke="black" points="276.5,-98 276.5,-128 475.5,-128 475.5,-98 276.5,-98"/>
<text text-anchor="start" x="284.5" y="-116" font-family="Helvetica,sans-Serif" font-size="10.00">commands.variable_commands.</text>
<text text-anchor="middle" x="376" y="-105" font-family="Helvetica,sans-Serif" font-size="10.00">UserInputCommand.getParameterList</text>
</a>
</g>
</g>
<!-- Node1&#45;&gt;Node3 -->
<g id="edge2" class="edge"><title>Node1&#45;&gt;Node3</title>
<path fill="none" stroke="midnightblue" d="M239.819,-99.6948C248.636,-100.563 257.504,-101.435 266.255,-102.297"/>
<polygon fill="midnightblue" stroke="midnightblue" points="266.168,-105.805 276.463,-103.302 266.854,-98.8387 266.168,-105.805"/>
</g>
<!-- Node4 -->
<g id="node4" class="node"><title>Node4</title>
<g id="a_node4"><a xlink:href="../../d5/d62/classcommands_1_1templates_1_1_command.html#ac62c003e82cf2518fc257f51c92bd93b" target="_top" xlink:title="commands.templates.Command.get\lVariableManager">
<polygon fill="white" stroke="black" points="279,-49 279,-79 473,-79 473,-49 279,-49"/>
<text text-anchor="start" x="287" y="-67" font-family="Helvetica,sans-Serif" font-size="10.00">commands.templates.Command.get</text>
<text text-anchor="middle" x="376" y="-56" font-family="Helvetica,sans-Serif" font-size="10.00">VariableManager</text>
</a>
</g>
</g>
<!-- Node1&#45;&gt;Node4 -->
<g id="edge3" class="edge"><title>Node1&#45;&gt;Node4</title>
<path fill="none" stroke="midnightblue" d="M239.819,-76.773C249.396,-75.8681 259.035,-74.9573 268.517,-74.0614"/>
<polygon fill="midnightblue" stroke="midnightblue" points="269.108,-77.5212 278.734,-73.096 268.449,-70.5523 269.108,-77.5212"/>
</g>
<!-- Node5 -->
<g id="node5" class="node"><title>Node5</title>
<g id="a_node5"><a xlink:href="../../d5/d62/classcommands_1_1templates_1_1_command.html#a33bda544b01bcac7892fcc146fc67107" target="_top" xlink:title="commands.templates.Command.set\lNumChildren">
<polygon fill="white" stroke="black" points="279,-0 279,-30 473,-30 473,-0 279,-0"/>
<text text-anchor="start" x="287" y="-18" font-family="Helvetica,sans-Serif" font-size="10.00">commands.templates.Command.set</text>
<text text-anchor="middle" x="376" y="-7" font-family="Helvetica,sans-Serif" font-size="10.00">NumChildren</text>
</a>
</g>
</g>
<!-- Node1&#45;&gt;Node5 -->
<g id="edge4" class="edge"><title>Node1&#45;&gt;Node5</title>
<path fill="none" stroke="midnightblue" d="M167.27,-72.9681C197.98,-63.165 239.251,-50.3223 276,-40 284.836,-37.5181 294.147,-35.0175 303.38,-32.6074"/>
<polygon fill="midnightblue" stroke="midnightblue" points="304.536,-35.9238 313.342,-30.0328 302.784,-29.1465 304.536,-35.9238"/>
</g>
</g>
</svg>
