<?xml version="1.0" encoding="UTF-8" standalone="no"?>
<!DOCTYPE svg PUBLIC "-//W3C//DTD SVG 1.1//EN"
 "http://www.w3.org/Graphics/SVG/1.1/DTD/svg11.dtd">
<!-- Generated by graphviz version 2.36.0 (20140111.2315)
 -->
<!-- Title: commands.variable_commands.UserDefinedCommand.mapVariables Pages: 1 -->
<svg width="412pt" height="38pt"
 viewBox="0.00 0.00 412.00 38.00" xmlns="http://www.w3.org/2000/svg" xmlns:xlink="http://www.w3.org/1999/xlink">
<g id="graph0" class="graph" transform="scale(1 1) rotate(0) translate(4 34)">
<title>commands.variable_commands.UserDefinedCommand.mapVariables</title>
<polygon fill="white" stroke="none" points="-4,4 -4,-34 408,-34 408,4 -4,4"/>
<!-- Node1 -->
<g id="node1" class="node"><title>Node1</title>
<polygon fill="#bfbfbf" stroke="black" points="0,-0 0,-30 194,-30 194,-0 0,-0"/>
<text text-anchor="start" x="8" y="-18" font-family="Helvetica,sans-Serif" font-size="10.00">commands.variable_commands.</text>
<text text-anchor="middle" x="97" y="-7" font-family="Helvetica,sans-Serif" font-size="10.00">UserDefinedCommand.mapVariables</text>
</g>
<!-- Node2 -->
<g id="node2" class="node"><title>Node2</title>
<g id="a_node2"><a xlink:href="../../d4/d35/classcommands_1_1variable__commands_1_1_user_defined_command.html#a4e7e699bc6b996e652d21c012c2106aa" target="_top" xlink:title="commands.variable_commands.\lUserDefinedCommand.execute">
<polygon fill="white" stroke="black" points="230.5,-0 230.5,-30 403.5,-30 403.5,-0 230.5,-0"/>
<text text-anchor="start" x="238.5" y="-18" font-family="Helvetica,sans-Serif" font-size="10.00">commands.variable_commands.</text>
<text text-anchor="middle" x="317" y="-7" font-family="Helvetica,sans-Serif" font-size="10.00">UserDefinedCommand.execute</text>
</a>
</g>
</g>
<!-- Node1&#45;&gt;Node2 -->
<g id="edge1" class="edge"><title>Node1&#45;&gt;Node2</title>
<path fill="none" stroke="midnightblue" d="M204.394,-15C213.053,-15 221.733,-15 230.217,-15"/>
<polygon fill="midnightblue" stroke="midnightblue" points="204.253,-11.5001 194.253,-15 204.253,-18.5001 204.253,-11.5001"/>
</g>
</g>
</svg>
