<?xml version="1.0" encoding="UTF-8" standalone="no"?>
<!DOCTYPE svg PUBLIC "-//W3C//DTD SVG 1.1//EN"
 "http://www.w3.org/Graphics/SVG/1.1/DTD/svg11.dtd">
<!-- Generated by graphviz version 2.36.0 (20140111.2315)
 -->
<!-- Title: commands.variable_commands.UserDefinedCommand.execute Pages: 1 -->
<svg width="870pt" height="262pt"
 viewBox="0.00 0.00 870.00 262.00" xmlns="http://www.w3.org/2000/svg" xmlns:xlink="http://www.w3.org/1999/xlink">
<g id="graph0" class="graph" transform="scale(1 1) rotate(0) translate(4 258)">
<title>commands.variable_commands.UserDefinedCommand.execute</title>
<polygon fill="white" stroke="none" points="-4,4 -4,-258 866,-258 866,4 -4,4"/>
<!-- Node1 -->
<g id="node1" class="node"><title>Node1</title>
<polygon fill="#bfbfbf" stroke="black" points="0.5,-98 0.5,-128 173.5,-128 173.5,-98 0.5,-98"/>
<text text-anchor="start" x="8.5" y="-116" font-family="Helvetica,sans-Serif" font-size="10.00">commands.variable_commands.</text>
<text text-anchor="middle" x="87" y="-105" font-family="Helvetica,sans-Serif" font-size="10.00">UserDefinedCommand.execute</text>
</g>
<!-- Node2 -->
<g id="node2" class="node"><title>Node2</title>
<g id="a_node2"><a xlink:href="../../d5/d62/classcommands_1_1templates_1_1_command.html#a9ab84f2a1491a7283311891b8a6082dc" target="_top" xlink:title="commands.templates.Command.add\lChild">
<polygon fill="white" stroke="black" points="210.5,-224 210.5,-254 407.5,-254 407.5,-224 210.5,-224"/>
<text text-anchor="start" x="218.5" y="-242" font-family="Helvetica,sans-Serif" font-size="10.00">commands.templates.Command.add</text>
<text text-anchor="middle" x="309" y="-231" font-family="Helvetica,sans-Serif" font-size="10.00">Child</text>
</a>
</g>
</g>
<!-- Node1&#45;&gt;Node2 -->
<g id="edge1" class="edge"><title>Node1&#45;&gt;Node2</title>
<path fill="none" stroke="midnightblue" d="M103.236,-128.113C125.113,-149.039 167.489,-186.767 210,-209 218.426,-213.407 227.604,-217.281 236.853,-220.653"/>
<polygon fill="midnightblue" stroke="midnightblue" points="235.894,-224.024 246.489,-223.986 238.183,-217.409 235.894,-224.024"/>
</g>
<!-- Node3 -->
<g id="node3" class="node"><title>Node3</title>
<g id="a_node3"><a xlink:href="../../d5/d62/classcommands_1_1templates_1_1_command.html#ae48716b79da0af7e6815fbe6fc113075" target="_top" xlink:title="commands.templates.Command.get\lMyChildren">
<polygon fill="white" stroke="black" points="668,-142 668,-172 862,-172 862,-142 668,-142"/>
<text text-anchor="start" x="676" y="-160" font-family="Helvetica,sans-Serif" font-size="10.00">commands.templates.Command.get</text>
<text text-anchor="middle" x="765" y="-149" font-family="Helvetica,sans-Serif" font-size="10.00">MyChildren</text>
</a>
</g>
</g>
<!-- Node1&#45;&gt;Node3 -->
<g id="edge2" class="edge"><title>Node1&#45;&gt;Node3</title>
<path fill="none" stroke="midnightblue" d="M158.113,-128.045C175.044,-131.331 193.123,-134.553 210,-137 395.867,-163.95 444.195,-160.423 632,-159 640.319,-158.937 648.932,-158.852 657.589,-158.752"/>
<polygon fill="midnightblue" stroke="midnightblue" points="657.801,-162.249 667.757,-158.628 657.715,-155.25 657.801,-162.249"/>
</g>
<!-- Node4 -->
<g id="node4" class="node"><title>Node4</title>
<g id="a_node4"><a xlink:href="../../d4/d35/classcommands_1_1variable__commands_1_1_user_defined_command.html#adda270c7e35b96f9076d7fa24e0d207c" target="_top" xlink:title="commands.variable_commands.\lUserDefinedCommand.mapVariables">
<polygon fill="white" stroke="black" points="212,-98 212,-128 406,-128 406,-98 212,-98"/>
<text text-anchor="start" x="220" y="-116" font-family="Helvetica,sans-Serif" font-size="10.00">commands.variable_commands.</text>
<text text-anchor="middle" x="309" y="-105" font-family="Helvetica,sans-Serif" font-size="10.00">UserDefinedCommand.mapVariables</text>
</a>
</g>
</g>
<!-- Node1&#45;&gt;Node4 -->
<g id="edge3" class="edge"><title>Node1&#45;&gt;Node4</title>
<path fill="none" stroke="midnightblue" d="M173.688,-113C182.902,-113 192.356,-113 201.774,-113"/>
<polygon fill="midnightblue" stroke="midnightblue" points="201.965,-116.5 211.965,-113 201.965,-109.5 201.965,-116.5"/>
</g>
<!-- Node7 -->
<g id="node7" class="node"><title>Node7</title>
<g id="a_node7"><a xlink:href="../../d8/d6a/classback_end_1_1_variable_manager.html#ab5a2479748c71a1a11734df41ffffbbc" target="_top" xlink:title="backEnd.VariableManager.pop\lVarProperties">
<polygon fill="white" stroke="black" points="228.5,-49 228.5,-79 389.5,-79 389.5,-49 228.5,-49"/>
<text text-anchor="start" x="236.5" y="-67" font-family="Helvetica,sans-Serif" font-size="10.00">backEnd.VariableManager.pop</text>
<text text-anchor="middle" x="309" y="-56" font-family="Helvetica,sans-Serif" font-size="10.00">VarProperties</text>
</a>
</g>
</g>
<!-- Node1&#45;&gt;Node7 -->
<g id="edge8" class="edge"><title>Node1&#45;&gt;Node7</title>
<path fill="none" stroke="midnightblue" d="M155.502,-97.9654C179.259,-92.6741 206.141,-86.6867 230.646,-81.2288"/>
<polygon fill="midnightblue" stroke="midnightblue" points="231.625,-84.5966 240.625,-79.0062 230.104,-77.764 231.625,-84.5966"/>
</g>
<!-- Node9 -->
<g id="node9" class="node"><title>Node9</title>
<g id="a_node9"><a xlink:href="../../d8/d6a/classback_end_1_1_variable_manager.html#a4a9b2d97f80304599d18d68700ea8b90" target="_top" xlink:title="backEnd.VariableManager.push\lVarProperties">
<polygon fill="white" stroke="black" points="226,-0 226,-30 392,-30 392,-0 226,-0"/>
<text text-anchor="start" x="234" y="-18" font-family="Helvetica,sans-Serif" font-size="10.00">backEnd.VariableManager.push</text>
<text text-anchor="middle" x="309" y="-7" font-family="Helvetica,sans-Serif" font-size="10.00">VarProperties</text>
</a>
</g>
</g>
<!-- Node1&#45;&gt;Node9 -->
<g id="edge10" class="edge"><title>Node1&#45;&gt;Node9</title>
<path fill="none" stroke="midnightblue" d="M108.547,-97.8275C131.99,-81.1797 172.008,-54.7367 210,-39 215.108,-36.8843 220.446,-34.9254 225.88,-33.1169"/>
<polygon fill="midnightblue" stroke="midnightblue" points="227.243,-36.3575 235.735,-30.0226 225.146,-29.679 227.243,-36.3575"/>
</g>
<!-- Node4&#45;&gt;Node3 -->
<g id="edge4" class="edge"><title>Node4&#45;&gt;Node3</title>
<path fill="none" stroke="midnightblue" d="M385.247,-128.042C404.348,-131.429 424.876,-134.698 444,-137 514.935,-145.54 595.182,-150.545 657.572,-153.411"/>
<polygon fill="midnightblue" stroke="midnightblue" points="657.674,-156.919 667.821,-153.871 657.987,-149.926 657.674,-156.919"/>
</g>
<!-- Node5 -->
<g id="node5" class="node"><title>Node5</title>
<g id="a_node5"><a xlink:href="../../d4/d27/classcommands_1_1variable__commands_1_1_commands_list.html#a2877ac28fd223b0b67a32d3ed653cf5b" target="_top" xlink:title="commands.variable_commands.\lCommandsList.getChild">
<polygon fill="white" stroke="black" points="451.5,-98 451.5,-128 624.5,-128 624.5,-98 451.5,-98"/>
<text text-anchor="start" x="459.5" y="-116" font-family="Helvetica,sans-Serif" font-size="10.00">commands.variable_commands.</text>
<text text-anchor="middle" x="538" y="-105" font-family="Helvetica,sans-Serif" font-size="10.00">CommandsList.getChild</text>
</a>
</g>
</g>
<!-- Node4&#45;&gt;Node5 -->
<g id="edge5" class="edge"><title>Node4&#45;&gt;Node5</title>
<path fill="none" stroke="midnightblue" d="M406.268,-113C417.858,-113 429.692,-113 441.273,-113"/>
<polygon fill="midnightblue" stroke="midnightblue" points="441.373,-116.5 451.373,-113 441.373,-109.5 441.373,-116.5"/>
</g>
<!-- Node6 -->
<g id="node6" class="node"><title>Node6</title>
<g id="a_node6"><a xlink:href="../../d5/d62/classcommands_1_1templates_1_1_command.html#aa1c27b6285999798be609159ee5c7a83" target="_top" xlink:title="commands.templates.Command.to\lString">
<polygon fill="white" stroke="black" points="444,-49 444,-79 632,-79 632,-49 444,-49"/>
<text text-anchor="start" x="452" y="-67" font-family="Helvetica,sans-Serif" font-size="10.00">commands.templates.Command.to</text>
<text text-anchor="middle" x="538" y="-56" font-family="Helvetica,sans-Serif" font-size="10.00">String</text>
</a>
</g>
</g>
<!-- Node4&#45;&gt;Node6 -->
<g id="edge7" class="edge"><title>Node4&#45;&gt;Node6</title>
<path fill="none" stroke="midnightblue" d="M379.65,-97.9654C404.272,-92.6506 432.147,-86.6335 457.522,-81.156"/>
<polygon fill="midnightblue" stroke="midnightblue" points="458.445,-84.5375 467.482,-79.0062 456.968,-77.6951 458.445,-84.5375"/>
</g>
<!-- Node5&#45;&gt;Node3 -->
<g id="edge6" class="edge"><title>Node5&#45;&gt;Node3</title>
<path fill="none" stroke="midnightblue" d="M615.803,-128.019C635.605,-131.892 657.053,-136.086 677.32,-140.049"/>
<polygon fill="midnightblue" stroke="midnightblue" points="676.676,-143.489 687.161,-141.974 678.019,-136.62 676.676,-143.489"/>
</g>
<!-- Node8 -->
<g id="node8" class="node"><title>Node8</title>
<g id="a_node8"><a xlink:href="../../d8/d6a/classback_end_1_1_variable_manager.html#a66147ad86c3557de1b28c8073c368dec" target="_top" xlink:title="backEnd.VariableManager.write\lVarsToFile">
<polygon fill="white" stroke="black" points="455.5,-0 455.5,-30 620.5,-30 620.5,-0 455.5,-0"/>
<text text-anchor="start" x="463.5" y="-18" font-family="Helvetica,sans-Serif" font-size="10.00">backEnd.VariableManager.write</text>
<text text-anchor="middle" x="538" y="-7" font-family="Helvetica,sans-Serif" font-size="10.00">VarsToFile</text>
</a>
</g>
</g>
<!-- Node7&#45;&gt;Node8 -->
<g id="edge9" class="edge"><title>Node7&#45;&gt;Node8</title>
<path fill="none" stroke="midnightblue" d="M379.65,-48.9654C404.272,-43.6506 432.147,-37.6335 457.522,-32.156"/>
<polygon fill="midnightblue" stroke="midnightblue" points="458.445,-35.5375 467.482,-30.0062 456.968,-28.6951 458.445,-35.5375"/>
</g>
<!-- Node9&#45;&gt;Node8 -->
<g id="edge11" class="edge"><title>Node9&#45;&gt;Node8</title>
<path fill="none" stroke="midnightblue" d="M392.273,-15C409.456,-15 427.674,-15 445.177,-15"/>
<polygon fill="midnightblue" stroke="midnightblue" points="445.387,-18.5001 455.387,-15 445.387,-11.5001 445.387,-18.5001"/>
</g>
</g>
</svg>
