<?xml version="1.0" encoding="UTF-8" standalone="no"?>
<!DOCTYPE svg PUBLIC "-//W3C//DTD SVG 1.1//EN"
 "http://www.w3.org/Graphics/SVG/1.1/DTD/svg11.dtd">
<!-- Generated by graphviz version 2.36.0 (20140111.2315)
 -->
<!-- Title: commands.variable_commands.DoTimesCommand.execute Pages: 1 -->
<svg width="642pt" height="210pt"
 viewBox="0.00 0.00 642.00 209.83" xmlns="http://www.w3.org/2000/svg" xmlns:xlink="http://www.w3.org/1999/xlink">
<g id="graph0" class="graph" transform="scale(1 1) rotate(0) translate(4 205.834)">
<title>commands.variable_commands.DoTimesCommand.execute</title>
<polygon fill="white" stroke="none" points="-4,4 -4,-205.834 638,-205.834 638,4 -4,4"/>
<!-- Node1 -->
<g id="node1" class="node"><title>Node1</title>
<polygon fill="#bfbfbf" stroke="black" points="0.5,-98 0.5,-128 173.5,-128 173.5,-98 0.5,-98"/>
<text text-anchor="start" x="8.5" y="-116" font-family="Helvetica,sans-Serif" font-size="10.00">commands.variable_commands.</text>
<text text-anchor="middle" x="87" y="-105" font-family="Helvetica,sans-Serif" font-size="10.00">DoTimesCommand.execute</text>
</g>
<!-- Node2 -->
<g id="node2" class="node"><title>Node2</title>
<g id="a_node2"><a xlink:href="../../d5/d62/classcommands_1_1templates_1_1_command.html#ae48716b79da0af7e6815fbe6fc113075" target="_top" xlink:title="commands.templates.Command.get\lMyChildren">
<polygon fill="white" stroke="black" points="440,-110 440,-140 634,-140 634,-110 440,-110"/>
<text text-anchor="start" x="448" y="-128" font-family="Helvetica,sans-Serif" font-size="10.00">commands.templates.Command.get</text>
<text text-anchor="middle" x="537" y="-117" font-family="Helvetica,sans-Serif" font-size="10.00">MyChildren</text>
</a>
</g>
</g>
<!-- Node1&#45;&gt;Node2 -->
<g id="edge1" class="edge"><title>Node1&#45;&gt;Node2</title>
<path fill="none" stroke="midnightblue" d="M105.963,-128.081C128.55,-145.963 169.317,-174.758 210,-186 293.108,-208.965 319.79,-204.517 404,-186 439.574,-178.178 476.978,-159.796 502.85,-145.243"/>
<polygon fill="midnightblue" stroke="midnightblue" points="504.907,-148.097 511.835,-140.081 501.42,-142.028 504.907,-148.097"/>
</g>
<!-- Node3 -->
<g id="node3" class="node"><title>Node3</title>
<g id="a_node3"><a xlink:href="../../d5/d62/classcommands_1_1templates_1_1_command.html#ac62c003e82cf2518fc257f51c92bd93b" target="_top" xlink:title="commands.templates.Command.get\lVariableManager">
<polygon fill="white" stroke="black" points="210,-147 210,-177 404,-177 404,-147 210,-147"/>
<text text-anchor="start" x="218" y="-165" font-family="Helvetica,sans-Serif" font-size="10.00">commands.templates.Command.get</text>
<text text-anchor="middle" x="307" y="-154" font-family="Helvetica,sans-Serif" font-size="10.00">VariableManager</text>
</a>
</g>
</g>
<!-- Node1&#45;&gt;Node3 -->
<g id="edge2" class="edge"><title>Node1&#45;&gt;Node3</title>
<path fill="none" stroke="midnightblue" d="M154.889,-128.035C178.43,-133.326 205.067,-139.313 229.349,-144.771"/>
<polygon fill="midnightblue" stroke="midnightblue" points="228.714,-148.216 239.238,-146.994 230.249,-141.386 228.714,-148.216"/>
</g>
<!-- Node4 -->
<g id="node4" class="node"><title>Node4</title>
<g id="a_node4"><a xlink:href="../../d8/d6a/classback_end_1_1_variable_manager.html#ab5a2479748c71a1a11734df41ffffbbc" target="_top" xlink:title="backEnd.VariableManager.pop\lVarProperties">
<polygon fill="white" stroke="black" points="226.5,-49 226.5,-79 387.5,-79 387.5,-49 226.5,-49"/>
<text text-anchor="start" x="234.5" y="-67" font-family="Helvetica,sans-Serif" font-size="10.00">backEnd.VariableManager.pop</text>
<text text-anchor="middle" x="307" y="-56" font-family="Helvetica,sans-Serif" font-size="10.00">VarProperties</text>
</a>
</g>
</g>
<!-- Node1&#45;&gt;Node4 -->
<g id="edge3" class="edge"><title>Node1&#45;&gt;Node4</title>
<path fill="none" stroke="midnightblue" d="M154.889,-97.9654C178.43,-92.6741 205.067,-86.6867 229.349,-81.2288"/>
<polygon fill="midnightblue" stroke="midnightblue" points="230.249,-84.6141 239.238,-79.0062 228.714,-77.7845 230.249,-84.6141"/>
</g>
<!-- Node6 -->
<g id="node6" class="node"><title>Node6</title>
<g id="a_node6"><a xlink:href="../../d8/d6a/classback_end_1_1_variable_manager.html#a4a9b2d97f80304599d18d68700ea8b90" target="_top" xlink:title="backEnd.VariableManager.push\lVarProperties">
<polygon fill="white" stroke="black" points="224,-0 224,-30 390,-30 390,-0 224,-0"/>
<text text-anchor="start" x="232" y="-18" font-family="Helvetica,sans-Serif" font-size="10.00">backEnd.VariableManager.push</text>
<text text-anchor="middle" x="307" y="-7" font-family="Helvetica,sans-Serif" font-size="10.00">VarProperties</text>
</a>
</g>
</g>
<!-- Node1&#45;&gt;Node6 -->
<g id="edge5" class="edge"><title>Node1&#45;&gt;Node6</title>
<path fill="none" stroke="midnightblue" d="M108.561,-97.8614C132.016,-81.2439 172.046,-54.828 210,-39 215.054,-36.8923 220.338,-34.9373 225.716,-33.1298"/>
<polygon fill="midnightblue" stroke="midnightblue" points="226.996,-36.3957 235.469,-30.0344 224.878,-29.7236 226.996,-36.3957"/>
</g>
<!-- Node7 -->
<g id="node7" class="node"><title>Node7</title>
<g id="a_node7"><a xlink:href="../../db/de1/classcommands_1_1variable__commands_1_1_do_times_command.html#a6bc5ec4cf0875432928e5b0d4f6601a2" target="_top" xlink:title="commands.variable_commands.\lDoTimesCommand.toString">
<polygon fill="white" stroke="black" points="220.5,-98 220.5,-128 393.5,-128 393.5,-98 220.5,-98"/>
<text text-anchor="start" x="228.5" y="-116" font-family="Helvetica,sans-Serif" font-size="10.00">commands.variable_commands.</text>
<text text-anchor="middle" x="307" y="-105" font-family="Helvetica,sans-Serif" font-size="10.00">DoTimesCommand.toString</text>
</a>
</g>
</g>
<!-- Node1&#45;&gt;Node7 -->
<g id="edge7" class="edge"><title>Node1&#45;&gt;Node7</title>
<path fill="none" stroke="midnightblue" d="M173.534,-113C185.555,-113 197.977,-113 210.175,-113"/>
<polygon fill="midnightblue" stroke="midnightblue" points="210.355,-116.5 220.355,-113 210.355,-109.5 210.355,-116.5"/>
</g>
<!-- Node5 -->
<g id="node5" class="node"><title>Node5</title>
<g id="a_node5"><a xlink:href="../../d8/d6a/classback_end_1_1_variable_manager.html#a66147ad86c3557de1b28c8073c368dec" target="_top" xlink:title="backEnd.VariableManager.write\lVarsToFile">
<polygon fill="white" stroke="black" points="454.5,-37 454.5,-67 619.5,-67 619.5,-37 454.5,-37"/>
<text text-anchor="start" x="462.5" y="-55" font-family="Helvetica,sans-Serif" font-size="10.00">backEnd.VariableManager.write</text>
<text text-anchor="middle" x="537" y="-44" font-family="Helvetica,sans-Serif" font-size="10.00">VarsToFile</text>
</a>
</g>
</g>
<!-- Node4&#45;&gt;Node5 -->
<g id="edge4" class="edge"><title>Node4&#45;&gt;Node5</title>
<path fill="none" stroke="midnightblue" d="M387.743,-59.803C406.03,-58.8405 425.614,-57.8098 444.358,-56.8232"/>
<polygon fill="midnightblue" stroke="midnightblue" points="444.569,-60.3171 454.371,-56.2963 444.201,-53.3268 444.569,-60.3171"/>
</g>
<!-- Node6&#45;&gt;Node5 -->
<g id="edge6" class="edge"><title>Node6&#45;&gt;Node5</title>
<path fill="none" stroke="midnightblue" d="M390.313,-28.3578C407.694,-31.1783 426.141,-34.172 443.857,-37.047"/>
<polygon fill="midnightblue" stroke="midnightblue" points="443.758,-40.5767 454.19,-38.7238 444.88,-33.6671 443.758,-40.5767"/>
</g>
<!-- Node7&#45;&gt;Node2 -->
<g id="edge8" class="edge"><title>Node7&#45;&gt;Node2</title>
<path fill="none" stroke="midnightblue" d="M393.547,-117.502C405.295,-118.121 417.473,-118.762 429.538,-119.397"/>
<polygon fill="midnightblue" stroke="midnightblue" points="429.464,-122.898 439.634,-119.928 429.832,-115.907 429.464,-122.898"/>
</g>
</g>
</svg>
