<?xml version="1.0" encoding="UTF-8" standalone="no"?>
<!DOCTYPE svg PUBLIC "-//W3C//DTD SVG 1.1//EN"
 "http://www.w3.org/Graphics/SVG/1.1/DTD/svg11.dtd">
<!-- Generated by graphviz version 2.36.0 (20140111.2315)
 -->
<!-- Title: commands.templates.OneChildCommand Pages: 1 -->
<svg width="618pt" height="449pt"
 viewBox="0.00 0.00 618.00 449.00" xmlns="http://www.w3.org/2000/svg" xmlns:xlink="http://www.w3.org/1999/xlink">
<g id="graph0" class="graph" transform="scale(1 1) rotate(0) translate(4 445)">
<title>commands.templates.OneChildCommand</title>
<polygon fill="white" stroke="none" points="-4,4 -4,-445 614,-445 614,4 -4,4"/>
<!-- Node1 -->
<g id="node1" class="node"><title>Node1</title>
<polygon fill="#bfbfbf" stroke="black" points="212,-208 212,-238 380,-238 380,-208 212,-208"/>
<text text-anchor="start" x="220" y="-226" font-family="Helvetica,sans-Serif" font-size="10.00">commands.templates.OneChild</text>
<text text-anchor="middle" x="296" y="-215" font-family="Helvetica,sans-Serif" font-size="10.00">Command</text>
</g>
<!-- Node3 -->
<g id="node3" class="node"><title>Node3</title>
<g id="a_node3"><a xlink:href="../../dc/d89/classcommands_1_1onechild_1_1_arc_tangent_command.html" target="_top" xlink:title="commands.onechild.ArcTangent\lCommand">
<polygon fill="white" stroke="black" points="428,-411 428,-441 598,-441 598,-411 428,-411"/>
<text text-anchor="start" x="436" y="-429" font-family="Helvetica,sans-Serif" font-size="10.00">commands.onechild.ArcTangent</text>
<text text-anchor="middle" x="513" y="-418" font-family="Helvetica,sans-Serif" font-size="10.00">Command</text>
</a>
</g>
</g>
<!-- Node1&#45;&gt;Node3 -->
<g id="edge2" class="edge"><title>Node1&#45;&gt;Node3</title>
<path fill="none" stroke="midnightblue" d="M306.58,-247.591C322.964,-286.334 360.103,-361.253 416,-401 421.474,-404.892 427.508,-408.179 433.805,-410.954"/>
<polygon fill="midnightblue" stroke="midnightblue" points="309.726,-246.04 302.686,-238.122 303.252,-248.702 309.726,-246.04"/>
</g>
<!-- Node4 -->
<g id="node4" class="node"><title>Node4</title>
<g id="a_node4"><a xlink:href="../../d8/d47/classcommands_1_1onechild_1_1_cosine_command.html" target="_top" xlink:title="commands.onechild.Cosine\lCommand">
<polygon fill="white" stroke="black" points="438.5,-362 438.5,-392 587.5,-392 587.5,-362 438.5,-362"/>
<text text-anchor="start" x="446.5" y="-380" font-family="Helvetica,sans-Serif" font-size="10.00">commands.onechild.Cosine</text>
<text text-anchor="middle" x="513" y="-369" font-family="Helvetica,sans-Serif" font-size="10.00">Command</text>
</a>
</g>
</g>
<!-- Node1&#45;&gt;Node4 -->
<g id="edge3" class="edge"><title>Node1&#45;&gt;Node4</title>
<path fill="none" stroke="midnightblue" d="M312.446,-246.75C332.703,-275.971 371.007,-325.016 416,-352 422.942,-356.163 430.571,-359.641 438.4,-362.543"/>
<polygon fill="midnightblue" stroke="midnightblue" points="315.264,-244.671 306.751,-238.364 309.473,-248.603 315.264,-244.671"/>
</g>
<!-- Node5 -->
<g id="node5" class="node"><title>Node5</title>
<g id="a_node5"><a xlink:href="../../da/d28/classcommands_1_1onechild_1_1_minus_command.html" target="_top" xlink:title="commands.onechild.MinusCommand">
<polygon fill="white" stroke="black" points="416,-323.5 416,-342.5 610,-342.5 610,-323.5 416,-323.5"/>
<text text-anchor="middle" x="513" y="-330.5" font-family="Helvetica,sans-Serif" font-size="10.00">commands.onechild.MinusCommand</text>
</a>
</g>
</g>
<!-- Node1&#45;&gt;Node5 -->
<g id="edge4" class="edge"><title>Node1&#45;&gt;Node5</title>
<path fill="none" stroke="midnightblue" d="M319.442,-244.896C341.989,-265.628 378.661,-296.035 416,-313 425.61,-317.366 436.196,-320.791 446.721,-323.473"/>
<polygon fill="midnightblue" stroke="midnightblue" points="321.771,-242.282 312.078,-238.004 316.987,-247.393 321.771,-242.282"/>
</g>
<!-- Node6 -->
<g id="node6" class="node"><title>Node6</title>
<g id="a_node6"><a xlink:href="../../dc/d9d/classcommands_1_1onechild_1_1_natural_log_command.html" target="_top" xlink:title="commands.onechild.Natural\lLogCommand">
<polygon fill="white" stroke="black" points="437,-274 437,-304 589,-304 589,-274 437,-274"/>
<text text-anchor="start" x="445" y="-292" font-family="Helvetica,sans-Serif" font-size="10.00">commands.onechild.Natural</text>
<text text-anchor="middle" x="513" y="-281" font-family="Helvetica,sans-Serif" font-size="10.00">LogCommand</text>
</a>
</g>
</g>
<!-- Node1&#45;&gt;Node6 -->
<g id="edge5" class="edge"><title>Node1&#45;&gt;Node6</title>
<path fill="none" stroke="midnightblue" d="M347.732,-241.443C368.74,-248.828 393.427,-257.183 416,-264 427.376,-267.435 439.594,-270.835 451.373,-273.969"/>
<polygon fill="midnightblue" stroke="midnightblue" points="348.645,-238.054 338.05,-238.017 346.31,-244.653 348.645,-238.054"/>
</g>
<!-- Node7 -->
<g id="node7" class="node"><title>Node7</title>
<g id="a_node7"><a xlink:href="../../d7/d68/classcommands_1_1onechild_1_1_not_command.html" target="_top" xlink:title="commands.onechild.NotCommand">
<polygon fill="white" stroke="black" points="421,-235.5 421,-254.5 605,-254.5 605,-235.5 421,-235.5"/>
<text text-anchor="middle" x="513" y="-242.5" font-family="Helvetica,sans-Serif" font-size="10.00">commands.onechild.NotCommand</text>
</a>
</g>
</g>
<!-- Node1&#45;&gt;Node7 -->
<g id="edge6" class="edge"><title>Node1&#45;&gt;Node7</title>
<path fill="none" stroke="midnightblue" d="M390.225,-232.539C400.396,-233.58 410.742,-234.639 420.888,-235.677"/>
<polygon fill="midnightblue" stroke="midnightblue" points="390.429,-229.042 380.125,-231.506 389.716,-236.006 390.429,-229.042"/>
</g>
<!-- Node8 -->
<g id="node8" class="node"><title>Node8</title>
<g id="a_node8"><a xlink:href="../../dc/d55/classcommands_1_1onechild_1_1_random_command.html" target="_top" xlink:title="commands.onechild.Random\lCommand">
<polygon fill="white" stroke="black" points="435,-186 435,-216 591,-216 591,-186 435,-186"/>
<text text-anchor="start" x="443" y="-204" font-family="Helvetica,sans-Serif" font-size="10.00">commands.onechild.Random</text>
<text text-anchor="middle" x="513" y="-193" font-family="Helvetica,sans-Serif" font-size="10.00">Command</text>
</a>
</g>
</g>
<!-- Node1&#45;&gt;Node8 -->
<g id="edge7" class="edge"><title>Node1&#45;&gt;Node8</title>
<path fill="none" stroke="midnightblue" d="M390.315,-213.452C405.139,-211.935 420.329,-210.38 434.731,-208.907"/>
<polygon fill="midnightblue" stroke="midnightblue" points="389.716,-209.994 380.125,-214.494 390.429,-216.958 389.716,-209.994"/>
</g>
<!-- Node9 -->
<g id="node9" class="node"><title>Node9</title>
<g id="a_node9"><a xlink:href="../../d4/d23/classcommands_1_1onechild_1_1_set_background_command.html" target="_top" xlink:title="commands.onechild.SetBackground\lCommand">
<polygon fill="white" stroke="black" points="418,-137 418,-167 608,-167 608,-137 418,-137"/>
<text text-anchor="start" x="426" y="-155" font-family="Helvetica,sans-Serif" font-size="10.00">commands.onechild.SetBackground</text>
<text text-anchor="middle" x="513" y="-144" font-family="Helvetica,sans-Serif" font-size="10.00">Command</text>
</a>
</g>
</g>
<!-- Node1&#45;&gt;Node9 -->
<g id="edge8" class="edge"><title>Node1&#45;&gt;Node9</title>
<path fill="none" stroke="midnightblue" d="M341.194,-203.944C363.392,-194.784 390.852,-184.071 416,-176 425.896,-172.824 436.477,-169.808 446.865,-167.055"/>
<polygon fill="midnightblue" stroke="midnightblue" points="339.595,-200.818 331.71,-207.894 342.287,-207.28 339.595,-200.818"/>
</g>
<!-- Node10 -->
<g id="node10" class="node"><title>Node10</title>
<g id="a_node10"><a xlink:href="../../dc/d3f/classcommands_1_1onechild_1_1_sine_command.html" target="_top" xlink:title="commands.onechild.SineCommand">
<polygon fill="white" stroke="black" points="419,-98.5 419,-117.5 607,-117.5 607,-98.5 419,-98.5"/>
<text text-anchor="middle" x="513" y="-105.5" font-family="Helvetica,sans-Serif" font-size="10.00">commands.onechild.SineCommand</text>
</a>
</g>
</g>
<!-- Node1&#45;&gt;Node10 -->
<g id="edge9" class="edge"><title>Node1&#45;&gt;Node10</title>
<path fill="none" stroke="midnightblue" d="M317.998,-200.632C340.189,-178.404 377.278,-145.093 416,-127 424.312,-123.116 433.389,-120.025 442.538,-117.566"/>
<polygon fill="midnightblue" stroke="midnightblue" points="315.289,-198.396 310.791,-207.989 320.289,-203.294 315.289,-198.396"/>
</g>
<!-- Node11 -->
<g id="node11" class="node"><title>Node11</title>
<g id="a_node11"><a xlink:href="../../dc/d8c/classcommands_1_1onechild_1_1_tangent_command.html" target="_top" xlink:title="commands.onechild.Tangent\lCommand">
<polygon fill="white" stroke="black" points="436,-49 436,-79 590,-79 590,-49 436,-49"/>
<text text-anchor="start" x="444" y="-67" font-family="Helvetica,sans-Serif" font-size="10.00">commands.onechild.Tangent</text>
<text text-anchor="middle" x="513" y="-56" font-family="Helvetica,sans-Serif" font-size="10.00">Command</text>
</a>
</g>
</g>
<!-- Node1&#45;&gt;Node11 -->
<g id="edge10" class="edge"><title>Node1&#45;&gt;Node11</title>
<path fill="none" stroke="midnightblue" d="M311.598,-199.268C331.452,-169.023 369.838,-117.282 416,-89 422.315,-85.1311 429.217,-81.8566 436.33,-79.0859"/>
<polygon fill="midnightblue" stroke="midnightblue" points="308.504,-197.609 306.043,-207.914 314.393,-201.393 308.504,-197.609"/>
</g>
<!-- Node12 -->
<g id="node12" class="node"><title>Node12</title>
<g id="a_node12"><a xlink:href="../../d0/d53/classcommands_1_1variable__commands_1_1_to_command.html" target="_top" xlink:title="commands.variable_commands.\lToCommand">
<polygon fill="white" stroke="black" points="426.5,-0 426.5,-30 599.5,-30 599.5,-0 426.5,-0"/>
<text text-anchor="start" x="434.5" y="-18" font-family="Helvetica,sans-Serif" font-size="10.00">commands.variable_commands.</text>
<text text-anchor="middle" x="513" y="-7" font-family="Helvetica,sans-Serif" font-size="10.00">ToCommand</text>
</a>
</g>
</g>
<!-- Node1&#45;&gt;Node12 -->
<g id="edge11" class="edge"><title>Node1&#45;&gt;Node12</title>
<path fill="none" stroke="midnightblue" d="M305.961,-198.372C321.775,-158.495 358.499,-80.124 416,-39 420.751,-35.6021 425.933,-32.6834 431.349,-30.1766"/>
<polygon fill="midnightblue" stroke="midnightblue" points="302.635,-197.27 302.307,-207.86 309.167,-199.786 302.635,-197.27"/>
</g>
<!-- Node2 -->
<g id="node2" class="node"><title>Node2</title>
<g id="a_node2"><a xlink:href="../../d5/d62/classcommands_1_1templates_1_1_command.html" target="_top" xlink:title="commands.templates.Command">
<polygon fill="white" stroke="black" points="0,-213.5 0,-232.5 176,-232.5 176,-213.5 0,-213.5"/>
<text text-anchor="middle" x="88" y="-220.5" font-family="Helvetica,sans-Serif" font-size="10.00">commands.templates.Command</text>
</a>
</g>
</g>
<!-- Node2&#45;&gt;Node1 -->
<g id="edge1" class="edge"><title>Node2&#45;&gt;Node1</title>
<path fill="none" stroke="midnightblue" d="M186.124,-223C194.728,-223 203.387,-223 211.859,-223"/>
<polygon fill="midnightblue" stroke="midnightblue" points="186.064,-219.5 176.064,-223 186.064,-226.5 186.064,-219.5"/>
</g>
</g>
</svg>
