<?xml version="1.0" encoding="UTF-8" standalone="no"?>
<!DOCTYPE svg PUBLIC "-//W3C//DTD SVG 1.1//EN"
 "http://www.w3.org/Graphics/SVG/1.1/DTD/svg11.dtd">
<!-- Generated by graphviz version 2.36.0 (20140111.2315)
 -->
<!-- Title: panels.ParameterPanel.addDecorations Pages: 1 -->
<svg width="372pt" height="38pt"
 viewBox="0.00 0.00 372.00 38.00" xmlns="http://www.w3.org/2000/svg" xmlns:xlink="http://www.w3.org/1999/xlink">
<g id="graph0" class="graph" transform="scale(1 1) rotate(0) translate(4 34)">
<title>panels.ParameterPanel.addDecorations</title>
<polygon fill="white" stroke="none" points="-4,4 -4,-34 368,-34 368,4 -4,4"/>
<!-- Node1 -->
<g id="node1" class="node"><title>Node1</title>
<polygon fill="#bfbfbf" stroke="black" points="0,-0 0,-30 148,-30 148,-0 0,-0"/>
<text text-anchor="start" x="8" y="-18" font-family="Helvetica,sans-Serif" font-size="10.00">panels.ParameterPanel.add</text>
<text text-anchor="middle" x="74" y="-7" font-family="Helvetica,sans-Serif" font-size="10.00">Decorations</text>
</g>
<!-- Node2 -->
<g id="node2" class="node"><title>Node2</title>
<g id="a_node2"><a xlink:href="../../d8/dfc/classpanels_1_1_parameter_panel.html#a44d4625a63948126111c47e8ee68c494" target="_top" xlink:title="panels.ParameterPanel.Parameter\lPanel">
<polygon fill="white" stroke="black" points="184,-0 184,-30 364,-30 364,-0 184,-0"/>
<text text-anchor="start" x="192" y="-18" font-family="Helvetica,sans-Serif" font-size="10.00">panels.ParameterPanel.Parameter</text>
<text text-anchor="middle" x="274" y="-7" font-family="Helvetica,sans-Serif" font-size="10.00">Panel</text>
</a>
</g>
</g>
<!-- Node1&#45;&gt;Node2 -->
<g id="edge1" class="edge"><title>Node1&#45;&gt;Node2</title>
<path fill="none" stroke="midnightblue" d="M158.306,-15C166.696,-15 175.241,-15 183.69,-15"/>
<polygon fill="midnightblue" stroke="midnightblue" points="158.165,-11.5001 148.165,-15 158.165,-18.5001 158.165,-11.5001"/>
</g>
</g>
</svg>
