<?xml version="1.0" encoding="UTF-8" standalone="no"?>
<!DOCTYPE svg PUBLIC "-//W3C//DTD SVG 1.1//EN"
 "http://www.w3.org/Graphics/SVG/1.1/DTD/svg11.dtd">
<!-- Generated by graphviz version 2.36.0 (20140111.2315)
 -->
<!-- Title: panels.ParameterPanel.ParameterPanel Pages: 1 -->
<svg width="382pt" height="87pt"
 viewBox="0.00 0.00 382.00 87.00" xmlns="http://www.w3.org/2000/svg" xmlns:xlink="http://www.w3.org/1999/xlink">
<g id="graph0" class="graph" transform="scale(1 1) rotate(0) translate(4 83)">
<title>panels.ParameterPanel.ParameterPanel</title>
<polygon fill="white" stroke="none" points="-4,4 -4,-83 378,-83 378,4 -4,4"/>
<!-- Node1 -->
<g id="node1" class="node"><title>Node1</title>
<polygon fill="#bfbfbf" stroke="black" points="0,-24 0,-54 180,-54 180,-24 0,-24"/>
<text text-anchor="start" x="8" y="-42" font-family="Helvetica,sans-Serif" font-size="10.00">panels.ParameterPanel.Parameter</text>
<text text-anchor="middle" x="90" y="-31" font-family="Helvetica,sans-Serif" font-size="10.00">Panel</text>
</g>
<!-- Node2 -->
<g id="node2" class="node"><title>Node2</title>
<g id="a_node2"><a xlink:href="../../d8/dfc/classpanels_1_1_parameter_panel.html#a9bbc0a8339eed90d8be320f32134df25" target="_top" xlink:title="panels.ParameterPanel.add\lDecorations">
<polygon fill="white" stroke="black" points="221,-49 221,-79 369,-79 369,-49 221,-49"/>
<text text-anchor="start" x="229" y="-67" font-family="Helvetica,sans-Serif" font-size="10.00">panels.ParameterPanel.add</text>
<text text-anchor="middle" x="295" y="-56" font-family="Helvetica,sans-Serif" font-size="10.00">Decorations</text>
</a>
</g>
</g>
<!-- Node1&#45;&gt;Node2 -->
<g id="edge1" class="edge"><title>Node1&#45;&gt;Node2</title>
<path fill="none" stroke="midnightblue" d="M180.039,-49.9654C190.266,-51.2248 200.664,-52.5054 210.81,-53.7549"/>
<polygon fill="midnightblue" stroke="midnightblue" points="210.503,-57.2435 220.856,-54.9921 211.359,-50.296 210.503,-57.2435"/>
</g>
<!-- Node3 -->
<g id="node3" class="node"><title>Node3</title>
<g id="a_node3"><a xlink:href="../../d8/dfc/classpanels_1_1_parameter_panel.html#a10424516821fdd6f739c07fe382b6184" target="_top" xlink:title="panels.ParameterPanel.setup\lTitledPanes">
<polygon fill="white" stroke="black" points="216.5,-0 216.5,-30 373.5,-30 373.5,-0 216.5,-0"/>
<text text-anchor="start" x="224.5" y="-18" font-family="Helvetica,sans-Serif" font-size="10.00">panels.ParameterPanel.setup</text>
<text text-anchor="middle" x="295" y="-7" font-family="Helvetica,sans-Serif" font-size="10.00">TitledPanes</text>
</a>
</g>
</g>
<!-- Node1&#45;&gt;Node3 -->
<g id="edge2" class="edge"><title>Node1&#45;&gt;Node3</title>
<path fill="none" stroke="midnightblue" d="M180.039,-28.4733C188.768,-27.4413 197.621,-26.3945 206.336,-25.3642"/>
<polygon fill="midnightblue" stroke="midnightblue" points="206.968,-28.814 216.487,-24.1641 206.146,-21.8624 206.968,-28.814"/>
</g>
</g>
</svg>
