<?xml version="1.0" encoding="UTF-8" standalone="no"?>
<!DOCTYPE svg PUBLIC "-//W3C//DTD SVG 1.1//EN"
 "http://www.w3.org/Graphics/SVG/1.1/DTD/svg11.dtd">
<!-- Generated by graphviz version 2.36.0 (20140111.2315)
 -->
<!-- Title: panels.ParameterPanel.updateVariables Pages: 1 -->
<svg width="492pt" height="38pt"
 viewBox="0.00 0.00 492.00 38.00" xmlns="http://www.w3.org/2000/svg" xmlns:xlink="http://www.w3.org/1999/xlink">
<g id="graph0" class="graph" transform="scale(1 1) rotate(0) translate(4 34)">
<title>panels.ParameterPanel.updateVariables</title>
<polygon fill="white" stroke="none" points="-4,4 -4,-34 488,-34 488,4 -4,4"/>
<!-- Node1 -->
<g id="node1" class="node"><title>Node1</title>
<polygon fill="#bfbfbf" stroke="black" points="0,-0 0,-30 164,-30 164,-0 0,-0"/>
<text text-anchor="start" x="8" y="-18" font-family="Helvetica,sans-Serif" font-size="10.00">panels.ParameterPanel.update</text>
<text text-anchor="middle" x="82" y="-7" font-family="Helvetica,sans-Serif" font-size="10.00">Variables</text>
</g>
<!-- Node2 -->
<g id="node2" class="node"><title>Node2</title>
<g id="a_node2"><a xlink:href="../../d0/d8f/classtitle_panes_1_1_variable_title_pane.html#a395dd58ae72e6111fce8e99be3c03842" target="_top" xlink:title="titlePanes.VariableTitle\lPane.updateVariables">
<polygon fill="white" stroke="black" points="200,-0 200,-30 324,-30 324,-0 200,-0"/>
<text text-anchor="start" x="208" y="-18" font-family="Helvetica,sans-Serif" font-size="10.00">titlePanes.VariableTitle</text>
<text text-anchor="middle" x="262" y="-7" font-family="Helvetica,sans-Serif" font-size="10.00">Pane.updateVariables</text>
</a>
</g>
</g>
<!-- Node1&#45;&gt;Node2 -->
<g id="edge1" class="edge"><title>Node1&#45;&gt;Node2</title>
<path fill="none" stroke="midnightblue" d="M164.187,-15C172.726,-15 181.362,-15 189.777,-15"/>
<polygon fill="midnightblue" stroke="midnightblue" points="189.911,-18.5001 199.911,-15 189.911,-11.5001 189.911,-18.5001"/>
</g>
<!-- Node3 -->
<g id="node3" class="node"><title>Node3</title>
<g id="a_node3"><a xlink:href="../../d0/d8f/classtitle_panes_1_1_variable_title_pane.html#a007ec1abdc73761490261f283e07338e" target="_top" xlink:title="titlePanes.VariableTitle\lPane.writeVariables">
<polygon fill="white" stroke="black" points="360,-0 360,-30 484,-30 484,-0 360,-0"/>
<text text-anchor="start" x="368" y="-18" font-family="Helvetica,sans-Serif" font-size="10.00">titlePanes.VariableTitle</text>
<text text-anchor="middle" x="422" y="-7" font-family="Helvetica,sans-Serif" font-size="10.00">Pane.writeVariables</text>
</a>
</g>
</g>
<!-- Node2&#45;&gt;Node3 -->
<g id="edge2" class="edge"><title>Node2&#45;&gt;Node3</title>
<path fill="none" stroke="midnightblue" d="M324.087,-15C332.513,-15 341.226,-15 349.815,-15"/>
<polygon fill="midnightblue" stroke="midnightblue" points="349.815,-18.5001 359.815,-15 349.815,-11.5001 349.815,-18.5001"/>
</g>
</g>
</svg>
