<?xml version="1.0" encoding="UTF-8" standalone="no"?>
<!DOCTYPE svg PUBLIC "-//W3C//DTD SVG 1.1//EN"
 "http://www.w3.org/Graphics/SVG/1.1/DTD/svg11.dtd">
<!-- Generated by graphviz version 2.36.0 (20140111.2315)
 -->
<!-- Title: panels.ParameterPanel.updateVariables Pages: 1 -->
<svg width="1350pt" height="177pt"
 viewBox="0.00 0.00 1350.00 177.00" xmlns="http://www.w3.org/2000/svg" xmlns:xlink="http://www.w3.org/1999/xlink">
<g id="graph0" class="graph" transform="scale(1 1) rotate(0) translate(4 173)">
<title>panels.ParameterPanel.updateVariables</title>
<polygon fill="white" stroke="none" points="-4,4 -4,-173 1346,-173 1346,4 -4,4"/>
<!-- Node1 -->
<g id="node1" class="node"><title>Node1</title>
<polygon fill="#bfbfbf" stroke="black" points="0,-60 0,-90 164,-90 164,-60 0,-60"/>
<text text-anchor="start" x="8" y="-78" font-family="Helvetica,sans-Serif" font-size="10.00">panels.ParameterPanel.update</text>
<text text-anchor="middle" x="82" y="-67" font-family="Helvetica,sans-Serif" font-size="10.00">Variables</text>
</g>
<!-- Node2 -->
<g id="node2" class="node"><title>Node2</title>
<g id="a_node2"><a xlink:href="../../d8/d1f/classfront_end_1_1_view.html#a59fa2dbe984da3217324979184d00559" target="_top" xlink:title="frontEnd.View.updateVariables">
<polygon fill="white" stroke="black" points="200.5,-65.5 200.5,-84.5 361.5,-84.5 361.5,-65.5 200.5,-65.5"/>
<text text-anchor="middle" x="281" y="-72.5" font-family="Helvetica,sans-Serif" font-size="10.00">frontEnd.View.updateVariables</text>
</a>
</g>
</g>
<!-- Node1&#45;&gt;Node2 -->
<g id="edge1" class="edge"><title>Node1&#45;&gt;Node2</title>
<path fill="none" stroke="midnightblue" d="M174.346,-75C182.977,-75 191.681,-75 200.192,-75"/>
<polygon fill="midnightblue" stroke="midnightblue" points="174.265,-71.5001 164.265,-75 174.265,-78.5001 174.265,-71.5001"/>
</g>
<!-- Node3 -->
<g id="node3" class="node"><title>Node3</title>
<g id="a_node3"><a xlink:href="../../d9/d49/classback_end_1_1_controller.html#ad650f48d236eaf11c2d8591b04831900" target="_top" xlink:title="backEnd.Controller.runScript">
<polygon fill="white" stroke="black" points="398,-65.5 398,-84.5 550,-84.5 550,-65.5 398,-65.5"/>
<text text-anchor="middle" x="474" y="-72.5" font-family="Helvetica,sans-Serif" font-size="10.00">backEnd.Controller.runScript</text>
</a>
</g>
</g>
<!-- Node2&#45;&gt;Node3 -->
<g id="edge2" class="edge"><title>Node2&#45;&gt;Node3</title>
<path fill="none" stroke="midnightblue" d="M371.787,-75C380.489,-75 389.254,-75 397.793,-75"/>
<polygon fill="midnightblue" stroke="midnightblue" points="371.618,-71.5001 361.618,-75 371.618,-78.5001 371.618,-71.5001"/>
</g>
<!-- Node4 -->
<g id="node4" class="node"><title>Node4</title>
<g id="a_node4"><a xlink:href="../../de/d03/classpanels_1_1_script_panel.html#ae6ae56472ef1a975597bad69844662c6" target="_top" xlink:title="panels.ScriptPanel.handler">
<polygon fill="white" stroke="black" points="588.5,-130.5 588.5,-149.5 731.5,-149.5 731.5,-130.5 588.5,-130.5"/>
<text text-anchor="middle" x="660" y="-137.5" font-family="Helvetica,sans-Serif" font-size="10.00">panels.ScriptPanel.handler</text>
</a>
</g>
</g>
<!-- Node3&#45;&gt;Node4 -->
<g id="edge3" class="edge"><title>Node3&#45;&gt;Node4</title>
<path fill="none" stroke="midnightblue" d="M511.673,-87.9552C547.198,-100.505 600.232,-119.24 632.039,-130.476"/>
<polygon fill="midnightblue" stroke="midnightblue" points="512.745,-84.6218 502.15,-84.591 510.413,-91.2221 512.745,-84.6218"/>
</g>
<!-- Node6 -->
<g id="node6" class="node"><title>Node6</title>
<g id="a_node6"><a xlink:href="../../da/d04/classtitle_panes_1_1_control_title_pane.html#af28eba60fefe51c70e763d51d9123ea3" target="_top" xlink:title="titlePanes.ControlTitlePane.make\lLocationFields">
<polygon fill="white" stroke="black" points="986.5,-0 986.5,-30 1159.5,-30 1159.5,-0 986.5,-0"/>
<text text-anchor="start" x="994.5" y="-18" font-family="Helvetica,sans-Serif" font-size="10.00">titlePanes.ControlTitlePane.make</text>
<text text-anchor="middle" x="1073" y="-7" font-family="Helvetica,sans-Serif" font-size="10.00">LocationFields</text>
</a>
</g>
</g>
<!-- Node3&#45;&gt;Node6 -->
<g id="edge5" class="edge"><title>Node3&#45;&gt;Node6</title>
<path fill="none" stroke="midnightblue" d="M535.177,-63.7364C551.616,-60.9228 569.457,-58.1097 586,-56 725.641,-38.1916 888.877,-26.222 986.171,-20.018"/>
<polygon fill="midnightblue" stroke="midnightblue" points="534.399,-60.3191 525.147,-65.4821 535.599,-67.2155 534.399,-60.3191"/>
</g>
<!-- Node8 -->
<g id="node8" class="node"><title>Node8</title>
<g id="a_node8"><a xlink:href="../../d9/d49/classback_end_1_1_controller.html#a3b0bbf0a084bb4fb63d118f66e7327b1" target="_top" xlink:title="backEnd.Controller.move10">
<polygon fill="white" stroke="black" points="586,-65.5 586,-84.5 734,-84.5 734,-65.5 586,-65.5"/>
<text text-anchor="middle" x="660" y="-72.5" font-family="Helvetica,sans-Serif" font-size="10.00">backEnd.Controller.move10</text>
</a>
</g>
</g>
<!-- Node3&#45;&gt;Node8 -->
<g id="edge7" class="edge"><title>Node3&#45;&gt;Node8</title>
<path fill="none" stroke="midnightblue" d="M560.156,-75C568.765,-75 577.454,-75 585.92,-75"/>
<polygon fill="midnightblue" stroke="midnightblue" points="560.105,-71.5001 550.105,-75 560.105,-78.5001 560.105,-71.5001"/>
</g>
<!-- Node5 -->
<g id="node5" class="node"><title>Node5</title>
<g id="a_node5"><a xlink:href="../../de/d03/classpanels_1_1_script_panel.html#ac959f1785cff7409d857d3bea9b8ee63" target="_top" xlink:title="panels.ScriptPanel.Script\lPanel">
<polygon fill="white" stroke="black" points="792.5,-139 792.5,-169 927.5,-169 927.5,-139 792.5,-139"/>
<text text-anchor="start" x="800.5" y="-157" font-family="Helvetica,sans-Serif" font-size="10.00">panels.ScriptPanel.Script</text>
<text text-anchor="middle" x="860" y="-146" font-family="Helvetica,sans-Serif" font-size="10.00">Panel</text>
</a>
</g>
</g>
<!-- Node4&#45;&gt;Node5 -->
<g id="edge4" class="edge"><title>Node4&#45;&gt;Node5</title>
<path fill="none" stroke="midnightblue" d="M741.965,-145.725C758.719,-146.909 776.185,-148.144 792.358,-149.288"/>
<polygon fill="midnightblue" stroke="midnightblue" points="741.866,-142.209 731.644,-144.995 741.372,-149.192 741.866,-142.209"/>
</g>
<!-- Node7 -->
<g id="node7" class="node"><title>Node7</title>
<g id="a_node7"><a xlink:href="../../da/d04/classtitle_panes_1_1_control_title_pane.html#ad9d4431a2657a30fedae46e0c9093867" target="_top" xlink:title="titlePanes.ControlTitlePane.\lControlTitlePane">
<polygon fill="white" stroke="black" points="1196,-24 1196,-54 1342,-54 1342,-24 1196,-24"/>
<text text-anchor="start" x="1204" y="-42" font-family="Helvetica,sans-Serif" font-size="10.00">titlePanes.ControlTitlePane.</text>
<text text-anchor="middle" x="1269" y="-31" font-family="Helvetica,sans-Serif" font-size="10.00">ControlTitlePane</text>
</a>
</g>
</g>
<!-- Node6&#45;&gt;Node7 -->
<g id="edge6" class="edge"><title>Node6&#45;&gt;Node7</title>
<path fill="none" stroke="midnightblue" d="M1169.6,-26.8271C1178.43,-27.9193 1187.28,-29.0135 1195.84,-30.0734"/>
<polygon fill="midnightblue" stroke="midnightblue" points="1170.01,-23.3509 1159.66,-25.5966 1169.15,-30.298 1170.01,-23.3509"/>
</g>
<!-- Node9 -->
<g id="node9" class="node"><title>Node9</title>
<g id="a_node9"><a xlink:href="../../d9/d49/classback_end_1_1_controller.html#a7893477f39915a5169eb8da0dff60628" target="_top" xlink:title="backEnd.Controller.build\lKeyListener">
<polygon fill="white" stroke="black" points="794.5,-90 794.5,-120 925.5,-120 925.5,-90 794.5,-90"/>
<text text-anchor="start" x="802.5" y="-108" font-family="Helvetica,sans-Serif" font-size="10.00">backEnd.Controller.build</text>
<text text-anchor="middle" x="860" y="-97" font-family="Helvetica,sans-Serif" font-size="10.00">KeyListener</text>
</a>
</g>
</g>
<!-- Node8&#45;&gt;Node9 -->
<g id="edge8" class="edge"><title>Node8&#45;&gt;Node9</title>
<path fill="none" stroke="midnightblue" d="M734.076,-86.0721C753.787,-89.0587 774.974,-92.2687 794.198,-95.1816"/>
<polygon fill="midnightblue" stroke="midnightblue" points="734.332,-82.571 723.92,-84.5334 733.283,-89.492 734.332,-82.571"/>
</g>
<!-- Node11 -->
<g id="node11" class="node"><title>Node11</title>
<g id="a_node11"><a xlink:href="../../da/d04/classtitle_panes_1_1_control_title_pane.html#ae994c7b4dd988b30fc824e9e893b3ccf" target="_top" xlink:title="titlePanes.ControlTitlePane.handle">
<polygon fill="white" stroke="black" points="770.5,-51.5 770.5,-70.5 949.5,-70.5 949.5,-51.5 770.5,-51.5"/>
<text text-anchor="middle" x="860" y="-58.5" font-family="Helvetica,sans-Serif" font-size="10.00">titlePanes.ControlTitlePane.handle</text>
</a>
</g>
</g>
<!-- Node8&#45;&gt;Node11 -->
<g id="edge10" class="edge"><title>Node8&#45;&gt;Node11</title>
<path fill="none" stroke="midnightblue" d="M744.219,-69.1158C752.862,-68.5047 761.669,-67.882 770.369,-67.2668"/>
<polygon fill="midnightblue" stroke="midnightblue" points="743.894,-65.63 734.165,-69.8267 744.387,-72.6126 743.894,-65.63"/>
</g>
<!-- Node10 -->
<g id="node10" class="node"><title>Node10</title>
<g id="a_node10"><a xlink:href="../../d9/d49/classback_end_1_1_controller.html#a987136eaba0798749f393bac2a9a2400" target="_top" xlink:title="backEnd.Controller.Controller">
<polygon fill="white" stroke="black" points="995.5,-98.5 995.5,-117.5 1150.5,-117.5 1150.5,-98.5 995.5,-98.5"/>
<text text-anchor="middle" x="1073" y="-105.5" font-family="Helvetica,sans-Serif" font-size="10.00">backEnd.Controller.Controller</text>
</a>
</g>
</g>
<!-- Node9&#45;&gt;Node10 -->
<g id="edge9" class="edge"><title>Node9&#45;&gt;Node10</title>
<path fill="none" stroke="midnightblue" d="M935.939,-106.065C955.149,-106.339 975.839,-106.633 995.145,-106.907"/>
<polygon fill="midnightblue" stroke="midnightblue" points="935.79,-102.563 925.741,-105.92 935.69,-109.562 935.79,-102.563"/>
</g>
<!-- Node11&#45;&gt;Node6 -->
<g id="edge13" class="edge"><title>Node11&#45;&gt;Node6</title>
<path fill="none" stroke="midnightblue" d="M914.693,-49.2945C941.53,-43.4436 974.318,-36.2957 1003,-30.0427"/>
<polygon fill="midnightblue" stroke="midnightblue" points="913.744,-45.919 904.719,-51.4688 915.235,-52.7583 913.744,-45.919"/>
</g>
<!-- Node12 -->
<g id="node12" class="node"><title>Node12</title>
<g id="a_node12"><a xlink:href="../../da/d04/classtitle_panes_1_1_control_title_pane.html#a974c75cbdf64007af637c8b19a26b215" target="_top" xlink:title="titlePanes.ControlTitlePane.make\lButtons">
<polygon fill="white" stroke="black" points="986.5,-49 986.5,-79 1159.5,-79 1159.5,-49 986.5,-49"/>
<text text-anchor="start" x="994.5" y="-67" font-family="Helvetica,sans-Serif" font-size="10.00">titlePanes.ControlTitlePane.make</text>
<text text-anchor="middle" x="1073" y="-56" font-family="Helvetica,sans-Serif" font-size="10.00">Buttons</text>
</a>
</g>
</g>
<!-- Node11&#45;&gt;Node12 -->
<g id="edge11" class="edge"><title>Node11&#45;&gt;Node12</title>
<path fill="none" stroke="midnightblue" d="M959.613,-62.4021C968.549,-62.5291 977.551,-62.6571 986.361,-62.7824"/>
<polygon fill="midnightblue" stroke="midnightblue" points="959.615,-58.9018 949.566,-62.2592 959.515,-65.9011 959.615,-58.9018"/>
</g>
<!-- Node12&#45;&gt;Node7 -->
<g id="edge12" class="edge"><title>Node12&#45;&gt;Node7</title>
<path fill="none" stroke="midnightblue" d="M1169.6,-51.6801C1178.43,-50.5423 1187.28,-49.4026 1195.84,-48.2985"/>
<polygon fill="midnightblue" stroke="midnightblue" points="1169.13,-48.2124 1159.66,-52.9619 1170.02,-55.155 1169.13,-48.2124"/>
</g>
</g>
</svg>
