<?xml version="1.0" encoding="UTF-8" standalone="no"?>
<!DOCTYPE svg PUBLIC "-//W3C//DTD SVG 1.1//EN"
 "http://www.w3.org/Graphics/SVG/1.1/DTD/svg11.dtd">
<!-- Generated by graphviz version 2.36.0 (20140111.2315)
 -->
<!-- Title: commands.turtle_commands.TurtlesCommand.executeTurtleCommand Pages: 1 -->
<svg width="454pt" height="87pt"
 viewBox="0.00 0.00 454.00 87.00" xmlns="http://www.w3.org/2000/svg" xmlns:xlink="http://www.w3.org/1999/xlink">
<g id="graph0" class="graph" transform="scale(1 1) rotate(0) translate(4 83)">
<title>commands.turtle_commands.TurtlesCommand.executeTurtleCommand</title>
<polygon fill="white" stroke="none" points="-4,4 -4,-83 450,-83 450,4 -4,4"/>
<!-- Node1 -->
<g id="node1" class="node"><title>Node1</title>
<polygon fill="#bfbfbf" stroke="black" points="0.5,-24 0.5,-54 215.5,-54 215.5,-24 0.5,-24"/>
<text text-anchor="start" x="8.5" y="-42" font-family="Helvetica,sans-Serif" font-size="10.00">commands.turtle_commands.</text>
<text text-anchor="middle" x="108" y="-31" font-family="Helvetica,sans-Serif" font-size="10.00">TurtlesCommand.executeTurtleCommand</text>
</g>
<!-- Node2 -->
<g id="node2" class="node"><title>Node2</title>
<g id="a_node2"><a xlink:href="../../d4/d07/classback_end_1_1turtle_1_1_turtle_manager.html#a9ab8b42e8c50b2b5d03f712abc161f94" target="_top" xlink:title="backEnd.turtle.TurtleManager.get\lNumberOfTurtles">
<polygon fill="white" stroke="black" points="262,-49 262,-79 436,-79 436,-49 262,-49"/>
<text text-anchor="start" x="270" y="-67" font-family="Helvetica,sans-Serif" font-size="10.00">backEnd.turtle.TurtleManager.get</text>
<text text-anchor="middle" x="349" y="-56" font-family="Helvetica,sans-Serif" font-size="10.00">NumberOfTurtles</text>
</a>
</g>
</g>
<!-- Node1&#45;&gt;Node2 -->
<g id="edge1" class="edge"><title>Node1&#45;&gt;Node2</title>
<path fill="none" stroke="midnightblue" d="M215.569,-50.1474C227.507,-51.3962 239.62,-52.6632 251.422,-53.8977"/>
<polygon fill="midnightblue" stroke="midnightblue" points="251.392,-57.4136 261.702,-54.973 252.121,-50.4516 251.392,-57.4136"/>
</g>
<!-- Node3 -->
<g id="node3" class="node"><title>Node3</title>
<g id="a_node3"><a xlink:href="../../d5/d62/classcommands_1_1templates_1_1_command.html#a632193b631b368f6ffbc514865f062e5" target="_top" xlink:title="commands.templates.Command.set\lValue">
<polygon fill="white" stroke="black" points="252,-0 252,-30 446,-30 446,-0 252,-0"/>
<text text-anchor="start" x="260" y="-18" font-family="Helvetica,sans-Serif" font-size="10.00">commands.templates.Command.set</text>
<text text-anchor="middle" x="349" y="-7" font-family="Helvetica,sans-Serif" font-size="10.00">Value</text>
</a>
</g>
</g>
<!-- Node1&#45;&gt;Node3 -->
<g id="edge2" class="edge"><title>Node1&#45;&gt;Node3</title>
<path fill="none" stroke="midnightblue" d="M215.569,-28.2985C224.247,-27.427 233.018,-26.5463 241.695,-25.675"/>
<polygon fill="midnightblue" stroke="midnightblue" points="242.226,-29.1394 251.826,-24.6576 241.526,-22.1744 242.226,-29.1394"/>
</g>
</g>
</svg>
