<?xml version="1.0" encoding="UTF-8" standalone="no"?>
<!DOCTYPE svg PUBLIC "-//W3C//DTD SVG 1.1//EN"
 "http://www.w3.org/Graphics/SVG/1.1/DTD/svg11.dtd">
<!-- Generated by graphviz version 2.36.0 (20140111.2315)
 -->
<!-- Title: commands.turtle_commands.TurtlesCommand.execute Pages: 1 -->
<svg width="652pt" height="182pt"
 viewBox="0.00 0.00 652.00 182.00" xmlns="http://www.w3.org/2000/svg" xmlns:xlink="http://www.w3.org/1999/xlink">
<g id="graph0" class="graph" transform="scale(1 1) rotate(0) translate(4 178)">
<title>commands.turtle_commands.TurtlesCommand.execute</title>
<polygon fill="white" stroke="none" points="-4,4 -4,-178 648,-178 648,4 -4,4"/>
<!-- Node1 -->
<g id="node1" class="node"><title>Node1</title>
<polygon fill="#bfbfbf" stroke="black" points="0.5,-49 0.5,-79 161.5,-79 161.5,-49 0.5,-49"/>
<text text-anchor="start" x="8.5" y="-67" font-family="Helvetica,sans-Serif" font-size="10.00">commands.turtle_commands.</text>
<text text-anchor="middle" x="81" y="-56" font-family="Helvetica,sans-Serif" font-size="10.00">TurtlesCommand.execute</text>
</g>
<!-- Node2 -->
<g id="node2" class="node"><title>Node2</title>
<g id="a_node2"><a xlink:href="../../d4/da8/classcommands_1_1turtle__commands_1_1_turtles_command.html#a89b33996a22b597da85fd6553c7a3af1" target="_top" xlink:title="commands.turtle_commands.\lTurtlesCommand.executeTurtleCommand">
<polygon fill="white" stroke="black" points="198.5,-98 198.5,-128 413.5,-128 413.5,-98 198.5,-98"/>
<text text-anchor="start" x="206.5" y="-116" font-family="Helvetica,sans-Serif" font-size="10.00">commands.turtle_commands.</text>
<text text-anchor="middle" x="306" y="-105" font-family="Helvetica,sans-Serif" font-size="10.00">TurtlesCommand.executeTurtleCommand</text>
</a>
</g>
</g>
<!-- Node1&#45;&gt;Node2 -->
<g id="edge1" class="edge"><title>Node1&#45;&gt;Node2</title>
<path fill="none" stroke="midnightblue" d="M150.423,-79.0346C174.611,-84.3494 201.994,-90.3665 226.923,-95.844"/>
<polygon fill="midnightblue" stroke="midnightblue" points="226.188,-99.2661 236.707,-97.9938 227.691,-92.4292 226.188,-99.2661"/>
</g>
<!-- Node5 -->
<g id="node5" class="node"><title>Node5</title>
<g id="a_node5"><a xlink:href="../../dc/d36/classcommands_1_1templates_1_1_turtle_command.html#ae4d2a640c2db20e624d831deed30484d" target="_top" xlink:title="commands.templates.Turtle\lCommand.getMyTurtleManager">
<polygon fill="white" stroke="black" points="222.5,-49 222.5,-79 389.5,-79 389.5,-49 222.5,-49"/>
<text text-anchor="start" x="230.5" y="-67" font-family="Helvetica,sans-Serif" font-size="10.00">commands.templates.Turtle</text>
<text text-anchor="middle" x="306" y="-56" font-family="Helvetica,sans-Serif" font-size="10.00">Command.getMyTurtleManager</text>
</a>
</g>
</g>
<!-- Node1&#45;&gt;Node5 -->
<g id="edge4" class="edge"><title>Node1&#45;&gt;Node5</title>
<path fill="none" stroke="midnightblue" d="M161.564,-64C177.93,-64 195.299,-64 212.089,-64"/>
<polygon fill="midnightblue" stroke="midnightblue" points="212.454,-67.5001 222.454,-64 212.454,-60.5001 212.454,-67.5001"/>
</g>
<!-- Node7 -->
<g id="node7" class="node"><title>Node7</title>
<g id="a_node7"><a xlink:href="../../d5/d62/classcommands_1_1templates_1_1_command.html#a97358158dd12c0a83a49df3c1e379790" target="_top" xlink:title="commands.templates.Command.get\lValue">
<polygon fill="white" stroke="black" points="209,-0 209,-30 403,-30 403,-0 209,-0"/>
<text text-anchor="start" x="217" y="-18" font-family="Helvetica,sans-Serif" font-size="10.00">commands.templates.Command.get</text>
<text text-anchor="middle" x="306" y="-7" font-family="Helvetica,sans-Serif" font-size="10.00">Value</text>
</a>
</g>
</g>
<!-- Node1&#45;&gt;Node7 -->
<g id="edge6" class="edge"><title>Node1&#45;&gt;Node7</title>
<path fill="none" stroke="midnightblue" d="M150.423,-48.9654C174.611,-43.6506 201.994,-37.6335 226.923,-32.156"/>
<polygon fill="midnightblue" stroke="midnightblue" points="227.691,-35.5708 236.707,-30.0062 226.188,-28.7339 227.691,-35.5708"/>
</g>
<!-- Node3 -->
<g id="node3" class="node"><title>Node3</title>
<g id="a_node3"><a xlink:href="../../d5/d62/classcommands_1_1templates_1_1_command.html#a632193b631b368f6ffbc514865f062e5" target="_top" xlink:title="commands.templates.Command.set\lValue">
<polygon fill="white" stroke="black" points="450,-144 450,-174 644,-174 644,-144 450,-144"/>
<text text-anchor="start" x="458" y="-162" font-family="Helvetica,sans-Serif" font-size="10.00">commands.templates.Command.set</text>
<text text-anchor="middle" x="547" y="-151" font-family="Helvetica,sans-Serif" font-size="10.00">Value</text>
</a>
</g>
</g>
<!-- Node2&#45;&gt;Node3 -->
<g id="edge2" class="edge"><title>Node2&#45;&gt;Node3</title>
<path fill="none" stroke="midnightblue" d="M385.258,-128.062C408.486,-132.533 434.084,-137.46 457.893,-142.042"/>
<polygon fill="midnightblue" stroke="midnightblue" points="457.494,-145.529 467.975,-143.983 458.817,-138.656 457.494,-145.529"/>
</g>
<!-- Node4 -->
<g id="node4" class="node"><title>Node4</title>
<g id="a_node4"><a xlink:href="../../d4/d07/classback_end_1_1turtle_1_1_turtle_manager.html#a9ab8b42e8c50b2b5d03f712abc161f94" target="_top" xlink:title="backEnd.turtle.TurtleManager.get\lNumberOfTurtles">
<polygon fill="white" stroke="black" points="460,-95 460,-125 634,-125 634,-95 460,-95"/>
<text text-anchor="start" x="468" y="-113" font-family="Helvetica,sans-Serif" font-size="10.00">backEnd.turtle.TurtleManager.get</text>
<text text-anchor="middle" x="547" y="-102" font-family="Helvetica,sans-Serif" font-size="10.00">NumberOfTurtles</text>
</a>
</g>
</g>
<!-- Node2&#45;&gt;Node4 -->
<g id="edge3" class="edge"><title>Node2&#45;&gt;Node4</title>
<path fill="none" stroke="midnightblue" d="M413.569,-111.662C425.507,-111.512 437.62,-111.36 449.422,-111.212"/>
<polygon fill="midnightblue" stroke="midnightblue" points="449.747,-114.709 459.702,-111.083 449.659,-107.709 449.747,-114.709"/>
</g>
<!-- Node6 -->
<g id="node6" class="node"><title>Node6</title>
<g id="a_node6"><a xlink:href="../../d9/d98/classback_end_1_1_model.html#a1f54b1acaee5f2f608376ce454fa82f2" target="_top" xlink:title="backEnd.Model.getTurtleManager">
<polygon fill="white" stroke="black" points="459.5,-54.5 459.5,-73.5 634.5,-73.5 634.5,-54.5 459.5,-54.5"/>
<text text-anchor="middle" x="547" y="-61.5" font-family="Helvetica,sans-Serif" font-size="10.00">backEnd.Model.getTurtleManager</text>
</a>
</g>
</g>
<!-- Node5&#45;&gt;Node6 -->
<g id="edge5" class="edge"><title>Node5&#45;&gt;Node6</title>
<path fill="none" stroke="midnightblue" d="M389.585,-64C408.773,-64 429.369,-64 449.11,-64"/>
<polygon fill="midnightblue" stroke="midnightblue" points="449.344,-67.5001 459.344,-64 449.344,-60.5001 449.344,-67.5001"/>
</g>
</g>
</svg>
