<?xml version="1.0" encoding="UTF-8" standalone="no"?>
<!DOCTYPE svg PUBLIC "-//W3C//DTD SVG 1.1//EN"
 "http://www.w3.org/Graphics/SVG/1.1/DTD/svg11.dtd">
<!-- Generated by graphviz version 2.36.0 (20140111.2315)
 -->
<!-- Title: backEnd.VariableManager Pages: 1 -->
<svg width="230pt" height="96pt"
 viewBox="0.00 0.00 230.00 96.00" xmlns="http://www.w3.org/2000/svg" xmlns:xlink="http://www.w3.org/1999/xlink">
<g id="graph0" class="graph" transform="scale(1 1) rotate(0) translate(4 92)">
<title>backEnd.VariableManager</title>
<polygon fill="white" stroke="none" points="-4,4 -4,-92 226,-92 226,4 -4,4"/>
<!-- Node1 -->
<g id="node1" class="node"><title>Node1</title>
<polygon fill="#bfbfbf" stroke="black" points="45,-0.5 45,-19.5 185,-19.5 185,-0.5 45,-0.5"/>
<text text-anchor="middle" x="115" y="-7.5" font-family="Helvetica,sans-Serif" font-size="10.00">backEnd.VariableManager</text>
</g>
<!-- Node2 -->
<g id="node2" class="node"><title>Node2</title>
<polygon fill="white" stroke="#bfbfbf" points="-0.5,-68.5 -0.5,-87.5 114.5,-87.5 114.5,-68.5 -0.5,-68.5"/>
<text text-anchor="middle" x="57" y="-75.5" font-family="Helvetica,sans-Serif" font-size="10.00">Stack&lt; Properties &gt;</text>
</g>
<!-- Node2&#45;&gt;Node1 -->
<g id="edge1" class="edge"><title>Node2&#45;&gt;Node1</title>
<path fill="none" stroke="#9a32cd" stroke-dasharray="5,2" d="M53.5839,-58.5217C53.2549,-51.5921 54.1203,-43.9602 58,-38 63.5554,-29.4654 72.5969,-23.5685 81.8586,-19.5191"/>
<polygon fill="#9a32cd" stroke="#9a32cd" points="50.1163,-58.9995 54.8223,-68.4917 57.0629,-58.1365 50.1163,-58.9995"/>
<text text-anchor="middle" x="105" y="-41.5" font-family="Helvetica,sans-Serif" font-size="10.00"> myStoredVariables</text>
</g>
<!-- Node3 -->
<g id="node3" class="node"><title>Node3</title>
<polygon fill="white" stroke="#bfbfbf" points="141.5,-68.5 141.5,-87.5 206.5,-87.5 206.5,-68.5 141.5,-68.5"/>
<text text-anchor="middle" x="174" y="-75.5" font-family="Helvetica,sans-Serif" font-size="10.00">Properties</text>
</g>
<!-- Node3&#45;&gt;Node1 -->
<g id="edge2" class="edge"><title>Node3&#45;&gt;Node1</title>
<path fill="none" stroke="#9a32cd" stroke-dasharray="5,2" d="M165.849,-58.8943C162.204,-51.9244 157.485,-44.166 152,-38 145.658,-30.8701 137.131,-24.4919 129.862,-19.7273"/>
<polygon fill="#9a32cd" stroke="#9a32cd" points="162.878,-60.789 170.385,-68.2646 169.178,-57.7388 162.878,-60.789"/>
<text text-anchor="middle" x="191" y="-41.5" font-family="Helvetica,sans-Serif" font-size="10.00"> myVariables</text>
</g>
</g>
</svg>
