<?xml version="1.0" encoding="UTF-8" standalone="no"?>
<!DOCTYPE svg PUBLIC "-//W3C//DTD SVG 1.1//EN"
 "http://www.w3.org/Graphics/SVG/1.1/DTD/svg11.dtd">
<!-- Generated by graphviz version 2.36.0 (20140111.2315)
 -->
<!-- Title: commands.variable_commands.UserInputCommand Pages: 1 -->
<svg width="356pt" height="256pt"
 viewBox="0.00 0.00 356.00 256.00" xmlns="http://www.w3.org/2000/svg" xmlns:xlink="http://www.w3.org/1999/xlink">
<g id="graph0" class="graph" transform="scale(1 1) rotate(0) translate(4 252)">
<title>commands.variable_commands.UserInputCommand</title>
<polygon fill="white" stroke="none" points="-4,4 -4,-252 352,-252 352,4 -4,4"/>
<!-- Node1 -->
<g id="node1" class="node"><title>Node1</title>
<polygon fill="#bfbfbf" stroke="black" points="140.5,-1 140.5,-31 313.5,-31 313.5,-1 140.5,-1"/>
<text text-anchor="start" x="148.5" y="-19" font-family="Helvetica,sans-Serif" font-size="10.00">commands.variable_commands.</text>
<text text-anchor="middle" x="227" y="-8" font-family="Helvetica,sans-Serif" font-size="10.00">UserInputCommand</text>
</g>
<!-- Node2 -->
<g id="node2" class="node"><title>Node2</title>
<g id="a_node2"><a xlink:href="../../d5/d62/classcommands_1_1templates_1_1_command.html" target="_top" xlink:title="commands.templates.Command">
<polygon fill="white" stroke="black" points="28,-80.5 28,-99.5 204,-99.5 204,-80.5 28,-80.5"/>
<text text-anchor="middle" x="116" y="-87.5" font-family="Helvetica,sans-Serif" font-size="10.00">commands.templates.Command</text>
</a>
</g>
</g>
<!-- Node2&#45;&gt;Node1 -->
<g id="edge1" class="edge"><title>Node2&#45;&gt;Node1</title>
<path fill="none" stroke="midnightblue" d="M137.664,-74.9477C157.113,-62.3322 185.526,-43.9018 205.06,-31.2316"/>
<polygon fill="midnightblue" stroke="midnightblue" points="135.654,-72.0796 129.169,-80.4579 139.463,-77.9523 135.654,-72.0796"/>
</g>
<!-- Node3 -->
<g id="node3" class="node"><title>Node3</title>
<polygon fill="white" stroke="#bfbfbf" points="-0.5,-149 -0.5,-179 152.5,-179 152.5,-149 -0.5,-149"/>
<text text-anchor="start" x="7.5" y="-167" font-family="Helvetica,sans-Serif" font-size="10.00">List&lt; commands.templates.</text>
<text text-anchor="middle" x="76" y="-156" font-family="Helvetica,sans-Serif" font-size="10.00">Command &gt;</text>
</g>
<!-- Node3&#45;&gt;Node2 -->
<g id="edge2" class="edge"><title>Node3&#45;&gt;Node2</title>
<path fill="none" stroke="#9a32cd" stroke-dasharray="5,2" d="M88.8451,-139.879C96.4439,-126.201 105.63,-109.666 111.134,-99.7589"/>
<polygon fill="#9a32cd" stroke="#9a32cd" points="85.6996,-138.334 83.9027,-148.775 91.8187,-141.733 85.6996,-138.334"/>
<text text-anchor="middle" x="130" y="-121.5" font-family="Helvetica,sans-Serif" font-size="10.00"> myChildren</text>
</g>
<!-- Node4 -->
<g id="node4" class="node"><title>Node4</title>
<g id="a_node4"><a xlink:href="../../d8/d6a/classback_end_1_1_variable_manager.html" target="_top" xlink:title="backEnd.VariableManager">
<polygon fill="white" stroke="black" points="171,-154.5 171,-173.5 311,-173.5 311,-154.5 171,-154.5"/>
<text text-anchor="middle" x="241" y="-161.5" font-family="Helvetica,sans-Serif" font-size="10.00">backEnd.VariableManager</text>
</a>
</g>
</g>
<!-- Node4&#45;&gt;Node2 -->
<g id="edge3" class="edge"><title>Node4&#45;&gt;Node2</title>
<path fill="none" stroke="#9a32cd" stroke-dasharray="5,2" d="M217.164,-149.233C201.723,-140.319 181.177,-128.464 163,-118 152.235,-111.803 140.075,-104.818 130.822,-99.5053"/>
<polygon fill="#9a32cd" stroke="#9a32cd" points="215.641,-152.396 226.052,-154.365 219.142,-146.334 215.641,-152.396"/>
<text text-anchor="middle" x="232.5" y="-121.5" font-family="Helvetica,sans-Serif" font-size="10.00"> myVariableManager</text>
</g>
<!-- Node5 -->
<g id="node5" class="node"><title>Node5</title>
<polygon fill="white" stroke="#bfbfbf" points="125.5,-228.5 125.5,-247.5 240.5,-247.5 240.5,-228.5 125.5,-228.5"/>
<text text-anchor="middle" x="183" y="-235.5" font-family="Helvetica,sans-Serif" font-size="10.00">Stack&lt; Properties &gt;</text>
</g>
<!-- Node5&#45;&gt;Node4 -->
<g id="edge4" class="edge"><title>Node5&#45;&gt;Node4</title>
<path fill="none" stroke="#9a32cd" stroke-dasharray="5,2" d="M179.816,-217.934C179.611,-211.225 180.5,-203.895 184,-198 190.772,-186.595 203.11,-178.75 214.58,-173.581"/>
<polygon fill="#9a32cd" stroke="#9a32cd" points="176.379,-218.706 180.925,-228.275 183.339,-217.959 176.379,-218.706"/>
<text text-anchor="middle" x="231" y="-201.5" font-family="Helvetica,sans-Serif" font-size="10.00"> myStoredVariables</text>
</g>
<!-- Node6 -->
<g id="node6" class="node"><title>Node6</title>
<polygon fill="white" stroke="#bfbfbf" points="267.5,-228.5 267.5,-247.5 332.5,-247.5 332.5,-228.5 267.5,-228.5"/>
<text text-anchor="middle" x="300" y="-235.5" font-family="Helvetica,sans-Serif" font-size="10.00">Properties</text>
</g>
<!-- Node6&#45;&gt;Node4 -->
<g id="edge5" class="edge"><title>Node6&#45;&gt;Node4</title>
<path fill="none" stroke="#9a32cd" stroke-dasharray="5,2" d="M291.532,-219.163C287.843,-212.23 283.176,-204.427 278,-198 270.549,-188.749 260.38,-179.883 252.587,-173.674"/>
<polygon fill="#9a32cd" stroke="#9a32cd" points="288.571,-221.066 296.184,-228.435 294.828,-217.928 288.571,-221.066"/>
<text text-anchor="middle" x="317" y="-201.5" font-family="Helvetica,sans-Serif" font-size="10.00"> myVariables</text>
</g>
<!-- Node7 -->
<g id="node7" class="node"><title>Node7</title>
<polygon fill="white" stroke="#bfbfbf" points="222,-80.5 222,-99.5 306,-99.5 306,-80.5 222,-80.5"/>
<text text-anchor="middle" x="264" y="-87.5" font-family="Helvetica,sans-Serif" font-size="10.00">List&lt; String &gt;</text>
</g>
<!-- Node7&#45;&gt;Node1 -->
<g id="edge6" class="edge"><title>Node7&#45;&gt;Node1</title>
<path fill="none" stroke="#9a32cd" stroke-dasharray="5,2" d="M254.855,-71.2038C248.522,-58.8816 240.206,-42.6978 234.313,-31.2316"/>
<polygon fill="#9a32cd" stroke="#9a32cd" points="251.927,-73.1634 259.61,-80.4579 258.153,-69.9638 251.927,-73.1634"/>
<text text-anchor="middle" x="287" y="-53.5" font-family="Helvetica,sans-Serif" font-size="10.00"> myParameters</text>
</g>
</g>
</svg>
