<?xml version="1.0" encoding="UTF-8" standalone="no"?>
<!DOCTYPE svg PUBLIC "-//W3C//DTD SVG 1.1//EN"
 "http://www.w3.org/Graphics/SVG/1.1/DTD/svg11.dtd">
<!-- Generated by graphviz version 2.36.0 (20140111.2315)
 -->
<!-- Title: commands.onechild.TangentCommand.toString Pages: 1 -->
<svg width="582pt" height="61pt"
 viewBox="0.00 0.00 582.00 61.00" xmlns="http://www.w3.org/2000/svg" xmlns:xlink="http://www.w3.org/1999/xlink">
<g id="graph0" class="graph" transform="scale(1 1) rotate(0) translate(4 57)">
<title>commands.onechild.TangentCommand.toString</title>
<polygon fill="white" stroke="none" points="-4,4 -4,-57 578,-57 578,4 -4,4"/>
<!-- Node1 -->
<g id="node1" class="node"><title>Node1</title>
<polygon fill="#bfbfbf" stroke="black" points="0,-1 0,-31 154,-31 154,-1 0,-1"/>
<text text-anchor="start" x="8" y="-19" font-family="Helvetica,sans-Serif" font-size="10.00">commands.onechild.Tangent</text>
<text text-anchor="middle" x="77" y="-8" font-family="Helvetica,sans-Serif" font-size="10.00">Command.toString</text>
</g>
<!-- Node2 -->
<g id="node2" class="node"><title>Node2</title>
<g id="a_node2"><a xlink:href="../../dc/d8c/classcommands_1_1onechild_1_1_tangent_command.html#a1a8842b14d81954cd2eeca5e525cbba6" target="_top" xlink:title="commands.onechild.Tangent\lCommand.execute">
<polygon fill="white" stroke="black" points="190,-23 190,-53 344,-53 344,-23 190,-23"/>
<text text-anchor="start" x="198" y="-41" font-family="Helvetica,sans-Serif" font-size="10.00">commands.onechild.Tangent</text>
<text text-anchor="middle" x="267" y="-30" font-family="Helvetica,sans-Serif" font-size="10.00">Command.execute</text>
</a>
</g>
</g>
<!-- Node1&#45;&gt;Node2 -->
<g id="edge1" class="edge"><title>Node1&#45;&gt;Node2</title>
<path fill="none" stroke="midnightblue" d="M154.196,-24.9165C162.609,-25.901 171.219,-26.9086 179.744,-27.9063"/>
<polygon fill="midnightblue" stroke="midnightblue" points="179.357,-31.3847 189.696,-29.0708 180.17,-24.4321 179.357,-31.3847"/>
</g>
<!-- Node3 -->
<g id="node3" class="node"><title>Node3</title>
<g id="a_node3"><a xlink:href="../../d5/d62/classcommands_1_1templates_1_1_command.html#ae48716b79da0af7e6815fbe6fc113075" target="_top" xlink:title="commands.templates.Command.get\lMyChildren">
<polygon fill="white" stroke="black" points="380,-1 380,-31 574,-31 574,-1 380,-1"/>
<text text-anchor="start" x="388" y="-19" font-family="Helvetica,sans-Serif" font-size="10.00">commands.templates.Command.get</text>
<text text-anchor="middle" x="477" y="-8" font-family="Helvetica,sans-Serif" font-size="10.00">MyChildren</text>
</a>
</g>
</g>
<!-- Node1&#45;&gt;Node3 -->
<g id="edge3" class="edge"><title>Node1&#45;&gt;Node3</title>
<path fill="none" stroke="midnightblue" d="M154.21,-14.4565C166.187,-14.2666 178.429,-14.1033 190,-14 258.442,-13.389 275.558,-13.4815 344,-14 352.319,-14.063 360.932,-14.1484 369.589,-14.2485"/>
<polygon fill="midnightblue" stroke="midnightblue" points="369.715,-17.7502 379.757,-14.3723 369.801,-10.7507 369.715,-17.7502"/>
</g>
<!-- Node2&#45;&gt;Node3 -->
<g id="edge2" class="edge"><title>Node2&#45;&gt;Node3</title>
<path fill="none" stroke="midnightblue" d="M344.27,-29.9329C352.604,-29.0515 361.194,-28.143 369.803,-27.2323"/>
<polygon fill="midnightblue" stroke="midnightblue" points="370.329,-30.6963 379.906,-26.1638 369.593,-23.7352 370.329,-30.6963"/>
</g>
</g>
</svg>
