<?xml version="1.0" encoding="UTF-8" standalone="no"?>
<!DOCTYPE svg PUBLIC "-//W3C//DTD SVG 1.1//EN"
 "http://www.w3.org/Graphics/SVG/1.1/DTD/svg11.dtd">
<!-- Generated by graphviz version 2.36.0 (20140111.2315)
 -->
<!-- Title: commands.onechild.TangentCommand.execute Pages: 1 -->
<svg width="392pt" height="38pt"
 viewBox="0.00 0.00 392.00 38.00" xmlns="http://www.w3.org/2000/svg" xmlns:xlink="http://www.w3.org/1999/xlink">
<g id="graph0" class="graph" transform="scale(1 1) rotate(0) translate(4 34)">
<title>commands.onechild.TangentCommand.execute</title>
<polygon fill="white" stroke="none" points="-4,4 -4,-34 388,-34 388,4 -4,4"/>
<!-- Node1 -->
<g id="node1" class="node"><title>Node1</title>
<polygon fill="#bfbfbf" stroke="black" points="0,-0 0,-30 154,-30 154,-0 0,-0"/>
<text text-anchor="start" x="8" y="-18" font-family="Helvetica,sans-Serif" font-size="10.00">commands.onechild.Tangent</text>
<text text-anchor="middle" x="77" y="-7" font-family="Helvetica,sans-Serif" font-size="10.00">Command.execute</text>
</g>
<!-- Node2 -->
<g id="node2" class="node"><title>Node2</title>
<g id="a_node2"><a xlink:href="../../d5/d62/classcommands_1_1templates_1_1_command.html#ae48716b79da0af7e6815fbe6fc113075" target="_top" xlink:title="commands.templates.Command.get\lMyChildren">
<polygon fill="white" stroke="black" points="190,-0 190,-30 384,-30 384,-0 190,-0"/>
<text text-anchor="start" x="198" y="-18" font-family="Helvetica,sans-Serif" font-size="10.00">commands.templates.Command.get</text>
<text text-anchor="middle" x="287" y="-7" font-family="Helvetica,sans-Serif" font-size="10.00">MyChildren</text>
</a>
</g>
</g>
<!-- Node1&#45;&gt;Node2 -->
<g id="edge1" class="edge"><title>Node1&#45;&gt;Node2</title>
<path fill="none" stroke="midnightblue" d="M154.27,-15C162.604,-15 171.194,-15 179.803,-15"/>
<polygon fill="midnightblue" stroke="midnightblue" points="179.906,-18.5001 189.906,-15 179.906,-11.5001 179.906,-18.5001"/>
</g>
</g>
</svg>
