<?xml version="1.0" encoding="UTF-8" standalone="no"?>
<!DOCTYPE svg PUBLIC "-//W3C//DTD SVG 1.1//EN"
 "http://www.w3.org/Graphics/SVG/1.1/DTD/svg11.dtd">
<!-- Generated by graphviz version 2.36.0 (20140111.2315)
 -->
<!-- Title: commands.variable_commands.ForCommand.execute Pages: 1 -->
<svg width="642pt" height="169pt"
 viewBox="0.00 0.00 642.00 169.00" xmlns="http://www.w3.org/2000/svg" xmlns:xlink="http://www.w3.org/1999/xlink">
<g id="graph0" class="graph" transform="scale(1 1) rotate(0) translate(4 165)">
<title>commands.variable_commands.ForCommand.execute</title>
<polygon fill="white" stroke="none" points="-4,4 -4,-165 638,-165 638,4 -4,4"/>
<!-- Node1 -->
<g id="node1" class="node"><title>Node1</title>
<polygon fill="#bfbfbf" stroke="black" points="0.5,-71 0.5,-101 173.5,-101 173.5,-71 0.5,-71"/>
<text text-anchor="start" x="8.5" y="-89" font-family="Helvetica,sans-Serif" font-size="10.00">commands.variable_commands.</text>
<text text-anchor="middle" x="87" y="-78" font-family="Helvetica,sans-Serif" font-size="10.00">ForCommand.execute</text>
</g>
<!-- Node2 -->
<g id="node2" class="node"><title>Node2</title>
<g id="a_node2"><a xlink:href="../../d8/d6a/classback_end_1_1_variable_manager.html#a4e95d5d32265cdc2ad3a3c96bc248ef0" target="_top" xlink:title="backEnd.VariableManager.addVar">
<polygon fill="white" stroke="black" points="219,-136.5 219,-155.5 395,-155.5 395,-136.5 219,-136.5"/>
<text text-anchor="middle" x="307" y="-143.5" font-family="Helvetica,sans-Serif" font-size="10.00">backEnd.VariableManager.addVar</text>
</a>
</g>
</g>
<!-- Node1&#45;&gt;Node2 -->
<g id="edge1" class="edge"><title>Node1&#45;&gt;Node2</title>
<path fill="none" stroke="midnightblue" d="M137.136,-101.01C159.331,-107.658 185.923,-115.441 210,-122 224.949,-126.072 241.28,-130.254 256.164,-133.963"/>
<polygon fill="midnightblue" stroke="midnightblue" points="255.654,-137.442 266.202,-136.447 257.336,-130.647 255.654,-137.442"/>
</g>
<!-- Node4 -->
<g id="node4" class="node"><title>Node4</title>
<g id="a_node4"><a xlink:href="../../d5/d62/classcommands_1_1templates_1_1_command.html#ae48716b79da0af7e6815fbe6fc113075" target="_top" xlink:title="commands.templates.Command.get\lMyChildren">
<polygon fill="white" stroke="black" points="440,-41 440,-71 634,-71 634,-41 440,-41"/>
<text text-anchor="start" x="448" y="-59" font-family="Helvetica,sans-Serif" font-size="10.00">commands.templates.Command.get</text>
<text text-anchor="middle" x="537" y="-48" font-family="Helvetica,sans-Serif" font-size="10.00">MyChildren</text>
</a>
</g>
</g>
<!-- Node1&#45;&gt;Node4 -->
<g id="edge3" class="edge"><title>Node1&#45;&gt;Node4</title>
<path fill="none" stroke="midnightblue" d="M173.826,-92.3176C237.568,-95.6104 326.51,-97.2587 404,-88 427.965,-85.1366 453.867,-79.4476 476.327,-73.65"/>
<polygon fill="midnightblue" stroke="midnightblue" points="477.282,-77.0181 486.055,-71.0779 475.492,-70.2507 477.282,-77.0181"/>
</g>
<!-- Node5 -->
<g id="node5" class="node"><title>Node5</title>
<g id="a_node5"><a xlink:href="../../d5/d62/classcommands_1_1templates_1_1_command.html#ac62c003e82cf2518fc257f51c92bd93b" target="_top" xlink:title="commands.templates.Command.get\lVariableManager">
<polygon fill="white" stroke="black" points="210,-49 210,-79 404,-79 404,-49 210,-49"/>
<text text-anchor="start" x="218" y="-67" font-family="Helvetica,sans-Serif" font-size="10.00">commands.templates.Command.get</text>
<text text-anchor="middle" x="307" y="-56" font-family="Helvetica,sans-Serif" font-size="10.00">VariableManager</text>
</a>
</g>
</g>
<!-- Node1&#45;&gt;Node5 -->
<g id="edge4" class="edge"><title>Node1&#45;&gt;Node5</title>
<path fill="none" stroke="midnightblue" d="M173.534,-77.3682C182.2,-76.4935 191.075,-75.5979 199.924,-74.7049"/>
<polygon fill="midnightblue" stroke="midnightblue" points="200.293,-78.1855 209.891,-73.699 199.59,-71.2209 200.293,-78.1855"/>
</g>
<!-- Node6 -->
<g id="node6" class="node"><title>Node6</title>
<g id="a_node6"><a xlink:href="../../d5/d12/classcommands_1_1variable__commands_1_1_for_command.html#a93f5c99f5963180c0ab49a4264971ae1" target="_top" xlink:title="commands.variable_commands.\lForCommand.toString">
<polygon fill="white" stroke="black" points="220.5,-0 220.5,-30 393.5,-30 393.5,-0 220.5,-0"/>
<text text-anchor="start" x="228.5" y="-18" font-family="Helvetica,sans-Serif" font-size="10.00">commands.variable_commands.</text>
<text text-anchor="middle" x="307" y="-7" font-family="Helvetica,sans-Serif" font-size="10.00">ForCommand.toString</text>
</a>
</g>
</g>
<!-- Node1&#45;&gt;Node6 -->
<g id="edge5" class="edge"><title>Node1&#45;&gt;Node6</title>
<path fill="none" stroke="midnightblue" d="M123.622,-70.9454C147.736,-61.0857 180.46,-48.3438 210,-39 216.869,-36.8272 224.064,-34.7222 231.294,-32.7211"/>
<polygon fill="midnightblue" stroke="midnightblue" points="232.405,-36.0465 241.146,-30.0602 230.58,-29.2886 232.405,-36.0465"/>
</g>
<!-- Node3 -->
<g id="node3" class="node"><title>Node3</title>
<g id="a_node3"><a xlink:href="../../d8/d6a/classback_end_1_1_variable_manager.html#a66147ad86c3557de1b28c8073c368dec" target="_top" xlink:title="backEnd.VariableManager.write\lVarsToFile">
<polygon fill="white" stroke="black" points="454.5,-131 454.5,-161 619.5,-161 619.5,-131 454.5,-131"/>
<text text-anchor="start" x="462.5" y="-149" font-family="Helvetica,sans-Serif" font-size="10.00">backEnd.VariableManager.write</text>
<text text-anchor="middle" x="537" y="-138" font-family="Helvetica,sans-Serif" font-size="10.00">VarsToFile</text>
</a>
</g>
</g>
<!-- Node2&#45;&gt;Node3 -->
<g id="edge2" class="edge"><title>Node2&#45;&gt;Node3</title>
<path fill="none" stroke="midnightblue" d="M395.173,-146C411.309,-146 428.206,-146 444.468,-146"/>
<polygon fill="midnightblue" stroke="midnightblue" points="444.499,-149.5 454.499,-146 444.498,-142.5 444.499,-149.5"/>
</g>
<!-- Node6&#45;&gt;Node4 -->
<g id="edge6" class="edge"><title>Node6&#45;&gt;Node4</title>
<path fill="none" stroke="midnightblue" d="M391.604,-30.0341C408.178,-33.0144 425.676,-36.161 442.553,-39.1959"/>
<polygon fill="midnightblue" stroke="midnightblue" points="441.944,-42.6425 452.406,-40.9677 443.183,-35.7531 441.944,-42.6425"/>
</g>
</g>
</svg>
