<?xml version="1.0" encoding="UTF-8" standalone="no"?>
<!DOCTYPE svg PUBLIC "-//W3C//DTD SVG 1.1//EN"
 "http://www.w3.org/Graphics/SVG/1.1/DTD/svg11.dtd">
<!-- Generated by graphviz version 2.36.0 (20140111.2315)
 -->
<!-- Title: commands.variable_commands.ForCommand.toString Pages: 1 -->
<svg width="412pt" height="38pt"
 viewBox="0.00 0.00 412.00 38.00" xmlns="http://www.w3.org/2000/svg" xmlns:xlink="http://www.w3.org/1999/xlink">
<g id="graph0" class="graph" transform="scale(1 1) rotate(0) translate(4 34)">
<title>commands.variable_commands.ForCommand.toString</title>
<polygon fill="white" stroke="none" points="-4,4 -4,-34 408,-34 408,4 -4,4"/>
<!-- Node1 -->
<g id="node1" class="node"><title>Node1</title>
<polygon fill="#bfbfbf" stroke="black" points="0.5,-0 0.5,-30 173.5,-30 173.5,-0 0.5,-0"/>
<text text-anchor="start" x="8.5" y="-18" font-family="Helvetica,sans-Serif" font-size="10.00">commands.variable_commands.</text>
<text text-anchor="middle" x="87" y="-7" font-family="Helvetica,sans-Serif" font-size="10.00">ForCommand.toString</text>
</g>
<!-- Node2 -->
<g id="node2" class="node"><title>Node2</title>
<g id="a_node2"><a xlink:href="../../d5/d62/classcommands_1_1templates_1_1_command.html#ae48716b79da0af7e6815fbe6fc113075" target="_top" xlink:title="commands.templates.Command.get\lMyChildren">
<polygon fill="white" stroke="black" points="210,-0 210,-30 404,-30 404,-0 210,-0"/>
<text text-anchor="start" x="218" y="-18" font-family="Helvetica,sans-Serif" font-size="10.00">commands.templates.Command.get</text>
<text text-anchor="middle" x="307" y="-7" font-family="Helvetica,sans-Serif" font-size="10.00">MyChildren</text>
</a>
</g>
</g>
<!-- Node1&#45;&gt;Node2 -->
<g id="edge1" class="edge"><title>Node1&#45;&gt;Node2</title>
<path fill="none" stroke="midnightblue" d="M173.534,-15C182.107,-15 190.884,-15 199.639,-15"/>
<polygon fill="midnightblue" stroke="midnightblue" points="199.891,-18.5001 209.891,-15 199.891,-11.5001 199.891,-18.5001"/>
</g>
</g>
</svg>
