<?xml version="1.0" encoding="UTF-8" standalone="no"?>
<!DOCTYPE svg PUBLIC "-//W3C//DTD SVG 1.1//EN"
 "http://www.w3.org/Graphics/SVG/1.1/DTD/svg11.dtd">
<!-- Generated by graphviz version 2.36.0 (20140111.2315)
 -->
<!-- Title: frontEnd.View Pages: 1 -->
<svg width="127pt" height="84pt"
 viewBox="0.00 0.00 127.00 84.00" xmlns="http://www.w3.org/2000/svg" xmlns:xlink="http://www.w3.org/1999/xlink">
<g id="graph0" class="graph" transform="scale(1 1) rotate(0) translate(4 80)">
<title>frontEnd.View</title>
<polygon fill="white" stroke="none" points="-4,4 -4,-80 123,-80 123,4 -4,4"/>
<!-- Node1 -->
<g id="node1" class="node"><title>Node1</title>
<polygon fill="#bfbfbf" stroke="black" points="13,-0.5 13,-19.5 95,-19.5 95,-0.5 13,-0.5"/>
<text text-anchor="middle" x="54" y="-7.5" font-family="Helvetica,sans-Serif" font-size="10.00">frontEnd.View</text>
</g>
<!-- Node2 -->
<g id="node2" class="node"><title>Node2</title>
<polygon fill="white" stroke="#bfbfbf" points="-0.5,-56.5 -0.5,-75.5 40.5,-75.5 40.5,-56.5 -0.5,-56.5"/>
<text text-anchor="middle" x="20" y="-63.5" font-family="Helvetica,sans-Serif" font-size="10.00">VBox</text>
</g>
<!-- Node2&#45;&gt;Node1 -->
<g id="edge1" class="edge"><title>Node2&#45;&gt;Node1</title>
<path fill="none" stroke="midnightblue" d="M30.9772,-47.5656C36.827,-38.2747 43.7695,-27.2484 48.4901,-19.7511"/>
<polygon fill="midnightblue" stroke="midnightblue" points="27.9808,-45.7558 25.6144,-56.083 33.9044,-49.4855 27.9808,-45.7558"/>
</g>
<!-- Node3 -->
<g id="node3" class="node"><title>Node3</title>
<polygon fill="white" stroke="#bfbfbf" points="59,-56.5 59,-75.5 119,-75.5 119,-56.5 59,-56.5"/>
<text text-anchor="middle" x="89" y="-63.5" font-family="Helvetica,sans-Serif" font-size="10.00">Observer</text>
</g>
<!-- Node3&#45;&gt;Node1 -->
<g id="edge2" class="edge"><title>Node3&#45;&gt;Node1</title>
<path fill="none" stroke="midnightblue" d="M77.6999,-47.5656C71.6781,-38.2747 64.5314,-27.2484 59.672,-19.7511"/>
<polygon fill="midnightblue" stroke="midnightblue" points="74.8444,-49.5951 83.2205,-56.083 80.7185,-45.7878 74.8444,-49.5951"/>
</g>
</g>
</svg>
