<?xml version="1.0" encoding="UTF-8" standalone="no"?>
<!DOCTYPE svg PUBLIC "-//W3C//DTD SVG 1.1//EN"
 "http://www.w3.org/Graphics/SVG/1.1/DTD/svg11.dtd">
<!-- Generated by graphviz version 2.36.0 (20140111.2315)
 -->
<!-- Title: titlePanes.LoadVariablesTitlePane.openFile Pages: 1 -->
<svg width="716pt" height="38pt"
 viewBox="0.00 0.00 716.00 38.00" xmlns="http://www.w3.org/2000/svg" xmlns:xlink="http://www.w3.org/1999/xlink">
<g id="graph0" class="graph" transform="scale(1 1) rotate(0) translate(4 34)">
<title>titlePanes.LoadVariablesTitlePane.openFile</title>
<polygon fill="white" stroke="none" points="-4,4 -4,-34 712,-34 712,4 -4,4"/>
<!-- Node1 -->
<g id="node1" class="node"><title>Node1</title>
<polygon fill="#bfbfbf" stroke="black" points="0.5,-0 0.5,-30 133.5,-30 133.5,-0 0.5,-0"/>
<text text-anchor="start" x="8.5" y="-18" font-family="Helvetica,sans-Serif" font-size="10.00">titlePanes.LoadVariables</text>
<text text-anchor="middle" x="67" y="-7" font-family="Helvetica,sans-Serif" font-size="10.00">TitlePane.openFile</text>
</g>
<!-- Node2 -->
<g id="node2" class="node"><title>Node2</title>
<g id="a_node2"><a xlink:href="../../d9/d49/classback_end_1_1_controller.html#acf935e88b95d20cbba2c7d112f9c2f54" target="_top" xlink:title="backEnd.Controller.setVariable\lProperties">
<polygon fill="white" stroke="black" points="170,-0 170,-30 332,-30 332,-0 170,-0"/>
<text text-anchor="start" x="178" y="-18" font-family="Helvetica,sans-Serif" font-size="10.00">backEnd.Controller.setVariable</text>
<text text-anchor="middle" x="251" y="-7" font-family="Helvetica,sans-Serif" font-size="10.00">Properties</text>
</a>
</g>
</g>
<!-- Node1&#45;&gt;Node2 -->
<g id="edge1" class="edge"><title>Node1&#45;&gt;Node2</title>
<path fill="none" stroke="midnightblue" d="M133.706,-15C142.122,-15 150.852,-15 159.574,-15"/>
<polygon fill="midnightblue" stroke="midnightblue" points="159.791,-18.5001 169.791,-15 159.791,-11.5001 159.791,-18.5001"/>
</g>
<!-- Node3 -->
<g id="node3" class="node"><title>Node3</title>
<g id="a_node3"><a xlink:href="../../d9/d98/classback_end_1_1_model.html#aea0aabbfcf51ab9a8bdfc671be6eb798" target="_top" xlink:title="backEnd.Model.setVariable\lProperties">
<polygon fill="white" stroke="black" points="368.5,-0 368.5,-30 513.5,-30 513.5,-0 368.5,-0"/>
<text text-anchor="start" x="376.5" y="-18" font-family="Helvetica,sans-Serif" font-size="10.00">backEnd.Model.setVariable</text>
<text text-anchor="middle" x="441" y="-7" font-family="Helvetica,sans-Serif" font-size="10.00">Properties</text>
</a>
</g>
</g>
<!-- Node2&#45;&gt;Node3 -->
<g id="edge2" class="edge"><title>Node2&#45;&gt;Node3</title>
<path fill="none" stroke="midnightblue" d="M332.002,-15C340.693,-15 349.548,-15 358.26,-15"/>
<polygon fill="midnightblue" stroke="midnightblue" points="358.403,-18.5001 368.403,-15 358.403,-11.5001 358.403,-18.5001"/>
</g>
<!-- Node4 -->
<g id="node4" class="node"><title>Node4</title>
<g id="a_node4"><a xlink:href="../../d8/d6a/classback_end_1_1_variable_manager.html#a3a5bea97331ef80c575d9c7dfc746c79" target="_top" xlink:title="backEnd.VariableManager.set\lVarProperties">
<polygon fill="white" stroke="black" points="550,-0 550,-30 708,-30 708,-0 550,-0"/>
<text text-anchor="start" x="558" y="-18" font-family="Helvetica,sans-Serif" font-size="10.00">backEnd.VariableManager.set</text>
<text text-anchor="middle" x="629" y="-7" font-family="Helvetica,sans-Serif" font-size="10.00">VarProperties</text>
</a>
</g>
</g>
<!-- Node3&#45;&gt;Node4 -->
<g id="edge3" class="edge"><title>Node3&#45;&gt;Node4</title>
<path fill="none" stroke="midnightblue" d="M513.646,-15C522.179,-15 530.965,-15 539.695,-15"/>
<polygon fill="midnightblue" stroke="midnightblue" points="539.9,-18.5001 549.9,-15 539.9,-11.5001 539.9,-18.5001"/>
</g>
</g>
</svg>
