<?xml version="1.0" encoding="UTF-8" standalone="no"?>
<!DOCTYPE svg PUBLIC "-//W3C//DTD SVG 1.1//EN"
 "http://www.w3.org/Graphics/SVG/1.1/DTD/svg11.dtd">
<!-- Generated by graphviz version 2.36.0 (20140111.2315)
 -->
<!-- Title: commands.turtle_commands.AskCommand.executeTurtleCommand Pages: 1 -->
<svg width="906pt" height="312pt"
 viewBox="0.00 0.00 906.00 312.00" xmlns="http://www.w3.org/2000/svg" xmlns:xlink="http://www.w3.org/1999/xlink">
<g id="graph0" class="graph" transform="scale(1 1) rotate(0) translate(4 308)">
<title>commands.turtle_commands.AskCommand.executeTurtleCommand</title>
<polygon fill="white" stroke="none" points="-4,4 -4,-308 902,-308 902,4 -4,4"/>
<!-- Node1 -->
<g id="node1" class="node"><title>Node1</title>
<polygon fill="#bfbfbf" stroke="black" points="0.5,-142 0.5,-172 201.5,-172 201.5,-142 0.5,-142"/>
<text text-anchor="start" x="8.5" y="-160" font-family="Helvetica,sans-Serif" font-size="10.00">commands.turtle_commands.</text>
<text text-anchor="middle" x="101" y="-149" font-family="Helvetica,sans-Serif" font-size="10.00">AskCommand.executeTurtleCommand</text>
</g>
<!-- Node2 -->
<g id="node2" class="node"><title>Node2</title>
<g id="a_node2"><a xlink:href="../../d4/d07/classback_end_1_1turtle_1_1_turtle_manager.html#ad8328ab562caaff3f28ff7318542fe8d" target="_top" xlink:title="backEnd.turtle.TurtleManager.add\lTemporaryTurtleList">
<polygon fill="white" stroke="black" points="259,-274 259,-304 435,-304 435,-274 259,-274"/>
<text text-anchor="start" x="267" y="-292" font-family="Helvetica,sans-Serif" font-size="10.00">backEnd.turtle.TurtleManager.add</text>
<text text-anchor="middle" x="347" y="-281" font-family="Helvetica,sans-Serif" font-size="10.00">TemporaryTurtleList</text>
</a>
</g>
</g>
<!-- Node1&#45;&gt;Node2 -->
<g id="edge1" class="edge"><title>Node1&#45;&gt;Node2</title>
<path fill="none" stroke="midnightblue" d="M116.776,-172.342C140.23,-195.768 188.425,-240.233 238,-264 243.044,-266.418 248.334,-268.609 253.75,-270.594"/>
<polygon fill="midnightblue" stroke="midnightblue" points="253.014,-274.041 263.609,-273.948 255.269,-267.414 253.014,-274.041"/>
</g>
<!-- Node5 -->
<g id="node5" class="node"><title>Node5</title>
<g id="a_node5"><a xlink:href="../../d5/d62/classcommands_1_1templates_1_1_command.html#a8bc87b30554d28c6740a25a75b9e1a81" target="_top" xlink:title="commands.templates.Command.execute">
<polygon fill="white" stroke="black" points="238.5,-235.5 238.5,-254.5 455.5,-254.5 455.5,-235.5 238.5,-235.5"/>
<text text-anchor="middle" x="347" y="-242.5" font-family="Helvetica,sans-Serif" font-size="10.00">commands.templates.Command.execute</text>
</a>
</g>
</g>
<!-- Node1&#45;&gt;Node5 -->
<g id="edge4" class="edge"><title>Node1&#45;&gt;Node5</title>
<path fill="none" stroke="midnightblue" d="M127.143,-172.275C153.761,-187.79 197.452,-211.411 238,-225 247.66,-228.237 257.991,-230.995 268.293,-233.331"/>
<polygon fill="midnightblue" stroke="midnightblue" points="267.627,-236.768 278.139,-235.444 269.096,-229.923 267.627,-236.768"/>
</g>
<!-- Node6 -->
<g id="node6" class="node"><title>Node6</title>
<g id="a_node6"><a xlink:href="../../d4/d27/classcommands_1_1variable__commands_1_1_commands_list.html#a2877ac28fd223b0b67a32d3ed653cf5b" target="_top" xlink:title="commands.variable_commands.\lCommandsList.getChild">
<polygon fill="white" stroke="black" points="260.5,-186 260.5,-216 433.5,-216 433.5,-186 260.5,-186"/>
<text text-anchor="start" x="268.5" y="-204" font-family="Helvetica,sans-Serif" font-size="10.00">commands.variable_commands.</text>
<text text-anchor="middle" x="347" y="-193" font-family="Helvetica,sans-Serif" font-size="10.00">CommandsList.getChild</text>
</a>
</g>
</g>
<!-- Node1&#45;&gt;Node6 -->
<g id="edge5" class="edge"><title>Node1&#45;&gt;Node6</title>
<path fill="none" stroke="midnightblue" d="M185.289,-172.019C206.958,-175.927 230.445,-180.162 252.599,-184.157"/>
<polygon fill="midnightblue" stroke="midnightblue" points="252.21,-187.644 262.673,-185.974 253.453,-180.755 252.21,-187.644"/>
</g>
<!-- Node7 -->
<g id="node7" class="node"><title>Node7</title>
<g id="a_node7"><a xlink:href="../../d5/d62/classcommands_1_1templates_1_1_command.html#ae48716b79da0af7e6815fbe6fc113075" target="_top" xlink:title="commands.templates.Command.get\lMyChildren">
<polygon fill="white" stroke="black" points="492,-142 492,-172 686,-172 686,-142 492,-142"/>
<text text-anchor="start" x="500" y="-160" font-family="Helvetica,sans-Serif" font-size="10.00">commands.templates.Command.get</text>
<text text-anchor="middle" x="589" y="-149" font-family="Helvetica,sans-Serif" font-size="10.00">MyChildren</text>
</a>
</g>
</g>
<!-- Node1&#45;&gt;Node7 -->
<g id="edge7" class="edge"><title>Node1&#45;&gt;Node7</title>
<path fill="none" stroke="midnightblue" d="M201.522,-157C283.181,-157 398.518,-157 481.915,-157"/>
<polygon fill="midnightblue" stroke="midnightblue" points="481.923,-160.5 491.923,-157 481.923,-153.5 481.923,-160.5"/>
</g>
<!-- Node8 -->
<g id="node8" class="node"><title>Node8</title>
<g id="a_node8"><a xlink:href="../../d4/d27/classcommands_1_1variable__commands_1_1_commands_list.html#a2f8d92d22d03bbba142a4e7af10da023" target="_top" xlink:title="commands.variable_commands.\lCommandsList.getNumChildren">
<polygon fill="white" stroke="black" points="260.5,-98 260.5,-128 433.5,-128 433.5,-98 260.5,-98"/>
<text text-anchor="start" x="268.5" y="-116" font-family="Helvetica,sans-Serif" font-size="10.00">commands.variable_commands.</text>
<text text-anchor="middle" x="347" y="-105" font-family="Helvetica,sans-Serif" font-size="10.00">CommandsList.getNumChildren</text>
</a>
</g>
</g>
<!-- Node1&#45;&gt;Node8 -->
<g id="edge8" class="edge"><title>Node1&#45;&gt;Node8</title>
<path fill="none" stroke="midnightblue" d="M185.289,-141.981C206.958,-138.073 230.445,-133.838 252.599,-129.843"/>
<polygon fill="midnightblue" stroke="midnightblue" points="253.453,-133.245 262.673,-128.026 252.21,-126.356 253.453,-133.245"/>
</g>
<!-- Node9 -->
<g id="node9" class="node"><title>Node9</title>
<g id="a_node9"><a xlink:href="../../d5/d62/classcommands_1_1templates_1_1_command.html#a632193b631b368f6ffbc514865f062e5" target="_top" xlink:title="commands.templates.Command.set\lValue">
<polygon fill="white" stroke="black" points="250,-49 250,-79 444,-79 444,-49 250,-49"/>
<text text-anchor="start" x="258" y="-67" font-family="Helvetica,sans-Serif" font-size="10.00">commands.templates.Command.set</text>
<text text-anchor="middle" x="347" y="-56" font-family="Helvetica,sans-Serif" font-size="10.00">Value</text>
</a>
</g>
</g>
<!-- Node1&#45;&gt;Node9 -->
<g id="edge10" class="edge"><title>Node1&#45;&gt;Node9</title>
<path fill="none" stroke="midnightblue" d="M127.765,-141.805C154.53,-126.58 198.012,-103.396 238,-89 245.321,-86.3644 253.023,-83.9377 260.804,-81.7197"/>
<polygon fill="midnightblue" stroke="midnightblue" points="261.954,-85.0337 270.678,-79.0218 260.109,-78.2812 261.954,-85.0337"/>
</g>
<!-- Node10 -->
<g id="node10" class="node"><title>Node10</title>
<g id="a_node10"><a xlink:href="../../d4/d07/classback_end_1_1turtle_1_1_turtle_manager.html#a72a9bd4efabe6b282f77050d06ff8b9d" target="_top" xlink:title="backEnd.turtle.TurtleManager.update\lStoredTurtleLists">
<polygon fill="white" stroke="black" points="251,-0 251,-30 443,-30 443,-0 251,-0"/>
<text text-anchor="start" x="259" y="-18" font-family="Helvetica,sans-Serif" font-size="10.00">backEnd.turtle.TurtleManager.update</text>
<text text-anchor="middle" x="347" y="-7" font-family="Helvetica,sans-Serif" font-size="10.00">StoredTurtleLists</text>
</a>
</g>
</g>
<!-- Node1&#45;&gt;Node10 -->
<g id="edge11" class="edge"><title>Node1&#45;&gt;Node10</title>
<path fill="none" stroke="midnightblue" d="M114.991,-141.82C137.425,-116.619 186.045,-66.3234 238,-40 242.655,-37.6413 247.536,-35.5017 252.543,-33.5614"/>
<polygon fill="midnightblue" stroke="midnightblue" points="254.063,-36.7349 262.299,-30.0704 251.705,-30.1441 254.063,-36.7349"/>
</g>
<!-- Node3 -->
<g id="node3" class="node"><title>Node3</title>
<g id="a_node3"><a xlink:href="../../d4/d07/classback_end_1_1turtle_1_1_turtle_manager.html#a84ec440cfc5cbefdfab52c661599b956" target="_top" xlink:title="backEnd.turtle.TurtleManager.create\lTurtleList">
<polygon fill="white" stroke="black" points="494.5,-274 494.5,-304 683.5,-304 683.5,-274 494.5,-274"/>
<text text-anchor="start" x="502.5" y="-292" font-family="Helvetica,sans-Serif" font-size="10.00">backEnd.turtle.TurtleManager.create</text>
<text text-anchor="middle" x="589" y="-281" font-family="Helvetica,sans-Serif" font-size="10.00">TurtleList</text>
</a>
</g>
</g>
<!-- Node2&#45;&gt;Node3 -->
<g id="edge2" class="edge"><title>Node2&#45;&gt;Node3</title>
<path fill="none" stroke="midnightblue" d="M435.324,-289C451.196,-289 467.893,-289 484.185,-289"/>
<polygon fill="midnightblue" stroke="midnightblue" points="484.266,-292.5 494.266,-289 484.266,-285.5 484.266,-292.5"/>
</g>
<!-- Node4 -->
<g id="node4" class="node"><title>Node4</title>
<g id="a_node4"><a xlink:href="../../d4/d07/classback_end_1_1turtle_1_1_turtle_manager.html#a7c50d7becc5092e99d3eff1d6fc2d1f6" target="_top" xlink:title="backEnd.turtle.TurtleManager.add\lNewTurtle">
<polygon fill="white" stroke="black" points="722,-274 722,-304 898,-304 898,-274 722,-274"/>
<text text-anchor="start" x="730" y="-292" font-family="Helvetica,sans-Serif" font-size="10.00">backEnd.turtle.TurtleManager.add</text>
<text text-anchor="middle" x="810" y="-281" font-family="Helvetica,sans-Serif" font-size="10.00">NewTurtle</text>
</a>
</g>
</g>
<!-- Node3&#45;&gt;Node4 -->
<g id="edge3" class="edge"><title>Node3&#45;&gt;Node4</title>
<path fill="none" stroke="midnightblue" d="M683.511,-289C692.817,-289 702.28,-289 711.625,-289"/>
<polygon fill="midnightblue" stroke="midnightblue" points="711.704,-292.5 721.704,-289 711.704,-285.5 711.704,-292.5"/>
</g>
<!-- Node6&#45;&gt;Node7 -->
<g id="edge6" class="edge"><title>Node6&#45;&gt;Node7</title>
<path fill="none" stroke="midnightblue" d="M429.923,-185.981C451.237,-182.073 474.34,-177.838 496.13,-173.843"/>
<polygon fill="midnightblue" stroke="midnightblue" points="496.834,-177.272 506.039,-172.026 495.572,-170.387 496.834,-177.272"/>
</g>
<!-- Node8&#45;&gt;Node7 -->
<g id="edge9" class="edge"><title>Node8&#45;&gt;Node7</title>
<path fill="none" stroke="midnightblue" d="M429.923,-128.019C451.237,-131.927 474.34,-136.162 496.13,-140.157"/>
<polygon fill="midnightblue" stroke="midnightblue" points="495.572,-143.613 506.039,-141.974 496.834,-136.728 495.572,-143.613"/>
</g>
</g>
</svg>
