<?xml version="1.0" encoding="UTF-8" standalone="no"?>
<!DOCTYPE svg PUBLIC "-//W3C//DTD SVG 1.1//EN"
 "http://www.w3.org/Graphics/SVG/1.1/DTD/svg11.dtd">
<!-- Generated by graphviz version 2.36.0 (20140111.2315)
 -->
<!-- Title: commands.twochildren.SumCommand Pages: 1 -->
<svg width="354pt" height="316pt"
 viewBox="0.00 0.00 354.00 316.00" xmlns="http://www.w3.org/2000/svg" xmlns:xlink="http://www.w3.org/1999/xlink">
<g id="graph0" class="graph" transform="scale(1 1) rotate(0) translate(4 312)">
<title>commands.twochildren.SumCommand</title>
<polygon fill="white" stroke="none" points="-4,4 -4,-312 350,-312 350,4 -4,4"/>
<!-- Node1 -->
<g id="node1" class="node"><title>Node1</title>
<polygon fill="#bfbfbf" stroke="black" points="60.5,-1 60.5,-31 213.5,-31 213.5,-1 60.5,-1"/>
<text text-anchor="start" x="68.5" y="-19" font-family="Helvetica,sans-Serif" font-size="10.00">commands.twochildren.Sum</text>
<text text-anchor="middle" x="137" y="-8" font-family="Helvetica,sans-Serif" font-size="10.00">Command</text>
</g>
<!-- Node2 -->
<g id="node2" class="node"><title>Node2</title>
<g id="a_node2"><a xlink:href="../../d0/d45/classcommands_1_1templates_1_1_two_child_command.html" target="_top" xlink:title="commands.templates.TwoChild\lCommand">
<polygon fill="white" stroke="black" points="54.5,-71 54.5,-101 219.5,-101 219.5,-71 54.5,-71"/>
<text text-anchor="start" x="62.5" y="-89" font-family="Helvetica,sans-Serif" font-size="10.00">commands.templates.TwoChild</text>
<text text-anchor="middle" x="137" y="-78" font-family="Helvetica,sans-Serif" font-size="10.00">Command</text>
</a>
</g>
</g>
<!-- Node2&#45;&gt;Node1 -->
<g id="edge1" class="edge"><title>Node2&#45;&gt;Node1</title>
<path fill="none" stroke="midnightblue" d="M137,-60.7688C137,-50.8141 137,-39.6384 137,-31.0716"/>
<polygon fill="midnightblue" stroke="midnightblue" points="133.5,-60.9103 137,-70.9104 140.5,-60.9104 133.5,-60.9103"/>
</g>
<!-- Node3 -->
<g id="node3" class="node"><title>Node3</title>
<g id="a_node3"><a xlink:href="../../d5/d62/classcommands_1_1templates_1_1_command.html" target="_top" xlink:title="commands.templates.Command">
<polygon fill="white" stroke="black" points="49,-140.5 49,-159.5 225,-159.5 225,-140.5 49,-140.5"/>
<text text-anchor="middle" x="137" y="-147.5" font-family="Helvetica,sans-Serif" font-size="10.00">commands.templates.Command</text>
</a>
</g>
</g>
<!-- Node3&#45;&gt;Node2 -->
<g id="edge2" class="edge"><title>Node3&#45;&gt;Node2</title>
<path fill="none" stroke="midnightblue" d="M137,-130.183C137,-120.886 137,-109.851 137,-101.263"/>
<polygon fill="midnightblue" stroke="midnightblue" points="133.5,-130.379 137,-140.379 140.5,-130.379 133.5,-130.379"/>
</g>
<!-- Node4 -->
<g id="node4" class="node"><title>Node4</title>
<polygon fill="white" stroke="#bfbfbf" points="-0.5,-209 -0.5,-239 152.5,-239 152.5,-209 -0.5,-209"/>
<text text-anchor="start" x="7.5" y="-227" font-family="Helvetica,sans-Serif" font-size="10.00">List&lt; commands.templates.</text>
<text text-anchor="middle" x="76" y="-216" font-family="Helvetica,sans-Serif" font-size="10.00">Command &gt;</text>
</g>
<!-- Node4&#45;&gt;Node3 -->
<g id="edge3" class="edge"><title>Node4&#45;&gt;Node3</title>
<path fill="none" stroke="#9a32cd" stroke-dasharray="5,2" d="M94.5922,-201.055C106.364,-187.16 120.943,-169.952 129.579,-159.759"/>
<polygon fill="#9a32cd" stroke="#9a32cd" points="91.8454,-198.883 88.0516,-208.775 97.1863,-203.408 91.8454,-198.883"/>
<text text-anchor="middle" x="143" y="-181.5" font-family="Helvetica,sans-Serif" font-size="10.00"> myChildren</text>
</g>
<!-- Node5 -->
<g id="node5" class="node"><title>Node5</title>
<g id="a_node5"><a xlink:href="../../d8/d6a/classback_end_1_1_variable_manager.html" target="_top" xlink:title="backEnd.VariableManager">
<polygon fill="white" stroke="black" points="171,-214.5 171,-233.5 311,-233.5 311,-214.5 171,-214.5"/>
<text text-anchor="middle" x="241" y="-221.5" font-family="Helvetica,sans-Serif" font-size="10.00">backEnd.VariableManager</text>
</a>
</g>
</g>
<!-- Node5&#45;&gt;Node3 -->
<g id="edge4" class="edge"><title>Node5&#45;&gt;Node3</title>
<path fill="none" stroke="#9a32cd" stroke-dasharray="5,2" d="M220.326,-208.687C199.118,-194.005 166.827,-171.65 149.323,-159.531"/>
<polygon fill="#9a32cd" stroke="#9a32cd" points="218.447,-211.643 228.661,-214.458 222.432,-205.888 218.447,-211.643"/>
<text text-anchor="middle" x="242.5" y="-181.5" font-family="Helvetica,sans-Serif" font-size="10.00"> myVariableManager</text>
</g>
<!-- Node6 -->
<g id="node6" class="node"><title>Node6</title>
<polygon fill="white" stroke="#bfbfbf" points="124.5,-288.5 124.5,-307.5 239.5,-307.5 239.5,-288.5 124.5,-288.5"/>
<text text-anchor="middle" x="182" y="-295.5" font-family="Helvetica,sans-Serif" font-size="10.00">Stack&lt; Properties &gt;</text>
</g>
<!-- Node6&#45;&gt;Node5 -->
<g id="edge5" class="edge"><title>Node6&#45;&gt;Node5</title>
<path fill="none" stroke="#9a32cd" stroke-dasharray="5,2" d="M176.228,-278.421C175.178,-271.581 175.375,-264.036 179,-258 185.969,-246.397 198.55,-238.652 210.567,-233.6"/>
<polygon fill="#9a32cd" stroke="#9a32cd" points="172.855,-279.365 178.589,-288.274 179.662,-277.733 172.855,-279.365"/>
<text text-anchor="middle" x="226" y="-261.5" font-family="Helvetica,sans-Serif" font-size="10.00"> myStoredVariables</text>
</g>
<!-- Node7 -->
<g id="node7" class="node"><title>Node7</title>
<polygon fill="white" stroke="#bfbfbf" points="266.5,-288.5 266.5,-307.5 331.5,-307.5 331.5,-288.5 266.5,-288.5"/>
<text text-anchor="middle" x="299" y="-295.5" font-family="Helvetica,sans-Serif" font-size="10.00">Properties</text>
</g>
<!-- Node7&#45;&gt;Node5 -->
<g id="edge6" class="edge"><title>Node7&#45;&gt;Node5</title>
<path fill="none" stroke="#9a32cd" stroke-dasharray="5,2" d="M290.487,-279.199C286.791,-272.271 282.133,-264.462 277,-258 269.723,-248.838 259.83,-239.964 252.257,-233.731"/>
<polygon fill="#9a32cd" stroke="#9a32cd" points="287.528,-281.104 295.155,-288.458 293.779,-277.953 287.528,-281.104"/>
<text text-anchor="middle" x="315" y="-261.5" font-family="Helvetica,sans-Serif" font-size="10.00"> myVariables</text>
</g>
</g>
</svg>
