<?xml version="1.0" encoding="UTF-8" standalone="no"?>
<!DOCTYPE svg PUBLIC "-//W3C//DTD SVG 1.1//EN"
 "http://www.w3.org/Graphics/SVG/1.1/DTD/svg11.dtd">
<!-- Generated by graphviz version 2.36.0 (20140111.2315)
 -->
<!-- Title: exceptions.SLogoException Pages: 1 -->
<!--zoomable 175 -->
<svg id="main" version="1.1" xmlns="http://www.w3.org/2000/svg" xmlns:xlink="http://www.w3.org/1999/xlink" xml:space="preserve" onload="init(evt)">
<style type="text/css"><![CDATA[
.edge:hover path { stroke: red; }
.edge:hover polygon { stroke: red; fill: red; }
]]></style>
<script type="text/javascript"><![CDATA[
var edges = document.getElementsByTagName('g');
if (edges && edges.length) {
  for (var i=0;i<edges.length;i++) {
    if (edges[i].id.substr(0,4)=='edge') {
      edges[i].setAttribute('class','edge');
    }
  }
}
]]></script>
        <defs>
                <circle id="rim" cx="0" cy="0" r="7"/>
                <circle id="rim2" cx="0" cy="0" r="3.5"/>
                <g id="zoomPlus">
                        <use xlink:href="#rim" fill="#404040">
                                <set attributeName="fill" to="#808080" begin="zoomplus.mouseover" end="zoomplus.mouseout"/>
                        </use>
                        <path d="M-4,0h8M0,-4v8" fill="none" stroke="white" stroke-width="1.5" pointer-events="none"/>
                </g>
                <g id="zoomMin">
                        <use xlink:href="#rim" fill="#404040">
                                <set attributeName="fill" to="#808080" begin="zoomminus.mouseover" end="zoomminus.mouseout"/>
                        </use>
                        <path d="M-4,0h8" fill="none" stroke="white" stroke-width="1.5" pointer-events="none"/>
                </g>
                <g id="dirArrow">
                        <path fill="none" stroke="white" stroke-width="1.5" d="M0,-3.0v7 M-2.5,-0.5L0,-3.0L2.5,-0.5"/>
                </g>
               <g id="resetDef">
                       <use xlink:href="#rim2" fill="#404040">
                               <set attributeName="fill" to="#808080" begin="reset.mouseover" end="reset.mouseout"/>
                       </use>
               </g>
        </defs>

<script type="text/javascript">
var viewWidth = 502;
var viewHeight = 175;
var sectionId = 'dynsection-0';
</script>
<script xlink:href="../../svgpan.js"/>
<svg id="graph" class="graph">
<g id="viewport">
<title>exceptions.SLogoException</title>
<polygon fill="white" stroke="none" points="-4,4 -4,-171 498,-171 498,4 -4,4"/>
<!-- Node1 -->
<g id="node1" class="node"><title>Node1</title>
<polygon fill="#bfbfbf" stroke="black" points="138,-78.5 138,-97.5 286,-97.5 286,-78.5 138,-78.5"/>
<text text-anchor="middle" x="212" y="-85.5" font-family="Helvetica,sans-Serif" font-size="10.00">exceptions.SLogoException</text>
</g>
<!-- Node3 -->
<g id="node3" class="node"><title>Node3</title>
<g id="a_node3"><a xlink:href="../../d5/d09/classexceptions_1_1_invalid_input_exception.html" target="_top" xlink:title="exceptions.InvalidInputException">
<polygon fill="white" stroke="black" points="322,-147.5 322,-166.5 494,-166.5 494,-147.5 322,-147.5"/>
<text text-anchor="middle" x="408" y="-154.5" font-family="Helvetica,sans-Serif" font-size="10.00">exceptions.InvalidInputException</text>
</a>
</g>
</g>
<!-- Node1&#45;&gt;Node3 -->
<g id="edge2" class="edge"><title>Node1&#45;&gt;Node3</title>
<path fill="none" stroke="midnightblue" d="M240.425,-102.097C262.12,-112.811 293.415,-127.312 322,-137 333.917,-141.039 347.041,-144.561 359.338,-147.477"/>
<polygon fill="midnightblue" stroke="midnightblue" points="241.974,-98.958 231.464,-97.6164 238.843,-105.219 241.974,-98.958"/>
</g>
<!-- Node4 -->
<g id="node4" class="node"><title>Node4</title>
<g id="a_node4"><a xlink:href="../../d5/d9e/classexceptions_1_1_invalid_property_file_exception.html" target="_top" xlink:title="exceptions.InvalidProperty\lFileException">
<polygon fill="white" stroke="black" points="337,-98 337,-128 479,-128 479,-98 337,-98"/>
<text text-anchor="start" x="345" y="-116" font-family="Helvetica,sans-Serif" font-size="10.00">exceptions.InvalidProperty</text>
<text text-anchor="middle" x="408" y="-105" font-family="Helvetica,sans-Serif" font-size="10.00">FileException</text>
</a>
</g>
</g>
<!-- Node1&#45;&gt;Node4 -->
<g id="edge3" class="edge"><title>Node1&#45;&gt;Node4</title>
<path fill="none" stroke="midnightblue" d="M296.318,-98.7369C309.839,-100.479 323.722,-102.268 336.888,-103.965"/>
<polygon fill="midnightblue" stroke="midnightblue" points="296.432,-95.2227 286.067,-97.4158 295.537,-102.165 296.432,-95.2227"/>
</g>
<!-- Node5 -->
<g id="node5" class="node"><title>Node5</title>
<g id="a_node5"><a xlink:href="../../d8/d6a/classexceptions_1_1_missing_parameters_exception.html" target="_top" xlink:title="exceptions.MissingParameters\lException">
<polygon fill="white" stroke="black" points="327,-49 327,-79 489,-79 489,-49 327,-49"/>
<text text-anchor="start" x="335" y="-67" font-family="Helvetica,sans-Serif" font-size="10.00">exceptions.MissingParameters</text>
<text text-anchor="middle" x="408" y="-56" font-family="Helvetica,sans-Serif" font-size="10.00">Exception</text>
</a>
</g>
</g>
<!-- Node1&#45;&gt;Node5 -->
<g id="edge4" class="edge"><title>Node1&#45;&gt;Node5</title>
<path fill="none" stroke="midnightblue" d="M296.159,-77.7123C306.338,-76.4531 316.724,-75.1682 326.857,-73.9146"/>
<polygon fill="midnightblue" stroke="midnightblue" points="295.561,-74.2595 286.067,-78.9608 296.421,-81.2065 295.561,-74.2595"/>
</g>
<!-- Node6 -->
<g id="node6" class="node"><title>Node6</title>
<g id="a_node6"><a xlink:href="../../db/d28/classexceptions_1_1_undefined_variable_exception.html" target="_top" xlink:title="exceptions.UndefinedVariable\lException">
<polygon fill="white" stroke="black" points="329,-0 329,-30 487,-30 487,-0 329,-0"/>
<text text-anchor="start" x="337" y="-18" font-family="Helvetica,sans-Serif" font-size="10.00">exceptions.UndefinedVariable</text>
<text text-anchor="middle" x="408" y="-7" font-family="Helvetica,sans-Serif" font-size="10.00">Exception</text>
</a>
</g>
</g>
<!-- Node1&#45;&gt;Node6 -->
<g id="edge5" class="edge"><title>Node1&#45;&gt;Node6</title>
<path fill="none" stroke="midnightblue" d="M240.94,-74.065C262.685,-63.5582 293.805,-49.2545 322,-39 330.646,-35.8553 339.909,-32.8664 349.024,-30.1329"/>
<polygon fill="midnightblue" stroke="midnightblue" points="239.395,-70.9243 231.942,-78.4546 242.464,-77.2156 239.395,-70.9243"/>
</g>
<!-- Node2 -->
<g id="node2" class="node"><title>Node2</title>
<polygon fill="white" stroke="#bfbfbf" points="0,-78.5 0,-97.5 102,-97.5 102,-78.5 0,-78.5"/>
<text text-anchor="middle" x="51" y="-85.5" font-family="Helvetica,sans-Serif" font-size="10.00">RuntimeException</text>
</g>
<!-- Node2&#45;&gt;Node1 -->
<g id="edge1" class="edge"><title>Node2&#45;&gt;Node1</title>
<path fill="none" stroke="midnightblue" d="M112.568,-88C120.812,-88 129.345,-88 137.783,-88"/>
<polygon fill="midnightblue" stroke="midnightblue" points="112.309,-84.5001 102.309,-88 112.309,-91.5001 112.309,-84.5001"/>
</g>
</g>
</svg>
        <g id="navigator" transform="translate(0 0)" fill="#404254">
                <rect fill="#f2f5e9" fill-opacity="0.5" stroke="#606060" stroke-width=".5" x="0" y="0" width="60" height="60"/>
                <use id="zoomplus" xlink:href="#zoomPlus" x="17" y="9" onmousedown="handleZoom(evt,'in')"/>
                <use id="zoomminus" xlink:href="#zoomMin" x="42" y="9" onmousedown="handleZoom(evt,'out')"/>
                <use id="reset" xlink:href="#resetDef" x="30" y="36" onmousedown="handleReset()"/>
                <g id="arrowUp" xlink:href="#dirArrow" transform="translate(30 24)" onmousedown="handlePan(0,-1)">
                  <use xlink:href="#rim" fill="#404040">
                        <set attributeName="fill" to="#808080" begin="arrowUp.mouseover" end="arrowUp.mouseout"/>
                  </use>
                  <path fill="none" stroke="white" stroke-width="1.5" d="M0,-3.0v7 M-2.5,-0.5L0,-3.0L2.5,-0.5"/>
                </g>
                <g id="arrowRight" xlink:href="#dirArrow" transform="rotate(90) translate(36 -43)" onmousedown="handlePan(1,0)">
                  <use xlink:href="#rim" fill="#404040">
                        <set attributeName="fill" to="#808080" begin="arrowRight.mouseover" end="arrowRight.mouseout"/>
                  </use>
                  <path fill="none" stroke="white" stroke-width="1.5" d="M0,-3.0v7 M-2.5,-0.5L0,-3.0L2.5,-0.5"/>
                </g>
                <g id="arrowDown" xlink:href="#dirArrow" transform="rotate(180) translate(-30 -48)" onmousedown="handlePan(0,1)">
                  <use xlink:href="#rim" fill="#404040">
                        <set attributeName="fill" to="#808080" begin="arrowDown.mouseover" end="arrowDown.mouseout"/>
                  </use>
                  <path fill="none" stroke="white" stroke-width="1.5" d="M0,-3.0v7 M-2.5,-0.5L0,-3.0L2.5,-0.5"/>
                </g>
                <g id="arrowLeft" xlink:href="#dirArrow" transform="rotate(270) translate(-36 17)" onmousedown="handlePan(-1,0)">
                  <use xlink:href="#rim" fill="#404040">
                        <set attributeName="fill" to="#808080" begin="arrowLeft.mouseover" end="arrowLeft.mouseout"/>
                  </use>
                  <path fill="none" stroke="white" stroke-width="1.5" d="M0,-3.0v7 M-2.5,-0.5L0,-3.0L2.5,-0.5"/>
                </g>
        </g>
        <svg viewBox="0 0 15 15" width="100%" height="30px" preserveAspectRatio="xMaxYMin meet">
         <g id="arrow_out" transform="scale(0.3 0.3)">
          <a xlink:href="classexceptions_1_1_s_logo_exception__inherit__graph_org.svg" target="_base">
           <rect id="button" ry="5" rx="5" y="6" x="6" height="38" width="38"
                fill="#f2f5e9" fill-opacity="0.5" stroke="#606060" stroke-width="1.0"/>
           <path id="arrow"
             d="M 11.500037,31.436501 C 11.940474,20.09759 22.043105,11.32322 32.158766,21.979434 L 37.068811,17.246167 C 37.068811,17.246167 37.088388,32 37.088388,32 L 22.160133,31.978069 C 22.160133,31.978069 26.997745,27.140456 26.997745,27.140456 C 18.528582,18.264221 13.291696,25.230495 11.500037,31.436501 z"
             style="fill:#404040;"/>
          </a>
         </g>
        </svg>
</svg>
