<?xml version="1.0" encoding="UTF-8" standalone="no"?>
<!DOCTYPE svg PUBLIC "-//W3C//DTD SVG 1.1//EN"
 "http://www.w3.org/Graphics/SVG/1.1/DTD/svg11.dtd">
<!-- Generated by graphviz version 2.36.0 (20140111.2315)
 -->
<!-- Title: exceptions.SLogoException Pages: 1 -->
<svg width="502pt" height="175pt"
 viewBox="0.00 0.00 502.00 175.00" xmlns="http://www.w3.org/2000/svg" xmlns:xlink="http://www.w3.org/1999/xlink">
<g id="graph0" class="graph" transform="scale(1 1) rotate(0) translate(4 171)">
<title>exceptions.SLogoException</title>
<polygon fill="white" stroke="none" points="-4,4 -4,-171 498,-171 498,4 -4,4"/>
<!-- Node1 -->
<g id="node1" class="node"><title>Node1</title>
<polygon fill="#bfbfbf" stroke="black" points="138,-78.5 138,-97.5 286,-97.5 286,-78.5 138,-78.5"/>
<text text-anchor="middle" x="212" y="-85.5" font-family="Helvetica,sans-Serif" font-size="10.00">exceptions.SLogoException</text>
</g>
<!-- Node3 -->
<g id="node3" class="node"><title>Node3</title>
<g id="a_node3"><a xlink:href="../../d5/d09/classexceptions_1_1_invalid_input_exception.html" target="_top" xlink:title="exceptions.InvalidInputException">
<polygon fill="white" stroke="black" points="322,-147.5 322,-166.5 494,-166.5 494,-147.5 322,-147.5"/>
<text text-anchor="middle" x="408" y="-154.5" font-family="Helvetica,sans-Serif" font-size="10.00">exceptions.InvalidInputException</text>
</a>
</g>
</g>
<!-- Node1&#45;&gt;Node3 -->
<g id="edge2" class="edge"><title>Node1&#45;&gt;Node3</title>
<path fill="none" stroke="midnightblue" d="M240.425,-102.097C262.12,-112.811 293.415,-127.312 322,-137 333.917,-141.039 347.041,-144.561 359.338,-147.477"/>
<polygon fill="midnightblue" stroke="midnightblue" points="241.974,-98.958 231.464,-97.6164 238.843,-105.219 241.974,-98.958"/>
</g>
<!-- Node4 -->
<g id="node4" class="node"><title>Node4</title>
<g id="a_node4"><a xlink:href="../../d5/d9e/classexceptions_1_1_invalid_property_file_exception.html" target="_top" xlink:title="exceptions.InvalidProperty\lFileException">
<polygon fill="white" stroke="black" points="337,-98 337,-128 479,-128 479,-98 337,-98"/>
<text text-anchor="start" x="345" y="-116" font-family="Helvetica,sans-Serif" font-size="10.00">exceptions.InvalidProperty</text>
<text text-anchor="middle" x="408" y="-105" font-family="Helvetica,sans-Serif" font-size="10.00">FileException</text>
</a>
</g>
</g>
<!-- Node1&#45;&gt;Node4 -->
<g id="edge3" class="edge"><title>Node1&#45;&gt;Node4</title>
<path fill="none" stroke="midnightblue" d="M296.318,-98.7369C309.839,-100.479 323.722,-102.268 336.888,-103.965"/>
<polygon fill="midnightblue" stroke="midnightblue" points="296.432,-95.2227 286.067,-97.4158 295.537,-102.165 296.432,-95.2227"/>
</g>
<!-- Node5 -->
<g id="node5" class="node"><title>Node5</title>
<g id="a_node5"><a xlink:href="../../d8/d6a/classexceptions_1_1_missing_parameters_exception.html" target="_top" xlink:title="exceptions.MissingParameters\lException">
<polygon fill="white" stroke="black" points="327,-49 327,-79 489,-79 489,-49 327,-49"/>
<text text-anchor="start" x="335" y="-67" font-family="Helvetica,sans-Serif" font-size="10.00">exceptions.MissingParameters</text>
<text text-anchor="middle" x="408" y="-56" font-family="Helvetica,sans-Serif" font-size="10.00">Exception</text>
</a>
</g>
</g>
<!-- Node1&#45;&gt;Node5 -->
<g id="edge4" class="edge"><title>Node1&#45;&gt;Node5</title>
<path fill="none" stroke="midnightblue" d="M296.159,-77.7123C306.338,-76.4531 316.724,-75.1682 326.857,-73.9146"/>
<polygon fill="midnightblue" stroke="midnightblue" points="295.561,-74.2595 286.067,-78.9608 296.421,-81.2065 295.561,-74.2595"/>
</g>
<!-- Node6 -->
<g id="node6" class="node"><title>Node6</title>
<g id="a_node6"><a xlink:href="../../db/d28/classexceptions_1_1_undefined_variable_exception.html" target="_top" xlink:title="exceptions.UndefinedVariable\lException">
<polygon fill="white" stroke="black" points="329,-0 329,-30 487,-30 487,-0 329,-0"/>
<text text-anchor="start" x="337" y="-18" font-family="Helvetica,sans-Serif" font-size="10.00">exceptions.UndefinedVariable</text>
<text text-anchor="middle" x="408" y="-7" font-family="Helvetica,sans-Serif" font-size="10.00">Exception</text>
</a>
</g>
</g>
<!-- Node1&#45;&gt;Node6 -->
<g id="edge5" class="edge"><title>Node1&#45;&gt;Node6</title>
<path fill="none" stroke="midnightblue" d="M240.94,-74.065C262.685,-63.5582 293.805,-49.2545 322,-39 330.646,-35.8553 339.909,-32.8664 349.024,-30.1329"/>
<polygon fill="midnightblue" stroke="midnightblue" points="239.395,-70.9243 231.942,-78.4546 242.464,-77.2156 239.395,-70.9243"/>
</g>
<!-- Node2 -->
<g id="node2" class="node"><title>Node2</title>
<polygon fill="white" stroke="#bfbfbf" points="0,-78.5 0,-97.5 102,-97.5 102,-78.5 0,-78.5"/>
<text text-anchor="middle" x="51" y="-85.5" font-family="Helvetica,sans-Serif" font-size="10.00">RuntimeException</text>
</g>
<!-- Node2&#45;&gt;Node1 -->
<g id="edge1" class="edge"><title>Node2&#45;&gt;Node1</title>
<path fill="none" stroke="midnightblue" d="M112.568,-88C120.812,-88 129.345,-88 137.783,-88"/>
<polygon fill="midnightblue" stroke="midnightblue" points="112.309,-84.5001 102.309,-88 112.309,-91.5001 112.309,-84.5001"/>
</g>
</g>
</svg>
