<?xml version="1.0" encoding="UTF-8" standalone="no"?>
<!DOCTYPE svg PUBLIC "-//W3C//DTD SVG 1.1//EN"
 "http://www.w3.org/Graphics/SVG/1.1/DTD/svg11.dtd">
<!-- Generated by graphviz version 2.36.0 (20140111.2315)
 -->
<!-- Title: commands.turtle_commands.RightCommand.executeTurtleCommand Pages: 1 -->
<svg width="414pt" height="38pt"
 viewBox="0.00 0.00 414.00 38.00" xmlns="http://www.w3.org/2000/svg" xmlns:xlink="http://www.w3.org/1999/xlink">
<g id="graph0" class="graph" transform="scale(1 1) rotate(0) translate(4 34)">
<title>commands.turtle_commands.RightCommand.executeTurtleCommand</title>
<polygon fill="white" stroke="none" points="-4,4 -4,-34 410,-34 410,4 -4,4"/>
<!-- Node1 -->
<g id="node1" class="node"><title>Node1</title>
<polygon fill="#bfbfbf" stroke="black" points="0,-0 0,-30 208,-30 208,-0 0,-0"/>
<text text-anchor="start" x="8" y="-18" font-family="Helvetica,sans-Serif" font-size="10.00">commands.turtle_commands.</text>
<text text-anchor="middle" x="104" y="-7" font-family="Helvetica,sans-Serif" font-size="10.00">RightCommand.executeTurtleCommand</text>
</g>
<!-- Node2 -->
<g id="node2" class="node"><title>Node2</title>
<g id="a_node2"><a xlink:href="../../db/dad/classcommands_1_1turtle__commands_1_1_right_command.html#a356afbf240a6d680dbd8c39c17d00fbd" target="_top" xlink:title="commands.turtle_commands.\lRightCommand.execute">
<polygon fill="white" stroke="black" points="244.5,-0 244.5,-30 405.5,-30 405.5,-0 244.5,-0"/>
<text text-anchor="start" x="252.5" y="-18" font-family="Helvetica,sans-Serif" font-size="10.00">commands.turtle_commands.</text>
<text text-anchor="middle" x="325" y="-7" font-family="Helvetica,sans-Serif" font-size="10.00">RightCommand.execute</text>
</a>
</g>
</g>
<!-- Node1&#45;&gt;Node2 -->
<g id="edge1" class="edge"><title>Node1&#45;&gt;Node2</title>
<path fill="none" stroke="midnightblue" d="M218.109,-15C226.985,-15 235.83,-15 244.408,-15"/>
<polygon fill="midnightblue" stroke="midnightblue" points="218.087,-11.5001 208.087,-15 218.087,-18.5001 218.087,-11.5001"/>
</g>
</g>
</svg>
