<?xml version="1.0" encoding="UTF-8" standalone="no"?>
<!DOCTYPE svg PUBLIC "-//W3C//DTD SVG 1.1//EN"
 "http://www.w3.org/Graphics/SVG/1.1/DTD/svg11.dtd">
<!-- Generated by graphviz version 2.36.0 (20140111.2315)
 -->
<!-- Title: commands.turtle_commands.RightCommand.execute Pages: 1 -->
<svg width="644pt" height="209pt"
 viewBox="0.00 0.00 644.00 209.00" xmlns="http://www.w3.org/2000/svg" xmlns:xlink="http://www.w3.org/1999/xlink">
<g id="graph0" class="graph" transform="scale(1 1) rotate(0) translate(4 205)">
<title>commands.turtle_commands.RightCommand.execute</title>
<polygon fill="white" stroke="none" points="-4,4 -4,-205 640,-205 640,4 -4,4"/>
<!-- Node1 -->
<g id="node1" class="node"><title>Node1</title>
<polygon fill="#bfbfbf" stroke="black" points="0.5,-73 0.5,-103 161.5,-103 161.5,-73 0.5,-73"/>
<text text-anchor="start" x="8.5" y="-91" font-family="Helvetica,sans-Serif" font-size="10.00">commands.turtle_commands.</text>
<text text-anchor="middle" x="81" y="-80" font-family="Helvetica,sans-Serif" font-size="10.00">RightCommand.execute</text>
</g>
<!-- Node2 -->
<g id="node2" class="node"><title>Node2</title>
<g id="a_node2"><a xlink:href="../../db/dad/classcommands_1_1turtle__commands_1_1_right_command.html#a96d3d8a94b3c3f5fc340e36885e67776" target="_top" xlink:title="commands.turtle_commands.\lRightCommand.executeTurtleCommand">
<polygon fill="white" stroke="black" points="198,-147 198,-177 406,-177 406,-147 198,-147"/>
<text text-anchor="start" x="206" y="-165" font-family="Helvetica,sans-Serif" font-size="10.00">commands.turtle_commands.</text>
<text text-anchor="middle" x="302" y="-154" font-family="Helvetica,sans-Serif" font-size="10.00">RightCommand.executeTurtleCommand</text>
</a>
</g>
</g>
<!-- Node1&#45;&gt;Node2 -->
<g id="edge1" class="edge"><title>Node1&#45;&gt;Node2</title>
<path fill="none" stroke="midnightblue" d="M113.965,-103.154C136.969,-113.649 168.936,-127.404 198,-137 205.912,-139.612 214.248,-142.083 222.61,-144.38"/>
<polygon fill="midnightblue" stroke="midnightblue" points="221.85,-147.799 232.414,-146.994 223.654,-141.036 221.85,-147.799"/>
</g>
<!-- Node5 -->
<g id="node5" class="node"><title>Node5</title>
<g id="a_node5"><a xlink:href="../../d5/d62/classcommands_1_1templates_1_1_command.html#ae48716b79da0af7e6815fbe6fc113075" target="_top" xlink:title="commands.templates.Command.get\lMyChildren">
<polygon fill="white" stroke="black" points="205,-98 205,-128 399,-128 399,-98 205,-98"/>
<text text-anchor="start" x="213" y="-116" font-family="Helvetica,sans-Serif" font-size="10.00">commands.templates.Command.get</text>
<text text-anchor="middle" x="302" y="-105" font-family="Helvetica,sans-Serif" font-size="10.00">MyChildren</text>
</a>
</g>
</g>
<!-- Node1&#45;&gt;Node5 -->
<g id="edge4" class="edge"><title>Node1&#45;&gt;Node5</title>
<path fill="none" stroke="midnightblue" d="M161.684,-97.0963C172.452,-98.3255 183.636,-99.6023 194.775,-100.874"/>
<polygon fill="midnightblue" stroke="midnightblue" points="194.647,-104.382 204.98,-102.039 195.441,-97.4271 194.647,-104.382"/>
</g>
<!-- Node6 -->
<g id="node6" class="node"><title>Node6</title>
<g id="a_node6"><a xlink:href="../../dc/d36/classcommands_1_1templates_1_1_turtle_command.html#ae4d2a640c2db20e624d831deed30484d" target="_top" xlink:title="commands.templates.Turtle\lCommand.getMyTurtleManager">
<polygon fill="white" stroke="black" points="218.5,-49 218.5,-79 385.5,-79 385.5,-49 218.5,-49"/>
<text text-anchor="start" x="226.5" y="-67" font-family="Helvetica,sans-Serif" font-size="10.00">commands.templates.Turtle</text>
<text text-anchor="middle" x="302" y="-56" font-family="Helvetica,sans-Serif" font-size="10.00">Command.getMyTurtleManager</text>
</a>
</g>
</g>
<!-- Node1&#45;&gt;Node6 -->
<g id="edge5" class="edge"><title>Node1&#45;&gt;Node6</title>
<path fill="none" stroke="midnightblue" d="M161.684,-79.2676C176.832,-77.6074 192.806,-75.8569 208.317,-74.157"/>
<polygon fill="midnightblue" stroke="midnightblue" points="208.872,-77.6173 218.431,-73.0487 208.109,-70.6589 208.872,-77.6173"/>
</g>
<!-- Node8 -->
<g id="node8" class="node"><title>Node8</title>
<g id="a_node8"><a xlink:href="../../d5/d62/classcommands_1_1templates_1_1_command.html#a632193b631b368f6ffbc514865f062e5" target="_top" xlink:title="commands.templates.Command.set\lValue">
<polygon fill="white" stroke="black" points="205,-0 205,-30 399,-30 399,-0 205,-0"/>
<text text-anchor="start" x="213" y="-18" font-family="Helvetica,sans-Serif" font-size="10.00">commands.templates.Command.set</text>
<text text-anchor="middle" x="302" y="-7" font-family="Helvetica,sans-Serif" font-size="10.00">Value</text>
</a>
</g>
</g>
<!-- Node1&#45;&gt;Node8 -->
<g id="edge7" class="edge"><title>Node1&#45;&gt;Node8</title>
<path fill="none" stroke="midnightblue" d="M114.493,-72.9717C137.474,-62.7364 169.198,-49.3924 198,-40 205.985,-37.3962 214.396,-34.9262 222.828,-32.6251"/>
<polygon fill="midnightblue" stroke="midnightblue" points="223.944,-35.9503 232.712,-30.0034 222.149,-29.1843 223.944,-35.9503"/>
</g>
<!-- Node3 -->
<g id="node3" class="node"><title>Node3</title>
<g id="a_node3"><a xlink:href="../../d4/d07/classback_end_1_1turtle_1_1_turtle_manager.html#abd8e7545c1f29c7714bc7aaf59d3875b" target="_top" xlink:title="backEnd.turtle.TurtleManager.get\lTurtleList">
<polygon fill="white" stroke="black" points="452,-171 452,-201 626,-201 626,-171 452,-171"/>
<text text-anchor="start" x="460" y="-189" font-family="Helvetica,sans-Serif" font-size="10.00">backEnd.turtle.TurtleManager.get</text>
<text text-anchor="middle" x="539" y="-178" font-family="Helvetica,sans-Serif" font-size="10.00">TurtleList</text>
</a>
</g>
</g>
<!-- Node2&#45;&gt;Node3 -->
<g id="edge2" class="edge"><title>Node2&#45;&gt;Node3</title>
<path fill="none" stroke="midnightblue" d="M406.074,-172.527C417.902,-173.735 429.927,-174.963 441.662,-176.161"/>
<polygon fill="midnightblue" stroke="midnightblue" points="441.582,-179.671 451.886,-177.205 442.294,-172.707 441.582,-179.671"/>
</g>
<!-- Node4 -->
<g id="node4" class="node"><title>Node4</title>
<g id="a_node4"><a xlink:href="../../d5/d62/classcommands_1_1templates_1_1_command.html#a97358158dd12c0a83a49df3c1e379790" target="_top" xlink:title="commands.templates.Command.get\lValue">
<polygon fill="white" stroke="black" points="442,-122 442,-152 636,-152 636,-122 442,-122"/>
<text text-anchor="start" x="450" y="-140" font-family="Helvetica,sans-Serif" font-size="10.00">commands.templates.Command.get</text>
<text text-anchor="middle" x="539" y="-129" font-family="Helvetica,sans-Serif" font-size="10.00">Value</text>
</a>
</g>
</g>
<!-- Node2&#45;&gt;Node4 -->
<g id="edge3" class="edge"><title>Node2&#45;&gt;Node4</title>
<path fill="none" stroke="midnightblue" d="M406.074,-151.035C414.584,-150.129 423.196,-149.213 431.728,-148.306"/>
<polygon fill="midnightblue" stroke="midnightblue" points="432.122,-151.783 441.696,-147.245 431.382,-144.823 432.122,-151.783"/>
</g>
<!-- Node7 -->
<g id="node7" class="node"><title>Node7</title>
<g id="a_node7"><a xlink:href="../../d9/d98/classback_end_1_1_model.html#a1f54b1acaee5f2f608376ce454fa82f2" target="_top" xlink:title="backEnd.Model.getTurtleManager">
<polygon fill="white" stroke="black" points="451.5,-54.5 451.5,-73.5 626.5,-73.5 626.5,-54.5 451.5,-54.5"/>
<text text-anchor="middle" x="539" y="-61.5" font-family="Helvetica,sans-Serif" font-size="10.00">backEnd.Model.getTurtleManager</text>
</a>
</g>
</g>
<!-- Node6&#45;&gt;Node7 -->
<g id="edge6" class="edge"><title>Node6&#45;&gt;Node7</title>
<path fill="none" stroke="midnightblue" d="M385.522,-64C403.487,-64 422.653,-64 441.118,-64"/>
<polygon fill="midnightblue" stroke="midnightblue" points="441.292,-67.5001 451.292,-64 441.292,-60.5001 441.292,-67.5001"/>
</g>
</g>
</svg>
