<?xml version="1.0" encoding="UTF-8" standalone="no"?>
<!DOCTYPE svg PUBLIC "-//W3C//DTD SVG 1.1//EN"
 "http://www.w3.org/Graphics/SVG/1.1/DTD/svg11.dtd">
<!-- Generated by graphviz version 2.36.0 (20140111.2315)
 -->
<!-- Title: frontEnd.TurtleView Pages: 1 -->
<svg width="346pt" height="391pt"
 viewBox="0.00 0.00 346.00 391.00" xmlns="http://www.w3.org/2000/svg" xmlns:xlink="http://www.w3.org/1999/xlink">
<g id="graph0" class="graph" transform="scale(1 1) rotate(0) translate(4 387)">
<title>frontEnd.TurtleView</title>
<polygon fill="white" stroke="none" points="-4,4 -4,-387 342,-387 342,4 -4,4"/>
<!-- Node1 -->
<g id="node1" class="node"><title>Node1</title>
<polygon fill="#bfbfbf" stroke="black" points="230.5,-134.5 230.5,-153.5 337.5,-153.5 337.5,-134.5 230.5,-134.5"/>
<text text-anchor="middle" x="284" y="-141.5" font-family="Helvetica,sans-Serif" font-size="10.00">frontEnd.TurtleView</text>
</g>
<!-- Node2 -->
<g id="node2" class="node"><title>Node2</title>
<polygon fill="white" stroke="#bfbfbf" points="2.5,-292.5 2.5,-311.5 93.5,-311.5 93.5,-292.5 2.5,-292.5"/>
<text text-anchor="middle" x="48" y="-299.5" font-family="Helvetica,sans-Serif" font-size="10.00">DoubleProperty</text>
</g>
<!-- Node2&#45;&gt;Node1 -->
<g id="edge1" class="edge"><title>Node2&#45;&gt;Node1</title>
<path fill="none" stroke="#9a32cd" stroke-dasharray="5,2" d="M104.03,-306.752C137.99,-306.919 180.862,-301.852 212,-280 257.131,-248.329 275.698,-178.956 281.152,-153.559"/>
<polygon fill="#9a32cd" stroke="#9a32cd" points="103.868,-303.248 93.7996,-306.545 103.727,-310.247 103.868,-303.248"/>
<text text-anchor="middle" x="163" y="-375" font-family="Helvetica,sans-Serif" font-size="10.00"> myShapeIndex</text>
<text text-anchor="middle" x="163" y="-364" font-family="Helvetica,sans-Serif" font-size="10.00">myYPosition</text>
<text text-anchor="middle" x="163" y="-353" font-family="Helvetica,sans-Serif" font-size="10.00">myXPosition</text>
<text text-anchor="middle" x="163" y="-342" font-family="Helvetica,sans-Serif" font-size="10.00">myPenColorIndex</text>
<text text-anchor="middle" x="163" y="-331" font-family="Helvetica,sans-Serif" font-size="10.00">myStampCount</text>
<text text-anchor="middle" x="163" y="-320" font-family="Helvetica,sans-Serif" font-size="10.00">myPenSize</text>
<text text-anchor="middle" x="163" y="-309" font-family="Helvetica,sans-Serif" font-size="10.00">myOrientation</text>
</g>
<!-- Node3 -->
<g id="node3" class="node"><title>Node3</title>
<polygon fill="white" stroke="#bfbfbf" points="1.5,-254.5 1.5,-273.5 94.5,-273.5 94.5,-254.5 1.5,-254.5"/>
<text text-anchor="middle" x="48" y="-261.5" font-family="Helvetica,sans-Serif" font-size="10.00">ResourceBundle</text>
</g>
<!-- Node3&#45;&gt;Node1 -->
<g id="edge2" class="edge"><title>Node3&#45;&gt;Node1</title>
<path fill="none" stroke="#9a32cd" stroke-dasharray="5,2" d="M104.697,-266.661C137.981,-265.802 179.892,-260.227 212,-241 247.272,-219.878 270.303,-173.823 279.045,-153.716"/>
<polygon fill="#9a32cd" stroke="#9a32cd" points="104.621,-263.161 94.6653,-266.786 104.708,-270.161 104.621,-263.161"/>
<text text-anchor="middle" x="163" y="-269" font-family="Helvetica,sans-Serif" font-size="10.00"> myImageResources</text>
</g>
<!-- Node4 -->
<g id="node4" class="node"><title>Node4</title>
<polygon fill="white" stroke="#bfbfbf" points="14,-216.5 14,-235.5 82,-235.5 82,-216.5 14,-216.5"/>
<text text-anchor="middle" x="48" y="-223.5" font-family="Helvetica,sans-Serif" font-size="10.00">ImageView</text>
</g>
<!-- Node4&#45;&gt;Node1 -->
<g id="edge3" class="edge"><title>Node4&#45;&gt;Node1</title>
<path fill="none" stroke="#9a32cd" stroke-dasharray="5,2" d="M92.1186,-227.499C126.085,-227.111 173.898,-223.014 212,-206 239.196,-193.856 263.608,-167.643 275.449,-153.503"/>
<polygon fill="#9a32cd" stroke="#9a32cd" points="92.044,-223.999 82.0481,-227.511 92.0522,-230.999 92.044,-223.999"/>
<text text-anchor="middle" x="163" y="-229" font-family="Helvetica,sans-Serif" font-size="10.00"> myImageView</text>
</g>
<!-- Node5 -->
<g id="node5" class="node"><title>Node5</title>
<polygon fill="white" stroke="#bfbfbf" points="0,-155.5 0,-174.5 96,-174.5 96,-155.5 0,-155.5"/>
<text text-anchor="middle" x="48" y="-162.5" font-family="Helvetica,sans-Serif" font-size="10.00">BooleanProperty</text>
</g>
<!-- Node5&#45;&gt;Node1 -->
<g id="edge4" class="edge"><title>Node5&#45;&gt;Node1</title>
<path fill="none" stroke="#9a32cd" stroke-dasharray="5,2" d="M106.425,-159.847C144.266,-156.451 193.447,-152.037 230.292,-148.73"/>
<polygon fill="#9a32cd" stroke="#9a32cd" points="105.719,-156.396 96.0719,-160.776 106.345,-163.368 105.719,-156.396"/>
<text text-anchor="middle" x="163" y="-194" font-family="Helvetica,sans-Serif" font-size="10.00"> myLinesCleared</text>
<text text-anchor="middle" x="163" y="-183" font-family="Helvetica,sans-Serif" font-size="10.00">myVisibility</text>
<text text-anchor="middle" x="163" y="-172" font-family="Helvetica,sans-Serif" font-size="10.00">myActivity</text>
<text text-anchor="middle" x="163" y="-161" font-family="Helvetica,sans-Serif" font-size="10.00">myPenDown</text>
</g>
<!-- Node6 -->
<g id="node6" class="node"><title>Node6</title>
<g id="a_node6"><a xlink:href="../../df/d96/interfacedrawer_1_1_drawer.html" target="_top" xlink:title="drawer.Drawer">
<polygon fill="white" stroke="black" points="5.5,-117.5 5.5,-136.5 90.5,-136.5 90.5,-117.5 5.5,-117.5"/>
<text text-anchor="middle" x="48" y="-124.5" font-family="Helvetica,sans-Serif" font-size="10.00">drawer.Drawer</text>
</a>
</g>
</g>
<!-- Node6&#45;&gt;Node1 -->
<g id="edge5" class="edge"><title>Node6&#45;&gt;Node1</title>
<path fill="none" stroke="#9a32cd" stroke-dasharray="5,2" d="M100.747,-124.483C132.875,-123.622 174.96,-123.763 212,-128 223.675,-129.335 236.237,-131.812 247.502,-134.425"/>
<polygon fill="#9a32cd" stroke="#9a32cd" points="100.572,-120.987 90.6851,-124.794 100.788,-127.984 100.572,-120.987"/>
<text text-anchor="middle" x="163" y="-131" font-family="Helvetica,sans-Serif" font-size="10.00"> myDrawer</text>
</g>
<!-- Node7 -->
<g id="node7" class="node"><title>Node7</title>
<polygon fill="white" stroke="#bfbfbf" points="15.5,-79.5 15.5,-98.5 80.5,-98.5 80.5,-79.5 15.5,-79.5"/>
<text text-anchor="middle" x="48" y="-86.5" font-family="Helvetica,sans-Serif" font-size="10.00">Properties</text>
</g>
<!-- Node7&#45;&gt;Node1 -->
<g id="edge6" class="edge"><title>Node7&#45;&gt;Node1</title>
<path fill="none" stroke="#9a32cd" stroke-dasharray="5,2" d="M90.8968,-90.2854C124.295,-92.2226 171.94,-97.0438 212,-109 232.148,-115.013 253.574,-126.341 267.553,-134.482"/>
<polygon fill="#9a32cd" stroke="#9a32cd" points="90.7487,-86.7732 80.5814,-89.7524 90.3874,-93.7638 90.7487,-86.7732"/>
<text text-anchor="middle" x="163" y="-112" font-family="Helvetica,sans-Serif" font-size="10.00"> myColorProperties</text>
</g>
<!-- Node8 -->
<g id="node8" class="node"><title>Node8</title>
<polygon fill="white" stroke="#bfbfbf" points="25,-38.5 25,-57.5 71,-57.5 71,-38.5 25,-38.5"/>
<text text-anchor="middle" x="48" y="-45.5" font-family="Helvetica,sans-Serif" font-size="10.00">Group</text>
</g>
<!-- Node8&#45;&gt;Node1 -->
<g id="edge7" class="edge"><title>Node8&#45;&gt;Node1</title>
<path fill="none" stroke="#9a32cd" stroke-dasharray="5,2" d="M81.6141,-45.0565C115.96,-43.3998 170.682,-44.9511 212,-66 243.001,-81.793 267.095,-117.109 277.457,-134.269"/>
<polygon fill="#9a32cd" stroke="#9a32cd" points="80.9917,-41.5878 71.2218,-45.6865 81.4153,-48.5749 80.9917,-41.5878"/>
<text text-anchor="middle" x="163" y="-80" font-family="Helvetica,sans-Serif" font-size="10.00"> myPenLines</text>
<text text-anchor="middle" x="163" y="-69" font-family="Helvetica,sans-Serif" font-size="10.00">myStamps</text>
</g>
<!-- Node9 -->
<g id="node9" class="node"><title>Node9</title>
<polygon fill="white" stroke="#bfbfbf" points="27.5,-0.5 27.5,-19.5 68.5,-19.5 68.5,-0.5 27.5,-0.5"/>
<text text-anchor="middle" x="48" y="-7.5" font-family="Helvetica,sans-Serif" font-size="10.00">Color</text>
</g>
<!-- Node9&#45;&gt;Node1 -->
<g id="edge8" class="edge"><title>Node9&#45;&gt;Node1</title>
<path fill="none" stroke="#9a32cd" stroke-dasharray="5,2" d="M78.5982,-6.13414C113.346,-3.14622 171.379,-3.14241 212,-29 251.984,-54.4517 273.074,-111.339 280.193,-134.205"/>
<polygon fill="#9a32cd" stroke="#9a32cd" points="78.2098,-2.65542 68.6071,-7.1319 78.9054,-9.62077 78.2098,-2.65542"/>
<text text-anchor="middle" x="163" y="-32" font-family="Helvetica,sans-Serif" font-size="10.00"> myPenColor</text>
</g>
</g>
</svg>
