<?xml version="1.0" encoding="UTF-8" standalone="no"?>
<!DOCTYPE svg PUBLIC "-//W3C//DTD SVG 1.1//EN"
 "http://www.w3.org/Graphics/SVG/1.1/DTD/svg11.dtd">
<!-- Generated by graphviz version 2.36.0 (20140111.2315)
 -->
<!-- Title: exceptions.InvalidPropertyFileException Pages: 1 -->
<svg width="156pt" height="152pt"
 viewBox="0.00 0.00 156.00 152.00" xmlns="http://www.w3.org/2000/svg" xmlns:xlink="http://www.w3.org/1999/xlink">
<g id="graph0" class="graph" transform="scale(1 1) rotate(0) translate(4 148)">
<title>exceptions.InvalidPropertyFileException</title>
<polygon fill="white" stroke="none" points="-4,4 -4,-148 152,-148 152,4 -4,4"/>
<!-- Node1 -->
<g id="node1" class="node"><title>Node1</title>
<polygon fill="#bfbfbf" stroke="black" points="3,-1 3,-31 145,-31 145,-1 3,-1"/>
<text text-anchor="start" x="11" y="-19" font-family="Helvetica,sans-Serif" font-size="10.00">exceptions.InvalidProperty</text>
<text text-anchor="middle" x="74" y="-8" font-family="Helvetica,sans-Serif" font-size="10.00">FileException</text>
</g>
<!-- Node2 -->
<g id="node2" class="node"><title>Node2</title>
<g id="a_node2"><a xlink:href="../../dc/db4/classexceptions_1_1_s_logo_exception.html" target="_top" xlink:title="exceptions.SLogoException">
<polygon fill="white" stroke="black" points="0,-68.5 0,-87.5 148,-87.5 148,-68.5 0,-68.5"/>
<text text-anchor="middle" x="74" y="-75.5" font-family="Helvetica,sans-Serif" font-size="10.00">exceptions.SLogoException</text>
</a>
</g>
</g>
<!-- Node2&#45;&gt;Node1 -->
<g id="edge1" class="edge"><title>Node2&#45;&gt;Node1</title>
<path fill="none" stroke="midnightblue" d="M74,-58.3707C74,-49.5849 74,-39.2721 74,-31.1408"/>
<polygon fill="midnightblue" stroke="midnightblue" points="70.5001,-58.4034 74,-68.4035 77.5001,-58.4035 70.5001,-58.4034"/>
</g>
<!-- Node3 -->
<g id="node3" class="node"><title>Node3</title>
<polygon fill="white" stroke="#bfbfbf" points="23,-124.5 23,-143.5 125,-143.5 125,-124.5 23,-124.5"/>
<text text-anchor="middle" x="74" y="-131.5" font-family="Helvetica,sans-Serif" font-size="10.00">RuntimeException</text>
</g>
<!-- Node3&#45;&gt;Node2 -->
<g id="edge2" class="edge"><title>Node3&#45;&gt;Node2</title>
<path fill="none" stroke="midnightblue" d="M74,-113.805C74,-104.91 74,-94.7798 74,-87.7511"/>
<polygon fill="midnightblue" stroke="midnightblue" points="70.5001,-114.083 74,-124.083 77.5001,-114.083 70.5001,-114.083"/>
</g>
</g>
</svg>
