<?xml version="1.0" encoding="UTF-8" standalone="no"?>
<!DOCTYPE svg PUBLIC "-//W3C//DTD SVG 1.1//EN"
 "http://www.w3.org/Graphics/SVG/1.1/DTD/svg11.dtd">
<!-- Generated by graphviz version 2.36.0 (20140111.2315)
 -->
<!-- Title: titlePanes.decorators.HScrollableDecorator Pages: 1 -->
<svg width="182pt" height="108pt"
 viewBox="0.00 0.00 182.00 108.00" xmlns="http://www.w3.org/2000/svg" xmlns:xlink="http://www.w3.org/1999/xlink">
<g id="graph0" class="graph" transform="scale(1 1) rotate(0) translate(4 104)">
<title>titlePanes.decorators.HScrollableDecorator</title>
<polygon fill="white" stroke="none" points="-4,4 -4,-104 178,-104 178,4 -4,4"/>
<!-- Node1 -->
<g id="node1" class="node"><title>Node1</title>
<polygon fill="#bfbfbf" stroke="black" points="-0.5,-1 -0.5,-31 174.5,-31 174.5,-1 -0.5,-1"/>
<text text-anchor="start" x="7.5" y="-19" font-family="Helvetica,sans-Serif" font-size="10.00">titlePanes.decorators.HScrollable</text>
<text text-anchor="middle" x="87" y="-8" font-family="Helvetica,sans-Serif" font-size="10.00">Decorator</text>
</g>
<!-- Node2 -->
<g id="node2" class="node"><title>Node2</title>
<g id="a_node2"><a xlink:href="../../d9/d1e/classtitle_panes_1_1decorators_1_1_title_pane_decorator.html" target="_top" xlink:title="titlePanes.decorators.Title\lPaneDecorator">
<polygon fill="white" stroke="black" points="17,-69 17,-99 157,-99 157,-69 17,-69"/>
<text text-anchor="start" x="25" y="-87" font-family="Helvetica,sans-Serif" font-size="10.00">titlePanes.decorators.Title</text>
<text text-anchor="middle" x="87" y="-76" font-family="Helvetica,sans-Serif" font-size="10.00">PaneDecorator</text>
</a>
</g>
</g>
<!-- Node2&#45;&gt;Node1 -->
<g id="edge1" class="edge"><title>Node2&#45;&gt;Node1</title>
<path fill="none" stroke="midnightblue" d="M87,-58.5322C87,-49.3606 87,-39.2449 87,-31.2931"/>
<polygon fill="midnightblue" stroke="midnightblue" points="83.5001,-58.6789 87,-68.679 90.5001,-58.679 83.5001,-58.6789"/>
</g>
</g>
</svg>
