<?xml version="1.0" encoding="UTF-8" standalone="no"?>
<!DOCTYPE svg PUBLIC "-//W3C//DTD SVG 1.1//EN"
 "http://www.w3.org/Graphics/SVG/1.1/DTD/svg11.dtd">
<!-- Generated by graphviz version 2.36.0 (20140111.2315)
 -->
<!-- Title: drawer.Drawer.makeLine Pages: 1 -->
<svg width="940pt" height="87pt"
 viewBox="0.00 0.00 940.00 87.00" xmlns="http://www.w3.org/2000/svg" xmlns:xlink="http://www.w3.org/1999/xlink">
<g id="graph0" class="graph" transform="scale(1 1) rotate(0) translate(4 83)">
<title>drawer.Drawer.makeLine</title>
<polygon fill="white" stroke="none" points="-4,4 -4,-83 936,-83 936,4 -4,4"/>
<!-- Node1 -->
<g id="node1" class="node"><title>Node1</title>
<polygon fill="#bfbfbf" stroke="black" points="0,-29.5 0,-48.5 134,-48.5 134,-29.5 0,-29.5"/>
<text text-anchor="middle" x="67" y="-36.5" font-family="Helvetica,sans-Serif" font-size="10.00">drawer.Drawer.makeLine</text>
</g>
<!-- Node2 -->
<g id="node2" class="node"><title>Node2</title>
<g id="a_node2"><a xlink:href="../../dc/dcd/classfront_end_1_1_turtle_view.html#aee80ac929368e182c39dbd93e9ce6e9b" target="_top" xlink:title="frontEnd.TurtleView.drawLine">
<polygon fill="white" stroke="black" points="170,-29.5 170,-48.5 322,-48.5 322,-29.5 170,-29.5"/>
<text text-anchor="middle" x="246" y="-36.5" font-family="Helvetica,sans-Serif" font-size="10.00">frontEnd.TurtleView.drawLine</text>
</a>
</g>
</g>
<!-- Node1&#45;&gt;Node2 -->
<g id="edge1" class="edge"><title>Node1&#45;&gt;Node2</title>
<path fill="none" stroke="midnightblue" d="M144.411,-39C152.894,-39 161.527,-39 169.993,-39"/>
<polygon fill="midnightblue" stroke="midnightblue" points="144.16,-35.5001 134.16,-39 144.16,-42.5001 144.16,-35.5001"/>
</g>
<!-- Node3 -->
<g id="node3" class="node"><title>Node3</title>
<g id="a_node3"><a xlink:href="../../dc/dcd/classfront_end_1_1_turtle_view.html#a4bf2e008a42ea6ee574a53fe3f137425" target="_top" xlink:title="frontEnd.TurtleView.addYPosition\lListener">
<polygon fill="white" stroke="black" points="359,-49 359,-79 529,-79 529,-49 359,-49"/>
<text text-anchor="start" x="367" y="-67" font-family="Helvetica,sans-Serif" font-size="10.00">frontEnd.TurtleView.addYPosition</text>
<text text-anchor="middle" x="444" y="-56" font-family="Helvetica,sans-Serif" font-size="10.00">Listener</text>
</a>
</g>
</g>
<!-- Node2&#45;&gt;Node3 -->
<g id="edge2" class="edge"><title>Node2&#45;&gt;Node3</title>
<path fill="none" stroke="midnightblue" d="M331.695,-49.8029C340.655,-50.9458 349.767,-52.1081 358.723,-53.2504"/>
<polygon fill="midnightblue" stroke="midnightblue" points="332.021,-46.3162 321.658,-48.5227 331.135,-53.26 332.021,-46.3162"/>
</g>
<!-- Node6 -->
<g id="node6" class="node"><title>Node6</title>
<g id="a_node6"><a xlink:href="../../dc/dcd/classfront_end_1_1_turtle_view.html#a9337ced43a44df7b4ee7352a0f812746" target="_top" xlink:title="frontEnd.TurtleView.addXPosition\lListener">
<polygon fill="white" stroke="black" points="358.5,-0 358.5,-30 529.5,-30 529.5,-0 358.5,-0"/>
<text text-anchor="start" x="366.5" y="-18" font-family="Helvetica,sans-Serif" font-size="10.00">frontEnd.TurtleView.addXPosition</text>
<text text-anchor="middle" x="444" y="-7" font-family="Helvetica,sans-Serif" font-size="10.00">Listener</text>
</a>
</g>
</g>
<!-- Node2&#45;&gt;Node6 -->
<g id="edge5" class="edge"><title>Node2&#45;&gt;Node6</title>
<path fill="none" stroke="midnightblue" d="M332.24,-28.5624C340.844,-27.5089 349.581,-26.439 358.18,-25.3861"/>
<polygon fill="midnightblue" stroke="midnightblue" points="331.719,-25.1001 322.218,-29.7896 332.569,-32.0482 331.719,-25.1001"/>
</g>
<!-- Node4 -->
<g id="node4" class="node"><title>Node4</title>
<g id="a_node4"><a xlink:href="../../dc/dcd/classfront_end_1_1_turtle_view.html#a8a128529e6c726fb58825bfa0794b239" target="_top" xlink:title="frontEnd.TurtleView.addListeners">
<polygon fill="white" stroke="black" points="566.5,-29.5 566.5,-48.5 737.5,-48.5 737.5,-29.5 566.5,-29.5"/>
<text text-anchor="middle" x="652" y="-36.5" font-family="Helvetica,sans-Serif" font-size="10.00">frontEnd.TurtleView.addListeners</text>
</a>
</g>
</g>
<!-- Node3&#45;&gt;Node4 -->
<g id="edge3" class="edge"><title>Node3&#45;&gt;Node4</title>
<path fill="none" stroke="midnightblue" d="M539.245,-52.5625C550.366,-51.2129 561.624,-49.8466 572.495,-48.5273"/>
<polygon fill="midnightblue" stroke="midnightblue" points="538.591,-49.1161 529.085,-53.7955 539.434,-56.0652 538.591,-49.1161"/>
</g>
<!-- Node5 -->
<g id="node5" class="node"><title>Node5</title>
<g id="a_node5"><a xlink:href="../../dc/dcd/classfront_end_1_1_turtle_view.html#a68db2241e0b2e23e1894492f87975e1b" target="_top" xlink:title="frontEnd.TurtleView.TurtleView">
<polygon fill="white" stroke="black" points="774.5,-29.5 774.5,-48.5 931.5,-48.5 931.5,-29.5 774.5,-29.5"/>
<text text-anchor="middle" x="853" y="-36.5" font-family="Helvetica,sans-Serif" font-size="10.00">frontEnd.TurtleView.TurtleView</text>
</a>
</g>
</g>
<!-- Node4&#45;&gt;Node5 -->
<g id="edge4" class="edge"><title>Node4&#45;&gt;Node5</title>
<path fill="none" stroke="midnightblue" d="M747.714,-39C756.633,-39 765.603,-39 774.336,-39"/>
<polygon fill="midnightblue" stroke="midnightblue" points="747.683,-35.5001 737.682,-39 747.682,-42.5001 747.683,-35.5001"/>
</g>
<!-- Node6&#45;&gt;Node4 -->
<g id="edge6" class="edge"><title>Node6&#45;&gt;Node4</title>
<path fill="none" stroke="midnightblue" d="M539.874,-26.0533C549.705,-27.1987 559.636,-28.3557 569.305,-29.4821"/>
<polygon fill="midnightblue" stroke="midnightblue" points="540.018,-22.5464 529.68,-24.8656 539.208,-29.4994 540.018,-22.5464"/>
</g>
</g>
</svg>
