<?xml version="1.0" encoding="UTF-8" standalone="no"?>
<!DOCTYPE svg PUBLIC "-//W3C//DTD SVG 1.1//EN"
 "http://www.w3.org/Graphics/SVG/1.1/DTD/svg11.dtd">
<!-- Generated by graphviz version 2.36.0 (20140111.2315)
 -->
<!-- Title: commands.onechild.NotCommand Pages: 1 -->
<svg width="192pt" height="152pt"
 viewBox="0.00 0.00 192.00 152.00" xmlns="http://www.w3.org/2000/svg" xmlns:xlink="http://www.w3.org/1999/xlink">
<g id="graph0" class="graph" transform="scale(1 1) rotate(0) translate(4 148)">
<title>commands.onechild.NotCommand</title>
<polygon fill="white" stroke="none" points="-4,4 -4,-148 188,-148 188,4 -4,4"/>
<!-- Node1 -->
<g id="node1" class="node"><title>Node1</title>
<polygon fill="#bfbfbf" stroke="black" points="0,-0.5 0,-19.5 184,-19.5 184,-0.5 0,-0.5"/>
<text text-anchor="middle" x="92" y="-7.5" font-family="Helvetica,sans-Serif" font-size="10.00">commands.onechild.NotCommand</text>
</g>
<!-- Node2 -->
<g id="node2" class="node"><title>Node2</title>
<g id="a_node2"><a xlink:href="../../dc/d65/classcommands_1_1templates_1_1_one_child_command.html" target="_top" xlink:title="commands.templates.OneChild\lCommand">
<polygon fill="white" stroke="black" points="8,-57 8,-87 176,-87 176,-57 8,-57"/>
<text text-anchor="start" x="16" y="-75" font-family="Helvetica,sans-Serif" font-size="10.00">commands.templates.OneChild</text>
<text text-anchor="middle" x="92" y="-64" font-family="Helvetica,sans-Serif" font-size="10.00">Command</text>
</a>
</g>
</g>
<!-- Node2&#45;&gt;Node1 -->
<g id="edge1" class="edge"><title>Node2&#45;&gt;Node1</title>
<path fill="none" stroke="midnightblue" d="M92,-46.5858C92,-37.0743 92,-26.7864 92,-19.7305"/>
<polygon fill="midnightblue" stroke="midnightblue" points="88.5001,-46.7808 92,-56.7808 95.5001,-46.7809 88.5001,-46.7808"/>
</g>
<!-- Node3 -->
<g id="node3" class="node"><title>Node3</title>
<g id="a_node3"><a xlink:href="../../d5/d62/classcommands_1_1templates_1_1_command.html" target="_top" xlink:title="commands.templates.Command">
<polygon fill="white" stroke="black" points="4,-124.5 4,-143.5 180,-143.5 180,-124.5 4,-124.5"/>
<text text-anchor="middle" x="92" y="-131.5" font-family="Helvetica,sans-Serif" font-size="10.00">commands.templates.Command</text>
</a>
</g>
</g>
<!-- Node3&#45;&gt;Node2 -->
<g id="edge2" class="edge"><title>Node3&#45;&gt;Node2</title>
<path fill="none" stroke="midnightblue" d="M92,-114.371C92,-105.585 92,-95.2721 92,-87.1408"/>
<polygon fill="midnightblue" stroke="midnightblue" points="88.5001,-114.403 92,-124.403 95.5001,-114.403 88.5001,-114.403"/>
</g>
</g>
</svg>
