<?xml version="1.0" encoding="UTF-8" standalone="no"?>
<!DOCTYPE svg PUBLIC "-//W3C//DTD SVG 1.1//EN"
 "http://www.w3.org/Graphics/SVG/1.1/DTD/svg11.dtd">
<!-- Generated by graphviz version 2.36.0 (20140111.2315)
 -->
<!-- Title: commands.variable_commands.CommandsList.getNumChildren Pages: 1 -->
<svg width="638pt" height="185pt"
 viewBox="0.00 0.00 638.00 185.00" xmlns="http://www.w3.org/2000/svg" xmlns:xlink="http://www.w3.org/1999/xlink">
<g id="graph0" class="graph" transform="scale(1 1) rotate(0) translate(4 181)">
<title>commands.variable_commands.CommandsList.getNumChildren</title>
<polygon fill="white" stroke="none" points="-4,4 -4,-181 634,-181 634,4 -4,4"/>
<!-- Node1 -->
<g id="node1" class="node"><title>Node1</title>
<polygon fill="#bfbfbf" stroke="black" points="0.5,-73 0.5,-103 173.5,-103 173.5,-73 0.5,-73"/>
<text text-anchor="start" x="8.5" y="-91" font-family="Helvetica,sans-Serif" font-size="10.00">commands.variable_commands.</text>
<text text-anchor="middle" x="87" y="-80" font-family="Helvetica,sans-Serif" font-size="10.00">CommandsList.getNumChildren</text>
</g>
<!-- Node2 -->
<g id="node2" class="node"><title>Node2</title>
<g id="a_node2"><a xlink:href="../../d1/d00/classcommands_1_1turtle__commands_1_1_tell_command.html#a5b187b4609637fee3e88d2a51681db1a" target="_top" xlink:title="commands.turtle_commands.\lTellCommand.execute">
<polygon fill="white" stroke="black" points="240.5,-147 240.5,-177 401.5,-177 401.5,-147 240.5,-147"/>
<text text-anchor="start" x="248.5" y="-165" font-family="Helvetica,sans-Serif" font-size="10.00">commands.turtle_commands.</text>
<text text-anchor="middle" x="321" y="-154" font-family="Helvetica,sans-Serif" font-size="10.00">TellCommand.execute</text>
</a>
</g>
</g>
<!-- Node1&#45;&gt;Node2 -->
<g id="edge1" class="edge"><title>Node1&#45;&gt;Node2</title>
<path fill="none" stroke="midnightblue" d="M130.599,-107.042C153.76,-116.9 183.096,-128.598 210,-137 221.684,-140.649 234.219,-144.006 246.494,-146.997"/>
<polygon fill="midnightblue" stroke="midnightblue" points="131.969,-103.821 121.4,-103.085 129.203,-110.251 131.969,-103.821"/>
</g>
<!-- Node3 -->
<g id="node3" class="node"><title>Node3</title>
<g id="a_node3"><a xlink:href="../../d5/def/classcommands_1_1variable__commands_1_1_user_input_command.html#aa2fac1d96d80357ca5120984ecba8d0a" target="_top" xlink:title="commands.variable_commands.\lUserInputCommand.execute">
<polygon fill="white" stroke="black" points="234.5,-98 234.5,-128 407.5,-128 407.5,-98 234.5,-98"/>
<text text-anchor="start" x="242.5" y="-116" font-family="Helvetica,sans-Serif" font-size="10.00">commands.variable_commands.</text>
<text text-anchor="middle" x="321" y="-105" font-family="Helvetica,sans-Serif" font-size="10.00">UserInputCommand.execute</text>
</a>
</g>
</g>
<!-- Node1&#45;&gt;Node3 -->
<g id="edge2" class="edge"><title>Node1&#45;&gt;Node3</title>
<path fill="none" stroke="midnightblue" d="M184.011,-98.346C200.662,-100.14 217.88,-101.996 234.236,-103.758"/>
<polygon fill="midnightblue" stroke="midnightblue" points="184.047,-94.8297 173.729,-97.238 183.297,-101.789 184.047,-94.8297"/>
</g>
<!-- Node4 -->
<g id="node4" class="node"><title>Node4</title>
<g id="a_node4"><a xlink:href="../../d0/d5e/classcommands_1_1turtle__commands_1_1_ask_with_command.html#a9d7784db4421d7b4b7fcf19d8c70f415" target="_top" xlink:title="commands.turtle_commands.\lAskWithCommand.executeTurtleCommand">
<polygon fill="white" stroke="black" points="210.5,-49 210.5,-79 431.5,-79 431.5,-49 210.5,-49"/>
<text text-anchor="start" x="218.5" y="-67" font-family="Helvetica,sans-Serif" font-size="10.00">commands.turtle_commands.</text>
<text text-anchor="middle" x="321" y="-56" font-family="Helvetica,sans-Serif" font-size="10.00">AskWithCommand.executeTurtleCommand</text>
</a>
</g>
</g>
<!-- Node1&#45;&gt;Node4 -->
<g id="edge3" class="edge"><title>Node1&#45;&gt;Node4</title>
<path fill="none" stroke="midnightblue" d="M183.845,-78.085C192.533,-77.1863 201.377,-76.2714 210.173,-75.3614"/>
<polygon fill="midnightblue" stroke="midnightblue" points="183.316,-74.621 173.729,-79.1315 184.036,-81.5838 183.316,-74.621"/>
</g>
<!-- Node6 -->
<g id="node6" class="node"><title>Node6</title>
<g id="a_node6"><a xlink:href="../../da/d20/classcommands_1_1turtle__commands_1_1_ask_command.html#aad8e3c73b091789febe536557fc8bd7d" target="_top" xlink:title="commands.turtle_commands.\lAskCommand.executeTurtleCommand">
<polygon fill="white" stroke="black" points="220.5,-0 220.5,-30 421.5,-30 421.5,-0 220.5,-0"/>
<text text-anchor="start" x="228.5" y="-18" font-family="Helvetica,sans-Serif" font-size="10.00">commands.turtle_commands.</text>
<text text-anchor="middle" x="321" y="-7" font-family="Helvetica,sans-Serif" font-size="10.00">AskCommand.executeTurtleCommand</text>
</a>
</g>
</g>
<!-- Node1&#45;&gt;Node6 -->
<g id="edge5" class="edge"><title>Node1&#45;&gt;Node6</title>
<path fill="none" stroke="midnightblue" d="M131.688,-68.9522C154.691,-59.3994 183.547,-48.1586 210,-40 221.79,-36.3638 234.439,-33.0032 246.81,-30.0028"/>
<polygon fill="midnightblue" stroke="midnightblue" points="130.078,-65.832 122.211,-72.929 132.787,-72.2866 130.078,-65.832"/>
</g>
<!-- Node5 -->
<g id="node5" class="node"><title>Node5</title>
<g id="a_node5"><a xlink:href="../../d0/d5e/classcommands_1_1turtle__commands_1_1_ask_with_command.html#aed74c73cf16407cb097ecbcbd0110ecb" target="_top" xlink:title="commands.turtle_commands.\lAskWithCommand.execute">
<polygon fill="white" stroke="black" points="468.5,-49 468.5,-79 629.5,-79 629.5,-49 468.5,-49"/>
<text text-anchor="start" x="476.5" y="-67" font-family="Helvetica,sans-Serif" font-size="10.00">commands.turtle_commands.</text>
<text text-anchor="middle" x="549" y="-56" font-family="Helvetica,sans-Serif" font-size="10.00">AskWithCommand.execute</text>
</a>
</g>
</g>
<!-- Node4&#45;&gt;Node5 -->
<g id="edge4" class="edge"><title>Node4&#45;&gt;Node5</title>
<path fill="none" stroke="midnightblue" d="M441.838,-64C450.815,-64 459.734,-64 468.368,-64"/>
<polygon fill="midnightblue" stroke="midnightblue" points="441.69,-60.5001 431.69,-64 441.69,-67.5001 441.69,-60.5001"/>
</g>
<!-- Node7 -->
<g id="node7" class="node"><title>Node7</title>
<g id="a_node7"><a xlink:href="../../da/d20/classcommands_1_1turtle__commands_1_1_ask_command.html#a9f668e7b2778cf4241b59b11db58e211" target="_top" xlink:title="commands.turtle_commands.\lAskCommand.execute">
<polygon fill="white" stroke="black" points="468.5,-0 468.5,-30 629.5,-30 629.5,-0 468.5,-0"/>
<text text-anchor="start" x="476.5" y="-18" font-family="Helvetica,sans-Serif" font-size="10.00">commands.turtle_commands.</text>
<text text-anchor="middle" x="549" y="-7" font-family="Helvetica,sans-Serif" font-size="10.00">AskCommand.execute</text>
</a>
</g>
</g>
<!-- Node6&#45;&gt;Node7 -->
<g id="edge6" class="edge"><title>Node6&#45;&gt;Node7</title>
<path fill="none" stroke="midnightblue" d="M432.064,-15C444.33,-15 456.641,-15 468.42,-15"/>
<polygon fill="midnightblue" stroke="midnightblue" points="431.785,-11.5001 421.785,-15 431.785,-18.5001 431.785,-11.5001"/>
</g>
</g>
</svg>
