<?xml version="1.0" encoding="UTF-8" standalone="no"?>
<!DOCTYPE svg PUBLIC "-//W3C//DTD SVG 1.1//EN"
 "http://www.w3.org/Graphics/SVG/1.1/DTD/svg11.dtd">
<!-- Generated by graphviz version 2.36.0 (20140111.2315)
 -->
<!-- Title: commands.variable_commands.CommandsList.getChild Pages: 1 -->
<!--zoomable 234 -->
<svg id="main" version="1.1" xmlns="http://www.w3.org/2000/svg" xmlns:xlink="http://www.w3.org/1999/xlink" xml:space="preserve" onload="init(evt)">
<style type="text/css"><![CDATA[
.edge:hover path { stroke: red; }
.edge:hover polygon { stroke: red; fill: red; }
]]></style>
<script type="text/javascript"><![CDATA[
var edges = document.getElementsByTagName('g');
if (edges && edges.length) {
  for (var i=0;i<edges.length;i++) {
    if (edges[i].id.substr(0,4)=='edge') {
      edges[i].setAttribute('class','edge');
    }
  }
}
]]></script>
        <defs>
                <circle id="rim" cx="0" cy="0" r="7"/>
                <circle id="rim2" cx="0" cy="0" r="3.5"/>
                <g id="zoomPlus">
                        <use xlink:href="#rim" fill="#404040">
                                <set attributeName="fill" to="#808080" begin="zoomplus.mouseover" end="zoomplus.mouseout"/>
                        </use>
                        <path d="M-4,0h8M0,-4v8" fill="none" stroke="white" stroke-width="1.5" pointer-events="none"/>
                </g>
                <g id="zoomMin">
                        <use xlink:href="#rim" fill="#404040">
                                <set attributeName="fill" to="#808080" begin="zoomminus.mouseover" end="zoomminus.mouseout"/>
                        </use>
                        <path d="M-4,0h8" fill="none" stroke="white" stroke-width="1.5" pointer-events="none"/>
                </g>
                <g id="dirArrow">
                        <path fill="none" stroke="white" stroke-width="1.5" d="M0,-3.0v7 M-2.5,-0.5L0,-3.0L2.5,-0.5"/>
                </g>
               <g id="resetDef">
                       <use xlink:href="#rim2" fill="#404040">
                               <set attributeName="fill" to="#808080" begin="reset.mouseover" end="reset.mouseout"/>
                       </use>
               </g>
        </defs>

<script type="text/javascript">
var viewWidth = 650;
var viewHeight = 234;
var sectionId = 'dynsection-4';
</script>
<script xlink:href="../../svgpan.js"/>
<svg id="graph" class="graph">
<g id="viewport">
<title>commands.variable_commands.CommandsList.getChild</title>
<polygon fill="white" stroke="none" points="-4,4 -4,-230 646,-230 646,4 -4,4"/>
<!-- Node1 -->
<g id="node1" class="node"><title>Node1</title>
<polygon fill="#bfbfbf" stroke="black" points="0.5,-98 0.5,-128 173.5,-128 173.5,-98 0.5,-98"/>
<text text-anchor="start" x="8.5" y="-116" font-family="Helvetica,sans-Serif" font-size="10.00">commands.variable_commands.</text>
<text text-anchor="middle" x="87" y="-105" font-family="Helvetica,sans-Serif" font-size="10.00">CommandsList.getChild</text>
</g>
<!-- Node2 -->
<g id="node2" class="node"><title>Node2</title>
<g id="a_node2"><a xlink:href="../../d1/d00/classcommands_1_1turtle__commands_1_1_tell_command.html#a5b187b4609637fee3e88d2a51681db1a" target="_top" xlink:title="commands.turtle_commands.\lTellCommand.execute">
<polygon fill="white" stroke="black" points="240.5,-196 240.5,-226 401.5,-226 401.5,-196 240.5,-196"/>
<text text-anchor="start" x="248.5" y="-214" font-family="Helvetica,sans-Serif" font-size="10.00">commands.turtle_commands.</text>
<text text-anchor="middle" x="321" y="-203" font-family="Helvetica,sans-Serif" font-size="10.00">TellCommand.execute</text>
</a>
</g>
</g>
<!-- Node1&#45;&gt;Node2 -->
<g id="edge1" class="edge"><title>Node1&#45;&gt;Node2</title>
<path fill="none" stroke="midnightblue" d="M116.791,-133.808C140.691,-150.177 176.13,-172.419 210,-186 219.634,-189.863 229.994,-193.198 240.366,-196.058"/>
<polygon fill="midnightblue" stroke="midnightblue" points="118.742,-130.901 108.533,-128.069 114.748,-136.65 118.742,-130.901"/>
</g>
<!-- Node3 -->
<g id="node3" class="node"><title>Node3</title>
<g id="a_node3"><a xlink:href="../../d5/def/classcommands_1_1variable__commands_1_1_user_input_command.html#aa2fac1d96d80357ca5120984ecba8d0a" target="_top" xlink:title="commands.variable_commands.\lUserInputCommand.execute">
<polygon fill="white" stroke="black" points="234.5,-147 234.5,-177 407.5,-177 407.5,-147 234.5,-147"/>
<text text-anchor="start" x="242.5" y="-165" font-family="Helvetica,sans-Serif" font-size="10.00">commands.variable_commands.</text>
<text text-anchor="middle" x="321" y="-154" font-family="Helvetica,sans-Serif" font-size="10.00">UserInputCommand.execute</text>
</a>
</g>
</g>
<!-- Node1&#45;&gt;Node3 -->
<g id="edge2" class="edge"><title>Node1&#45;&gt;Node3</title>
<path fill="none" stroke="midnightblue" d="M169.023,-130.113C195.058,-135.611 223.687,-141.658 248.95,-146.994"/>
<polygon fill="midnightblue" stroke="midnightblue" points="169.692,-126.677 159.184,-128.035 168.245,-133.526 169.692,-126.677"/>
</g>
<!-- Node4 -->
<g id="node4" class="node"><title>Node4</title>
<g id="a_node4"><a xlink:href="../../d0/d5e/classcommands_1_1turtle__commands_1_1_ask_with_command.html#a9d7784db4421d7b4b7fcf19d8c70f415" target="_top" xlink:title="commands.turtle_commands.\lAskWithCommand.executeTurtleCommand">
<polygon fill="white" stroke="black" points="210.5,-98 210.5,-128 431.5,-128 431.5,-98 210.5,-98"/>
<text text-anchor="start" x="218.5" y="-116" font-family="Helvetica,sans-Serif" font-size="10.00">commands.turtle_commands.</text>
<text text-anchor="middle" x="321" y="-105" font-family="Helvetica,sans-Serif" font-size="10.00">AskWithCommand.executeTurtleCommand</text>
</a>
</g>
</g>
<!-- Node1&#45;&gt;Node4 -->
<g id="edge3" class="edge"><title>Node1&#45;&gt;Node4</title>
<path fill="none" stroke="midnightblue" d="M183.845,-113C192.533,-113 201.377,-113 210.173,-113"/>
<polygon fill="midnightblue" stroke="midnightblue" points="183.729,-109.5 173.729,-113 183.729,-116.5 183.729,-109.5"/>
</g>
<!-- Node6 -->
<g id="node6" class="node"><title>Node6</title>
<g id="a_node6"><a xlink:href="../../da/d20/classcommands_1_1turtle__commands_1_1_ask_command.html#aad8e3c73b091789febe536557fc8bd7d" target="_top" xlink:title="commands.turtle_commands.\lAskCommand.executeTurtleCommand">
<polygon fill="white" stroke="black" points="220.5,-49 220.5,-79 421.5,-79 421.5,-49 220.5,-49"/>
<text text-anchor="start" x="228.5" y="-67" font-family="Helvetica,sans-Serif" font-size="10.00">commands.turtle_commands.</text>
<text text-anchor="middle" x="321" y="-56" font-family="Helvetica,sans-Serif" font-size="10.00">AskCommand.executeTurtleCommand</text>
</a>
</g>
</g>
<!-- Node1&#45;&gt;Node6 -->
<g id="edge5" class="edge"><title>Node1&#45;&gt;Node6</title>
<path fill="none" stroke="midnightblue" d="M169.023,-95.8873C195.058,-90.3885 223.687,-84.342 248.95,-79.0062"/>
<polygon fill="midnightblue" stroke="midnightblue" points="168.245,-92.4744 159.184,-97.9654 169.692,-99.3233 168.245,-92.4744"/>
</g>
<!-- Node8 -->
<g id="node8" class="node"><title>Node8</title>
<g id="a_node8"><a xlink:href="../../d4/d35/classcommands_1_1variable__commands_1_1_user_defined_command.html#adda270c7e35b96f9076d7fa24e0d207c" target="_top" xlink:title="commands.variable_commands.\lUserDefinedCommand.mapVariables">
<polygon fill="white" stroke="black" points="224,-0 224,-30 418,-30 418,-0 224,-0"/>
<text text-anchor="start" x="232" y="-18" font-family="Helvetica,sans-Serif" font-size="10.00">commands.variable_commands.</text>
<text text-anchor="middle" x="321" y="-7" font-family="Helvetica,sans-Serif" font-size="10.00">UserDefinedCommand.mapVariables</text>
</a>
</g>
</g>
<!-- Node1&#45;&gt;Node8 -->
<g id="edge7" class="edge"><title>Node1&#45;&gt;Node8</title>
<path fill="none" stroke="midnightblue" d="M116.791,-92.1923C140.691,-75.8229 176.13,-53.5811 210,-40 219.543,-36.1735 229.798,-32.865 240.072,-30.023"/>
<polygon fill="midnightblue" stroke="midnightblue" points="114.748,-89.3502 108.533,-97.9305 118.742,-95.0987 114.748,-89.3502"/>
</g>
<!-- Node5 -->
<g id="node5" class="node"><title>Node5</title>
<g id="a_node5"><a xlink:href="../../d0/d5e/classcommands_1_1turtle__commands_1_1_ask_with_command.html#aed74c73cf16407cb097ecbcbd0110ecb" target="_top" xlink:title="commands.turtle_commands.\lAskWithCommand.execute">
<polygon fill="white" stroke="black" points="474.5,-98 474.5,-128 635.5,-128 635.5,-98 474.5,-98"/>
<text text-anchor="start" x="482.5" y="-116" font-family="Helvetica,sans-Serif" font-size="10.00">commands.turtle_commands.</text>
<text text-anchor="middle" x="555" y="-105" font-family="Helvetica,sans-Serif" font-size="10.00">AskWithCommand.execute</text>
</a>
</g>
</g>
<!-- Node4&#45;&gt;Node5 -->
<g id="edge4" class="edge"><title>Node4&#45;&gt;Node5</title>
<path fill="none" stroke="midnightblue" d="M441.703,-113C452.762,-113 463.776,-113 474.342,-113"/>
<polygon fill="midnightblue" stroke="midnightblue" points="441.546,-109.5 431.546,-113 441.546,-116.5 441.546,-109.5"/>
</g>
<!-- Node7 -->
<g id="node7" class="node"><title>Node7</title>
<g id="a_node7"><a xlink:href="../../da/d20/classcommands_1_1turtle__commands_1_1_ask_command.html#a9f668e7b2778cf4241b59b11db58e211" target="_top" xlink:title="commands.turtle_commands.\lAskCommand.execute">
<polygon fill="white" stroke="black" points="474.5,-49 474.5,-79 635.5,-79 635.5,-49 474.5,-49"/>
<text text-anchor="start" x="482.5" y="-67" font-family="Helvetica,sans-Serif" font-size="10.00">commands.turtle_commands.</text>
<text text-anchor="middle" x="555" y="-56" font-family="Helvetica,sans-Serif" font-size="10.00">AskCommand.execute</text>
</a>
</g>
</g>
<!-- Node6&#45;&gt;Node7 -->
<g id="edge6" class="edge"><title>Node6&#45;&gt;Node7</title>
<path fill="none" stroke="midnightblue" d="M432.071,-64C446.312,-64 460.672,-64 474.291,-64"/>
<polygon fill="midnightblue" stroke="midnightblue" points="431.735,-60.5001 421.735,-64 431.735,-67.5001 431.735,-60.5001"/>
</g>
<!-- Node9 -->
<g id="node9" class="node"><title>Node9</title>
<g id="a_node9"><a xlink:href="../../d4/d35/classcommands_1_1variable__commands_1_1_user_defined_command.html#a4e7e699bc6b996e652d21c012c2106aa" target="_top" xlink:title="commands.variable_commands.\lUserDefinedCommand.execute">
<polygon fill="white" stroke="black" points="468.5,-0 468.5,-30 641.5,-30 641.5,-0 468.5,-0"/>
<text text-anchor="start" x="476.5" y="-18" font-family="Helvetica,sans-Serif" font-size="10.00">commands.variable_commands.</text>
<text text-anchor="middle" x="555" y="-7" font-family="Helvetica,sans-Serif" font-size="10.00">UserDefinedCommand.execute</text>
</a>
</g>
</g>
<!-- Node8&#45;&gt;Node9 -->
<g id="edge8" class="edge"><title>Node8&#45;&gt;Node9</title>
<path fill="none" stroke="midnightblue" d="M428.275,-15C441.723,-15 455.347,-15 468.416,-15"/>
<polygon fill="midnightblue" stroke="midnightblue" points="428.038,-11.5001 418.038,-15 428.038,-18.5001 428.038,-11.5001"/>
</g>
</g>
</svg>
        <g id="navigator" transform="translate(0 0)" fill="#404254">
                <rect fill="#f2f5e9" fill-opacity="0.5" stroke="#606060" stroke-width=".5" x="0" y="0" width="60" height="60"/>
                <use id="zoomplus" xlink:href="#zoomPlus" x="17" y="9" onmousedown="handleZoom(evt,'in')"/>
                <use id="zoomminus" xlink:href="#zoomMin" x="42" y="9" onmousedown="handleZoom(evt,'out')"/>
                <use id="reset" xlink:href="#resetDef" x="30" y="36" onmousedown="handleReset()"/>
                <g id="arrowUp" xlink:href="#dirArrow" transform="translate(30 24)" onmousedown="handlePan(0,-1)">
                  <use xlink:href="#rim" fill="#404040">
                        <set attributeName="fill" to="#808080" begin="arrowUp.mouseover" end="arrowUp.mouseout"/>
                  </use>
                  <path fill="none" stroke="white" stroke-width="1.5" d="M0,-3.0v7 M-2.5,-0.5L0,-3.0L2.5,-0.5"/>
                </g>
                <g id="arrowRight" xlink:href="#dirArrow" transform="rotate(90) translate(36 -43)" onmousedown="handlePan(1,0)">
                  <use xlink:href="#rim" fill="#404040">
                        <set attributeName="fill" to="#808080" begin="arrowRight.mouseover" end="arrowRight.mouseout"/>
                  </use>
                  <path fill="none" stroke="white" stroke-width="1.5" d="M0,-3.0v7 M-2.5,-0.5L0,-3.0L2.5,-0.5"/>
                </g>
                <g id="arrowDown" xlink:href="#dirArrow" transform="rotate(180) translate(-30 -48)" onmousedown="handlePan(0,1)">
                  <use xlink:href="#rim" fill="#404040">
                        <set attributeName="fill" to="#808080" begin="arrowDown.mouseover" end="arrowDown.mouseout"/>
                  </use>
                  <path fill="none" stroke="white" stroke-width="1.5" d="M0,-3.0v7 M-2.5,-0.5L0,-3.0L2.5,-0.5"/>
                </g>
                <g id="arrowLeft" xlink:href="#dirArrow" transform="rotate(270) translate(-36 17)" onmousedown="handlePan(-1,0)">
                  <use xlink:href="#rim" fill="#404040">
                        <set attributeName="fill" to="#808080" begin="arrowLeft.mouseover" end="arrowLeft.mouseout"/>
                  </use>
                  <path fill="none" stroke="white" stroke-width="1.5" d="M0,-3.0v7 M-2.5,-0.5L0,-3.0L2.5,-0.5"/>
                </g>
        </g>
        <svg viewBox="0 0 15 15" width="100%" height="30px" preserveAspectRatio="xMaxYMin meet">
         <g id="arrow_out" transform="scale(0.3 0.3)">
          <a xlink:href="classcommands_1_1variable__commands_1_1_commands_list_a2877ac28fd223b0b67a32d3ed653cf5b_icgraph_org.svg" target="_base">
           <rect id="button" ry="5" rx="5" y="6" x="6" height="38" width="38"
                fill="#f2f5e9" fill-opacity="0.5" stroke="#606060" stroke-width="1.0"/>
           <path id="arrow"
             d="M 11.500037,31.436501 C 11.940474,20.09759 22.043105,11.32322 32.158766,21.979434 L 37.068811,17.246167 C 37.068811,17.246167 37.088388,32 37.088388,32 L 22.160133,31.978069 C 22.160133,31.978069 26.997745,27.140456 26.997745,27.140456 C 18.528582,18.264221 13.291696,25.230495 11.500037,31.436501 z"
             style="fill:#404040;"/>
          </a>
         </g>
        </svg>
</svg>
