<?xml version="1.0" encoding="UTF-8" standalone="no"?>
<!DOCTYPE svg PUBLIC "-//W3C//DTD SVG 1.1//EN"
 "http://www.w3.org/Graphics/SVG/1.1/DTD/svg11.dtd">
<!-- Generated by graphviz version 2.36.0 (20140111.2315)
 -->
<!-- Title: titlePanes.VariableTitlePane Pages: 1 -->
<svg width="355pt" height="96pt"
 viewBox="0.00 0.00 355.00 96.00" xmlns="http://www.w3.org/2000/svg" xmlns:xlink="http://www.w3.org/1999/xlink">
<g id="graph0" class="graph" transform="scale(1 1) rotate(0) translate(4 92)">
<title>titlePanes.VariableTitlePane</title>
<polygon fill="white" stroke="none" points="-4,4 -4,-92 351,-92 351,4 -4,4"/>
<!-- Node1 -->
<g id="node1" class="node"><title>Node1</title>
<polygon fill="#bfbfbf" stroke="black" points="79.5,-0.5 79.5,-19.5 226.5,-19.5 226.5,-0.5 79.5,-0.5"/>
<text text-anchor="middle" x="153" y="-7.5" font-family="Helvetica,sans-Serif" font-size="10.00">titlePanes.VariableTitlePane</text>
</g>
<!-- Node2 -->
<g id="node2" class="node"><title>Node2</title>
<polygon fill="white" stroke="#bfbfbf" points="-0.5,-68.5 -0.5,-87.5 64.5,-87.5 64.5,-68.5 -0.5,-68.5"/>
<text text-anchor="middle" x="32" y="-75.5" font-family="Helvetica,sans-Serif" font-size="10.00">TitledPane</text>
</g>
<!-- Node2&#45;&gt;Node1 -->
<g id="edge1" class="edge"><title>Node2&#45;&gt;Node1</title>
<path fill="none" stroke="midnightblue" d="M56.7228,-63.5149C80.8093,-50.3767 116.703,-30.7981 137.177,-19.6305"/>
<polygon fill="midnightblue" stroke="midnightblue" points="54.9216,-60.5104 47.8186,-68.3717 58.2736,-66.6557 54.9216,-60.5104"/>
</g>
<!-- Node3 -->
<g id="node3" class="node"><title>Node3</title>
<polygon fill="white" stroke="#bfbfbf" points="82.5,-68.5 82.5,-87.5 123.5,-87.5 123.5,-68.5 82.5,-68.5"/>
<text text-anchor="middle" x="103" y="-75.5" font-family="Helvetica,sans-Serif" font-size="10.00">VBox</text>
</g>
<!-- Node3&#45;&gt;Node1 -->
<g id="edge2" class="edge"><title>Node3&#45;&gt;Node1</title>
<path fill="none" stroke="#9a32cd" stroke-dasharray="5,2" d="M115.644,-60.3101C125.391,-47.4437 138.486,-30.1583 146.302,-19.8411"/>
<polygon fill="#9a32cd" stroke="#9a32cd" points="112.785,-58.2872 109.537,-68.3717 118.365,-62.5142 112.785,-58.2872"/>
<text text-anchor="middle" x="153" y="-41.5" font-family="Helvetica,sans-Serif" font-size="10.00"> myRoot</text>
</g>
<!-- Node4 -->
<g id="node4" class="node"><title>Node4</title>
<polygon fill="white" stroke="#bfbfbf" points="142,-68.5 142,-87.5 264,-87.5 264,-68.5 142,-68.5"/>
<text text-anchor="middle" x="203" y="-75.5" font-family="Helvetica,sans-Serif" font-size="10.00">Map&lt; String, String &gt;</text>
</g>
<!-- Node4&#45;&gt;Node1 -->
<g id="edge3" class="edge"><title>Node4&#45;&gt;Node1</title>
<path fill="none" stroke="#9a32cd" stroke-dasharray="5,2" d="M192.268,-59.7977C187.76,-52.8741 182.332,-44.909 177,-38 172.095,-31.645 166.095,-24.895 161.321,-19.7338"/>
<polygon fill="#9a32cd" stroke="#9a32cd" points="189.422,-61.8449 197.748,-68.3966 195.325,-58.0826 189.422,-61.8449"/>
<text text-anchor="middle" x="213.5" y="-41.5" font-family="Helvetica,sans-Serif" font-size="10.00"> myVarMap</text>
</g>
<!-- Node5 -->
<g id="node5" class="node"><title>Node5</title>
<polygon fill="white" stroke="#bfbfbf" points="282.5,-68.5 282.5,-87.5 347.5,-87.5 347.5,-68.5 282.5,-68.5"/>
<text text-anchor="middle" x="315" y="-75.5" font-family="Helvetica,sans-Serif" font-size="10.00">Properties</text>
</g>
<!-- Node5&#45;&gt;Node1 -->
<g id="edge4" class="edge"><title>Node5&#45;&gt;Node1</title>
<path fill="none" stroke="#9a32cd" stroke-dasharray="5,2" d="M293.194,-63.1892C279.692,-55.0631 261.784,-45.0345 245,-38 227.038,-30.4717 206.278,-24.1851 189.029,-19.5776"/>
<polygon fill="#9a32cd" stroke="#9a32cd" points="291.415,-66.2041 301.769,-68.4508 295.076,-60.2377 291.415,-66.2041"/>
<text text-anchor="middle" x="299.5" y="-41.5" font-family="Helvetica,sans-Serif" font-size="10.00"> myVarProps</text>
</g>
</g>
</svg>
