<?xml version="1.0" encoding="UTF-8" standalone="no"?>
<!DOCTYPE svg PUBLIC "-//W3C//DTD SVG 1.1//EN"
 "http://www.w3.org/Graphics/SVG/1.1/DTD/svg11.dtd">
<!-- Generated by graphviz version 2.36.0 (20140111.2315)
 -->
<!-- Title: commands.turtle_commands.AskWithCommand.execute Pages: 1 -->
<svg width="912pt" height="301pt"
 viewBox="0.00 0.00 912.00 301.00" xmlns="http://www.w3.org/2000/svg" xmlns:xlink="http://www.w3.org/1999/xlink">
<g id="graph0" class="graph" transform="scale(1 1) rotate(0) translate(4 297)">
<title>commands.turtle_commands.AskWithCommand.execute</title>
<polygon fill="white" stroke="none" points="-4,4 -4,-297 908,-297 908,4 -4,4"/>
<!-- Node1 -->
<g id="node1" class="node"><title>Node1</title>
<polygon fill="#bfbfbf" stroke="black" points="0.5,-101 0.5,-131 161.5,-131 161.5,-101 0.5,-101"/>
<text text-anchor="start" x="8.5" y="-119" font-family="Helvetica,sans-Serif" font-size="10.00">commands.turtle_commands.</text>
<text text-anchor="middle" x="81" y="-108" font-family="Helvetica,sans-Serif" font-size="10.00">AskWithCommand.execute</text>
</g>
<!-- Node2 -->
<g id="node2" class="node"><title>Node2</title>
<g id="a_node2"><a xlink:href="../../d5/d62/classcommands_1_1templates_1_1_command.html#a8bc87b30554d28c6740a25a75b9e1a81" target="_top" xlink:title="commands.templates.Command.execute">
<polygon fill="white" stroke="black" points="456.5,-273.5 456.5,-292.5 673.5,-292.5 673.5,-273.5 456.5,-273.5"/>
<text text-anchor="middle" x="565" y="-280.5" font-family="Helvetica,sans-Serif" font-size="10.00">commands.templates.Command.execute</text>
</a>
</g>
</g>
<!-- Node1&#45;&gt;Node2 -->
<g id="edge1" class="edge"><title>Node1&#45;&gt;Node2</title>
<path fill="none" stroke="midnightblue" d="M98.771,-131.083C120.237,-149.588 159.298,-180.635 198,-198 287.283,-238.061 397.608,-260.359 473.655,-271.956"/>
<polygon fill="midnightblue" stroke="midnightblue" points="473.278,-275.438 483.686,-273.453 474.312,-268.515 473.278,-275.438"/>
</g>
<!-- Node3 -->
<g id="node3" class="node"><title>Node3</title>
<g id="a_node3"><a xlink:href="../../d0/d5e/classcommands_1_1turtle__commands_1_1_ask_with_command.html#a9d7784db4421d7b4b7fcf19d8c70f415" target="_top" xlink:title="commands.turtle_commands.\lAskWithCommand.executeTurtleCommand">
<polygon fill="white" stroke="black" points="198.5,-159 198.5,-189 419.5,-189 419.5,-159 198.5,-159"/>
<text text-anchor="start" x="206.5" y="-177" font-family="Helvetica,sans-Serif" font-size="10.00">commands.turtle_commands.</text>
<text text-anchor="middle" x="309" y="-166" font-family="Helvetica,sans-Serif" font-size="10.00">AskWithCommand.executeTurtleCommand</text>
</a>
</g>
</g>
<!-- Node1&#45;&gt;Node3 -->
<g id="edge2" class="edge"><title>Node1&#45;&gt;Node3</title>
<path fill="none" stroke="midnightblue" d="M140.495,-131.012C170.706,-138.765 207.753,-148.273 239.318,-156.374"/>
<polygon fill="midnightblue" stroke="midnightblue" points="238.802,-159.855 249.358,-158.95 240.542,-153.074 238.802,-159.855"/>
</g>
<!-- Node4 -->
<g id="node4" class="node"><title>Node4</title>
<g id="a_node4"><a xlink:href="../../d5/d62/classcommands_1_1templates_1_1_command.html#ae48716b79da0af7e6815fbe6fc113075" target="_top" xlink:title="commands.templates.Command.get\lMyChildren">
<polygon fill="white" stroke="black" points="710,-137 710,-167 904,-167 904,-137 710,-137"/>
<text text-anchor="start" x="718" y="-155" font-family="Helvetica,sans-Serif" font-size="10.00">commands.templates.Command.get</text>
<text text-anchor="middle" x="807" y="-144" font-family="Helvetica,sans-Serif" font-size="10.00">MyChildren</text>
</a>
</g>
</g>
<!-- Node1&#45;&gt;Node4 -->
<g id="edge10" class="edge"><title>Node1&#45;&gt;Node4</title>
<path fill="none" stroke="midnightblue" d="M137.796,-100.898C244.103,-74.6323 482.18,-27.9002 674,-78 712.883,-88.1555 752.427,-112.595 777.96,-130.623"/>
<polygon fill="midnightblue" stroke="midnightblue" points="776.225,-133.687 786.383,-136.698 780.32,-128.009 776.225,-133.687"/>
</g>
<!-- Node8 -->
<g id="node8" class="node"><title>Node8</title>
<g id="a_node8"><a xlink:href="../../dc/d36/classcommands_1_1templates_1_1_turtle_command.html#ae4d2a640c2db20e624d831deed30484d" target="_top" xlink:title="commands.templates.Turtle\lCommand.getMyTurtleManager">
<polygon fill="white" stroke="black" points="225.5,-0 225.5,-30 392.5,-30 392.5,-0 225.5,-0"/>
<text text-anchor="start" x="233.5" y="-18" font-family="Helvetica,sans-Serif" font-size="10.00">commands.templates.Turtle</text>
<text text-anchor="middle" x="309" y="-7" font-family="Helvetica,sans-Serif" font-size="10.00">Command.getMyTurtleManager</text>
</a>
</g>
</g>
<!-- Node1&#45;&gt;Node8 -->
<g id="edge11" class="edge"><title>Node1&#45;&gt;Node8</title>
<path fill="none" stroke="midnightblue" d="M102.815,-100.74C125.302,-84.8729 162.668,-60.2619 198,-45 208.471,-40.477 219.801,-36.4703 231.073,-32.9765"/>
<polygon fill="midnightblue" stroke="midnightblue" points="232.355,-36.2466 240.941,-30.0382 230.358,-29.5377 232.355,-36.2466"/>
</g>
<!-- Node3&#45;&gt;Node2 -->
<g id="edge9" class="edge"><title>Node3&#45;&gt;Node2</title>
<path fill="none" stroke="midnightblue" d="M331.189,-189.181C358.684,-208.194 408.747,-240.512 456,-259 468.472,-263.88 482.162,-267.882 495.481,-271.122"/>
<polygon fill="midnightblue" stroke="midnightblue" points="495.037,-274.612 505.568,-273.454 496.613,-267.791 495.037,-274.612"/>
</g>
<!-- Node3&#45;&gt;Node4 -->
<g id="edge3" class="edge"><title>Node3&#45;&gt;Node4</title>
<path fill="none" stroke="midnightblue" d="M342.788,-189.033C371.838,-201.475 415.764,-218.175 456,-225 551.524,-241.204 580.185,-249.213 674,-225 712.787,-214.989 752.35,-190.879 777.913,-173.092"/>
<polygon fill="midnightblue" stroke="midnightblue" points="780.224,-175.744 786.347,-167.098 776.169,-170.038 780.224,-175.744"/>
</g>
<!-- Node5 -->
<g id="node5" class="node"><title>Node5</title>
<g id="a_node5"><a xlink:href="../../d4/d27/classcommands_1_1variable__commands_1_1_commands_list.html#a2f8d92d22d03bbba142a4e7af10da023" target="_top" xlink:title="commands.variable_commands.\lCommandsList.getNumChildren">
<polygon fill="white" stroke="black" points="478.5,-186 478.5,-216 651.5,-216 651.5,-186 478.5,-186"/>
<text text-anchor="start" x="486.5" y="-204" font-family="Helvetica,sans-Serif" font-size="10.00">commands.variable_commands.</text>
<text text-anchor="middle" x="565" y="-193" font-family="Helvetica,sans-Serif" font-size="10.00">CommandsList.getNumChildren</text>
</a>
</g>
</g>
<!-- Node3&#45;&gt;Node5 -->
<g id="edge4" class="edge"><title>Node3&#45;&gt;Node5</title>
<path fill="none" stroke="midnightblue" d="M419.562,-185.646C435.642,-187.356 452.103,-189.105 467.886,-190.783"/>
<polygon fill="midnightblue" stroke="midnightblue" points="467.836,-194.297 478.15,-191.874 468.576,-187.337 467.836,-194.297"/>
</g>
<!-- Node6 -->
<g id="node6" class="node"><title>Node6</title>
<g id="a_node6"><a xlink:href="../../d5/d62/classcommands_1_1templates_1_1_command.html#a632193b631b368f6ffbc514865f062e5" target="_top" xlink:title="commands.templates.Command.set\lValue">
<polygon fill="white" stroke="black" points="468,-137 468,-167 662,-167 662,-137 468,-137"/>
<text text-anchor="start" x="476" y="-155" font-family="Helvetica,sans-Serif" font-size="10.00">commands.templates.Command.set</text>
<text text-anchor="middle" x="565" y="-144" font-family="Helvetica,sans-Serif" font-size="10.00">Value</text>
</a>
</g>
</g>
<!-- Node3&#45;&gt;Node6 -->
<g id="edge6" class="edge"><title>Node3&#45;&gt;Node6</title>
<path fill="none" stroke="midnightblue" d="M419.562,-164.51C432.275,-163.409 445.226,-162.287 457.892,-161.19"/>
<polygon fill="midnightblue" stroke="midnightblue" points="458.318,-164.667 467.979,-160.317 457.714,-157.693 458.318,-164.667"/>
</g>
<!-- Node7 -->
<g id="node7" class="node"><title>Node7</title>
<g id="a_node7"><a xlink:href="../../d4/d27/classcommands_1_1variable__commands_1_1_commands_list.html#a2877ac28fd223b0b67a32d3ed653cf5b" target="_top" xlink:title="commands.variable_commands.\lCommandsList.getChild">
<polygon fill="white" stroke="black" points="478.5,-88 478.5,-118 651.5,-118 651.5,-88 478.5,-88"/>
<text text-anchor="start" x="486.5" y="-106" font-family="Helvetica,sans-Serif" font-size="10.00">commands.variable_commands.</text>
<text text-anchor="middle" x="565" y="-95" font-family="Helvetica,sans-Serif" font-size="10.00">CommandsList.getChild</text>
</a>
</g>
</g>
<!-- Node3&#45;&gt;Node7 -->
<g id="edge7" class="edge"><title>Node3&#45;&gt;Node7</title>
<path fill="none" stroke="midnightblue" d="M353.127,-158.954C382.03,-149.159 421.05,-136.487 456,-127 464.418,-124.715 473.247,-122.486 482.077,-120.364"/>
<polygon fill="midnightblue" stroke="midnightblue" points="483.097,-123.72 492.026,-118.017 481.489,-116.907 483.097,-123.72"/>
</g>
<!-- Node5&#45;&gt;Node4 -->
<g id="edge5" class="edge"><title>Node5&#45;&gt;Node4</title>
<path fill="none" stroke="midnightblue" d="M639.639,-185.965C665.901,-180.604 695.664,-174.527 722.682,-169.011"/>
<polygon fill="midnightblue" stroke="midnightblue" points="723.403,-172.436 732.5,-167.006 722.002,-165.577 723.403,-172.436"/>
</g>
<!-- Node7&#45;&gt;Node4 -->
<g id="edge8" class="edge"><title>Node7&#45;&gt;Node4</title>
<path fill="none" stroke="midnightblue" d="M639.639,-118.035C665.901,-123.396 695.664,-129.473 722.682,-134.989"/>
<polygon fill="midnightblue" stroke="midnightblue" points="722.002,-138.423 732.5,-136.994 723.403,-131.564 722.002,-138.423"/>
</g>
<!-- Node9 -->
<g id="node9" class="node"><title>Node9</title>
<g id="a_node9"><a xlink:href="../../d9/d98/classback_end_1_1_model.html#a1f54b1acaee5f2f608376ce454fa82f2" target="_top" xlink:title="backEnd.Model.getTurtleManager">
<polygon fill="white" stroke="black" points="477.5,-5.5 477.5,-24.5 652.5,-24.5 652.5,-5.5 477.5,-5.5"/>
<text text-anchor="middle" x="565" y="-12.5" font-family="Helvetica,sans-Serif" font-size="10.00">backEnd.Model.getTurtleManager</text>
</a>
</g>
</g>
<!-- Node8&#45;&gt;Node9 -->
<g id="edge12" class="edge"><title>Node8&#45;&gt;Node9</title>
<path fill="none" stroke="midnightblue" d="M392.818,-15C416.611,-15 442.769,-15 467.32,-15"/>
<polygon fill="midnightblue" stroke="midnightblue" points="467.367,-18.5001 477.367,-15 467.367,-11.5001 467.367,-18.5001"/>
</g>
</g>
</svg>
