<?xml version="1.0" encoding="UTF-8" standalone="no"?>
<!DOCTYPE svg PUBLIC "-//W3C//DTD SVG 1.1//EN"
 "http://www.w3.org/Graphics/SVG/1.1/DTD/svg11.dtd">
<!-- Generated by graphviz version 2.36.0 (20140111.2315)
 -->
<!-- Title: commands.turtle_commands.AskWithCommand.executeTurtleCommand Pages: 1 -->
<svg width="714pt" height="214pt"
 viewBox="0.00 0.00 714.00 214.00" xmlns="http://www.w3.org/2000/svg" xmlns:xlink="http://www.w3.org/1999/xlink">
<g id="graph0" class="graph" transform="scale(1 1) rotate(0) translate(4 210)">
<title>commands.turtle_commands.AskWithCommand.executeTurtleCommand</title>
<polygon fill="white" stroke="none" points="-4,4 -4,-210 710,-210 710,4 -4,4"/>
<!-- Node1 -->
<g id="node1" class="node"><title>Node1</title>
<polygon fill="#bfbfbf" stroke="black" points="0.5,-93 0.5,-123 221.5,-123 221.5,-93 0.5,-93"/>
<text text-anchor="start" x="8.5" y="-111" font-family="Helvetica,sans-Serif" font-size="10.00">commands.turtle_commands.</text>
<text text-anchor="middle" x="111" y="-100" font-family="Helvetica,sans-Serif" font-size="10.00">AskWithCommand.executeTurtleCommand</text>
</g>
<!-- Node2 -->
<g id="node2" class="node"><title>Node2</title>
<g id="a_node2"><a xlink:href="../../d5/d62/classcommands_1_1templates_1_1_command.html#a8bc87b30554d28c6740a25a75b9e1a81" target="_top" xlink:title="commands.templates.Command.execute">
<polygon fill="white" stroke="black" points="258.5,-186.5 258.5,-205.5 475.5,-205.5 475.5,-186.5 258.5,-186.5"/>
<text text-anchor="middle" x="367" y="-193.5" font-family="Helvetica,sans-Serif" font-size="10.00">commands.templates.Command.execute</text>
</a>
</g>
</g>
<!-- Node1&#45;&gt;Node2 -->
<g id="edge1" class="edge"><title>Node1&#45;&gt;Node2</title>
<path fill="none" stroke="midnightblue" d="M138.881,-123.048C167.559,-138.492 214.721,-162.161 258,-176 268.151,-179.246 279.018,-182.028 289.804,-184.394"/>
<polygon fill="midnightblue" stroke="midnightblue" points="289.159,-187.835 299.663,-186.451 290.589,-180.982 289.159,-187.835"/>
</g>
<!-- Node3 -->
<g id="node3" class="node"><title>Node3</title>
<g id="a_node3"><a xlink:href="../../d4/d27/classcommands_1_1variable__commands_1_1_commands_list.html#a2877ac28fd223b0b67a32d3ed653cf5b" target="_top" xlink:title="commands.variable_commands.\lCommandsList.getChild">
<polygon fill="white" stroke="black" points="280.5,-137 280.5,-167 453.5,-167 453.5,-137 280.5,-137"/>
<text text-anchor="start" x="288.5" y="-155" font-family="Helvetica,sans-Serif" font-size="10.00">commands.variable_commands.</text>
<text text-anchor="middle" x="367" y="-144" font-family="Helvetica,sans-Serif" font-size="10.00">CommandsList.getChild</text>
</a>
</g>
</g>
<!-- Node1&#45;&gt;Node3 -->
<g id="edge2" class="edge"><title>Node1&#45;&gt;Node3</title>
<path fill="none" stroke="midnightblue" d="M198.702,-123.019C221.714,-127.006 246.696,-131.333 270.164,-135.399"/>
<polygon fill="midnightblue" stroke="midnightblue" points="269.669,-138.865 280.119,-137.123 270.863,-131.967 269.669,-138.865"/>
</g>
<!-- Node4 -->
<g id="node4" class="node"><title>Node4</title>
<g id="a_node4"><a xlink:href="../../d5/d62/classcommands_1_1templates_1_1_command.html#ae48716b79da0af7e6815fbe6fc113075" target="_top" xlink:title="commands.templates.Command.get\lMyChildren">
<polygon fill="white" stroke="black" points="512,-93 512,-123 706,-123 706,-93 512,-93"/>
<text text-anchor="start" x="520" y="-111" font-family="Helvetica,sans-Serif" font-size="10.00">commands.templates.Command.get</text>
<text text-anchor="middle" x="609" y="-100" font-family="Helvetica,sans-Serif" font-size="10.00">MyChildren</text>
</a>
</g>
</g>
<!-- Node1&#45;&gt;Node4 -->
<g id="edge4" class="edge"><title>Node1&#45;&gt;Node4</title>
<path fill="none" stroke="midnightblue" d="M221.771,-108C305.179,-108 419.238,-108 501.764,-108"/>
<polygon fill="midnightblue" stroke="midnightblue" points="501.921,-111.5 511.921,-108 501.921,-104.5 501.921,-111.5"/>
</g>
<!-- Node5 -->
<g id="node5" class="node"><title>Node5</title>
<g id="a_node5"><a xlink:href="../../d4/d27/classcommands_1_1variable__commands_1_1_commands_list.html#a2f8d92d22d03bbba142a4e7af10da023" target="_top" xlink:title="commands.variable_commands.\lCommandsList.getNumChildren">
<polygon fill="white" stroke="black" points="280.5,-49 280.5,-79 453.5,-79 453.5,-49 280.5,-49"/>
<text text-anchor="start" x="288.5" y="-67" font-family="Helvetica,sans-Serif" font-size="10.00">commands.variable_commands.</text>
<text text-anchor="middle" x="367" y="-56" font-family="Helvetica,sans-Serif" font-size="10.00">CommandsList.getNumChildren</text>
</a>
</g>
</g>
<!-- Node1&#45;&gt;Node5 -->
<g id="edge5" class="edge"><title>Node1&#45;&gt;Node5</title>
<path fill="none" stroke="midnightblue" d="M198.702,-92.9808C221.714,-88.9944 246.696,-84.6669 270.164,-80.6015"/>
<polygon fill="midnightblue" stroke="midnightblue" points="270.863,-84.0326 280.119,-78.877 269.669,-77.1353 270.863,-84.0326"/>
</g>
<!-- Node6 -->
<g id="node6" class="node"><title>Node6</title>
<g id="a_node6"><a xlink:href="../../d5/d62/classcommands_1_1templates_1_1_command.html#a632193b631b368f6ffbc514865f062e5" target="_top" xlink:title="commands.templates.Command.set\lValue">
<polygon fill="white" stroke="black" points="270,-0 270,-30 464,-30 464,-0 270,-0"/>
<text text-anchor="start" x="278" y="-18" font-family="Helvetica,sans-Serif" font-size="10.00">commands.templates.Command.set</text>
<text text-anchor="middle" x="367" y="-7" font-family="Helvetica,sans-Serif" font-size="10.00">Value</text>
</a>
</g>
</g>
<!-- Node1&#45;&gt;Node6 -->
<g id="edge7" class="edge"><title>Node1&#45;&gt;Node6</title>
<path fill="none" stroke="midnightblue" d="M139.81,-92.9133C168.663,-77.7754 215.435,-54.6592 258,-40 265.633,-37.3713 273.664,-34.9329 281.757,-32.6929"/>
<polygon fill="midnightblue" stroke="midnightblue" points="282.877,-36.0167 291.638,-30.0596 281.074,-29.2528 282.877,-36.0167"/>
</g>
<!-- Node3&#45;&gt;Node4 -->
<g id="edge3" class="edge"><title>Node3&#45;&gt;Node4</title>
<path fill="none" stroke="midnightblue" d="M449.923,-136.981C471.237,-133.073 494.34,-128.838 516.13,-124.843"/>
<polygon fill="midnightblue" stroke="midnightblue" points="516.834,-128.272 526.039,-123.026 515.572,-121.387 516.834,-128.272"/>
</g>
<!-- Node5&#45;&gt;Node4 -->
<g id="edge6" class="edge"><title>Node5&#45;&gt;Node4</title>
<path fill="none" stroke="midnightblue" d="M449.923,-79.0192C471.237,-82.9269 494.34,-87.1623 516.13,-91.1572"/>
<polygon fill="midnightblue" stroke="midnightblue" points="515.572,-94.6131 526.039,-92.9738 516.834,-87.7278 515.572,-94.6131"/>
</g>
</g>
</svg>
