<?xml version="1.0" encoding="UTF-8" standalone="no"?>
<!DOCTYPE svg PUBLIC "-//W3C//DTD SVG 1.1//EN"
 "http://www.w3.org/Graphics/SVG/1.1/DTD/svg11.dtd">
<!-- Generated by graphviz version 2.36.0 (20140111.2315)
 -->
<!-- Title: commands.ConstantCommand Pages: 1 -->
<svg width="354pt" height="234pt"
 viewBox="0.00 0.00 354.00 234.00" xmlns="http://www.w3.org/2000/svg" xmlns:xlink="http://www.w3.org/1999/xlink">
<g id="graph0" class="graph" transform="scale(1 1) rotate(0) translate(4 230)">
<title>commands.ConstantCommand</title>
<polygon fill="white" stroke="none" points="-4,4 -4,-230 350,-230 350,4 -4,4"/>
<!-- Node1 -->
<g id="node1" class="node"><title>Node1</title>
<polygon fill="#bfbfbf" stroke="black" points="53.5,-0.5 53.5,-19.5 220.5,-19.5 220.5,-0.5 53.5,-0.5"/>
<text text-anchor="middle" x="137" y="-7.5" font-family="Helvetica,sans-Serif" font-size="10.00">commands.ConstantCommand</text>
</g>
<!-- Node2 -->
<g id="node2" class="node"><title>Node2</title>
<g id="a_node2"><a xlink:href="../../d5/d62/classcommands_1_1templates_1_1_command.html" target="_top" xlink:title="commands.templates.Command">
<polygon fill="white" stroke="black" points="49,-58.5 49,-77.5 225,-77.5 225,-58.5 49,-58.5"/>
<text text-anchor="middle" x="137" y="-65.5" font-family="Helvetica,sans-Serif" font-size="10.00">commands.templates.Command</text>
</a>
</g>
</g>
<!-- Node2&#45;&gt;Node1 -->
<g id="edge1" class="edge"><title>Node2&#45;&gt;Node1</title>
<path fill="none" stroke="midnightblue" d="M137,-47.953C137,-38.2875 137,-27.0312 137,-19.5052"/>
<polygon fill="midnightblue" stroke="midnightblue" points="133.5,-48.25 137,-58.25 140.5,-48.25 133.5,-48.25"/>
</g>
<!-- Node3 -->
<g id="node3" class="node"><title>Node3</title>
<polygon fill="white" stroke="#bfbfbf" points="-0.5,-127 -0.5,-157 152.5,-157 152.5,-127 -0.5,-127"/>
<text text-anchor="start" x="7.5" y="-145" font-family="Helvetica,sans-Serif" font-size="10.00">List&lt; commands.templates.</text>
<text text-anchor="middle" x="76" y="-134" font-family="Helvetica,sans-Serif" font-size="10.00">Command &gt;</text>
</g>
<!-- Node3&#45;&gt;Node2 -->
<g id="edge2" class="edge"><title>Node3&#45;&gt;Node2</title>
<path fill="none" stroke="#9a32cd" stroke-dasharray="5,2" d="M94.5922,-119.055C106.364,-105.16 120.943,-87.952 129.579,-77.7589"/>
<polygon fill="#9a32cd" stroke="#9a32cd" points="91.8454,-116.883 88.0516,-126.775 97.1863,-121.408 91.8454,-116.883"/>
<text text-anchor="middle" x="143" y="-99.5" font-family="Helvetica,sans-Serif" font-size="10.00"> myChildren</text>
</g>
<!-- Node4 -->
<g id="node4" class="node"><title>Node4</title>
<g id="a_node4"><a xlink:href="../../d8/d6a/classback_end_1_1_variable_manager.html" target="_top" xlink:title="backEnd.VariableManager">
<polygon fill="white" stroke="black" points="171,-132.5 171,-151.5 311,-151.5 311,-132.5 171,-132.5"/>
<text text-anchor="middle" x="241" y="-139.5" font-family="Helvetica,sans-Serif" font-size="10.00">backEnd.VariableManager</text>
</a>
</g>
</g>
<!-- Node4&#45;&gt;Node2 -->
<g id="edge3" class="edge"><title>Node4&#45;&gt;Node2</title>
<path fill="none" stroke="#9a32cd" stroke-dasharray="5,2" d="M220.326,-126.687C199.118,-112.005 166.827,-89.6496 149.323,-77.531"/>
<polygon fill="#9a32cd" stroke="#9a32cd" points="218.447,-129.643 228.661,-132.458 222.432,-123.888 218.447,-129.643"/>
<text text-anchor="middle" x="242.5" y="-99.5" font-family="Helvetica,sans-Serif" font-size="10.00"> myVariableManager</text>
</g>
<!-- Node5 -->
<g id="node5" class="node"><title>Node5</title>
<polygon fill="white" stroke="#bfbfbf" points="124.5,-206.5 124.5,-225.5 239.5,-225.5 239.5,-206.5 124.5,-206.5"/>
<text text-anchor="middle" x="182" y="-213.5" font-family="Helvetica,sans-Serif" font-size="10.00">Stack&lt; Properties &gt;</text>
</g>
<!-- Node5&#45;&gt;Node4 -->
<g id="edge4" class="edge"><title>Node5&#45;&gt;Node4</title>
<path fill="none" stroke="#9a32cd" stroke-dasharray="5,2" d="M176.228,-196.421C175.178,-189.581 175.375,-182.036 179,-176 185.969,-164.397 198.55,-156.652 210.567,-151.6"/>
<polygon fill="#9a32cd" stroke="#9a32cd" points="172.855,-197.365 178.589,-206.274 179.662,-195.733 172.855,-197.365"/>
<text text-anchor="middle" x="226" y="-179.5" font-family="Helvetica,sans-Serif" font-size="10.00"> myStoredVariables</text>
</g>
<!-- Node6 -->
<g id="node6" class="node"><title>Node6</title>
<polygon fill="white" stroke="#bfbfbf" points="266.5,-206.5 266.5,-225.5 331.5,-225.5 331.5,-206.5 266.5,-206.5"/>
<text text-anchor="middle" x="299" y="-213.5" font-family="Helvetica,sans-Serif" font-size="10.00">Properties</text>
</g>
<!-- Node6&#45;&gt;Node4 -->
<g id="edge5" class="edge"><title>Node6&#45;&gt;Node4</title>
<path fill="none" stroke="#9a32cd" stroke-dasharray="5,2" d="M290.487,-197.199C286.791,-190.271 282.133,-182.462 277,-176 269.723,-166.838 259.83,-157.964 252.257,-151.731"/>
<polygon fill="#9a32cd" stroke="#9a32cd" points="287.528,-199.104 295.155,-206.458 293.779,-195.953 287.528,-199.104"/>
<text text-anchor="middle" x="315" y="-179.5" font-family="Helvetica,sans-Serif" font-size="10.00"> myVariables</text>
</g>
</g>
</svg>
