<?xml version="1.0" encoding="UTF-8" standalone="no"?>
<!DOCTYPE svg PUBLIC "-//W3C//DTD SVG 1.1//EN"
 "http://www.w3.org/Graphics/SVG/1.1/DTD/svg11.dtd">
<!-- Generated by graphviz version 2.36.0 (20140111.2315)
 -->
<!-- Title: commands.turtle_commands.PenColorCommand.executeTurtleCommand Pages: 1 -->
<svg width="434pt" height="38pt"
 viewBox="0.00 0.00 434.00 38.00" xmlns="http://www.w3.org/2000/svg" xmlns:xlink="http://www.w3.org/1999/xlink">
<g id="graph0" class="graph" transform="scale(1 1) rotate(0) translate(4 34)">
<title>commands.turtle_commands.PenColorCommand.executeTurtleCommand</title>
<polygon fill="white" stroke="none" points="-4,4 -4,-34 430,-34 430,4 -4,4"/>
<!-- Node1 -->
<g id="node1" class="node"><title>Node1</title>
<polygon fill="#bfbfbf" stroke="black" points="0.5,-0 0.5,-30 227.5,-30 227.5,-0 0.5,-0"/>
<text text-anchor="start" x="8.5" y="-18" font-family="Helvetica,sans-Serif" font-size="10.00">commands.turtle_commands.</text>
<text text-anchor="middle" x="114" y="-7" font-family="Helvetica,sans-Serif" font-size="10.00">PenColorCommand.executeTurtleCommand</text>
</g>
<!-- Node2 -->
<g id="node2" class="node"><title>Node2</title>
<g id="a_node2"><a xlink:href="../../d1/d15/classcommands_1_1turtle__commands_1_1_pen_color_command.html#a1f19373d20288564123c75f30de2d0f9" target="_top" xlink:title="commands.turtle_commands.\lPenColorCommand.execute">
<polygon fill="white" stroke="black" points="264.5,-0 264.5,-30 425.5,-30 425.5,-0 264.5,-0"/>
<text text-anchor="start" x="272.5" y="-18" font-family="Helvetica,sans-Serif" font-size="10.00">commands.turtle_commands.</text>
<text text-anchor="middle" x="345" y="-7" font-family="Helvetica,sans-Serif" font-size="10.00">PenColorCommand.execute</text>
</a>
</g>
</g>
<!-- Node1&#45;&gt;Node2 -->
<g id="edge1" class="edge"><title>Node1&#45;&gt;Node2</title>
<path fill="none" stroke="midnightblue" d="M237.912,-15C246.832,-15 255.684,-15 264.249,-15"/>
<polygon fill="midnightblue" stroke="midnightblue" points="237.823,-11.5001 227.823,-15 237.823,-18.5001 237.823,-11.5001"/>
</g>
</g>
</svg>
