<?xml version="1.0" encoding="UTF-8" standalone="no"?>
<!DOCTYPE svg PUBLIC "-//W3C//DTD SVG 1.1//EN"
 "http://www.w3.org/Graphics/SVG/1.1/DTD/svg11.dtd">
<!-- Generated by graphviz version 2.36.0 (20140111.2315)
 -->
<!-- Title: backEnd.turtle.TurtleManager Pages: 1 -->
<svg width="458pt" height="165pt"
 viewBox="0.00 0.00 458.00 165.00" xmlns="http://www.w3.org/2000/svg" xmlns:xlink="http://www.w3.org/1999/xlink">
<g id="graph0" class="graph" transform="scale(1 1) rotate(0) translate(4 161)">
<title>backEnd.turtle.TurtleManager</title>
<polygon fill="white" stroke="none" points="-4,4 -4,-161 454,-161 454,4 -4,4"/>
<!-- Node1 -->
<g id="node1" class="node"><title>Node1</title>
<polygon fill="#bfbfbf" stroke="black" points="294,-71.5 294,-90.5 450,-90.5 450,-71.5 294,-71.5"/>
<text text-anchor="middle" x="372" y="-78.5" font-family="Helvetica,sans-Serif" font-size="10.00">backEnd.turtle.TurtleManager</text>
</g>
<!-- Node2 -->
<g id="node2" class="node"><title>Node2</title>
<polygon fill="white" stroke="#bfbfbf" points="44.5,-137.5 44.5,-156.5 115.5,-156.5 115.5,-137.5 44.5,-137.5"/>
<text text-anchor="middle" x="80" y="-144.5" font-family="Helvetica,sans-Serif" font-size="10.00">Observable</text>
</g>
<!-- Node2&#45;&gt;Node1 -->
<g id="edge1" class="edge"><title>Node2&#45;&gt;Node1</title>
<path fill="none" stroke="midnightblue" d="M125.707,-140.355C165.449,-134.068 224.989,-123.712 276,-111 299.16,-105.229 324.957,-96.9619 343.817,-90.5672"/>
<polygon fill="midnightblue" stroke="midnightblue" points="125.136,-136.902 115.797,-141.904 126.217,-143.818 125.136,-136.902"/>
</g>
<!-- Node3 -->
<g id="node3" class="node"><title>Node3</title>
<polygon fill="white" stroke="#bfbfbf" points="0,-88 0,-118 160,-118 160,-88 0,-88"/>
<text text-anchor="start" x="8" y="-106" font-family="Helvetica,sans-Serif" font-size="10.00">Map&lt; Double, backEnd.turtle.</text>
<text text-anchor="middle" x="80" y="-95" font-family="Helvetica,sans-Serif" font-size="10.00">Turtle &gt;</text>
</g>
<!-- Node3&#45;&gt;Node1 -->
<g id="edge2" class="edge"><title>Node3&#45;&gt;Node1</title>
<path fill="none" stroke="#9a32cd" stroke-dasharray="5,2" d="M170.402,-96.2178C209.901,-93.2213 255.886,-89.7328 293.857,-86.8523"/>
<polygon fill="#9a32cd" stroke="#9a32cd" points="169.95,-92.7419 160.244,-96.9884 170.48,-99.7218 169.95,-92.7419"/>
<text text-anchor="middle" x="227" y="-99" font-family="Helvetica,sans-Serif" font-size="10.00"> myTurtles</text>
</g>
<!-- Node4 -->
<g id="node4" class="node"><title>Node4</title>
<polygon fill="white" stroke="#bfbfbf" points="3.5,-49.5 3.5,-68.5 156.5,-68.5 156.5,-49.5 3.5,-49.5"/>
<text text-anchor="middle" x="80" y="-56.5" font-family="Helvetica,sans-Serif" font-size="10.00">List&lt; backEnd.turtle.Turtle &gt;</text>
</g>
<!-- Node4&#45;&gt;Node1 -->
<g id="edge3" class="edge"><title>Node4&#45;&gt;Node1</title>
<path fill="none" stroke="#9a32cd" stroke-dasharray="5,2" d="M166.885,-65.5154C207.152,-68.5702 254.758,-72.1817 293.862,-75.1482"/>
<polygon fill="#9a32cd" stroke="#9a32cd" points="167.051,-62.0181 156.815,-64.7515 166.522,-68.998 167.051,-62.0181"/>
<text text-anchor="middle" x="227" y="-77" font-family="Helvetica,sans-Serif" font-size="10.00"> myActiveTurtles</text>
</g>
<!-- Node5 -->
<g id="node5" class="node"><title>Node5</title>
<polygon fill="white" stroke="#bfbfbf" points="2.5,-0 2.5,-30 157.5,-30 157.5,-0 2.5,-0"/>
<text text-anchor="start" x="10.5" y="-18" font-family="Helvetica,sans-Serif" font-size="10.00">Stack&lt; List&lt; backEnd.turtle.</text>
<text text-anchor="middle" x="80" y="-7" font-family="Helvetica,sans-Serif" font-size="10.00">Turtle &gt; &gt;</text>
</g>
<!-- Node5&#45;&gt;Node1 -->
<g id="edge4" class="edge"><title>Node5&#45;&gt;Node1</title>
<path fill="none" stroke="#9a32cd" stroke-dasharray="5,2" d="M167.713,-29.3649C201.664,-35.533 240.831,-43.3229 276,-52 298.602,-57.5766 323.785,-65.3363 342.541,-71.4258"/>
<polygon fill="#9a32cd" stroke="#9a32cd" points="168.281,-25.9111 157.82,-27.5864 167.043,-32.8006 168.281,-25.9111"/>
<text text-anchor="middle" x="227" y="-55" font-family="Helvetica,sans-Serif" font-size="10.00"> myStoredTurtleLists</text>
</g>
</g>
</svg>
