<?xml version="1.0" encoding="UTF-8" standalone="no"?>
<!DOCTYPE svg PUBLIC "-//W3C//DTD SVG 1.1//EN"
 "http://www.w3.org/Graphics/SVG/1.1/DTD/svg11.dtd">
<!-- Generated by graphviz version 2.36.0 (20140111.2315)
 -->
<!-- Title: backEnd.Controller.toggleGridLines Pages: 1 -->
<svg width="508pt" height="38pt"
 viewBox="0.00 0.00 508.00 38.00" xmlns="http://www.w3.org/2000/svg" xmlns:xlink="http://www.w3.org/1999/xlink">
<g id="graph0" class="graph" transform="scale(1 1) rotate(0) translate(4 34)">
<title>backEnd.Controller.toggleGridLines</title>
<polygon fill="white" stroke="none" points="-4,4 -4,-34 504,-34 504,4 -4,4"/>
<!-- Node1 -->
<g id="node1" class="node"><title>Node1</title>
<polygon fill="#bfbfbf" stroke="black" points="0.5,-0 0.5,-30 139.5,-30 139.5,-0 0.5,-0"/>
<text text-anchor="start" x="8.5" y="-18" font-family="Helvetica,sans-Serif" font-size="10.00">backEnd.Controller.toggle</text>
<text text-anchor="middle" x="70" y="-7" font-family="Helvetica,sans-Serif" font-size="10.00">GridLines</text>
</g>
<!-- Node2 -->
<g id="node2" class="node"><title>Node2</title>
<g id="a_node2"><a xlink:href="../../d8/d1f/classfront_end_1_1_view.html#a3b11e07ca0ec9c9f9a22583b736eb7b7" target="_top" xlink:title="frontEnd.View.toggleGrid\lLines">
<polygon fill="white" stroke="black" points="176,-0 176,-30 310,-30 310,-0 176,-0"/>
<text text-anchor="start" x="184" y="-18" font-family="Helvetica,sans-Serif" font-size="10.00">frontEnd.View.toggleGrid</text>
<text text-anchor="middle" x="243" y="-7" font-family="Helvetica,sans-Serif" font-size="10.00">Lines</text>
</a>
</g>
</g>
<!-- Node1&#45;&gt;Node2 -->
<g id="edge1" class="edge"><title>Node1&#45;&gt;Node2</title>
<path fill="none" stroke="midnightblue" d="M139.567,-15C148.182,-15 157.036,-15 165.76,-15"/>
<polygon fill="midnightblue" stroke="midnightblue" points="165.919,-18.5001 175.919,-15 165.919,-11.5001 165.919,-18.5001"/>
</g>
<!-- Node3 -->
<g id="node3" class="node"><title>Node3</title>
<g id="a_node3"><a xlink:href="../../d5/df1/classfront_end_1_1_turtle_canvas.html#a650ea975d84e53c9ccd1a612a286697f" target="_top" xlink:title="frontEnd.TurtleCanvas.toggle\lGridLines">
<polygon fill="white" stroke="black" points="346,-0 346,-30 500,-30 500,-0 346,-0"/>
<text text-anchor="start" x="354" y="-18" font-family="Helvetica,sans-Serif" font-size="10.00">frontEnd.TurtleCanvas.toggle</text>
<text text-anchor="middle" x="423" y="-7" font-family="Helvetica,sans-Serif" font-size="10.00">GridLines</text>
</a>
</g>
</g>
<!-- Node2&#45;&gt;Node3 -->
<g id="edge2" class="edge"><title>Node2&#45;&gt;Node3</title>
<path fill="none" stroke="midnightblue" d="M310.028,-15C318.419,-15 327.103,-15 335.752,-15"/>
<polygon fill="midnightblue" stroke="midnightblue" points="335.87,-18.5001 345.87,-15 335.87,-11.5001 335.87,-18.5001"/>
</g>
</g>
</svg>
