<?xml version="1.0" encoding="UTF-8" standalone="no"?>
<!DOCTYPE svg PUBLIC "-//W3C//DTD SVG 1.1//EN"
 "http://www.w3.org/Graphics/SVG/1.1/DTD/svg11.dtd">
<!-- Generated by graphviz version 2.36.0 (20140111.2315)
 -->
<!-- Title: backEnd.Controller.runScript Pages: 1 -->
<svg width="1454pt" height="448pt"
 viewBox="0.00 0.00 1454.00 448.00" xmlns="http://www.w3.org/2000/svg" xmlns:xlink="http://www.w3.org/1999/xlink">
<g id="graph0" class="graph" transform="scale(1 1) rotate(0) translate(4 444)">
<title>backEnd.Controller.runScript</title>
<polygon fill="white" stroke="none" points="-4,4 -4,-444 1450,-444 1450,4 -4,4"/>
<!-- Node1 -->
<g id="node1" class="node"><title>Node1</title>
<polygon fill="#bfbfbf" stroke="black" points="0,-345.5 0,-364.5 152,-364.5 152,-345.5 0,-345.5"/>
<text text-anchor="middle" x="76" y="-352.5" font-family="Helvetica,sans-Serif" font-size="10.00">backEnd.Controller.runScript</text>
</g>
<!-- Node2 -->
<g id="node2" class="node"><title>Node2</title>
<g id="a_node2"><a xlink:href="../../d8/d1f/classfront_end_1_1_view.html#a88014d18898a5c72ba7893e0d865a218" target="_top" xlink:title="frontEnd.View.addToHistory">
<polygon fill="white" stroke="black" points="196,-407.5 196,-426.5 342,-426.5 342,-407.5 196,-407.5"/>
<text text-anchor="middle" x="269" y="-414.5" font-family="Helvetica,sans-Serif" font-size="10.00">frontEnd.View.addToHistory</text>
</a>
</g>
</g>
<!-- Node1&#45;&gt;Node2 -->
<g id="edge1" class="edge"><title>Node1&#45;&gt;Node2</title>
<path fill="none" stroke="midnightblue" d="M106.425,-364.552C139.233,-375.201 192.447,-392.475 228.774,-404.267"/>
<polygon fill="midnightblue" stroke="midnightblue" points="227.949,-407.679 238.541,-407.438 230.111,-401.021 227.949,-407.679"/>
</g>
<!-- Node5 -->
<g id="node5" class="node"><title>Node5</title>
<g id="a_node5"><a xlink:href="../../d8/d1f/classfront_end_1_1_view.html#a22669dd74ac845d66d5b59ddeba13b5e" target="_top" xlink:title="frontEnd.View.printException">
<polygon fill="white" stroke="black" points="392,-364.5 392,-383.5 544,-383.5 544,-364.5 392,-364.5"/>
<text text-anchor="middle" x="468" y="-371.5" font-family="Helvetica,sans-Serif" font-size="10.00">frontEnd.View.printException</text>
</a>
</g>
</g>
<!-- Node1&#45;&gt;Node5 -->
<g id="edge4" class="edge"><title>Node1&#45;&gt;Node5</title>
<path fill="none" stroke="midnightblue" d="M152.196,-358.663C217.779,-361.858 312.88,-366.492 381.373,-369.828"/>
<polygon fill="midnightblue" stroke="midnightblue" points="381.545,-373.341 391.703,-370.332 381.885,-366.349 381.545,-373.341"/>
</g>
<!-- Node7 -->
<g id="node7" class="node"><title>Node7</title>
<g id="a_node7"><a xlink:href="../../d9/d98/classback_end_1_1_model.html#ade764fd1c85a48fabb9abf3dfe8b8ceb" target="_top" xlink:title="backEnd.Model.runScript">
<polygon fill="white" stroke="black" points="201.5,-251.5 201.5,-270.5 336.5,-270.5 336.5,-251.5 201.5,-251.5"/>
<text text-anchor="middle" x="269" y="-258.5" font-family="Helvetica,sans-Serif" font-size="10.00">backEnd.Model.runScript</text>
</a>
</g>
</g>
<!-- Node1&#45;&gt;Node7 -->
<g id="edge6" class="edge"><title>Node1&#45;&gt;Node7</title>
<path fill="none" stroke="midnightblue" d="M96.3652,-345.469C130.113,-328.861 199.857,-294.537 239.26,-275.144"/>
<polygon fill="midnightblue" stroke="midnightblue" points="241.157,-278.112 248.584,-270.556 238.066,-271.831 241.157,-278.112"/>
</g>
<!-- Node23 -->
<g id="node23" class="node"><title>Node23</title>
<g id="a_node23"><a xlink:href="../../d8/d1f/classfront_end_1_1_view.html#a59fa2dbe984da3217324979184d00559" target="_top" xlink:title="frontEnd.View.updateVariables">
<polygon fill="white" stroke="black" points="188.5,-326.5 188.5,-345.5 349.5,-345.5 349.5,-326.5 188.5,-326.5"/>
<text text-anchor="middle" x="269" y="-333.5" font-family="Helvetica,sans-Serif" font-size="10.00">frontEnd.View.updateVariables</text>
</a>
</g>
</g>
<!-- Node1&#45;&gt;Node23 -->
<g id="edge24" class="edge"><title>Node1&#45;&gt;Node23</title>
<path fill="none" stroke="midnightblue" d="M152.214,-347.518C160.768,-346.667 169.549,-345.794 178.266,-344.926"/>
<polygon fill="midnightblue" stroke="midnightblue" points="178.848,-348.386 188.452,-343.913 178.155,-341.42 178.848,-348.386"/>
</g>
<!-- Node3 -->
<g id="node3" class="node"><title>Node3</title>
<g id="a_node3"><a xlink:href="../../d8/dfc/classpanels_1_1_parameter_panel.html#a5f64bf2acdef3d7ca882a87ba8c78bf3" target="_top" xlink:title="panels.ParameterPanel.add\lToHistory">
<polygon fill="white" stroke="black" points="394,-407 394,-437 542,-437 542,-407 394,-407"/>
<text text-anchor="start" x="402" y="-425" font-family="Helvetica,sans-Serif" font-size="10.00">panels.ParameterPanel.add</text>
<text text-anchor="middle" x="468" y="-414" font-family="Helvetica,sans-Serif" font-size="10.00">ToHistory</text>
</a>
</g>
</g>
<!-- Node2&#45;&gt;Node3 -->
<g id="edge2" class="edge"><title>Node2&#45;&gt;Node3</title>
<path fill="none" stroke="midnightblue" d="M342.237,-418.833C355.625,-419.173 369.712,-419.531 383.406,-419.878"/>
<polygon fill="midnightblue" stroke="midnightblue" points="383.697,-423.387 393.782,-420.142 383.874,-416.389 383.697,-423.387"/>
</g>
<!-- Node4 -->
<g id="node4" class="node"><title>Node4</title>
<g id="a_node4"><a xlink:href="../../de/dff/classtitle_panes_1_1_history_title_pane.html#a14fe295c9a982a88b2f96e93758e021d" target="_top" xlink:title="titlePanes.HistoryTitlePane.add\lToHistory">
<polygon fill="white" stroke="black" points="598,-410 598,-440 762,-440 762,-410 598,-410"/>
<text text-anchor="start" x="606" y="-428" font-family="Helvetica,sans-Serif" font-size="10.00">titlePanes.HistoryTitlePane.add</text>
<text text-anchor="middle" x="680" y="-417" font-family="Helvetica,sans-Serif" font-size="10.00">ToHistory</text>
</a>
</g>
</g>
<!-- Node3&#45;&gt;Node4 -->
<g id="edge3" class="edge"><title>Node3&#45;&gt;Node4</title>
<path fill="none" stroke="midnightblue" d="M542.153,-423.045C556.772,-423.254 572.3,-423.476 587.449,-423.692"/>
<polygon fill="midnightblue" stroke="midnightblue" points="587.811,-427.198 597.86,-423.841 587.911,-420.198 587.811,-427.198"/>
</g>
<!-- Node6 -->
<g id="node6" class="node"><title>Node6</title>
<g id="a_node6"><a xlink:href="../../de/d03/classpanels_1_1_script_panel.html#acf94d4284961d6d9eabc8af4db9abe87" target="_top" xlink:title="panels.ScriptPanel.print\lException">
<polygon fill="white" stroke="black" points="615.5,-361 615.5,-391 744.5,-391 744.5,-361 615.5,-361"/>
<text text-anchor="start" x="623.5" y="-379" font-family="Helvetica,sans-Serif" font-size="10.00">panels.ScriptPanel.print</text>
<text text-anchor="middle" x="680" y="-368" font-family="Helvetica,sans-Serif" font-size="10.00">Exception</text>
</a>
</g>
</g>
<!-- Node5&#45;&gt;Node6 -->
<g id="edge5" class="edge"><title>Node5&#45;&gt;Node6</title>
<path fill="none" stroke="midnightblue" d="M544.222,-374.716C564.065,-374.905 585.456,-375.109 605.222,-375.297"/>
<polygon fill="midnightblue" stroke="midnightblue" points="605.361,-378.799 615.394,-375.394 605.428,-371.799 605.361,-378.799"/>
</g>
<!-- Node8 -->
<g id="node8" class="node"><title>Node8</title>
<g id="a_node8"><a xlink:href="../../d9/d1e/classback_end_1_1_parser.html#a163b8afd814babc8e7df59993f0d6440" target="_top" xlink:title="backEnd.Parser.parseScript">
<polygon fill="white" stroke="black" points="394.5,-213.5 394.5,-232.5 541.5,-232.5 541.5,-213.5 394.5,-213.5"/>
<text text-anchor="middle" x="468" y="-220.5" font-family="Helvetica,sans-Serif" font-size="10.00">backEnd.Parser.parseScript</text>
</a>
</g>
</g>
<!-- Node7&#45;&gt;Node8 -->
<g id="edge7" class="edge"><title>Node7&#45;&gt;Node8</title>
<path fill="none" stroke="midnightblue" d="M319.457,-251.46C346.154,-246.31 379.304,-239.916 407.415,-234.494"/>
<polygon fill="midnightblue" stroke="midnightblue" points="408.366,-237.875 417.523,-232.544 407.041,-231.001 408.366,-237.875"/>
</g>
<!-- Node9 -->
<g id="node9" class="node"><title>Node9</title>
<g id="a_node9"><a xlink:href="../../d9/d98/classback_end_1_1_model.html#a6b39dd199a5957068c032bb023f4b613" target="_top" xlink:title="backEnd.Model.getCommandsMap">
<polygon fill="white" stroke="black" points="1061.5,-273.5 1061.5,-292.5 1244.5,-292.5 1244.5,-273.5 1061.5,-273.5"/>
<text text-anchor="middle" x="1153" y="-280.5" font-family="Helvetica,sans-Serif" font-size="10.00">backEnd.Model.getCommandsMap</text>
</a>
</g>
</g>
<!-- Node8&#45;&gt;Node9 -->
<g id="edge8" class="edge"><title>Node8&#45;&gt;Node9</title>
<path fill="none" stroke="midnightblue" d="M523.971,-232.506C543.522,-235.734 565.714,-239.223 586,-242 685.248,-255.588 710.138,-259.1 810,-267 890.879,-273.399 982.735,-277.522 1050.87,-279.978"/>
<polygon fill="midnightblue" stroke="midnightblue" points="1051.05,-283.487 1061.17,-280.343 1051.3,-276.491 1051.05,-283.487"/>
</g>
<!-- Node10 -->
<g id="node10" class="node"><title>Node10</title>
<g id="a_node10"><a xlink:href="../../d9/d1e/classback_end_1_1_parser.html#a71653c0a9d02d4b400e357b978260de6" target="_top" xlink:title="backEnd.Parser.removeComments">
<polygon fill="white" stroke="black" points="589,-175.5 589,-194.5 771,-194.5 771,-175.5 589,-175.5"/>
<text text-anchor="middle" x="680" y="-182.5" font-family="Helvetica,sans-Serif" font-size="10.00">backEnd.Parser.removeComments</text>
</a>
</g>
</g>
<!-- Node8&#45;&gt;Node10 -->
<g id="edge9" class="edge"><title>Node8&#45;&gt;Node10</title>
<path fill="none" stroke="midnightblue" d="M521.721,-213.46C550.429,-208.265 586.137,-201.804 616.27,-196.351"/>
<polygon fill="midnightblue" stroke="midnightblue" points="617.041,-199.769 626.258,-194.544 615.794,-192.88 617.041,-199.769"/>
</g>
<!-- Node11 -->
<g id="node11" class="node"><title>Node11</title>
<g id="a_node11"><a xlink:href="../../d9/d1e/classback_end_1_1_parser.html#a653298ad53a1eea540beded2bb558ab4" target="_top" xlink:title="backEnd.Parser.makeTree">
<polygon fill="white" stroke="black" points="610.5,-213.5 610.5,-232.5 749.5,-232.5 749.5,-213.5 610.5,-213.5"/>
<text text-anchor="middle" x="680" y="-220.5" font-family="Helvetica,sans-Serif" font-size="10.00">backEnd.Parser.makeTree</text>
</a>
</g>
</g>
<!-- Node8&#45;&gt;Node11 -->
<g id="edge10" class="edge"><title>Node8&#45;&gt;Node11</title>
<path fill="none" stroke="midnightblue" d="M541.564,-223C560.457,-223 580.903,-223 600.106,-223"/>
<polygon fill="midnightblue" stroke="midnightblue" points="600.322,-226.5 610.322,-223 600.322,-219.5 600.322,-226.5"/>
</g>
<!-- Node22 -->
<g id="node22" class="node"><title>Node22</title>
<g id="a_node22"><a xlink:href="../../d5/d62/classcommands_1_1templates_1_1_command.html#aa1c27b6285999798be609159ee5c7a83" target="_top" xlink:title="commands.templates.Command.to\lString">
<polygon fill="white" stroke="black" points="586,-126 586,-156 774,-156 774,-126 586,-126"/>
<text text-anchor="start" x="594" y="-144" font-family="Helvetica,sans-Serif" font-size="10.00">commands.templates.Command.to</text>
<text text-anchor="middle" x="680" y="-133" font-family="Helvetica,sans-Serif" font-size="10.00">String</text>
</a>
</g>
</g>
<!-- Node8&#45;&gt;Node22 -->
<g id="edge23" class="edge"><title>Node8&#45;&gt;Node22</title>
<path fill="none" stroke="midnightblue" d="M485.988,-213.442C508.359,-201.157 549.177,-179.775 586,-166 592.675,-163.503 599.705,-161.145 606.787,-158.948"/>
<polygon fill="midnightblue" stroke="midnightblue" points="607.874,-162.276 616.449,-156.054 605.865,-155.57 607.874,-162.276"/>
</g>
<!-- Node11&#45;&gt;Node9 -->
<g id="edge11" class="edge"><title>Node11&#45;&gt;Node9</title>
<path fill="none" stroke="midnightblue" d="M749.739,-231.757C833.907,-242.479 976.44,-260.636 1067.29,-272.209"/>
<polygon fill="midnightblue" stroke="midnightblue" points="1066.93,-275.691 1077.29,-273.483 1067.81,-268.747 1066.93,-275.691"/>
</g>
<!-- Node12 -->
<g id="node12" class="node"><title>Node12</title>
<g id="a_node12"><a xlink:href="../../d5/d1d/classcommands_1_1_command_factory.html#ac77125dd466e3e01fce01fc527e7f815" target="_top" xlink:title="commands.CommandFactory.build\lCommand">
<polygon fill="white" stroke="black" points="818,-186 818,-216 1000,-216 1000,-186 818,-186"/>
<text text-anchor="start" x="826" y="-204" font-family="Helvetica,sans-Serif" font-size="10.00">commands.CommandFactory.build</text>
<text text-anchor="middle" x="909" y="-193" font-family="Helvetica,sans-Serif" font-size="10.00">Command</text>
</a>
</g>
</g>
<!-- Node11&#45;&gt;Node12 -->
<g id="edge12" class="edge"><title>Node11&#45;&gt;Node12</title>
<path fill="none" stroke="midnightblue" d="M749.724,-216.34C767.948,-214.573 788.006,-212.629 807.542,-210.736"/>
<polygon fill="midnightblue" stroke="midnightblue" points="808.082,-214.2 817.698,-209.752 807.407,-207.233 808.082,-214.2"/>
</g>
<!-- Node20 -->
<g id="node20" class="node"><title>Node20</title>
<g id="a_node20"><a xlink:href="../../d5/d62/classcommands_1_1templates_1_1_command.html#a9ab84f2a1491a7283311891b8a6082dc" target="_top" xlink:title="commands.templates.Command.add\lChild">
<polygon fill="white" stroke="black" points="810.5,-137 810.5,-167 1007.5,-167 1007.5,-137 810.5,-137"/>
<text text-anchor="start" x="818.5" y="-155" font-family="Helvetica,sans-Serif" font-size="10.00">commands.templates.Command.add</text>
<text text-anchor="middle" x="909" y="-144" font-family="Helvetica,sans-Serif" font-size="10.00">Child</text>
</a>
</g>
</g>
<!-- Node11&#45;&gt;Node20 -->
<g id="edge21" class="edge"><title>Node11&#45;&gt;Node20</title>
<path fill="none" stroke="midnightblue" d="M747.246,-213.394C756.451,-210.937 765.617,-207.858 774,-204 792.414,-195.526 791.753,-184.828 810,-176 814.102,-174.015 818.383,-172.186 822.763,-170.501"/>
<polygon fill="midnightblue" stroke="midnightblue" points="824.235,-173.693 832.481,-167.04 821.886,-167.098 824.235,-173.693"/>
</g>
<!-- Node21 -->
<g id="node21" class="node"><title>Node21</title>
<g id="a_node21"><a xlink:href="../../d5/d62/classcommands_1_1templates_1_1_command.html#a0ca025dffda489d73ba4b6c12c7118fe" target="_top" xlink:title="commands.templates.Command.get\lNumChildrenNeeded">
<polygon fill="white" stroke="black" points="812,-88 812,-118 1006,-118 1006,-88 812,-88"/>
<text text-anchor="start" x="820" y="-106" font-family="Helvetica,sans-Serif" font-size="10.00">commands.templates.Command.get</text>
<text text-anchor="middle" x="909" y="-95" font-family="Helvetica,sans-Serif" font-size="10.00">NumChildrenNeeded</text>
</a>
</g>
</g>
<!-- Node11&#45;&gt;Node21 -->
<g id="edge22" class="edge"><title>Node11&#45;&gt;Node21</title>
<path fill="none" stroke="midnightblue" d="M749.802,-216.63C758.529,-213.687 766.882,-209.611 774,-204 803.67,-180.615 780.788,-150.954 810,-127 811.575,-125.709 813.208,-124.485 814.892,-123.326"/>
<polygon fill="midnightblue" stroke="midnightblue" points="816.916,-126.194 823.694,-118.05 813.317,-120.19 816.916,-126.194"/>
</g>
<!-- Node12&#45;&gt;Node9 -->
<g id="edge13" class="edge"><title>Node12&#45;&gt;Node9</title>
<path fill="none" stroke="midnightblue" d="M973.937,-216.056C985.659,-220.061 997.497,-224.993 1008,-231 1026.84,-241.776 1024.53,-254.402 1044,-264 1048.91,-266.42 1054.08,-268.537 1059.39,-270.387"/>
<polygon fill="midnightblue" stroke="midnightblue" points="1058.48,-273.769 1069.06,-273.438 1060.58,-267.093 1058.48,-273.769"/>
</g>
<!-- Node13 -->
<g id="node13" class="node"><title>Node13</title>
<g id="a_node13"><a xlink:href="../../d5/d1d/classcommands_1_1_command_factory.html#adcf456039b5d7285082f1e009f3d30b6" target="_top" xlink:title="commands.CommandFactory.checkCaps">
<polygon fill="white" stroke="black" points="1047,-235.5 1047,-254.5 1259,-254.5 1259,-235.5 1047,-235.5"/>
<text text-anchor="middle" x="1153" y="-242.5" font-family="Helvetica,sans-Serif" font-size="10.00">commands.CommandFactory.checkCaps</text>
</a>
</g>
</g>
<!-- Node12&#45;&gt;Node13 -->
<g id="edge14" class="edge"><title>Node12&#45;&gt;Node13</title>
<path fill="none" stroke="midnightblue" d="M992.606,-216.019C1024.33,-221.787 1059.98,-228.269 1089.51,-233.638"/>
<polygon fill="midnightblue" stroke="midnightblue" points="1089.22,-237.142 1099.68,-235.488 1090.47,-230.255 1089.22,-237.142"/>
</g>
<!-- Node14 -->
<g id="node14" class="node"><title>Node14</title>
<g id="a_node14"><a xlink:href="../../d5/d1d/classcommands_1_1_command_factory.html#acae1571442d9f8e040df95c8a2742d8d" target="_top" xlink:title="commands.CommandFactory.check\lLanguage">
<polygon fill="white" stroke="black" points="1059,-186 1059,-216 1247,-216 1247,-186 1059,-186"/>
<text text-anchor="start" x="1067" y="-204" font-family="Helvetica,sans-Serif" font-size="10.00">commands.CommandFactory.check</text>
<text text-anchor="middle" x="1153" y="-193" font-family="Helvetica,sans-Serif" font-size="10.00">Language</text>
</a>
</g>
</g>
<!-- Node12&#45;&gt;Node14 -->
<g id="edge15" class="edge"><title>Node12&#45;&gt;Node14</title>
<path fill="none" stroke="midnightblue" d="M1000.11,-201C1016.03,-201 1032.7,-201 1048.94,-201"/>
<polygon fill="midnightblue" stroke="midnightblue" points="1048.98,-204.5 1058.98,-201 1048.98,-197.5 1048.98,-204.5"/>
</g>
<!-- Node16 -->
<g id="node16" class="node"><title>Node16</title>
<g id="a_node16"><a xlink:href="../../d5/d62/classcommands_1_1templates_1_1_command.html#a20741a5e32e24ff113701f7b2957e658" target="_top" xlink:title="commands.templates.Command.initialize\lCommand">
<polygon fill="white" stroke="black" points="1044.5,-137 1044.5,-167 1261.5,-167 1261.5,-137 1044.5,-137"/>
<text text-anchor="start" x="1052.5" y="-155" font-family="Helvetica,sans-Serif" font-size="10.00">commands.templates.Command.initialize</text>
<text text-anchor="middle" x="1153" y="-144" font-family="Helvetica,sans-Serif" font-size="10.00">Command</text>
</a>
</g>
</g>
<!-- Node12&#45;&gt;Node16 -->
<g id="edge17" class="edge"><title>Node12&#45;&gt;Node16</title>
<path fill="none" stroke="midnightblue" d="M984.253,-185.965C1010.73,-180.604 1040.74,-174.527 1067.99,-169.011"/>
<polygon fill="midnightblue" stroke="midnightblue" points="1068.78,-172.421 1077.89,-167.006 1067.39,-165.56 1068.78,-172.421"/>
</g>
<!-- Node17 -->
<g id="node17" class="node"><title>Node17</title>
<g id="a_node17"><a xlink:href="../../d5/d1d/classcommands_1_1_command_factory.html#a221a82baff222f4552a38b521efd78b6" target="_top" xlink:title="commands.CommandFactory.checkVar">
<polygon fill="white" stroke="black" points="1051.5,-98.5 1051.5,-117.5 1254.5,-117.5 1254.5,-98.5 1051.5,-98.5"/>
<text text-anchor="middle" x="1153" y="-105.5" font-family="Helvetica,sans-Serif" font-size="10.00">commands.CommandFactory.checkVar</text>
</a>
</g>
</g>
<!-- Node12&#45;&gt;Node17 -->
<g id="edge18" class="edge"><title>Node12&#45;&gt;Node17</title>
<path fill="none" stroke="midnightblue" d="M989.633,-185.819C996.101,-183.073 1002.32,-179.83 1008,-176 1030.4,-160.887 1021.04,-141.255 1044,-127 1047.36,-124.913 1050.89,-123.04 1054.53,-121.359"/>
<polygon fill="midnightblue" stroke="midnightblue" points="1055.87,-124.592 1063.8,-117.566 1053.22,-118.113 1055.87,-124.592"/>
</g>
<!-- Node18 -->
<g id="node18" class="node"><title>Node18</title>
<g id="a_node18"><a xlink:href="../../d5/d1d/classcommands_1_1_command_factory.html#aa562012b61b9b1701eada2bea8caa1d8" target="_top" xlink:title="commands.CommandFactory.is\lNumeric">
<polygon fill="white" stroke="black" points="1069.5,-49 1069.5,-79 1236.5,-79 1236.5,-49 1069.5,-49"/>
<text text-anchor="start" x="1077.5" y="-67" font-family="Helvetica,sans-Serif" font-size="10.00">commands.CommandFactory.is</text>
<text text-anchor="middle" x="1153" y="-56" font-family="Helvetica,sans-Serif" font-size="10.00">Numeric</text>
</a>
</g>
</g>
<!-- Node12&#45;&gt;Node18 -->
<g id="edge19" class="edge"><title>Node12&#45;&gt;Node18</title>
<path fill="none" stroke="midnightblue" d="M993.567,-185.778C998.743,-183.027 1003.62,-179.795 1008,-176 1039.62,-148.593 1012.07,-116.053 1044,-89 1048.87,-84.8766 1054.28,-81.4019 1060.02,-78.4769"/>
<polygon fill="midnightblue" stroke="midnightblue" points="1061.6,-81.6082 1069.28,-74.3188 1058.73,-75.2224 1061.6,-81.6082"/>
</g>
<!-- Node19 -->
<g id="node19" class="node"><title>Node19</title>
<g id="a_node19"><a xlink:href="../../d5/d1d/classcommands_1_1_command_factory.html#a9206a1ef0f863c61cb5c894da3133ef8" target="_top" xlink:title="commands.CommandFactory.check\lUserCommand">
<polygon fill="white" stroke="black" points="1059,-0 1059,-30 1247,-30 1247,-0 1059,-0"/>
<text text-anchor="start" x="1067" y="-18" font-family="Helvetica,sans-Serif" font-size="10.00">commands.CommandFactory.check</text>
<text text-anchor="middle" x="1153" y="-7" font-family="Helvetica,sans-Serif" font-size="10.00">UserCommand</text>
</a>
</g>
</g>
<!-- Node12&#45;&gt;Node19 -->
<g id="edge20" class="edge"><title>Node12&#45;&gt;Node19</title>
<path fill="none" stroke="midnightblue" d="M995.085,-185.899C999.773,-183.108 1004.14,-179.835 1008,-176 1052.68,-131.644 998.639,-82.6561 1044,-39 1045.94,-37.1353 1047.99,-35.4028 1050.13,-33.7936"/>
<polygon fill="midnightblue" stroke="midnightblue" points="1052.31,-36.5476 1058.81,-28.1792 1048.51,-30.669 1052.31,-36.5476"/>
</g>
<!-- Node15 -->
<g id="node15" class="node"><title>Node15</title>
<g id="a_node15"><a xlink:href="../../d8/de9/classmain_1_1_resource_finder.html#abbbd9c7b9078fd263f546d15bba68d22" target="_top" xlink:title="main.ResourceFinder.getMy\lLanguageResources">
<polygon fill="white" stroke="black" points="1298.5,-186 1298.5,-216 1445.5,-216 1445.5,-186 1298.5,-186"/>
<text text-anchor="start" x="1306.5" y="-204" font-family="Helvetica,sans-Serif" font-size="10.00">main.ResourceFinder.getMy</text>
<text text-anchor="middle" x="1372" y="-193" font-family="Helvetica,sans-Serif" font-size="10.00">LanguageResources</text>
</a>
</g>
</g>
<!-- Node14&#45;&gt;Node15 -->
<g id="edge16" class="edge"><title>Node14&#45;&gt;Node15</title>
<path fill="none" stroke="midnightblue" d="M1247.29,-201C1260.93,-201 1274.89,-201 1288.3,-201"/>
<polygon fill="midnightblue" stroke="midnightblue" points="1288.43,-204.5 1298.43,-201 1288.43,-197.5 1288.43,-204.5"/>
</g>
<!-- Node23&#45;&gt;Node5 -->
<g id="edge28" class="edge"><title>Node23&#45;&gt;Node5</title>
<path fill="none" stroke="midnightblue" d="M319.457,-345.54C346.154,-350.69 379.304,-357.084 407.415,-362.506"/>
<polygon fill="midnightblue" stroke="midnightblue" points="407.041,-365.999 417.523,-364.456 408.366,-359.125 407.041,-365.999"/>
</g>
<!-- Node24 -->
<g id="node24" class="node"><title>Node24</title>
<g id="a_node24"><a xlink:href="../../d8/dfc/classpanels_1_1_parameter_panel.html#a0bf8e32fe635c48c8a057062e0534b62" target="_top" xlink:title="panels.ParameterPanel.update\lVariables">
<polygon fill="white" stroke="black" points="386,-313 386,-343 550,-343 550,-313 386,-313"/>
<text text-anchor="start" x="394" y="-331" font-family="Helvetica,sans-Serif" font-size="10.00">panels.ParameterPanel.update</text>
<text text-anchor="middle" x="468" y="-320" font-family="Helvetica,sans-Serif" font-size="10.00">Variables</text>
</a>
</g>
</g>
<!-- Node23&#45;&gt;Node24 -->
<g id="edge25" class="edge"><title>Node23&#45;&gt;Node24</title>
<path fill="none" stroke="midnightblue" d="M349.56,-332.769C358.156,-332.42 366.952,-332.063 375.673,-331.709"/>
<polygon fill="midnightblue" stroke="midnightblue" points="376.01,-335.198 385.86,-331.295 375.726,-328.204 376.01,-335.198"/>
</g>
<!-- Node25 -->
<g id="node25" class="node"><title>Node25</title>
<g id="a_node25"><a xlink:href="../../d0/d8f/classtitle_panes_1_1_variable_title_pane.html#a395dd58ae72e6111fce8e99be3c03842" target="_top" xlink:title="titlePanes.VariableTitle\lPane.updateVariables">
<polygon fill="white" stroke="black" points="618,-312 618,-342 742,-342 742,-312 618,-312"/>
<text text-anchor="start" x="626" y="-330" font-family="Helvetica,sans-Serif" font-size="10.00">titlePanes.VariableTitle</text>
<text text-anchor="middle" x="680" y="-319" font-family="Helvetica,sans-Serif" font-size="10.00">Pane.updateVariables</text>
</a>
</g>
</g>
<!-- Node24&#45;&gt;Node25 -->
<g id="edge26" class="edge"><title>Node24&#45;&gt;Node25</title>
<path fill="none" stroke="midnightblue" d="M550.191,-327.613C569.181,-327.523 589.268,-327.427 607.785,-327.339"/>
<polygon fill="midnightblue" stroke="midnightblue" points="607.911,-330.839 617.895,-327.291 607.878,-323.839 607.911,-330.839"/>
</g>
<!-- Node26 -->
<g id="node26" class="node"><title>Node26</title>
<g id="a_node26"><a xlink:href="../../d0/d8f/classtitle_panes_1_1_variable_title_pane.html#a007ec1abdc73761490261f283e07338e" target="_top" xlink:title="titlePanes.VariableTitle\lPane.writeVariables">
<polygon fill="white" stroke="black" points="847,-312 847,-342 971,-342 971,-312 847,-312"/>
<text text-anchor="start" x="855" y="-330" font-family="Helvetica,sans-Serif" font-size="10.00">titlePanes.VariableTitle</text>
<text text-anchor="middle" x="909" y="-319" font-family="Helvetica,sans-Serif" font-size="10.00">Pane.writeVariables</text>
</a>
</g>
</g>
<!-- Node25&#45;&gt;Node26 -->
<g id="edge27" class="edge"><title>Node25&#45;&gt;Node26</title>
<path fill="none" stroke="midnightblue" d="M742.13,-327C771.271,-327 806.311,-327 836.662,-327"/>
<polygon fill="midnightblue" stroke="midnightblue" points="836.76,-330.5 846.76,-327 836.76,-323.5 836.76,-330.5"/>
</g>
</g>
</svg>
