<?xml version="1.0" encoding="UTF-8" standalone="no"?>
<!DOCTYPE svg PUBLIC "-//W3C//DTD SVG 1.1//EN"
 "http://www.w3.org/Graphics/SVG/1.1/DTD/svg11.dtd">
<!-- Generated by graphviz version 2.36.0 (20140111.2315)
 -->
<!-- Title: backEnd.Controller.move10 Pages: 1 -->
<!--zoomable 360 -->
<svg id="main" version="1.1" xmlns="http://www.w3.org/2000/svg" xmlns:xlink="http://www.w3.org/1999/xlink" xml:space="preserve" onload="init(evt)">
<style type="text/css"><![CDATA[
.edge:hover path { stroke: red; }
.edge:hover polygon { stroke: red; fill: red; }
]]></style>
<script type="text/javascript"><![CDATA[
var edges = document.getElementsByTagName('g');
if (edges && edges.length) {
  for (var i=0;i<edges.length;i++) {
    if (edges[i].id.substr(0,4)=='edge') {
      edges[i].setAttribute('class','edge');
    }
  }
}
]]></script>
        <defs>
                <circle id="rim" cx="0" cy="0" r="7"/>
                <circle id="rim2" cx="0" cy="0" r="3.5"/>
                <g id="zoomPlus">
                        <use xlink:href="#rim" fill="#404040">
                                <set attributeName="fill" to="#808080" begin="zoomplus.mouseover" end="zoomplus.mouseout"/>
                        </use>
                        <path d="M-4,0h8M0,-4v8" fill="none" stroke="white" stroke-width="1.5" pointer-events="none"/>
                </g>
                <g id="zoomMin">
                        <use xlink:href="#rim" fill="#404040">
                                <set attributeName="fill" to="#808080" begin="zoomminus.mouseover" end="zoomminus.mouseout"/>
                        </use>
                        <path d="M-4,0h8" fill="none" stroke="white" stroke-width="1.5" pointer-events="none"/>
                </g>
                <g id="dirArrow">
                        <path fill="none" stroke="white" stroke-width="1.5" d="M0,-3.0v7 M-2.5,-0.5L0,-3.0L2.5,-0.5"/>
                </g>
               <g id="resetDef">
                       <use xlink:href="#rim2" fill="#404040">
                               <set attributeName="fill" to="#808080" begin="reset.mouseover" end="reset.mouseout"/>
                       </use>
               </g>
        </defs>

<script type="text/javascript">
var viewWidth = 1638;
var viewHeight = 360;
var sectionId = 'dynsection-12';
</script>
<script xlink:href="../../svgpan.js"/>
<svg id="graph" class="graph">
<g id="viewport">
<title>backEnd.Controller.move10</title>
<polygon fill="white" stroke="none" points="-4,4 -4,-356.193 1634,-356.193 1634,4 -4,4"/>
<!-- Node1 -->
<g id="node1" class="node"><title>Node1</title>
<polygon fill="#bfbfbf" stroke="black" points="0,-232.5 0,-251.5 148,-251.5 148,-232.5 0,-232.5"/>
<text text-anchor="middle" x="74" y="-239.5" font-family="Helvetica,sans-Serif" font-size="10.00">backEnd.Controller.move10</text>
</g>
<!-- Node2 -->
<g id="node2" class="node"><title>Node2</title>
<g id="a_node2"><a xlink:href="../../d8/de9/classmain_1_1_resource_finder.html#abbbd9c7b9078fd263f546d15bba68d22" target="_top" xlink:title="main.ResourceFinder.getMy\lLanguageResources">
<polygon fill="white" stroke="black" points="1482.5,-296 1482.5,-326 1629.5,-326 1629.5,-296 1482.5,-296"/>
<text text-anchor="start" x="1490.5" y="-314" font-family="Helvetica,sans-Serif" font-size="10.00">main.ResourceFinder.getMy</text>
<text text-anchor="middle" x="1556" y="-303" font-family="Helvetica,sans-Serif" font-size="10.00">LanguageResources</text>
</a>
</g>
</g>
<!-- Node1&#45;&gt;Node2 -->
<g id="edge1" class="edge"><title>Node1&#45;&gt;Node2</title>
<path fill="none" stroke="midnightblue" d="M93.6587,-251.569C147.628,-278.332 309.162,-352 452,-352 452,-352 452,-352 1094,-352 1250.67,-352 1290.58,-352.773 1446,-333 1456.56,-331.657 1467.62,-329.872 1478.49,-327.898"/>
<polygon fill="midnightblue" stroke="midnightblue" points="1479.2,-331.325 1488.39,-326.039 1477.91,-324.445 1479.2,-331.325"/>
</g>
<!-- Node3 -->
<g id="node3" class="node"><title>Node3</title>
<g id="a_node3"><a xlink:href="../../d9/d49/classback_end_1_1_controller.html#ad650f48d236eaf11c2d8591b04831900" target="_top" xlink:title="backEnd.Controller.runScript">
<polygon fill="white" stroke="black" points="184,-122.5 184,-141.5 336,-141.5 336,-122.5 184,-122.5"/>
<text text-anchor="middle" x="260" y="-129.5" font-family="Helvetica,sans-Serif" font-size="10.00">backEnd.Controller.runScript</text>
</a>
</g>
</g>
<!-- Node1&#45;&gt;Node3 -->
<g id="edge2" class="edge"><title>Node1&#45;&gt;Node3</title>
<path fill="none" stroke="midnightblue" d="M91.0069,-232.431C123.087,-213.252 195.459,-169.986 233.902,-147.004"/>
<polygon fill="midnightblue" stroke="midnightblue" points="236.112,-149.761 242.899,-141.626 232.52,-143.753 236.112,-149.761"/>
</g>
<!-- Node4 -->
<g id="node4" class="node"><title>Node4</title>
<g id="a_node4"><a xlink:href="../../d9/d98/classback_end_1_1_model.html#ade764fd1c85a48fabb9abf3dfe8b8ceb" target="_top" xlink:title="backEnd.Model.runScript">
<polygon fill="white" stroke="black" points="385.5,-178.5 385.5,-197.5 520.5,-197.5 520.5,-178.5 385.5,-178.5"/>
<text text-anchor="middle" x="453" y="-185.5" font-family="Helvetica,sans-Serif" font-size="10.00">backEnd.Model.runScript</text>
</a>
</g>
</g>
<!-- Node3&#45;&gt;Node4 -->
<g id="edge3" class="edge"><title>Node3&#45;&gt;Node4</title>
<path fill="none" stroke="midnightblue" d="M293.834,-141.627C325.869,-151.019 374.749,-165.35 409.685,-175.594"/>
<polygon fill="midnightblue" stroke="midnightblue" points="409.014,-179.044 419.594,-178.499 410.983,-172.327 409.014,-179.044"/>
</g>
<!-- Node19 -->
<g id="node19" class="node"><title>Node19</title>
<g id="a_node19"><a xlink:href="../../d8/d1f/classfront_end_1_1_view.html#a22669dd74ac845d66d5b59ddeba13b5e" target="_top" xlink:title="frontEnd.View.printException">
<polygon fill="white" stroke="black" points="576,-103.5 576,-122.5 728,-122.5 728,-103.5 576,-103.5"/>
<text text-anchor="middle" x="652" y="-110.5" font-family="Helvetica,sans-Serif" font-size="10.00">frontEnd.View.printException</text>
</a>
</g>
</g>
<!-- Node3&#45;&gt;Node19 -->
<g id="edge21" class="edge"><title>Node3&#45;&gt;Node19</title>
<path fill="none" stroke="midnightblue" d="M336.196,-128.337C401.779,-125.142 496.88,-120.508 565.373,-117.172"/>
<polygon fill="midnightblue" stroke="midnightblue" points="565.885,-120.651 575.703,-116.668 565.545,-113.659 565.885,-120.651"/>
</g>
<!-- Node21 -->
<g id="node21" class="node"><title>Node21</title>
<g id="a_node21"><a xlink:href="../../d8/d1f/classfront_end_1_1_view.html#a88014d18898a5c72ba7893e0d865a218" target="_top" xlink:title="frontEnd.View.addToHistory">
<polygon fill="white" stroke="black" points="380,-27.5 380,-46.5 526,-46.5 526,-27.5 380,-27.5"/>
<text text-anchor="middle" x="453" y="-34.5" font-family="Helvetica,sans-Serif" font-size="10.00">frontEnd.View.addToHistory</text>
</a>
</g>
</g>
<!-- Node3&#45;&gt;Node21 -->
<g id="edge23" class="edge"><title>Node3&#45;&gt;Node21</title>
<path fill="none" stroke="midnightblue" d="M279.374,-122.344C301.316,-110.864 339.177,-91.218 372,-75 388.51,-66.8423 407.081,-58.0005 422.172,-50.9001"/>
<polygon fill="midnightblue" stroke="midnightblue" points="423.963,-53.9262 431.53,-46.5104 420.99,-47.5888 423.963,-53.9262"/>
</g>
<!-- Node24 -->
<g id="node24" class="node"><title>Node24</title>
<g id="a_node24"><a xlink:href="../../d8/d1f/classfront_end_1_1_view.html#a59fa2dbe984da3217324979184d00559" target="_top" xlink:title="frontEnd.View.updateVariables">
<polygon fill="white" stroke="black" points="372.5,-84.5 372.5,-103.5 533.5,-103.5 533.5,-84.5 372.5,-84.5"/>
<text text-anchor="middle" x="453" y="-91.5" font-family="Helvetica,sans-Serif" font-size="10.00">frontEnd.View.updateVariables</text>
</a>
</g>
</g>
<!-- Node3&#45;&gt;Node24 -->
<g id="edge26" class="edge"><title>Node3&#45;&gt;Node24</title>
<path fill="none" stroke="midnightblue" d="M309.197,-122.411C334.97,-117.284 366.891,-110.933 394.012,-105.537"/>
<polygon fill="midnightblue" stroke="midnightblue" points="395.024,-108.904 404.149,-103.52 393.658,-102.039 395.024,-108.904"/>
</g>
<!-- Node5 -->
<g id="node5" class="node"><title>Node5</title>
<g id="a_node5"><a xlink:href="../../d9/d1e/classback_end_1_1_parser.html#a163b8afd814babc8e7df59993f0d6440" target="_top" xlink:title="backEnd.Parser.parseScript">
<polygon fill="white" stroke="black" points="578.5,-196.5 578.5,-215.5 725.5,-215.5 725.5,-196.5 578.5,-196.5"/>
<text text-anchor="middle" x="652" y="-203.5" font-family="Helvetica,sans-Serif" font-size="10.00">backEnd.Parser.parseScript</text>
</a>
</g>
</g>
<!-- Node4&#45;&gt;Node5 -->
<g id="edge4" class="edge"><title>Node4&#45;&gt;Node5</title>
<path fill="none" stroke="midnightblue" d="M520.695,-194.094C535.895,-195.483 552.227,-196.975 568.014,-198.417"/>
<polygon fill="midnightblue" stroke="midnightblue" points="568.015,-201.932 578.292,-199.357 568.652,-194.961 568.015,-201.932"/>
</g>
<!-- Node6 -->
<g id="node6" class="node"><title>Node6</title>
<g id="a_node6"><a xlink:href="../../d9/d98/classback_end_1_1_model.html#a6b39dd199a5957068c032bb023f4b613" target="_top" xlink:title="backEnd.Model.getCommandsMap">
<polygon fill="white" stroke="black" points="1245.5,-304.5 1245.5,-323.5 1428.5,-323.5 1428.5,-304.5 1245.5,-304.5"/>
<text text-anchor="middle" x="1337" y="-311.5" font-family="Helvetica,sans-Serif" font-size="10.00">backEnd.Model.getCommandsMap</text>
</a>
</g>
</g>
<!-- Node5&#45;&gt;Node6 -->
<g id="edge5" class="edge"><title>Node5&#45;&gt;Node6</title>
<path fill="none" stroke="midnightblue" d="M668.611,-215.632C690.44,-228.617 731.714,-251.44 770,-263 927.466,-310.546 1119.89,-317.794 1234.95,-317.066"/>
<polygon fill="midnightblue" stroke="midnightblue" points="1235.18,-320.565 1245.15,-316.98 1235.12,-313.565 1235.18,-320.565"/>
</g>
<!-- Node7 -->
<g id="node7" class="node"><title>Node7</title>
<g id="a_node7"><a xlink:href="../../d9/d1e/classback_end_1_1_parser.html#a71653c0a9d02d4b400e357b978260de6" target="_top" xlink:title="backEnd.Parser.removeComments">
<polygon fill="white" stroke="black" points="773,-196.5 773,-215.5 955,-215.5 955,-196.5 773,-196.5"/>
<text text-anchor="middle" x="864" y="-203.5" font-family="Helvetica,sans-Serif" font-size="10.00">backEnd.Parser.removeComments</text>
</a>
</g>
</g>
<!-- Node5&#45;&gt;Node7 -->
<g id="edge6" class="edge"><title>Node5&#45;&gt;Node7</title>
<path fill="none" stroke="midnightblue" d="M725.564,-206C737.538,-206 750.136,-206 762.646,-206"/>
<polygon fill="midnightblue" stroke="midnightblue" points="762.646,-209.5 772.646,-206 762.646,-202.5 762.646,-209.5"/>
</g>
<!-- Node8 -->
<g id="node8" class="node"><title>Node8</title>
<g id="a_node8"><a xlink:href="../../d9/d1e/classback_end_1_1_parser.html#a653298ad53a1eea540beded2bb558ab4" target="_top" xlink:title="backEnd.Parser.makeTree">
<polygon fill="white" stroke="black" points="794.5,-234.5 794.5,-253.5 933.5,-253.5 933.5,-234.5 794.5,-234.5"/>
<text text-anchor="middle" x="864" y="-241.5" font-family="Helvetica,sans-Serif" font-size="10.00">backEnd.Parser.makeTree</text>
</a>
</g>
</g>
<!-- Node5&#45;&gt;Node8 -->
<g id="edge7" class="edge"><title>Node5&#45;&gt;Node8</title>
<path fill="none" stroke="midnightblue" d="M705.721,-215.54C734.429,-220.735 770.137,-227.196 800.27,-232.649"/>
<polygon fill="midnightblue" stroke="midnightblue" points="799.794,-236.12 810.258,-234.456 801.041,-229.231 799.794,-236.12"/>
</g>
<!-- Node18 -->
<g id="node18" class="node"><title>Node18</title>
<g id="a_node18"><a xlink:href="../../d5/d62/classcommands_1_1templates_1_1_command.html#aa1c27b6285999798be609159ee5c7a83" target="_top" xlink:title="commands.templates.Command.to\lString">
<polygon fill="white" stroke="black" points="770,-147 770,-177 958,-177 958,-147 770,-147"/>
<text text-anchor="start" x="778" y="-165" font-family="Helvetica,sans-Serif" font-size="10.00">commands.templates.Command.to</text>
<text text-anchor="middle" x="864" y="-154" font-family="Helvetica,sans-Serif" font-size="10.00">String</text>
</a>
</g>
</g>
<!-- Node5&#45;&gt;Node18 -->
<g id="edge20" class="edge"><title>Node5&#45;&gt;Node18</title>
<path fill="none" stroke="midnightblue" d="M698.567,-196.453C722.738,-191.388 753.175,-185.011 781.271,-179.124"/>
<polygon fill="midnightblue" stroke="midnightblue" points="782.027,-182.542 791.097,-177.065 780.592,-175.691 782.027,-182.542"/>
</g>
<!-- Node8&#45;&gt;Node6 -->
<g id="edge8" class="edge"><title>Node8&#45;&gt;Node6</title>
<path fill="none" stroke="midnightblue" d="M929.011,-253.513C1015.68,-266.394 1170.04,-289.334 1261.71,-302.959"/>
<polygon fill="midnightblue" stroke="midnightblue" points="1261.35,-306.443 1271.75,-304.451 1262.37,-299.519 1261.35,-306.443"/>
</g>
<!-- Node9 -->
<g id="node9" class="node"><title>Node9</title>
<g id="a_node9"><a xlink:href="../../d5/d1d/classcommands_1_1_command_factory.html#ac77125dd466e3e01fce01fc527e7f815" target="_top" xlink:title="commands.CommandFactory.build\lCommand">
<polygon fill="white" stroke="black" points="1002,-212 1002,-242 1184,-242 1184,-212 1002,-212"/>
<text text-anchor="start" x="1010" y="-230" font-family="Helvetica,sans-Serif" font-size="10.00">commands.CommandFactory.build</text>
<text text-anchor="middle" x="1093" y="-219" font-family="Helvetica,sans-Serif" font-size="10.00">Command</text>
</a>
</g>
</g>
<!-- Node8&#45;&gt;Node9 -->
<g id="edge9" class="edge"><title>Node8&#45;&gt;Node9</title>
<path fill="none" stroke="midnightblue" d="M933.724,-238.853C951.948,-237.489 972.006,-235.986 991.542,-234.523"/>
<polygon fill="midnightblue" stroke="midnightblue" points="991.987,-238 1001.7,-233.763 991.464,-231.019 991.987,-238"/>
</g>
<!-- Node16 -->
<g id="node16" class="node"><title>Node16</title>
<g id="a_node16"><a xlink:href="../../d5/d62/classcommands_1_1templates_1_1_command.html#a9ab84f2a1491a7283311891b8a6082dc" target="_top" xlink:title="commands.templates.Command.add\lChild">
<polygon fill="white" stroke="black" points="994.5,-163 994.5,-193 1191.5,-193 1191.5,-163 994.5,-163"/>
<text text-anchor="start" x="1002.5" y="-181" font-family="Helvetica,sans-Serif" font-size="10.00">commands.templates.Command.add</text>
<text text-anchor="middle" x="1093" y="-170" font-family="Helvetica,sans-Serif" font-size="10.00">Child</text>
</a>
</g>
</g>
<!-- Node8&#45;&gt;Node16 -->
<g id="edge18" class="edge"><title>Node8&#45;&gt;Node16</title>
<path fill="none" stroke="midnightblue" d="M927.964,-234.415C938.193,-231.931 948.531,-228.837 958,-225 975.597,-217.869 976.544,-209.47 994,-202 998.932,-199.89 1004.09,-197.941 1009.34,-196.145"/>
<polygon fill="midnightblue" stroke="midnightblue" points="1010.43,-199.471 1018.87,-193.075 1008.28,-192.808 1010.43,-199.471"/>
</g>
<!-- Node17 -->
<g id="node17" class="node"><title>Node17</title>
<g id="a_node17"><a xlink:href="../../d5/d62/classcommands_1_1templates_1_1_command.html#a0ca025dffda489d73ba4b6c12c7118fe" target="_top" xlink:title="commands.templates.Command.get\lNumChildrenNeeded">
<polygon fill="white" stroke="black" points="996,-114 996,-144 1190,-144 1190,-114 996,-114"/>
<text text-anchor="start" x="1004" y="-132" font-family="Helvetica,sans-Serif" font-size="10.00">commands.templates.Command.get</text>
<text text-anchor="middle" x="1093" y="-121" font-family="Helvetica,sans-Serif" font-size="10.00">NumChildrenNeeded</text>
</a>
</g>
</g>
<!-- Node8&#45;&gt;Node17 -->
<g id="edge19" class="edge"><title>Node8&#45;&gt;Node17</title>
<path fill="none" stroke="midnightblue" d="M933.666,-237.456C942.414,-234.54 950.808,-230.516 958,-225 986.387,-203.225 966.039,-175.32 994,-153 995.591,-151.73 997.24,-150.525 998.939,-149.383"/>
<polygon fill="midnightblue" stroke="midnightblue" points="1000.95,-152.262 1007.8,-144.179 997.403,-146.226 1000.95,-152.262"/>
</g>
<!-- Node9&#45;&gt;Node6 -->
<g id="edge10" class="edge"><title>Node9&#45;&gt;Node6</title>
<path fill="none" stroke="midnightblue" d="M1152.33,-242.04C1165.85,-246.76 1179.84,-252.698 1192,-260 1210.87,-271.331 1208.38,-284.033 1228,-294 1233.63,-296.862 1239.62,-299.318 1245.77,-301.425"/>
<polygon fill="midnightblue" stroke="midnightblue" points="1244.96,-304.838 1255.55,-304.458 1247.03,-298.152 1244.96,-304.838"/>
</g>
<!-- Node10 -->
<g id="node10" class="node"><title>Node10</title>
<g id="a_node10"><a xlink:href="../../d5/d1d/classcommands_1_1_command_factory.html#adcf456039b5d7285082f1e009f3d30b6" target="_top" xlink:title="commands.CommandFactory.checkCaps">
<polygon fill="white" stroke="black" points="1231,-216.5 1231,-235.5 1443,-235.5 1443,-216.5 1231,-216.5"/>
<text text-anchor="middle" x="1337" y="-223.5" font-family="Helvetica,sans-Serif" font-size="10.00">commands.CommandFactory.checkCaps</text>
</a>
</g>
</g>
<!-- Node9&#45;&gt;Node10 -->
<g id="edge11" class="edge"><title>Node9&#45;&gt;Node10</title>
<path fill="none" stroke="midnightblue" d="M1184.11,-226.628C1195.98,-226.579 1208.26,-226.528 1220.48,-226.477"/>
<polygon fill="midnightblue" stroke="midnightblue" points="1220.72,-229.976 1230.71,-226.435 1220.69,-222.977 1220.72,-229.976"/>
</g>
<!-- Node11 -->
<g id="node11" class="node"><title>Node11</title>
<g id="a_node11"><a xlink:href="../../d5/d1d/classcommands_1_1_command_factory.html#acae1571442d9f8e040df95c8a2742d8d" target="_top" xlink:title="commands.CommandFactory.check\lLanguage">
<polygon fill="white" stroke="black" points="1243,-255 1243,-285 1431,-285 1431,-255 1243,-255"/>
<text text-anchor="start" x="1251" y="-273" font-family="Helvetica,sans-Serif" font-size="10.00">commands.CommandFactory.check</text>
<text text-anchor="middle" x="1337" y="-262" font-family="Helvetica,sans-Serif" font-size="10.00">Language</text>
</a>
</g>
</g>
<!-- Node9&#45;&gt;Node11 -->
<g id="edge12" class="edge"><title>Node9&#45;&gt;Node11</title>
<path fill="none" stroke="midnightblue" d="M1178.64,-242.039C1198.9,-245.64 1220.67,-249.507 1241.35,-253.182"/>
<polygon fill="midnightblue" stroke="midnightblue" points="1240.95,-256.666 1251.41,-254.969 1242.17,-249.774 1240.95,-256.666"/>
</g>
<!-- Node12 -->
<g id="node12" class="node"><title>Node12</title>
<g id="a_node12"><a xlink:href="../../d5/d62/classcommands_1_1templates_1_1_command.html#a20741a5e32e24ff113701f7b2957e658" target="_top" xlink:title="commands.templates.Command.initialize\lCommand">
<polygon fill="white" stroke="black" points="1228.5,-167 1228.5,-197 1445.5,-197 1445.5,-167 1228.5,-167"/>
<text text-anchor="start" x="1236.5" y="-185" font-family="Helvetica,sans-Serif" font-size="10.00">commands.templates.Command.initialize</text>
<text text-anchor="middle" x="1337" y="-174" font-family="Helvetica,sans-Serif" font-size="10.00">Command</text>
</a>
</g>
</g>
<!-- Node9&#45;&gt;Node12 -->
<g id="edge14" class="edge"><title>Node9&#45;&gt;Node12</title>
<path fill="none" stroke="midnightblue" d="M1174.92,-211.953C1197.42,-207.769 1222.01,-203.197 1245.04,-198.913"/>
<polygon fill="midnightblue" stroke="midnightblue" points="1245.97,-202.302 1255.16,-197.033 1244.69,-195.42 1245.97,-202.302"/>
</g>
<!-- Node13 -->
<g id="node13" class="node"><title>Node13</title>
<g id="a_node13"><a xlink:href="../../d5/d1d/classcommands_1_1_command_factory.html#a221a82baff222f4552a38b521efd78b6" target="_top" xlink:title="commands.CommandFactory.checkVar">
<polygon fill="white" stroke="black" points="1235.5,-128.5 1235.5,-147.5 1438.5,-147.5 1438.5,-128.5 1235.5,-128.5"/>
<text text-anchor="middle" x="1337" y="-135.5" font-family="Helvetica,sans-Serif" font-size="10.00">commands.CommandFactory.checkVar</text>
</a>
</g>
</g>
<!-- Node9&#45;&gt;Node13 -->
<g id="edge15" class="edge"><title>Node9&#45;&gt;Node13</title>
<path fill="none" stroke="midnightblue" d="M1172.46,-211.976C1179.32,-209.196 1185.95,-205.903 1192,-202 1213.52,-188.116 1205.97,-170.06 1228,-157 1231.64,-154.843 1235.46,-152.917 1239.4,-151.199"/>
<polygon fill="midnightblue" stroke="midnightblue" points="1240.74,-154.434 1248.8,-147.555 1238.21,-147.907 1240.74,-154.434"/>
</g>
<!-- Node14 -->
<g id="node14" class="node"><title>Node14</title>
<g id="a_node14"><a xlink:href="../../d5/d1d/classcommands_1_1_command_factory.html#aa562012b61b9b1701eada2bea8caa1d8" target="_top" xlink:title="commands.CommandFactory.is\lNumeric">
<polygon fill="white" stroke="black" points="1253.5,-79 1253.5,-109 1420.5,-109 1420.5,-79 1253.5,-79"/>
<text text-anchor="start" x="1261.5" y="-97" font-family="Helvetica,sans-Serif" font-size="10.00">commands.CommandFactory.is</text>
<text text-anchor="middle" x="1337" y="-86" font-family="Helvetica,sans-Serif" font-size="10.00">Numeric</text>
</a>
</g>
</g>
<!-- Node9&#45;&gt;Node14 -->
<g id="edge16" class="edge"><title>Node9&#45;&gt;Node14</title>
<path fill="none" stroke="midnightblue" d="M1177.02,-211.941C1182.39,-209.156 1187.46,-205.872 1192,-202 1222.61,-175.923 1197.1,-144.734 1228,-119 1232.9,-114.918 1238.34,-111.474 1244.1,-108.571"/>
<polygon fill="midnightblue" stroke="midnightblue" points="1245.67,-111.703 1253.39,-104.44 1242.83,-105.308 1245.67,-111.703"/>
</g>
<!-- Node15 -->
<g id="node15" class="node"><title>Node15</title>
<g id="a_node15"><a xlink:href="../../d5/d1d/classcommands_1_1_command_factory.html#a9206a1ef0f863c61cb5c894da3133ef8" target="_top" xlink:title="commands.CommandFactory.check\lUserCommand">
<polygon fill="white" stroke="black" points="1243,-30 1243,-60 1431,-60 1431,-30 1243,-30"/>
<text text-anchor="start" x="1251" y="-48" font-family="Helvetica,sans-Serif" font-size="10.00">commands.CommandFactory.check</text>
<text text-anchor="middle" x="1337" y="-37" font-family="Helvetica,sans-Serif" font-size="10.00">UserCommand</text>
</a>
</g>
</g>
<!-- Node9&#45;&gt;Node15 -->
<g id="edge17" class="edge"><title>Node9&#45;&gt;Node15</title>
<path fill="none" stroke="midnightblue" d="M1179.05,-211.865C1183.75,-209.083 1188.12,-205.821 1192,-202 1235.62,-159.015 1183.72,-111.302 1228,-69 1229.94,-67.1425 1232,-65.4163 1234.15,-63.8128"/>
<polygon fill="midnightblue" stroke="midnightblue" points="1236.33,-66.5694 1242.85,-58.2168 1232.54,-60.6817 1236.33,-66.5694"/>
</g>
<!-- Node11&#45;&gt;Node2 -->
<g id="edge13" class="edge"><title>Node11&#45;&gt;Node2</title>
<path fill="none" stroke="midnightblue" d="M1417.57,-285.034C1435.43,-288.409 1454.42,-291.996 1472.4,-295.394"/>
<polygon fill="midnightblue" stroke="midnightblue" points="1471.8,-298.841 1482.27,-297.259 1473.1,-291.963 1471.8,-298.841"/>
</g>
<!-- Node20 -->
<g id="node20" class="node"><title>Node20</title>
<g id="a_node20"><a xlink:href="../../de/d03/classpanels_1_1_script_panel.html#acf94d4284961d6d9eabc8af4db9abe87" target="_top" xlink:title="panels.ScriptPanel.print\lException">
<polygon fill="white" stroke="black" points="799.5,-98 799.5,-128 928.5,-128 928.5,-98 799.5,-98"/>
<text text-anchor="start" x="807.5" y="-116" font-family="Helvetica,sans-Serif" font-size="10.00">panels.ScriptPanel.print</text>
<text text-anchor="middle" x="864" y="-105" font-family="Helvetica,sans-Serif" font-size="10.00">Exception</text>
</a>
</g>
</g>
<!-- Node19&#45;&gt;Node20 -->
<g id="edge22" class="edge"><title>Node19&#45;&gt;Node20</title>
<path fill="none" stroke="midnightblue" d="M728.222,-113C748.065,-113 769.456,-113 789.222,-113"/>
<polygon fill="midnightblue" stroke="midnightblue" points="789.394,-116.5 799.394,-113 789.394,-109.5 789.394,-116.5"/>
</g>
<!-- Node22 -->
<g id="node22" class="node"><title>Node22</title>
<g id="a_node22"><a xlink:href="../../d8/dfc/classpanels_1_1_parameter_panel.html#a5f64bf2acdef3d7ca882a87ba8c78bf3" target="_top" xlink:title="panels.ParameterPanel.add\lToHistory">
<polygon fill="white" stroke="black" points="578,-2 578,-32 726,-32 726,-2 578,-2"/>
<text text-anchor="start" x="586" y="-20" font-family="Helvetica,sans-Serif" font-size="10.00">panels.ParameterPanel.add</text>
<text text-anchor="middle" x="652" y="-9" font-family="Helvetica,sans-Serif" font-size="10.00">ToHistory</text>
</a>
</g>
</g>
<!-- Node21&#45;&gt;Node22 -->
<g id="edge24" class="edge"><title>Node21&#45;&gt;Node22</title>
<path fill="none" stroke="midnightblue" d="M526.237,-29.6663C539.757,-28.2937 553.989,-26.8489 567.808,-25.4459"/>
<polygon fill="midnightblue" stroke="midnightblue" points="568.187,-28.9255 577.782,-24.4333 567.48,-21.9613 568.187,-28.9255"/>
</g>
<!-- Node23 -->
<g id="node23" class="node"><title>Node23</title>
<g id="a_node23"><a xlink:href="../../de/dff/classtitle_panes_1_1_history_title_pane.html#a14fe295c9a982a88b2f96e93758e021d" target="_top" xlink:title="titlePanes.HistoryTitlePane.add\lToHistory">
<polygon fill="white" stroke="black" points="782,-0 782,-30 946,-30 946,-0 782,-0"/>
<text text-anchor="start" x="790" y="-18" font-family="Helvetica,sans-Serif" font-size="10.00">titlePanes.HistoryTitlePane.add</text>
<text text-anchor="middle" x="864" y="-7" font-family="Helvetica,sans-Serif" font-size="10.00">ToHistory</text>
</a>
</g>
</g>
<!-- Node22&#45;&gt;Node23 -->
<g id="edge25" class="edge"><title>Node22&#45;&gt;Node23</title>
<path fill="none" stroke="midnightblue" d="M726.153,-16.3033C740.772,-16.1641 756.3,-16.0162 771.449,-15.8719"/>
<polygon fill="midnightblue" stroke="midnightblue" points="771.894,-19.3679 781.86,-15.7728 771.827,-12.3682 771.894,-19.3679"/>
</g>
<!-- Node24&#45;&gt;Node19 -->
<g id="edge30" class="edge"><title>Node24&#45;&gt;Node19</title>
<path fill="none" stroke="midnightblue" d="M533.56,-101.673C544.161,-102.696 555.066,-103.747 565.759,-104.779"/>
<polygon fill="midnightblue" stroke="midnightblue" points="565.639,-108.283 575.929,-105.76 566.311,-101.316 565.639,-108.283"/>
</g>
<!-- Node25 -->
<g id="node25" class="node"><title>Node25</title>
<g id="a_node25"><a xlink:href="../../d8/dfc/classpanels_1_1_parameter_panel.html#a0bf8e32fe635c48c8a057062e0534b62" target="_top" xlink:title="panels.ParameterPanel.update\lVariables">
<polygon fill="white" stroke="black" points="570,-53 570,-83 734,-83 734,-53 570,-53"/>
<text text-anchor="start" x="578" y="-71" font-family="Helvetica,sans-Serif" font-size="10.00">panels.ParameterPanel.update</text>
<text text-anchor="middle" x="652" y="-60" font-family="Helvetica,sans-Serif" font-size="10.00">Variables</text>
</a>
</g>
</g>
<!-- Node24&#45;&gt;Node25 -->
<g id="edge27" class="edge"><title>Node24&#45;&gt;Node25</title>
<path fill="none" stroke="midnightblue" d="M526.237,-84.4662C537.083,-83.0348 548.386,-81.5429 559.568,-80.0671"/>
<polygon fill="midnightblue" stroke="midnightblue" points="560.33,-83.497 569.786,-78.7186 559.414,-76.5572 560.33,-83.497"/>
</g>
<!-- Node26 -->
<g id="node26" class="node"><title>Node26</title>
<g id="a_node26"><a xlink:href="../../d0/d8f/classtitle_panes_1_1_variable_title_pane.html#a395dd58ae72e6111fce8e99be3c03842" target="_top" xlink:title="titlePanes.VariableTitle\lPane.updateVariables">
<polygon fill="white" stroke="black" points="802,-49 802,-79 926,-79 926,-49 802,-49"/>
<text text-anchor="start" x="810" y="-67" font-family="Helvetica,sans-Serif" font-size="10.00">titlePanes.VariableTitle</text>
<text text-anchor="middle" x="864" y="-56" font-family="Helvetica,sans-Serif" font-size="10.00">Pane.updateVariables</text>
</a>
</g>
</g>
<!-- Node25&#45;&gt;Node26 -->
<g id="edge28" class="edge"><title>Node25&#45;&gt;Node26</title>
<path fill="none" stroke="midnightblue" d="M734.191,-66.4535C753.181,-66.0918 773.268,-65.7092 791.785,-65.3565"/>
<polygon fill="midnightblue" stroke="midnightblue" points="791.963,-68.8538 801.895,-65.1639 791.83,-61.8551 791.963,-68.8538"/>
</g>
<!-- Node27 -->
<g id="node27" class="node"><title>Node27</title>
<g id="a_node27"><a xlink:href="../../d0/d8f/classtitle_panes_1_1_variable_title_pane.html#a007ec1abdc73761490261f283e07338e" target="_top" xlink:title="titlePanes.VariableTitle\lPane.writeVariables">
<polygon fill="white" stroke="black" points="1031,-49 1031,-79 1155,-79 1155,-49 1031,-49"/>
<text text-anchor="start" x="1039" y="-67" font-family="Helvetica,sans-Serif" font-size="10.00">titlePanes.VariableTitle</text>
<text text-anchor="middle" x="1093" y="-56" font-family="Helvetica,sans-Serif" font-size="10.00">Pane.writeVariables</text>
</a>
</g>
</g>
<!-- Node26&#45;&gt;Node27 -->
<g id="edge29" class="edge"><title>Node26&#45;&gt;Node27</title>
<path fill="none" stroke="midnightblue" d="M926.13,-64C955.271,-64 990.311,-64 1020.66,-64"/>
<polygon fill="midnightblue" stroke="midnightblue" points="1020.76,-67.5001 1030.76,-64 1020.76,-60.5001 1020.76,-67.5001"/>
</g>
</g>
</svg>
        <g id="navigator" transform="translate(0 0)" fill="#404254">
                <rect fill="#f2f5e9" fill-opacity="0.5" stroke="#606060" stroke-width=".5" x="0" y="0" width="60" height="60"/>
                <use id="zoomplus" xlink:href="#zoomPlus" x="17" y="9" onmousedown="handleZoom(evt,'in')"/>
                <use id="zoomminus" xlink:href="#zoomMin" x="42" y="9" onmousedown="handleZoom(evt,'out')"/>
                <use id="reset" xlink:href="#resetDef" x="30" y="36" onmousedown="handleReset()"/>
                <g id="arrowUp" xlink:href="#dirArrow" transform="translate(30 24)" onmousedown="handlePan(0,-1)">
                  <use xlink:href="#rim" fill="#404040">
                        <set attributeName="fill" to="#808080" begin="arrowUp.mouseover" end="arrowUp.mouseout"/>
                  </use>
                  <path fill="none" stroke="white" stroke-width="1.5" d="M0,-3.0v7 M-2.5,-0.5L0,-3.0L2.5,-0.5"/>
                </g>
                <g id="arrowRight" xlink:href="#dirArrow" transform="rotate(90) translate(36 -43)" onmousedown="handlePan(1,0)">
                  <use xlink:href="#rim" fill="#404040">
                        <set attributeName="fill" to="#808080" begin="arrowRight.mouseover" end="arrowRight.mouseout"/>
                  </use>
                  <path fill="none" stroke="white" stroke-width="1.5" d="M0,-3.0v7 M-2.5,-0.5L0,-3.0L2.5,-0.5"/>
                </g>
                <g id="arrowDown" xlink:href="#dirArrow" transform="rotate(180) translate(-30 -48)" onmousedown="handlePan(0,1)">
                  <use xlink:href="#rim" fill="#404040">
                        <set attributeName="fill" to="#808080" begin="arrowDown.mouseover" end="arrowDown.mouseout"/>
                  </use>
                  <path fill="none" stroke="white" stroke-width="1.5" d="M0,-3.0v7 M-2.5,-0.5L0,-3.0L2.5,-0.5"/>
                </g>
                <g id="arrowLeft" xlink:href="#dirArrow" transform="rotate(270) translate(-36 17)" onmousedown="handlePan(-1,0)">
                  <use xlink:href="#rim" fill="#404040">
                        <set attributeName="fill" to="#808080" begin="arrowLeft.mouseover" end="arrowLeft.mouseout"/>
                  </use>
                  <path fill="none" stroke="white" stroke-width="1.5" d="M0,-3.0v7 M-2.5,-0.5L0,-3.0L2.5,-0.5"/>
                </g>
        </g>
        <svg viewBox="0 0 15 15" width="100%" height="30px" preserveAspectRatio="xMaxYMin meet">
         <g id="arrow_out" transform="scale(0.3 0.3)">
          <a xlink:href="classback_end_1_1_controller_a3b0bbf0a084bb4fb63d118f66e7327b1_cgraph_org.svg" target="_base">
           <rect id="button" ry="5" rx="5" y="6" x="6" height="38" width="38"
                fill="#f2f5e9" fill-opacity="0.5" stroke="#606060" stroke-width="1.0"/>
           <path id="arrow"
             d="M 11.500037,31.436501 C 11.940474,20.09759 22.043105,11.32322 32.158766,21.979434 L 37.068811,17.246167 C 37.068811,17.246167 37.088388,32 37.088388,32 L 22.160133,31.978069 C 22.160133,31.978069 26.997745,27.140456 26.997745,27.140456 C 18.528582,18.264221 13.291696,25.230495 11.500037,31.436501 z"
             style="fill:#404040;"/>
          </a>
         </g>
        </svg>
</svg>
