<?xml version="1.0" encoding="UTF-8" standalone="no"?>
<!DOCTYPE svg PUBLIC "-//W3C//DTD SVG 1.1//EN"
 "http://www.w3.org/Graphics/SVG/1.1/DTD/svg11.dtd">
<!-- Generated by graphviz version 2.36.0 (20140111.2315)
 -->
<!-- Title: backEnd.Controller.buildKeyListener Pages: 1 -->
<svg width="1806pt" height="360pt"
 viewBox="0.00 0.00 1806.00 360.19" xmlns="http://www.w3.org/2000/svg" xmlns:xlink="http://www.w3.org/1999/xlink">
<g id="graph0" class="graph" transform="scale(1 1) rotate(0) translate(4 356.193)">
<title>backEnd.Controller.buildKeyListener</title>
<polygon fill="white" stroke="none" points="-4,4 -4,-356.193 1802,-356.193 1802,4 -4,4"/>
<!-- Node1 -->
<g id="node1" class="node"><title>Node1</title>
<polygon fill="#bfbfbf" stroke="black" points="0.5,-227 0.5,-257 131.5,-257 131.5,-227 0.5,-227"/>
<text text-anchor="start" x="8.5" y="-245" font-family="Helvetica,sans-Serif" font-size="10.00">backEnd.Controller.build</text>
<text text-anchor="middle" x="66" y="-234" font-family="Helvetica,sans-Serif" font-size="10.00">KeyListener</text>
</g>
<!-- Node2 -->
<g id="node2" class="node"><title>Node2</title>
<g id="a_node2"><a xlink:href="../../d9/d49/classback_end_1_1_controller.html#a3b0bbf0a084bb4fb63d118f66e7327b1" target="_top" xlink:title="backEnd.Controller.move10">
<polygon fill="white" stroke="black" points="168,-232.5 168,-251.5 316,-251.5 316,-232.5 168,-232.5"/>
<text text-anchor="middle" x="242" y="-239.5" font-family="Helvetica,sans-Serif" font-size="10.00">backEnd.Controller.move10</text>
</a>
</g>
</g>
<!-- Node1&#45;&gt;Node2 -->
<g id="edge1" class="edge"><title>Node1&#45;&gt;Node2</title>
<path fill="none" stroke="midnightblue" d="M131.791,-242C140.264,-242 149.037,-242 157.761,-242"/>
<polygon fill="midnightblue" stroke="midnightblue" points="157.957,-245.5 167.957,-242 157.957,-238.5 157.957,-245.5"/>
</g>
<!-- Node3 -->
<g id="node3" class="node"><title>Node3</title>
<g id="a_node3"><a xlink:href="../../d8/de9/classmain_1_1_resource_finder.html#abbbd9c7b9078fd263f546d15bba68d22" target="_top" xlink:title="main.ResourceFinder.getMy\lLanguageResources">
<polygon fill="white" stroke="black" points="1650.5,-296 1650.5,-326 1797.5,-326 1797.5,-296 1650.5,-296"/>
<text text-anchor="start" x="1658.5" y="-314" font-family="Helvetica,sans-Serif" font-size="10.00">main.ResourceFinder.getMy</text>
<text text-anchor="middle" x="1724" y="-303" font-family="Helvetica,sans-Serif" font-size="10.00">LanguageResources</text>
</a>
</g>
</g>
<!-- Node2&#45;&gt;Node3 -->
<g id="edge2" class="edge"><title>Node2&#45;&gt;Node3</title>
<path fill="none" stroke="midnightblue" d="M261.659,-251.569C315.628,-278.332 477.162,-352 620,-352 620,-352 620,-352 1262,-352 1418.67,-352 1458.58,-352.773 1614,-333 1624.56,-331.657 1635.62,-329.872 1646.49,-327.898"/>
<polygon fill="midnightblue" stroke="midnightblue" points="1647.2,-331.325 1656.39,-326.039 1645.91,-324.445 1647.2,-331.325"/>
</g>
<!-- Node4 -->
<g id="node4" class="node"><title>Node4</title>
<g id="a_node4"><a xlink:href="../../d9/d49/classback_end_1_1_controller.html#ad650f48d236eaf11c2d8591b04831900" target="_top" xlink:title="backEnd.Controller.runScript">
<polygon fill="white" stroke="black" points="352,-122.5 352,-141.5 504,-141.5 504,-122.5 352,-122.5"/>
<text text-anchor="middle" x="428" y="-129.5" font-family="Helvetica,sans-Serif" font-size="10.00">backEnd.Controller.runScript</text>
</a>
</g>
</g>
<!-- Node2&#45;&gt;Node4 -->
<g id="edge3" class="edge"><title>Node2&#45;&gt;Node4</title>
<path fill="none" stroke="midnightblue" d="M259.007,-232.431C291.087,-213.252 363.459,-169.986 401.902,-147.004"/>
<polygon fill="midnightblue" stroke="midnightblue" points="404.112,-149.761 410.899,-141.626 400.52,-143.753 404.112,-149.761"/>
</g>
<!-- Node5 -->
<g id="node5" class="node"><title>Node5</title>
<g id="a_node5"><a xlink:href="../../d9/d98/classback_end_1_1_model.html#ade764fd1c85a48fabb9abf3dfe8b8ceb" target="_top" xlink:title="backEnd.Model.runScript">
<polygon fill="white" stroke="black" points="553.5,-178.5 553.5,-197.5 688.5,-197.5 688.5,-178.5 553.5,-178.5"/>
<text text-anchor="middle" x="621" y="-185.5" font-family="Helvetica,sans-Serif" font-size="10.00">backEnd.Model.runScript</text>
</a>
</g>
</g>
<!-- Node4&#45;&gt;Node5 -->
<g id="edge4" class="edge"><title>Node4&#45;&gt;Node5</title>
<path fill="none" stroke="midnightblue" d="M461.834,-141.627C493.869,-151.019 542.749,-165.35 577.685,-175.594"/>
<polygon fill="midnightblue" stroke="midnightblue" points="577.014,-179.044 587.594,-178.499 578.983,-172.327 577.014,-179.044"/>
</g>
<!-- Node20 -->
<g id="node20" class="node"><title>Node20</title>
<g id="a_node20"><a xlink:href="../../d8/d1f/classfront_end_1_1_view.html#a22669dd74ac845d66d5b59ddeba13b5e" target="_top" xlink:title="frontEnd.View.printException">
<polygon fill="white" stroke="black" points="744,-103.5 744,-122.5 896,-122.5 896,-103.5 744,-103.5"/>
<text text-anchor="middle" x="820" y="-110.5" font-family="Helvetica,sans-Serif" font-size="10.00">frontEnd.View.printException</text>
</a>
</g>
</g>
<!-- Node4&#45;&gt;Node20 -->
<g id="edge22" class="edge"><title>Node4&#45;&gt;Node20</title>
<path fill="none" stroke="midnightblue" d="M504.196,-128.337C569.779,-125.142 664.88,-120.508 733.373,-117.172"/>
<polygon fill="midnightblue" stroke="midnightblue" points="733.885,-120.651 743.703,-116.668 733.545,-113.659 733.885,-120.651"/>
</g>
<!-- Node22 -->
<g id="node22" class="node"><title>Node22</title>
<g id="a_node22"><a xlink:href="../../d8/d1f/classfront_end_1_1_view.html#a88014d18898a5c72ba7893e0d865a218" target="_top" xlink:title="frontEnd.View.addToHistory">
<polygon fill="white" stroke="black" points="548,-27.5 548,-46.5 694,-46.5 694,-27.5 548,-27.5"/>
<text text-anchor="middle" x="621" y="-34.5" font-family="Helvetica,sans-Serif" font-size="10.00">frontEnd.View.addToHistory</text>
</a>
</g>
</g>
<!-- Node4&#45;&gt;Node22 -->
<g id="edge24" class="edge"><title>Node4&#45;&gt;Node22</title>
<path fill="none" stroke="midnightblue" d="M447.374,-122.344C469.316,-110.864 507.177,-91.218 540,-75 556.51,-66.8423 575.081,-58.0005 590.172,-50.9001"/>
<polygon fill="midnightblue" stroke="midnightblue" points="591.963,-53.9262 599.53,-46.5104 588.99,-47.5888 591.963,-53.9262"/>
</g>
<!-- Node25 -->
<g id="node25" class="node"><title>Node25</title>
<g id="a_node25"><a xlink:href="../../d8/d1f/classfront_end_1_1_view.html#a59fa2dbe984da3217324979184d00559" target="_top" xlink:title="frontEnd.View.updateVariables">
<polygon fill="white" stroke="black" points="540.5,-84.5 540.5,-103.5 701.5,-103.5 701.5,-84.5 540.5,-84.5"/>
<text text-anchor="middle" x="621" y="-91.5" font-family="Helvetica,sans-Serif" font-size="10.00">frontEnd.View.updateVariables</text>
</a>
</g>
</g>
<!-- Node4&#45;&gt;Node25 -->
<g id="edge27" class="edge"><title>Node4&#45;&gt;Node25</title>
<path fill="none" stroke="midnightblue" d="M477.197,-122.411C502.97,-117.284 534.891,-110.933 562.012,-105.537"/>
<polygon fill="midnightblue" stroke="midnightblue" points="563.024,-108.904 572.149,-103.52 561.658,-102.039 563.024,-108.904"/>
</g>
<!-- Node6 -->
<g id="node6" class="node"><title>Node6</title>
<g id="a_node6"><a xlink:href="../../d9/d1e/classback_end_1_1_parser.html#a163b8afd814babc8e7df59993f0d6440" target="_top" xlink:title="backEnd.Parser.parseScript">
<polygon fill="white" stroke="black" points="746.5,-196.5 746.5,-215.5 893.5,-215.5 893.5,-196.5 746.5,-196.5"/>
<text text-anchor="middle" x="820" y="-203.5" font-family="Helvetica,sans-Serif" font-size="10.00">backEnd.Parser.parseScript</text>
</a>
</g>
</g>
<!-- Node5&#45;&gt;Node6 -->
<g id="edge5" class="edge"><title>Node5&#45;&gt;Node6</title>
<path fill="none" stroke="midnightblue" d="M688.695,-194.094C703.895,-195.483 720.227,-196.975 736.014,-198.417"/>
<polygon fill="midnightblue" stroke="midnightblue" points="736.015,-201.932 746.292,-199.357 736.652,-194.961 736.015,-201.932"/>
</g>
<!-- Node7 -->
<g id="node7" class="node"><title>Node7</title>
<g id="a_node7"><a xlink:href="../../d9/d98/classback_end_1_1_model.html#a6b39dd199a5957068c032bb023f4b613" target="_top" xlink:title="backEnd.Model.getCommandsMap">
<polygon fill="white" stroke="black" points="1413.5,-304.5 1413.5,-323.5 1596.5,-323.5 1596.5,-304.5 1413.5,-304.5"/>
<text text-anchor="middle" x="1505" y="-311.5" font-family="Helvetica,sans-Serif" font-size="10.00">backEnd.Model.getCommandsMap</text>
</a>
</g>
</g>
<!-- Node6&#45;&gt;Node7 -->
<g id="edge6" class="edge"><title>Node6&#45;&gt;Node7</title>
<path fill="none" stroke="midnightblue" d="M836.611,-215.632C858.44,-228.617 899.714,-251.44 938,-263 1095.47,-310.546 1287.89,-317.794 1402.95,-317.066"/>
<polygon fill="midnightblue" stroke="midnightblue" points="1403.18,-320.565 1413.15,-316.98 1403.12,-313.565 1403.18,-320.565"/>
</g>
<!-- Node8 -->
<g id="node8" class="node"><title>Node8</title>
<g id="a_node8"><a xlink:href="../../d9/d1e/classback_end_1_1_parser.html#a71653c0a9d02d4b400e357b978260de6" target="_top" xlink:title="backEnd.Parser.removeComments">
<polygon fill="white" stroke="black" points="941,-196.5 941,-215.5 1123,-215.5 1123,-196.5 941,-196.5"/>
<text text-anchor="middle" x="1032" y="-203.5" font-family="Helvetica,sans-Serif" font-size="10.00">backEnd.Parser.removeComments</text>
</a>
</g>
</g>
<!-- Node6&#45;&gt;Node8 -->
<g id="edge7" class="edge"><title>Node6&#45;&gt;Node8</title>
<path fill="none" stroke="midnightblue" d="M893.564,-206C905.538,-206 918.136,-206 930.646,-206"/>
<polygon fill="midnightblue" stroke="midnightblue" points="930.646,-209.5 940.646,-206 930.646,-202.5 930.646,-209.5"/>
</g>
<!-- Node9 -->
<g id="node9" class="node"><title>Node9</title>
<g id="a_node9"><a xlink:href="../../d9/d1e/classback_end_1_1_parser.html#a653298ad53a1eea540beded2bb558ab4" target="_top" xlink:title="backEnd.Parser.makeTree">
<polygon fill="white" stroke="black" points="962.5,-234.5 962.5,-253.5 1101.5,-253.5 1101.5,-234.5 962.5,-234.5"/>
<text text-anchor="middle" x="1032" y="-241.5" font-family="Helvetica,sans-Serif" font-size="10.00">backEnd.Parser.makeTree</text>
</a>
</g>
</g>
<!-- Node6&#45;&gt;Node9 -->
<g id="edge8" class="edge"><title>Node6&#45;&gt;Node9</title>
<path fill="none" stroke="midnightblue" d="M873.721,-215.54C902.429,-220.735 938.137,-227.196 968.27,-232.649"/>
<polygon fill="midnightblue" stroke="midnightblue" points="967.794,-236.12 978.258,-234.456 969.041,-229.231 967.794,-236.12"/>
</g>
<!-- Node19 -->
<g id="node19" class="node"><title>Node19</title>
<g id="a_node19"><a xlink:href="../../d5/d62/classcommands_1_1templates_1_1_command.html#aa1c27b6285999798be609159ee5c7a83" target="_top" xlink:title="commands.templates.Command.to\lString">
<polygon fill="white" stroke="black" points="938,-147 938,-177 1126,-177 1126,-147 938,-147"/>
<text text-anchor="start" x="946" y="-165" font-family="Helvetica,sans-Serif" font-size="10.00">commands.templates.Command.to</text>
<text text-anchor="middle" x="1032" y="-154" font-family="Helvetica,sans-Serif" font-size="10.00">String</text>
</a>
</g>
</g>
<!-- Node6&#45;&gt;Node19 -->
<g id="edge21" class="edge"><title>Node6&#45;&gt;Node19</title>
<path fill="none" stroke="midnightblue" d="M866.567,-196.453C890.738,-191.388 921.175,-185.011 949.271,-179.124"/>
<polygon fill="midnightblue" stroke="midnightblue" points="950.027,-182.542 959.097,-177.065 948.592,-175.691 950.027,-182.542"/>
</g>
<!-- Node9&#45;&gt;Node7 -->
<g id="edge9" class="edge"><title>Node9&#45;&gt;Node7</title>
<path fill="none" stroke="midnightblue" d="M1097.01,-253.513C1183.68,-266.394 1338.04,-289.334 1429.71,-302.959"/>
<polygon fill="midnightblue" stroke="midnightblue" points="1429.35,-306.443 1439.75,-304.451 1430.37,-299.519 1429.35,-306.443"/>
</g>
<!-- Node10 -->
<g id="node10" class="node"><title>Node10</title>
<g id="a_node10"><a xlink:href="../../d5/d1d/classcommands_1_1_command_factory.html#ac77125dd466e3e01fce01fc527e7f815" target="_top" xlink:title="commands.CommandFactory.build\lCommand">
<polygon fill="white" stroke="black" points="1170,-212 1170,-242 1352,-242 1352,-212 1170,-212"/>
<text text-anchor="start" x="1178" y="-230" font-family="Helvetica,sans-Serif" font-size="10.00">commands.CommandFactory.build</text>
<text text-anchor="middle" x="1261" y="-219" font-family="Helvetica,sans-Serif" font-size="10.00">Command</text>
</a>
</g>
</g>
<!-- Node9&#45;&gt;Node10 -->
<g id="edge10" class="edge"><title>Node9&#45;&gt;Node10</title>
<path fill="none" stroke="midnightblue" d="M1101.72,-238.853C1119.95,-237.489 1140.01,-235.986 1159.54,-234.523"/>
<polygon fill="midnightblue" stroke="midnightblue" points="1159.99,-238 1169.7,-233.763 1159.46,-231.019 1159.99,-238"/>
</g>
<!-- Node17 -->
<g id="node17" class="node"><title>Node17</title>
<g id="a_node17"><a xlink:href="../../d5/d62/classcommands_1_1templates_1_1_command.html#a9ab84f2a1491a7283311891b8a6082dc" target="_top" xlink:title="commands.templates.Command.add\lChild">
<polygon fill="white" stroke="black" points="1162.5,-163 1162.5,-193 1359.5,-193 1359.5,-163 1162.5,-163"/>
<text text-anchor="start" x="1170.5" y="-181" font-family="Helvetica,sans-Serif" font-size="10.00">commands.templates.Command.add</text>
<text text-anchor="middle" x="1261" y="-170" font-family="Helvetica,sans-Serif" font-size="10.00">Child</text>
</a>
</g>
</g>
<!-- Node9&#45;&gt;Node17 -->
<g id="edge19" class="edge"><title>Node9&#45;&gt;Node17</title>
<path fill="none" stroke="midnightblue" d="M1095.96,-234.415C1106.19,-231.931 1116.53,-228.837 1126,-225 1143.6,-217.869 1144.54,-209.47 1162,-202 1166.93,-199.89 1172.09,-197.941 1177.34,-196.145"/>
<polygon fill="midnightblue" stroke="midnightblue" points="1178.43,-199.471 1186.87,-193.075 1176.28,-192.808 1178.43,-199.471"/>
</g>
<!-- Node18 -->
<g id="node18" class="node"><title>Node18</title>
<g id="a_node18"><a xlink:href="../../d5/d62/classcommands_1_1templates_1_1_command.html#a0ca025dffda489d73ba4b6c12c7118fe" target="_top" xlink:title="commands.templates.Command.get\lNumChildrenNeeded">
<polygon fill="white" stroke="black" points="1164,-114 1164,-144 1358,-144 1358,-114 1164,-114"/>
<text text-anchor="start" x="1172" y="-132" font-family="Helvetica,sans-Serif" font-size="10.00">commands.templates.Command.get</text>
<text text-anchor="middle" x="1261" y="-121" font-family="Helvetica,sans-Serif" font-size="10.00">NumChildrenNeeded</text>
</a>
</g>
</g>
<!-- Node9&#45;&gt;Node18 -->
<g id="edge20" class="edge"><title>Node9&#45;&gt;Node18</title>
<path fill="none" stroke="midnightblue" d="M1101.67,-237.456C1110.41,-234.54 1118.81,-230.516 1126,-225 1154.39,-203.225 1134.04,-175.32 1162,-153 1163.59,-151.73 1165.24,-150.525 1166.94,-149.383"/>
<polygon fill="midnightblue" stroke="midnightblue" points="1168.95,-152.262 1175.8,-144.179 1165.4,-146.226 1168.95,-152.262"/>
</g>
<!-- Node10&#45;&gt;Node7 -->
<g id="edge11" class="edge"><title>Node10&#45;&gt;Node7</title>
<path fill="none" stroke="midnightblue" d="M1320.33,-242.04C1333.85,-246.76 1347.84,-252.698 1360,-260 1378.87,-271.331 1376.38,-284.033 1396,-294 1401.63,-296.862 1407.62,-299.318 1413.77,-301.425"/>
<polygon fill="midnightblue" stroke="midnightblue" points="1412.96,-304.838 1423.55,-304.458 1415.03,-298.152 1412.96,-304.838"/>
</g>
<!-- Node11 -->
<g id="node11" class="node"><title>Node11</title>
<g id="a_node11"><a xlink:href="../../d5/d1d/classcommands_1_1_command_factory.html#adcf456039b5d7285082f1e009f3d30b6" target="_top" xlink:title="commands.CommandFactory.checkCaps">
<polygon fill="white" stroke="black" points="1399,-216.5 1399,-235.5 1611,-235.5 1611,-216.5 1399,-216.5"/>
<text text-anchor="middle" x="1505" y="-223.5" font-family="Helvetica,sans-Serif" font-size="10.00">commands.CommandFactory.checkCaps</text>
</a>
</g>
</g>
<!-- Node10&#45;&gt;Node11 -->
<g id="edge12" class="edge"><title>Node10&#45;&gt;Node11</title>
<path fill="none" stroke="midnightblue" d="M1352.11,-226.628C1363.98,-226.579 1376.26,-226.528 1388.48,-226.477"/>
<polygon fill="midnightblue" stroke="midnightblue" points="1388.72,-229.976 1398.71,-226.435 1388.69,-222.977 1388.72,-229.976"/>
</g>
<!-- Node12 -->
<g id="node12" class="node"><title>Node12</title>
<g id="a_node12"><a xlink:href="../../d5/d1d/classcommands_1_1_command_factory.html#acae1571442d9f8e040df95c8a2742d8d" target="_top" xlink:title="commands.CommandFactory.check\lLanguage">
<polygon fill="white" stroke="black" points="1411,-255 1411,-285 1599,-285 1599,-255 1411,-255"/>
<text text-anchor="start" x="1419" y="-273" font-family="Helvetica,sans-Serif" font-size="10.00">commands.CommandFactory.check</text>
<text text-anchor="middle" x="1505" y="-262" font-family="Helvetica,sans-Serif" font-size="10.00">Language</text>
</a>
</g>
</g>
<!-- Node10&#45;&gt;Node12 -->
<g id="edge13" class="edge"><title>Node10&#45;&gt;Node12</title>
<path fill="none" stroke="midnightblue" d="M1346.64,-242.039C1366.9,-245.64 1388.67,-249.507 1409.35,-253.182"/>
<polygon fill="midnightblue" stroke="midnightblue" points="1408.95,-256.666 1419.41,-254.969 1410.17,-249.774 1408.95,-256.666"/>
</g>
<!-- Node13 -->
<g id="node13" class="node"><title>Node13</title>
<g id="a_node13"><a xlink:href="../../d5/d62/classcommands_1_1templates_1_1_command.html#a20741a5e32e24ff113701f7b2957e658" target="_top" xlink:title="commands.templates.Command.initialize\lCommand">
<polygon fill="white" stroke="black" points="1396.5,-167 1396.5,-197 1613.5,-197 1613.5,-167 1396.5,-167"/>
<text text-anchor="start" x="1404.5" y="-185" font-family="Helvetica,sans-Serif" font-size="10.00">commands.templates.Command.initialize</text>
<text text-anchor="middle" x="1505" y="-174" font-family="Helvetica,sans-Serif" font-size="10.00">Command</text>
</a>
</g>
</g>
<!-- Node10&#45;&gt;Node13 -->
<g id="edge15" class="edge"><title>Node10&#45;&gt;Node13</title>
<path fill="none" stroke="midnightblue" d="M1342.92,-211.953C1365.42,-207.769 1390.01,-203.197 1413.04,-198.913"/>
<polygon fill="midnightblue" stroke="midnightblue" points="1413.97,-202.302 1423.16,-197.033 1412.69,-195.42 1413.97,-202.302"/>
</g>
<!-- Node14 -->
<g id="node14" class="node"><title>Node14</title>
<g id="a_node14"><a xlink:href="../../d5/d1d/classcommands_1_1_command_factory.html#a221a82baff222f4552a38b521efd78b6" target="_top" xlink:title="commands.CommandFactory.checkVar">
<polygon fill="white" stroke="black" points="1403.5,-128.5 1403.5,-147.5 1606.5,-147.5 1606.5,-128.5 1403.5,-128.5"/>
<text text-anchor="middle" x="1505" y="-135.5" font-family="Helvetica,sans-Serif" font-size="10.00">commands.CommandFactory.checkVar</text>
</a>
</g>
</g>
<!-- Node10&#45;&gt;Node14 -->
<g id="edge16" class="edge"><title>Node10&#45;&gt;Node14</title>
<path fill="none" stroke="midnightblue" d="M1340.46,-211.976C1347.32,-209.196 1353.95,-205.903 1360,-202 1381.52,-188.116 1373.97,-170.06 1396,-157 1399.64,-154.843 1403.46,-152.917 1407.4,-151.199"/>
<polygon fill="midnightblue" stroke="midnightblue" points="1408.74,-154.434 1416.8,-147.555 1406.21,-147.907 1408.74,-154.434"/>
</g>
<!-- Node15 -->
<g id="node15" class="node"><title>Node15</title>
<g id="a_node15"><a xlink:href="../../d5/d1d/classcommands_1_1_command_factory.html#aa562012b61b9b1701eada2bea8caa1d8" target="_top" xlink:title="commands.CommandFactory.is\lNumeric">
<polygon fill="white" stroke="black" points="1421.5,-79 1421.5,-109 1588.5,-109 1588.5,-79 1421.5,-79"/>
<text text-anchor="start" x="1429.5" y="-97" font-family="Helvetica,sans-Serif" font-size="10.00">commands.CommandFactory.is</text>
<text text-anchor="middle" x="1505" y="-86" font-family="Helvetica,sans-Serif" font-size="10.00">Numeric</text>
</a>
</g>
</g>
<!-- Node10&#45;&gt;Node15 -->
<g id="edge17" class="edge"><title>Node10&#45;&gt;Node15</title>
<path fill="none" stroke="midnightblue" d="M1345.02,-211.941C1350.39,-209.156 1355.46,-205.872 1360,-202 1390.61,-175.923 1365.1,-144.734 1396,-119 1400.9,-114.918 1406.34,-111.474 1412.1,-108.571"/>
<polygon fill="midnightblue" stroke="midnightblue" points="1413.67,-111.703 1421.39,-104.44 1410.83,-105.308 1413.67,-111.703"/>
</g>
<!-- Node16 -->
<g id="node16" class="node"><title>Node16</title>
<g id="a_node16"><a xlink:href="../../d5/d1d/classcommands_1_1_command_factory.html#a9206a1ef0f863c61cb5c894da3133ef8" target="_top" xlink:title="commands.CommandFactory.check\lUserCommand">
<polygon fill="white" stroke="black" points="1411,-30 1411,-60 1599,-60 1599,-30 1411,-30"/>
<text text-anchor="start" x="1419" y="-48" font-family="Helvetica,sans-Serif" font-size="10.00">commands.CommandFactory.check</text>
<text text-anchor="middle" x="1505" y="-37" font-family="Helvetica,sans-Serif" font-size="10.00">UserCommand</text>
</a>
</g>
</g>
<!-- Node10&#45;&gt;Node16 -->
<g id="edge18" class="edge"><title>Node10&#45;&gt;Node16</title>
<path fill="none" stroke="midnightblue" d="M1347.05,-211.865C1351.75,-209.083 1356.12,-205.821 1360,-202 1403.62,-159.015 1351.72,-111.302 1396,-69 1397.94,-67.1425 1400,-65.4163 1402.15,-63.8128"/>
<polygon fill="midnightblue" stroke="midnightblue" points="1404.33,-66.5694 1410.85,-58.2168 1400.54,-60.6817 1404.33,-66.5694"/>
</g>
<!-- Node12&#45;&gt;Node3 -->
<g id="edge14" class="edge"><title>Node12&#45;&gt;Node3</title>
<path fill="none" stroke="midnightblue" d="M1585.57,-285.034C1603.43,-288.409 1622.42,-291.996 1640.4,-295.394"/>
<polygon fill="midnightblue" stroke="midnightblue" points="1639.8,-298.841 1650.27,-297.259 1641.1,-291.963 1639.8,-298.841"/>
</g>
<!-- Node21 -->
<g id="node21" class="node"><title>Node21</title>
<g id="a_node21"><a xlink:href="../../de/d03/classpanels_1_1_script_panel.html#acf94d4284961d6d9eabc8af4db9abe87" target="_top" xlink:title="panels.ScriptPanel.print\lException">
<polygon fill="white" stroke="black" points="967.5,-98 967.5,-128 1096.5,-128 1096.5,-98 967.5,-98"/>
<text text-anchor="start" x="975.5" y="-116" font-family="Helvetica,sans-Serif" font-size="10.00">panels.ScriptPanel.print</text>
<text text-anchor="middle" x="1032" y="-105" font-family="Helvetica,sans-Serif" font-size="10.00">Exception</text>
</a>
</g>
</g>
<!-- Node20&#45;&gt;Node21 -->
<g id="edge23" class="edge"><title>Node20&#45;&gt;Node21</title>
<path fill="none" stroke="midnightblue" d="M896.222,-113C916.065,-113 937.456,-113 957.222,-113"/>
<polygon fill="midnightblue" stroke="midnightblue" points="957.394,-116.5 967.394,-113 957.394,-109.5 957.394,-116.5"/>
</g>
<!-- Node23 -->
<g id="node23" class="node"><title>Node23</title>
<g id="a_node23"><a xlink:href="../../d8/dfc/classpanels_1_1_parameter_panel.html#a5f64bf2acdef3d7ca882a87ba8c78bf3" target="_top" xlink:title="panels.ParameterPanel.add\lToHistory">
<polygon fill="white" stroke="black" points="746,-2 746,-32 894,-32 894,-2 746,-2"/>
<text text-anchor="start" x="754" y="-20" font-family="Helvetica,sans-Serif" font-size="10.00">panels.ParameterPanel.add</text>
<text text-anchor="middle" x="820" y="-9" font-family="Helvetica,sans-Serif" font-size="10.00">ToHistory</text>
</a>
</g>
</g>
<!-- Node22&#45;&gt;Node23 -->
<g id="edge25" class="edge"><title>Node22&#45;&gt;Node23</title>
<path fill="none" stroke="midnightblue" d="M694.237,-29.6663C707.757,-28.2937 721.989,-26.8489 735.808,-25.4459"/>
<polygon fill="midnightblue" stroke="midnightblue" points="736.187,-28.9255 745.782,-24.4333 735.48,-21.9613 736.187,-28.9255"/>
</g>
<!-- Node24 -->
<g id="node24" class="node"><title>Node24</title>
<g id="a_node24"><a xlink:href="../../de/dff/classtitle_panes_1_1_history_title_pane.html#a14fe295c9a982a88b2f96e93758e021d" target="_top" xlink:title="titlePanes.HistoryTitlePane.add\lToHistory">
<polygon fill="white" stroke="black" points="950,-0 950,-30 1114,-30 1114,-0 950,-0"/>
<text text-anchor="start" x="958" y="-18" font-family="Helvetica,sans-Serif" font-size="10.00">titlePanes.HistoryTitlePane.add</text>
<text text-anchor="middle" x="1032" y="-7" font-family="Helvetica,sans-Serif" font-size="10.00">ToHistory</text>
</a>
</g>
</g>
<!-- Node23&#45;&gt;Node24 -->
<g id="edge26" class="edge"><title>Node23&#45;&gt;Node24</title>
<path fill="none" stroke="midnightblue" d="M894.153,-16.3033C908.772,-16.1641 924.3,-16.0162 939.449,-15.8719"/>
<polygon fill="midnightblue" stroke="midnightblue" points="939.894,-19.3679 949.86,-15.7728 939.827,-12.3682 939.894,-19.3679"/>
</g>
<!-- Node25&#45;&gt;Node20 -->
<g id="edge31" class="edge"><title>Node25&#45;&gt;Node20</title>
<path fill="none" stroke="midnightblue" d="M701.56,-101.673C712.161,-102.696 723.066,-103.747 733.759,-104.779"/>
<polygon fill="midnightblue" stroke="midnightblue" points="733.639,-108.283 743.929,-105.76 734.311,-101.316 733.639,-108.283"/>
</g>
<!-- Node26 -->
<g id="node26" class="node"><title>Node26</title>
<g id="a_node26"><a xlink:href="../../d8/dfc/classpanels_1_1_parameter_panel.html#a0bf8e32fe635c48c8a057062e0534b62" target="_top" xlink:title="panels.ParameterPanel.update\lVariables">
<polygon fill="white" stroke="black" points="738,-53 738,-83 902,-83 902,-53 738,-53"/>
<text text-anchor="start" x="746" y="-71" font-family="Helvetica,sans-Serif" font-size="10.00">panels.ParameterPanel.update</text>
<text text-anchor="middle" x="820" y="-60" font-family="Helvetica,sans-Serif" font-size="10.00">Variables</text>
</a>
</g>
</g>
<!-- Node25&#45;&gt;Node26 -->
<g id="edge28" class="edge"><title>Node25&#45;&gt;Node26</title>
<path fill="none" stroke="midnightblue" d="M694.237,-84.4662C705.083,-83.0348 716.386,-81.5429 727.568,-80.0671"/>
<polygon fill="midnightblue" stroke="midnightblue" points="728.33,-83.497 737.786,-78.7186 727.414,-76.5572 728.33,-83.497"/>
</g>
<!-- Node27 -->
<g id="node27" class="node"><title>Node27</title>
<g id="a_node27"><a xlink:href="../../d0/d8f/classtitle_panes_1_1_variable_title_pane.html#a395dd58ae72e6111fce8e99be3c03842" target="_top" xlink:title="titlePanes.VariableTitle\lPane.updateVariables">
<polygon fill="white" stroke="black" points="970,-49 970,-79 1094,-79 1094,-49 970,-49"/>
<text text-anchor="start" x="978" y="-67" font-family="Helvetica,sans-Serif" font-size="10.00">titlePanes.VariableTitle</text>
<text text-anchor="middle" x="1032" y="-56" font-family="Helvetica,sans-Serif" font-size="10.00">Pane.updateVariables</text>
</a>
</g>
</g>
<!-- Node26&#45;&gt;Node27 -->
<g id="edge29" class="edge"><title>Node26&#45;&gt;Node27</title>
<path fill="none" stroke="midnightblue" d="M902.191,-66.4535C921.181,-66.0918 941.268,-65.7092 959.785,-65.3565"/>
<polygon fill="midnightblue" stroke="midnightblue" points="959.963,-68.8538 969.895,-65.1639 959.83,-61.8551 959.963,-68.8538"/>
</g>
<!-- Node28 -->
<g id="node28" class="node"><title>Node28</title>
<g id="a_node28"><a xlink:href="../../d0/d8f/classtitle_panes_1_1_variable_title_pane.html#a007ec1abdc73761490261f283e07338e" target="_top" xlink:title="titlePanes.VariableTitle\lPane.writeVariables">
<polygon fill="white" stroke="black" points="1199,-49 1199,-79 1323,-79 1323,-49 1199,-49"/>
<text text-anchor="start" x="1207" y="-67" font-family="Helvetica,sans-Serif" font-size="10.00">titlePanes.VariableTitle</text>
<text text-anchor="middle" x="1261" y="-56" font-family="Helvetica,sans-Serif" font-size="10.00">Pane.writeVariables</text>
</a>
</g>
</g>
<!-- Node27&#45;&gt;Node28 -->
<g id="edge30" class="edge"><title>Node27&#45;&gt;Node28</title>
<path fill="none" stroke="midnightblue" d="M1094.13,-64C1123.27,-64 1158.31,-64 1188.66,-64"/>
<polygon fill="midnightblue" stroke="midnightblue" points="1188.76,-67.5001 1198.76,-64 1188.76,-60.5001 1188.76,-67.5001"/>
</g>
</g>
</svg>
