<?xml version="1.0" encoding="UTF-8" standalone="no"?>
<!DOCTYPE svg PUBLIC "-//W3C//DTD SVG 1.1//EN"
 "http://www.w3.org/Graphics/SVG/1.1/DTD/svg11.dtd">
<!-- Generated by graphviz version 2.36.0 (20140111.2315)
 -->
<!-- Title: backEnd.Controller.changeTurtleImage Pages: 1 -->
<svg width="722pt" height="38pt"
 viewBox="0.00 0.00 722.00 38.00" xmlns="http://www.w3.org/2000/svg" xmlns:xlink="http://www.w3.org/1999/xlink">
<g id="graph0" class="graph" transform="scale(1 1) rotate(0) translate(4 34)">
<title>backEnd.Controller.changeTurtleImage</title>
<polygon fill="white" stroke="none" points="-4,4 -4,-34 718,-34 718,4 -4,4"/>
<!-- Node1 -->
<g id="node1" class="node"><title>Node1</title>
<polygon fill="#bfbfbf" stroke="black" points="0,-0 0,-30 144,-30 144,-0 0,-0"/>
<text text-anchor="start" x="8" y="-18" font-family="Helvetica,sans-Serif" font-size="10.00">backEnd.Controller.change</text>
<text text-anchor="middle" x="72" y="-7" font-family="Helvetica,sans-Serif" font-size="10.00">TurtleImage</text>
</g>
<!-- Node2 -->
<g id="node2" class="node"><title>Node2</title>
<g id="a_node2"><a xlink:href="../../d8/d1f/classfront_end_1_1_view.html#ae7a2f6e6f22069bcaaf142dc37349dee" target="_top" xlink:title="frontEnd.View.changeTurtle\lImage">
<polygon fill="white" stroke="black" points="180.5,-0 180.5,-30 325.5,-30 325.5,-0 180.5,-0"/>
<text text-anchor="start" x="188.5" y="-18" font-family="Helvetica,sans-Serif" font-size="10.00">frontEnd.View.changeTurtle</text>
<text text-anchor="middle" x="253" y="-7" font-family="Helvetica,sans-Serif" font-size="10.00">Image</text>
</a>
</g>
</g>
<!-- Node1&#45;&gt;Node2 -->
<g id="edge1" class="edge"><title>Node1&#45;&gt;Node2</title>
<path fill="none" stroke="midnightblue" d="M144.003,-15C152.632,-15 161.501,-15 170.27,-15"/>
<polygon fill="midnightblue" stroke="midnightblue" points="170.497,-18.5001 180.497,-15 170.497,-11.5001 170.497,-18.5001"/>
</g>
<!-- Node3 -->
<g id="node3" class="node"><title>Node3</title>
<g id="a_node3"><a xlink:href="../../d5/df1/classfront_end_1_1_turtle_canvas.html#a4c8d20e109a3445a41c1c4a02928ad5c" target="_top" xlink:title="frontEnd.TurtleCanvas.change\lTurtleImage">
<polygon fill="white" stroke="black" points="362.5,-0 362.5,-30 521.5,-30 521.5,-0 362.5,-0"/>
<text text-anchor="start" x="370.5" y="-18" font-family="Helvetica,sans-Serif" font-size="10.00">frontEnd.TurtleCanvas.change</text>
<text text-anchor="middle" x="442" y="-7" font-family="Helvetica,sans-Serif" font-size="10.00">TurtleImage</text>
</a>
</g>
</g>
<!-- Node2&#45;&gt;Node3 -->
<g id="edge2" class="edge"><title>Node2&#45;&gt;Node3</title>
<path fill="none" stroke="midnightblue" d="M325.764,-15C334.352,-15 343.198,-15 351.991,-15"/>
<polygon fill="midnightblue" stroke="midnightblue" points="352.271,-18.5001 362.271,-15 352.271,-11.5001 352.271,-18.5001"/>
</g>
<!-- Node4 -->
<g id="node4" class="node"><title>Node4</title>
<g id="a_node4"><a xlink:href="../../dc/dcd/classfront_end_1_1_turtle_view.html#af8d2b97ffef04e1b6ea796b9db58eed8" target="_top" xlink:title="frontEnd.TurtleView.setImage">
<polygon fill="white" stroke="black" points="558.5,-5.5 558.5,-24.5 713.5,-24.5 713.5,-5.5 558.5,-5.5"/>
<text text-anchor="middle" x="636" y="-12.5" font-family="Helvetica,sans-Serif" font-size="10.00">frontEnd.TurtleView.setImage</text>
</a>
</g>
</g>
<!-- Node3&#45;&gt;Node4 -->
<g id="edge3" class="edge"><title>Node3&#45;&gt;Node4</title>
<path fill="none" stroke="midnightblue" d="M521.648,-15C530.357,-15 539.263,-15 548.066,-15"/>
<polygon fill="midnightblue" stroke="midnightblue" points="548.335,-18.5001 558.335,-15 548.335,-11.5001 548.335,-18.5001"/>
</g>
</g>
</svg>
