<?xml version="1.0" encoding="UTF-8" standalone="no"?>
<!DOCTYPE svg PUBLIC "-//W3C//DTD SVG 1.1//EN"
 "http://www.w3.org/Graphics/SVG/1.1/DTD/svg11.dtd">
<!-- Generated by graphviz version 2.36.0 (20140111.2315)
 -->
<!-- Title: backEnd.Controller.runScript Pages: 1 -->
<svg width="952pt" height="177pt"
 viewBox="0.00 0.00 952.00 177.00" xmlns="http://www.w3.org/2000/svg" xmlns:xlink="http://www.w3.org/1999/xlink">
<g id="graph0" class="graph" transform="scale(1 1) rotate(0) translate(4 173)">
<title>backEnd.Controller.runScript</title>
<polygon fill="white" stroke="none" points="-4,4 -4,-173 948,-173 948,4 -4,4"/>
<!-- Node1 -->
<g id="node1" class="node"><title>Node1</title>
<polygon fill="#bfbfbf" stroke="black" points="0,-65.5 0,-84.5 152,-84.5 152,-65.5 0,-65.5"/>
<text text-anchor="middle" x="76" y="-72.5" font-family="Helvetica,sans-Serif" font-size="10.00">backEnd.Controller.runScript</text>
</g>
<!-- Node2 -->
<g id="node2" class="node"><title>Node2</title>
<g id="a_node2"><a xlink:href="../../de/d03/classpanels_1_1_script_panel.html#ae6ae56472ef1a975597bad69844662c6" target="_top" xlink:title="panels.ScriptPanel.handler">
<polygon fill="white" stroke="black" points="190.5,-130.5 190.5,-149.5 333.5,-149.5 333.5,-130.5 190.5,-130.5"/>
<text text-anchor="middle" x="262" y="-137.5" font-family="Helvetica,sans-Serif" font-size="10.00">panels.ScriptPanel.handler</text>
</a>
</g>
</g>
<!-- Node1&#45;&gt;Node2 -->
<g id="edge1" class="edge"><title>Node1&#45;&gt;Node2</title>
<path fill="none" stroke="midnightblue" d="M113.673,-87.9552C149.198,-100.505 202.232,-119.24 234.039,-130.476"/>
<polygon fill="midnightblue" stroke="midnightblue" points="114.745,-84.6218 104.15,-84.591 112.413,-91.2221 114.745,-84.6218"/>
</g>
<!-- Node4 -->
<g id="node4" class="node"><title>Node4</title>
<g id="a_node4"><a xlink:href="../../da/d04/classtitle_panes_1_1_control_title_pane.html#af28eba60fefe51c70e763d51d9123ea3" target="_top" xlink:title="titlePanes.ControlTitlePane.make\lLocationFields">
<polygon fill="white" stroke="black" points="588.5,-0 588.5,-30 761.5,-30 761.5,-0 588.5,-0"/>
<text text-anchor="start" x="596.5" y="-18" font-family="Helvetica,sans-Serif" font-size="10.00">titlePanes.ControlTitlePane.make</text>
<text text-anchor="middle" x="675" y="-7" font-family="Helvetica,sans-Serif" font-size="10.00">LocationFields</text>
</a>
</g>
</g>
<!-- Node1&#45;&gt;Node4 -->
<g id="edge3" class="edge"><title>Node1&#45;&gt;Node4</title>
<path fill="none" stroke="midnightblue" d="M137.177,-63.7364C153.616,-60.9228 171.457,-58.1097 188,-56 327.641,-38.1916 490.877,-26.222 588.171,-20.018"/>
<polygon fill="midnightblue" stroke="midnightblue" points="136.399,-60.3191 127.147,-65.4821 137.599,-67.2155 136.399,-60.3191"/>
</g>
<!-- Node6 -->
<g id="node6" class="node"><title>Node6</title>
<g id="a_node6"><a xlink:href="../../d9/d49/classback_end_1_1_controller.html#a3b0bbf0a084bb4fb63d118f66e7327b1" target="_top" xlink:title="backEnd.Controller.move10">
<polygon fill="white" stroke="black" points="188,-65.5 188,-84.5 336,-84.5 336,-65.5 188,-65.5"/>
<text text-anchor="middle" x="262" y="-72.5" font-family="Helvetica,sans-Serif" font-size="10.00">backEnd.Controller.move10</text>
</a>
</g>
</g>
<!-- Node1&#45;&gt;Node6 -->
<g id="edge5" class="edge"><title>Node1&#45;&gt;Node6</title>
<path fill="none" stroke="midnightblue" d="M162.156,-75C170.765,-75 179.454,-75 187.92,-75"/>
<polygon fill="midnightblue" stroke="midnightblue" points="162.105,-71.5001 152.105,-75 162.105,-78.5001 162.105,-71.5001"/>
</g>
<!-- Node3 -->
<g id="node3" class="node"><title>Node3</title>
<g id="a_node3"><a xlink:href="../../de/d03/classpanels_1_1_script_panel.html#ac959f1785cff7409d857d3bea9b8ee63" target="_top" xlink:title="panels.ScriptPanel.Script\lPanel">
<polygon fill="white" stroke="black" points="394.5,-139 394.5,-169 529.5,-169 529.5,-139 394.5,-139"/>
<text text-anchor="start" x="402.5" y="-157" font-family="Helvetica,sans-Serif" font-size="10.00">panels.ScriptPanel.Script</text>
<text text-anchor="middle" x="462" y="-146" font-family="Helvetica,sans-Serif" font-size="10.00">Panel</text>
</a>
</g>
</g>
<!-- Node2&#45;&gt;Node3 -->
<g id="edge2" class="edge"><title>Node2&#45;&gt;Node3</title>
<path fill="none" stroke="midnightblue" d="M343.965,-145.725C360.719,-146.909 378.185,-148.144 394.358,-149.288"/>
<polygon fill="midnightblue" stroke="midnightblue" points="343.866,-142.209 333.644,-144.995 343.372,-149.192 343.866,-142.209"/>
</g>
<!-- Node5 -->
<g id="node5" class="node"><title>Node5</title>
<g id="a_node5"><a xlink:href="../../da/d04/classtitle_panes_1_1_control_title_pane.html#ad9d4431a2657a30fedae46e0c9093867" target="_top" xlink:title="titlePanes.ControlTitlePane.\lControlTitlePane">
<polygon fill="white" stroke="black" points="798,-24 798,-54 944,-54 944,-24 798,-24"/>
<text text-anchor="start" x="806" y="-42" font-family="Helvetica,sans-Serif" font-size="10.00">titlePanes.ControlTitlePane.</text>
<text text-anchor="middle" x="871" y="-31" font-family="Helvetica,sans-Serif" font-size="10.00">ControlTitlePane</text>
</a>
</g>
</g>
<!-- Node4&#45;&gt;Node5 -->
<g id="edge4" class="edge"><title>Node4&#45;&gt;Node5</title>
<path fill="none" stroke="midnightblue" d="M771.602,-26.8271C780.431,-27.9193 789.276,-29.0135 797.843,-30.0734"/>
<polygon fill="midnightblue" stroke="midnightblue" points="772.01,-23.3509 761.656,-25.5966 771.151,-30.298 772.01,-23.3509"/>
</g>
<!-- Node7 -->
<g id="node7" class="node"><title>Node7</title>
<g id="a_node7"><a xlink:href="../../d9/d49/classback_end_1_1_controller.html#a7893477f39915a5169eb8da0dff60628" target="_top" xlink:title="backEnd.Controller.build\lKeyListener">
<polygon fill="white" stroke="black" points="396.5,-90 396.5,-120 527.5,-120 527.5,-90 396.5,-90"/>
<text text-anchor="start" x="404.5" y="-108" font-family="Helvetica,sans-Serif" font-size="10.00">backEnd.Controller.build</text>
<text text-anchor="middle" x="462" y="-97" font-family="Helvetica,sans-Serif" font-size="10.00">KeyListener</text>
</a>
</g>
</g>
<!-- Node6&#45;&gt;Node7 -->
<g id="edge6" class="edge"><title>Node6&#45;&gt;Node7</title>
<path fill="none" stroke="midnightblue" d="M336.076,-86.0721C355.787,-89.0587 376.974,-92.2687 396.198,-95.1816"/>
<polygon fill="midnightblue" stroke="midnightblue" points="336.332,-82.571 325.92,-84.5334 335.283,-89.492 336.332,-82.571"/>
</g>
<!-- Node9 -->
<g id="node9" class="node"><title>Node9</title>
<g id="a_node9"><a xlink:href="../../da/d04/classtitle_panes_1_1_control_title_pane.html#ae994c7b4dd988b30fc824e9e893b3ccf" target="_top" xlink:title="titlePanes.ControlTitlePane.handle">
<polygon fill="white" stroke="black" points="372.5,-51.5 372.5,-70.5 551.5,-70.5 551.5,-51.5 372.5,-51.5"/>
<text text-anchor="middle" x="462" y="-58.5" font-family="Helvetica,sans-Serif" font-size="10.00">titlePanes.ControlTitlePane.handle</text>
</a>
</g>
</g>
<!-- Node6&#45;&gt;Node9 -->
<g id="edge8" class="edge"><title>Node6&#45;&gt;Node9</title>
<path fill="none" stroke="midnightblue" d="M346.219,-69.1158C354.862,-68.5047 363.669,-67.882 372.369,-67.2668"/>
<polygon fill="midnightblue" stroke="midnightblue" points="345.894,-65.63 336.165,-69.8267 346.387,-72.6126 345.894,-65.63"/>
</g>
<!-- Node8 -->
<g id="node8" class="node"><title>Node8</title>
<g id="a_node8"><a xlink:href="../../d9/d49/classback_end_1_1_controller.html#a987136eaba0798749f393bac2a9a2400" target="_top" xlink:title="backEnd.Controller.Controller">
<polygon fill="white" stroke="black" points="597.5,-98.5 597.5,-117.5 752.5,-117.5 752.5,-98.5 597.5,-98.5"/>
<text text-anchor="middle" x="675" y="-105.5" font-family="Helvetica,sans-Serif" font-size="10.00">backEnd.Controller.Controller</text>
</a>
</g>
</g>
<!-- Node7&#45;&gt;Node8 -->
<g id="edge7" class="edge"><title>Node7&#45;&gt;Node8</title>
<path fill="none" stroke="midnightblue" d="M537.939,-106.065C557.149,-106.339 577.839,-106.633 597.145,-106.907"/>
<polygon fill="midnightblue" stroke="midnightblue" points="537.79,-102.563 527.741,-105.92 537.69,-109.562 537.79,-102.563"/>
</g>
<!-- Node9&#45;&gt;Node4 -->
<g id="edge11" class="edge"><title>Node9&#45;&gt;Node4</title>
<path fill="none" stroke="midnightblue" d="M516.693,-49.2945C543.53,-43.4436 576.318,-36.2957 605,-30.0427"/>
<polygon fill="midnightblue" stroke="midnightblue" points="515.744,-45.919 506.719,-51.4688 517.235,-52.7583 515.744,-45.919"/>
</g>
<!-- Node10 -->
<g id="node10" class="node"><title>Node10</title>
<g id="a_node10"><a xlink:href="../../da/d04/classtitle_panes_1_1_control_title_pane.html#a974c75cbdf64007af637c8b19a26b215" target="_top" xlink:title="titlePanes.ControlTitlePane.make\lButtons">
<polygon fill="white" stroke="black" points="588.5,-49 588.5,-79 761.5,-79 761.5,-49 588.5,-49"/>
<text text-anchor="start" x="596.5" y="-67" font-family="Helvetica,sans-Serif" font-size="10.00">titlePanes.ControlTitlePane.make</text>
<text text-anchor="middle" x="675" y="-56" font-family="Helvetica,sans-Serif" font-size="10.00">Buttons</text>
</a>
</g>
</g>
<!-- Node9&#45;&gt;Node10 -->
<g id="edge9" class="edge"><title>Node9&#45;&gt;Node10</title>
<path fill="none" stroke="midnightblue" d="M561.613,-62.4021C570.549,-62.5291 579.551,-62.6571 588.361,-62.7824"/>
<polygon fill="midnightblue" stroke="midnightblue" points="561.615,-58.9018 551.566,-62.2592 561.515,-65.9011 561.615,-58.9018"/>
</g>
<!-- Node10&#45;&gt;Node5 -->
<g id="edge10" class="edge"><title>Node10&#45;&gt;Node5</title>
<path fill="none" stroke="midnightblue" d="M771.602,-51.6801C780.431,-50.5423 789.276,-49.4026 797.843,-48.2985"/>
<polygon fill="midnightblue" stroke="midnightblue" points="771.127,-48.2124 761.656,-52.9619 772.021,-55.155 771.127,-48.2124"/>
</g>
</g>
</svg>
