<?xml version="1.0" encoding="UTF-8" standalone="no"?>
<!DOCTYPE svg PUBLIC "-//W3C//DTD SVG 1.1//EN"
 "http://www.w3.org/Graphics/SVG/1.1/DTD/svg11.dtd">
<!-- Generated by graphviz version 2.36.0 (20140111.2315)
 -->
<!-- Title: backEnd.Controller.setVariableProperties Pages: 1 -->
<svg width="546pt" height="38pt"
 viewBox="0.00 0.00 546.00 38.00" xmlns="http://www.w3.org/2000/svg" xmlns:xlink="http://www.w3.org/1999/xlink">
<g id="graph0" class="graph" transform="scale(1 1) rotate(0) translate(4 34)">
<title>backEnd.Controller.setVariableProperties</title>
<polygon fill="white" stroke="none" points="-4,4 -4,-34 542,-34 542,4 -4,4"/>
<!-- Node1 -->
<g id="node1" class="node"><title>Node1</title>
<polygon fill="#bfbfbf" stroke="black" points="0,-0 0,-30 162,-30 162,-0 0,-0"/>
<text text-anchor="start" x="8" y="-18" font-family="Helvetica,sans-Serif" font-size="10.00">backEnd.Controller.setVariable</text>
<text text-anchor="middle" x="81" y="-7" font-family="Helvetica,sans-Serif" font-size="10.00">Properties</text>
</g>
<!-- Node2 -->
<g id="node2" class="node"><title>Node2</title>
<g id="a_node2"><a xlink:href="../../d9/d98/classback_end_1_1_model.html#aea0aabbfcf51ab9a8bdfc671be6eb798" target="_top" xlink:title="backEnd.Model.setVariable\lProperties">
<polygon fill="white" stroke="black" points="198.5,-0 198.5,-30 343.5,-30 343.5,-0 198.5,-0"/>
<text text-anchor="start" x="206.5" y="-18" font-family="Helvetica,sans-Serif" font-size="10.00">backEnd.Model.setVariable</text>
<text text-anchor="middle" x="271" y="-7" font-family="Helvetica,sans-Serif" font-size="10.00">Properties</text>
</a>
</g>
</g>
<!-- Node1&#45;&gt;Node2 -->
<g id="edge1" class="edge"><title>Node1&#45;&gt;Node2</title>
<path fill="none" stroke="midnightblue" d="M162.002,-15C170.693,-15 179.548,-15 188.26,-15"/>
<polygon fill="midnightblue" stroke="midnightblue" points="188.403,-18.5001 198.403,-15 188.403,-11.5001 188.403,-18.5001"/>
</g>
<!-- Node3 -->
<g id="node3" class="node"><title>Node3</title>
<g id="a_node3"><a xlink:href="../../d8/d6a/classback_end_1_1_variable_manager.html#a3a5bea97331ef80c575d9c7dfc746c79" target="_top" xlink:title="backEnd.VariableManager.set\lVarProperties">
<polygon fill="white" stroke="black" points="380,-0 380,-30 538,-30 538,-0 380,-0"/>
<text text-anchor="start" x="388" y="-18" font-family="Helvetica,sans-Serif" font-size="10.00">backEnd.VariableManager.set</text>
<text text-anchor="middle" x="459" y="-7" font-family="Helvetica,sans-Serif" font-size="10.00">VarProperties</text>
</a>
</g>
</g>
<!-- Node2&#45;&gt;Node3 -->
<g id="edge2" class="edge"><title>Node2&#45;&gt;Node3</title>
<path fill="none" stroke="midnightblue" d="M343.646,-15C352.179,-15 360.965,-15 369.695,-15"/>
<polygon fill="midnightblue" stroke="midnightblue" points="369.9,-18.5001 379.9,-15 369.9,-11.5001 369.9,-18.5001"/>
</g>
</g>
</svg>
