<?xml version="1.0" encoding="UTF-8" standalone="no"?>
<!DOCTYPE svg PUBLIC "-//W3C//DTD SVG 1.1//EN"
 "http://www.w3.org/Graphics/SVG/1.1/DTD/svg11.dtd">
<!-- Generated by graphviz version 2.36.0 (20140111.2315)
 -->
<!-- Title: backEnd.Controller.changePenColor Pages: 1 -->
<svg width="544pt" height="38pt"
 viewBox="0.00 0.00 544.00 38.00" xmlns="http://www.w3.org/2000/svg" xmlns:xlink="http://www.w3.org/1999/xlink">
<g id="graph0" class="graph" transform="scale(1 1) rotate(0) translate(4 34)">
<title>backEnd.Controller.changePenColor</title>
<polygon fill="white" stroke="none" points="-4,4 -4,-34 540,-34 540,4 -4,4"/>
<!-- Node1 -->
<g id="node1" class="node"><title>Node1</title>
<polygon fill="#bfbfbf" stroke="black" points="0,-0 0,-30 144,-30 144,-0 0,-0"/>
<text text-anchor="start" x="8" y="-18" font-family="Helvetica,sans-Serif" font-size="10.00">backEnd.Controller.change</text>
<text text-anchor="middle" x="72" y="-7" font-family="Helvetica,sans-Serif" font-size="10.00">PenColor</text>
</g>
<!-- Node2 -->
<g id="node2" class="node"><title>Node2</title>
<g id="a_node2"><a xlink:href="../../da/d04/classtitle_panes_1_1_control_title_pane.html#a34e6959ea802f029e594f26b77b9e736" target="_top" xlink:title="titlePanes.ControlTitlePane.make\lPenColorBox">
<polygon fill="white" stroke="black" points="180.5,-0 180.5,-30 353.5,-30 353.5,-0 180.5,-0"/>
<text text-anchor="start" x="188.5" y="-18" font-family="Helvetica,sans-Serif" font-size="10.00">titlePanes.ControlTitlePane.make</text>
<text text-anchor="middle" x="267" y="-7" font-family="Helvetica,sans-Serif" font-size="10.00">PenColorBox</text>
</a>
</g>
</g>
<!-- Node1&#45;&gt;Node2 -->
<g id="edge1" class="edge"><title>Node1&#45;&gt;Node2</title>
<path fill="none" stroke="midnightblue" d="M154.132,-15C162.808,-15 171.653,-15 180.378,-15"/>
<polygon fill="midnightblue" stroke="midnightblue" points="154.044,-11.5001 144.044,-15 154.044,-18.5001 154.044,-11.5001"/>
</g>
<!-- Node3 -->
<g id="node3" class="node"><title>Node3</title>
<g id="a_node3"><a xlink:href="../../da/d04/classtitle_panes_1_1_control_title_pane.html#ad9d4431a2657a30fedae46e0c9093867" target="_top" xlink:title="titlePanes.ControlTitlePane.\lControlTitlePane">
<polygon fill="white" stroke="black" points="390,-0 390,-30 536,-30 536,-0 390,-0"/>
<text text-anchor="start" x="398" y="-18" font-family="Helvetica,sans-Serif" font-size="10.00">titlePanes.ControlTitlePane.</text>
<text text-anchor="middle" x="463" y="-7" font-family="Helvetica,sans-Serif" font-size="10.00">ControlTitlePane</text>
</a>
</g>
</g>
<!-- Node2&#45;&gt;Node3 -->
<g id="edge2" class="edge"><title>Node2&#45;&gt;Node3</title>
<path fill="none" stroke="midnightblue" d="M363.887,-15C372.622,-15 381.368,-15 389.843,-15"/>
<polygon fill="midnightblue" stroke="midnightblue" points="363.656,-11.5001 353.656,-15 363.656,-18.5001 363.656,-11.5001"/>
</g>
</g>
</svg>
