<?xml version="1.0" encoding="UTF-8" standalone="no"?>
<!DOCTYPE svg PUBLIC "-//W3C//DTD SVG 1.1//EN"
 "http://www.w3.org/Graphics/SVG/1.1/DTD/svg11.dtd">
<!-- Generated by graphviz version 2.36.0 (20140111.2315)
 -->
<!-- Title: backEnd.Controller.move10 Pages: 1 -->
<svg width="764pt" height="131pt"
 viewBox="0.00 0.00 764.00 131.00" xmlns="http://www.w3.org/2000/svg" xmlns:xlink="http://www.w3.org/1999/xlink">
<g id="graph0" class="graph" transform="scale(1 1) rotate(0) translate(4 127)">
<title>backEnd.Controller.move10</title>
<polygon fill="white" stroke="none" points="-4,4 -4,-127 760,-127 760,4 -4,4"/>
<!-- Node1 -->
<g id="node1" class="node"><title>Node1</title>
<polygon fill="#bfbfbf" stroke="black" points="0,-76.5 0,-95.5 148,-95.5 148,-76.5 0,-76.5"/>
<text text-anchor="middle" x="74" y="-83.5" font-family="Helvetica,sans-Serif" font-size="10.00">backEnd.Controller.move10</text>
</g>
<!-- Node2 -->
<g id="node2" class="node"><title>Node2</title>
<g id="a_node2"><a xlink:href="../../d9/d49/classback_end_1_1_controller.html#a7893477f39915a5169eb8da0dff60628" target="_top" xlink:title="backEnd.Controller.build\lKeyListener">
<polygon fill="white" stroke="black" points="208.5,-93 208.5,-123 339.5,-123 339.5,-93 208.5,-93"/>
<text text-anchor="start" x="216.5" y="-111" font-family="Helvetica,sans-Serif" font-size="10.00">backEnd.Controller.build</text>
<text text-anchor="middle" x="274" y="-100" font-family="Helvetica,sans-Serif" font-size="10.00">KeyListener</text>
</a>
</g>
</g>
<!-- Node1&#45;&gt;Node2 -->
<g id="edge1" class="edge"><title>Node1&#45;&gt;Node2</title>
<path fill="none" stroke="midnightblue" d="M158.446,-95.2718C175.11,-97.1233 192.377,-99.0419 208.295,-100.811"/>
<polygon fill="midnightblue" stroke="midnightblue" points="158.491,-91.7553 148.165,-94.1295 157.718,-98.7125 158.491,-91.7553"/>
</g>
<!-- Node4 -->
<g id="node4" class="node"><title>Node4</title>
<g id="a_node4"><a xlink:href="../../da/d04/classtitle_panes_1_1_control_title_pane.html#ae994c7b4dd988b30fc824e9e893b3ccf" target="_top" xlink:title="titlePanes.ControlTitlePane.handle">
<polygon fill="white" stroke="black" points="184.5,-54.5 184.5,-73.5 363.5,-73.5 363.5,-54.5 184.5,-54.5"/>
<text text-anchor="middle" x="274" y="-61.5" font-family="Helvetica,sans-Serif" font-size="10.00">titlePanes.ControlTitlePane.handle</text>
</a>
</g>
</g>
<!-- Node1&#45;&gt;Node4 -->
<g id="edge3" class="edge"><title>Node1&#45;&gt;Node4</title>
<path fill="none" stroke="midnightblue" d="M158.156,-76.7604C167.83,-75.6855 177.712,-74.5876 187.418,-73.5091"/>
<polygon fill="midnightblue" stroke="midnightblue" points="157.718,-73.2875 148.165,-77.8705 158.491,-80.2447 157.718,-73.2875"/>
</g>
<!-- Node3 -->
<g id="node3" class="node"><title>Node3</title>
<g id="a_node3"><a xlink:href="../../d9/d49/classback_end_1_1_controller.html#a987136eaba0798749f393bac2a9a2400" target="_top" xlink:title="backEnd.Controller.Controller">
<polygon fill="white" stroke="black" points="409.5,-98.5 409.5,-117.5 564.5,-117.5 564.5,-98.5 409.5,-98.5"/>
<text text-anchor="middle" x="487" y="-105.5" font-family="Helvetica,sans-Serif" font-size="10.00">backEnd.Controller.Controller</text>
</a>
</g>
</g>
<!-- Node2&#45;&gt;Node3 -->
<g id="edge2" class="edge"><title>Node2&#45;&gt;Node3</title>
<path fill="none" stroke="midnightblue" d="M349.939,-108C369.149,-108 389.839,-108 409.145,-108"/>
<polygon fill="midnightblue" stroke="midnightblue" points="349.741,-104.5 339.741,-108 349.741,-111.5 349.741,-104.5"/>
</g>
<!-- Node5 -->
<g id="node5" class="node"><title>Node5</title>
<g id="a_node5"><a xlink:href="../../da/d04/classtitle_panes_1_1_control_title_pane.html#a974c75cbdf64007af637c8b19a26b215" target="_top" xlink:title="titlePanes.ControlTitlePane.make\lButtons">
<polygon fill="white" stroke="black" points="400.5,-49 400.5,-79 573.5,-79 573.5,-49 400.5,-49"/>
<text text-anchor="start" x="408.5" y="-67" font-family="Helvetica,sans-Serif" font-size="10.00">titlePanes.ControlTitlePane.make</text>
<text text-anchor="middle" x="487" y="-56" font-family="Helvetica,sans-Serif" font-size="10.00">Buttons</text>
</a>
</g>
</g>
<!-- Node4&#45;&gt;Node5 -->
<g id="edge4" class="edge"><title>Node4&#45;&gt;Node5</title>
<path fill="none" stroke="midnightblue" d="M373.613,-64C382.549,-64 391.551,-64 400.361,-64"/>
<polygon fill="midnightblue" stroke="midnightblue" points="373.566,-60.5001 363.566,-64 373.566,-67.5001 373.566,-60.5001"/>
</g>
<!-- Node7 -->
<g id="node7" class="node"><title>Node7</title>
<g id="a_node7"><a xlink:href="../../da/d04/classtitle_panes_1_1_control_title_pane.html#af28eba60fefe51c70e763d51d9123ea3" target="_top" xlink:title="titlePanes.ControlTitlePane.make\lLocationFields">
<polygon fill="white" stroke="black" points="400.5,-0 400.5,-30 573.5,-30 573.5,-0 400.5,-0"/>
<text text-anchor="start" x="408.5" y="-18" font-family="Helvetica,sans-Serif" font-size="10.00">titlePanes.ControlTitlePane.make</text>
<text text-anchor="middle" x="487" y="-7" font-family="Helvetica,sans-Serif" font-size="10.00">LocationFields</text>
</a>
</g>
</g>
<!-- Node4&#45;&gt;Node7 -->
<g id="edge6" class="edge"><title>Node4&#45;&gt;Node7</title>
<path fill="none" stroke="midnightblue" d="M325.728,-52.2196C354.356,-45.5714 390.43,-37.194 421.101,-30.0713"/>
<polygon fill="midnightblue" stroke="midnightblue" points="324.882,-48.8228 315.933,-54.4942 326.466,-55.6413 324.882,-48.8228"/>
</g>
<!-- Node6 -->
<g id="node6" class="node"><title>Node6</title>
<g id="a_node6"><a xlink:href="../../da/d04/classtitle_panes_1_1_control_title_pane.html#ad9d4431a2657a30fedae46e0c9093867" target="_top" xlink:title="titlePanes.ControlTitlePane.\lControlTitlePane">
<polygon fill="white" stroke="black" points="610,-24 610,-54 756,-54 756,-24 610,-24"/>
<text text-anchor="start" x="618" y="-42" font-family="Helvetica,sans-Serif" font-size="10.00">titlePanes.ControlTitlePane.</text>
<text text-anchor="middle" x="683" y="-31" font-family="Helvetica,sans-Serif" font-size="10.00">ControlTitlePane</text>
</a>
</g>
</g>
<!-- Node5&#45;&gt;Node6 -->
<g id="edge5" class="edge"><title>Node5&#45;&gt;Node6</title>
<path fill="none" stroke="midnightblue" d="M583.602,-51.6801C592.431,-50.5423 601.276,-49.4026 609.843,-48.2985"/>
<polygon fill="midnightblue" stroke="midnightblue" points="583.127,-48.2124 573.656,-52.9619 584.021,-55.155 583.127,-48.2124"/>
</g>
<!-- Node7&#45;&gt;Node6 -->
<g id="edge7" class="edge"><title>Node7&#45;&gt;Node6</title>
<path fill="none" stroke="midnightblue" d="M583.602,-26.8271C592.431,-27.9193 601.276,-29.0135 609.843,-30.0734"/>
<polygon fill="midnightblue" stroke="midnightblue" points="584.01,-23.3509 573.656,-25.5966 583.151,-30.298 584.01,-23.3509"/>
</g>
</g>
</svg>
