<?xml version="1.0" encoding="UTF-8" standalone="no"?>
<!DOCTYPE svg PUBLIC "-//W3C//DTD SVG 1.1//EN"
 "http://www.w3.org/Graphics/SVG/1.1/DTD/svg11.dtd">
<!-- Generated by graphviz version 2.36.0 (20140111.2315)
 -->
<!-- Title: commands.onechild.SetBackgroundCommand Pages: 1 -->
<svg width="1338pt" height="611pt"
 viewBox="0.00 0.00 1338.00 611.29" xmlns="http://www.w3.org/2000/svg" xmlns:xlink="http://www.w3.org/1999/xlink">
<g id="graph0" class="graph" transform="scale(1 1) rotate(0) translate(4 607.29)">
<title>commands.onechild.SetBackgroundCommand</title>
<polygon fill="white" stroke="none" points="-4,4 -4,-607.29 1334,-607.29 1334,4 -4,4"/>
<!-- Node1 -->
<g id="node1" class="node"><title>Node1</title>
<polygon fill="#bfbfbf" stroke="black" points="1140,-160 1140,-190 1330,-190 1330,-160 1140,-160"/>
<text text-anchor="start" x="1148" y="-178" font-family="Helvetica,sans-Serif" font-size="10.00">commands.onechild.SetBackground</text>
<text text-anchor="middle" x="1235" y="-167" font-family="Helvetica,sans-Serif" font-size="10.00">Command</text>
</g>
<!-- Node2 -->
<g id="node2" class="node"><title>Node2</title>
<g id="a_node2"><a xlink:href="../../dc/d65/classcommands_1_1templates_1_1_one_child_command.html" target="_top" xlink:title="commands.templates.OneChild\lCommand">
<polygon fill="white" stroke="black" points="888,-110 888,-140 1056,-140 1056,-110 888,-110"/>
<text text-anchor="start" x="896" y="-128" font-family="Helvetica,sans-Serif" font-size="10.00">commands.templates.OneChild</text>
<text text-anchor="middle" x="972" y="-117" font-family="Helvetica,sans-Serif" font-size="10.00">Command</text>
</a>
</g>
</g>
<!-- Node2&#45;&gt;Node1 -->
<g id="edge1" class="edge"><title>Node2&#45;&gt;Node1</title>
<path fill="none" stroke="midnightblue" d="M1061.48,-141.95C1091.89,-147.776 1125.71,-154.256 1155.3,-159.923"/>
<polygon fill="midnightblue" stroke="midnightblue" points="1061.79,-138.446 1051.31,-140.002 1060.47,-145.321 1061.79,-138.446"/>
</g>
<!-- Node3 -->
<g id="node3" class="node"><title>Node3</title>
<g id="a_node3"><a xlink:href="../../d5/d62/classcommands_1_1templates_1_1_command.html" target="_top" xlink:title="commands.templates.Command">
<polygon fill="white" stroke="black" points="564,-47.5 564,-66.5 740,-66.5 740,-47.5 564,-47.5"/>
<text text-anchor="middle" x="652" y="-54.5" font-family="Helvetica,sans-Serif" font-size="10.00">commands.templates.Command</text>
</a>
</g>
</g>
<!-- Node3&#45;&gt;Node2 -->
<g id="edge2" class="edge"><title>Node3&#45;&gt;Node2</title>
<path fill="none" stroke="midnightblue" d="M750.254,-60.0866C788.129,-63.0389 831.58,-68.6063 870,-79 896.225,-86.0946 924.201,-99.3286 944.043,-109.787"/>
<polygon fill="midnightblue" stroke="midnightblue" points="750.469,-56.5931 740.241,-59.3562 749.96,-63.5746 750.469,-56.5931"/>
</g>
<!-- Node4 -->
<g id="node4" class="node"><title>Node4</title>
<polygon fill="white" stroke="#bfbfbf" points="249.5,-0 249.5,-30 402.5,-30 402.5,-0 249.5,-0"/>
<text text-anchor="start" x="257.5" y="-18" font-family="Helvetica,sans-Serif" font-size="10.00">List&lt; commands.templates.</text>
<text text-anchor="middle" x="326" y="-7" font-family="Helvetica,sans-Serif" font-size="10.00">Command &gt;</text>
</g>
<!-- Node4&#45;&gt;Node3 -->
<g id="edge3" class="edge"><title>Node4&#45;&gt;Node3</title>
<path fill="none" stroke="#9a32cd" stroke-dasharray="5,2" d="M412.636,-26.1009C463.968,-32.7552 528.565,-41.1288 577.56,-47.48"/>
<polygon fill="#9a32cd" stroke="#9a32cd" points="412.922,-22.6088 402.555,-24.7941 412.022,-29.5507 412.922,-22.6088"/>
<text text-anchor="middle" x="475" y="-43" font-family="Helvetica,sans-Serif" font-size="10.00"> myChildren</text>
</g>
<!-- Node5 -->
<g id="node5" class="node"><title>Node5</title>
<g id="a_node5"><a xlink:href="../../d8/d6a/classback_end_1_1_variable_manager.html" target="_top" xlink:title="backEnd.VariableManager">
<polygon fill="white" stroke="black" points="256,-153.5 256,-172.5 396,-172.5 396,-153.5 256,-153.5"/>
<text text-anchor="middle" x="326" y="-160.5" font-family="Helvetica,sans-Serif" font-size="10.00">backEnd.VariableManager</text>
</a>
</g>
</g>
<!-- Node5&#45;&gt;Node3 -->
<g id="edge4" class="edge"><title>Node5&#45;&gt;Node3</title>
<path fill="none" stroke="#9a32cd" stroke-dasharray="5,2" d="M360.082,-149.73C378.657,-142.618 402.382,-134.092 424,-128 468.549,-115.447 488.435,-134.039 526,-107 538.931,-97.6926 530.944,-85.13 544,-76 550.107,-71.7293 556.877,-68.3242 563.96,-65.6192"/>
<polygon fill="#9a32cd" stroke="#9a32cd" points="358.665,-146.526 350.608,-153.405 361.197,-153.052 358.665,-146.526"/>
<text text-anchor="middle" x="475" y="-131" font-family="Helvetica,sans-Serif" font-size="10.00"> myVariableManager</text>
</g>
<!-- Node8 -->
<g id="node8" class="node"><title>Node8</title>
<g id="a_node8"><a xlink:href="../../d9/d98/classback_end_1_1_model.html" target="_top" xlink:title="backEnd.Model">
<polygon fill="white" stroke="black" points="927.5,-202.5 927.5,-221.5 1016.5,-221.5 1016.5,-202.5 927.5,-202.5"/>
<text text-anchor="middle" x="972" y="-209.5" font-family="Helvetica,sans-Serif" font-size="10.00">backEnd.Model</text>
</a>
</g>
</g>
<!-- Node5&#45;&gt;Node8 -->
<g id="edge30" class="edge"><title>Node5&#45;&gt;Node8</title>
<path fill="none" stroke="#9a32cd" stroke-dasharray="5,2" d="M406.221,-173.167C412.233,-173.826 418.211,-174.447 424,-175 610.895,-192.868 834.526,-205.167 927.326,-209.871"/>
<polygon fill="#9a32cd" stroke="#9a32cd" points="406.427,-169.668 396.098,-172.025 405.643,-176.624 406.427,-169.668"/>
<text text-anchor="middle" x="652" y="-204" font-family="Helvetica,sans-Serif" font-size="10.00"> myVariableManager</text>
</g>
<!-- Node12 -->
<g id="node12" class="node"><title>Node12</title>
<g id="a_node12"><a xlink:href="../../d9/d1e/classback_end_1_1_parser.html" target="_top" xlink:title="backEnd.Parser">
<polygon fill="white" stroke="black" points="607,-85.5 607,-104.5 697,-104.5 697,-85.5 607,-85.5"/>
<text text-anchor="middle" x="652" y="-92.5" font-family="Helvetica,sans-Serif" font-size="10.00">backEnd.Parser</text>
</a>
</g>
</g>
<!-- Node5&#45;&gt;Node12 -->
<g id="edge14" class="edge"><title>Node5&#45;&gt;Node12</title>
<path fill="none" stroke="#9a32cd" stroke-dasharray="5,2" d="M406.275,-161.001C452.76,-158.537 506.149,-153.074 526,-141 538.322,-133.505 531.931,-121.895 544,-114 562.473,-101.916 586.411,-96.9092 606.959,-95.0342"/>
<polygon fill="#9a32cd" stroke="#9a32cd" points="405.987,-157.511 396.17,-161.497 406.33,-164.503 405.987,-157.511"/>
<text text-anchor="middle" x="475" y="-163" font-family="Helvetica,sans-Serif" font-size="10.00"> myVariableManager</text>
</g>
<!-- Node6 -->
<g id="node6" class="node"><title>Node6</title>
<polygon fill="white" stroke="#bfbfbf" points="0.5,-172.5 0.5,-191.5 115.5,-191.5 115.5,-172.5 0.5,-172.5"/>
<text text-anchor="middle" x="58" y="-179.5" font-family="Helvetica,sans-Serif" font-size="10.00">Stack&lt; Properties &gt;</text>
</g>
<!-- Node6&#45;&gt;Node5 -->
<g id="edge5" class="edge"><title>Node6&#45;&gt;Node5</title>
<path fill="none" stroke="#9a32cd" stroke-dasharray="5,2" d="M125.827,-177.227C165.428,-174.398 215.534,-170.819 255.581,-167.958"/>
<polygon fill="#9a32cd" stroke="#9a32cd" points="125.463,-173.744 115.737,-177.947 125.961,-180.726 125.463,-173.744"/>
<text text-anchor="middle" x="181" y="-180" font-family="Helvetica,sans-Serif" font-size="10.00"> myStoredVariables</text>
</g>
<!-- Node7 -->
<g id="node7" class="node"><title>Node7</title>
<polygon fill="white" stroke="#bfbfbf" points="25.5,-134.5 25.5,-153.5 90.5,-153.5 90.5,-134.5 25.5,-134.5"/>
<text text-anchor="middle" x="58" y="-141.5" font-family="Helvetica,sans-Serif" font-size="10.00">Properties</text>
</g>
<!-- Node7&#45;&gt;Node5 -->
<g id="edge6" class="edge"><title>Node7&#45;&gt;Node5</title>
<path fill="none" stroke="#9a32cd" stroke-dasharray="5,2" d="M100.867,-146.959C135.067,-149.38 184.661,-152.898 228,-156 237.01,-156.645 246.49,-157.326 255.851,-158"/>
<polygon fill="#9a32cd" stroke="#9a32cd" points="100.994,-143.46 90.7716,-146.245 100.5,-150.442 100.994,-143.46"/>
<text text-anchor="middle" x="181" y="-159" font-family="Helvetica,sans-Serif" font-size="10.00"> myVariables</text>
</g>
<!-- Node8&#45;&gt;Node1 -->
<g id="edge7" class="edge"><title>Node8&#45;&gt;Node1</title>
<path fill="none" stroke="#9a32cd" stroke-dasharray="5,2" d="M1026.89,-204.361C1059.43,-199.747 1101.82,-193.738 1139.77,-188.358"/>
<polygon fill="#9a32cd" stroke="#9a32cd" points="1026.1,-200.938 1016.69,-205.807 1027.08,-207.869 1026.1,-200.938"/>
<text text-anchor="middle" x="1098" y="-200" font-family="Helvetica,sans-Serif" font-size="10.00"> myModel</text>
</g>
<!-- Node9 -->
<g id="node9" class="node"><title>Node9</title>
<polygon fill="white" stroke="#bfbfbf" points="609,-271.5 609,-290.5 695,-290.5 695,-271.5 609,-271.5"/>
<text text-anchor="middle" x="652" y="-278.5" font-family="Helvetica,sans-Serif" font-size="10.00">StringProperty</text>
</g>
<!-- Node9&#45;&gt;Node8 -->
<g id="edge8" class="edge"><title>Node9&#45;&gt;Node8</title>
<path fill="none" stroke="#9a32cd" stroke-dasharray="5,2" d="M704.962,-275.065C749.228,-269.428 814.323,-259.762 870,-246 896.582,-239.43 926.186,-229.092 946.433,-221.54"/>
<polygon fill="#9a32cd" stroke="#9a32cd" points="704.5,-271.595 695.012,-276.309 705.369,-278.541 704.5,-271.595"/>
<text text-anchor="middle" x="824" y="-267" font-family="Helvetica,sans-Serif" font-size="10.00"> myPalette</text>
</g>
<!-- Node10 -->
<g id="node10" class="node"><title>Node10</title>
<polygon fill="white" stroke="#bfbfbf" points="12.5,-516.5 12.5,-535.5 103.5,-535.5 103.5,-516.5 12.5,-516.5"/>
<text text-anchor="middle" x="58" y="-523.5" font-family="Helvetica,sans-Serif" font-size="10.00">DoubleProperty</text>
</g>
<!-- Node10&#45;&gt;Node8 -->
<g id="edge9" class="edge"><title>Node10&#45;&gt;Node8</title>
<path fill="none" stroke="#9a32cd" stroke-dasharray="5,2" d="M85.5959,-540.258C99.7042,-547.436 117.493,-555.888 134,-562 248.055,-604.231 286.097,-612.377 406,-592 634.893,-553.101 708.552,-518.853 870,-352 912.515,-308.062 951.408,-245.249 965.454,-221.544"/>
<polygon fill="#9a32cd" stroke="#9a32cd" points="86.9669,-537.026 76.4775,-535.536 83.748,-543.242 86.9669,-537.026"/>
<text text-anchor="middle" x="475" y="-592" font-family="Helvetica,sans-Serif" font-size="10.00"> myBackgroundIndex</text>
</g>
<!-- Node20 -->
<g id="node20" class="node"><title>Node20</title>
<g id="a_node20"><a xlink:href="../../d8/d32/classback_end_1_1turtle_1_1_turtle.html" target="_top" xlink:title="backEnd.turtle.Turtle">
<polygon fill="white" stroke="black" points="595,-408.5 595,-427.5 709,-427.5 709,-408.5 595,-408.5"/>
<text text-anchor="middle" x="652" y="-415.5" font-family="Helvetica,sans-Serif" font-size="10.00">backEnd.turtle.Turtle</text>
</a>
</g>
</g>
<!-- Node10&#45;&gt;Node20 -->
<g id="edge24" class="edge"><title>Node10&#45;&gt;Node20</title>
<path fill="none" stroke="#9a32cd" stroke-dasharray="5,2" d="M112.571,-537.368C201.742,-553.77 384.766,-576.605 526,-523 579.26,-502.786 625.944,-449.585 643.545,-427.658"/>
<polygon fill="#9a32cd" stroke="#9a32cd" points="113.162,-533.918 102.687,-535.506 111.865,-540.797 113.162,-533.918"/>
<text text-anchor="middle" x="326" y="-582" font-family="Helvetica,sans-Serif" font-size="10.00"> myShapeIndex</text>
<text text-anchor="middle" x="326" y="-571" font-family="Helvetica,sans-Serif" font-size="10.00">myStampCount</text>
<text text-anchor="middle" x="326" y="-560" font-family="Helvetica,sans-Serif" font-size="10.00">myOrientation</text>
</g>
<!-- Node21 -->
<g id="node21" class="node"><title>Node21</title>
<g id="a_node21"><a xlink:href="../../dd/d87/classback_end_1_1turtle_1_1_pen.html" target="_top" xlink:title="backEnd.turtle.Pen">
<polygon fill="white" stroke="black" points="272.5,-413.5 272.5,-432.5 379.5,-432.5 379.5,-413.5 272.5,-413.5"/>
<text text-anchor="middle" x="326" y="-420.5" font-family="Helvetica,sans-Serif" font-size="10.00">backEnd.turtle.Pen</text>
</a>
</g>
</g>
<!-- Node10&#45;&gt;Node21 -->
<g id="edge23" class="edge"><title>Node10&#45;&gt;Node21</title>
<path fill="none" stroke="#9a32cd" stroke-dasharray="5,2" d="M78.7245,-510.067C93.2809,-498.956 113.961,-484.479 134,-475 178.424,-453.985 232.816,-440.222 272.177,-432.167"/>
<polygon fill="#9a32cd" stroke="#9a32cd" points="76.243,-507.564 70.513,-516.476 80.5498,-513.082 76.243,-507.564"/>
<text text-anchor="middle" x="181" y="-489" font-family="Helvetica,sans-Serif" font-size="10.00"> myPenColor</text>
<text text-anchor="middle" x="181" y="-478" font-family="Helvetica,sans-Serif" font-size="10.00">myPenSize</text>
</g>
<!-- Node23 -->
<g id="node23" class="node"><title>Node23</title>
<g id="a_node23"><a xlink:href="../../de/d6c/classback_end_1_1turtle_1_1_turtle_point.html" target="_top" xlink:title="backEnd.turtle.TurtlePoint">
<polygon fill="white" stroke="black" points="257,-489.5 257,-508.5 395,-508.5 395,-489.5 257,-489.5"/>
<text text-anchor="middle" x="326" y="-496.5" font-family="Helvetica,sans-Serif" font-size="10.00">backEnd.turtle.TurtlePoint</text>
</a>
</g>
</g>
<!-- Node10&#45;&gt;Node23 -->
<g id="edge27" class="edge"><title>Node10&#45;&gt;Node23</title>
<path fill="none" stroke="#9a32cd" stroke-dasharray="5,2" d="M105.383,-514.191C114.8,-512.16 124.676,-510.291 134,-509 174.456,-503.398 220.129,-500.87 256.666,-499.756"/>
<polygon fill="#9a32cd" stroke="#9a32cd" points="104.379,-510.83 95.3915,-516.439 105.916,-517.659 104.379,-510.83"/>
<text text-anchor="middle" x="181" y="-523" font-family="Helvetica,sans-Serif" font-size="10.00"> myYPosition</text>
<text text-anchor="middle" x="181" y="-512" font-family="Helvetica,sans-Serif" font-size="10.00">myXPosition</text>
</g>
<!-- Node11 -->
<g id="node11" class="node"><title>Node11</title>
<polygon fill="white" stroke="#bfbfbf" points="544,-124 544,-154 760,-154 760,-124 544,-124"/>
<text text-anchor="start" x="552" y="-142" font-family="Helvetica,sans-Serif" font-size="10.00">HashMap&lt; String, commands.templates.</text>
<text text-anchor="middle" x="652" y="-131" font-family="Helvetica,sans-Serif" font-size="10.00">Command &gt;</text>
</g>
<!-- Node11&#45;&gt;Node8 -->
<g id="edge10" class="edge"><title>Node11&#45;&gt;Node8</title>
<path fill="none" stroke="#9a32cd" stroke-dasharray="5,2" d="M770.295,-147.014C802.975,-151.016 838.217,-157.013 870,-166 900.963,-174.756 934.51,-191.663 954.093,-202.361"/>
<polygon fill="#9a32cd" stroke="#9a32cd" points="770.581,-143.524 760.242,-145.836 769.766,-150.476 770.581,-143.524"/>
<text text-anchor="middle" x="824" y="-169" font-family="Helvetica,sans-Serif" font-size="10.00"> myCommandsList</text>
</g>
<!-- Node12&#45;&gt;Node8 -->
<g id="edge11" class="edge"><title>Node12&#45;&gt;Node8</title>
<path fill="none" stroke="#9a32cd" stroke-dasharray="5,2" d="M707.627,-97.0601C752.98,-100.553 818.207,-109.788 870,-134 879.434,-138.41 879.85,-142.517 888,-149 912.351,-168.371 941.448,-190.152 957.921,-202.359"/>
<polygon fill="#9a32cd" stroke="#9a32cd" points="707.627,-93.5515 697.407,-96.3441 707.138,-100.534 707.627,-93.5515"/>
<text text-anchor="middle" x="824" y="-137" font-family="Helvetica,sans-Serif" font-size="10.00"> myParser</text>
</g>
<!-- Node13 -->
<g id="node13" class="node"><title>Node13</title>
<polygon fill="white" stroke="#bfbfbf" points="281.5,-87.5 281.5,-106.5 370.5,-106.5 370.5,-87.5 281.5,-87.5"/>
<text text-anchor="middle" x="326" y="-94.5" font-family="Helvetica,sans-Serif" font-size="10.00">StringTokenizer</text>
</g>
<!-- Node13&#45;&gt;Node12 -->
<g id="edge12" class="edge"><title>Node13&#45;&gt;Node12</title>
<path fill="none" stroke="#9a32cd" stroke-dasharray="5,2" d="M381.341,-96.3833C395.247,-96.241 410.177,-96.1017 424,-96 487.449,-95.5332 560.874,-95.258 606.633,-95.1181"/>
<polygon fill="#9a32cd" stroke="#9a32cd" points="380.904,-92.8876 370.941,-96.4921 380.977,-99.8872 380.904,-92.8876"/>
<text text-anchor="middle" x="475" y="-99" font-family="Helvetica,sans-Serif" font-size="10.00"> myInstructions</text>
</g>
<!-- Node14 -->
<g id="node14" class="node"><title>Node14</title>
<g id="a_node14"><a xlink:href="../../d5/d1d/classcommands_1_1_command_factory.html" target="_top" xlink:title="commands.CommandFactory">
<polygon fill="white" stroke="black" points="247,-49.5 247,-68.5 405,-68.5 405,-49.5 247,-49.5"/>
<text text-anchor="middle" x="326" y="-56.5" font-family="Helvetica,sans-Serif" font-size="10.00">commands.CommandFactory</text>
</a>
</g>
</g>
<!-- Node14&#45;&gt;Node12 -->
<g id="edge13" class="edge"><title>Node14&#45;&gt;Node12</title>
<path fill="none" stroke="#9a32cd" stroke-dasharray="5,2" d="M415.498,-68.7562C449.985,-72.5653 489.842,-76.9764 526,-81 552.803,-83.9826 582.837,-87.3457 606.746,-90.028"/>
<polygon fill="#9a32cd" stroke="#9a32cd" points="415.774,-65.2656 405.451,-67.6468 415.006,-72.2233 415.774,-65.2656"/>
<text text-anchor="middle" x="475" y="-84" font-family="Helvetica,sans-Serif" font-size="10.00"> myFactory</text>
</g>
<!-- Node15 -->
<g id="node15" class="node"><title>Node15</title>
<g id="a_node15"><a xlink:href="../../d4/d07/classback_end_1_1turtle_1_1_turtle_manager.html" target="_top" xlink:title="backEnd.turtle.TurtleManager">
<polygon fill="white" stroke="black" points="574,-233.5 574,-252.5 730,-252.5 730,-233.5 574,-233.5"/>
<text text-anchor="middle" x="652" y="-240.5" font-family="Helvetica,sans-Serif" font-size="10.00">backEnd.turtle.TurtleManager</text>
</a>
</g>
</g>
<!-- Node15&#45;&gt;Node8 -->
<g id="edge15" class="edge"><title>Node15&#45;&gt;Node8</title>
<path fill="none" stroke="#9a32cd" stroke-dasharray="5,2" d="M740.713,-234.449C801.279,-228.545 879.249,-220.944 927.149,-216.275"/>
<polygon fill="#9a32cd" stroke="#9a32cd" points="739.998,-231.002 730.385,-235.456 740.677,-237.969 739.998,-231.002"/>
<text text-anchor="middle" x="824" y="-234" font-family="Helvetica,sans-Serif" font-size="10.00"> myTurtleManager</text>
</g>
<!-- Node16 -->
<g id="node16" class="node"><title>Node16</title>
<polygon fill="white" stroke="#bfbfbf" points="290.5,-328.5 290.5,-347.5 361.5,-347.5 361.5,-328.5 290.5,-328.5"/>
<text text-anchor="middle" x="326" y="-335.5" font-family="Helvetica,sans-Serif" font-size="10.00">Observable</text>
</g>
<!-- Node16&#45;&gt;Node15 -->
<g id="edge16" class="edge"><title>Node16&#45;&gt;Node15</title>
<path fill="none" stroke="midnightblue" d="M371.872,-340.863C415.619,-341.288 481.833,-335.357 526,-301 541.068,-289.279 528.884,-273.66 544,-262 552.739,-255.259 563.072,-250.606 573.813,-247.44"/>
<polygon fill="midnightblue" stroke="midnightblue" points="371.879,-337.363 361.807,-340.65 371.73,-344.361 371.879,-337.363"/>
</g>
<!-- Node16&#45;&gt;Node20 -->
<g id="edge21" class="edge"><title>Node16&#45;&gt;Node20</title>
<path fill="none" stroke="midnightblue" d="M371.723,-342.881C412.407,-347.917 473.879,-357.024 526,-371 563.173,-380.968 604.696,-397.771 629.298,-408.353"/>
<polygon fill="midnightblue" stroke="midnightblue" points="371.938,-339.381 361.591,-341.658 371.099,-346.331 371.938,-339.381"/>
</g>
<!-- Node17 -->
<g id="node17" class="node"><title>Node17</title>
<polygon fill="white" stroke="#bfbfbf" points="246,-192 246,-222 406,-222 406,-192 246,-192"/>
<text text-anchor="start" x="254" y="-210" font-family="Helvetica,sans-Serif" font-size="10.00">Map&lt; Double, backEnd.turtle.</text>
<text text-anchor="middle" x="326" y="-199" font-family="Helvetica,sans-Serif" font-size="10.00">Turtle &gt;</text>
</g>
<!-- Node17&#45;&gt;Node15 -->
<g id="edge17" class="edge"><title>Node17&#45;&gt;Node15</title>
<path fill="none" stroke="#9a32cd" stroke-dasharray="5,2" d="M416.309,-216.923C465.759,-222.418 526.608,-229.179 573.956,-234.44"/>
<polygon fill="#9a32cd" stroke="#9a32cd" points="416.585,-213.432 406.259,-215.807 415.812,-220.39 416.585,-213.432"/>
<text text-anchor="middle" x="475" y="-232" font-family="Helvetica,sans-Serif" font-size="10.00"> myTurtles</text>
</g>
<!-- Node18 -->
<g id="node18" class="node"><title>Node18</title>
<polygon fill="white" stroke="#bfbfbf" points="249.5,-290.5 249.5,-309.5 402.5,-309.5 402.5,-290.5 249.5,-290.5"/>
<text text-anchor="middle" x="326" y="-297.5" font-family="Helvetica,sans-Serif" font-size="10.00">List&lt; backEnd.turtle.Turtle &gt;</text>
</g>
<!-- Node18&#45;&gt;Node15 -->
<g id="edge18" class="edge"><title>Node18&#45;&gt;Node15</title>
<path fill="none" stroke="#9a32cd" stroke-dasharray="5,2" d="M405.654,-288.935C442.393,-283.261 486.618,-275.709 526,-267 534.107,-265.207 535.903,-263.839 544,-262 559.363,-258.511 576.087,-255.276 591.651,-252.502"/>
<polygon fill="#9a32cd" stroke="#9a32cd" points="404.858,-285.515 395.501,-290.484 405.914,-292.435 404.858,-285.515"/>
<text text-anchor="middle" x="475" y="-289" font-family="Helvetica,sans-Serif" font-size="10.00"> myActiveTurtles</text>
</g>
<!-- Node19 -->
<g id="node19" class="node"><title>Node19</title>
<polygon fill="white" stroke="#bfbfbf" points="248.5,-241 248.5,-271 403.5,-271 403.5,-241 248.5,-241"/>
<text text-anchor="start" x="256.5" y="-259" font-family="Helvetica,sans-Serif" font-size="10.00">Stack&lt; List&lt; backEnd.turtle.</text>
<text text-anchor="middle" x="326" y="-248" font-family="Helvetica,sans-Serif" font-size="10.00">Turtle &gt; &gt;</text>
</g>
<!-- Node19&#45;&gt;Node15 -->
<g id="edge19" class="edge"><title>Node19&#45;&gt;Node15</title>
<path fill="none" stroke="#9a32cd" stroke-dasharray="5,2" d="M413.906,-252.513C463.766,-250.512 525.813,-248.023 573.926,-246.092"/>
<polygon fill="#9a32cd" stroke="#9a32cd" points="413.635,-249.021 403.783,-252.919 413.916,-256.015 413.635,-249.021"/>
<text text-anchor="middle" x="475" y="-255" font-family="Helvetica,sans-Serif" font-size="10.00"> myStoredTurtleLists</text>
</g>
<!-- Node20&#45;&gt;Node8 -->
<g id="edge20" class="edge"><title>Node20&#45;&gt;Node8</title>
<path fill="none" stroke="#9a32cd" stroke-dasharray="5,2" d="M676.56,-403.082C716.486,-377.763 799.937,-324.674 870,-279 901.024,-258.775 937.128,-234.692 956.664,-221.614"/>
<polygon fill="#9a32cd" stroke="#9a32cd" points="674.621,-400.167 668.049,-408.477 678.369,-406.079 674.621,-400.167"/>
<text text-anchor="middle" x="824" y="-340" font-family="Helvetica,sans-Serif" font-size="10.00"> myTurtle</text>
</g>
<!-- Node21&#45;&gt;Node20 -->
<g id="edge22" class="edge"><title>Node21&#45;&gt;Node20</title>
<path fill="none" stroke="#9a32cd" stroke-dasharray="5,2" d="M389.885,-420.069C401.238,-419.636 412.97,-419.252 424,-419 482.115,-417.674 548.619,-417.544 594.553,-417.672"/>
<polygon fill="#9a32cd" stroke="#9a32cd" points="389.449,-416.584 379.596,-420.478 389.727,-423.578 389.449,-416.584"/>
<text text-anchor="middle" x="475" y="-422" font-family="Helvetica,sans-Serif" font-size="10.00"> myPen</text>
</g>
<!-- Node22 -->
<g id="node22" class="node"><title>Node22</title>
<polygon fill="white" stroke="#bfbfbf" points="31,-392.5 31,-411.5 85,-411.5 85,-392.5 31,-392.5"/>
<text text-anchor="middle" x="58" y="-399.5" font-family="Helvetica,sans-Serif" font-size="10.00">Point2D</text>
</g>
<!-- Node22&#45;&gt;Node20 -->
<g id="edge25" class="edge"><title>Node22&#45;&gt;Node20</title>
<path fill="none" stroke="#9a32cd" stroke-dasharray="5,2" d="M95.4616,-399.726C133.137,-397.497 193.654,-394.259 246,-393 317.091,-391.29 334.981,-389.386 406,-393 470.905,-396.303 545.107,-404.497 594.685,-410.61"/>
<polygon fill="#9a32cd" stroke="#9a32cd" points="94.7746,-396.26 85.0022,-400.353 95.1938,-403.248 94.7746,-396.26"/>
<text text-anchor="middle" x="326" y="-396" font-family="Helvetica,sans-Serif" font-size="10.00"> myHome</text>
</g>
<!-- Node22&#45;&gt;Node23 -->
<g id="edge28" class="edge"><title>Node22&#45;&gt;Node23</title>
<path fill="none" stroke="#9a32cd" stroke-dasharray="5,2" d="M95.4665,-401.308C139.032,-401.245 208.493,-403.81 228,-420 249.424,-437.78 225.776,-460.867 246,-480 249.996,-483.781 254.609,-486.851 259.556,-489.338"/>
<polygon fill="#9a32cd" stroke="#9a32cd" points="95.239,-397.809 85.2608,-401.371 95.2823,-404.809 95.239,-397.809"/>
<text text-anchor="middle" x="181" y="-423" font-family="Helvetica,sans-Serif" font-size="10.00"> myPosition</text>
</g>
<!-- Node23&#45;&gt;Node20 -->
<g id="edge26" class="edge"><title>Node23&#45;&gt;Node20</title>
<path fill="none" stroke="#9a32cd" stroke-dasharray="5,2" d="M405.435,-507.429C442.673,-509.019 487.373,-507.379 526,-496 573.112,-482.122 619.868,-445.186 640.302,-427.585"/>
<polygon fill="#9a32cd" stroke="#9a32cd" points="405.307,-503.918 395.141,-506.901 404.948,-510.909 405.307,-503.918"/>
<text text-anchor="middle" x="475" y="-511" font-family="Helvetica,sans-Serif" font-size="10.00"> myPosition</text>
</g>
<!-- Node24 -->
<g id="node24" class="node"><title>Node24</title>
<polygon fill="white" stroke="#bfbfbf" points="278,-451.5 278,-470.5 374,-470.5 374,-451.5 278,-451.5"/>
<text text-anchor="middle" x="326" y="-458.5" font-family="Helvetica,sans-Serif" font-size="10.00">BooleanProperty</text>
</g>
<!-- Node24&#45;&gt;Node20 -->
<g id="edge29" class="edge"><title>Node24&#45;&gt;Node20</title>
<path fill="none" stroke="#9a32cd" stroke-dasharray="5,2" d="M384.072,-453.426C443.444,-445.546 535.817,-433.287 594.846,-425.453"/>
<polygon fill="#9a32cd" stroke="#9a32cd" points="383.565,-449.962 374.112,-454.747 384.486,-456.901 383.565,-449.962"/>
<text text-anchor="middle" x="475" y="-484" font-family="Helvetica,sans-Serif" font-size="10.00"> myVisibility</text>
<text text-anchor="middle" x="475" y="-473" font-family="Helvetica,sans-Serif" font-size="10.00">myClearLines</text>
<text text-anchor="middle" x="475" y="-462" font-family="Helvetica,sans-Serif" font-size="10.00">myActivity</text>
<text text-anchor="middle" x="475" y="-451" font-family="Helvetica,sans-Serif" font-size="10.00">myPenDown</text>
</g>
</g>
</svg>
