<?xml version="1.0" encoding="UTF-8" standalone="no"?>
<!DOCTYPE svg PUBLIC "-//W3C//DTD SVG 1.1//EN"
 "http://www.w3.org/Graphics/SVG/1.1/DTD/svg11.dtd">
<!-- Generated by graphviz version 2.36.0 (20140111.2315)
 -->
<!-- Title: commands.CommandFactory.buildCommand Pages: 1 -->
<svg width="628pt" height="301pt"
 viewBox="0.00 0.00 628.00 301.00" xmlns="http://www.w3.org/2000/svg" xmlns:xlink="http://www.w3.org/1999/xlink">
<g id="graph0" class="graph" transform="scale(1 1) rotate(0) translate(4 297)">
<title>commands.CommandFactory.buildCommand</title>
<polygon fill="white" stroke="none" points="-4,4 -4,-297 624,-297 624,4 -4,4"/>
<!-- Node1 -->
<g id="node1" class="node"><title>Node1</title>
<polygon fill="#bfbfbf" stroke="black" points="0,-131 0,-161 182,-161 182,-131 0,-131"/>
<text text-anchor="start" x="8" y="-149" font-family="Helvetica,sans-Serif" font-size="10.00">commands.CommandFactory.build</text>
<text text-anchor="middle" x="91" y="-138" font-family="Helvetica,sans-Serif" font-size="10.00">Command</text>
</g>
<!-- Node2 -->
<g id="node2" class="node"><title>Node2</title>
<g id="a_node2"><a xlink:href="../../d5/d1d/classcommands_1_1_command_factory.html#adcf456039b5d7285082f1e009f3d30b6" target="_top" xlink:title="commands.CommandFactory.checkCaps">
<polygon fill="white" stroke="black" points="221,-273.5 221,-292.5 433,-292.5 433,-273.5 221,-273.5"/>
<text text-anchor="middle" x="327" y="-280.5" font-family="Helvetica,sans-Serif" font-size="10.00">commands.CommandFactory.checkCaps</text>
</a>
</g>
</g>
<!-- Node1&#45;&gt;Node2 -->
<g id="edge1" class="edge"><title>Node1&#45;&gt;Node2</title>
<path fill="none" stroke="midnightblue" d="M103.334,-161.045C123.409,-186.512 167.857,-237.797 218,-263 223.702,-265.866 229.76,-268.325 235.982,-270.433"/>
<polygon fill="midnightblue" stroke="midnightblue" points="235.28,-273.879 245.867,-273.467 237.334,-267.187 235.28,-273.879"/>
</g>
<!-- Node3 -->
<g id="node3" class="node"><title>Node3</title>
<g id="a_node3"><a xlink:href="../../d5/d1d/classcommands_1_1_command_factory.html#acae1571442d9f8e040df95c8a2742d8d" target="_top" xlink:title="commands.CommandFactory.check\lLanguage">
<polygon fill="white" stroke="black" points="233,-224 233,-254 421,-254 421,-224 233,-224"/>
<text text-anchor="start" x="241" y="-242" font-family="Helvetica,sans-Serif" font-size="10.00">commands.CommandFactory.check</text>
<text text-anchor="middle" x="327" y="-231" font-family="Helvetica,sans-Serif" font-size="10.00">Language</text>
</a>
</g>
</g>
<!-- Node1&#45;&gt;Node3 -->
<g id="edge2" class="edge"><title>Node1&#45;&gt;Node3</title>
<path fill="none" stroke="midnightblue" d="M115.252,-161.016C139.879,-176.319 180.329,-199.77 218,-214 224.87,-216.595 232.091,-218.972 239.406,-221.138"/>
<polygon fill="midnightblue" stroke="midnightblue" points="238.841,-224.615 249.415,-223.962 240.741,-217.878 238.841,-224.615"/>
</g>
<!-- Node5 -->
<g id="node5" class="node"><title>Node5</title>
<g id="a_node5"><a xlink:href="../../d5/d1d/classcommands_1_1_command_factory.html#a9206a1ef0f863c61cb5c894da3133ef8" target="_top" xlink:title="commands.CommandFactory.check\lUserCommand">
<polygon fill="white" stroke="black" points="233,-175 233,-205 421,-205 421,-175 233,-175"/>
<text text-anchor="start" x="241" y="-193" font-family="Helvetica,sans-Serif" font-size="10.00">commands.CommandFactory.check</text>
<text text-anchor="middle" x="327" y="-182" font-family="Helvetica,sans-Serif" font-size="10.00">UserCommand</text>
</a>
</g>
</g>
<!-- Node1&#45;&gt;Node5 -->
<g id="edge4" class="edge"><title>Node1&#45;&gt;Node5</title>
<path fill="none" stroke="midnightblue" d="M171.875,-161.019C192.563,-164.909 214.978,-169.124 236.14,-173.103"/>
<polygon fill="midnightblue" stroke="midnightblue" points="235.613,-176.565 246.088,-174.974 236.907,-169.686 235.613,-176.565"/>
</g>
<!-- Node6 -->
<g id="node6" class="node"><title>Node6</title>
<g id="a_node6"><a xlink:href="../../d5/d1d/classcommands_1_1_command_factory.html#a221a82baff222f4552a38b521efd78b6" target="_top" xlink:title="commands.CommandFactory.checkVar">
<polygon fill="white" stroke="black" points="225.5,-136.5 225.5,-155.5 428.5,-155.5 428.5,-136.5 225.5,-136.5"/>
<text text-anchor="middle" x="327" y="-143.5" font-family="Helvetica,sans-Serif" font-size="10.00">commands.CommandFactory.checkVar</text>
</a>
</g>
</g>
<!-- Node1&#45;&gt;Node6 -->
<g id="edge5" class="edge"><title>Node1&#45;&gt;Node6</title>
<path fill="none" stroke="midnightblue" d="M182.136,-146C192.979,-146 204.147,-146 215.24,-146"/>
<polygon fill="midnightblue" stroke="midnightblue" points="215.396,-149.5 225.396,-146 215.396,-142.5 215.396,-149.5"/>
</g>
<!-- Node7 -->
<g id="node7" class="node"><title>Node7</title>
<g id="a_node7"><a xlink:href="../../d9/d98/classback_end_1_1_model.html#a6b39dd199a5957068c032bb023f4b613" target="_top" xlink:title="backEnd.Model.getCommandsMap">
<polygon fill="white" stroke="black" points="235.5,-98.5 235.5,-117.5 418.5,-117.5 418.5,-98.5 235.5,-98.5"/>
<text text-anchor="middle" x="327" y="-105.5" font-family="Helvetica,sans-Serif" font-size="10.00">backEnd.Model.getCommandsMap</text>
</a>
</g>
</g>
<!-- Node1&#45;&gt;Node7 -->
<g id="edge6" class="edge"><title>Node1&#45;&gt;Node7</title>
<path fill="none" stroke="midnightblue" d="M182.136,-131.363C207.145,-127.301 233.885,-122.959 257.443,-119.133"/>
<polygon fill="midnightblue" stroke="midnightblue" points="258.021,-122.585 267.331,-117.528 256.899,-115.676 258.021,-122.585"/>
</g>
<!-- Node8 -->
<g id="node8" class="node"><title>Node8</title>
<g id="a_node8"><a xlink:href="../../d5/d62/classcommands_1_1templates_1_1_command.html#a20741a5e32e24ff113701f7b2957e658" target="_top" xlink:title="commands.templates.Command.initialize\lCommand">
<polygon fill="white" stroke="black" points="218.5,-49 218.5,-79 435.5,-79 435.5,-49 218.5,-49"/>
<text text-anchor="start" x="226.5" y="-67" font-family="Helvetica,sans-Serif" font-size="10.00">commands.templates.Command.initialize</text>
<text text-anchor="middle" x="327" y="-56" font-family="Helvetica,sans-Serif" font-size="10.00">Command</text>
</a>
</g>
</g>
<!-- Node1&#45;&gt;Node8 -->
<g id="edge7" class="edge"><title>Node1&#45;&gt;Node8</title>
<path fill="none" stroke="midnightblue" d="M120.87,-130.961C145.991,-118.36 183.657,-100.616 218,-89 225.862,-86.3407 234.14,-83.868 242.471,-81.5944"/>
<polygon fill="midnightblue" stroke="midnightblue" points="243.475,-84.9495 252.253,-79.0175 241.691,-78.1804 243.475,-84.9495"/>
</g>
<!-- Node9 -->
<g id="node9" class="node"><title>Node9</title>
<g id="a_node9"><a xlink:href="../../d5/d1d/classcommands_1_1_command_factory.html#aa562012b61b9b1701eada2bea8caa1d8" target="_top" xlink:title="commands.CommandFactory.is\lNumeric">
<polygon fill="white" stroke="black" points="243.5,-0 243.5,-30 410.5,-30 410.5,-0 243.5,-0"/>
<text text-anchor="start" x="251.5" y="-18" font-family="Helvetica,sans-Serif" font-size="10.00">commands.CommandFactory.is</text>
<text text-anchor="middle" x="327" y="-7" font-family="Helvetica,sans-Serif" font-size="10.00">Numeric</text>
</a>
</g>
</g>
<!-- Node1&#45;&gt;Node9 -->
<g id="edge8" class="edge"><title>Node1&#45;&gt;Node9</title>
<path fill="none" stroke="midnightblue" d="M105.478,-130.762C126.926,-107.503 171.205,-63.3853 218,-40 223.003,-37.4996 228.263,-35.2448 233.655,-33.2119"/>
<polygon fill="midnightblue" stroke="midnightblue" points="235.188,-36.384 243.479,-29.7874 232.884,-29.7741 235.188,-36.384"/>
</g>
<!-- Node4 -->
<g id="node4" class="node"><title>Node4</title>
<g id="a_node4"><a xlink:href="../../d8/de9/classmain_1_1_resource_finder.html#abbbd9c7b9078fd263f546d15bba68d22" target="_top" xlink:title="main.ResourceFinder.getMy\lLanguageResources">
<polygon fill="white" stroke="black" points="472.5,-224 472.5,-254 619.5,-254 619.5,-224 472.5,-224"/>
<text text-anchor="start" x="480.5" y="-242" font-family="Helvetica,sans-Serif" font-size="10.00">main.ResourceFinder.getMy</text>
<text text-anchor="middle" x="546" y="-231" font-family="Helvetica,sans-Serif" font-size="10.00">LanguageResources</text>
</a>
</g>
</g>
<!-- Node3&#45;&gt;Node4 -->
<g id="edge3" class="edge"><title>Node3&#45;&gt;Node4</title>
<path fill="none" stroke="midnightblue" d="M421.287,-239C434.926,-239 448.893,-239 462.301,-239"/>
<polygon fill="midnightblue" stroke="midnightblue" points="462.431,-242.5 472.431,-239 462.431,-235.5 462.431,-242.5"/>
</g>
</g>
</svg>
