<?xml version="1.0" encoding="UTF-8" standalone="no"?>
<!DOCTYPE svg PUBLIC "-//W3C//DTD SVG 1.1//EN"
 "http://www.w3.org/Graphics/SVG/1.1/DTD/svg11.dtd">
<!-- Generated by graphviz version 2.36.0 (20140111.2315)
 -->
<!-- Title: commands.CommandFactory.checkUserCommand Pages: 1 -->
<svg width="1926pt" height="177pt"
 viewBox="0.00 0.00 1926.00 177.00" xmlns="http://www.w3.org/2000/svg" xmlns:xlink="http://www.w3.org/1999/xlink">
<g id="graph0" class="graph" transform="scale(1 1) rotate(0) translate(4 173)">
<title>commands.CommandFactory.checkUserCommand</title>
<polygon fill="white" stroke="none" points="-4,4 -4,-173 1922,-173 1922,4 -4,4"/>
<!-- Node1 -->
<g id="node1" class="node"><title>Node1</title>
<polygon fill="#bfbfbf" stroke="black" points="0,-60 0,-90 188,-90 188,-60 0,-60"/>
<text text-anchor="start" x="8" y="-78" font-family="Helvetica,sans-Serif" font-size="10.00">commands.CommandFactory.check</text>
<text text-anchor="middle" x="94" y="-67" font-family="Helvetica,sans-Serif" font-size="10.00">UserCommand</text>
</g>
<!-- Node2 -->
<g id="node2" class="node"><title>Node2</title>
<g id="a_node2"><a xlink:href="../../d5/d1d/classcommands_1_1_command_factory.html#ac77125dd466e3e01fce01fc527e7f815" target="_top" xlink:title="commands.CommandFactory.build\lCommand">
<polygon fill="white" stroke="black" points="224,-60 224,-90 406,-90 406,-60 224,-60"/>
<text text-anchor="start" x="232" y="-78" font-family="Helvetica,sans-Serif" font-size="10.00">commands.CommandFactory.build</text>
<text text-anchor="middle" x="315" y="-67" font-family="Helvetica,sans-Serif" font-size="10.00">Command</text>
</a>
</g>
</g>
<!-- Node1&#45;&gt;Node2 -->
<g id="edge1" class="edge"><title>Node1&#45;&gt;Node2</title>
<path fill="none" stroke="midnightblue" d="M198.441,-75C206.872,-75 215.352,-75 223.679,-75"/>
<polygon fill="midnightblue" stroke="midnightblue" points="198.193,-71.5001 188.193,-75 198.193,-78.5001 198.193,-71.5001"/>
</g>
<!-- Node3 -->
<g id="node3" class="node"><title>Node3</title>
<g id="a_node3"><a xlink:href="../../d9/d1e/classback_end_1_1_parser.html#a653298ad53a1eea540beded2bb558ab4" target="_top" xlink:title="backEnd.Parser.makeTree">
<polygon fill="white" stroke="black" points="442.5,-65.5 442.5,-84.5 581.5,-84.5 581.5,-65.5 442.5,-65.5"/>
<text text-anchor="middle" x="512" y="-72.5" font-family="Helvetica,sans-Serif" font-size="10.00">backEnd.Parser.makeTree</text>
</a>
</g>
</g>
<!-- Node2&#45;&gt;Node3 -->
<g id="edge2" class="edge"><title>Node2&#45;&gt;Node3</title>
<path fill="none" stroke="midnightblue" d="M416.086,-75C424.952,-75 433.789,-75 442.304,-75"/>
<polygon fill="midnightblue" stroke="midnightblue" points="416.08,-71.5001 406.08,-75 416.08,-78.5001 416.08,-71.5001"/>
</g>
<!-- Node4 -->
<g id="node4" class="node"><title>Node4</title>
<g id="a_node4"><a xlink:href="../../d9/d1e/classback_end_1_1_parser.html#a163b8afd814babc8e7df59993f0d6440" target="_top" xlink:title="backEnd.Parser.parseScript">
<polygon fill="white" stroke="black" points="618.5,-65.5 618.5,-84.5 765.5,-84.5 765.5,-65.5 618.5,-65.5"/>
<text text-anchor="middle" x="692" y="-72.5" font-family="Helvetica,sans-Serif" font-size="10.00">backEnd.Parser.parseScript</text>
</a>
</g>
</g>
<!-- Node3&#45;&gt;Node4 -->
<g id="edge3" class="edge"><title>Node3&#45;&gt;Node4</title>
<path fill="none" stroke="midnightblue" d="M591.833,-75C600.651,-75 609.603,-75 618.338,-75"/>
<polygon fill="midnightblue" stroke="midnightblue" points="591.565,-71.5001 581.565,-75 591.565,-78.5001 591.565,-71.5001"/>
</g>
<!-- Node5 -->
<g id="node5" class="node"><title>Node5</title>
<g id="a_node5"><a xlink:href="../../d9/d98/classback_end_1_1_model.html#ade764fd1c85a48fabb9abf3dfe8b8ceb" target="_top" xlink:title="backEnd.Model.runScript">
<polygon fill="white" stroke="black" points="802.5,-65.5 802.5,-84.5 937.5,-84.5 937.5,-65.5 802.5,-65.5"/>
<text text-anchor="middle" x="870" y="-72.5" font-family="Helvetica,sans-Serif" font-size="10.00">backEnd.Model.runScript</text>
</a>
</g>
</g>
<!-- Node4&#45;&gt;Node5 -->
<g id="edge4" class="edge"><title>Node4&#45;&gt;Node5</title>
<path fill="none" stroke="midnightblue" d="M775.694,-75C784.678,-75 793.736,-75 802.491,-75"/>
<polygon fill="midnightblue" stroke="midnightblue" points="775.602,-71.5001 765.602,-75 775.602,-78.5001 775.602,-71.5001"/>
</g>
<!-- Node6 -->
<g id="node6" class="node"><title>Node6</title>
<g id="a_node6"><a xlink:href="../../d9/d49/classback_end_1_1_controller.html#ad650f48d236eaf11c2d8591b04831900" target="_top" xlink:title="backEnd.Controller.runScript">
<polygon fill="white" stroke="black" points="974,-65.5 974,-84.5 1126,-84.5 1126,-65.5 974,-65.5"/>
<text text-anchor="middle" x="1050" y="-72.5" font-family="Helvetica,sans-Serif" font-size="10.00">backEnd.Controller.runScript</text>
</a>
</g>
</g>
<!-- Node5&#45;&gt;Node6 -->
<g id="edge5" class="edge"><title>Node5&#45;&gt;Node6</title>
<path fill="none" stroke="midnightblue" d="M947.646,-75C956.341,-75 965.196,-75 973.871,-75"/>
<polygon fill="midnightblue" stroke="midnightblue" points="947.534,-71.5001 937.534,-75 947.534,-78.5001 947.534,-71.5001"/>
</g>
<!-- Node7 -->
<g id="node7" class="node"><title>Node7</title>
<g id="a_node7"><a xlink:href="../../de/d03/classpanels_1_1_script_panel.html#ae6ae56472ef1a975597bad69844662c6" target="_top" xlink:title="panels.ScriptPanel.handler">
<polygon fill="white" stroke="black" points="1164.5,-130.5 1164.5,-149.5 1307.5,-149.5 1307.5,-130.5 1164.5,-130.5"/>
<text text-anchor="middle" x="1236" y="-137.5" font-family="Helvetica,sans-Serif" font-size="10.00">panels.ScriptPanel.handler</text>
</a>
</g>
</g>
<!-- Node6&#45;&gt;Node7 -->
<g id="edge6" class="edge"><title>Node6&#45;&gt;Node7</title>
<path fill="none" stroke="midnightblue" d="M1087.67,-87.9552C1123.2,-100.505 1176.23,-119.24 1208.04,-130.476"/>
<polygon fill="midnightblue" stroke="midnightblue" points="1088.74,-84.6218 1078.15,-84.591 1086.41,-91.2221 1088.74,-84.6218"/>
</g>
<!-- Node9 -->
<g id="node9" class="node"><title>Node9</title>
<g id="a_node9"><a xlink:href="../../da/d04/classtitle_panes_1_1_control_title_pane.html#af28eba60fefe51c70e763d51d9123ea3" target="_top" xlink:title="titlePanes.ControlTitlePane.make\lLocationFields">
<polygon fill="white" stroke="black" points="1562.5,-0 1562.5,-30 1735.5,-30 1735.5,-0 1562.5,-0"/>
<text text-anchor="start" x="1570.5" y="-18" font-family="Helvetica,sans-Serif" font-size="10.00">titlePanes.ControlTitlePane.make</text>
<text text-anchor="middle" x="1649" y="-7" font-family="Helvetica,sans-Serif" font-size="10.00">LocationFields</text>
</a>
</g>
</g>
<!-- Node6&#45;&gt;Node9 -->
<g id="edge8" class="edge"><title>Node6&#45;&gt;Node9</title>
<path fill="none" stroke="midnightblue" d="M1111.18,-63.7364C1127.62,-60.9228 1145.46,-58.1097 1162,-56 1301.64,-38.1916 1464.88,-26.222 1562.17,-20.018"/>
<polygon fill="midnightblue" stroke="midnightblue" points="1110.4,-60.3191 1101.15,-65.4821 1111.6,-67.2155 1110.4,-60.3191"/>
</g>
<!-- Node11 -->
<g id="node11" class="node"><title>Node11</title>
<g id="a_node11"><a xlink:href="../../d9/d49/classback_end_1_1_controller.html#a3b0bbf0a084bb4fb63d118f66e7327b1" target="_top" xlink:title="backEnd.Controller.move10">
<polygon fill="white" stroke="black" points="1162,-65.5 1162,-84.5 1310,-84.5 1310,-65.5 1162,-65.5"/>
<text text-anchor="middle" x="1236" y="-72.5" font-family="Helvetica,sans-Serif" font-size="10.00">backEnd.Controller.move10</text>
</a>
</g>
</g>
<!-- Node6&#45;&gt;Node11 -->
<g id="edge10" class="edge"><title>Node6&#45;&gt;Node11</title>
<path fill="none" stroke="midnightblue" d="M1136.16,-75C1144.76,-75 1153.45,-75 1161.92,-75"/>
<polygon fill="midnightblue" stroke="midnightblue" points="1136.11,-71.5001 1126.11,-75 1136.11,-78.5001 1136.11,-71.5001"/>
</g>
<!-- Node8 -->
<g id="node8" class="node"><title>Node8</title>
<g id="a_node8"><a xlink:href="../../de/d03/classpanels_1_1_script_panel.html#ac959f1785cff7409d857d3bea9b8ee63" target="_top" xlink:title="panels.ScriptPanel.Script\lPanel">
<polygon fill="white" stroke="black" points="1368.5,-139 1368.5,-169 1503.5,-169 1503.5,-139 1368.5,-139"/>
<text text-anchor="start" x="1376.5" y="-157" font-family="Helvetica,sans-Serif" font-size="10.00">panels.ScriptPanel.Script</text>
<text text-anchor="middle" x="1436" y="-146" font-family="Helvetica,sans-Serif" font-size="10.00">Panel</text>
</a>
</g>
</g>
<!-- Node7&#45;&gt;Node8 -->
<g id="edge7" class="edge"><title>Node7&#45;&gt;Node8</title>
<path fill="none" stroke="midnightblue" d="M1317.97,-145.725C1334.72,-146.909 1352.19,-148.144 1368.36,-149.288"/>
<polygon fill="midnightblue" stroke="midnightblue" points="1317.87,-142.209 1307.64,-144.995 1317.37,-149.192 1317.87,-142.209"/>
</g>
<!-- Node10 -->
<g id="node10" class="node"><title>Node10</title>
<g id="a_node10"><a xlink:href="../../da/d04/classtitle_panes_1_1_control_title_pane.html#ad9d4431a2657a30fedae46e0c9093867" target="_top" xlink:title="titlePanes.ControlTitlePane.\lControlTitlePane">
<polygon fill="white" stroke="black" points="1772,-24 1772,-54 1918,-54 1918,-24 1772,-24"/>
<text text-anchor="start" x="1780" y="-42" font-family="Helvetica,sans-Serif" font-size="10.00">titlePanes.ControlTitlePane.</text>
<text text-anchor="middle" x="1845" y="-31" font-family="Helvetica,sans-Serif" font-size="10.00">ControlTitlePane</text>
</a>
</g>
</g>
<!-- Node9&#45;&gt;Node10 -->
<g id="edge9" class="edge"><title>Node9&#45;&gt;Node10</title>
<path fill="none" stroke="midnightblue" d="M1745.6,-26.8271C1754.43,-27.9193 1763.28,-29.0135 1771.84,-30.0734"/>
<polygon fill="midnightblue" stroke="midnightblue" points="1746.01,-23.3509 1735.66,-25.5966 1745.15,-30.298 1746.01,-23.3509"/>
</g>
<!-- Node12 -->
<g id="node12" class="node"><title>Node12</title>
<g id="a_node12"><a xlink:href="../../d9/d49/classback_end_1_1_controller.html#a7893477f39915a5169eb8da0dff60628" target="_top" xlink:title="backEnd.Controller.build\lKeyListener">
<polygon fill="white" stroke="black" points="1370.5,-90 1370.5,-120 1501.5,-120 1501.5,-90 1370.5,-90"/>
<text text-anchor="start" x="1378.5" y="-108" font-family="Helvetica,sans-Serif" font-size="10.00">backEnd.Controller.build</text>
<text text-anchor="middle" x="1436" y="-97" font-family="Helvetica,sans-Serif" font-size="10.00">KeyListener</text>
</a>
</g>
</g>
<!-- Node11&#45;&gt;Node12 -->
<g id="edge11" class="edge"><title>Node11&#45;&gt;Node12</title>
<path fill="none" stroke="midnightblue" d="M1310.08,-86.0721C1329.79,-89.0587 1350.97,-92.2687 1370.2,-95.1816"/>
<polygon fill="midnightblue" stroke="midnightblue" points="1310.33,-82.571 1299.92,-84.5334 1309.28,-89.492 1310.33,-82.571"/>
</g>
<!-- Node14 -->
<g id="node14" class="node"><title>Node14</title>
<g id="a_node14"><a xlink:href="../../da/d04/classtitle_panes_1_1_control_title_pane.html#ae994c7b4dd988b30fc824e9e893b3ccf" target="_top" xlink:title="titlePanes.ControlTitlePane.handle">
<polygon fill="white" stroke="black" points="1346.5,-51.5 1346.5,-70.5 1525.5,-70.5 1525.5,-51.5 1346.5,-51.5"/>
<text text-anchor="middle" x="1436" y="-58.5" font-family="Helvetica,sans-Serif" font-size="10.00">titlePanes.ControlTitlePane.handle</text>
</a>
</g>
</g>
<!-- Node11&#45;&gt;Node14 -->
<g id="edge13" class="edge"><title>Node11&#45;&gt;Node14</title>
<path fill="none" stroke="midnightblue" d="M1320.22,-69.1158C1328.86,-68.5047 1337.67,-67.882 1346.37,-67.2668"/>
<polygon fill="midnightblue" stroke="midnightblue" points="1319.89,-65.63 1310.17,-69.8267 1320.39,-72.6126 1319.89,-65.63"/>
</g>
<!-- Node13 -->
<g id="node13" class="node"><title>Node13</title>
<g id="a_node13"><a xlink:href="../../d9/d49/classback_end_1_1_controller.html#a987136eaba0798749f393bac2a9a2400" target="_top" xlink:title="backEnd.Controller.Controller">
<polygon fill="white" stroke="black" points="1571.5,-98.5 1571.5,-117.5 1726.5,-117.5 1726.5,-98.5 1571.5,-98.5"/>
<text text-anchor="middle" x="1649" y="-105.5" font-family="Helvetica,sans-Serif" font-size="10.00">backEnd.Controller.Controller</text>
</a>
</g>
</g>
<!-- Node12&#45;&gt;Node13 -->
<g id="edge12" class="edge"><title>Node12&#45;&gt;Node13</title>
<path fill="none" stroke="midnightblue" d="M1511.94,-106.065C1531.15,-106.339 1551.84,-106.633 1571.15,-106.907"/>
<polygon fill="midnightblue" stroke="midnightblue" points="1511.79,-102.563 1501.74,-105.92 1511.69,-109.562 1511.79,-102.563"/>
</g>
<!-- Node14&#45;&gt;Node9 -->
<g id="edge16" class="edge"><title>Node14&#45;&gt;Node9</title>
<path fill="none" stroke="midnightblue" d="M1490.69,-49.2945C1517.53,-43.4436 1550.32,-36.2957 1579,-30.0427"/>
<polygon fill="midnightblue" stroke="midnightblue" points="1489.74,-45.919 1480.72,-51.4688 1491.24,-52.7583 1489.74,-45.919"/>
</g>
<!-- Node15 -->
<g id="node15" class="node"><title>Node15</title>
<g id="a_node15"><a xlink:href="../../da/d04/classtitle_panes_1_1_control_title_pane.html#a974c75cbdf64007af637c8b19a26b215" target="_top" xlink:title="titlePanes.ControlTitlePane.make\lButtons">
<polygon fill="white" stroke="black" points="1562.5,-49 1562.5,-79 1735.5,-79 1735.5,-49 1562.5,-49"/>
<text text-anchor="start" x="1570.5" y="-67" font-family="Helvetica,sans-Serif" font-size="10.00">titlePanes.ControlTitlePane.make</text>
<text text-anchor="middle" x="1649" y="-56" font-family="Helvetica,sans-Serif" font-size="10.00">Buttons</text>
</a>
</g>
</g>
<!-- Node14&#45;&gt;Node15 -->
<g id="edge14" class="edge"><title>Node14&#45;&gt;Node15</title>
<path fill="none" stroke="midnightblue" d="M1535.61,-62.4021C1544.55,-62.5291 1553.55,-62.6571 1562.36,-62.7824"/>
<polygon fill="midnightblue" stroke="midnightblue" points="1535.61,-58.9018 1525.57,-62.2592 1535.52,-65.9011 1535.61,-58.9018"/>
</g>
<!-- Node15&#45;&gt;Node10 -->
<g id="edge15" class="edge"><title>Node15&#45;&gt;Node10</title>
<path fill="none" stroke="midnightblue" d="M1745.6,-51.6801C1754.43,-50.5423 1763.28,-49.4026 1771.84,-48.2985"/>
<polygon fill="midnightblue" stroke="midnightblue" points="1745.13,-48.2124 1735.66,-52.9619 1746.02,-55.155 1745.13,-48.2124"/>
</g>
</g>
</svg>
