<?xml version="1.0" encoding="UTF-8" standalone="no"?>
<!DOCTYPE svg PUBLIC "-//W3C//DTD SVG 1.1//EN"
 "http://www.w3.org/Graphics/SVG/1.1/DTD/svg11.dtd">
<!-- Generated by graphviz version 2.36.0 (20140111.2315)
 -->
<!-- Title: commands.CommandFactory.checkVar Pages: 1 -->
<svg width="1942pt" height="177pt"
 viewBox="0.00 0.00 1942.00 177.00" xmlns="http://www.w3.org/2000/svg" xmlns:xlink="http://www.w3.org/1999/xlink">
<g id="graph0" class="graph" transform="scale(1 1) rotate(0) translate(4 173)">
<title>commands.CommandFactory.checkVar</title>
<polygon fill="white" stroke="none" points="-4,4 -4,-173 1938,-173 1938,4 -4,4"/>
<!-- Node1 -->
<g id="node1" class="node"><title>Node1</title>
<polygon fill="#bfbfbf" stroke="black" points="0.5,-65.5 0.5,-84.5 203.5,-84.5 203.5,-65.5 0.5,-65.5"/>
<text text-anchor="middle" x="102" y="-72.5" font-family="Helvetica,sans-Serif" font-size="10.00">commands.CommandFactory.checkVar</text>
</g>
<!-- Node2 -->
<g id="node2" class="node"><title>Node2</title>
<g id="a_node2"><a xlink:href="../../d5/d1d/classcommands_1_1_command_factory.html#ac77125dd466e3e01fce01fc527e7f815" target="_top" xlink:title="commands.CommandFactory.build\lCommand">
<polygon fill="white" stroke="black" points="240,-60 240,-90 422,-90 422,-60 240,-60"/>
<text text-anchor="start" x="248" y="-78" font-family="Helvetica,sans-Serif" font-size="10.00">commands.CommandFactory.build</text>
<text text-anchor="middle" x="331" y="-67" font-family="Helvetica,sans-Serif" font-size="10.00">Command</text>
</a>
</g>
</g>
<!-- Node1&#45;&gt;Node2 -->
<g id="edge1" class="edge"><title>Node1&#45;&gt;Node2</title>
<path fill="none" stroke="midnightblue" d="M213.798,-75C222.54,-75 231.305,-75 239.882,-75"/>
<polygon fill="midnightblue" stroke="midnightblue" points="213.557,-71.5001 203.557,-75 213.557,-78.5001 213.557,-71.5001"/>
</g>
<!-- Node3 -->
<g id="node3" class="node"><title>Node3</title>
<g id="a_node3"><a xlink:href="../../d9/d1e/classback_end_1_1_parser.html#a653298ad53a1eea540beded2bb558ab4" target="_top" xlink:title="backEnd.Parser.makeTree">
<polygon fill="white" stroke="black" points="458.5,-65.5 458.5,-84.5 597.5,-84.5 597.5,-65.5 458.5,-65.5"/>
<text text-anchor="middle" x="528" y="-72.5" font-family="Helvetica,sans-Serif" font-size="10.00">backEnd.Parser.makeTree</text>
</a>
</g>
</g>
<!-- Node2&#45;&gt;Node3 -->
<g id="edge2" class="edge"><title>Node2&#45;&gt;Node3</title>
<path fill="none" stroke="midnightblue" d="M432.086,-75C440.952,-75 449.789,-75 458.304,-75"/>
<polygon fill="midnightblue" stroke="midnightblue" points="432.08,-71.5001 422.08,-75 432.08,-78.5001 432.08,-71.5001"/>
</g>
<!-- Node4 -->
<g id="node4" class="node"><title>Node4</title>
<g id="a_node4"><a xlink:href="../../d9/d1e/classback_end_1_1_parser.html#a163b8afd814babc8e7df59993f0d6440" target="_top" xlink:title="backEnd.Parser.parseScript">
<polygon fill="white" stroke="black" points="634.5,-65.5 634.5,-84.5 781.5,-84.5 781.5,-65.5 634.5,-65.5"/>
<text text-anchor="middle" x="708" y="-72.5" font-family="Helvetica,sans-Serif" font-size="10.00">backEnd.Parser.parseScript</text>
</a>
</g>
</g>
<!-- Node3&#45;&gt;Node4 -->
<g id="edge3" class="edge"><title>Node3&#45;&gt;Node4</title>
<path fill="none" stroke="midnightblue" d="M607.833,-75C616.651,-75 625.603,-75 634.338,-75"/>
<polygon fill="midnightblue" stroke="midnightblue" points="607.565,-71.5001 597.565,-75 607.565,-78.5001 607.565,-71.5001"/>
</g>
<!-- Node5 -->
<g id="node5" class="node"><title>Node5</title>
<g id="a_node5"><a xlink:href="../../d9/d98/classback_end_1_1_model.html#ade764fd1c85a48fabb9abf3dfe8b8ceb" target="_top" xlink:title="backEnd.Model.runScript">
<polygon fill="white" stroke="black" points="818.5,-65.5 818.5,-84.5 953.5,-84.5 953.5,-65.5 818.5,-65.5"/>
<text text-anchor="middle" x="886" y="-72.5" font-family="Helvetica,sans-Serif" font-size="10.00">backEnd.Model.runScript</text>
</a>
</g>
</g>
<!-- Node4&#45;&gt;Node5 -->
<g id="edge4" class="edge"><title>Node4&#45;&gt;Node5</title>
<path fill="none" stroke="midnightblue" d="M791.694,-75C800.678,-75 809.736,-75 818.491,-75"/>
<polygon fill="midnightblue" stroke="midnightblue" points="791.602,-71.5001 781.602,-75 791.602,-78.5001 791.602,-71.5001"/>
</g>
<!-- Node6 -->
<g id="node6" class="node"><title>Node6</title>
<g id="a_node6"><a xlink:href="../../d9/d49/classback_end_1_1_controller.html#ad650f48d236eaf11c2d8591b04831900" target="_top" xlink:title="backEnd.Controller.runScript">
<polygon fill="white" stroke="black" points="990,-65.5 990,-84.5 1142,-84.5 1142,-65.5 990,-65.5"/>
<text text-anchor="middle" x="1066" y="-72.5" font-family="Helvetica,sans-Serif" font-size="10.00">backEnd.Controller.runScript</text>
</a>
</g>
</g>
<!-- Node5&#45;&gt;Node6 -->
<g id="edge5" class="edge"><title>Node5&#45;&gt;Node6</title>
<path fill="none" stroke="midnightblue" d="M963.646,-75C972.341,-75 981.196,-75 989.871,-75"/>
<polygon fill="midnightblue" stroke="midnightblue" points="963.534,-71.5001 953.534,-75 963.534,-78.5001 963.534,-71.5001"/>
</g>
<!-- Node7 -->
<g id="node7" class="node"><title>Node7</title>
<g id="a_node7"><a xlink:href="../../de/d03/classpanels_1_1_script_panel.html#ae6ae56472ef1a975597bad69844662c6" target="_top" xlink:title="panels.ScriptPanel.handler">
<polygon fill="white" stroke="black" points="1180.5,-130.5 1180.5,-149.5 1323.5,-149.5 1323.5,-130.5 1180.5,-130.5"/>
<text text-anchor="middle" x="1252" y="-137.5" font-family="Helvetica,sans-Serif" font-size="10.00">panels.ScriptPanel.handler</text>
</a>
</g>
</g>
<!-- Node6&#45;&gt;Node7 -->
<g id="edge6" class="edge"><title>Node6&#45;&gt;Node7</title>
<path fill="none" stroke="midnightblue" d="M1103.67,-87.9552C1139.2,-100.505 1192.23,-119.24 1224.04,-130.476"/>
<polygon fill="midnightblue" stroke="midnightblue" points="1104.74,-84.6218 1094.15,-84.591 1102.41,-91.2221 1104.74,-84.6218"/>
</g>
<!-- Node9 -->
<g id="node9" class="node"><title>Node9</title>
<g id="a_node9"><a xlink:href="../../da/d04/classtitle_panes_1_1_control_title_pane.html#af28eba60fefe51c70e763d51d9123ea3" target="_top" xlink:title="titlePanes.ControlTitlePane.make\lLocationFields">
<polygon fill="white" stroke="black" points="1578.5,-0 1578.5,-30 1751.5,-30 1751.5,-0 1578.5,-0"/>
<text text-anchor="start" x="1586.5" y="-18" font-family="Helvetica,sans-Serif" font-size="10.00">titlePanes.ControlTitlePane.make</text>
<text text-anchor="middle" x="1665" y="-7" font-family="Helvetica,sans-Serif" font-size="10.00">LocationFields</text>
</a>
</g>
</g>
<!-- Node6&#45;&gt;Node9 -->
<g id="edge8" class="edge"><title>Node6&#45;&gt;Node9</title>
<path fill="none" stroke="midnightblue" d="M1127.18,-63.7364C1143.62,-60.9228 1161.46,-58.1097 1178,-56 1317.64,-38.1916 1480.88,-26.222 1578.17,-20.018"/>
<polygon fill="midnightblue" stroke="midnightblue" points="1126.4,-60.3191 1117.15,-65.4821 1127.6,-67.2155 1126.4,-60.3191"/>
</g>
<!-- Node11 -->
<g id="node11" class="node"><title>Node11</title>
<g id="a_node11"><a xlink:href="../../d9/d49/classback_end_1_1_controller.html#a3b0bbf0a084bb4fb63d118f66e7327b1" target="_top" xlink:title="backEnd.Controller.move10">
<polygon fill="white" stroke="black" points="1178,-65.5 1178,-84.5 1326,-84.5 1326,-65.5 1178,-65.5"/>
<text text-anchor="middle" x="1252" y="-72.5" font-family="Helvetica,sans-Serif" font-size="10.00">backEnd.Controller.move10</text>
</a>
</g>
</g>
<!-- Node6&#45;&gt;Node11 -->
<g id="edge10" class="edge"><title>Node6&#45;&gt;Node11</title>
<path fill="none" stroke="midnightblue" d="M1152.16,-75C1160.76,-75 1169.45,-75 1177.92,-75"/>
<polygon fill="midnightblue" stroke="midnightblue" points="1152.11,-71.5001 1142.11,-75 1152.11,-78.5001 1152.11,-71.5001"/>
</g>
<!-- Node8 -->
<g id="node8" class="node"><title>Node8</title>
<g id="a_node8"><a xlink:href="../../de/d03/classpanels_1_1_script_panel.html#ac959f1785cff7409d857d3bea9b8ee63" target="_top" xlink:title="panels.ScriptPanel.Script\lPanel">
<polygon fill="white" stroke="black" points="1384.5,-139 1384.5,-169 1519.5,-169 1519.5,-139 1384.5,-139"/>
<text text-anchor="start" x="1392.5" y="-157" font-family="Helvetica,sans-Serif" font-size="10.00">panels.ScriptPanel.Script</text>
<text text-anchor="middle" x="1452" y="-146" font-family="Helvetica,sans-Serif" font-size="10.00">Panel</text>
</a>
</g>
</g>
<!-- Node7&#45;&gt;Node8 -->
<g id="edge7" class="edge"><title>Node7&#45;&gt;Node8</title>
<path fill="none" stroke="midnightblue" d="M1333.97,-145.725C1350.72,-146.909 1368.19,-148.144 1384.36,-149.288"/>
<polygon fill="midnightblue" stroke="midnightblue" points="1333.87,-142.209 1323.64,-144.995 1333.37,-149.192 1333.87,-142.209"/>
</g>
<!-- Node10 -->
<g id="node10" class="node"><title>Node10</title>
<g id="a_node10"><a xlink:href="../../da/d04/classtitle_panes_1_1_control_title_pane.html#ad9d4431a2657a30fedae46e0c9093867" target="_top" xlink:title="titlePanes.ControlTitlePane.\lControlTitlePane">
<polygon fill="white" stroke="black" points="1788,-24 1788,-54 1934,-54 1934,-24 1788,-24"/>
<text text-anchor="start" x="1796" y="-42" font-family="Helvetica,sans-Serif" font-size="10.00">titlePanes.ControlTitlePane.</text>
<text text-anchor="middle" x="1861" y="-31" font-family="Helvetica,sans-Serif" font-size="10.00">ControlTitlePane</text>
</a>
</g>
</g>
<!-- Node9&#45;&gt;Node10 -->
<g id="edge9" class="edge"><title>Node9&#45;&gt;Node10</title>
<path fill="none" stroke="midnightblue" d="M1761.6,-26.8271C1770.43,-27.9193 1779.28,-29.0135 1787.84,-30.0734"/>
<polygon fill="midnightblue" stroke="midnightblue" points="1762.01,-23.3509 1751.66,-25.5966 1761.15,-30.298 1762.01,-23.3509"/>
</g>
<!-- Node12 -->
<g id="node12" class="node"><title>Node12</title>
<g id="a_node12"><a xlink:href="../../d9/d49/classback_end_1_1_controller.html#a7893477f39915a5169eb8da0dff60628" target="_top" xlink:title="backEnd.Controller.build\lKeyListener">
<polygon fill="white" stroke="black" points="1386.5,-90 1386.5,-120 1517.5,-120 1517.5,-90 1386.5,-90"/>
<text text-anchor="start" x="1394.5" y="-108" font-family="Helvetica,sans-Serif" font-size="10.00">backEnd.Controller.build</text>
<text text-anchor="middle" x="1452" y="-97" font-family="Helvetica,sans-Serif" font-size="10.00">KeyListener</text>
</a>
</g>
</g>
<!-- Node11&#45;&gt;Node12 -->
<g id="edge11" class="edge"><title>Node11&#45;&gt;Node12</title>
<path fill="none" stroke="midnightblue" d="M1326.08,-86.0721C1345.79,-89.0587 1366.97,-92.2687 1386.2,-95.1816"/>
<polygon fill="midnightblue" stroke="midnightblue" points="1326.33,-82.571 1315.92,-84.5334 1325.28,-89.492 1326.33,-82.571"/>
</g>
<!-- Node14 -->
<g id="node14" class="node"><title>Node14</title>
<g id="a_node14"><a xlink:href="../../da/d04/classtitle_panes_1_1_control_title_pane.html#ae994c7b4dd988b30fc824e9e893b3ccf" target="_top" xlink:title="titlePanes.ControlTitlePane.handle">
<polygon fill="white" stroke="black" points="1362.5,-51.5 1362.5,-70.5 1541.5,-70.5 1541.5,-51.5 1362.5,-51.5"/>
<text text-anchor="middle" x="1452" y="-58.5" font-family="Helvetica,sans-Serif" font-size="10.00">titlePanes.ControlTitlePane.handle</text>
</a>
</g>
</g>
<!-- Node11&#45;&gt;Node14 -->
<g id="edge13" class="edge"><title>Node11&#45;&gt;Node14</title>
<path fill="none" stroke="midnightblue" d="M1336.22,-69.1158C1344.86,-68.5047 1353.67,-67.882 1362.37,-67.2668"/>
<polygon fill="midnightblue" stroke="midnightblue" points="1335.89,-65.63 1326.17,-69.8267 1336.39,-72.6126 1335.89,-65.63"/>
</g>
<!-- Node13 -->
<g id="node13" class="node"><title>Node13</title>
<g id="a_node13"><a xlink:href="../../d9/d49/classback_end_1_1_controller.html#a987136eaba0798749f393bac2a9a2400" target="_top" xlink:title="backEnd.Controller.Controller">
<polygon fill="white" stroke="black" points="1587.5,-98.5 1587.5,-117.5 1742.5,-117.5 1742.5,-98.5 1587.5,-98.5"/>
<text text-anchor="middle" x="1665" y="-105.5" font-family="Helvetica,sans-Serif" font-size="10.00">backEnd.Controller.Controller</text>
</a>
</g>
</g>
<!-- Node12&#45;&gt;Node13 -->
<g id="edge12" class="edge"><title>Node12&#45;&gt;Node13</title>
<path fill="none" stroke="midnightblue" d="M1527.94,-106.065C1547.15,-106.339 1567.84,-106.633 1587.15,-106.907"/>
<polygon fill="midnightblue" stroke="midnightblue" points="1527.79,-102.563 1517.74,-105.92 1527.69,-109.562 1527.79,-102.563"/>
</g>
<!-- Node14&#45;&gt;Node9 -->
<g id="edge16" class="edge"><title>Node14&#45;&gt;Node9</title>
<path fill="none" stroke="midnightblue" d="M1506.69,-49.2945C1533.53,-43.4436 1566.32,-36.2957 1595,-30.0427"/>
<polygon fill="midnightblue" stroke="midnightblue" points="1505.74,-45.919 1496.72,-51.4688 1507.24,-52.7583 1505.74,-45.919"/>
</g>
<!-- Node15 -->
<g id="node15" class="node"><title>Node15</title>
<g id="a_node15"><a xlink:href="../../da/d04/classtitle_panes_1_1_control_title_pane.html#a974c75cbdf64007af637c8b19a26b215" target="_top" xlink:title="titlePanes.ControlTitlePane.make\lButtons">
<polygon fill="white" stroke="black" points="1578.5,-49 1578.5,-79 1751.5,-79 1751.5,-49 1578.5,-49"/>
<text text-anchor="start" x="1586.5" y="-67" font-family="Helvetica,sans-Serif" font-size="10.00">titlePanes.ControlTitlePane.make</text>
<text text-anchor="middle" x="1665" y="-56" font-family="Helvetica,sans-Serif" font-size="10.00">Buttons</text>
</a>
</g>
</g>
<!-- Node14&#45;&gt;Node15 -->
<g id="edge14" class="edge"><title>Node14&#45;&gt;Node15</title>
<path fill="none" stroke="midnightblue" d="M1551.61,-62.4021C1560.55,-62.5291 1569.55,-62.6571 1578.36,-62.7824"/>
<polygon fill="midnightblue" stroke="midnightblue" points="1551.61,-58.9018 1541.57,-62.2592 1551.52,-65.9011 1551.61,-58.9018"/>
</g>
<!-- Node15&#45;&gt;Node10 -->
<g id="edge15" class="edge"><title>Node15&#45;&gt;Node10</title>
<path fill="none" stroke="midnightblue" d="M1761.6,-51.6801C1770.43,-50.5423 1779.28,-49.4026 1787.84,-48.2985"/>
<polygon fill="midnightblue" stroke="midnightblue" points="1761.13,-48.2124 1751.66,-52.9619 1762.02,-55.155 1761.13,-48.2124"/>
</g>
</g>
</svg>
