<?xml version="1.0" encoding="UTF-8" standalone="no"?>
<!DOCTYPE svg PUBLIC "-//W3C//DTD SVG 1.1//EN"
 "http://www.w3.org/Graphics/SVG/1.1/DTD/svg11.dtd">
<!-- Generated by graphviz version 2.36.0 (20140111.2315)
 -->
<!-- Title: /tmp/duke&#45;compsci308&#45;fall2014/slogo_team06/repository/src/commands Pages: 1 -->
<svg width="625pt" height="111pt"
 viewBox="0.00 0.00 625.00 111.00" xmlns="http://www.w3.org/2000/svg" xmlns:xlink="http://www.w3.org/1999/xlink">
<g id="graph0" class="graph" transform="scale(1 1) rotate(0) translate(4 107)">
<title>/tmp/duke&#45;compsci308&#45;fall2014/slogo_team06/repository/src/commands</title>
<polygon fill="white" stroke="none" points="-4,4 -4,-107 621,-107 621,4 -4,4"/>
<g id="clust1" class="cluster"><title>clusterdir_3c5ab4553aef73f378e4fab83f5a6b3f</title>
<g id="a_clust1"><a xlink:href="dir_3c5ab4553aef73f378e4fab83f5a6b3f.html" target="_top" xlink:title="src">
<polygon fill="#ddddee" stroke="black" points="8,-8 8,-95 609,-95 609,-8 8,-8"/>
<text text-anchor="middle" x="308.5" y="-83" font-family="Helvetica,sans-Serif" font-size="10.00">src</text>
</a>
</g>
</g>
<g id="clust2" class="cluster"><title>clusterdir_4338c7a3ceacf0b004b90ba48fa071e3</title>
<g id="a_clust2"><a xlink:href="dir_4338c7a3ceacf0b004b90ba48fa071e3.html" target="_top">
<polygon fill="#eeeeff" stroke="black" points="16,-16 16,-68 601,-68 601,-16 16,-16"/>
</a>
</g>
</g>
<!-- dir_4338c7a3ceacf0b004b90ba48fa071e3 -->
<g id="node1" class="node"><title>dir_4338c7a3ceacf0b004b90ba48fa071e3</title>
<text text-anchor="middle" x="557" y="-39.5" font-family="Helvetica,sans-Serif" font-size="10.00">commands</text>
</g>
<!-- dir_a2e38688f7d314cd0ede41d552d3a373 -->
<g id="node2" class="node"><title>dir_a2e38688f7d314cd0ede41d552d3a373</title>
<g id="a_node2"><a xlink:href="dir_a2e38688f7d314cd0ede41d552d3a373.html" target="_top" xlink:title="onechild">
<polygon fill="white" stroke="black" points="502.5,-60 447.5,-60 447.5,-24 502.5,-24 502.5,-60"/>
<text text-anchor="middle" x="475" y="-39.5" font-family="Helvetica,sans-Serif" font-size="10.00">onechild</text>
</a>
</g>
</g>
<!-- dir_c546cd9c26ddffa8bf41b3bc0ab0f655 -->
<g id="node3" class="node"><title>dir_c546cd9c26ddffa8bf41b3bc0ab0f655</title>
<g id="a_node3"><a xlink:href="dir_c546cd9c26ddffa8bf41b3bc0ab0f655.html" target="_top" xlink:title="templates">
<polygon fill="white" stroke="black" points="428.25,-60 363.75,-60 363.75,-24 428.25,-24 428.25,-60"/>
<text text-anchor="middle" x="396" y="-39.5" font-family="Helvetica,sans-Serif" font-size="10.00">templates</text>
</a>
</g>
</g>
<!-- dir_93c06846cf6c7391fcc59142a97c9434 -->
<g id="node4" class="node"><title>dir_93c06846cf6c7391fcc59142a97c9434</title>
<g id="a_node4"><a xlink:href="dir_93c06846cf6c7391fcc59142a97c9434.html" target="_top" xlink:title="turtle_commands">
<polygon fill="white" stroke="black" points="345.25,-60 244.75,-60 244.75,-24 345.25,-24 345.25,-60"/>
<text text-anchor="middle" x="295" y="-39.5" font-family="Helvetica,sans-Serif" font-size="10.00">turtle_commands</text>
</a>
</g>
</g>
<!-- dir_ada8023d735ad691e3bf115fe30fbd99 -->
<g id="node5" class="node"><title>dir_ada8023d735ad691e3bf115fe30fbd99</title>
<g id="a_node5"><a xlink:href="dir_ada8023d735ad691e3bf115fe30fbd99.html" target="_top" xlink:title="twochildren">
<polygon fill="white" stroke="black" points="226.25,-60 155.75,-60 155.75,-24 226.25,-24 226.25,-60"/>
<text text-anchor="middle" x="191" y="-39.5" font-family="Helvetica,sans-Serif" font-size="10.00">twochildren</text>
</a>
</g>
</g>
<!-- dir_f4618f5643509c88dd1bba50cc72e7fa -->
<g id="node6" class="node"><title>dir_f4618f5643509c88dd1bba50cc72e7fa</title>
<g id="a_node6"><a xlink:href="dir_f4618f5643509c88dd1bba50cc72e7fa.html" target="_top" xlink:title="variable_commands">
<polygon fill="white" stroke="black" points="137.25,-60 24.75,-60 24.75,-24 137.25,-24 137.25,-60"/>
<text text-anchor="middle" x="81" y="-39.5" font-family="Helvetica,sans-Serif" font-size="10.00">variable_commands</text>
</a>
</g>
</g>
</g>
</svg>
