<?xml version="1.0" encoding="UTF-8" standalone="no"?>
<!DOCTYPE svg PUBLIC "-//W3C//DTD SVG 1.1//EN"
 "http://www.w3.org/Graphics/SVG/1.1/DTD/svg11.dtd">
<!-- Generated by graphviz version 2.36.0 (20140111.2315)
 -->
<!-- Title: /tmp/duke&#45;compsci308&#45;fall2014/slogo_team06/repository/src Pages: 1 -->
<svg width="807pt" height="111pt"
 viewBox="0.00 0.00 807.00 111.00" xmlns="http://www.w3.org/2000/svg" xmlns:xlink="http://www.w3.org/1999/xlink">
<g id="graph0" class="graph" transform="scale(1 1) rotate(0) translate(4 107)">
<title>/tmp/duke&#45;compsci308&#45;fall2014/slogo_team06/repository/src</title>
<polygon fill="white" stroke="none" points="-4,4 -4,-107 803,-107 803,4 -4,4"/>
<g id="clust1" class="cluster"><title>clusterdir_4637968d6fe07f0a563eccd446a0ee24</title>
<g id="a_clust1"><a xlink:href="dir_4637968d6fe07f0a563eccd446a0ee24.html" target="_top" xlink:title="repository">
<polygon fill="#ddddee" stroke="black" points="8,-8 8,-95 791,-95 791,-8 8,-8"/>
<text text-anchor="middle" x="399.5" y="-83" font-family="Helvetica,sans-Serif" font-size="10.00">repository</text>
</a>
</g>
</g>
<g id="clust2" class="cluster"><title>clusterdir_3c5ab4553aef73f378e4fab83f5a6b3f</title>
<g id="a_clust2"><a xlink:href="dir_3c5ab4553aef73f378e4fab83f5a6b3f.html" target="_top">
<polygon fill="#eeeeff" stroke="black" points="16,-16 16,-68 783,-68 783,-16 16,-16"/>
</a>
</g>
</g>
<!-- dir_3c5ab4553aef73f378e4fab83f5a6b3f -->
<g id="node1" class="node"><title>dir_3c5ab4553aef73f378e4fab83f5a6b3f</title>
<text text-anchor="middle" x="748" y="-39.5" font-family="Helvetica,sans-Serif" font-size="10.00">src</text>
</g>
<!-- dir_12dec0f2127cdf27190e0236754a9094 -->
<g id="node2" class="node"><title>dir_12dec0f2127cdf27190e0236754a9094</title>
<g id="a_node2"><a xlink:href="dir_12dec0f2127cdf27190e0236754a9094.html" target="_top" xlink:title="backEnd">
<polygon fill="white" stroke="red" points="702.25,-60 645.75,-60 645.75,-24 702.25,-24 702.25,-60"/>
<text text-anchor="middle" x="674" y="-39.5" font-family="Helvetica,sans-Serif" font-size="10.00">backEnd</text>
</a>
</g>
</g>
<!-- dir_4338c7a3ceacf0b004b90ba48fa071e3 -->
<g id="node3" class="node"><title>dir_4338c7a3ceacf0b004b90ba48fa071e3</title>
<g id="a_node3"><a xlink:href="dir_4338c7a3ceacf0b004b90ba48fa071e3.html" target="_top" xlink:title="commands">
<polygon fill="white" stroke="red" points="627.25,-60 556.75,-60 556.75,-24 627.25,-24 627.25,-60"/>
<text text-anchor="middle" x="592" y="-39.5" font-family="Helvetica,sans-Serif" font-size="10.00">commands</text>
</a>
</g>
</g>
<!-- dir_08ecda4b6a10cd292205c3e5b4bc76f1 -->
<g id="node4" class="node"><title>dir_08ecda4b6a10cd292205c3e5b4bc76f1</title>
<g id="a_node4"><a xlink:href="dir_08ecda4b6a10cd292205c3e5b4bc76f1.html" target="_top" xlink:title="drawer">
<polygon fill="white" stroke="black" points="538,-60 484,-60 484,-24 538,-24 538,-60"/>
<text text-anchor="middle" x="511" y="-39.5" font-family="Helvetica,sans-Serif" font-size="10.00">drawer</text>
</a>
</g>
</g>
<!-- dir_2afa5adf442725c6524353b5a9629140 -->
<g id="node5" class="node"><title>dir_2afa5adf442725c6524353b5a9629140</title>
<g id="a_node5"><a xlink:href="dir_2afa5adf442725c6524353b5a9629140.html" target="_top" xlink:title="exceptions">
<polygon fill="white" stroke="black" points="466,-60 398,-60 398,-24 466,-24 466,-60"/>
<text text-anchor="middle" x="432" y="-39.5" font-family="Helvetica,sans-Serif" font-size="10.00">exceptions</text>
</a>
</g>
</g>
<!-- dir_c091795c27987857295d7649f7f1a4c6 -->
<g id="node6" class="node"><title>dir_c091795c27987857295d7649f7f1a4c6</title>
<g id="a_node6"><a xlink:href="dir_c091795c27987857295d7649f7f1a4c6.html" target="_top" xlink:title="frontEnd">
<polygon fill="white" stroke="black" points="379.25,-60 322.75,-60 322.75,-24 379.25,-24 379.25,-60"/>
<text text-anchor="middle" x="351" y="-39.5" font-family="Helvetica,sans-Serif" font-size="10.00">frontEnd</text>
</a>
</g>
</g>
<!-- dir_1549557d49e55b49cc6a80c61decabe2 -->
<g id="node7" class="node"><title>dir_1549557d49e55b49cc6a80c61decabe2</title>
<g id="a_node7"><a xlink:href="dir_1549557d49e55b49cc6a80c61decabe2.html" target="_top" xlink:title="main">
<polygon fill="white" stroke="black" points="304,-60 250,-60 250,-24 304,-24 304,-60"/>
<text text-anchor="middle" x="277" y="-39.5" font-family="Helvetica,sans-Serif" font-size="10.00">main</text>
</a>
</g>
</g>
<!-- dir_7d3d96f1472473dd74f5636f432d62dd -->
<g id="node8" class="node"><title>dir_7d3d96f1472473dd74f5636f432d62dd</title>
<g id="a_node8"><a xlink:href="dir_7d3d96f1472473dd74f5636f432d62dd.html" target="_top" xlink:title="panels">
<polygon fill="white" stroke="black" points="232,-60 178,-60 178,-24 232,-24 232,-60"/>
<text text-anchor="middle" x="205" y="-39.5" font-family="Helvetica,sans-Serif" font-size="10.00">panels</text>
</a>
</g>
</g>
<!-- dir_74651548eb7f06643a262d1d6ce57336 -->
<g id="node9" class="node"><title>dir_74651548eb7f06643a262d1d6ce57336</title>
<g id="a_node9"><a xlink:href="dir_74651548eb7f06643a262d1d6ce57336.html" target="_top" xlink:title="tests">
<polygon fill="white" stroke="black" points="160,-60 106,-60 106,-24 160,-24 160,-60"/>
<text text-anchor="middle" x="133" y="-39.5" font-family="Helvetica,sans-Serif" font-size="10.00">tests</text>
</a>
</g>
</g>
<!-- dir_308be0663aac665f51e6ae8494e4efd0 -->
<g id="node10" class="node"><title>dir_308be0663aac665f51e6ae8494e4efd0</title>
<g id="a_node10"><a xlink:href="dir_308be0663aac665f51e6ae8494e4efd0.html" target="_top" xlink:title="titlePanes">
<polygon fill="white" stroke="red" points="87.25,-60 24.75,-60 24.75,-24 87.25,-24 87.25,-60"/>
<text text-anchor="middle" x="56" y="-39.5" font-family="Helvetica,sans-Serif" font-size="10.00">titlePanes</text>
</a>
</g>
</g>
</g>
</svg>
