<?xml version="1.0" encoding="UTF-8" standalone="no"?>
<!DOCTYPE svg PUBLIC "-//W3C//DTD SVG 1.1//EN"
 "http://www.w3.org/Graphics/SVG/1.1/DTD/svg11.dtd">
<!-- Generated by graphviz version 2.36.0 (20140111.2315)
 -->
<!-- Title: Graphical Class Hierarchy Pages: 1 -->
<svg width="212pt" height="66pt"
 viewBox="0.00 0.00 212.00 66.00" xmlns="http://www.w3.org/2000/svg" xmlns:xlink="http://www.w3.org/1999/xlink">
<g id="graph0" class="graph" transform="scale(1 1) rotate(0) translate(4 62)">
<title>Graphical Class Hierarchy</title>
<polygon fill="white" stroke="none" points="-4,4 -4,-62 208,-62 208,4 -4,4"/>
<!-- Node1 -->
<g id="node1" class="node"><title>Node1</title>
<polygon fill="white" stroke="#bfbfbf" points="0,-19.5 0,-38.5 40,-38.5 40,-19.5 0,-19.5"/>
<text text-anchor="middle" x="20" y="-26.5" font-family="Helvetica,sans-Serif" font-size="10.00">Pane</text>
</g>
<!-- Node2 -->
<g id="node2" class="node"><title>Node2</title>
<g id="a_node2"><a xlink:href="d8/dfc/classpanels_1_1_parameter_panel.html" target="_top" xlink:title="panels.ParameterPanel">
<polygon fill="white" stroke="black" points="76.5,-38.5 76.5,-57.5 203.5,-57.5 203.5,-38.5 76.5,-38.5"/>
<text text-anchor="middle" x="140" y="-45.5" font-family="Helvetica,sans-Serif" font-size="10.00">panels.ParameterPanel</text>
</a>
</g>
</g>
<!-- Node1&#45;&gt;Node2 -->
<g id="edge1" class="edge"><title>Node1&#45;&gt;Node2</title>
<path fill="none" stroke="midnightblue" d="M50.1538,-33.6943C59.173,-35.1465 69.4555,-36.8022 79.7482,-38.4594"/>
<polygon fill="midnightblue" stroke="midnightblue" points="50.6506,-30.2292 40.2214,-32.095 49.5378,-37.1402 50.6506,-30.2292"/>
</g>
<!-- Node3 -->
<g id="node3" class="node"><title>Node3</title>
<g id="a_node3"><a xlink:href="de/d03/classpanels_1_1_script_panel.html" target="_top" xlink:title="panels.ScriptPanel">
<polygon fill="white" stroke="black" points="88,-0.5 88,-19.5 192,-19.5 192,-0.5 88,-0.5"/>
<text text-anchor="middle" x="140" y="-7.5" font-family="Helvetica,sans-Serif" font-size="10.00">panels.ScriptPanel</text>
</a>
</g>
</g>
<!-- Node1&#45;&gt;Node3 -->
<g id="edge2" class="edge"><title>Node1&#45;&gt;Node3</title>
<path fill="none" stroke="midnightblue" d="M50.4307,-24.2612C61.7945,-22.4314 75.1321,-20.2838 87.9586,-18.2185"/>
<polygon fill="midnightblue" stroke="midnightblue" points="49.5378,-20.8598 40.2214,-25.905 50.6506,-27.7708 49.5378,-20.8598"/>
</g>
</g>
</svg>
