<?xml version="1.0" encoding="UTF-8" standalone="no"?>
<!DOCTYPE svg PUBLIC "-//W3C//DTD SVG 1.1//EN"
 "http://www.w3.org/Graphics/SVG/1.1/DTD/svg11.dtd">
<!-- Generated by graphviz version 2.36.0 (20140111.2315)
 -->
<!-- Title: Graphical Class Hierarchy Pages: 1 -->
<svg width="270pt" height="306pt"
 viewBox="0.00 0.00 270.00 306.00" xmlns="http://www.w3.org/2000/svg" xmlns:xlink="http://www.w3.org/1999/xlink">
<g id="graph0" class="graph" transform="scale(1 1) rotate(0) translate(4 302)">
<title>Graphical Class Hierarchy</title>
<polygon fill="white" stroke="none" points="-4,4 -4,-302 266,-302 266,4 -4,4"/>
<!-- Node1 -->
<g id="node1" class="node"><title>Node1</title>
<polygon fill="white" stroke="#bfbfbf" points="0.5,-145.5 0.5,-164.5 65.5,-164.5 65.5,-145.5 0.5,-145.5"/>
<text text-anchor="middle" x="33" y="-152.5" font-family="Helvetica,sans-Serif" font-size="10.00">TitledPane</text>
</g>
<!-- Node2 -->
<g id="node2" class="node"><title>Node2</title>
<g id="a_node2"><a xlink:href="da/d59/classtitle_panes_1_1_command_title_pane.html" target="_top" xlink:title="titlePanes.CommandTitlePane">
<polygon fill="white" stroke="black" points="102.5,-278.5 102.5,-297.5 261.5,-297.5 261.5,-278.5 102.5,-278.5"/>
<text text-anchor="middle" x="182" y="-285.5" font-family="Helvetica,sans-Serif" font-size="10.00">titlePanes.CommandTitlePane</text>
</a>
</g>
</g>
<!-- Node1&#45;&gt;Node2 -->
<g id="edge1" class="edge"><title>Node1&#45;&gt;Node2</title>
<path fill="none" stroke="midnightblue" d="M40.2212,-174.452C49.4717,-200.154 69.3576,-244.975 102,-269 107.226,-272.846 113.125,-275.924 119.285,-278.385"/>
<polygon fill="midnightblue" stroke="midnightblue" points="43.4435,-173.057 36.9017,-164.723 36.8185,-175.317 43.4435,-173.057"/>
</g>
<!-- Node3 -->
<g id="node3" class="node"><title>Node3</title>
<g id="a_node3"><a xlink:href="da/d04/classtitle_panes_1_1_control_title_pane.html" target="_top" xlink:title="titlePanes.ControlTitlePane">
<polygon fill="white" stroke="black" points="110.5,-240.5 110.5,-259.5 253.5,-259.5 253.5,-240.5 110.5,-240.5"/>
<text text-anchor="middle" x="182" y="-247.5" font-family="Helvetica,sans-Serif" font-size="10.00">titlePanes.ControlTitlePane</text>
</a>
</g>
</g>
<!-- Node1&#45;&gt;Node3 -->
<g id="edge2" class="edge"><title>Node1&#45;&gt;Node3</title>
<path fill="none" stroke="midnightblue" d="M45.5656,-173.371C57.5502,-190.864 77.8895,-216.598 102,-231 108.54,-234.906 115.835,-238.01 123.277,-240.476"/>
<polygon fill="midnightblue" stroke="midnightblue" points="48.2242,-171.045 39.7961,-164.625 42.381,-174.9 48.2242,-171.045"/>
</g>
<!-- Node4 -->
<g id="node4" class="node"><title>Node4</title>
<g id="a_node4"><a xlink:href="dd/d67/classtitle_panes_1_1_display_title_pane.html" target="_top" xlink:title="titlePanes.DisplayTitlePane">
<polygon fill="white" stroke="black" points="110.5,-202.5 110.5,-221.5 253.5,-221.5 253.5,-202.5 110.5,-202.5"/>
<text text-anchor="middle" x="182" y="-209.5" font-family="Helvetica,sans-Serif" font-size="10.00">titlePanes.DisplayTitlePane</text>
</a>
</g>
</g>
<!-- Node1&#45;&gt;Node4 -->
<g id="edge3" class="edge"><title>Node1&#45;&gt;Node4</title>
<path fill="none" stroke="midnightblue" d="M56.9118,-169.882C69.7475,-177.679 86.2908,-186.856 102,-193 111.459,-196.699 121.846,-199.821 131.891,-202.397"/>
<polygon fill="midnightblue" stroke="midnightblue" points="58.6248,-166.826 48.2856,-164.512 54.9253,-172.768 58.6248,-166.826"/>
</g>
<!-- Node5 -->
<g id="node5" class="node"><title>Node5</title>
<g id="a_node5"><a xlink:href="d1/dd4/classtitle_panes_1_1_help_title_pane.html" target="_top" xlink:title="titlePanes.HelpTitlePane">
<polygon fill="white" stroke="black" points="116.5,-164.5 116.5,-183.5 247.5,-183.5 247.5,-164.5 116.5,-164.5"/>
<text text-anchor="middle" x="182" y="-171.5" font-family="Helvetica,sans-Serif" font-size="10.00">titlePanes.HelpTitlePane</text>
</a>
</g>
</g>
<!-- Node1&#45;&gt;Node5 -->
<g id="edge4" class="edge"><title>Node1&#45;&gt;Node5</title>
<path fill="none" stroke="midnightblue" d="M75.7292,-160.394C88.3495,-162.025 102.517,-163.856 116.27,-165.633"/>
<polygon fill="midnightblue" stroke="midnightblue" points="75.9014,-156.887 65.5352,-159.076 75.004,-163.829 75.9014,-156.887"/>
</g>
<!-- Node6 -->
<g id="node6" class="node"><title>Node6</title>
<g id="a_node6"><a xlink:href="de/dff/classtitle_panes_1_1_history_title_pane.html" target="_top" xlink:title="titlePanes.HistoryTitlePane">
<polygon fill="white" stroke="black" points="110.5,-126.5 110.5,-145.5 253.5,-145.5 253.5,-126.5 110.5,-126.5"/>
<text text-anchor="middle" x="182" y="-133.5" font-family="Helvetica,sans-Serif" font-size="10.00">titlePanes.HistoryTitlePane</text>
</a>
</g>
</g>
<!-- Node1&#45;&gt;Node6 -->
<g id="edge5" class="edge"><title>Node1&#45;&gt;Node6</title>
<path fill="none" stroke="midnightblue" d="M75.5314,-149.632C86.368,-148.231 98.3562,-146.682 110.248,-145.145"/>
<polygon fill="midnightblue" stroke="midnightblue" points="75.004,-146.171 65.5352,-150.924 75.9014,-153.113 75.004,-146.171"/>
</g>
<!-- Node7 -->
<g id="node7" class="node"><title>Node7</title>
<g id="a_node7"><a xlink:href="d7/d28/classtitle_panes_1_1_load_variables_title_pane.html" target="_top" xlink:title="titlePanes.LoadVariables\lTitlePane">
<polygon fill="white" stroke="black" points="115.5,-77 115.5,-107 248.5,-107 248.5,-77 115.5,-77"/>
<text text-anchor="start" x="123.5" y="-95" font-family="Helvetica,sans-Serif" font-size="10.00">titlePanes.LoadVariables</text>
<text text-anchor="middle" x="182" y="-84" font-family="Helvetica,sans-Serif" font-size="10.00">TitlePane</text>
</a>
</g>
</g>
<!-- Node1&#45;&gt;Node7 -->
<g id="edge6" class="edge"><title>Node1&#45;&gt;Node7</title>
<path fill="none" stroke="midnightblue" d="M57.5909,-140.254C70.406,-132.648 86.7168,-123.607 102,-117 110.319,-113.404 119.328,-110.063 128.183,-107.071"/>
<polygon fill="midnightblue" stroke="midnightblue" points="55.6887,-137.314 48.9421,-145.483 59.3104,-143.304 55.6887,-137.314"/>
</g>
<!-- Node8 -->
<g id="node8" class="node"><title>Node8</title>
<g id="a_node8"><a xlink:href="dd/dde/classtitle_panes_1_1_turtle_info_title_pane.html" target="_top" xlink:title="titlePanes.TurtleInfoTitlePane">
<polygon fill="white" stroke="black" points="106,-38.5 106,-57.5 258,-57.5 258,-38.5 106,-38.5"/>
<text text-anchor="middle" x="182" y="-45.5" font-family="Helvetica,sans-Serif" font-size="10.00">titlePanes.TurtleInfoTitlePane</text>
</a>
</g>
</g>
<!-- Node1&#45;&gt;Node8 -->
<g id="edge7" class="edge"><title>Node1&#45;&gt;Node8</title>
<path fill="none" stroke="midnightblue" d="M43.6018,-136.422C54.8861,-116.461 75.4842,-85.2838 102,-68 108.637,-63.6736 116.151,-60.2829 123.84,-57.6257"/>
<polygon fill="midnightblue" stroke="midnightblue" points="40.3917,-134.999 38.6963,-145.457 46.5436,-138.339 40.3917,-134.999"/>
</g>
<!-- Node9 -->
<g id="node9" class="node"><title>Node9</title>
<g id="a_node9"><a xlink:href="d0/d8f/classtitle_panes_1_1_variable_title_pane.html" target="_top" xlink:title="titlePanes.VariableTitlePane">
<polygon fill="white" stroke="black" points="108.5,-0.5 108.5,-19.5 255.5,-19.5 255.5,-0.5 108.5,-0.5"/>
<text text-anchor="middle" x="182" y="-7.5" font-family="Helvetica,sans-Serif" font-size="10.00">titlePanes.VariableTitlePane</text>
</a>
</g>
</g>
<!-- Node1&#45;&gt;Node9 -->
<g id="edge8" class="edge"><title>Node1&#45;&gt;Node9</title>
<path fill="none" stroke="midnightblue" d="M39.0331,-135.538C47.3091,-107.549 66.5244,-56.3042 102,-29 107.03,-25.1283 112.733,-22.0306 118.717,-19.5545"/>
<polygon fill="midnightblue" stroke="midnightblue" points="35.6134,-134.772 36.3031,-145.344 42.3569,-136.649 35.6134,-134.772"/>
</g>
</g>
</svg>
