<?xml version="1.0" encoding="UTF-8" standalone="no"?>
<!DOCTYPE svg PUBLIC "-//W3C//DTD SVG 1.1//EN"
 "http://www.w3.org/Graphics/SVG/1.1/DTD/svg11.dtd">
<!-- Generated by graphviz version 2.36.0 (20140111.2315)
 -->
<!-- Title: Graphical Class Hierarchy Pages: 1 -->
<svg width="272pt" height="66pt"
 viewBox="0.00 0.00 272.00 66.00" xmlns="http://www.w3.org/2000/svg" xmlns:xlink="http://www.w3.org/1999/xlink">
<g id="graph0" class="graph" transform="scale(1 1) rotate(0) translate(4 62)">
<title>Graphical Class Hierarchy</title>
<polygon fill="white" stroke="none" points="-4,4 -4,-62 268,-62 268,4 -4,4"/>
<!-- Node1 -->
<g id="node1" class="node"><title>Node1</title>
<polygon fill="white" stroke="#bfbfbf" points="0.5,-19.5 0.5,-38.5 71.5,-38.5 71.5,-19.5 0.5,-19.5"/>
<text text-anchor="middle" x="36" y="-26.5" font-family="Helvetica,sans-Serif" font-size="10.00">Observable</text>
</g>
<!-- Node2 -->
<g id="node2" class="node"><title>Node2</title>
<g id="a_node2"><a xlink:href="d8/d32/classback_end_1_1turtle_1_1_turtle.html" target="_top" xlink:title="backEnd.turtle.Turtle">
<polygon fill="white" stroke="black" points="129,-38.5 129,-57.5 243,-57.5 243,-38.5 129,-38.5"/>
<text text-anchor="middle" x="186" y="-45.5" font-family="Helvetica,sans-Serif" font-size="10.00">backEnd.turtle.Turtle</text>
</a>
</g>
</g>
<!-- Node1&#45;&gt;Node2 -->
<g id="edge1" class="edge"><title>Node1&#45;&gt;Node2</title>
<path fill="none" stroke="midnightblue" d="M81.6375,-34.7305C96.4799,-36.6359 113.203,-38.7829 128.804,-40.7857"/>
<polygon fill="midnightblue" stroke="midnightblue" points="82.0637,-31.2566 71.6994,-33.4547 81.1723,-38.1996 82.0637,-31.2566"/>
</g>
<!-- Node3 -->
<g id="node3" class="node"><title>Node3</title>
<g id="a_node3"><a xlink:href="d4/d07/classback_end_1_1turtle_1_1_turtle_manager.html" target="_top" xlink:title="backEnd.turtle.TurtleManager">
<polygon fill="white" stroke="black" points="108,-0.5 108,-19.5 264,-19.5 264,-0.5 108,-0.5"/>
<text text-anchor="middle" x="186" y="-7.5" font-family="Helvetica,sans-Serif" font-size="10.00">backEnd.turtle.TurtleManager</text>
</a>
</g>
</g>
<!-- Node1&#45;&gt;Node3 -->
<g id="edge2" class="edge"><title>Node1&#45;&gt;Node3</title>
<path fill="none" stroke="midnightblue" d="M81.7537,-23.2546C90.9639,-22.0722 100.894,-20.7973 110.829,-19.522"/>
<polygon fill="midnightblue" stroke="midnightblue" points="81.1723,-19.8004 71.6994,-24.5453 82.0637,-26.7434 81.1723,-19.8004"/>
</g>
</g>
</svg>
