<?xml version="1.0" encoding="UTF-8" standalone="no"?>
<!DOCTYPE svg PUBLIC "-//W3C//DTD SVG 1.1//EN"
 "http://www.w3.org/Graphics/SVG/1.1/DTD/svg11.dtd">
<!-- Generated by graphviz version 2.36.0 (20140111.2315)
 -->
<!-- Title: Graphical Class Hierarchy Pages: 1 -->
<svg width="216pt" height="66pt"
 viewBox="0.00 0.00 216.00 66.00" xmlns="http://www.w3.org/2000/svg" xmlns:xlink="http://www.w3.org/1999/xlink">
<g id="graph0" class="graph" transform="scale(1 1) rotate(0) translate(4 62)">
<title>Graphical Class Hierarchy</title>
<polygon fill="white" stroke="none" points="-4,4 -4,-62 212,-62 212,4 -4,4"/>
<!-- Node1 -->
<g id="node1" class="node"><title>Node1</title>
<polygon fill="white" stroke="#bfbfbf" points="0,-38.5 0,-57.5 60,-57.5 60,-38.5 0,-38.5"/>
<text text-anchor="middle" x="30" y="-45.5" font-family="Helvetica,sans-Serif" font-size="10.00">Observer</text>
</g>
<!-- Node2 -->
<g id="node2" class="node"><title>Node2</title>
<g id="a_node2"><a xlink:href="d8/d1f/classfront_end_1_1_view.html" target="_top" xlink:title="frontEnd.View">
<polygon fill="white" stroke="black" points="111,-38.5 111,-57.5 193,-57.5 193,-38.5 111,-38.5"/>
<text text-anchor="middle" x="152" y="-45.5" font-family="Helvetica,sans-Serif" font-size="10.00">frontEnd.View</text>
</a>
</g>
</g>
<!-- Node1&#45;&gt;Node2 -->
<g id="edge1" class="edge"><title>Node1&#45;&gt;Node2</title>
<path fill="none" stroke="midnightblue" d="M70.1403,-48C83.196,-48 97.7568,-48 110.885,-48"/>
<polygon fill="midnightblue" stroke="midnightblue" points="70.0487,-44.5001 60.0487,-48 70.0486,-51.5001 70.0487,-44.5001"/>
</g>
<!-- Node3 -->
<g id="node3" class="node"><title>Node3</title>
<polygon fill="white" stroke="#bfbfbf" points="9.5,-0.5 9.5,-19.5 50.5,-19.5 50.5,-0.5 9.5,-0.5"/>
<text text-anchor="middle" x="30" y="-7.5" font-family="Helvetica,sans-Serif" font-size="10.00">VBox</text>
</g>
<!-- Node3&#45;&gt;Node2 -->
<g id="edge2" class="edge"><title>Node3&#45;&gt;Node2</title>
<path fill="none" stroke="midnightblue" d="M60.1264,-19.2234C78.467,-25.0312 102.098,-32.5143 120.664,-38.3937"/>
<polygon fill="midnightblue" stroke="midnightblue" points="61.1372,-15.8722 50.5471,-16.1899 59.0239,-22.5456 61.1372,-15.8722"/>
</g>
<!-- Node4 -->
<g id="node4" class="node"><title>Node4</title>
<g id="a_node4"><a xlink:href="d3/d21/classfront_end_1_1_workspace.html" target="_top" xlink:title="frontEnd.Workspace">
<polygon fill="white" stroke="black" points="96.5,-0.5 96.5,-19.5 207.5,-19.5 207.5,-0.5 96.5,-0.5"/>
<text text-anchor="middle" x="152" y="-7.5" font-family="Helvetica,sans-Serif" font-size="10.00">frontEnd.Workspace</text>
</a>
</g>
</g>
<!-- Node3&#45;&gt;Node4 -->
<g id="edge3" class="edge"><title>Node3&#45;&gt;Node4</title>
<path fill="none" stroke="midnightblue" d="M60.7124,-10C71.5513,-10 84.1775,-10 96.4925,-10"/>
<polygon fill="midnightblue" stroke="midnightblue" points="60.5472,-6.5001 50.5471,-10 60.5471,-13.5001 60.5472,-6.5001"/>
</g>
</g>
</svg>
