<?xml version="1.0" encoding="UTF-8" standalone="no"?>
<!DOCTYPE svg PUBLIC "-//W3C//DTD SVG 1.1//EN"
 "http://www.w3.org/Graphics/SVG/1.1/DTD/svg11.dtd">
<!-- Generated by graphviz version 2.36.0 (20140111.2315)
 -->
<!-- Title: commands.templates.Command Pages: 1 -->
<svg width="354pt" height="176pt"
 viewBox="0.00 0.00 354.00 176.00" xmlns="http://www.w3.org/2000/svg" xmlns:xlink="http://www.w3.org/1999/xlink">
<g id="graph0" class="graph" transform="scale(1 1) rotate(0) translate(4 172)">
<title>commands.templates.Command</title>
<polygon fill="white" stroke="none" points="-4,4 -4,-172 350,-172 350,4 -4,4"/>
<!-- Node1 -->
<g id="node1" class="node"><title>Node1</title>
<polygon fill="#bfbfbf" stroke="black" points="49,-0.5 49,-19.5 225,-19.5 225,-0.5 49,-0.5"/>
<text text-anchor="middle" x="137" y="-7.5" font-family="Helvetica,sans-Serif" font-size="10.00">commands.templates.Command</text>
</g>
<!-- Node2 -->
<g id="node2" class="node"><title>Node2</title>
<polygon fill="white" stroke="#bfbfbf" points="-0.5,-69 -0.5,-99 152.5,-99 152.5,-69 -0.5,-69"/>
<text text-anchor="start" x="7.5" y="-87" font-family="Helvetica,sans-Serif" font-size="10.00">List&lt; commands.templates.</text>
<text text-anchor="middle" x="76" y="-76" font-family="Helvetica,sans-Serif" font-size="10.00">Command &gt;</text>
</g>
<!-- Node2&#45;&gt;Node1 -->
<g id="edge1" class="edge"><title>Node2&#45;&gt;Node1</title>
<path fill="none" stroke="#9a32cd" stroke-dasharray="5,2" d="M94.5922,-61.0551C106.364,-47.1605 120.943,-29.952 129.579,-19.7589"/>
<polygon fill="#9a32cd" stroke="#9a32cd" points="91.8454,-58.8828 88.0516,-68.7751 97.1863,-63.4077 91.8454,-58.8828"/>
<text text-anchor="middle" x="143" y="-41.5" font-family="Helvetica,sans-Serif" font-size="10.00"> myChildren</text>
</g>
<!-- Node3 -->
<g id="node3" class="node"><title>Node3</title>
<g id="a_node3"><a xlink:href="../../d8/d6a/classback_end_1_1_variable_manager.html" target="_top" xlink:title="backEnd.VariableManager">
<polygon fill="white" stroke="black" points="171,-74.5 171,-93.5 311,-93.5 311,-74.5 171,-74.5"/>
<text text-anchor="middle" x="241" y="-81.5" font-family="Helvetica,sans-Serif" font-size="10.00">backEnd.VariableManager</text>
</a>
</g>
</g>
<!-- Node3&#45;&gt;Node1 -->
<g id="edge2" class="edge"><title>Node3&#45;&gt;Node1</title>
<path fill="none" stroke="#9a32cd" stroke-dasharray="5,2" d="M220.326,-68.6873C199.118,-54.0048 166.827,-31.6496 149.323,-19.531"/>
<polygon fill="#9a32cd" stroke="#9a32cd" points="218.447,-71.6435 228.661,-74.4579 222.432,-65.8881 218.447,-71.6435"/>
<text text-anchor="middle" x="242.5" y="-41.5" font-family="Helvetica,sans-Serif" font-size="10.00"> myVariableManager</text>
</g>
<!-- Node4 -->
<g id="node4" class="node"><title>Node4</title>
<polygon fill="white" stroke="#bfbfbf" points="124.5,-148.5 124.5,-167.5 239.5,-167.5 239.5,-148.5 124.5,-148.5"/>
<text text-anchor="middle" x="182" y="-155.5" font-family="Helvetica,sans-Serif" font-size="10.00">Stack&lt; Properties &gt;</text>
</g>
<!-- Node4&#45;&gt;Node3 -->
<g id="edge3" class="edge"><title>Node4&#45;&gt;Node3</title>
<path fill="none" stroke="#9a32cd" stroke-dasharray="5,2" d="M176.228,-138.421C175.178,-131.581 175.375,-124.036 179,-118 185.969,-106.397 198.55,-98.6516 210.567,-93.6003"/>
<polygon fill="#9a32cd" stroke="#9a32cd" points="172.855,-139.365 178.589,-148.274 179.662,-137.733 172.855,-139.365"/>
<text text-anchor="middle" x="226" y="-121.5" font-family="Helvetica,sans-Serif" font-size="10.00"> myStoredVariables</text>
</g>
<!-- Node5 -->
<g id="node5" class="node"><title>Node5</title>
<polygon fill="white" stroke="#bfbfbf" points="266.5,-148.5 266.5,-167.5 331.5,-167.5 331.5,-148.5 266.5,-148.5"/>
<text text-anchor="middle" x="299" y="-155.5" font-family="Helvetica,sans-Serif" font-size="10.00">Properties</text>
</g>
<!-- Node5&#45;&gt;Node3 -->
<g id="edge4" class="edge"><title>Node5&#45;&gt;Node3</title>
<path fill="none" stroke="#9a32cd" stroke-dasharray="5,2" d="M290.487,-139.199C286.791,-132.271 282.133,-124.462 277,-118 269.723,-108.838 259.83,-99.9643 252.257,-93.7305"/>
<polygon fill="#9a32cd" stroke="#9a32cd" points="287.528,-141.104 295.155,-148.458 293.779,-137.953 287.528,-141.104"/>
<text text-anchor="middle" x="315" y="-121.5" font-family="Helvetica,sans-Serif" font-size="10.00"> myVariables</text>
</g>
</g>
</svg>
