<?xml version="1.0" encoding="UTF-8" standalone="no"?>
<!DOCTYPE svg PUBLIC "-//W3C//DTD SVG 1.1//EN"
 "http://www.w3.org/Graphics/SVG/1.1/DTD/svg11.dtd">
<!-- Generated by graphviz version 2.36.0 (20140111.2315)
 -->
<!-- Title: commands.turtle_commands.SetPositionCommand.execute Pages: 1 -->
<svg width="394pt" height="48pt"
 viewBox="0.00 0.00 394.00 48.00" xmlns="http://www.w3.org/2000/svg" xmlns:xlink="http://www.w3.org/1999/xlink">
<g id="graph0" class="graph" transform="scale(1 1) rotate(0) translate(4 44)">
<title>commands.turtle_commands.SetPositionCommand.execute</title>
<polygon fill="white" stroke="none" points="-4,4 -4,-44 390,-44 390,4 -4,4"/>
<!-- Node1 -->
<g id="node1" class="node"><title>Node1</title>
<polygon fill="#bfbfbf" stroke="black" points="0,-5 0,-35 162,-35 162,-5 0,-5"/>
<text text-anchor="start" x="8" y="-23" font-family="Helvetica,sans-Serif" font-size="10.00">commands.turtle_commands.</text>
<text text-anchor="middle" x="81" y="-12" font-family="Helvetica,sans-Serif" font-size="10.00">SetPositionCommand.execute</text>
</g>
<!-- Node2 -->
<g id="node2" class="node"><title>Node2</title>
<g id="a_node2"><a xlink:href="../../d2/df1/classcommands_1_1turtle__commands_1_1_set_position_command.html#a3b86ee87ea44f3075f71a98f001b86a5" target="_top" xlink:title="commands.turtle_commands.\lSetPositionCommand.executeTurtle\lCommand">
<polygon fill="white" stroke="black" points="198,0.5 198,-40.5 386,-40.5 386,0.5 198,0.5"/>
<text text-anchor="start" x="206" y="-28.5" font-family="Helvetica,sans-Serif" font-size="10.00">commands.turtle_commands.</text>
<text text-anchor="start" x="206" y="-17.5" font-family="Helvetica,sans-Serif" font-size="10.00">SetPositionCommand.executeTurtle</text>
<text text-anchor="middle" x="292" y="-6.5" font-family="Helvetica,sans-Serif" font-size="10.00">Command</text>
</a>
</g>
</g>
<!-- Node1&#45;&gt;Node2 -->
<g id="edge1" class="edge"><title>Node1&#45;&gt;Node2</title>
<path fill="none" stroke="midnightblue" d="M172.381,-13.3051C180.785,-13.2392 189.312,-13.2324 197.741,-13.2848"/>
<polygon fill="midnightblue" stroke="midnightblue" points="172.169,-9.80705 162.207,-13.4148 172.244,-16.8066 172.169,-9.80705"/>
</g>
<!-- Node2&#45;&gt;Node1 -->
<g id="edge2" class="edge"><title>Node2&#45;&gt;Node1</title>
<path fill="none" stroke="midnightblue" d="M187.705,-26.7496C179.14,-26.7553 170.564,-26.7005 162.207,-26.5852"/>
<polygon fill="midnightblue" stroke="midnightblue" points="187.753,-30.2496 197.741,-26.7152 187.729,-23.2496 187.753,-30.2496"/>
</g>
</g>
</svg>
