<?xml version="1.0" encoding="UTF-8" standalone="no"?>
<!DOCTYPE svg PUBLIC "-//W3C//DTD SVG 1.1//EN"
 "http://www.w3.org/Graphics/SVG/1.1/DTD/svg11.dtd">
<!-- Generated by graphviz version 2.36.0 (20140111.2315)
 -->
<!-- Title: commands.turtle_commands.SetPositionCommand.executeTurtleCommand Pages: 1 -->
<svg width="394pt" height="48pt"
 viewBox="0.00 0.00 394.00 48.00" xmlns="http://www.w3.org/2000/svg" xmlns:xlink="http://www.w3.org/1999/xlink">
<g id="graph0" class="graph" transform="scale(1 1) rotate(0) translate(4 44)">
<title>commands.turtle_commands.SetPositionCommand.executeTurtleCommand</title>
<polygon fill="white" stroke="none" points="-4,4 -4,-44 390,-44 390,4 -4,4"/>
<!-- Node1 -->
<g id="node1" class="node"><title>Node1</title>
<polygon fill="#bfbfbf" stroke="black" points="0,0.5 0,-40.5 188,-40.5 188,0.5 0,0.5"/>
<text text-anchor="start" x="8" y="-28.5" font-family="Helvetica,sans-Serif" font-size="10.00">commands.turtle_commands.</text>
<text text-anchor="start" x="8" y="-17.5" font-family="Helvetica,sans-Serif" font-size="10.00">SetPositionCommand.executeTurtle</text>
<text text-anchor="middle" x="94" y="-6.5" font-family="Helvetica,sans-Serif" font-size="10.00">Command</text>
</g>
<!-- Node2 -->
<g id="node2" class="node"><title>Node2</title>
<g id="a_node2"><a xlink:href="../../d2/df1/classcommands_1_1turtle__commands_1_1_set_position_command.html#acd67ddeed20e6efb4f0a5c71f3e0ad41" target="_top" xlink:title="commands.turtle_commands.\lSetPositionCommand.execute">
<polygon fill="white" stroke="black" points="224,-5 224,-35 386,-35 386,-5 224,-5"/>
<text text-anchor="start" x="232" y="-23" font-family="Helvetica,sans-Serif" font-size="10.00">commands.turtle_commands.</text>
<text text-anchor="middle" x="305" y="-12" font-family="Helvetica,sans-Serif" font-size="10.00">SetPositionCommand.execute</text>
</a>
</g>
</g>
<!-- Node1&#45;&gt;Node2 -->
<g id="edge1" class="edge"><title>Node1&#45;&gt;Node2</title>
<path fill="none" stroke="midnightblue" d="M198.236,-13.2504C206.808,-13.2445 215.392,-13.2991 223.756,-13.4143"/>
<polygon fill="midnightblue" stroke="midnightblue" points="198.18,-9.75051 188.192,-13.2853 198.204,-16.7505 198.18,-9.75051"/>
</g>
<!-- Node2&#45;&gt;Node1 -->
<g id="edge2" class="edge"><title>Node2&#45;&gt;Node1</title>
<path fill="none" stroke="midnightblue" d="M213.573,-26.6953C205.162,-26.761 196.627,-26.7675 188.192,-26.7147"/>
<polygon fill="midnightblue" stroke="midnightblue" points="213.794,-30.1932 223.756,-26.5857 213.719,-23.1936 213.794,-30.1932"/>
</g>
</g>
</svg>
