<?xml version="1.0" encoding="UTF-8" standalone="no"?>
<!DOCTYPE svg PUBLIC "-//W3C//DTD SVG 1.1//EN"
 "http://www.w3.org/Graphics/SVG/1.1/DTD/svg11.dtd">
<!-- Generated by graphviz version 2.36.0 (20140111.2315)
 -->
<!-- Title: commands.onechild.NaturalLogCommand.toString Pages: 1 -->
<svg width="578pt" height="61pt"
 viewBox="0.00 0.00 578.00 61.00" xmlns="http://www.w3.org/2000/svg" xmlns:xlink="http://www.w3.org/1999/xlink">
<g id="graph0" class="graph" transform="scale(1 1) rotate(0) translate(4 57)">
<title>commands.onechild.NaturalLogCommand.toString</title>
<polygon fill="white" stroke="none" points="-4,4 -4,-57 574,-57 574,4 -4,4"/>
<!-- Node1 -->
<g id="node1" class="node"><title>Node1</title>
<polygon fill="#bfbfbf" stroke="black" points="0,-1 0,-31 152,-31 152,-1 0,-1"/>
<text text-anchor="start" x="8" y="-19" font-family="Helvetica,sans-Serif" font-size="10.00">commands.onechild.Natural</text>
<text text-anchor="middle" x="76" y="-8" font-family="Helvetica,sans-Serif" font-size="10.00">LogCommand.toString</text>
</g>
<!-- Node2 -->
<g id="node2" class="node"><title>Node2</title>
<g id="a_node2"><a xlink:href="../../dc/d9d/classcommands_1_1onechild_1_1_natural_log_command.html#a3520a1eae864117cff5e6f2372cf3000" target="_top" xlink:title="commands.onechild.Natural\lLogCommand.execute">
<polygon fill="white" stroke="black" points="188,-23 188,-53 340,-53 340,-23 188,-23"/>
<text text-anchor="start" x="196" y="-41" font-family="Helvetica,sans-Serif" font-size="10.00">commands.onechild.Natural</text>
<text text-anchor="middle" x="264" y="-30" font-family="Helvetica,sans-Serif" font-size="10.00">LogCommand.execute</text>
</a>
</g>
</g>
<!-- Node1&#45;&gt;Node2 -->
<g id="edge1" class="edge"><title>Node1&#45;&gt;Node2</title>
<path fill="none" stroke="midnightblue" d="M152.117,-24.8848C160.596,-25.8877 169.281,-26.9149 177.875,-27.9314"/>
<polygon fill="midnightblue" stroke="midnightblue" points="177.563,-31.4188 187.905,-29.1178 178.385,-24.4673 177.563,-31.4188"/>
</g>
<!-- Node3 -->
<g id="node3" class="node"><title>Node3</title>
<g id="a_node3"><a xlink:href="../../d5/d62/classcommands_1_1templates_1_1_command.html#ae48716b79da0af7e6815fbe6fc113075" target="_top" xlink:title="commands.templates.Command.get\lMyChildren">
<polygon fill="white" stroke="black" points="376,-1 376,-31 570,-31 570,-1 376,-1"/>
<text text-anchor="start" x="384" y="-19" font-family="Helvetica,sans-Serif" font-size="10.00">commands.templates.Command.get</text>
<text text-anchor="middle" x="473" y="-8" font-family="Helvetica,sans-Serif" font-size="10.00">MyChildren</text>
</a>
</g>
</g>
<!-- Node1&#45;&gt;Node3 -->
<g id="edge3" class="edge"><title>Node1&#45;&gt;Node3</title>
<path fill="none" stroke="midnightblue" d="M152.23,-14.4613C164.195,-14.2694 176.436,-14.1042 188,-14 255.553,-13.3915 272.446,-13.4883 340,-14 348.319,-14.063 356.932,-14.1484 365.589,-14.2485"/>
<polygon fill="midnightblue" stroke="midnightblue" points="365.715,-17.7502 375.757,-14.3723 365.801,-10.7507 365.715,-17.7502"/>
</g>
<!-- Node2&#45;&gt;Node3 -->
<g id="edge2" class="edge"><title>Node2&#45;&gt;Node3</title>
<path fill="none" stroke="midnightblue" d="M340.024,-30.0264C348.424,-29.1337 357.094,-28.2122 365.79,-27.288"/>
<polygon fill="midnightblue" stroke="midnightblue" points="366.422,-30.7407 375.996,-26.2033 365.682,-23.7799 366.422,-30.7407"/>
</g>
</g>
</svg>
