<?xml version="1.0" encoding="UTF-8" standalone="no"?>
<!DOCTYPE svg PUBLIC "-//W3C//DTD SVG 1.1//EN"
 "http://www.w3.org/Graphics/SVG/1.1/DTD/svg11.dtd">
<!-- Generated by graphviz version 2.36.0 (20140111.2315)
 -->
<!-- Title: commands.twochildren.PowerCommand.toString Pages: 1 -->
<svg width="594pt" height="61pt"
 viewBox="0.00 0.00 594.00 61.00" xmlns="http://www.w3.org/2000/svg" xmlns:xlink="http://www.w3.org/1999/xlink">
<g id="graph0" class="graph" transform="scale(1 1) rotate(0) translate(4 57)">
<title>commands.twochildren.PowerCommand.toString</title>
<polygon fill="white" stroke="none" points="-4,4 -4,-57 590,-57 590,4 -4,4"/>
<!-- Node1 -->
<g id="node1" class="node"><title>Node1</title>
<polygon fill="#bfbfbf" stroke="black" points="0.5,-1 0.5,-31 159.5,-31 159.5,-1 0.5,-1"/>
<text text-anchor="start" x="8.5" y="-19" font-family="Helvetica,sans-Serif" font-size="10.00">commands.twochildren.Power</text>
<text text-anchor="middle" x="80" y="-8" font-family="Helvetica,sans-Serif" font-size="10.00">Command.toString</text>
</g>
<!-- Node2 -->
<g id="node2" class="node"><title>Node2</title>
<g id="a_node2"><a xlink:href="../../d5/d38/classcommands_1_1twochildren_1_1_power_command.html#a61010f20dd6f96e8aa13bd62752198bb" target="_top" xlink:title="commands.twochildren.Power\lCommand.execute">
<polygon fill="white" stroke="black" points="196.5,-23 196.5,-53 355.5,-53 355.5,-23 196.5,-23"/>
<text text-anchor="start" x="204.5" y="-41" font-family="Helvetica,sans-Serif" font-size="10.00">commands.twochildren.Power</text>
<text text-anchor="middle" x="276" y="-30" font-family="Helvetica,sans-Serif" font-size="10.00">Command.execute</text>
</a>
</g>
</g>
<!-- Node1&#45;&gt;Node2 -->
<g id="edge1" class="edge"><title>Node1&#45;&gt;Node2</title>
<path fill="none" stroke="midnightblue" d="M159.628,-24.9165C168.403,-25.9117 177.388,-26.9306 186.278,-27.9388"/>
<polygon fill="midnightblue" stroke="midnightblue" points="185.93,-31.4216 196.26,-29.0708 186.719,-24.4662 185.93,-31.4216"/>
</g>
<!-- Node3 -->
<g id="node3" class="node"><title>Node3</title>
<g id="a_node3"><a xlink:href="../../d5/d62/classcommands_1_1templates_1_1_command.html#ae48716b79da0af7e6815fbe6fc113075" target="_top" xlink:title="commands.templates.Command.get\lMyChildren">
<polygon fill="white" stroke="black" points="392,-1 392,-31 586,-31 586,-1 392,-1"/>
<text text-anchor="start" x="400" y="-19" font-family="Helvetica,sans-Serif" font-size="10.00">commands.templates.Command.get</text>
<text text-anchor="middle" x="489" y="-8" font-family="Helvetica,sans-Serif" font-size="10.00">MyChildren</text>
</a>
</g>
</g>
<!-- Node1&#45;&gt;Node3 -->
<g id="edge3" class="edge"><title>Node1&#45;&gt;Node3</title>
<path fill="none" stroke="midnightblue" d="M159.561,-14.4517C171.76,-14.2639 184.219,-14.1024 196,-14 267.108,-13.3817 284.891,-13.4613 356,-14 364.319,-14.063 372.932,-14.1484 381.589,-14.2485"/>
<polygon fill="midnightblue" stroke="midnightblue" points="381.715,-17.7502 391.757,-14.3723 381.801,-10.7507 381.715,-17.7502"/>
</g>
<!-- Node2&#45;&gt;Node3 -->
<g id="edge2" class="edge"><title>Node2&#45;&gt;Node3</title>
<path fill="none" stroke="midnightblue" d="M355.569,-29.808C364.167,-28.9115 373.021,-27.9884 381.88,-27.0646"/>
<polygon fill="midnightblue" stroke="midnightblue" points="382.289,-30.541 391.873,-26.0228 381.563,-23.5788 382.289,-30.541"/>
</g>
</g>
</svg>
