<?xml version="1.0" encoding="UTF-8" standalone="no"?>
<!DOCTYPE svg PUBLIC "-//W3C//DTD SVG 1.1//EN"
 "http://www.w3.org/Graphics/SVG/1.1/DTD/svg11.dtd">
<!-- Generated by graphviz version 2.36.0 (20140111.2315)
 -->
<!-- Title: commands.variable_commands.UserDefinedCommand Pages: 1 -->
<svg width="1052pt" height="184pt"
 viewBox="0.00 0.00 1052.00 184.00" xmlns="http://www.w3.org/2000/svg" xmlns:xlink="http://www.w3.org/1999/xlink">
<g id="graph0" class="graph" transform="scale(1 1) rotate(0) translate(4 180)">
<title>commands.variable_commands.UserDefinedCommand</title>
<polygon fill="white" stroke="none" points="-4,4 -4,-180 1048,-180 1048,4 -4,4"/>
<!-- Node1 -->
<g id="node1" class="node"><title>Node1</title>
<polygon fill="#bfbfbf" stroke="black" points="870.5,-79 870.5,-109 1043.5,-109 1043.5,-79 870.5,-79"/>
<text text-anchor="start" x="878.5" y="-97" font-family="Helvetica,sans-Serif" font-size="10.00">commands.variable_commands.</text>
<text text-anchor="middle" x="957" y="-86" font-family="Helvetica,sans-Serif" font-size="10.00">UserDefinedCommand</text>
</g>
<!-- Node2 -->
<g id="node2" class="node"><title>Node2</title>
<g id="a_node2"><a xlink:href="../../d5/d62/classcommands_1_1templates_1_1_command.html" target="_top" xlink:title="commands.templates.Command">
<polygon fill="white" stroke="black" points="536,-133.5 536,-152.5 712,-152.5 712,-133.5 536,-133.5"/>
<text text-anchor="middle" x="624" y="-140.5" font-family="Helvetica,sans-Serif" font-size="10.00">commands.templates.Command</text>
</a>
</g>
</g>
<!-- Node2&#45;&gt;Node1 -->
<g id="edge1" class="edge"><title>Node2&#45;&gt;Node1</title>
<path fill="none" stroke="midnightblue" d="M722.292,-149.545C762.812,-150.147 810.092,-148.064 852,-139 879.497,-133.053 908.726,-119.709 929.171,-109.087"/>
<polygon fill="midnightblue" stroke="midnightblue" points="722.213,-146.043 712.144,-149.337 722.07,-153.042 722.213,-146.043"/>
</g>
<!-- Node2&#45;&gt;Node1 -->
<g id="edge7" class="edge"><title>Node2&#45;&gt;Node1</title>
<path fill="none" stroke="#9a32cd" stroke-dasharray="5,2" d="M692.368,-131.89C704.872,-129.885 717.827,-127.847 730,-126 776.329,-118.97 828.079,-111.607 870.356,-105.719"/>
<polygon fill="#9a32cd" stroke="#9a32cd" points="691.777,-128.44 682.461,-133.486 692.89,-135.351 691.777,-128.44"/>
<text text-anchor="middle" x="791" y="-129" font-family="Helvetica,sans-Serif" font-size="10.00"> myCommandsToExecute</text>
</g>
<!-- Node3 -->
<g id="node3" class="node"><title>Node3</title>
<polygon fill="white" stroke="#bfbfbf" points="246.5,-146 246.5,-176 399.5,-176 399.5,-146 246.5,-146"/>
<text text-anchor="start" x="254.5" y="-164" font-family="Helvetica,sans-Serif" font-size="10.00">List&lt; commands.templates.</text>
<text text-anchor="middle" x="323" y="-153" font-family="Helvetica,sans-Serif" font-size="10.00">Command &gt;</text>
</g>
<!-- Node3&#45;&gt;Node2 -->
<g id="edge2" class="edge"><title>Node3&#45;&gt;Node2</title>
<path fill="none" stroke="#9a32cd" stroke-dasharray="5,2" d="M409.975,-155.824C449.467,-153.447 496.225,-150.632 535.858,-148.246"/>
<polygon fill="#9a32cd" stroke="#9a32cd" points="409.608,-152.34 399.837,-156.435 410.029,-159.327 409.608,-152.34"/>
<text text-anchor="middle" x="468" y="-158" font-family="Helvetica,sans-Serif" font-size="10.00"> myChildren</text>
</g>
<!-- Node4 -->
<g id="node4" class="node"><title>Node4</title>
<g id="a_node4"><a xlink:href="../../d8/d6a/classback_end_1_1_variable_manager.html" target="_top" xlink:title="backEnd.VariableManager">
<polygon fill="white" stroke="black" points="253,-96.5 253,-115.5 393,-115.5 393,-96.5 253,-96.5"/>
<text text-anchor="middle" x="323" y="-103.5" font-family="Helvetica,sans-Serif" font-size="10.00">backEnd.VariableManager</text>
</a>
</g>
</g>
<!-- Node4&#45;&gt;Node1 -->
<g id="edge9" class="edge"><title>Node4&#45;&gt;Node1</title>
<path fill="none" stroke="#9a32cd" stroke-dasharray="5,2" d="M403.297,-104.494C522.592,-102.229 747.321,-97.9623 870.278,-95.6276"/>
<polygon fill="#9a32cd" stroke="#9a32cd" points="403.072,-100.998 393.14,-104.687 403.205,-107.997 403.072,-100.998"/>
<text text-anchor="middle" x="624" y="-105" font-family="Helvetica,sans-Serif" font-size="10.00"> myVariableManager</text>
</g>
<!-- Node4&#45;&gt;Node2 -->
<g id="edge3" class="edge"><title>Node4&#45;&gt;Node2</title>
<path fill="none" stroke="#9a32cd" stroke-dasharray="5,2" d="M403.472,-115.834C447.657,-121.302 502.387,-128.075 546.146,-133.49"/>
<polygon fill="#9a32cd" stroke="#9a32cd" points="403.702,-112.336 393.348,-114.582 402.843,-119.283 403.702,-112.336"/>
<text text-anchor="middle" x="468" y="-133" font-family="Helvetica,sans-Serif" font-size="10.00"> myVariableManager</text>
</g>
<!-- Node5 -->
<g id="node5" class="node"><title>Node5</title>
<polygon fill="white" stroke="#bfbfbf" points="0.5,-115.5 0.5,-134.5 115.5,-134.5 115.5,-115.5 0.5,-115.5"/>
<text text-anchor="middle" x="58" y="-122.5" font-family="Helvetica,sans-Serif" font-size="10.00">Stack&lt; Properties &gt;</text>
</g>
<!-- Node5&#45;&gt;Node4 -->
<g id="edge4" class="edge"><title>Node5&#45;&gt;Node4</title>
<path fill="none" stroke="#9a32cd" stroke-dasharray="5,2" d="M125.896,-120.167C164.71,-117.363 213.517,-113.837 252.729,-111.004"/>
<polygon fill="#9a32cd" stroke="#9a32cd" points="125.465,-116.689 115.743,-120.901 125.97,-123.671 125.465,-116.689"/>
<text text-anchor="middle" x="181" y="-123" font-family="Helvetica,sans-Serif" font-size="10.00"> myStoredVariables</text>
</g>
<!-- Node6 -->
<g id="node6" class="node"><title>Node6</title>
<polygon fill="white" stroke="#bfbfbf" points="25.5,-77.5 25.5,-96.5 90.5,-96.5 90.5,-77.5 25.5,-77.5"/>
<text text-anchor="middle" x="58" y="-84.5" font-family="Helvetica,sans-Serif" font-size="10.00">Properties</text>
</g>
<!-- Node6&#45;&gt;Node4 -->
<g id="edge5" class="edge"><title>Node6&#45;&gt;Node4</title>
<path fill="none" stroke="#9a32cd" stroke-dasharray="5,2" d="M100.869,-89.9327C135.07,-92.338 184.664,-95.8479 228,-99 236.079,-99.5877 244.548,-100.21 252.955,-100.831"/>
<polygon fill="#9a32cd" stroke="#9a32cd" points="100.994,-86.4329 90.7732,-89.2233 100.503,-93.4157 100.994,-86.4329"/>
<text text-anchor="middle" x="181" y="-102" font-family="Helvetica,sans-Serif" font-size="10.00"> myVariables</text>
</g>
<!-- Node7 -->
<g id="node7" class="node"><title>Node7</title>
<polygon fill="white" stroke="#bfbfbf" points="582,-38.5 582,-57.5 666,-57.5 666,-38.5 582,-38.5"/>
<text text-anchor="middle" x="624" y="-45.5" font-family="Helvetica,sans-Serif" font-size="10.00">List&lt; String &gt;</text>
</g>
<!-- Node7&#45;&gt;Node1 -->
<g id="edge6" class="edge"><title>Node7&#45;&gt;Node1</title>
<path fill="none" stroke="#9a32cd" stroke-dasharray="5,2" d="M676.298,-50.6369C722.483,-53.5107 792.103,-59.0831 852,-69 867.664,-71.5934 884.466,-75.2432 899.898,-78.9544"/>
<polygon fill="#9a32cd" stroke="#9a32cd" points="676.428,-47.1385 666.235,-50.0305 676.007,-54.1258 676.428,-47.1385"/>
<text text-anchor="middle" x="791" y="-72" font-family="Helvetica,sans-Serif" font-size="10.00"> myVariables</text>
</g>
<!-- Node8 -->
<g id="node8" class="node"><title>Node8</title>
<polygon fill="white" stroke="#bfbfbf" points="563,-0.5 563,-19.5 685,-19.5 685,-0.5 563,-0.5"/>
<text text-anchor="middle" x="624" y="-7.5" font-family="Helvetica,sans-Serif" font-size="10.00">Map&lt; String, String &gt;</text>
</g>
<!-- Node8&#45;&gt;Node1 -->
<g id="edge8" class="edge"><title>Node8&#45;&gt;Node1</title>
<path fill="none" stroke="#9a32cd" stroke-dasharray="5,2" d="M695.091,-12.9797C740.661,-16.4372 800.888,-23.8999 852,-40 881.301,-49.2296 912.219,-66.3586 932.652,-78.857"/>
<polygon fill="#9a32cd" stroke="#9a32cd" points="695.237,-9.48128 685.013,-12.2619 694.74,-16.4636 695.237,-9.48128"/>
<text text-anchor="middle" x="791" y="-43" font-family="Helvetica,sans-Serif" font-size="10.00"> myLocalVariables</text>
</g>
</g>
</svg>
