<?xml version="1.0" encoding="UTF-8" standalone="no"?>
<!DOCTYPE svg PUBLIC "-//W3C//DTD SVG 1.1//EN"
 "http://www.w3.org/Graphics/SVG/1.1/DTD/svg11.dtd">
<!-- Generated by graphviz version 2.36.0 (20140111.2315)
 -->
<!-- Title: backEnd.turtle.TurtlePoint.set Pages: 1 -->
<svg width="934pt" height="115pt"
 viewBox="0.00 0.00 934.00 115.00" xmlns="http://www.w3.org/2000/svg" xmlns:xlink="http://www.w3.org/1999/xlink">
<g id="graph0" class="graph" transform="scale(1 1) rotate(0) translate(4 111)">
<title>backEnd.turtle.TurtlePoint.set</title>
<polygon fill="white" stroke="none" points="-4,4 -4,-111 930,-111 930,4 -4,4"/>
<!-- Node1 -->
<g id="node1" class="node"><title>Node1</title>
<polygon fill="#bfbfbf" stroke="black" points="0,-49.5 0,-68.5 156,-68.5 156,-49.5 0,-49.5"/>
<text text-anchor="middle" x="78" y="-56.5" font-family="Helvetica,sans-Serif" font-size="10.00">backEnd.turtle.TurtlePoint.set</text>
</g>
<!-- Node2 -->
<g id="node2" class="node"><title>Node2</title>
<g id="a_node2"><a xlink:href="../../d8/d32/classback_end_1_1turtle_1_1_turtle.html#a322f7d829dde97bbc3a2a861d55c5081" target="_top" xlink:title="backEnd.turtle.Turtle.goHome">
<polygon fill="white" stroke="black" points="192,-87.5 192,-106.5 350,-106.5 350,-87.5 192,-87.5"/>
<text text-anchor="middle" x="271" y="-94.5" font-family="Helvetica,sans-Serif" font-size="10.00">backEnd.turtle.Turtle.goHome</text>
</a>
</g>
</g>
<!-- Node1&#45;&gt;Node2 -->
<g id="edge1" class="edge"><title>Node1&#45;&gt;Node2</title>
<path fill="none" stroke="midnightblue" d="M137.353,-70.6095C164.518,-76.014 196.432,-82.3635 222.149,-87.4799"/>
<polygon fill="midnightblue" stroke="midnightblue" points="137.688,-67.1076 127.197,-68.589 136.322,-73.9731 137.688,-67.1076"/>
</g>
<!-- Node3 -->
<g id="node3" class="node"><title>Node3</title>
<g id="a_node3"><a xlink:href="../../d8/d32/classback_end_1_1turtle_1_1_turtle.html#aafc10d34dfebde162d704b064ee4eb09" target="_top" xlink:title="backEnd.turtle.Turtle.goTo">
<polygon fill="white" stroke="black" points="201.5,-49.5 201.5,-68.5 340.5,-68.5 340.5,-49.5 201.5,-49.5"/>
<text text-anchor="middle" x="271" y="-56.5" font-family="Helvetica,sans-Serif" font-size="10.00">backEnd.turtle.Turtle.goTo</text>
</a>
</g>
</g>
<!-- Node1&#45;&gt;Node3 -->
<g id="edge2" class="edge"><title>Node1&#45;&gt;Node3</title>
<path fill="none" stroke="midnightblue" d="M166.348,-59C178.036,-59 189.888,-59 201.196,-59"/>
<polygon fill="midnightblue" stroke="midnightblue" points="166.136,-55.5001 156.136,-59 166.136,-62.5001 166.136,-55.5001"/>
</g>
<!-- Node4 -->
<g id="node4" class="node"><title>Node4</title>
<g id="a_node4"><a xlink:href="../../d8/d32/classback_end_1_1turtle_1_1_turtle.html#a39c7f943510ef25a95dd13e465e1ea09" target="_top" xlink:title="backEnd.turtle.Turtle.set\lPosition">
<polygon fill="white" stroke="black" points="205,-0 205,-30 337,-30 337,-0 205,-0"/>
<text text-anchor="start" x="213" y="-18" font-family="Helvetica,sans-Serif" font-size="10.00">backEnd.turtle.Turtle.set</text>
<text text-anchor="middle" x="271" y="-7" font-family="Helvetica,sans-Serif" font-size="10.00">Position</text>
</a>
</g>
</g>
<!-- Node1&#45;&gt;Node4 -->
<g id="edge3" class="edge"><title>Node1&#45;&gt;Node4</title>
<path fill="none" stroke="midnightblue" d="M130.325,-47.1764C153.282,-41.8878 180.608,-35.593 204.976,-29.9794"/>
<polygon fill="midnightblue" stroke="midnightblue" points="129.403,-43.797 120.444,-49.4527 130.975,-50.6184 129.403,-43.797"/>
</g>
<!-- Node5 -->
<g id="node5" class="node"><title>Node5</title>
<g id="a_node5"><a xlink:href="../../d8/d32/classback_end_1_1turtle_1_1_turtle.html#a4be1100fd698e6701dd14a9660d891f0" target="_top" xlink:title="backEnd.turtle.Turtle.toroidal\lMovement">
<polygon fill="white" stroke="black" points="386.5,-0 386.5,-30 539.5,-30 539.5,-0 386.5,-0"/>
<text text-anchor="start" x="394.5" y="-18" font-family="Helvetica,sans-Serif" font-size="10.00">backEnd.turtle.Turtle.toroidal</text>
<text text-anchor="middle" x="463" y="-7" font-family="Helvetica,sans-Serif" font-size="10.00">Movement</text>
</a>
</g>
</g>
<!-- Node4&#45;&gt;Node5 -->
<g id="edge4" class="edge"><title>Node4&#45;&gt;Node5</title>
<path fill="none" stroke="midnightblue" d="M347.329,-15C360.216,-15 373.608,-15 386.5,-15"/>
<polygon fill="midnightblue" stroke="midnightblue" points="347.121,-11.5001 337.121,-15 347.121,-18.5001 347.121,-11.5001"/>
</g>
<!-- Node6 -->
<g id="node6" class="node"><title>Node6</title>
<g id="a_node6"><a xlink:href="../../d8/d32/classback_end_1_1turtle_1_1_turtle.html#a52ebe2b7a75e91579e282a4061d5b421" target="_top" xlink:title="backEnd.turtle.Turtle.movement\lHelper">
<polygon fill="white" stroke="black" points="576,-0 576,-30 746,-30 746,-0 576,-0"/>
<text text-anchor="start" x="584" y="-18" font-family="Helvetica,sans-Serif" font-size="10.00">backEnd.turtle.Turtle.movement</text>
<text text-anchor="middle" x="661" y="-7" font-family="Helvetica,sans-Serif" font-size="10.00">Helper</text>
</a>
</g>
</g>
<!-- Node5&#45;&gt;Node6 -->
<g id="edge5" class="edge"><title>Node5&#45;&gt;Node6</title>
<path fill="none" stroke="midnightblue" d="M549.869,-15C558.528,-15 567.316,-15 575.957,-15"/>
<polygon fill="midnightblue" stroke="midnightblue" points="549.779,-11.5001 539.779,-15 549.779,-18.5001 549.779,-11.5001"/>
</g>
<!-- Node7 -->
<g id="node7" class="node"><title>Node7</title>
<g id="a_node7"><a xlink:href="../../d8/d32/classback_end_1_1turtle_1_1_turtle.html#a5a93690c08c2a024ea6eaf75293f7111" target="_top" xlink:title="backEnd.turtle.Turtle.move\lTurtle">
<polygon fill="white" stroke="black" points="782,-0 782,-30 926,-30 926,-0 782,-0"/>
<text text-anchor="start" x="790" y="-18" font-family="Helvetica,sans-Serif" font-size="10.00">backEnd.turtle.Turtle.move</text>
<text text-anchor="middle" x="854" y="-7" font-family="Helvetica,sans-Serif" font-size="10.00">Turtle</text>
</a>
</g>
</g>
<!-- Node6&#45;&gt;Node7 -->
<g id="edge6" class="edge"><title>Node6&#45;&gt;Node7</title>
<path fill="none" stroke="midnightblue" d="M756.143,-15C764.758,-15 773.387,-15 781.751,-15"/>
<polygon fill="midnightblue" stroke="midnightblue" points="756.053,-11.5001 746.053,-15 756.053,-18.5001 756.053,-11.5001"/>
</g>
</g>
</svg>
