<?xml version="1.0" encoding="UTF-8" standalone="no"?>
<!DOCTYPE svg PUBLIC "-//W3C//DTD SVG 1.1//EN"
 "http://www.w3.org/Graphics/SVG/1.1/DTD/svg11.dtd">
<!-- Generated by graphviz version 2.36.0 (20140111.2315)
 -->
<!-- Title: backEnd.turtle.TurtlePoint.getY Pages: 1 -->
<svg width="774pt" height="241pt"
 viewBox="0.00 0.00 774.00 241.00" xmlns="http://www.w3.org/2000/svg" xmlns:xlink="http://www.w3.org/1999/xlink">
<g id="graph0" class="graph" transform="scale(1 1) rotate(0) translate(4 237)">
<title>backEnd.turtle.TurtlePoint.getY</title>
<polygon fill="white" stroke="none" points="-4,4 -4,-237 770,-237 770,4 -4,4"/>
<!-- Node1 -->
<g id="node1" class="node"><title>Node1</title>
<polygon fill="#bfbfbf" stroke="black" points="0,-115.5 0,-134.5 162,-134.5 162,-115.5 0,-115.5"/>
<text text-anchor="middle" x="81" y="-122.5" font-family="Helvetica,sans-Serif" font-size="10.00">backEnd.turtle.TurtlePoint.getY</text>
</g>
<!-- Node2 -->
<g id="node2" class="node"><title>Node2</title>
<g id="a_node2"><a xlink:href="../../de/d6c/classback_end_1_1turtle_1_1_turtle_point.html#a11df6da92a893391b9fbdd11ed06d143" target="_top" xlink:title="backEnd.turtle.TurtlePoint.distance">
<polygon fill="white" stroke="black" points="198,-213.5 198,-232.5 380,-232.5 380,-213.5 198,-213.5"/>
<text text-anchor="middle" x="289" y="-220.5" font-family="Helvetica,sans-Serif" font-size="10.00">backEnd.turtle.TurtlePoint.distance</text>
</a>
</g>
</g>
<!-- Node1&#45;&gt;Node2 -->
<g id="edge1" class="edge"><title>Node1&#45;&gt;Node2</title>
<path fill="none" stroke="midnightblue" d="M100.798,-141.268C122.677,-159.337 160.602,-188.057 198,-204 207.108,-207.883 217.083,-210.999 226.971,-213.493"/>
<polygon fill="midnightblue" stroke="midnightblue" points="102.88,-138.446 92.9728,-134.69 98.3757,-143.804 102.88,-138.446"/>
</g>
<!-- Node3 -->
<g id="node3" class="node"><title>Node3</title>
<g id="a_node3"><a xlink:href="../../d8/d32/classback_end_1_1turtle_1_1_turtle.html#a510121fd47d3f5cd7ffe115fa266b447" target="_top" xlink:title="backEnd.turtle.Turtle.getMyY">
<polygon fill="white" stroke="black" points="213,-175.5 213,-194.5 365,-194.5 365,-175.5 213,-175.5"/>
<text text-anchor="middle" x="289" y="-182.5" font-family="Helvetica,sans-Serif" font-size="10.00">backEnd.turtle.Turtle.getMyY</text>
</a>
</g>
</g>
<!-- Node1&#45;&gt;Node3 -->
<g id="edge2" class="edge"><title>Node1&#45;&gt;Node3</title>
<path fill="none" stroke="midnightblue" d="M115.75,-138.256C138.696,-146.938 169.877,-158.098 198,-166 210.453,-169.499 224.036,-172.686 236.787,-175.408"/>
<polygon fill="midnightblue" stroke="midnightblue" points="116.732,-134.884 106.142,-134.583 114.233,-141.423 116.732,-134.884"/>
</g>
<!-- Node4 -->
<g id="node4" class="node"><title>Node4</title>
<g id="a_node4"><a xlink:href="../../de/d6c/classback_end_1_1turtle_1_1_turtle_point.html#ae0fca5256cb9f55c435077efdae54eb1" target="_top" xlink:title="backEnd.turtle.TurtlePoint.set">
<polygon fill="white" stroke="black" points="211,-137.5 211,-156.5 367,-156.5 367,-137.5 211,-137.5"/>
<text text-anchor="middle" x="289" y="-144.5" font-family="Helvetica,sans-Serif" font-size="10.00">backEnd.turtle.TurtlePoint.set</text>
</a>
</g>
</g>
<!-- Node1&#45;&gt;Node4 -->
<g id="edge3" class="edge"><title>Node1&#45;&gt;Node4</title>
<path fill="none" stroke="midnightblue" d="M172.402,-134.655C185.168,-136.018 198.196,-137.409 210.686,-138.743"/>
<polygon fill="midnightblue" stroke="midnightblue" points="172.55,-131.151 162.235,-133.569 171.807,-138.111 172.55,-131.151"/>
</g>
<!-- Node5 -->
<g id="node5" class="node"><title>Node5</title>
<g id="a_node5"><a xlink:href="../../d8/d32/classback_end_1_1turtle_1_1_turtle.html#a4be1100fd698e6701dd14a9660d891f0" target="_top" xlink:title="backEnd.turtle.Turtle.toroidal\lMovement">
<polygon fill="white" stroke="black" points="212.5,-88 212.5,-118 365.5,-118 365.5,-88 212.5,-88"/>
<text text-anchor="start" x="220.5" y="-106" font-family="Helvetica,sans-Serif" font-size="10.00">backEnd.turtle.Turtle.toroidal</text>
<text text-anchor="middle" x="289" y="-95" font-family="Helvetica,sans-Serif" font-size="10.00">Movement</text>
</a>
</g>
</g>
<!-- Node1&#45;&gt;Node5 -->
<g id="edge4" class="edge"><title>Node1&#45;&gt;Node5</title>
<path fill="none" stroke="midnightblue" d="M172.372,-115.349C185.722,-113.923 199.358,-112.467 212.367,-111.077"/>
<polygon fill="midnightblue" stroke="midnightblue" points="171.807,-111.889 162.235,-116.431 172.55,-118.849 171.807,-111.889"/>
</g>
<!-- Node8 -->
<g id="node8" class="node"><title>Node8</title>
<g id="a_node8"><a xlink:href="../../d8/d32/classback_end_1_1turtle_1_1_turtle.html#a4547aed4983f4ef942df0e3376fc11b3" target="_top" xlink:title="backEnd.turtle.Turtle.turn\lTowards">
<polygon fill="white" stroke="black" points="220.5,-39 220.5,-69 357.5,-69 357.5,-39 220.5,-39"/>
<text text-anchor="start" x="228.5" y="-57" font-family="Helvetica,sans-Serif" font-size="10.00">backEnd.turtle.Turtle.turn</text>
<text text-anchor="middle" x="289" y="-46" font-family="Helvetica,sans-Serif" font-size="10.00">Towards</text>
</a>
</g>
</g>
<!-- Node1&#45;&gt;Node8 -->
<g id="edge7" class="edge"><title>Node1&#45;&gt;Node8</title>
<path fill="none" stroke="midnightblue" d="M113.297,-111.538C136.453,-101.836 168.891,-88.7837 198,-79 208.299,-75.5385 219.372,-72.1765 230.108,-69.0989"/>
<polygon fill="midnightblue" stroke="midnightblue" points="111.83,-108.358 103.978,-115.471 114.552,-114.807 111.83,-108.358"/>
</g>
<!-- Node9 -->
<g id="node9" class="node"><title>Node9</title>
<g id="a_node9"><a xlink:href="../../d8/d32/classback_end_1_1turtle_1_1_turtle.html#a97c9503ec5b46e9b31a5d6255c7bb900" target="_top" xlink:title="backEnd.turtle.Turtle.Turtle">
<polygon fill="white" stroke="black" points="217.5,-0.5 217.5,-19.5 360.5,-19.5 360.5,-0.5 217.5,-0.5"/>
<text text-anchor="middle" x="289" y="-7.5" font-family="Helvetica,sans-Serif" font-size="10.00">backEnd.turtle.Turtle.Turtle</text>
</a>
</g>
</g>
<!-- Node1&#45;&gt;Node9 -->
<g id="edge8" class="edge"><title>Node1&#45;&gt;Node9</title>
<path fill="none" stroke="midnightblue" d="M97.6146,-108.022C118.405,-86.4863 157.311,-49.7771 198,-30 206.925,-25.6617 216.806,-22.2517 226.657,-19.5748"/>
<polygon fill="midnightblue" stroke="midnightblue" points="94.9006,-105.798 90.5674,-115.466 99.984,-110.61 94.9006,-105.798"/>
</g>
<!-- Node6 -->
<g id="node6" class="node"><title>Node6</title>
<g id="a_node6"><a xlink:href="../../d8/d32/classback_end_1_1turtle_1_1_turtle.html#a52ebe2b7a75e91579e282a4061d5b421" target="_top" xlink:title="backEnd.turtle.Turtle.movement\lHelper">
<polygon fill="white" stroke="black" points="416,-88 416,-118 586,-118 586,-88 416,-88"/>
<text text-anchor="start" x="424" y="-106" font-family="Helvetica,sans-Serif" font-size="10.00">backEnd.turtle.Turtle.movement</text>
<text text-anchor="middle" x="501" y="-95" font-family="Helvetica,sans-Serif" font-size="10.00">Helper</text>
</a>
</g>
</g>
<!-- Node5&#45;&gt;Node6 -->
<g id="edge5" class="edge"><title>Node5&#45;&gt;Node6</title>
<path fill="none" stroke="midnightblue" d="M375.592,-103C388.894,-103 402.627,-103 415.896,-103"/>
<polygon fill="midnightblue" stroke="midnightblue" points="375.518,-99.5001 365.518,-103 375.518,-106.5 375.518,-99.5001"/>
</g>
<!-- Node7 -->
<g id="node7" class="node"><title>Node7</title>
<g id="a_node7"><a xlink:href="../../d8/d32/classback_end_1_1turtle_1_1_turtle.html#a5a93690c08c2a024ea6eaf75293f7111" target="_top" xlink:title="backEnd.turtle.Turtle.move\lTurtle">
<polygon fill="white" stroke="black" points="622,-88 622,-118 766,-118 766,-88 622,-88"/>
<text text-anchor="start" x="630" y="-106" font-family="Helvetica,sans-Serif" font-size="10.00">backEnd.turtle.Turtle.move</text>
<text text-anchor="middle" x="694" y="-95" font-family="Helvetica,sans-Serif" font-size="10.00">Turtle</text>
</a>
</g>
</g>
<!-- Node6&#45;&gt;Node7 -->
<g id="edge6" class="edge"><title>Node6&#45;&gt;Node7</title>
<path fill="none" stroke="midnightblue" d="M596.143,-103C604.758,-103 613.387,-103 621.751,-103"/>
<polygon fill="midnightblue" stroke="midnightblue" points="596.053,-99.5001 586.053,-103 596.053,-106.5 596.053,-99.5001"/>
</g>
</g>
</svg>
