<?xml version="1.0" encoding="UTF-8" standalone="no"?>
<!DOCTYPE svg PUBLIC "-//W3C//DTD SVG 1.1//EN"
 "http://www.w3.org/Graphics/SVG/1.1/DTD/svg11.dtd">
<!-- Generated by graphviz version 2.36.0 (20140111.2315)
 -->
<!-- Title: backEnd.turtle.TurtlePoint.getBindableX Pages: 1 -->
<svg width="744pt" height="38pt"
 viewBox="0.00 0.00 744.00 38.00" xmlns="http://www.w3.org/2000/svg" xmlns:xlink="http://www.w3.org/1999/xlink">
<g id="graph0" class="graph" transform="scale(1 1) rotate(0) translate(4 34)">
<title>backEnd.turtle.TurtlePoint.getBindableX</title>
<polygon fill="white" stroke="none" points="-4,4 -4,-34 740,-34 740,4 -4,4"/>
<!-- Node1 -->
<g id="node1" class="node"><title>Node1</title>
<polygon fill="#bfbfbf" stroke="black" points="0.5,-0 0.5,-30 157.5,-30 157.5,-0 0.5,-0"/>
<text text-anchor="start" x="8.5" y="-18" font-family="Helvetica,sans-Serif" font-size="10.00">backEnd.turtle.TurtlePoint.get</text>
<text text-anchor="middle" x="79" y="-7" font-family="Helvetica,sans-Serif" font-size="10.00">BindableX</text>
</g>
<!-- Node2 -->
<g id="node2" class="node"><title>Node2</title>
<g id="a_node2"><a xlink:href="../../dd/d98/classback_end_1_1turtle_1_1_turtle_properties.html#aa8cf92a7f1534967d3e1a597b4d91b1b" target="_top" xlink:title="backEnd.turtle.TurtleProperties.get\lXPosition">
<polygon fill="white" stroke="black" points="194,-0 194,-30 376,-30 376,-0 194,-0"/>
<text text-anchor="start" x="202" y="-18" font-family="Helvetica,sans-Serif" font-size="10.00">backEnd.turtle.TurtleProperties.get</text>
<text text-anchor="middle" x="285" y="-7" font-family="Helvetica,sans-Serif" font-size="10.00">XPosition</text>
</a>
</g>
</g>
<!-- Node1&#45;&gt;Node2 -->
<g id="edge1" class="edge"><title>Node1&#45;&gt;Node2</title>
<path fill="none" stroke="midnightblue" d="M167.776,-15C176.421,-15 185.206,-15 193.874,-15"/>
<polygon fill="midnightblue" stroke="midnightblue" points="167.706,-11.5001 157.706,-15 167.706,-18.5001 167.706,-11.5001"/>
</g>
<!-- Node3 -->
<g id="node3" class="node"><title>Node3</title>
<g id="a_node3"><a xlink:href="../../dc/dcd/classfront_end_1_1_turtle_view.html#a786dafb4fc29738c24e51c8e2d5ef1e8" target="_top" xlink:title="frontEnd.TurtleView.bind\lProperties">
<polygon fill="white" stroke="black" points="412,-0 412,-30 542,-30 542,-0 412,-0"/>
<text text-anchor="start" x="420" y="-18" font-family="Helvetica,sans-Serif" font-size="10.00">frontEnd.TurtleView.bind</text>
<text text-anchor="middle" x="477" y="-7" font-family="Helvetica,sans-Serif" font-size="10.00">Properties</text>
</a>
</g>
</g>
<!-- Node2&#45;&gt;Node3 -->
<g id="edge2" class="edge"><title>Node2&#45;&gt;Node3</title>
<path fill="none" stroke="midnightblue" d="M386.456,-15C395.124,-15 403.732,-15 411.988,-15"/>
<polygon fill="midnightblue" stroke="midnightblue" points="386.27,-11.5001 376.27,-15 386.27,-18.5001 386.27,-11.5001"/>
</g>
<!-- Node4 -->
<g id="node4" class="node"><title>Node4</title>
<g id="a_node4"><a xlink:href="../../dc/dcd/classfront_end_1_1_turtle_view.html#a68db2241e0b2e23e1894492f87975e1b" target="_top" xlink:title="frontEnd.TurtleView.TurtleView">
<polygon fill="white" stroke="black" points="578.5,-5.5 578.5,-24.5 735.5,-24.5 735.5,-5.5 578.5,-5.5"/>
<text text-anchor="middle" x="657" y="-12.5" font-family="Helvetica,sans-Serif" font-size="10.00">frontEnd.TurtleView.TurtleView</text>
</a>
</g>
</g>
<!-- Node3&#45;&gt;Node4 -->
<g id="edge3" class="edge"><title>Node3&#45;&gt;Node4</title>
<path fill="none" stroke="midnightblue" d="M552.064,-15C560.721,-15 569.573,-15 578.278,-15"/>
<polygon fill="midnightblue" stroke="midnightblue" points="552.011,-11.5001 542.011,-15 552.011,-18.5001 552.011,-11.5001"/>
</g>
</g>
</svg>
