<?xml version="1.0" encoding="UTF-8" standalone="no"?>
<!DOCTYPE svg PUBLIC "-//W3C//DTD SVG 1.1//EN"
 "http://www.w3.org/Graphics/SVG/1.1/DTD/svg11.dtd">
<!-- Generated by graphviz version 2.36.0 (20140111.2315)
 -->
<!-- Title: backEnd.turtle.TurtlePoint.set Pages: 1 -->
<svg width="364pt" height="66pt"
 viewBox="0.00 0.00 364.00 66.00" xmlns="http://www.w3.org/2000/svg" xmlns:xlink="http://www.w3.org/1999/xlink">
<g id="graph0" class="graph" transform="scale(1 1) rotate(0) translate(4 62)">
<title>backEnd.turtle.TurtlePoint.set</title>
<polygon fill="white" stroke="none" points="-4,4 -4,-62 360,-62 360,4 -4,4"/>
<!-- Node1 -->
<g id="node1" class="node"><title>Node1</title>
<polygon fill="#bfbfbf" stroke="black" points="0,-19.5 0,-38.5 156,-38.5 156,-19.5 0,-19.5"/>
<text text-anchor="middle" x="78" y="-26.5" font-family="Helvetica,sans-Serif" font-size="10.00">backEnd.turtle.TurtlePoint.set</text>
</g>
<!-- Node2 -->
<g id="node2" class="node"><title>Node2</title>
<g id="a_node2"><a xlink:href="../../de/d6c/classback_end_1_1turtle_1_1_turtle_point.html#aeeb9ec0f75154354c67b92cf9486fff6" target="_top" xlink:title="backEnd.turtle.TurtlePoint.getX">
<polygon fill="white" stroke="black" points="192.5,-38.5 192.5,-57.5 355.5,-57.5 355.5,-38.5 192.5,-38.5"/>
<text text-anchor="middle" x="274" y="-45.5" font-family="Helvetica,sans-Serif" font-size="10.00">backEnd.turtle.TurtlePoint.getX</text>
</a>
</g>
</g>
<!-- Node1&#45;&gt;Node2 -->
<g id="edge1" class="edge"><title>Node1&#45;&gt;Node2</title>
<path fill="none" stroke="midnightblue" d="M156.231,-36.5639C164.737,-37.397 173.455,-38.2508 182.108,-39.0982"/>
<polygon fill="midnightblue" stroke="midnightblue" points="181.925,-42.597 192.219,-40.0885 182.608,-35.6303 181.925,-42.597"/>
</g>
<!-- Node3 -->
<g id="node3" class="node"><title>Node3</title>
<g id="a_node3"><a xlink:href="../../de/d6c/classback_end_1_1turtle_1_1_turtle_point.html#ae14b87fea2bc327ead4d0277aa9fc63d" target="_top" xlink:title="backEnd.turtle.TurtlePoint.getY">
<polygon fill="white" stroke="black" points="193,-0.5 193,-19.5 355,-19.5 355,-0.5 193,-0.5"/>
<text text-anchor="middle" x="274" y="-7.5" font-family="Helvetica,sans-Serif" font-size="10.00">backEnd.turtle.TurtlePoint.getY</text>
</a>
</g>
</g>
<!-- Node1&#45;&gt;Node3 -->
<g id="edge2" class="edge"><title>Node1&#45;&gt;Node3</title>
<path fill="none" stroke="midnightblue" d="M156.231,-21.4361C164.983,-20.5789 173.96,-19.6998 182.858,-18.8283"/>
<polygon fill="midnightblue" stroke="midnightblue" points="183.245,-22.3072 192.857,-17.8491 182.563,-15.3406 183.245,-22.3072"/>
</g>
</g>
</svg>
