<?xml version="1.0" encoding="UTF-8" standalone="no"?>
<!DOCTYPE svg PUBLIC "-//W3C//DTD SVG 1.1//EN"
 "http://www.w3.org/Graphics/SVG/1.1/DTD/svg11.dtd">
<!-- Generated by graphviz version 2.36.0 (20140111.2315)
 -->
<!-- Title: backEnd.turtle.TurtlePoint.distance Pages: 1 -->
<svg width="384pt" height="66pt"
 viewBox="0.00 0.00 384.00 66.00" xmlns="http://www.w3.org/2000/svg" xmlns:xlink="http://www.w3.org/1999/xlink">
<g id="graph0" class="graph" transform="scale(1 1) rotate(0) translate(4 62)">
<title>backEnd.turtle.TurtlePoint.distance</title>
<polygon fill="white" stroke="none" points="-4,4 -4,-62 380,-62 380,4 -4,4"/>
<!-- Node1 -->
<g id="node1" class="node"><title>Node1</title>
<polygon fill="#bfbfbf" stroke="black" points="0,-19.5 0,-38.5 182,-38.5 182,-19.5 0,-19.5"/>
<text text-anchor="middle" x="91" y="-26.5" font-family="Helvetica,sans-Serif" font-size="10.00">backEnd.turtle.TurtlePoint.distance</text>
</g>
<!-- Node2 -->
<g id="node2" class="node"><title>Node2</title>
<g id="a_node2"><a xlink:href="../../d8/d32/classback_end_1_1turtle_1_1_turtle.html#a322f7d829dde97bbc3a2a861d55c5081" target="_top" xlink:title="backEnd.turtle.Turtle.goHome">
<polygon fill="white" stroke="black" points="218,-38.5 218,-57.5 376,-57.5 376,-38.5 218,-38.5"/>
<text text-anchor="middle" x="297" y="-45.5" font-family="Helvetica,sans-Serif" font-size="10.00">backEnd.turtle.Turtle.goHome</text>
</a>
</g>
</g>
<!-- Node1&#45;&gt;Node2 -->
<g id="edge1" class="edge"><title>Node1&#45;&gt;Node2</title>
<path fill="none" stroke="midnightblue" d="M192.195,-38.3319C200.839,-39.137 209.5,-39.9437 217.93,-40.7288"/>
<polygon fill="midnightblue" stroke="midnightblue" points="192.353,-34.8315 182.071,-37.389 191.703,-41.8013 192.353,-34.8315"/>
</g>
<!-- Node3 -->
<g id="node3" class="node"><title>Node3</title>
<g id="a_node3"><a xlink:href="../../d8/d32/classback_end_1_1turtle_1_1_turtle.html#aafc10d34dfebde162d704b064ee4eb09" target="_top" xlink:title="backEnd.turtle.Turtle.goTo">
<polygon fill="white" stroke="black" points="227.5,-0.5 227.5,-19.5 366.5,-19.5 366.5,-0.5 227.5,-0.5"/>
<text text-anchor="middle" x="297" y="-7.5" font-family="Helvetica,sans-Serif" font-size="10.00">backEnd.turtle.Turtle.goTo</text>
</a>
</g>
</g>
<!-- Node1&#45;&gt;Node3 -->
<g id="edge2" class="edge"><title>Node1&#45;&gt;Node3</title>
<path fill="none" stroke="midnightblue" d="M192.055,-19.6812C203.966,-18.5718 215.914,-17.459 227.246,-16.4036"/>
<polygon fill="midnightblue" stroke="midnightblue" points="191.703,-16.1986 182.071,-20.611 192.353,-23.1685 191.703,-16.1986"/>
</g>
</g>
</svg>
