<?xml version="1.0" encoding="UTF-8" standalone="no"?>
<!DOCTYPE svg PUBLIC "-//W3C//DTD SVG 1.1//EN"
 "http://www.w3.org/Graphics/SVG/1.1/DTD/svg11.dtd">
<!-- Generated by graphviz version 2.36.0 (20140111.2315)
 -->
<!-- Title: backEnd.turtle.TurtlePoint.getX Pages: 1 -->
<svg width="776pt" height="241pt"
 viewBox="0.00 0.00 776.00 241.00" xmlns="http://www.w3.org/2000/svg" xmlns:xlink="http://www.w3.org/1999/xlink">
<g id="graph0" class="graph" transform="scale(1 1) rotate(0) translate(4 237)">
<title>backEnd.turtle.TurtlePoint.getX</title>
<polygon fill="white" stroke="none" points="-4,4 -4,-237 772,-237 772,4 -4,4"/>
<!-- Node1 -->
<g id="node1" class="node"><title>Node1</title>
<polygon fill="#bfbfbf" stroke="black" points="0.5,-115.5 0.5,-134.5 163.5,-134.5 163.5,-115.5 0.5,-115.5"/>
<text text-anchor="middle" x="82" y="-122.5" font-family="Helvetica,sans-Serif" font-size="10.00">backEnd.turtle.TurtlePoint.getX</text>
</g>
<!-- Node2 -->
<g id="node2" class="node"><title>Node2</title>
<g id="a_node2"><a xlink:href="../../de/d6c/classback_end_1_1turtle_1_1_turtle_point.html#a11df6da92a893391b9fbdd11ed06d143" target="_top" xlink:title="backEnd.turtle.TurtlePoint.distance">
<polygon fill="white" stroke="black" points="200,-213.5 200,-232.5 382,-232.5 382,-213.5 200,-213.5"/>
<text text-anchor="middle" x="291" y="-220.5" font-family="Helvetica,sans-Serif" font-size="10.00">backEnd.turtle.TurtlePoint.distance</text>
</a>
</g>
</g>
<!-- Node1&#45;&gt;Node2 -->
<g id="edge1" class="edge"><title>Node1&#45;&gt;Node2</title>
<path fill="none" stroke="midnightblue" d="M101.986,-141.261C124.076,-159.324 162.35,-188.038 200,-204 209.116,-207.865 219.095,-210.972 228.985,-213.461"/>
<polygon fill="midnightblue" stroke="midnightblue" points="104.009,-138.392 94.0836,-134.686 99.5319,-143.773 104.009,-138.392"/>
</g>
<!-- Node3 -->
<g id="node3" class="node"><title>Node3</title>
<g id="a_node3"><a xlink:href="../../d8/d32/classback_end_1_1turtle_1_1_turtle.html#adbdee48f83afb1e8e52b0a197a920fb9" target="_top" xlink:title="backEnd.turtle.Turtle.getMyX">
<polygon fill="white" stroke="black" points="215,-175.5 215,-194.5 367,-194.5 367,-175.5 215,-175.5"/>
<text text-anchor="middle" x="291" y="-182.5" font-family="Helvetica,sans-Serif" font-size="10.00">backEnd.turtle.Turtle.getMyX</text>
</a>
</g>
</g>
<!-- Node1&#45;&gt;Node3 -->
<g id="edge2" class="edge"><title>Node1&#45;&gt;Node3</title>
<path fill="none" stroke="midnightblue" d="M116.741,-138.125C139.918,-146.817 171.523,-158.04 200,-166 212.612,-169.525 226.378,-172.741 239.265,-175.485"/>
<polygon fill="midnightblue" stroke="midnightblue" points="117.949,-134.84 107.358,-134.571 115.47,-141.386 117.949,-134.84"/>
</g>
<!-- Node4 -->
<g id="node4" class="node"><title>Node4</title>
<g id="a_node4"><a xlink:href="../../de/d6c/classback_end_1_1turtle_1_1_turtle_point.html#ae0fca5256cb9f55c435077efdae54eb1" target="_top" xlink:title="backEnd.turtle.TurtlePoint.set">
<polygon fill="white" stroke="black" points="213,-137.5 213,-156.5 369,-156.5 369,-137.5 213,-137.5"/>
<text text-anchor="middle" x="291" y="-144.5" font-family="Helvetica,sans-Serif" font-size="10.00">backEnd.turtle.TurtlePoint.set</text>
</a>
</g>
</g>
<!-- Node1&#45;&gt;Node4 -->
<g id="edge3" class="edge"><title>Node1&#45;&gt;Node4</title>
<path fill="none" stroke="midnightblue" d="M173.6,-134.629C186.736,-136.025 200.153,-137.451 212.988,-138.815"/>
<polygon fill="midnightblue" stroke="midnightblue" points="173.938,-131.145 163.624,-133.569 173.198,-138.106 173.938,-131.145"/>
</g>
<!-- Node5 -->
<g id="node5" class="node"><title>Node5</title>
<g id="a_node5"><a xlink:href="../../d8/d32/classback_end_1_1turtle_1_1_turtle.html#a4be1100fd698e6701dd14a9660d891f0" target="_top" xlink:title="backEnd.turtle.Turtle.toroidal\lMovement">
<polygon fill="white" stroke="black" points="214.5,-88 214.5,-118 367.5,-118 367.5,-88 214.5,-88"/>
<text text-anchor="start" x="222.5" y="-106" font-family="Helvetica,sans-Serif" font-size="10.00">backEnd.turtle.Turtle.toroidal</text>
<text text-anchor="middle" x="291" y="-95" font-family="Helvetica,sans-Serif" font-size="10.00">Movement</text>
</a>
</g>
</g>
<!-- Node1&#45;&gt;Node5 -->
<g id="edge4" class="edge"><title>Node1&#45;&gt;Node5</title>
<path fill="none" stroke="midnightblue" d="M173.881,-115.341C187.388,-113.906 201.186,-112.439 214.337,-111.041"/>
<polygon fill="midnightblue" stroke="midnightblue" points="173.198,-111.894 163.624,-116.431 173.938,-118.855 173.198,-111.894"/>
</g>
<!-- Node8 -->
<g id="node8" class="node"><title>Node8</title>
<g id="a_node8"><a xlink:href="../../d8/d32/classback_end_1_1turtle_1_1_turtle.html#a4547aed4983f4ef942df0e3376fc11b3" target="_top" xlink:title="backEnd.turtle.Turtle.turn\lTowards">
<polygon fill="white" stroke="black" points="222.5,-39 222.5,-69 359.5,-69 359.5,-39 222.5,-39"/>
<text text-anchor="start" x="230.5" y="-57" font-family="Helvetica,sans-Serif" font-size="10.00">backEnd.turtle.Turtle.turn</text>
<text text-anchor="middle" x="291" y="-46" font-family="Helvetica,sans-Serif" font-size="10.00">Towards</text>
</a>
</g>
</g>
<!-- Node1&#45;&gt;Node8 -->
<g id="edge7" class="edge"><title>Node1&#45;&gt;Node8</title>
<path fill="none" stroke="midnightblue" d="M114.578,-111.556C137.939,-101.863 170.659,-88.8136 200,-79 210.304,-75.5536 221.379,-72.1988 232.116,-69.1236"/>
<polygon fill="midnightblue" stroke="midnightblue" points="113.053,-108.399 105.176,-115.485 115.753,-114.858 113.053,-108.399"/>
</g>
<!-- Node9 -->
<g id="node9" class="node"><title>Node9</title>
<g id="a_node9"><a xlink:href="../../d8/d32/classback_end_1_1turtle_1_1_turtle.html#a97c9503ec5b46e9b31a5d6255c7bb900" target="_top" xlink:title="backEnd.turtle.Turtle.Turtle">
<polygon fill="white" stroke="black" points="219.5,-0.5 219.5,-19.5 362.5,-19.5 362.5,-0.5 219.5,-0.5"/>
<text text-anchor="middle" x="291" y="-7.5" font-family="Helvetica,sans-Serif" font-size="10.00">backEnd.turtle.Turtle.Turtle</text>
</a>
</g>
</g>
<!-- Node1&#45;&gt;Node9 -->
<g id="edge8" class="edge"><title>Node1&#45;&gt;Node9</title>
<path fill="none" stroke="midnightblue" d="M98.7797,-108.027C119.782,-86.4968 159.059,-49.7934 200,-30 208.934,-25.6805 218.82,-22.2802 228.672,-19.6072"/>
<polygon fill="midnightblue" stroke="midnightblue" points="96.0438,-105.824 91.6596,-115.469 101.102,-110.663 96.0438,-105.824"/>
</g>
<!-- Node6 -->
<g id="node6" class="node"><title>Node6</title>
<g id="a_node6"><a xlink:href="../../d8/d32/classback_end_1_1turtle_1_1_turtle.html#a52ebe2b7a75e91579e282a4061d5b421" target="_top" xlink:title="backEnd.turtle.Turtle.movement\lHelper">
<polygon fill="white" stroke="black" points="418,-88 418,-118 588,-118 588,-88 418,-88"/>
<text text-anchor="start" x="426" y="-106" font-family="Helvetica,sans-Serif" font-size="10.00">backEnd.turtle.Turtle.movement</text>
<text text-anchor="middle" x="503" y="-95" font-family="Helvetica,sans-Serif" font-size="10.00">Helper</text>
</a>
</g>
</g>
<!-- Node5&#45;&gt;Node6 -->
<g id="edge5" class="edge"><title>Node5&#45;&gt;Node6</title>
<path fill="none" stroke="midnightblue" d="M377.592,-103C390.894,-103 404.627,-103 417.896,-103"/>
<polygon fill="midnightblue" stroke="midnightblue" points="377.518,-99.5001 367.518,-103 377.518,-106.5 377.518,-99.5001"/>
</g>
<!-- Node7 -->
<g id="node7" class="node"><title>Node7</title>
<g id="a_node7"><a xlink:href="../../d8/d32/classback_end_1_1turtle_1_1_turtle.html#a5a93690c08c2a024ea6eaf75293f7111" target="_top" xlink:title="backEnd.turtle.Turtle.move\lTurtle">
<polygon fill="white" stroke="black" points="624,-88 624,-118 768,-118 768,-88 624,-88"/>
<text text-anchor="start" x="632" y="-106" font-family="Helvetica,sans-Serif" font-size="10.00">backEnd.turtle.Turtle.move</text>
<text text-anchor="middle" x="696" y="-95" font-family="Helvetica,sans-Serif" font-size="10.00">Turtle</text>
</a>
</g>
</g>
<!-- Node6&#45;&gt;Node7 -->
<g id="edge6" class="edge"><title>Node6&#45;&gt;Node7</title>
<path fill="none" stroke="midnightblue" d="M598.143,-103C606.758,-103 615.387,-103 623.751,-103"/>
<polygon fill="midnightblue" stroke="midnightblue" points="598.053,-99.5001 588.053,-103 598.053,-106.5 598.053,-99.5001"/>
</g>
</g>
</svg>
