<?xml version="1.0" encoding="UTF-8" standalone="no"?>
<!DOCTYPE svg PUBLIC "-//W3C//DTD SVG 1.1//EN"
 "http://www.w3.org/Graphics/SVG/1.1/DTD/svg11.dtd">
<!-- Generated by graphviz version 2.36.0 (20140111.2315)
 -->
<!-- Title: frontEnd.TurtleView.getImage Pages: 1 -->
<!--zoomable 170 -->
<svg id="main" version="1.1" xmlns="http://www.w3.org/2000/svg" xmlns:xlink="http://www.w3.org/1999/xlink" xml:space="preserve" onload="init(evt)">
<style type="text/css"><![CDATA[
.edge:hover path { stroke: red; }
.edge:hover polygon { stroke: red; fill: red; }
]]></style>
<script type="text/javascript"><![CDATA[
var edges = document.getElementsByTagName('g');
if (edges && edges.length) {
  for (var i=0;i<edges.length;i++) {
    if (edges[i].id.substr(0,4)=='edge') {
      edges[i].setAttribute('class','edge');
    }
  }
}
]]></script>
        <defs>
                <circle id="rim" cx="0" cy="0" r="7"/>
                <circle id="rim2" cx="0" cy="0" r="3.5"/>
                <g id="zoomPlus">
                        <use xlink:href="#rim" fill="#404040">
                                <set attributeName="fill" to="#808080" begin="zoomplus.mouseover" end="zoomplus.mouseout"/>
                        </use>
                        <path d="M-4,0h8M0,-4v8" fill="none" stroke="white" stroke-width="1.5" pointer-events="none"/>
                </g>
                <g id="zoomMin">
                        <use xlink:href="#rim" fill="#404040">
                                <set attributeName="fill" to="#808080" begin="zoomminus.mouseover" end="zoomminus.mouseout"/>
                        </use>
                        <path d="M-4,0h8" fill="none" stroke="white" stroke-width="1.5" pointer-events="none"/>
                </g>
                <g id="dirArrow">
                        <path fill="none" stroke="white" stroke-width="1.5" d="M0,-3.0v7 M-2.5,-0.5L0,-3.0L2.5,-0.5"/>
                </g>
               <g id="resetDef">
                       <use xlink:href="#rim2" fill="#404040">
                               <set attributeName="fill" to="#808080" begin="reset.mouseover" end="reset.mouseout"/>
                       </use>
               </g>
        </defs>

<script type="text/javascript">
var viewWidth = 966;
var viewHeight = 170;
var sectionId = 'dynsection-26';
</script>
<script xlink:href="../../svgpan.js"/>
<svg id="graph" class="graph">
<g id="viewport">
<title>frontEnd.TurtleView.getImage</title>
<polygon fill="white" stroke="none" points="-4,4 -4,-166.286 962,-166.286 962,4 -4,4"/>
<!-- Node1 -->
<g id="node1" class="node"><title>Node1</title>
<polygon fill="#bfbfbf" stroke="black" points="0.5,-79.5 0.5,-98.5 155.5,-98.5 155.5,-79.5 0.5,-79.5"/>
<text text-anchor="middle" x="78" y="-86.5" font-family="Helvetica,sans-Serif" font-size="10.00">frontEnd.TurtleView.getImage</text>
</g>
<!-- Node2 -->
<g id="node2" class="node"><title>Node2</title>
<g id="a_node2"><a xlink:href="../../dc/dcd/classfront_end_1_1_turtle_view.html#a564510328fe07db1b07a46053edecf03" target="_top" xlink:title="frontEnd.TurtleView.draw\lStamp">
<polygon fill="white" stroke="black" points="204,-97 204,-127 336,-127 336,-97 204,-97"/>
<text text-anchor="start" x="212" y="-115" font-family="Helvetica,sans-Serif" font-size="10.00">frontEnd.TurtleView.draw</text>
<text text-anchor="middle" x="270" y="-104" font-family="Helvetica,sans-Serif" font-size="10.00">Stamp</text>
</a>
</g>
</g>
<!-- Node1&#45;&gt;Node2 -->
<g id="edge1" class="edge"><title>Node1&#45;&gt;Node2</title>
<path fill="none" stroke="midnightblue" d="M165.912,-99.521C178.68,-101.067 191.644,-102.636 203.873,-104.116"/>
<polygon fill="midnightblue" stroke="midnightblue" points="166.081,-96.0159 155.733,-98.2887 165.239,-102.965 166.081,-96.0159"/>
</g>
<!-- Node5 -->
<g id="node5" class="node"><title>Node5</title>
<g id="a_node5"><a xlink:href="../../dc/dcd/classfront_end_1_1_turtle_view.html#a68db2241e0b2e23e1894492f87975e1b" target="_top" xlink:title="frontEnd.TurtleView.TurtleView">
<polygon fill="white" stroke="black" points="800.5,-123.5 800.5,-142.5 957.5,-142.5 957.5,-123.5 800.5,-123.5"/>
<text text-anchor="middle" x="879" y="-130.5" font-family="Helvetica,sans-Serif" font-size="10.00">frontEnd.TurtleView.TurtleView</text>
</a>
</g>
</g>
<!-- Node1&#45;&gt;Node5 -->
<g id="edge11" class="edge"><title>Node1&#45;&gt;Node5</title>
<path fill="none" stroke="midnightblue" d="M105.087,-103.289C127.412,-114.663 160.798,-129.685 192,-136 413.499,-180.827 683.527,-157.554 808.453,-142.505"/>
<polygon fill="midnightblue" stroke="midnightblue" points="106.43,-100.042 95.9451,-98.5186 103.192,-106.248 106.43,-100.042"/>
</g>
<!-- Node6 -->
<g id="node6" class="node"><title>Node6</title>
<g id="a_node6"><a xlink:href="../../dc/dcd/classfront_end_1_1_turtle_view.html#a4e435f8e11193456725fa51f7c19ab24" target="_top" xlink:title="frontEnd.TurtleView.setTurtleX">
<polygon fill="white" stroke="black" points="192,-12.5 192,-31.5 348,-31.5 348,-12.5 192,-12.5"/>
<text text-anchor="middle" x="270" y="-19.5" font-family="Helvetica,sans-Serif" font-size="10.00">frontEnd.TurtleView.setTurtleX</text>
</a>
</g>
</g>
<!-- Node1&#45;&gt;Node6 -->
<g id="edge5" class="edge"><title>Node1&#45;&gt;Node6</title>
<path fill="none" stroke="midnightblue" d="M113.409,-75.784C135.728,-67.3176 165.483,-56.2279 192,-47 207.265,-41.6876 224.354,-36.1031 238.548,-31.563"/>
<polygon fill="midnightblue" stroke="midnightblue" points="112.126,-72.5276 104.024,-79.3557 114.615,-79.0699 112.126,-72.5276"/>
</g>
<!-- Node8 -->
<g id="node8" class="node"><title>Node8</title>
<g id="a_node8"><a xlink:href="../../dc/dcd/classfront_end_1_1_turtle_view.html#abac2050f00327a22b1bc5a669f70e2be" target="_top" xlink:title="frontEnd.TurtleView.setTurtleY">
<polygon fill="white" stroke="black" points="192.5,-56.5 192.5,-75.5 347.5,-75.5 347.5,-56.5 192.5,-56.5"/>
<text text-anchor="middle" x="270" y="-63.5" font-family="Helvetica,sans-Serif" font-size="10.00">frontEnd.TurtleView.setTurtleY</text>
</a>
</g>
</g>
<!-- Node1&#45;&gt;Node8 -->
<g id="edge8" class="edge"><title>Node1&#45;&gt;Node8</title>
<path fill="none" stroke="midnightblue" d="M165.692,-78.5057C174.565,-77.4316 183.535,-76.3458 192.29,-75.286"/>
<polygon fill="midnightblue" stroke="midnightblue" points="165.239,-75.0348 155.733,-79.7113 166.081,-81.9841 165.239,-75.0348"/>
</g>
<!-- Node3 -->
<g id="node3" class="node"><title>Node3</title>
<g id="a_node3"><a xlink:href="../../dc/dcd/classfront_end_1_1_turtle_view.html#a76bcc0f7c125450725ace12157f5fa98" target="_top" xlink:title="frontEnd.TurtleView.addStamp\lCountListener">
<polygon fill="white" stroke="black" points="390,-98 390,-128 550,-128 550,-98 390,-98"/>
<text text-anchor="start" x="398" y="-116" font-family="Helvetica,sans-Serif" font-size="10.00">frontEnd.TurtleView.addStamp</text>
<text text-anchor="middle" x="470" y="-105" font-family="Helvetica,sans-Serif" font-size="10.00">CountListener</text>
</a>
</g>
</g>
<!-- Node2&#45;&gt;Node3 -->
<g id="edge2" class="edge"><title>Node2&#45;&gt;Node3</title>
<path fill="none" stroke="midnightblue" d="M346.304,-112.38C360.5,-112.452 375.386,-112.527 389.7,-112.599"/>
<polygon fill="midnightblue" stroke="midnightblue" points="346.124,-108.879 336.107,-112.329 346.089,-115.879 346.124,-108.879"/>
</g>
<!-- Node4 -->
<g id="node4" class="node"><title>Node4</title>
<g id="a_node4"><a xlink:href="../../dc/dcd/classfront_end_1_1_turtle_view.html#a8a128529e6c726fb58825bfa0794b239" target="_top" xlink:title="frontEnd.TurtleView.addListeners">
<polygon fill="white" stroke="black" points="592.5,-77.5 592.5,-96.5 763.5,-96.5 763.5,-77.5 592.5,-77.5"/>
<text text-anchor="middle" x="678" y="-84.5" font-family="Helvetica,sans-Serif" font-size="10.00">frontEnd.TurtleView.addListeners</text>
</a>
</g>
</g>
<!-- Node3&#45;&gt;Node4 -->
<g id="edge3" class="edge"><title>Node3&#45;&gt;Node4</title>
<path fill="none" stroke="midnightblue" d="M560.051,-101.761C573.882,-100.015 588.054,-98.2263 601.545,-96.5234"/>
<polygon fill="midnightblue" stroke="midnightblue" points="559.539,-98.2973 550.056,-103.022 560.415,-105.242 559.539,-98.2973"/>
</g>
<!-- Node4&#45;&gt;Node5 -->
<g id="edge4" class="edge"><title>Node4&#45;&gt;Node5</title>
<path fill="none" stroke="midnightblue" d="M730.188,-98.8324C763.317,-106.49 805.882,-116.329 836.82,-123.481"/>
<polygon fill="midnightblue" stroke="midnightblue" points="730.764,-95.3734 720.233,-96.5312 729.188,-102.194 730.764,-95.3734"/>
</g>
<!-- Node7 -->
<g id="node7" class="node"><title>Node7</title>
<g id="a_node7"><a xlink:href="../../dc/dcd/classfront_end_1_1_turtle_view.html#a9337ced43a44df7b4ee7352a0f812746" target="_top" xlink:title="frontEnd.TurtleView.addXPosition\lListener">
<polygon fill="white" stroke="black" points="384.5,-0 384.5,-30 555.5,-30 555.5,-0 384.5,-0"/>
<text text-anchor="start" x="392.5" y="-18" font-family="Helvetica,sans-Serif" font-size="10.00">frontEnd.TurtleView.addXPosition</text>
<text text-anchor="middle" x="470" y="-7" font-family="Helvetica,sans-Serif" font-size="10.00">Listener</text>
</a>
</g>
</g>
<!-- Node6&#45;&gt;Node7 -->
<g id="edge6" class="edge"><title>Node6&#45;&gt;Node7</title>
<path fill="none" stroke="midnightblue" d="M358.193,-18.9174C366.837,-18.6118 375.602,-18.302 384.22,-17.9973"/>
<polygon fill="midnightblue" stroke="midnightblue" points="357.989,-15.4223 348.119,-19.2736 358.236,-22.418 357.989,-15.4223"/>
</g>
<!-- Node7&#45;&gt;Node4 -->
<g id="edge7" class="edge"><title>Node7&#45;&gt;Node4</title>
<path fill="none" stroke="midnightblue" d="M537.399,-33.0365C543.713,-34.965 549.995,-36.9672 556,-39 591.106,-50.8845 630.891,-67.2412 654.952,-77.4627"/>
<polygon fill="midnightblue" stroke="midnightblue" points="538.072,-29.5845 527.488,-30.073 536.066,-36.2911 538.072,-29.5845"/>
</g>
<!-- Node9 -->
<g id="node9" class="node"><title>Node9</title>
<g id="a_node9"><a xlink:href="../../dc/dcd/classfront_end_1_1_turtle_view.html#a4bf2e008a42ea6ee574a53fe3f137425" target="_top" xlink:title="frontEnd.TurtleView.addYPosition\lListener">
<polygon fill="white" stroke="black" points="385,-49 385,-79 555,-79 555,-49 385,-49"/>
<text text-anchor="start" x="393" y="-67" font-family="Helvetica,sans-Serif" font-size="10.00">frontEnd.TurtleView.addYPosition</text>
<text text-anchor="middle" x="470" y="-56" font-family="Helvetica,sans-Serif" font-size="10.00">Listener</text>
</a>
</g>
</g>
<!-- Node8&#45;&gt;Node9 -->
<g id="edge9" class="edge"><title>Node8&#45;&gt;Node9</title>
<path fill="none" stroke="midnightblue" d="M357.641,-65.1248C366.644,-65.0339 375.785,-64.9416 384.761,-64.8509"/>
<polygon fill="midnightblue" stroke="midnightblue" points="357.516,-61.6258 347.552,-65.2267 357.587,-68.6255 357.516,-61.6258"/>
</g>
<!-- Node9&#45;&gt;Node4 -->
<g id="edge10" class="edge"><title>Node9&#45;&gt;Node4</title>
<path fill="none" stroke="midnightblue" d="M565.192,-74.5166C574.191,-75.5213 583.28,-76.5361 592.182,-77.53"/>
<polygon fill="midnightblue" stroke="midnightblue" points="565.412,-71.0195 555.085,-73.3882 564.635,-77.9762 565.412,-71.0195"/>
</g>
</g>
</svg>
        <g id="navigator" transform="translate(0 0)" fill="#404254">
                <rect fill="#f2f5e9" fill-opacity="0.5" stroke="#606060" stroke-width=".5" x="0" y="0" width="60" height="60"/>
                <use id="zoomplus" xlink:href="#zoomPlus" x="17" y="9" onmousedown="handleZoom(evt,'in')"/>
                <use id="zoomminus" xlink:href="#zoomMin" x="42" y="9" onmousedown="handleZoom(evt,'out')"/>
                <use id="reset" xlink:href="#resetDef" x="30" y="36" onmousedown="handleReset()"/>
                <g id="arrowUp" xlink:href="#dirArrow" transform="translate(30 24)" onmousedown="handlePan(0,-1)">
                  <use xlink:href="#rim" fill="#404040">
                        <set attributeName="fill" to="#808080" begin="arrowUp.mouseover" end="arrowUp.mouseout"/>
                  </use>
                  <path fill="none" stroke="white" stroke-width="1.5" d="M0,-3.0v7 M-2.5,-0.5L0,-3.0L2.5,-0.5"/>
                </g>
                <g id="arrowRight" xlink:href="#dirArrow" transform="rotate(90) translate(36 -43)" onmousedown="handlePan(1,0)">
                  <use xlink:href="#rim" fill="#404040">
                        <set attributeName="fill" to="#808080" begin="arrowRight.mouseover" end="arrowRight.mouseout"/>
                  </use>
                  <path fill="none" stroke="white" stroke-width="1.5" d="M0,-3.0v7 M-2.5,-0.5L0,-3.0L2.5,-0.5"/>
                </g>
                <g id="arrowDown" xlink:href="#dirArrow" transform="rotate(180) translate(-30 -48)" onmousedown="handlePan(0,1)">
                  <use xlink:href="#rim" fill="#404040">
                        <set attributeName="fill" to="#808080" begin="arrowDown.mouseover" end="arrowDown.mouseout"/>
                  </use>
                  <path fill="none" stroke="white" stroke-width="1.5" d="M0,-3.0v7 M-2.5,-0.5L0,-3.0L2.5,-0.5"/>
                </g>
                <g id="arrowLeft" xlink:href="#dirArrow" transform="rotate(270) translate(-36 17)" onmousedown="handlePan(-1,0)">
                  <use xlink:href="#rim" fill="#404040">
                        <set attributeName="fill" to="#808080" begin="arrowLeft.mouseover" end="arrowLeft.mouseout"/>
                  </use>
                  <path fill="none" stroke="white" stroke-width="1.5" d="M0,-3.0v7 M-2.5,-0.5L0,-3.0L2.5,-0.5"/>
                </g>
        </g>
        <svg viewBox="0 0 15 15" width="100%" height="30px" preserveAspectRatio="xMaxYMin meet">
         <g id="arrow_out" transform="scale(0.3 0.3)">
          <a xlink:href="classfront_end_1_1_turtle_view_af43ab74822d93fd8adcef1a11fb1e930_icgraph_org.svg" target="_base">
           <rect id="button" ry="5" rx="5" y="6" x="6" height="38" width="38"
                fill="#f2f5e9" fill-opacity="0.5" stroke="#606060" stroke-width="1.0"/>
           <path id="arrow"
             d="M 11.500037,31.436501 C 11.940474,20.09759 22.043105,11.32322 32.158766,21.979434 L 37.068811,17.246167 C 37.068811,17.246167 37.088388,32 37.088388,32 L 22.160133,31.978069 C 22.160133,31.978069 26.997745,27.140456 26.997745,27.140456 C 18.528582,18.264221 13.291696,25.230495 11.500037,31.436501 z"
             style="fill:#404040;"/>
          </a>
         </g>
        </svg>
</svg>
