<?xml version="1.0" encoding="UTF-8" standalone="no"?>
<!DOCTYPE svg PUBLIC "-//W3C//DTD SVG 1.1//EN"
 "http://www.w3.org/Graphics/SVG/1.1/DTD/svg11.dtd">
<!-- Generated by graphviz version 2.36.0 (20140111.2315)
 -->
<!-- Title: frontEnd.TurtleView.addOrientationListener Pages: 1 -->
<svg width="592pt" height="38pt"
 viewBox="0.00 0.00 592.00 38.00" xmlns="http://www.w3.org/2000/svg" xmlns:xlink="http://www.w3.org/1999/xlink">
<g id="graph0" class="graph" transform="scale(1 1) rotate(0) translate(4 34)">
<title>frontEnd.TurtleView.addOrientationListener</title>
<polygon fill="white" stroke="none" points="-4,4 -4,-34 588,-34 588,4 -4,4"/>
<!-- Node1 -->
<g id="node1" class="node"><title>Node1</title>
<polygon fill="#bfbfbf" stroke="black" points="0.5,-0 0.5,-30 181.5,-30 181.5,-0 0.5,-0"/>
<text text-anchor="start" x="8.5" y="-18" font-family="Helvetica,sans-Serif" font-size="10.00">frontEnd.TurtleView.addOrientation</text>
<text text-anchor="middle" x="91" y="-7" font-family="Helvetica,sans-Serif" font-size="10.00">Listener</text>
</g>
<!-- Node2 -->
<g id="node2" class="node"><title>Node2</title>
<g id="a_node2"><a xlink:href="../../dc/dcd/classfront_end_1_1_turtle_view.html#a8a128529e6c726fb58825bfa0794b239" target="_top" xlink:title="frontEnd.TurtleView.addListeners">
<polygon fill="white" stroke="black" points="218.5,-5.5 218.5,-24.5 389.5,-24.5 389.5,-5.5 218.5,-5.5"/>
<text text-anchor="middle" x="304" y="-12.5" font-family="Helvetica,sans-Serif" font-size="10.00">frontEnd.TurtleView.addListeners</text>
</a>
</g>
</g>
<!-- Node1&#45;&gt;Node2 -->
<g id="edge1" class="edge"><title>Node1&#45;&gt;Node2</title>
<path fill="none" stroke="midnightblue" d="M192.062,-15C200.846,-15 209.68,-15 218.32,-15"/>
<polygon fill="midnightblue" stroke="midnightblue" points="191.789,-11.5001 181.789,-15 191.789,-18.5001 191.789,-11.5001"/>
</g>
<!-- Node3 -->
<g id="node3" class="node"><title>Node3</title>
<g id="a_node3"><a xlink:href="../../dc/dcd/classfront_end_1_1_turtle_view.html#a68db2241e0b2e23e1894492f87975e1b" target="_top" xlink:title="frontEnd.TurtleView.TurtleView">
<polygon fill="white" stroke="black" points="426.5,-5.5 426.5,-24.5 583.5,-24.5 583.5,-5.5 426.5,-5.5"/>
<text text-anchor="middle" x="505" y="-12.5" font-family="Helvetica,sans-Serif" font-size="10.00">frontEnd.TurtleView.TurtleView</text>
</a>
</g>
</g>
<!-- Node2&#45;&gt;Node3 -->
<g id="edge2" class="edge"><title>Node2&#45;&gt;Node3</title>
<path fill="none" stroke="midnightblue" d="M399.714,-15C408.633,-15 417.603,-15 426.336,-15"/>
<polygon fill="midnightblue" stroke="midnightblue" points="399.683,-11.5001 389.682,-15 399.682,-18.5001 399.683,-11.5001"/>
</g>
</g>
</svg>
