<?xml version="1.0" encoding="UTF-8" standalone="no"?>
<!DOCTYPE svg PUBLIC "-//W3C//DTD SVG 1.1//EN"
 "http://www.w3.org/Graphics/SVG/1.1/DTD/svg11.dtd">
<!-- Generated by graphviz version 2.36.0 (20140111.2315)
 -->
<!-- Title: frontEnd.TurtleView.setTurtleY Pages: 1 -->
<svg width="772pt" height="38pt"
 viewBox="0.00 0.00 772.00 38.00" xmlns="http://www.w3.org/2000/svg" xmlns:xlink="http://www.w3.org/1999/xlink">
<g id="graph0" class="graph" transform="scale(1 1) rotate(0) translate(4 34)">
<title>frontEnd.TurtleView.setTurtleY</title>
<polygon fill="white" stroke="none" points="-4,4 -4,-34 768,-34 768,4 -4,4"/>
<!-- Node1 -->
<g id="node1" class="node"><title>Node1</title>
<polygon fill="#bfbfbf" stroke="black" points="0.5,-5.5 0.5,-24.5 155.5,-24.5 155.5,-5.5 0.5,-5.5"/>
<text text-anchor="middle" x="78" y="-12.5" font-family="Helvetica,sans-Serif" font-size="10.00">frontEnd.TurtleView.setTurtleY</text>
</g>
<!-- Node2 -->
<g id="node2" class="node"><title>Node2</title>
<g id="a_node2"><a xlink:href="../../dc/dcd/classfront_end_1_1_turtle_view.html#a4bf2e008a42ea6ee574a53fe3f137425" target="_top" xlink:title="frontEnd.TurtleView.addYPosition\lListener">
<polygon fill="white" stroke="black" points="192,-0 192,-30 362,-30 362,-0 192,-0"/>
<text text-anchor="start" x="200" y="-18" font-family="Helvetica,sans-Serif" font-size="10.00">frontEnd.TurtleView.addYPosition</text>
<text text-anchor="middle" x="277" y="-7" font-family="Helvetica,sans-Serif" font-size="10.00">Listener</text>
</a>
</g>
</g>
<!-- Node1&#45;&gt;Node2 -->
<g id="edge1" class="edge"><title>Node1&#45;&gt;Node2</title>
<path fill="none" stroke="midnightblue" d="M165.846,-15C174.525,-15 183.327,-15 191.977,-15"/>
<polygon fill="midnightblue" stroke="midnightblue" points="165.729,-11.5001 155.729,-15 165.729,-18.5001 165.729,-11.5001"/>
</g>
<!-- Node3 -->
<g id="node3" class="node"><title>Node3</title>
<g id="a_node3"><a xlink:href="../../dc/dcd/classfront_end_1_1_turtle_view.html#a8a128529e6c726fb58825bfa0794b239" target="_top" xlink:title="frontEnd.TurtleView.addListeners">
<polygon fill="white" stroke="black" points="398.5,-5.5 398.5,-24.5 569.5,-24.5 569.5,-5.5 398.5,-5.5"/>
<text text-anchor="middle" x="484" y="-12.5" font-family="Helvetica,sans-Serif" font-size="10.00">frontEnd.TurtleView.addListeners</text>
</a>
</g>
</g>
<!-- Node2&#45;&gt;Node3 -->
<g id="edge2" class="edge"><title>Node2&#45;&gt;Node3</title>
<path fill="none" stroke="midnightblue" d="M372.398,-15C381.069,-15 389.819,-15 398.396,-15"/>
<polygon fill="midnightblue" stroke="midnightblue" points="372.269,-11.5001 362.269,-15 372.269,-18.5001 372.269,-11.5001"/>
</g>
<!-- Node4 -->
<g id="node4" class="node"><title>Node4</title>
<g id="a_node4"><a xlink:href="../../dc/dcd/classfront_end_1_1_turtle_view.html#a68db2241e0b2e23e1894492f87975e1b" target="_top" xlink:title="frontEnd.TurtleView.TurtleView">
<polygon fill="white" stroke="black" points="606.5,-5.5 606.5,-24.5 763.5,-24.5 763.5,-5.5 606.5,-5.5"/>
<text text-anchor="middle" x="685" y="-12.5" font-family="Helvetica,sans-Serif" font-size="10.00">frontEnd.TurtleView.TurtleView</text>
</a>
</g>
</g>
<!-- Node3&#45;&gt;Node4 -->
<g id="edge3" class="edge"><title>Node3&#45;&gt;Node4</title>
<path fill="none" stroke="midnightblue" d="M579.714,-15C588.633,-15 597.603,-15 606.336,-15"/>
<polygon fill="midnightblue" stroke="midnightblue" points="579.683,-11.5001 569.682,-15 579.682,-18.5001 579.683,-11.5001"/>
</g>
</g>
</svg>
