<?xml version="1.0" encoding="UTF-8" standalone="no"?>
<!DOCTYPE svg PUBLIC "-//W3C//DTD SVG 1.1//EN"
 "http://www.w3.org/Graphics/SVG/1.1/DTD/svg11.dtd">
<!-- Generated by graphviz version 2.36.0 (20140111.2315)
 -->
<!-- Title: frontEnd.TurtleView.addStampCountListener Pages: 1 -->
<svg width="570pt" height="38pt"
 viewBox="0.00 0.00 570.00 38.00" xmlns="http://www.w3.org/2000/svg" xmlns:xlink="http://www.w3.org/1999/xlink">
<g id="graph0" class="graph" transform="scale(1 1) rotate(0) translate(4 34)">
<title>frontEnd.TurtleView.addStampCountListener</title>
<polygon fill="white" stroke="none" points="-4,4 -4,-34 566,-34 566,4 -4,4"/>
<!-- Node1 -->
<g id="node1" class="node"><title>Node1</title>
<polygon fill="#bfbfbf" stroke="black" points="0,-0 0,-30 160,-30 160,-0 0,-0"/>
<text text-anchor="start" x="8" y="-18" font-family="Helvetica,sans-Serif" font-size="10.00">frontEnd.TurtleView.addStamp</text>
<text text-anchor="middle" x="80" y="-7" font-family="Helvetica,sans-Serif" font-size="10.00">CountListener</text>
</g>
<!-- Node2 -->
<g id="node2" class="node"><title>Node2</title>
<g id="a_node2"><a xlink:href="../../dc/dcd/classfront_end_1_1_turtle_view.html#a8a128529e6c726fb58825bfa0794b239" target="_top" xlink:title="frontEnd.TurtleView.addListeners">
<polygon fill="white" stroke="black" points="196.5,-5.5 196.5,-24.5 367.5,-24.5 367.5,-5.5 196.5,-5.5"/>
<text text-anchor="middle" x="282" y="-12.5" font-family="Helvetica,sans-Serif" font-size="10.00">frontEnd.TurtleView.addListeners</text>
</a>
</g>
</g>
<!-- Node1&#45;&gt;Node2 -->
<g id="edge1" class="edge"><title>Node1&#45;&gt;Node2</title>
<path fill="none" stroke="midnightblue" d="M170.169,-15C178.85,-15 187.642,-15 196.277,-15"/>
<polygon fill="midnightblue" stroke="midnightblue" points="170.045,-11.5001 160.045,-15 170.045,-18.5001 170.045,-11.5001"/>
</g>
<!-- Node3 -->
<g id="node3" class="node"><title>Node3</title>
<g id="a_node3"><a xlink:href="../../dc/dcd/classfront_end_1_1_turtle_view.html#a68db2241e0b2e23e1894492f87975e1b" target="_top" xlink:title="frontEnd.TurtleView.TurtleView">
<polygon fill="white" stroke="black" points="404.5,-5.5 404.5,-24.5 561.5,-24.5 561.5,-5.5 404.5,-5.5"/>
<text text-anchor="middle" x="483" y="-12.5" font-family="Helvetica,sans-Serif" font-size="10.00">frontEnd.TurtleView.TurtleView</text>
</a>
</g>
</g>
<!-- Node2&#45;&gt;Node3 -->
<g id="edge2" class="edge"><title>Node2&#45;&gt;Node3</title>
<path fill="none" stroke="midnightblue" d="M377.714,-15C386.633,-15 395.603,-15 404.336,-15"/>
<polygon fill="midnightblue" stroke="midnightblue" points="377.683,-11.5001 367.682,-15 377.682,-18.5001 377.683,-11.5001"/>
</g>
</g>
</svg>
