<?xml version="1.0" encoding="UTF-8" standalone="no"?>
<!DOCTYPE svg PUBLIC "-//W3C//DTD SVG 1.1//EN"
 "http://www.w3.org/Graphics/SVG/1.1/DTD/svg11.dtd">
<!-- Generated by graphviz version 2.36.0 (20140111.2315)
 -->
<!-- Title: frontEnd.TurtleView.getImageView Pages: 1 -->
<svg width="712pt" height="38pt"
 viewBox="0.00 0.00 712.00 38.00" xmlns="http://www.w3.org/2000/svg" xmlns:xlink="http://www.w3.org/1999/xlink">
<g id="graph0" class="graph" transform="scale(1 1) rotate(0) translate(4 34)">
<title>frontEnd.TurtleView.getImageView</title>
<polygon fill="white" stroke="none" points="-4,4 -4,-34 708,-34 708,4 -4,4"/>
<!-- Node1 -->
<g id="node1" class="node"><title>Node1</title>
<polygon fill="#bfbfbf" stroke="black" points="0.5,-5.5 0.5,-24.5 177.5,-24.5 177.5,-5.5 0.5,-5.5"/>
<text text-anchor="middle" x="89" y="-12.5" font-family="Helvetica,sans-Serif" font-size="10.00">frontEnd.TurtleView.getImageView</text>
</g>
<!-- Node2 -->
<g id="node2" class="node"><title>Node2</title>
<g id="a_node2"><a xlink:href="../../d5/df1/classfront_end_1_1_turtle_canvas.html#ab32a26b7ece7facda450f287624470db" target="_top" xlink:title="frontEnd.TurtleCanvas.add\lTurtle">
<polygon fill="white" stroke="black" points="214,-0 214,-30 356,-30 356,-0 214,-0"/>
<text text-anchor="start" x="222" y="-18" font-family="Helvetica,sans-Serif" font-size="10.00">frontEnd.TurtleCanvas.add</text>
<text text-anchor="middle" x="285" y="-7" font-family="Helvetica,sans-Serif" font-size="10.00">Turtle</text>
</a>
</g>
</g>
<!-- Node1&#45;&gt;Node2 -->
<g id="edge1" class="edge"><title>Node1&#45;&gt;Node2</title>
<path fill="none" stroke="midnightblue" d="M187.916,-15C196.685,-15 205.444,-15 213.906,-15"/>
<polygon fill="midnightblue" stroke="midnightblue" points="187.635,-11.5001 177.635,-15 187.635,-18.5001 187.635,-11.5001"/>
</g>
<!-- Node3 -->
<g id="node3" class="node"><title>Node3</title>
<g id="a_node3"><a xlink:href="../../d5/df1/classfront_end_1_1_turtle_canvas.html#ad48a6fbb8daf59b2ec1dd97aeeaa8eb7" target="_top" xlink:title="frontEnd.TurtleCanvas.update">
<polygon fill="white" stroke="black" points="392,-5.5 392,-24.5 550,-24.5 550,-5.5 392,-5.5"/>
<text text-anchor="middle" x="471" y="-12.5" font-family="Helvetica,sans-Serif" font-size="10.00">frontEnd.TurtleCanvas.update</text>
</a>
</g>
</g>
<!-- Node2&#45;&gt;Node3 -->
<g id="edge2" class="edge"><title>Node2&#45;&gt;Node3</title>
<path fill="none" stroke="midnightblue" d="M366.321,-15C374.782,-15 383.376,-15 391.812,-15"/>
<polygon fill="midnightblue" stroke="midnightblue" points="366.087,-11.5001 356.087,-15 366.087,-18.5001 366.087,-11.5001"/>
</g>
<!-- Node4 -->
<g id="node4" class="node"><title>Node4</title>
<g id="a_node4"><a xlink:href="../../d8/d1f/classfront_end_1_1_view.html#a8cc3a5b95c95cfcdedbcc27755d62803" target="_top" xlink:title="frontEnd.View.update">
<polygon fill="white" stroke="black" points="586,-5.5 586,-24.5 704,-24.5 704,-5.5 586,-5.5"/>
<text text-anchor="middle" x="645" y="-12.5" font-family="Helvetica,sans-Serif" font-size="10.00">frontEnd.View.update</text>
</a>
</g>
</g>
<!-- Node3&#45;&gt;Node4 -->
<g id="edge3" class="edge"><title>Node3&#45;&gt;Node4</title>
<path fill="none" stroke="midnightblue" d="M560.335,-15C568.974,-15 577.583,-15 585.81,-15"/>
<polygon fill="midnightblue" stroke="midnightblue" points="560.199,-11.5001 550.199,-15 560.199,-18.5001 560.199,-11.5001"/>
</g>
</g>
</svg>
