<?xml version="1.0" encoding="UTF-8" standalone="no"?>
<!DOCTYPE svg PUBLIC "-//W3C//DTD SVG 1.1//EN"
 "http://www.w3.org/Graphics/SVG/1.1/DTD/svg11.dtd">
<!-- Generated by graphviz version 2.36.0 (20140111.2315)
 -->
<!-- Title: frontEnd.TurtleView.getPenLines Pages: 1 -->
<svg width="678pt" height="38pt"
 viewBox="0.00 0.00 678.00 38.00" xmlns="http://www.w3.org/2000/svg" xmlns:xlink="http://www.w3.org/1999/xlink">
<g id="graph0" class="graph" transform="scale(1 1) rotate(0) translate(4 34)">
<title>frontEnd.TurtleView.getPenLines</title>
<polygon fill="white" stroke="none" points="-4,4 -4,-34 674,-34 674,4 -4,4"/>
<!-- Node1 -->
<g id="node1" class="node"><title>Node1</title>
<polygon fill="#bfbfbf" stroke="black" points="0.5,-0 0.5,-30 143.5,-30 143.5,-0 0.5,-0"/>
<text text-anchor="start" x="8.5" y="-18" font-family="Helvetica,sans-Serif" font-size="10.00">frontEnd.TurtleView.getPen</text>
<text text-anchor="middle" x="72" y="-7" font-family="Helvetica,sans-Serif" font-size="10.00">Lines</text>
</g>
<!-- Node2 -->
<g id="node2" class="node"><title>Node2</title>
<g id="a_node2"><a xlink:href="../../d5/df1/classfront_end_1_1_turtle_canvas.html#ab32a26b7ece7facda450f287624470db" target="_top" xlink:title="frontEnd.TurtleCanvas.add\lTurtle">
<polygon fill="white" stroke="black" points="180,-0 180,-30 322,-30 322,-0 180,-0"/>
<text text-anchor="start" x="188" y="-18" font-family="Helvetica,sans-Serif" font-size="10.00">frontEnd.TurtleCanvas.add</text>
<text text-anchor="middle" x="251" y="-7" font-family="Helvetica,sans-Serif" font-size="10.00">Turtle</text>
</a>
</g>
</g>
<!-- Node1&#45;&gt;Node2 -->
<g id="edge1" class="edge"><title>Node1&#45;&gt;Node2</title>
<path fill="none" stroke="midnightblue" d="M153.879,-15C162.591,-15 171.402,-15 179.971,-15"/>
<polygon fill="midnightblue" stroke="midnightblue" points="153.718,-11.5001 143.718,-15 153.718,-18.5001 153.718,-11.5001"/>
</g>
<!-- Node3 -->
<g id="node3" class="node"><title>Node3</title>
<g id="a_node3"><a xlink:href="../../d5/df1/classfront_end_1_1_turtle_canvas.html#ad48a6fbb8daf59b2ec1dd97aeeaa8eb7" target="_top" xlink:title="frontEnd.TurtleCanvas.update">
<polygon fill="white" stroke="black" points="358,-5.5 358,-24.5 516,-24.5 516,-5.5 358,-5.5"/>
<text text-anchor="middle" x="437" y="-12.5" font-family="Helvetica,sans-Serif" font-size="10.00">frontEnd.TurtleCanvas.update</text>
</a>
</g>
</g>
<!-- Node2&#45;&gt;Node3 -->
<g id="edge2" class="edge"><title>Node2&#45;&gt;Node3</title>
<path fill="none" stroke="midnightblue" d="M332.321,-15C340.782,-15 349.376,-15 357.812,-15"/>
<polygon fill="midnightblue" stroke="midnightblue" points="332.087,-11.5001 322.087,-15 332.087,-18.5001 332.087,-11.5001"/>
</g>
<!-- Node4 -->
<g id="node4" class="node"><title>Node4</title>
<g id="a_node4"><a xlink:href="../../d8/d1f/classfront_end_1_1_view.html#a8cc3a5b95c95cfcdedbcc27755d62803" target="_top" xlink:title="frontEnd.View.update">
<polygon fill="white" stroke="black" points="552,-5.5 552,-24.5 670,-24.5 670,-5.5 552,-5.5"/>
<text text-anchor="middle" x="611" y="-12.5" font-family="Helvetica,sans-Serif" font-size="10.00">frontEnd.View.update</text>
</a>
</g>
</g>
<!-- Node3&#45;&gt;Node4 -->
<g id="edge3" class="edge"><title>Node3&#45;&gt;Node4</title>
<path fill="none" stroke="midnightblue" d="M526.335,-15C534.974,-15 543.583,-15 551.81,-15"/>
<polygon fill="midnightblue" stroke="midnightblue" points="526.199,-11.5001 516.199,-15 526.199,-18.5001 526.199,-11.5001"/>
</g>
</g>
</svg>
