<?xml version="1.0" encoding="UTF-8" standalone="no"?>
<!DOCTYPE svg PUBLIC "-//W3C//DTD SVG 1.1//EN"
 "http://www.w3.org/Graphics/SVG/1.1/DTD/svg11.dtd">
<!-- Generated by graphviz version 2.36.0 (20140111.2315)
 -->
<!-- Title: frontEnd.TurtleView.addListeners Pages: 1 -->
<!--zoomable 448 -->
<svg id="main" version="1.1" xmlns="http://www.w3.org/2000/svg" xmlns:xlink="http://www.w3.org/1999/xlink" xml:space="preserve" onload="init(evt)">
<style type="text/css"><![CDATA[
.edge:hover path { stroke: red; }
.edge:hover polygon { stroke: red; fill: red; }
]]></style>
<script type="text/javascript"><![CDATA[
var edges = document.getElementsByTagName('g');
if (edges && edges.length) {
  for (var i=0;i<edges.length;i++) {
    if (edges[i].id.substr(0,4)=='edge') {
      edges[i].setAttribute('class','edge');
    }
  }
}
]]></script>
        <defs>
                <circle id="rim" cx="0" cy="0" r="7"/>
                <circle id="rim2" cx="0" cy="0" r="3.5"/>
                <g id="zoomPlus">
                        <use xlink:href="#rim" fill="#404040">
                                <set attributeName="fill" to="#808080" begin="zoomplus.mouseover" end="zoomplus.mouseout"/>
                        </use>
                        <path d="M-4,0h8M0,-4v8" fill="none" stroke="white" stroke-width="1.5" pointer-events="none"/>
                </g>
                <g id="zoomMin">
                        <use xlink:href="#rim" fill="#404040">
                                <set attributeName="fill" to="#808080" begin="zoomminus.mouseover" end="zoomminus.mouseout"/>
                        </use>
                        <path d="M-4,0h8" fill="none" stroke="white" stroke-width="1.5" pointer-events="none"/>
                </g>
                <g id="dirArrow">
                        <path fill="none" stroke="white" stroke-width="1.5" d="M0,-3.0v7 M-2.5,-0.5L0,-3.0L2.5,-0.5"/>
                </g>
               <g id="resetDef">
                       <use xlink:href="#rim2" fill="#404040">
                               <set attributeName="fill" to="#808080" begin="reset.mouseover" end="reset.mouseout"/>
                       </use>
               </g>
        </defs>

<script type="text/javascript">
var viewWidth = 782;
var viewHeight = 448;
var sectionId = 'dynsection-4';
</script>
<script xlink:href="../../svgpan.js"/>
<svg id="graph" class="graph">
<g id="viewport">
<title>frontEnd.TurtleView.addListeners</title>
<polygon fill="white" stroke="none" points="-4,4 -4,-444 778,-444 778,4 -4,4"/>
<!-- Node1 -->
<g id="node1" class="node"><title>Node1</title>
<polygon fill="#bfbfbf" stroke="black" points="0.5,-219.5 0.5,-238.5 171.5,-238.5 171.5,-219.5 0.5,-219.5"/>
<text text-anchor="middle" x="86" y="-226.5" font-family="Helvetica,sans-Serif" font-size="10.00">frontEnd.TurtleView.addListeners</text>
</g>
<!-- Node2 -->
<g id="node2" class="node"><title>Node2</title>
<g id="a_node2"><a xlink:href="../../dc/dcd/classfront_end_1_1_turtle_view.html#a91ed67452c1a31ed4d0229e602219ae3" target="_top" xlink:title="frontEnd.TurtleView.addActivity\lListener">
<polygon fill="white" stroke="black" points="218,-410 218,-440 380,-440 380,-410 218,-410"/>
<text text-anchor="start" x="226" y="-428" font-family="Helvetica,sans-Serif" font-size="10.00">frontEnd.TurtleView.addActivity</text>
<text text-anchor="middle" x="299" y="-417" font-family="Helvetica,sans-Serif" font-size="10.00">Listener</text>
</a>
</g>
</g>
<!-- Node1&#45;&gt;Node2 -->
<g id="edge1" class="edge"><title>Node1&#45;&gt;Node2</title>
<path fill="none" stroke="midnightblue" d="M91.0837,-238.901C103.734,-268.313 145.234,-355.854 208,-400 210.719,-401.913 213.58,-403.679 216.542,-405.311"/>
<polygon fill="midnightblue" stroke="midnightblue" points="215.176,-408.539 225.694,-409.812 218.265,-402.258 215.176,-408.539"/>
</g>
<!-- Node3 -->
<g id="node3" class="node"><title>Node3</title>
<g id="a_node3"><a xlink:href="../../dc/dcd/classfront_end_1_1_turtle_view.html#a053e7ad190616a1840cfd30c991a0d0b" target="_top" xlink:title="frontEnd.TurtleView.addLines\lClearedListener">
<polygon fill="white" stroke="black" points="223,-361 223,-391 375,-391 375,-361 223,-361"/>
<text text-anchor="start" x="231" y="-379" font-family="Helvetica,sans-Serif" font-size="10.00">frontEnd.TurtleView.addLines</text>
<text text-anchor="middle" x="299" y="-368" font-family="Helvetica,sans-Serif" font-size="10.00">ClearedListener</text>
</a>
</g>
</g>
<!-- Node1&#45;&gt;Node3 -->
<g id="edge2" class="edge"><title>Node1&#45;&gt;Node3</title>
<path fill="none" stroke="midnightblue" d="M93.6938,-238.584C110.284,-261.605 155.758,-320.374 208,-351 211.699,-353.168 215.593,-355.155 219.604,-356.975"/>
<polygon fill="midnightblue" stroke="midnightblue" points="218.556,-360.33 229.135,-360.926 221.237,-353.864 218.556,-360.33"/>
</g>
<!-- Node4 -->
<g id="node4" class="node"><title>Node4</title>
<g id="a_node4"><a xlink:href="../../dc/dcd/classfront_end_1_1_turtle_view.html#ae6b18a38136749fe91a54e12cd97bb07" target="_top" xlink:title="frontEnd.TurtleView.addOrientation\lListener">
<polygon fill="white" stroke="black" points="208.5,-312 208.5,-342 389.5,-342 389.5,-312 208.5,-312"/>
<text text-anchor="start" x="216.5" y="-330" font-family="Helvetica,sans-Serif" font-size="10.00">frontEnd.TurtleView.addOrientation</text>
<text text-anchor="middle" x="299" y="-319" font-family="Helvetica,sans-Serif" font-size="10.00">Listener</text>
</a>
</g>
</g>
<!-- Node1&#45;&gt;Node4 -->
<g id="edge3" class="edge"><title>Node1&#45;&gt;Node4</title>
<path fill="none" stroke="midnightblue" d="M100.141,-238.586C121.689,-253.913 166.318,-284.037 208,-302 213.668,-304.443 219.641,-306.712 225.702,-308.805"/>
<polygon fill="midnightblue" stroke="midnightblue" points="224.674,-312.151 235.267,-311.949 226.86,-305.501 224.674,-312.151"/>
</g>
<!-- Node5 -->
<g id="node5" class="node"><title>Node5</title>
<g id="a_node5"><a xlink:href="../../dc/dcd/classfront_end_1_1_turtle_view.html#afe6f3f772a1a6b802fadd5a9189c32bc" target="_top" xlink:title="frontEnd.TurtleView.addPen\lColorIndexListener">
<polygon fill="white" stroke="black" points="226,-263 226,-293 372,-293 372,-263 226,-263"/>
<text text-anchor="start" x="234" y="-281" font-family="Helvetica,sans-Serif" font-size="10.00">frontEnd.TurtleView.addPen</text>
<text text-anchor="middle" x="299" y="-270" font-family="Helvetica,sans-Serif" font-size="10.00">ColorIndexListener</text>
</a>
</g>
</g>
<!-- Node1&#45;&gt;Node5 -->
<g id="edge4" class="edge"><title>Node1&#45;&gt;Node5</title>
<path fill="none" stroke="midnightblue" d="M127.933,-238.506C154.977,-244.786 191.217,-253.202 223.295,-260.651"/>
<polygon fill="midnightblue" stroke="midnightblue" points="222.569,-264.076 233.101,-262.929 224.152,-257.257 222.569,-264.076"/>
</g>
<!-- Node7 -->
<g id="node7" class="node"><title>Node7</title>
<g id="a_node7"><a xlink:href="../../dc/dcd/classfront_end_1_1_turtle_view.html#afc9da118df25f14596f6a1efc368d5e4" target="_top" xlink:title="frontEnd.TurtleView.addShape\lIndexListener">
<polygon fill="white" stroke="black" points="220,-214 220,-244 378,-244 378,-214 220,-214"/>
<text text-anchor="start" x="228" y="-232" font-family="Helvetica,sans-Serif" font-size="10.00">frontEnd.TurtleView.addShape</text>
<text text-anchor="middle" x="299" y="-221" font-family="Helvetica,sans-Serif" font-size="10.00">IndexListener</text>
</a>
</g>
</g>
<!-- Node1&#45;&gt;Node7 -->
<g id="edge6" class="edge"><title>Node1&#45;&gt;Node7</title>
<path fill="none" stroke="midnightblue" d="M171.606,-229C184.181,-229 197.169,-229 209.815,-229"/>
<polygon fill="midnightblue" stroke="midnightblue" points="209.869,-232.5 219.869,-229 209.869,-225.5 209.869,-232.5"/>
</g>
<!-- Node9 -->
<g id="node9" class="node"><title>Node9</title>
<g id="a_node9"><a xlink:href="../../dc/dcd/classfront_end_1_1_turtle_view.html#a76bcc0f7c125450725ace12157f5fa98" target="_top" xlink:title="frontEnd.TurtleView.addStamp\lCountListener">
<polygon fill="white" stroke="black" points="219,-165 219,-195 379,-195 379,-165 219,-165"/>
<text text-anchor="start" x="227" y="-183" font-family="Helvetica,sans-Serif" font-size="10.00">frontEnd.TurtleView.addStamp</text>
<text text-anchor="middle" x="299" y="-172" font-family="Helvetica,sans-Serif" font-size="10.00">CountListener</text>
</a>
</g>
</g>
<!-- Node1&#45;&gt;Node9 -->
<g id="edge8" class="edge"><title>Node1&#45;&gt;Node9</title>
<path fill="none" stroke="midnightblue" d="M127.933,-219.494C154.977,-213.214 191.217,-204.798 223.295,-197.349"/>
<polygon fill="midnightblue" stroke="midnightblue" points="224.152,-200.743 233.101,-195.071 222.569,-193.924 224.152,-200.743"/>
</g>
<!-- Node12 -->
<g id="node12" class="node"><title>Node12</title>
<g id="a_node12"><a xlink:href="../../dc/dcd/classfront_end_1_1_turtle_view.html#a5ba22499944105adb8cd695ad94d2b15" target="_top" xlink:title="frontEnd.TurtleView.addVisibility\lListener">
<polygon fill="white" stroke="black" points="216,-0 216,-30 382,-30 382,-0 216,-0"/>
<text text-anchor="start" x="224" y="-18" font-family="Helvetica,sans-Serif" font-size="10.00">frontEnd.TurtleView.addVisibility</text>
<text text-anchor="middle" x="299" y="-7" font-family="Helvetica,sans-Serif" font-size="10.00">Listener</text>
</a>
</g>
</g>
<!-- Node1&#45;&gt;Node12 -->
<g id="edge11" class="edge"><title>Node1&#45;&gt;Node12</title>
<path fill="none" stroke="midnightblue" d="M90.2501,-219.329C101.292,-187.997 140.483,-88.4515 208,-39 209.908,-37.6025 211.892,-36.2864 213.936,-35.0469"/>
<polygon fill="midnightblue" stroke="midnightblue" points="216.064,-37.879 223.244,-30.0883 212.773,-31.701 216.064,-37.879"/>
</g>
<!-- Node13 -->
<g id="node13" class="node"><title>Node13</title>
<g id="a_node13"><a xlink:href="../../dc/dcd/classfront_end_1_1_turtle_view.html#a9337ced43a44df7b4ee7352a0f812746" target="_top" xlink:title="frontEnd.TurtleView.addXPosition\lListener">
<polygon fill="white" stroke="black" points="213.5,-110 213.5,-140 384.5,-140 384.5,-110 213.5,-110"/>
<text text-anchor="start" x="221.5" y="-128" font-family="Helvetica,sans-Serif" font-size="10.00">frontEnd.TurtleView.addXPosition</text>
<text text-anchor="middle" x="299" y="-117" font-family="Helvetica,sans-Serif" font-size="10.00">Listener</text>
</a>
</g>
</g>
<!-- Node1&#45;&gt;Node13 -->
<g id="edge12" class="edge"><title>Node1&#45;&gt;Node13</title>
<path fill="none" stroke="midnightblue" d="M100.581,-219.266C122.382,-203.976 166.917,-174.106 208,-155 217.072,-150.781 226.907,-146.874 236.632,-143.37"/>
<polygon fill="midnightblue" stroke="midnightblue" points="237.997,-146.601 246.287,-140.004 235.692,-139.991 237.997,-146.601"/>
</g>
<!-- Node18 -->
<g id="node18" class="node"><title>Node18</title>
<g id="a_node18"><a xlink:href="../../dc/dcd/classfront_end_1_1_turtle_view.html#a4bf2e008a42ea6ee574a53fe3f137425" target="_top" xlink:title="frontEnd.TurtleView.addYPosition\lListener">
<polygon fill="white" stroke="black" points="214,-49 214,-79 384,-79 384,-49 214,-49"/>
<text text-anchor="start" x="222" y="-67" font-family="Helvetica,sans-Serif" font-size="10.00">frontEnd.TurtleView.addYPosition</text>
<text text-anchor="middle" x="299" y="-56" font-family="Helvetica,sans-Serif" font-size="10.00">Listener</text>
</a>
</g>
</g>
<!-- Node1&#45;&gt;Node18 -->
<g id="edge18" class="edge"><title>Node1&#45;&gt;Node18</title>
<path fill="none" stroke="midnightblue" d="M93.7914,-219.221C110.598,-195.666 156.517,-135.142 208,-100 217.773,-93.3291 228.967,-87.6069 240.064,-82.8155"/>
<polygon fill="midnightblue" stroke="midnightblue" points="241.409,-86.0466 249.329,-79.0092 238.749,-79.5717 241.409,-86.0466"/>
</g>
<!-- Node6 -->
<g id="node6" class="node"><title>Node6</title>
<g id="a_node6"><a xlink:href="../../dc/dcd/classfront_end_1_1_turtle_view.html#ae388cacab199b191dbb44419e9574e86" target="_top" xlink:title="frontEnd.TurtleView.change\lPenColor">
<polygon fill="white" stroke="black" points="431.5,-266 431.5,-296 576.5,-296 576.5,-266 431.5,-266"/>
<text text-anchor="start" x="439.5" y="-284" font-family="Helvetica,sans-Serif" font-size="10.00">frontEnd.TurtleView.change</text>
<text text-anchor="middle" x="504" y="-273" font-family="Helvetica,sans-Serif" font-size="10.00">PenColor</text>
</a>
</g>
</g>
<!-- Node5&#45;&gt;Node6 -->
<g id="edge5" class="edge"><title>Node5&#45;&gt;Node6</title>
<path fill="none" stroke="midnightblue" d="M372.142,-279.066C388.091,-279.302 405.098,-279.553 421.394,-279.794"/>
<polygon fill="midnightblue" stroke="midnightblue" points="421.381,-283.294 431.432,-279.942 421.485,-276.295 421.381,-283.294"/>
</g>
<!-- Node8 -->
<g id="node8" class="node"><title>Node8</title>
<g id="a_node8"><a xlink:href="../../dc/dcd/classfront_end_1_1_turtle_view.html#af8d2b97ffef04e1b6ea796b9db58eed8" target="_top" xlink:title="frontEnd.TurtleView.setImage">
<polygon fill="white" stroke="black" points="426.5,-227.5 426.5,-246.5 581.5,-246.5 581.5,-227.5 426.5,-227.5"/>
<text text-anchor="middle" x="504" y="-234.5" font-family="Helvetica,sans-Serif" font-size="10.00">frontEnd.TurtleView.setImage</text>
</a>
</g>
</g>
<!-- Node7&#45;&gt;Node8 -->
<g id="edge7" class="edge"><title>Node7&#45;&gt;Node8</title>
<path fill="none" stroke="midnightblue" d="M378.195,-232.082C390.621,-232.571 403.54,-233.08 416.151,-233.577"/>
<polygon fill="midnightblue" stroke="midnightblue" points="416.054,-237.076 426.184,-233.973 416.329,-230.082 416.054,-237.076"/>
</g>
<!-- Node10 -->
<g id="node10" class="node"><title>Node10</title>
<g id="a_node10"><a xlink:href="../../dc/dcd/classfront_end_1_1_turtle_view.html#a564510328fe07db1b07a46053edecf03" target="_top" xlink:title="frontEnd.TurtleView.draw\lStamp">
<polygon fill="white" stroke="black" points="438,-178 438,-208 570,-208 570,-178 438,-178"/>
<text text-anchor="start" x="446" y="-196" font-family="Helvetica,sans-Serif" font-size="10.00">frontEnd.TurtleView.draw</text>
<text text-anchor="middle" x="504" y="-185" font-family="Helvetica,sans-Serif" font-size="10.00">Stamp</text>
</a>
</g>
</g>
<!-- Node9&#45;&gt;Node10 -->
<g id="edge9" class="edge"><title>Node9&#45;&gt;Node10</title>
<path fill="none" stroke="midnightblue" d="M379.066,-185.063C395.048,-186.087 411.81,-187.16 427.659,-188.175"/>
<polygon fill="midnightblue" stroke="midnightblue" points="427.722,-191.686 437.925,-188.833 428.17,-184.701 427.722,-191.686"/>
</g>
<!-- Node11 -->
<g id="node11" class="node"><title>Node11</title>
<g id="a_node11"><a xlink:href="../../dc/dcd/classfront_end_1_1_turtle_view.html#af43ab74822d93fd8adcef1a11fb1e930" target="_top" xlink:title="frontEnd.TurtleView.getImage">
<polygon fill="white" stroke="black" points="618.5,-139.5 618.5,-158.5 773.5,-158.5 773.5,-139.5 618.5,-139.5"/>
<text text-anchor="middle" x="696" y="-146.5" font-family="Helvetica,sans-Serif" font-size="10.00">frontEnd.TurtleView.getImage</text>
</a>
</g>
</g>
<!-- Node10&#45;&gt;Node11 -->
<g id="edge10" class="edge"><title>Node10&#45;&gt;Node11</title>
<path fill="none" stroke="midnightblue" d="M569.856,-177.981C594.11,-172.364 621.288,-166.07 644.105,-160.786"/>
<polygon fill="midnightblue" stroke="midnightblue" points="644.971,-164.178 653.924,-158.512 643.392,-157.359 644.971,-164.178"/>
</g>
<!-- Node14 -->
<g id="node14" class="node"><title>Node14</title>
<g id="a_node14"><a xlink:href="../../dc/dcd/classfront_end_1_1_turtle_view.html#a4e435f8e11193456725fa51f7c19ab24" target="_top" xlink:title="frontEnd.TurtleView.setTurtleX">
<polygon fill="white" stroke="black" points="426,-139.5 426,-158.5 582,-158.5 582,-139.5 426,-139.5"/>
<text text-anchor="middle" x="504" y="-146.5" font-family="Helvetica,sans-Serif" font-size="10.00">frontEnd.TurtleView.setTurtleX</text>
</a>
</g>
</g>
<!-- Node13&#45;&gt;Node14 -->
<g id="edge13" class="edge"><title>Node13&#45;&gt;Node14</title>
<path fill="none" stroke="midnightblue" d="M384.62,-135.004C394.901,-136.22 405.419,-137.463 415.738,-138.683"/>
<polygon fill="midnightblue" stroke="midnightblue" points="415.631,-142.195 425.973,-139.893 416.453,-135.243 415.631,-142.195"/>
</g>
<!-- Node15 -->
<g id="node15" class="node"><title>Node15</title>
<g id="a_node15"><a xlink:href="../../dc/dcd/classfront_end_1_1_turtle_view.html#aa16863ff9139b631c8974950d00a2241" target="_top" xlink:title="frontEnd.TurtleView.facing\lHorizontal">
<polygon fill="white" stroke="black" points="435,-90 435,-120 573,-120 573,-90 435,-90"/>
<text text-anchor="start" x="443" y="-108" font-family="Helvetica,sans-Serif" font-size="10.00">frontEnd.TurtleView.facing</text>
<text text-anchor="middle" x="504" y="-97" font-family="Helvetica,sans-Serif" font-size="10.00">Horizontal</text>
</a>
</g>
</g>
<!-- Node13&#45;&gt;Node15 -->
<g id="edge15" class="edge"><title>Node13&#45;&gt;Node15</title>
<path fill="none" stroke="midnightblue" d="M384.62,-116.663C397.971,-115.348 411.723,-113.993 424.916,-112.693"/>
<polygon fill="midnightblue" stroke="midnightblue" points="425.271,-116.175 434.88,-111.711 424.585,-109.209 425.271,-116.175"/>
</g>
<!-- Node16 -->
<g id="node16" class="node"><title>Node16</title>
<g id="a_node16"><a xlink:href="../../dc/dcd/classfront_end_1_1_turtle_view.html#aee80ac929368e182c39dbd93e9ce6e9b" target="_top" xlink:title="frontEnd.TurtleView.drawLine">
<polygon fill="white" stroke="black" points="428,-51.5 428,-70.5 580,-70.5 580,-51.5 428,-51.5"/>
<text text-anchor="middle" x="504" y="-58.5" font-family="Helvetica,sans-Serif" font-size="10.00">frontEnd.TurtleView.drawLine</text>
</a>
</g>
</g>
<!-- Node13&#45;&gt;Node16 -->
<g id="edge16" class="edge"><title>Node13&#45;&gt;Node16</title>
<path fill="none" stroke="midnightblue" d="M338.824,-109.986C363.565,-100.705 396.418,-88.9072 426,-80 434.055,-77.5746 442.65,-75.2248 451.07,-73.0526"/>
<polygon fill="midnightblue" stroke="midnightblue" points="451.99,-76.4302 460.83,-70.5902 450.278,-69.6429 451.99,-76.4302"/>
</g>
<!-- Node14&#45;&gt;Node11 -->
<g id="edge14" class="edge"><title>Node14&#45;&gt;Node11</title>
<path fill="none" stroke="midnightblue" d="M582.006,-149C590.583,-149 599.362,-149 608.051,-149"/>
<polygon fill="midnightblue" stroke="midnightblue" points="608.193,-152.5 618.193,-149 608.193,-145.5 608.193,-152.5"/>
</g>
<!-- Node17 -->
<g id="node17" class="node"><title>Node17</title>
<g id="a_node17"><a xlink:href="../../df/d96/interfacedrawer_1_1_drawer.html#a5d86e4bccd77ec6b33006bcc003d0315" target="_top" xlink:title="drawer.Drawer.makeLine">
<polygon fill="white" stroke="black" points="629,-51.5 629,-70.5 763,-70.5 763,-51.5 629,-51.5"/>
<text text-anchor="middle" x="696" y="-58.5" font-family="Helvetica,sans-Serif" font-size="10.00">drawer.Drawer.makeLine</text>
</a>
</g>
</g>
<!-- Node16&#45;&gt;Node17 -->
<g id="edge17" class="edge"><title>Node16&#45;&gt;Node17</title>
<path fill="none" stroke="midnightblue" d="M580.093,-61C592.779,-61 605.962,-61 618.679,-61"/>
<polygon fill="midnightblue" stroke="midnightblue" points="618.76,-64.5001 628.76,-61 618.76,-57.5001 618.76,-64.5001"/>
</g>
<!-- Node18&#45;&gt;Node16 -->
<g id="edge21" class="edge"><title>Node18&#45;&gt;Node16</title>
<path fill="none" stroke="midnightblue" d="M384.033,-62.7581C395.14,-62.594 406.535,-62.4256 417.663,-62.2611"/>
<polygon fill="midnightblue" stroke="midnightblue" points="417.846,-65.7589 427.793,-62.1114 417.742,-58.7597 417.846,-65.7589"/>
</g>
<!-- Node19 -->
<g id="node19" class="node"><title>Node19</title>
<g id="a_node19"><a xlink:href="../../dc/dcd/classfront_end_1_1_turtle_view.html#abac2050f00327a22b1bc5a669f70e2be" target="_top" xlink:title="frontEnd.TurtleView.setTurtleY">
<polygon fill="white" stroke="black" points="426.5,-13.5 426.5,-32.5 581.5,-32.5 581.5,-13.5 426.5,-13.5"/>
<text text-anchor="middle" x="504" y="-20.5" font-family="Helvetica,sans-Serif" font-size="10.00">frontEnd.TurtleView.setTurtleY</text>
</a>
</g>
</g>
<!-- Node18&#45;&gt;Node19 -->
<g id="edge19" class="edge"><title>Node18&#45;&gt;Node19</title>
<path fill="none" stroke="midnightblue" d="M374.437,-48.9659C397.988,-44.2094 423.635,-39.0293 445.784,-34.556"/>
<polygon fill="midnightblue" stroke="midnightblue" points="446.585,-37.965 455.694,-32.5545 445.199,-31.1036 446.585,-37.965"/>
</g>
<!-- Node19&#45;&gt;Node11 -->
<g id="edge20" class="edge"><title>Node19&#45;&gt;Node11</title>
<path fill="none" stroke="midnightblue" d="M560.356,-32.5673C567.903,-35.0297 575.336,-38.1209 582,-42 602.106,-53.7041 601.323,-63.7791 618,-80 637.108,-98.5855 659.957,-118.827 675.778,-132.549"/>
<polygon fill="midnightblue" stroke="midnightblue" points="673.918,-135.567 683.776,-139.45 678.491,-130.267 673.918,-135.567"/>
</g>
</g>
</svg>
        <g id="navigator" transform="translate(0 0)" fill="#404254">
                <rect fill="#f2f5e9" fill-opacity="0.5" stroke="#606060" stroke-width=".5" x="0" y="0" width="60" height="60"/>
                <use id="zoomplus" xlink:href="#zoomPlus" x="17" y="9" onmousedown="handleZoom(evt,'in')"/>
                <use id="zoomminus" xlink:href="#zoomMin" x="42" y="9" onmousedown="handleZoom(evt,'out')"/>
                <use id="reset" xlink:href="#resetDef" x="30" y="36" onmousedown="handleReset()"/>
                <g id="arrowUp" xlink:href="#dirArrow" transform="translate(30 24)" onmousedown="handlePan(0,-1)">
                  <use xlink:href="#rim" fill="#404040">
                        <set attributeName="fill" to="#808080" begin="arrowUp.mouseover" end="arrowUp.mouseout"/>
                  </use>
                  <path fill="none" stroke="white" stroke-width="1.5" d="M0,-3.0v7 M-2.5,-0.5L0,-3.0L2.5,-0.5"/>
                </g>
                <g id="arrowRight" xlink:href="#dirArrow" transform="rotate(90) translate(36 -43)" onmousedown="handlePan(1,0)">
                  <use xlink:href="#rim" fill="#404040">
                        <set attributeName="fill" to="#808080" begin="arrowRight.mouseover" end="arrowRight.mouseout"/>
                  </use>
                  <path fill="none" stroke="white" stroke-width="1.5" d="M0,-3.0v7 M-2.5,-0.5L0,-3.0L2.5,-0.5"/>
                </g>
                <g id="arrowDown" xlink:href="#dirArrow" transform="rotate(180) translate(-30 -48)" onmousedown="handlePan(0,1)">
                  <use xlink:href="#rim" fill="#404040">
                        <set attributeName="fill" to="#808080" begin="arrowDown.mouseover" end="arrowDown.mouseout"/>
                  </use>
                  <path fill="none" stroke="white" stroke-width="1.5" d="M0,-3.0v7 M-2.5,-0.5L0,-3.0L2.5,-0.5"/>
                </g>
                <g id="arrowLeft" xlink:href="#dirArrow" transform="rotate(270) translate(-36 17)" onmousedown="handlePan(-1,0)">
                  <use xlink:href="#rim" fill="#404040">
                        <set attributeName="fill" to="#808080" begin="arrowLeft.mouseover" end="arrowLeft.mouseout"/>
                  </use>
                  <path fill="none" stroke="white" stroke-width="1.5" d="M0,-3.0v7 M-2.5,-0.5L0,-3.0L2.5,-0.5"/>
                </g>
        </g>
        <svg viewBox="0 0 15 15" width="100%" height="30px" preserveAspectRatio="xMaxYMin meet">
         <g id="arrow_out" transform="scale(0.3 0.3)">
          <a xlink:href="classfront_end_1_1_turtle_view_a8a128529e6c726fb58825bfa0794b239_cgraph_org.svg" target="_base">
           <rect id="button" ry="5" rx="5" y="6" x="6" height="38" width="38"
                fill="#f2f5e9" fill-opacity="0.5" stroke="#606060" stroke-width="1.0"/>
           <path id="arrow"
             d="M 11.500037,31.436501 C 11.940474,20.09759 22.043105,11.32322 32.158766,21.979434 L 37.068811,17.246167 C 37.068811,17.246167 37.088388,32 37.088388,32 L 22.160133,31.978069 C 22.160133,31.978069 26.997745,27.140456 26.997745,27.140456 C 18.528582,18.264221 13.291696,25.230495 11.500037,31.436501 z"
             style="fill:#404040;"/>
          </a>
         </g>
        </svg>
</svg>
