<?xml version="1.0" encoding="UTF-8" standalone="no"?>
<!DOCTYPE svg PUBLIC "-//W3C//DTD SVG 1.1//EN"
 "http://www.w3.org/Graphics/SVG/1.1/DTD/svg11.dtd">
<!-- Generated by graphviz version 2.36.0 (20140111.2315)
 -->
<!-- Title: frontEnd.TurtleView.addYPositionListener Pages: 1 -->
<svg width="562pt" height="66pt"
 viewBox="0.00 0.00 562.00 66.00" xmlns="http://www.w3.org/2000/svg" xmlns:xlink="http://www.w3.org/1999/xlink">
<g id="graph0" class="graph" transform="scale(1 1) rotate(0) translate(4 62)">
<title>frontEnd.TurtleView.addYPositionListener</title>
<polygon fill="white" stroke="none" points="-4,4 -4,-62 558,-62 558,4 -4,4"/>
<!-- Node1 -->
<g id="node1" class="node"><title>Node1</title>
<polygon fill="#bfbfbf" stroke="black" points="0,-14 0,-44 170,-44 170,-14 0,-14"/>
<text text-anchor="start" x="8" y="-32" font-family="Helvetica,sans-Serif" font-size="10.00">frontEnd.TurtleView.addYPosition</text>
<text text-anchor="middle" x="85" y="-21" font-family="Helvetica,sans-Serif" font-size="10.00">Listener</text>
</g>
<!-- Node2 -->
<g id="node2" class="node"><title>Node2</title>
<g id="a_node2"><a xlink:href="../../dc/dcd/classfront_end_1_1_turtle_view.html#aee80ac929368e182c39dbd93e9ce6e9b" target="_top" xlink:title="frontEnd.TurtleView.drawLine">
<polygon fill="white" stroke="black" points="208,-38.5 208,-57.5 360,-57.5 360,-38.5 208,-38.5"/>
<text text-anchor="middle" x="284" y="-45.5" font-family="Helvetica,sans-Serif" font-size="10.00">frontEnd.TurtleView.drawLine</text>
</a>
</g>
</g>
<!-- Node1&#45;&gt;Node2 -->
<g id="edge1" class="edge"><title>Node1&#45;&gt;Node2</title>
<path fill="none" stroke="midnightblue" d="M170.117,-37.1128C179.235,-37.9922 188.521,-38.8878 197.653,-39.7686"/>
<polygon fill="midnightblue" stroke="midnightblue" points="197.592,-43.2788 207.882,-40.7551 198.264,-36.3112 197.592,-43.2788"/>
</g>
<!-- Node4 -->
<g id="node4" class="node"><title>Node4</title>
<g id="a_node4"><a xlink:href="../../dc/dcd/classfront_end_1_1_turtle_view.html#abac2050f00327a22b1bc5a669f70e2be" target="_top" xlink:title="frontEnd.TurtleView.setTurtleY">
<polygon fill="white" stroke="black" points="206.5,-0.5 206.5,-19.5 361.5,-19.5 361.5,-0.5 206.5,-0.5"/>
<text text-anchor="middle" x="284" y="-7.5" font-family="Helvetica,sans-Serif" font-size="10.00">frontEnd.TurtleView.setTurtleY</text>
</a>
</g>
</g>
<!-- Node1&#45;&gt;Node4 -->
<g id="edge3" class="edge"><title>Node1&#45;&gt;Node4</title>
<path fill="none" stroke="midnightblue" d="M170.117,-20.8872C178.761,-20.0535 187.556,-19.2052 196.228,-18.3688"/>
<polygon fill="midnightblue" stroke="midnightblue" points="196.718,-21.838 206.336,-17.394 196.046,-14.8703 196.718,-21.838"/>
</g>
<!-- Node3 -->
<g id="node3" class="node"><title>Node3</title>
<g id="a_node3"><a xlink:href="../../df/d96/interfacedrawer_1_1_drawer.html#a5d86e4bccd77ec6b33006bcc003d0315" target="_top" xlink:title="drawer.Drawer.makeLine">
<polygon fill="white" stroke="black" points="409,-38.5 409,-57.5 543,-57.5 543,-38.5 409,-38.5"/>
<text text-anchor="middle" x="476" y="-45.5" font-family="Helvetica,sans-Serif" font-size="10.00">drawer.Drawer.makeLine</text>
</a>
</g>
</g>
<!-- Node2&#45;&gt;Node3 -->
<g id="edge2" class="edge"><title>Node2&#45;&gt;Node3</title>
<path fill="none" stroke="midnightblue" d="M360.093,-48C372.779,-48 385.962,-48 398.679,-48"/>
<polygon fill="midnightblue" stroke="midnightblue" points="398.76,-51.5001 408.76,-48 398.76,-44.5001 398.76,-51.5001"/>
</g>
<!-- Node5 -->
<g id="node5" class="node"><title>Node5</title>
<g id="a_node5"><a xlink:href="../../dc/dcd/classfront_end_1_1_turtle_view.html#af43ab74822d93fd8adcef1a11fb1e930" target="_top" xlink:title="frontEnd.TurtleView.getImage">
<polygon fill="white" stroke="black" points="398.5,-0.5 398.5,-19.5 553.5,-19.5 553.5,-0.5 398.5,-0.5"/>
<text text-anchor="middle" x="476" y="-7.5" font-family="Helvetica,sans-Serif" font-size="10.00">frontEnd.TurtleView.getImage</text>
</a>
</g>
</g>
<!-- Node4&#45;&gt;Node5 -->
<g id="edge4" class="edge"><title>Node4&#45;&gt;Node5</title>
<path fill="none" stroke="midnightblue" d="M361.733,-10C370.394,-10 379.265,-10 388.044,-10"/>
<polygon fill="midnightblue" stroke="midnightblue" points="388.29,-13.5001 398.29,-10 388.29,-6.5001 388.29,-13.5001"/>
</g>
</g>
</svg>
