<?xml version="1.0" encoding="UTF-8" standalone="no"?>
<!DOCTYPE svg PUBLIC "-//W3C//DTD SVG 1.1//EN"
 "http://www.w3.org/Graphics/SVG/1.1/DTD/svg11.dtd">
<!-- Generated by graphviz version 2.36.0 (20140111.2315)
 -->
<!-- Title: frontEnd.TurtleView.setTurtleX Pages: 1 -->
<svg width="774pt" height="38pt"
 viewBox="0.00 0.00 774.00 38.00" xmlns="http://www.w3.org/2000/svg" xmlns:xlink="http://www.w3.org/1999/xlink">
<g id="graph0" class="graph" transform="scale(1 1) rotate(0) translate(4 34)">
<title>frontEnd.TurtleView.setTurtleX</title>
<polygon fill="white" stroke="none" points="-4,4 -4,-34 770,-34 770,4 -4,4"/>
<!-- Node1 -->
<g id="node1" class="node"><title>Node1</title>
<polygon fill="#bfbfbf" stroke="black" points="0,-5.5 0,-24.5 156,-24.5 156,-5.5 0,-5.5"/>
<text text-anchor="middle" x="78" y="-12.5" font-family="Helvetica,sans-Serif" font-size="10.00">frontEnd.TurtleView.setTurtleX</text>
</g>
<!-- Node2 -->
<g id="node2" class="node"><title>Node2</title>
<g id="a_node2"><a xlink:href="../../dc/dcd/classfront_end_1_1_turtle_view.html#a9337ced43a44df7b4ee7352a0f812746" target="_top" xlink:title="frontEnd.TurtleView.addXPosition\lListener">
<polygon fill="white" stroke="black" points="192.5,-0 192.5,-30 363.5,-30 363.5,-0 192.5,-0"/>
<text text-anchor="start" x="200.5" y="-18" font-family="Helvetica,sans-Serif" font-size="10.00">frontEnd.TurtleView.addXPosition</text>
<text text-anchor="middle" x="278" y="-7" font-family="Helvetica,sans-Serif" font-size="10.00">Listener</text>
</a>
</g>
</g>
<!-- Node1&#45;&gt;Node2 -->
<g id="edge1" class="edge"><title>Node1&#45;&gt;Node2</title>
<path fill="none" stroke="midnightblue" d="M166.193,-15C174.837,-15 183.602,-15 192.22,-15"/>
<polygon fill="midnightblue" stroke="midnightblue" points="166.119,-11.5001 156.119,-15 166.119,-18.5001 166.119,-11.5001"/>
</g>
<!-- Node3 -->
<g id="node3" class="node"><title>Node3</title>
<g id="a_node3"><a xlink:href="../../dc/dcd/classfront_end_1_1_turtle_view.html#a8a128529e6c726fb58825bfa0794b239" target="_top" xlink:title="frontEnd.TurtleView.addListeners">
<polygon fill="white" stroke="black" points="400.5,-5.5 400.5,-24.5 571.5,-24.5 571.5,-5.5 400.5,-5.5"/>
<text text-anchor="middle" x="486" y="-12.5" font-family="Helvetica,sans-Serif" font-size="10.00">frontEnd.TurtleView.addListeners</text>
</a>
</g>
</g>
<!-- Node2&#45;&gt;Node3 -->
<g id="edge2" class="edge"><title>Node2&#45;&gt;Node3</title>
<path fill="none" stroke="midnightblue" d="M373.953,-15C382.748,-15 391.622,-15 400.316,-15"/>
<polygon fill="midnightblue" stroke="midnightblue" points="373.68,-11.5001 363.68,-15 373.68,-18.5001 373.68,-11.5001"/>
</g>
<!-- Node4 -->
<g id="node4" class="node"><title>Node4</title>
<g id="a_node4"><a xlink:href="../../dc/dcd/classfront_end_1_1_turtle_view.html#a68db2241e0b2e23e1894492f87975e1b" target="_top" xlink:title="frontEnd.TurtleView.TurtleView">
<polygon fill="white" stroke="black" points="608.5,-5.5 608.5,-24.5 765.5,-24.5 765.5,-5.5 608.5,-5.5"/>
<text text-anchor="middle" x="687" y="-12.5" font-family="Helvetica,sans-Serif" font-size="10.00">frontEnd.TurtleView.TurtleView</text>
</a>
</g>
</g>
<!-- Node3&#45;&gt;Node4 -->
<g id="edge3" class="edge"><title>Node3&#45;&gt;Node4</title>
<path fill="none" stroke="midnightblue" d="M581.714,-15C590.633,-15 599.603,-15 608.336,-15"/>
<polygon fill="midnightblue" stroke="midnightblue" points="581.683,-11.5001 571.682,-15 581.682,-18.5001 581.683,-11.5001"/>
</g>
</g>
</svg>
