<?xml version="1.0" encoding="UTF-8" standalone="no"?>
<!DOCTYPE svg PUBLIC "-//W3C//DTD SVG 1.1//EN"
 "http://www.w3.org/Graphics/SVG/1.1/DTD/svg11.dtd">
<!-- Generated by graphviz version 2.36.0 (20140111.2315)
 -->
<!-- Title: frontEnd.TurtleView.TurtleView Pages: 1 -->
<svg width="978pt" height="1008pt"
 viewBox="0.00 0.00 978.00 1008.00" xmlns="http://www.w3.org/2000/svg" xmlns:xlink="http://www.w3.org/1999/xlink">
<g id="graph0" class="graph" transform="scale(1 1) rotate(0) translate(4 1004)">
<title>frontEnd.TurtleView.TurtleView</title>
<polygon fill="white" stroke="none" points="-4,4 -4,-1004 974,-1004 974,4 -4,4"/>
<!-- Node1 -->
<g id="node1" class="node"><title>Node1</title>
<polygon fill="#bfbfbf" stroke="black" points="0.5,-419.5 0.5,-438.5 157.5,-438.5 157.5,-419.5 0.5,-419.5"/>
<text text-anchor="middle" x="79" y="-426.5" font-family="Helvetica,sans-Serif" font-size="10.00">frontEnd.TurtleView.TurtleView</text>
</g>
<!-- Node2 -->
<g id="node2" class="node"><title>Node2</title>
<g id="a_node2"><a xlink:href="../../dc/dcd/classfront_end_1_1_turtle_view.html#a8a128529e6c726fb58825bfa0794b239" target="_top" xlink:title="frontEnd.TurtleView.addListeners">
<polygon fill="white" stroke="black" points="194.5,-754.5 194.5,-773.5 365.5,-773.5 365.5,-754.5 194.5,-754.5"/>
<text text-anchor="middle" x="280" y="-761.5" font-family="Helvetica,sans-Serif" font-size="10.00">frontEnd.TurtleView.addListeners</text>
</a>
</g>
</g>
<!-- Node1&#45;&gt;Node2 -->
<g id="edge1" class="edge"><title>Node1&#45;&gt;Node2</title>
<path fill="none" stroke="midnightblue" d="M85.7411,-438.665C113.204,-484.896 231.349,-683.784 268.068,-745.597"/>
<polygon fill="midnightblue" stroke="midnightblue" points="265.119,-747.486 273.236,-754.296 271.138,-743.911 265.119,-747.486"/>
</g>
<!-- Node5 -->
<g id="node5" class="node"><title>Node5</title>
<g id="a_node5"><a xlink:href="../../dc/dcd/classfront_end_1_1_turtle_view.html#af43ab74822d93fd8adcef1a11fb1e930" target="_top" xlink:title="frontEnd.TurtleView.getImage">
<polygon fill="white" stroke="black" points="814.5,-718.5 814.5,-737.5 969.5,-737.5 969.5,-718.5 814.5,-718.5"/>
<text text-anchor="middle" x="892" y="-725.5" font-family="Helvetica,sans-Serif" font-size="10.00">frontEnd.TurtleView.getImage</text>
</a>
</g>
</g>
<!-- Node1&#45;&gt;Node5 -->
<g id="edge37" class="edge"><title>Node1&#45;&gt;Node5</title>
<path fill="none" stroke="midnightblue" d="M105.036,-438.548C158.645,-458.596 288.87,-505.184 402,-529 566.593,-563.65 632.781,-487.131 778,-572 832.949,-604.113 868.649,-674.694 883.352,-708.801"/>
<polygon fill="midnightblue" stroke="midnightblue" points="880.162,-710.247 887.239,-718.132 886.624,-707.555 880.162,-710.247"/>
</g>
<!-- Node21 -->
<g id="node21" class="node"><title>Node21</title>
<g id="a_node21"><a xlink:href="../../dc/dcd/classfront_end_1_1_turtle_view.html#a786dafb4fc29738c24e51c8e2d5ef1e8" target="_top" xlink:title="frontEnd.TurtleView.bind\lProperties">
<polygon fill="white" stroke="black" points="215,-294 215,-324 345,-324 345,-294 215,-294"/>
<text text-anchor="start" x="223" y="-312" font-family="Helvetica,sans-Serif" font-size="10.00">frontEnd.TurtleView.bind</text>
<text text-anchor="middle" x="280" y="-301" font-family="Helvetica,sans-Serif" font-size="10.00">Properties</text>
</a>
</g>
</g>
<!-- Node1&#45;&gt;Node21 -->
<g id="edge23" class="edge"><title>Node1&#45;&gt;Node21</title>
<path fill="none" stroke="midnightblue" d="M95.9486,-419.383C128.238,-399.912 201.957,-355.458 245.351,-329.291"/>
<polygon fill="midnightblue" stroke="midnightblue" points="247.368,-332.162 254.124,-324 243.753,-326.167 247.368,-332.162"/>
</g>
<!-- Node35 -->
<g id="node35" class="node"><title>Node35</title>
<g id="a_node35"><a xlink:href="../../dc/dcd/classfront_end_1_1_turtle_view.html#a93f28841410613933ffd08b187782325" target="_top" xlink:title="frontEnd.TurtleView.initialize\lBindableProperties">
<polygon fill="white" stroke="black" points="206,-245 206,-275 354,-275 354,-245 206,-245"/>
<text text-anchor="start" x="214" y="-263" font-family="Helvetica,sans-Serif" font-size="10.00">frontEnd.TurtleView.initialize</text>
<text text-anchor="middle" x="280" y="-252" font-family="Helvetica,sans-Serif" font-size="10.00">BindableProperties</text>
</a>
</g>
</g>
<!-- Node1&#45;&gt;Node35 -->
<g id="edge38" class="edge"><title>Node1&#45;&gt;Node35</title>
<path fill="none" stroke="midnightblue" d="M84.8765,-419.149C98.3769,-392.919 138.915,-320.871 194,-284 196.389,-282.401 198.885,-280.907 201.457,-279.512"/>
<polygon fill="midnightblue" stroke="midnightblue" points="202.997,-282.655 210.463,-275.139 199.939,-276.359 202.997,-282.655"/>
</g>
<!-- Node3 -->
<g id="node3" class="node"><title>Node3</title>
<g id="a_node3"><a xlink:href="../../dc/dcd/classfront_end_1_1_turtle_view.html#a9337ced43a44df7b4ee7352a0f812746" target="_top" xlink:title="frontEnd.TurtleView.addXPosition\lListener">
<polygon fill="white" stroke="black" points="407.5,-872 407.5,-902 578.5,-902 578.5,-872 407.5,-872"/>
<text text-anchor="start" x="415.5" y="-890" font-family="Helvetica,sans-Serif" font-size="10.00">frontEnd.TurtleView.addXPosition</text>
<text text-anchor="middle" x="493" y="-879" font-family="Helvetica,sans-Serif" font-size="10.00">Listener</text>
</a>
</g>
</g>
<!-- Node2&#45;&gt;Node3 -->
<g id="edge2" class="edge"><title>Node2&#45;&gt;Node3</title>
<path fill="none" stroke="midnightblue" d="M290.063,-773.627C308.995,-793.177 354.902,-837.728 402,-862 406.48,-864.309 411.198,-866.425 416.032,-868.362"/>
<polygon fill="midnightblue" stroke="midnightblue" points="414.843,-871.654 425.435,-871.87 417.289,-865.096 414.843,-871.654"/>
</g>
<!-- Node9 -->
<g id="node9" class="node"><title>Node9</title>
<g id="a_node9"><a xlink:href="../../dc/dcd/classfront_end_1_1_turtle_view.html#a4bf2e008a42ea6ee574a53fe3f137425" target="_top" xlink:title="frontEnd.TurtleView.addYPosition\lListener">
<polygon fill="white" stroke="black" points="408,-921 408,-951 578,-951 578,-921 408,-921"/>
<text text-anchor="start" x="416" y="-939" font-family="Helvetica,sans-Serif" font-size="10.00">frontEnd.TurtleView.addYPosition</text>
<text text-anchor="middle" x="493" y="-928" font-family="Helvetica,sans-Serif" font-size="10.00">Listener</text>
</a>
</g>
</g>
<!-- Node2&#45;&gt;Node9 -->
<g id="edge8" class="edge"><title>Node2&#45;&gt;Node9</title>
<path fill="none" stroke="midnightblue" d="M286.087,-773.613C300.506,-799.903 344.36,-873.521 402,-911 405.178,-913.066 408.526,-914.964 411.986,-916.706"/>
<polygon fill="midnightblue" stroke="midnightblue" points="410.817,-920.019 421.369,-920.964 413.709,-913.644 410.817,-920.019"/>
</g>
<!-- Node11 -->
<g id="node11" class="node"><title>Node11</title>
<g id="a_node11"><a xlink:href="../../dc/dcd/classfront_end_1_1_turtle_view.html#ae6b18a38136749fe91a54e12cd97bb07" target="_top" xlink:title="frontEnd.TurtleView.addOrientation\lListener">
<polygon fill="white" stroke="black" points="402.5,-823 402.5,-853 583.5,-853 583.5,-823 402.5,-823"/>
<text text-anchor="start" x="410.5" y="-841" font-family="Helvetica,sans-Serif" font-size="10.00">frontEnd.TurtleView.addOrientation</text>
<text text-anchor="middle" x="493" y="-830" font-family="Helvetica,sans-Serif" font-size="10.00">Listener</text>
</a>
</g>
</g>
<!-- Node2&#45;&gt;Node11 -->
<g id="edge12" class="edge"><title>Node2&#45;&gt;Node11</title>
<path fill="none" stroke="midnightblue" d="M302.578,-773.608C326.564,-784.083 366.596,-800.958 402,-813 409.233,-815.46 416.851,-817.861 424.468,-820.142"/>
<polygon fill="midnightblue" stroke="midnightblue" points="423.507,-823.507 434.087,-822.962 425.476,-816.79 423.507,-823.507"/>
</g>
<!-- Node12 -->
<g id="node12" class="node"><title>Node12</title>
<g id="a_node12"><a xlink:href="../../dc/dcd/classfront_end_1_1_turtle_view.html#a053e7ad190616a1840cfd30c991a0d0b" target="_top" xlink:title="frontEnd.TurtleView.addLines\lClearedListener">
<polygon fill="white" stroke="black" points="417,-774 417,-804 569,-804 569,-774 417,-774"/>
<text text-anchor="start" x="425" y="-792" font-family="Helvetica,sans-Serif" font-size="10.00">frontEnd.TurtleView.addLines</text>
<text text-anchor="middle" x="493" y="-781" font-family="Helvetica,sans-Serif" font-size="10.00">ClearedListener</text>
</a>
</g>
</g>
<!-- Node2&#45;&gt;Node12 -->
<g id="edge13" class="edge"><title>Node2&#45;&gt;Node12</title>
<path fill="none" stroke="midnightblue" d="M361.372,-773.523C376.134,-775.272 391.592,-777.103 406.498,-778.869"/>
<polygon fill="midnightblue" stroke="midnightblue" points="406.371,-782.379 416.713,-780.08 407.194,-775.427 406.371,-782.379"/>
</g>
<!-- Node13 -->
<g id="node13" class="node"><title>Node13</title>
<g id="a_node13"><a xlink:href="../../dc/dcd/classfront_end_1_1_turtle_view.html#a5ba22499944105adb8cd695ad94d2b15" target="_top" xlink:title="frontEnd.TurtleView.addVisibility\lListener">
<polygon fill="white" stroke="black" points="410,-725 410,-755 576,-755 576,-725 410,-725"/>
<text text-anchor="start" x="418" y="-743" font-family="Helvetica,sans-Serif" font-size="10.00">frontEnd.TurtleView.addVisibility</text>
<text text-anchor="middle" x="493" y="-732" font-family="Helvetica,sans-Serif" font-size="10.00">Listener</text>
</a>
</g>
</g>
<!-- Node2&#45;&gt;Node13 -->
<g id="edge14" class="edge"><title>Node2&#45;&gt;Node13</title>
<path fill="none" stroke="midnightblue" d="M364.696,-754.48C376.176,-753.174 388.016,-751.828 399.639,-750.505"/>
<polygon fill="midnightblue" stroke="midnightblue" points="400.244,-753.959 409.784,-749.352 399.453,-747.004 400.244,-753.959"/>
</g>
<!-- Node14 -->
<g id="node14" class="node"><title>Node14</title>
<g id="a_node14"><a xlink:href="../../dc/dcd/classfront_end_1_1_turtle_view.html#a76bcc0f7c125450725ace12157f5fa98" target="_top" xlink:title="frontEnd.TurtleView.addStamp\lCountListener">
<polygon fill="white" stroke="black" points="413,-578 413,-608 573,-608 573,-578 413,-578"/>
<text text-anchor="start" x="421" y="-596" font-family="Helvetica,sans-Serif" font-size="10.00">frontEnd.TurtleView.addStamp</text>
<text text-anchor="middle" x="493" y="-585" font-family="Helvetica,sans-Serif" font-size="10.00">CountListener</text>
</a>
</g>
</g>
<!-- Node2&#45;&gt;Node14 -->
<g id="edge15" class="edge"><title>Node2&#45;&gt;Node14</title>
<path fill="none" stroke="midnightblue" d="M286.105,-754.453C300.57,-728.344 344.531,-655.231 402,-618 405.181,-615.939 408.532,-614.046 411.995,-612.307"/>
<polygon fill="midnightblue" stroke="midnightblue" points="413.717,-615.37 421.383,-608.057 410.829,-608.993 413.717,-615.37"/>
</g>
<!-- Node16 -->
<g id="node16" class="node"><title>Node16</title>
<g id="a_node16"><a xlink:href="../../dc/dcd/classfront_end_1_1_turtle_view.html#afe6f3f772a1a6b802fadd5a9189c32bc" target="_top" xlink:title="frontEnd.TurtleView.addPen\lColorIndexListener">
<polygon fill="white" stroke="black" points="420,-676 420,-706 566,-706 566,-676 420,-676"/>
<text text-anchor="start" x="428" y="-694" font-family="Helvetica,sans-Serif" font-size="10.00">frontEnd.TurtleView.addPen</text>
<text text-anchor="middle" x="493" y="-683" font-family="Helvetica,sans-Serif" font-size="10.00">ColorIndexListener</text>
</a>
</g>
</g>
<!-- Node2&#45;&gt;Node16 -->
<g id="edge18" class="edge"><title>Node2&#45;&gt;Node16</title>
<path fill="none" stroke="midnightblue" d="M303.038,-754.434C327.091,-744.188 366.869,-727.81 402,-716 409.241,-713.566 416.865,-711.181 424.486,-708.909"/>
<polygon fill="midnightblue" stroke="midnightblue" points="425.491,-712.262 434.108,-706.098 423.527,-705.543 425.491,-712.262"/>
</g>
<!-- Node18 -->
<g id="node18" class="node"><title>Node18</title>
<g id="a_node18"><a xlink:href="../../dc/dcd/classfront_end_1_1_turtle_view.html#afc9da118df25f14596f6a1efc368d5e4" target="_top" xlink:title="frontEnd.TurtleView.addShape\lIndexListener">
<polygon fill="white" stroke="black" points="414,-627 414,-657 572,-657 572,-627 414,-627"/>
<text text-anchor="start" x="422" y="-645" font-family="Helvetica,sans-Serif" font-size="10.00">frontEnd.TurtleView.addShape</text>
<text text-anchor="middle" x="493" y="-634" font-family="Helvetica,sans-Serif" font-size="10.00">IndexListener</text>
</a>
</g>
</g>
<!-- Node2&#45;&gt;Node18 -->
<g id="edge20" class="edge"><title>Node2&#45;&gt;Node18</title>
<path fill="none" stroke="midnightblue" d="M290.084,-754.477C309.056,-735.136 355.032,-691.056 402,-667 406.574,-664.657 411.394,-662.512 416.33,-660.55"/>
<polygon fill="midnightblue" stroke="midnightblue" points="417.764,-663.752 425.93,-657.001 415.336,-657.186 417.764,-663.752"/>
</g>
<!-- Node20 -->
<g id="node20" class="node"><title>Node20</title>
<g id="a_node20"><a xlink:href="../../dc/dcd/classfront_end_1_1_turtle_view.html#a91ed67452c1a31ed4d0229e602219ae3" target="_top" xlink:title="frontEnd.TurtleView.addActivity\lListener">
<polygon fill="white" stroke="black" points="412,-970 412,-1000 574,-1000 574,-970 412,-970"/>
<text text-anchor="start" x="420" y="-988" font-family="Helvetica,sans-Serif" font-size="10.00">frontEnd.TurtleView.addActivity</text>
<text text-anchor="middle" x="493" y="-977" font-family="Helvetica,sans-Serif" font-size="10.00">Listener</text>
</a>
</g>
</g>
<!-- Node2&#45;&gt;Node20 -->
<g id="edge22" class="edge"><title>Node2&#45;&gt;Node20</title>
<path fill="none" stroke="midnightblue" d="M284.177,-773.945C294.996,-806.17 333.58,-908.596 402,-960 404.512,-961.887 407.159,-963.632 409.907,-965.245"/>
<polygon fill="midnightblue" stroke="midnightblue" points="408.494,-968.455 418.981,-969.962 411.723,-962.244 408.494,-968.455"/>
</g>
<!-- Node4 -->
<g id="node4" class="node"><title>Node4</title>
<g id="a_node4"><a xlink:href="../../dc/dcd/classfront_end_1_1_turtle_view.html#a4e435f8e11193456725fa51f7c19ab24" target="_top" xlink:title="frontEnd.TurtleView.setTurtleX">
<polygon fill="white" stroke="black" points="621,-850.5 621,-869.5 777,-869.5 777,-850.5 621,-850.5"/>
<text text-anchor="middle" x="699" y="-857.5" font-family="Helvetica,sans-Serif" font-size="10.00">frontEnd.TurtleView.setTurtleX</text>
</a>
</g>
</g>
<!-- Node3&#45;&gt;Node4 -->
<g id="edge3" class="edge"><title>Node3&#45;&gt;Node4</title>
<path fill="none" stroke="midnightblue" d="M578.742,-875.784C591.058,-874.154 603.719,-872.478 615.979,-870.856"/>
<polygon fill="midnightblue" stroke="midnightblue" points="616.713,-874.289 626.167,-869.507 615.794,-867.35 616.713,-874.289"/>
</g>
<!-- Node6 -->
<g id="node6" class="node"><title>Node6</title>
<g id="a_node6"><a xlink:href="../../dc/dcd/classfront_end_1_1_turtle_view.html#aa16863ff9139b631c8974950d00a2241" target="_top" xlink:title="frontEnd.TurtleView.facing\lHorizontal">
<polygon fill="white" stroke="black" points="630,-801 630,-831 768,-831 768,-801 630,-801"/>
<text text-anchor="start" x="638" y="-819" font-family="Helvetica,sans-Serif" font-size="10.00">frontEnd.TurtleView.facing</text>
<text text-anchor="middle" x="699" y="-808" font-family="Helvetica,sans-Serif" font-size="10.00">Horizontal</text>
</a>
</g>
</g>
<!-- Node3&#45;&gt;Node6 -->
<g id="edge5" class="edge"><title>Node3&#45;&gt;Node6</title>
<path fill="none" stroke="midnightblue" d="M556.203,-871.983C565.654,-869.056 575.186,-865.722 584,-862 601.065,-854.795 603.08,-848.538 620,-841 625.033,-838.758 630.33,-836.621 635.695,-834.61"/>
<polygon fill="midnightblue" stroke="midnightblue" points="637.156,-837.804 645.384,-831.13 634.789,-831.217 637.156,-837.804"/>
</g>
<!-- Node7 -->
<g id="node7" class="node"><title>Node7</title>
<g id="a_node7"><a xlink:href="../../dc/dcd/classfront_end_1_1_turtle_view.html#aee80ac929368e182c39dbd93e9ce6e9b" target="_top" xlink:title="frontEnd.TurtleView.drawLine">
<polygon fill="white" stroke="black" points="623,-888.5 623,-907.5 775,-907.5 775,-888.5 623,-888.5"/>
<text text-anchor="middle" x="699" y="-895.5" font-family="Helvetica,sans-Serif" font-size="10.00">frontEnd.TurtleView.drawLine</text>
</a>
</g>
</g>
<!-- Node3&#45;&gt;Node7 -->
<g id="edge6" class="edge"><title>Node3&#45;&gt;Node7</title>
<path fill="none" stroke="midnightblue" d="M578.742,-891.569C589.973,-892.175 601.492,-892.796 612.731,-893.402"/>
<polygon fill="midnightblue" stroke="midnightblue" points="612.785,-896.91 622.959,-893.954 613.162,-889.92 612.785,-896.91"/>
</g>
<!-- Node4&#45;&gt;Node5 -->
<g id="edge4" class="edge"><title>Node4&#45;&gt;Node5</title>
<path fill="none" stroke="midnightblue" d="M753.091,-850.447C761.725,-847.763 770.339,-844.345 778,-840 820.796,-815.725 858.744,-771.008 877.872,-746.048"/>
<polygon fill="midnightblue" stroke="midnightblue" points="880.843,-747.921 884.042,-737.821 875.242,-743.721 880.843,-747.921"/>
</g>
<!-- Node8 -->
<g id="node8" class="node"><title>Node8</title>
<g id="a_node8"><a xlink:href="../../df/d96/interfacedrawer_1_1_drawer.html#a5d86e4bccd77ec6b33006bcc003d0315" target="_top" xlink:title="drawer.Drawer.makeLine">
<polygon fill="white" stroke="black" points="825,-888.5 825,-907.5 959,-907.5 959,-888.5 825,-888.5"/>
<text text-anchor="middle" x="892" y="-895.5" font-family="Helvetica,sans-Serif" font-size="10.00">drawer.Drawer.makeLine</text>
</a>
</g>
</g>
<!-- Node7&#45;&gt;Node8 -->
<g id="edge7" class="edge"><title>Node7&#45;&gt;Node8</title>
<path fill="none" stroke="midnightblue" d="M775.214,-898C788.147,-898 801.599,-898 814.564,-898"/>
<polygon fill="midnightblue" stroke="midnightblue" points="814.837,-901.5 824.837,-898 814.836,-894.5 814.837,-901.5"/>
</g>
<!-- Node9&#45;&gt;Node7 -->
<g id="edge11" class="edge"><title>Node9&#45;&gt;Node7</title>
<path fill="none" stroke="midnightblue" d="M574.626,-920.981C595.396,-917.113 617.403,-913.013 636.992,-909.364"/>
<polygon fill="midnightblue" stroke="midnightblue" points="637.805,-912.773 646.995,-907.501 636.523,-905.891 637.805,-912.773"/>
</g>
<!-- Node10 -->
<g id="node10" class="node"><title>Node10</title>
<g id="a_node10"><a xlink:href="../../dc/dcd/classfront_end_1_1_turtle_view.html#abac2050f00327a22b1bc5a669f70e2be" target="_top" xlink:title="frontEnd.TurtleView.setTurtleY">
<polygon fill="white" stroke="black" points="621.5,-926.5 621.5,-945.5 776.5,-945.5 776.5,-926.5 621.5,-926.5"/>
<text text-anchor="middle" x="699" y="-933.5" font-family="Helvetica,sans-Serif" font-size="10.00">frontEnd.TurtleView.setTurtleY</text>
</a>
</g>
</g>
<!-- Node9&#45;&gt;Node10 -->
<g id="edge9" class="edge"><title>Node9&#45;&gt;Node10</title>
<path fill="none" stroke="midnightblue" d="M578.152,-936C588.965,-936 600.054,-936 610.912,-936"/>
<polygon fill="midnightblue" stroke="midnightblue" points="611.235,-939.5 621.235,-936 611.235,-932.5 611.235,-939.5"/>
</g>
<!-- Node10&#45;&gt;Node5 -->
<g id="edge10" class="edge"><title>Node10&#45;&gt;Node5</title>
<path fill="none" stroke="midnightblue" d="M760.536,-926.46C766.763,-923.989 772.728,-920.888 778,-917 809.048,-894.103 861.373,-789.842 882.13,-746.737"/>
<polygon fill="midnightblue" stroke="midnightblue" points="885.332,-748.154 886.487,-737.622 879.016,-745.135 885.332,-748.154"/>
</g>
<!-- Node15 -->
<g id="node15" class="node"><title>Node15</title>
<g id="a_node15"><a xlink:href="../../dc/dcd/classfront_end_1_1_turtle_view.html#a564510328fe07db1b07a46053edecf03" target="_top" xlink:title="frontEnd.TurtleView.draw\lStamp">
<polygon fill="white" stroke="black" points="633,-581 633,-611 765,-611 765,-581 633,-581"/>
<text text-anchor="start" x="641" y="-599" font-family="Helvetica,sans-Serif" font-size="10.00">frontEnd.TurtleView.draw</text>
<text text-anchor="middle" x="699" y="-588" font-family="Helvetica,sans-Serif" font-size="10.00">Stamp</text>
</a>
</g>
</g>
<!-- Node14&#45;&gt;Node15 -->
<g id="edge16" class="edge"><title>Node14&#45;&gt;Node15</title>
<path fill="none" stroke="midnightblue" d="M573.164,-594.164C589.333,-594.402 606.31,-594.652 622.353,-594.888"/>
<polygon fill="midnightblue" stroke="midnightblue" points="622.693,-598.393 632.743,-595.04 622.796,-591.394 622.693,-598.393"/>
</g>
<!-- Node15&#45;&gt;Node5 -->
<g id="edge17" class="edge"><title>Node15&#45;&gt;Node5</title>
<path fill="none" stroke="midnightblue" d="M753.37,-611.133C761.882,-614.482 770.384,-618.425 778,-623 818.304,-647.213 856.475,-687.601 876.482,-710.59"/>
<polygon fill="midnightblue" stroke="midnightblue" points="874.068,-713.152 883.227,-718.478 879.388,-708.603 874.068,-713.152"/>
</g>
<!-- Node17 -->
<g id="node17" class="node"><title>Node17</title>
<g id="a_node17"><a xlink:href="../../dc/dcd/classfront_end_1_1_turtle_view.html#ae388cacab199b191dbb44419e9574e86" target="_top" xlink:title="frontEnd.TurtleView.change\lPenColor">
<polygon fill="white" stroke="black" points="626.5,-676 626.5,-706 771.5,-706 771.5,-676 626.5,-676"/>
<text text-anchor="start" x="634.5" y="-694" font-family="Helvetica,sans-Serif" font-size="10.00">frontEnd.TurtleView.change</text>
<text text-anchor="middle" x="699" y="-683" font-family="Helvetica,sans-Serif" font-size="10.00">PenColor</text>
</a>
</g>
</g>
<!-- Node16&#45;&gt;Node17 -->
<g id="edge19" class="edge"><title>Node16&#45;&gt;Node17</title>
<path fill="none" stroke="midnightblue" d="M566.21,-691C582.346,-691 599.572,-691 616.069,-691"/>
<polygon fill="midnightblue" stroke="midnightblue" points="616.231,-694.5 626.231,-691 616.231,-687.5 616.231,-694.5"/>
</g>
<!-- Node19 -->
<g id="node19" class="node"><title>Node19</title>
<g id="a_node19"><a xlink:href="../../dc/dcd/classfront_end_1_1_turtle_view.html#af8d2b97ffef04e1b6ea796b9db58eed8" target="_top" xlink:title="frontEnd.TurtleView.setImage">
<polygon fill="white" stroke="black" points="621.5,-632.5 621.5,-651.5 776.5,-651.5 776.5,-632.5 621.5,-632.5"/>
<text text-anchor="middle" x="699" y="-639.5" font-family="Helvetica,sans-Serif" font-size="10.00">frontEnd.TurtleView.setImage</text>
</a>
</g>
</g>
<!-- Node18&#45;&gt;Node19 -->
<g id="edge21" class="edge"><title>Node18&#45;&gt;Node19</title>
<path fill="none" stroke="midnightblue" d="M572.288,-642C584.967,-642 598.163,-642 611.032,-642"/>
<polygon fill="midnightblue" stroke="midnightblue" points="611.267,-645.5 621.267,-642 611.267,-638.5 611.267,-645.5"/>
</g>
<!-- Node22 -->
<g id="node22" class="node"><title>Node22</title>
<g id="a_node22"><a xlink:href="../../dd/d98/classback_end_1_1turtle_1_1_turtle_properties.html#aa8cf92a7f1534967d3e1a597b4d91b1b" target="_top" xlink:title="backEnd.turtle.TurtleProperties.get\lXPosition">
<polygon fill="white" stroke="black" points="402,-98 402,-128 584,-128 584,-98 402,-98"/>
<text text-anchor="start" x="410" y="-116" font-family="Helvetica,sans-Serif" font-size="10.00">backEnd.turtle.TurtleProperties.get</text>
<text text-anchor="middle" x="493" y="-105" font-family="Helvetica,sans-Serif" font-size="10.00">XPosition</text>
</a>
</g>
</g>
<!-- Node21&#45;&gt;Node22 -->
<g id="edge24" class="edge"><title>Node21&#45;&gt;Node22</title>
<path fill="none" stroke="midnightblue" d="M345.109,-298.28C352.901,-294.761 360.157,-290.118 366,-284 412.459,-235.359 354.926,-185.046 402,-137 402.923,-136.058 403.879,-135.151 404.864,-134.279"/>
<polygon fill="midnightblue" stroke="midnightblue" points="407.027,-137.032 412.945,-128.244 402.838,-131.424 407.027,-137.032"/>
</g>
<!-- Node24 -->
<g id="node24" class="node"><title>Node24</title>
<g id="a_node24"><a xlink:href="../../dd/d98/classback_end_1_1turtle_1_1_turtle_properties.html#a897599812322db6073189c88a192eea3" target="_top" xlink:title="backEnd.turtle.TurtleProperties.get\lYPosition">
<polygon fill="white" stroke="black" points="402,-49 402,-79 584,-79 584,-49 402,-49"/>
<text text-anchor="start" x="410" y="-67" font-family="Helvetica,sans-Serif" font-size="10.00">backEnd.turtle.TurtleProperties.get</text>
<text text-anchor="middle" x="493" y="-56" font-family="Helvetica,sans-Serif" font-size="10.00">YPosition</text>
</a>
</g>
</g>
<!-- Node21&#45;&gt;Node24 -->
<g id="edge26" class="edge"><title>Node21&#45;&gt;Node24</title>
<path fill="none" stroke="midnightblue" d="M345.022,-298.785C352.925,-295.197 360.235,-290.4 366,-284 425.274,-218.19 341.893,-153.05 402,-88 402.895,-87.0313 403.825,-86.0999 404.785,-85.2045"/>
<polygon fill="midnightblue" stroke="midnightblue" points="406.979,-87.9322 412.71,-79.0213 402.673,-82.4132 406.979,-87.9322"/>
</g>
<!-- Node26 -->
<g id="node26" class="node"><title>Node26</title>
<g id="a_node26"><a xlink:href="../../dd/d98/classback_end_1_1turtle_1_1_turtle_properties.html#a09adedf2b4333b1fbc10d7406d0c5974" target="_top" xlink:title="backEnd.turtle.TurtleProperties.get\lOrientation">
<polygon fill="white" stroke="black" points="402,-0 402,-30 584,-30 584,-0 402,-0"/>
<text text-anchor="start" x="410" y="-18" font-family="Helvetica,sans-Serif" font-size="10.00">backEnd.turtle.TurtleProperties.get</text>
<text text-anchor="middle" x="493" y="-7" font-family="Helvetica,sans-Serif" font-size="10.00">Orientation</text>
</a>
</g>
</g>
<!-- Node21&#45;&gt;Node26 -->
<g id="edge28" class="edge"><title>Node21&#45;&gt;Node26</title>
<path fill="none" stroke="midnightblue" d="M345.233,-298.972C353.105,-295.356 360.35,-290.502 366,-284 438.183,-200.919 328.766,-121.156 402,-39 402.753,-38.155 403.533,-37.3383 404.336,-36.5489"/>
<polygon fill="midnightblue" stroke="midnightblue" points="406.631,-39.1936 412.164,-30.1584 402.204,-33.7711 406.631,-39.1936"/>
</g>
<!-- Node27 -->
<g id="node27" class="node"><title>Node27</title>
<g id="a_node27"><a xlink:href="../../dd/d98/classback_end_1_1turtle_1_1_turtle_properties.html#a4ce7b5928dc4e0a92caf8f42b9f5e8e4" target="_top" xlink:title="backEnd.turtle.TurtleProperties.get\lIsPenDown">
<polygon fill="white" stroke="black" points="402,-490 402,-520 584,-520 584,-490 402,-490"/>
<text text-anchor="start" x="410" y="-508" font-family="Helvetica,sans-Serif" font-size="10.00">backEnd.turtle.TurtleProperties.get</text>
<text text-anchor="middle" x="493" y="-497" font-family="Helvetica,sans-Serif" font-size="10.00">IsPenDown</text>
</a>
</g>
</g>
<!-- Node21&#45;&gt;Node27 -->
<g id="edge29" class="edge"><title>Node21&#45;&gt;Node27</title>
<path fill="none" stroke="midnightblue" d="M287.408,-324.212C302.321,-357.727 342.655,-438.26 402,-480 404.719,-481.913 407.58,-483.679 410.542,-485.311"/>
<polygon fill="midnightblue" stroke="midnightblue" points="409.176,-488.539 419.694,-489.812 412.265,-482.258 409.176,-488.539"/>
</g>
<!-- Node28 -->
<g id="node28" class="node"><title>Node28</title>
<g id="a_node28"><a xlink:href="../../dd/d98/classback_end_1_1turtle_1_1_turtle_properties.html#a11577b92931e41f2cda751087ce353a9" target="_top" xlink:title="backEnd.turtle.TurtleProperties.get\lLinesCleared">
<polygon fill="white" stroke="black" points="402,-441 402,-471 584,-471 584,-441 402,-441"/>
<text text-anchor="start" x="410" y="-459" font-family="Helvetica,sans-Serif" font-size="10.00">backEnd.turtle.TurtleProperties.get</text>
<text text-anchor="middle" x="493" y="-448" font-family="Helvetica,sans-Serif" font-size="10.00">LinesCleared</text>
</a>
</g>
</g>
<!-- Node21&#45;&gt;Node28 -->
<g id="edge30" class="edge"><title>Node21&#45;&gt;Node28</title>
<path fill="none" stroke="midnightblue" d="M291.836,-324.247C311.041,-350.137 353.618,-402.637 402,-431 405.699,-433.168 409.593,-435.155 413.604,-436.975"/>
<polygon fill="midnightblue" stroke="midnightblue" points="412.556,-440.33 423.135,-440.926 415.237,-433.864 412.556,-440.33"/>
</g>
<!-- Node29 -->
<g id="node29" class="node"><title>Node29</title>
<g id="a_node29"><a xlink:href="../../dd/d98/classback_end_1_1turtle_1_1_turtle_properties.html#a4dd7cee842b46c21aa71d0965d6c389d" target="_top" xlink:title="backEnd.turtle.TurtleProperties.get\lVisibility">
<polygon fill="white" stroke="black" points="402,-392 402,-422 584,-422 584,-392 402,-392"/>
<text text-anchor="start" x="410" y="-410" font-family="Helvetica,sans-Serif" font-size="10.00">backEnd.turtle.TurtleProperties.get</text>
<text text-anchor="middle" x="493" y="-399" font-family="Helvetica,sans-Serif" font-size="10.00">Visibility</text>
</a>
</g>
</g>
<!-- Node21&#45;&gt;Node29 -->
<g id="edge31" class="edge"><title>Node21&#45;&gt;Node29</title>
<path fill="none" stroke="midnightblue" d="M301.906,-324.042C325.304,-340.285 364.824,-365.979 402,-382 407.668,-384.443 413.641,-386.712 419.702,-388.805"/>
<polygon fill="midnightblue" stroke="midnightblue" points="418.674,-392.151 429.267,-391.949 420.86,-385.501 418.674,-392.151"/>
</g>
<!-- Node30 -->
<g id="node30" class="node"><title>Node30</title>
<g id="a_node30"><a xlink:href="../../dd/d98/classback_end_1_1turtle_1_1_turtle_properties.html#ac5a8fb9741a62254526df94664357507" target="_top" xlink:title="backEnd.turtle.TurtleProperties.get\lStampCount">
<polygon fill="white" stroke="black" points="402,-343 402,-373 584,-373 584,-343 402,-343"/>
<text text-anchor="start" x="410" y="-361" font-family="Helvetica,sans-Serif" font-size="10.00">backEnd.turtle.TurtleProperties.get</text>
<text text-anchor="middle" x="493" y="-350" font-family="Helvetica,sans-Serif" font-size="10.00">StampCount</text>
</a>
</g>
</g>
<!-- Node21&#45;&gt;Node30 -->
<g id="edge32" class="edge"><title>Node21&#45;&gt;Node30</title>
<path fill="none" stroke="midnightblue" d="M345.166,-323.901C367.869,-329.173 393.606,-335.15 417.12,-340.611"/>
<polygon fill="midnightblue" stroke="midnightblue" points="416.514,-344.063 427.047,-342.916 418.098,-337.245 416.514,-344.063"/>
</g>
<!-- Node31 -->
<g id="node31" class="node"><title>Node31</title>
<g id="a_node31"><a xlink:href="../../dd/d98/classback_end_1_1turtle_1_1_turtle_properties.html#a9556cab3d80da6af9c6a72736132e8af" target="_top" xlink:title="backEnd.turtle.TurtleProperties.get\lPenColorIndex">
<polygon fill="white" stroke="black" points="402,-294 402,-324 584,-324 584,-294 402,-294"/>
<text text-anchor="start" x="410" y="-312" font-family="Helvetica,sans-Serif" font-size="10.00">backEnd.turtle.TurtleProperties.get</text>
<text text-anchor="middle" x="493" y="-301" font-family="Helvetica,sans-Serif" font-size="10.00">PenColorIndex</text>
</a>
</g>
</g>
<!-- Node21&#45;&gt;Node31 -->
<g id="edge33" class="edge"><title>Node21&#45;&gt;Node31</title>
<path fill="none" stroke="midnightblue" d="M345.166,-309C359.787,-309 375.665,-309 391.398,-309"/>
<polygon fill="midnightblue" stroke="midnightblue" points="391.701,-312.5 401.701,-309 391.701,-305.5 391.701,-312.5"/>
</g>
<!-- Node32 -->
<g id="node32" class="node"><title>Node32</title>
<g id="a_node32"><a xlink:href="../../dd/d98/classback_end_1_1turtle_1_1_turtle_properties.html#a7c3d5001737c3c03c94a9bce97bd800e" target="_top" xlink:title="backEnd.turtle.TurtleProperties.get\lPenSize">
<polygon fill="white" stroke="black" points="402,-245 402,-275 584,-275 584,-245 402,-245"/>
<text text-anchor="start" x="410" y="-263" font-family="Helvetica,sans-Serif" font-size="10.00">backEnd.turtle.TurtleProperties.get</text>
<text text-anchor="middle" x="493" y="-252" font-family="Helvetica,sans-Serif" font-size="10.00">PenSize</text>
</a>
</g>
</g>
<!-- Node21&#45;&gt;Node32 -->
<g id="edge34" class="edge"><title>Node21&#45;&gt;Node32</title>
<path fill="none" stroke="midnightblue" d="M345.166,-294.099C367.869,-288.827 393.606,-282.85 417.12,-277.389"/>
<polygon fill="midnightblue" stroke="midnightblue" points="418.098,-280.755 427.047,-275.084 416.514,-273.937 418.098,-280.755"/>
</g>
<!-- Node33 -->
<g id="node33" class="node"><title>Node33</title>
<g id="a_node33"><a xlink:href="../../dd/d98/classback_end_1_1turtle_1_1_turtle_properties.html#a191499690c902bb5dbc8f1ed7e5373f9" target="_top" xlink:title="backEnd.turtle.TurtleProperties.get\lShapeIndex">
<polygon fill="white" stroke="black" points="402,-196 402,-226 584,-226 584,-196 402,-196"/>
<text text-anchor="start" x="410" y="-214" font-family="Helvetica,sans-Serif" font-size="10.00">backEnd.turtle.TurtleProperties.get</text>
<text text-anchor="middle" x="493" y="-203" font-family="Helvetica,sans-Serif" font-size="10.00">ShapeIndex</text>
</a>
</g>
</g>
<!-- Node21&#45;&gt;Node33 -->
<g id="edge35" class="edge"><title>Node21&#45;&gt;Node33</title>
<path fill="none" stroke="midnightblue" d="M345.307,-295.067C352.624,-292.061 359.703,-288.416 366,-284 388.125,-268.484 379.679,-250.234 402,-235 404.379,-233.376 406.863,-231.862 409.425,-230.451"/>
<polygon fill="midnightblue" stroke="midnightblue" points="410.974,-233.589 418.402,-226.035 407.884,-227.308 410.974,-233.589"/>
</g>
<!-- Node34 -->
<g id="node34" class="node"><title>Node34</title>
<g id="a_node34"><a xlink:href="../../dd/d98/classback_end_1_1turtle_1_1_turtle_properties.html#a88c373084e3eea7099baa8f3a7035b96" target="_top" xlink:title="backEnd.turtle.TurtleProperties.get\lActivity">
<polygon fill="white" stroke="black" points="402,-147 402,-177 584,-177 584,-147 402,-147"/>
<text text-anchor="start" x="410" y="-165" font-family="Helvetica,sans-Serif" font-size="10.00">backEnd.turtle.TurtleProperties.get</text>
<text text-anchor="middle" x="493" y="-154" font-family="Helvetica,sans-Serif" font-size="10.00">Activity</text>
</a>
</g>
</g>
<!-- Node21&#45;&gt;Node34 -->
<g id="edge36" class="edge"><title>Node21&#45;&gt;Node34</title>
<path fill="none" stroke="midnightblue" d="M345.351,-297.281C352.918,-293.907 360.048,-289.571 366,-284 399.875,-252.29 367.724,-217.277 402,-186 403.157,-184.944 404.356,-183.934 405.591,-182.967"/>
<polygon fill="midnightblue" stroke="midnightblue" points="407.852,-185.665 414.221,-177.199 403.962,-179.846 407.852,-185.665"/>
</g>
<!-- Node23 -->
<g id="node23" class="node"><title>Node23</title>
<g id="a_node23"><a xlink:href="../../de/d6c/classback_end_1_1turtle_1_1_turtle_point.html#aab69296ace249631f5145d1f939b674b" target="_top" xlink:title="backEnd.turtle.TurtlePoint.get\lBindableX">
<polygon fill="white" stroke="black" points="620.5,-98 620.5,-128 777.5,-128 777.5,-98 620.5,-98"/>
<text text-anchor="start" x="628.5" y="-116" font-family="Helvetica,sans-Serif" font-size="10.00">backEnd.turtle.TurtlePoint.get</text>
<text text-anchor="middle" x="699" y="-105" font-family="Helvetica,sans-Serif" font-size="10.00">BindableX</text>
</a>
</g>
</g>
<!-- Node22&#45;&gt;Node23 -->
<g id="edge25" class="edge"><title>Node22&#45;&gt;Node23</title>
<path fill="none" stroke="midnightblue" d="M584.071,-113C592.74,-113 601.526,-113 610.173,-113"/>
<polygon fill="midnightblue" stroke="midnightblue" points="610.244,-116.5 620.244,-113 610.244,-109.5 610.244,-116.5"/>
</g>
<!-- Node25 -->
<g id="node25" class="node"><title>Node25</title>
<g id="a_node25"><a xlink:href="../../de/d6c/classback_end_1_1turtle_1_1_turtle_point.html#a0ca1a9c836b28916daf2de5b6f0ecbf9" target="_top" xlink:title="backEnd.turtle.TurtlePoint.get\lBindableY">
<polygon fill="white" stroke="black" points="620.5,-49 620.5,-79 777.5,-79 777.5,-49 620.5,-49"/>
<text text-anchor="start" x="628.5" y="-67" font-family="Helvetica,sans-Serif" font-size="10.00">backEnd.turtle.TurtlePoint.get</text>
<text text-anchor="middle" x="699" y="-56" font-family="Helvetica,sans-Serif" font-size="10.00">BindableY</text>
</a>
</g>
</g>
<!-- Node24&#45;&gt;Node25 -->
<g id="edge27" class="edge"><title>Node24&#45;&gt;Node25</title>
<path fill="none" stroke="midnightblue" d="M584.071,-64C592.74,-64 601.526,-64 610.173,-64"/>
<polygon fill="midnightblue" stroke="midnightblue" points="610.244,-67.5001 620.244,-64 610.244,-60.5001 610.244,-67.5001"/>
</g>
</g>
</svg>
