<?xml version="1.0" encoding="UTF-8" standalone="no"?>
<!DOCTYPE svg PUBLIC "-//W3C//DTD SVG 1.1//EN"
 "http://www.w3.org/Graphics/SVG/1.1/DTD/svg11.dtd">
<!-- Generated by graphviz version 2.36.0 (20140111.2315)
 -->
<!-- Title: frontEnd.TurtleView.addXPositionListener Pages: 1 -->
<svg width="564pt" height="116pt"
 viewBox="0.00 0.00 564.00 116.00" xmlns="http://www.w3.org/2000/svg" xmlns:xlink="http://www.w3.org/1999/xlink">
<g id="graph0" class="graph" transform="scale(1 1) rotate(0) translate(4 112)">
<title>frontEnd.TurtleView.addXPositionListener</title>
<polygon fill="white" stroke="none" points="-4,4 -4,-112 560,-112 560,4 -4,4"/>
<!-- Node1 -->
<g id="node1" class="node"><title>Node1</title>
<polygon fill="#bfbfbf" stroke="black" points="0.5,-39 0.5,-69 171.5,-69 171.5,-39 0.5,-39"/>
<text text-anchor="start" x="8.5" y="-57" font-family="Helvetica,sans-Serif" font-size="10.00">frontEnd.TurtleView.addXPosition</text>
<text text-anchor="middle" x="86" y="-46" font-family="Helvetica,sans-Serif" font-size="10.00">Listener</text>
</g>
<!-- Node2 -->
<g id="node2" class="node"><title>Node2</title>
<g id="a_node2"><a xlink:href="../../dc/dcd/classfront_end_1_1_turtle_view.html#aee80ac929368e182c39dbd93e9ce6e9b" target="_top" xlink:title="frontEnd.TurtleView.drawLine">
<polygon fill="white" stroke="black" points="210,-88.5 210,-107.5 362,-107.5 362,-88.5 210,-88.5"/>
<text text-anchor="middle" x="286" y="-95.5" font-family="Helvetica,sans-Serif" font-size="10.00">frontEnd.TurtleView.drawLine</text>
</a>
</g>
</g>
<!-- Node1&#45;&gt;Node2 -->
<g id="edge1" class="edge"><title>Node1&#45;&gt;Node2</title>
<path fill="none" stroke="midnightblue" d="M154.587,-69.0192C179.975,-74.6612 208.439,-80.9864 232.281,-86.2847"/>
<polygon fill="midnightblue" stroke="midnightblue" points="231.673,-89.7349 242.194,-88.4876 233.192,-82.9015 231.673,-89.7349"/>
</g>
<!-- Node4 -->
<g id="node4" class="node"><title>Node4</title>
<g id="a_node4"><a xlink:href="../../dc/dcd/classfront_end_1_1_turtle_view.html#aa16863ff9139b631c8974950d00a2241" target="_top" xlink:title="frontEnd.TurtleView.facing\lHorizontal">
<polygon fill="white" stroke="black" points="217,-39 217,-69 355,-69 355,-39 217,-39"/>
<text text-anchor="start" x="225" y="-57" font-family="Helvetica,sans-Serif" font-size="10.00">frontEnd.TurtleView.facing</text>
<text text-anchor="middle" x="286" y="-46" font-family="Helvetica,sans-Serif" font-size="10.00">Horizontal</text>
</a>
</g>
</g>
<!-- Node1&#45;&gt;Node4 -->
<g id="edge3" class="edge"><title>Node1&#45;&gt;Node4</title>
<path fill="none" stroke="midnightblue" d="M171.544,-54C183.251,-54 195.233,-54 206.817,-54"/>
<polygon fill="midnightblue" stroke="midnightblue" points="206.877,-57.5001 216.877,-54 206.877,-50.5001 206.877,-57.5001"/>
</g>
<!-- Node5 -->
<g id="node5" class="node"><title>Node5</title>
<g id="a_node5"><a xlink:href="../../dc/dcd/classfront_end_1_1_turtle_view.html#a4e435f8e11193456725fa51f7c19ab24" target="_top" xlink:title="frontEnd.TurtleView.setTurtleX">
<polygon fill="white" stroke="black" points="208,-0.5 208,-19.5 364,-19.5 364,-0.5 208,-0.5"/>
<text text-anchor="middle" x="286" y="-7.5" font-family="Helvetica,sans-Serif" font-size="10.00">frontEnd.TurtleView.setTurtleX</text>
</a>
</g>
</g>
<!-- Node1&#45;&gt;Node5 -->
<g id="edge4" class="edge"><title>Node1&#45;&gt;Node5</title>
<path fill="none" stroke="midnightblue" d="M154.587,-38.9808C179.975,-33.3388 208.439,-27.0136 232.281,-21.7153"/>
<polygon fill="midnightblue" stroke="midnightblue" points="233.192,-25.0985 242.194,-19.5124 231.673,-18.2651 233.192,-25.0985"/>
</g>
<!-- Node3 -->
<g id="node3" class="node"><title>Node3</title>
<g id="a_node3"><a xlink:href="../../df/d96/interfacedrawer_1_1_drawer.html#a5d86e4bccd77ec6b33006bcc003d0315" target="_top" xlink:title="drawer.Drawer.makeLine">
<polygon fill="white" stroke="black" points="411,-88.5 411,-107.5 545,-107.5 545,-88.5 411,-88.5"/>
<text text-anchor="middle" x="478" y="-95.5" font-family="Helvetica,sans-Serif" font-size="10.00">drawer.Drawer.makeLine</text>
</a>
</g>
</g>
<!-- Node2&#45;&gt;Node3 -->
<g id="edge2" class="edge"><title>Node2&#45;&gt;Node3</title>
<path fill="none" stroke="midnightblue" d="M362.093,-98C374.779,-98 387.962,-98 400.679,-98"/>
<polygon fill="midnightblue" stroke="midnightblue" points="400.76,-101.5 410.76,-98 400.76,-94.5001 400.76,-101.5"/>
</g>
<!-- Node6 -->
<g id="node6" class="node"><title>Node6</title>
<g id="a_node6"><a xlink:href="../../dc/dcd/classfront_end_1_1_turtle_view.html#af43ab74822d93fd8adcef1a11fb1e930" target="_top" xlink:title="frontEnd.TurtleView.getImage">
<polygon fill="white" stroke="black" points="400.5,-0.5 400.5,-19.5 555.5,-19.5 555.5,-0.5 400.5,-0.5"/>
<text text-anchor="middle" x="478" y="-7.5" font-family="Helvetica,sans-Serif" font-size="10.00">frontEnd.TurtleView.getImage</text>
</a>
</g>
</g>
<!-- Node5&#45;&gt;Node6 -->
<g id="edge5" class="edge"><title>Node5&#45;&gt;Node6</title>
<path fill="none" stroke="midnightblue" d="M364.006,-10C372.583,-10 381.362,-10 390.051,-10"/>
<polygon fill="midnightblue" stroke="midnightblue" points="390.193,-13.5001 400.193,-10 390.193,-6.5001 390.193,-13.5001"/>
</g>
</g>
</svg>
