<?xml version="1.0" encoding="UTF-8" standalone="no"?>
<!DOCTYPE svg PUBLIC "-//W3C//DTD SVG 1.1//EN"
 "http://www.w3.org/Graphics/SVG/1.1/DTD/svg11.dtd">
<!-- Generated by graphviz version 2.36.0 (20140111.2315)
 -->
<!-- Title: frontEnd.TurtleView.setImage Pages: 1 -->
<svg width="1376pt" height="87pt"
 viewBox="0.00 0.00 1376.00 87.00" xmlns="http://www.w3.org/2000/svg" xmlns:xlink="http://www.w3.org/1999/xlink">
<g id="graph0" class="graph" transform="scale(1 1) rotate(0) translate(4 83)">
<title>frontEnd.TurtleView.setImage</title>
<polygon fill="white" stroke="none" points="-4,4 -4,-83 1372,-83 1372,4 -4,4"/>
<!-- Node1 -->
<g id="node1" class="node"><title>Node1</title>
<polygon fill="#bfbfbf" stroke="black" points="0.5,-29.5 0.5,-48.5 155.5,-48.5 155.5,-29.5 0.5,-29.5"/>
<text text-anchor="middle" x="78" y="-36.5" font-family="Helvetica,sans-Serif" font-size="10.00">frontEnd.TurtleView.setImage</text>
</g>
<!-- Node2 -->
<g id="node2" class="node"><title>Node2</title>
<g id="a_node2"><a xlink:href="../../dc/dcd/classfront_end_1_1_turtle_view.html#afc9da118df25f14596f6a1efc368d5e4" target="_top" xlink:title="frontEnd.TurtleView.addShape\lIndexListener">
<polygon fill="white" stroke="black" points="193,-49 193,-79 351,-79 351,-49 193,-49"/>
<text text-anchor="start" x="201" y="-67" font-family="Helvetica,sans-Serif" font-size="10.00">frontEnd.TurtleView.addShape</text>
<text text-anchor="middle" x="272" y="-56" font-family="Helvetica,sans-Serif" font-size="10.00">IndexListener</text>
</a>
</g>
</g>
<!-- Node1&#45;&gt;Node2 -->
<g id="edge1" class="edge"><title>Node1&#45;&gt;Node2</title>
<path fill="none" stroke="midnightblue" d="M162.249,-49.8398C172.447,-51.1675 182.839,-52.5207 192.956,-53.838"/>
<polygon fill="midnightblue" stroke="midnightblue" points="162.503,-46.3433 152.135,-48.5227 161.599,-53.2847 162.503,-46.3433"/>
</g>
<!-- Node5 -->
<g id="node5" class="node"><title>Node5</title>
<g id="a_node5"><a xlink:href="../../d5/df1/classfront_end_1_1_turtle_canvas.html#a4c8d20e109a3445a41c1c4a02928ad5c" target="_top" xlink:title="frontEnd.TurtleCanvas.change\lTurtleImage">
<polygon fill="white" stroke="black" points="192.5,-0 192.5,-30 351.5,-30 351.5,-0 192.5,-0"/>
<text text-anchor="start" x="200.5" y="-18" font-family="Helvetica,sans-Serif" font-size="10.00">frontEnd.TurtleCanvas.change</text>
<text text-anchor="middle" x="272" y="-7" font-family="Helvetica,sans-Serif" font-size="10.00">TurtleImage</text>
</a>
</g>
</g>
<!-- Node1&#45;&gt;Node5 -->
<g id="edge4" class="edge"><title>Node1&#45;&gt;Node5</title>
<path fill="none" stroke="midnightblue" d="M165.292,-28.2136C174.325,-27.0844 183.474,-25.9408 192.415,-24.8232"/>
<polygon fill="midnightblue" stroke="midnightblue" points="164.648,-24.7667 155.159,-29.4801 165.516,-31.7126 164.648,-24.7667"/>
</g>
<!-- Node3 -->
<g id="node3" class="node"><title>Node3</title>
<g id="a_node3"><a xlink:href="../../dc/dcd/classfront_end_1_1_turtle_view.html#a8a128529e6c726fb58825bfa0794b239" target="_top" xlink:title="frontEnd.TurtleView.addListeners">
<polygon fill="white" stroke="black" points="388.5,-54.5 388.5,-73.5 559.5,-73.5 559.5,-54.5 388.5,-54.5"/>
<text text-anchor="middle" x="474" y="-61.5" font-family="Helvetica,sans-Serif" font-size="10.00">frontEnd.TurtleView.addListeners</text>
</a>
</g>
</g>
<!-- Node2&#45;&gt;Node3 -->
<g id="edge2" class="edge"><title>Node2&#45;&gt;Node3</title>
<path fill="none" stroke="midnightblue" d="M361.246,-64C370.22,-64 379.322,-64 388.257,-64"/>
<polygon fill="midnightblue" stroke="midnightblue" points="361.185,-60.5001 351.185,-64 361.184,-67.5001 361.185,-60.5001"/>
</g>
<!-- Node4 -->
<g id="node4" class="node"><title>Node4</title>
<g id="a_node4"><a xlink:href="../../dc/dcd/classfront_end_1_1_turtle_view.html#a68db2241e0b2e23e1894492f87975e1b" target="_top" xlink:title="frontEnd.TurtleView.TurtleView">
<polygon fill="white" stroke="black" points="596.5,-54.5 596.5,-73.5 753.5,-73.5 753.5,-54.5 596.5,-54.5"/>
<text text-anchor="middle" x="675" y="-61.5" font-family="Helvetica,sans-Serif" font-size="10.00">frontEnd.TurtleView.TurtleView</text>
</a>
</g>
</g>
<!-- Node3&#45;&gt;Node4 -->
<g id="edge3" class="edge"><title>Node3&#45;&gt;Node4</title>
<path fill="none" stroke="midnightblue" d="M569.714,-64C578.633,-64 587.603,-64 596.336,-64"/>
<polygon fill="midnightblue" stroke="midnightblue" points="569.683,-60.5001 559.682,-64 569.682,-67.5001 569.683,-60.5001"/>
</g>
<!-- Node6 -->
<g id="node6" class="node"><title>Node6</title>
<g id="a_node6"><a xlink:href="../../d8/d1f/classfront_end_1_1_view.html#ae7a2f6e6f22069bcaaf142dc37349dee" target="_top" xlink:title="frontEnd.View.changeTurtle\lImage">
<polygon fill="white" stroke="black" points="401.5,-0 401.5,-30 546.5,-30 546.5,-0 401.5,-0"/>
<text text-anchor="start" x="409.5" y="-18" font-family="Helvetica,sans-Serif" font-size="10.00">frontEnd.View.changeTurtle</text>
<text text-anchor="middle" x="474" y="-7" font-family="Helvetica,sans-Serif" font-size="10.00">Image</text>
</a>
</g>
</g>
<!-- Node5&#45;&gt;Node6 -->
<g id="edge5" class="edge"><title>Node5&#45;&gt;Node6</title>
<path fill="none" stroke="midnightblue" d="M361.833,-15C375.096,-15 388.625,-15 401.469,-15"/>
<polygon fill="midnightblue" stroke="midnightblue" points="361.758,-11.5001 351.758,-15 361.758,-18.5001 361.758,-11.5001"/>
</g>
<!-- Node7 -->
<g id="node7" class="node"><title>Node7</title>
<g id="a_node7"><a xlink:href="../../d9/d49/classback_end_1_1_controller.html#a2d6485b9fa7484fee3a041924554fb2a" target="_top" xlink:title="backEnd.Controller.change\lTurtleImage">
<polygon fill="white" stroke="black" points="603,-0 603,-30 747,-30 747,-0 603,-0"/>
<text text-anchor="start" x="611" y="-18" font-family="Helvetica,sans-Serif" font-size="10.00">backEnd.Controller.change</text>
<text text-anchor="middle" x="675" y="-7" font-family="Helvetica,sans-Serif" font-size="10.00">TurtleImage</text>
</a>
</g>
</g>
<!-- Node6&#45;&gt;Node7 -->
<g id="edge6" class="edge"><title>Node6&#45;&gt;Node7</title>
<path fill="none" stroke="midnightblue" d="M556.968,-15C572.154,-15 587.903,-15 602.738,-15"/>
<polygon fill="midnightblue" stroke="midnightblue" points="556.562,-11.5001 546.562,-15 556.562,-18.5001 556.562,-11.5001"/>
</g>
<!-- Node8 -->
<g id="node8" class="node"><title>Node8</title>
<g id="a_node8"><a xlink:href="../../dd/d67/classtitle_panes_1_1_display_title_pane.html#aceb12213a01d9cb060a64441ea46ed0f" target="_top" xlink:title="titlePanes.DisplayTitlePane.openFile">
<polygon fill="white" stroke="black" points="790.5,-5.5 790.5,-24.5 975.5,-24.5 975.5,-5.5 790.5,-5.5"/>
<text text-anchor="middle" x="883" y="-12.5" font-family="Helvetica,sans-Serif" font-size="10.00">titlePanes.DisplayTitlePane.openFile</text>
</a>
</g>
</g>
<!-- Node7&#45;&gt;Node8 -->
<g id="edge7" class="edge"><title>Node7&#45;&gt;Node8</title>
<path fill="none" stroke="midnightblue" d="M757.457,-15C768.298,-15 779.472,-15 790.469,-15"/>
<polygon fill="midnightblue" stroke="midnightblue" points="757.182,-11.5001 747.182,-15 757.182,-18.5001 757.182,-11.5001"/>
</g>
<!-- Node9 -->
<g id="node9" class="node"><title>Node9</title>
<g id="a_node9"><a xlink:href="../../dd/d67/classtitle_panes_1_1_display_title_pane.html#a331ac295d6888c6c41f9ff49b1cea23d" target="_top" xlink:title="titlePanes.DisplayTitlePane.make\lTurtleImageChooser">
<polygon fill="white" stroke="black" points="1012.5,-0 1012.5,-30 1185.5,-30 1185.5,-0 1012.5,-0"/>
<text text-anchor="start" x="1020.5" y="-18" font-family="Helvetica,sans-Serif" font-size="10.00">titlePanes.DisplayTitlePane.make</text>
<text text-anchor="middle" x="1099" y="-7" font-family="Helvetica,sans-Serif" font-size="10.00">TurtleImageChooser</text>
</a>
</g>
</g>
<!-- Node8&#45;&gt;Node9 -->
<g id="edge8" class="edge"><title>Node8&#45;&gt;Node9</title>
<path fill="none" stroke="midnightblue" d="M985.691,-15C994.582,-15 1003.52,-15 1012.27,-15"/>
<polygon fill="midnightblue" stroke="midnightblue" points="985.687,-11.5001 975.687,-15 985.687,-18.5001 985.687,-11.5001"/>
</g>
<!-- Node10 -->
<g id="node10" class="node"><title>Node10</title>
<g id="a_node10"><a xlink:href="../../dd/d67/classtitle_panes_1_1_display_title_pane.html#ad07a1fec588c0ef5745d90ee1039143c" target="_top" xlink:title="titlePanes.DisplayTitlePane.\lDisplayTitlePane">
<polygon fill="white" stroke="black" points="1222,-0 1222,-30 1368,-30 1368,-0 1222,-0"/>
<text text-anchor="start" x="1230" y="-18" font-family="Helvetica,sans-Serif" font-size="10.00">titlePanes.DisplayTitlePane.</text>
<text text-anchor="middle" x="1295" y="-7" font-family="Helvetica,sans-Serif" font-size="10.00">DisplayTitlePane</text>
</a>
</g>
</g>
<!-- Node9&#45;&gt;Node10 -->
<g id="edge9" class="edge"><title>Node9&#45;&gt;Node10</title>
<path fill="none" stroke="midnightblue" d="M1195.89,-15C1204.62,-15 1213.37,-15 1221.84,-15"/>
<polygon fill="midnightblue" stroke="midnightblue" points="1195.66,-11.5001 1185.66,-15 1195.66,-18.5001 1195.66,-11.5001"/>
</g>
</g>
</svg>
