<?xml version="1.0" encoding="UTF-8" standalone="no"?>
<!DOCTYPE svg PUBLIC "-//W3C//DTD SVG 1.1//EN"
 "http://www.w3.org/Graphics/SVG/1.1/DTD/svg11.dtd">
<!-- Generated by graphviz version 2.36.0 (20140111.2315)
 -->
<!-- Title: frontEnd.TurtleView.changePenColor Pages: 1 -->
<!--zoomable 87 -->
<svg id="main" version="1.1" xmlns="http://www.w3.org/2000/svg" xmlns:xlink="http://www.w3.org/1999/xlink" xml:space="preserve" onload="init(evt)">
<style type="text/css"><![CDATA[
.edge:hover path { stroke: red; }
.edge:hover polygon { stroke: red; fill: red; }
]]></style>
<script type="text/javascript"><![CDATA[
var edges = document.getElementsByTagName('g');
if (edges && edges.length) {
  for (var i=0;i<edges.length;i++) {
    if (edges[i].id.substr(0,4)=='edge') {
      edges[i].setAttribute('class','edge');
    }
  }
}
]]></script>
        <defs>
                <circle id="rim" cx="0" cy="0" r="7"/>
                <circle id="rim2" cx="0" cy="0" r="3.5"/>
                <g id="zoomPlus">
                        <use xlink:href="#rim" fill="#404040">
                                <set attributeName="fill" to="#808080" begin="zoomplus.mouseover" end="zoomplus.mouseout"/>
                        </use>
                        <path d="M-4,0h8M0,-4v8" fill="none" stroke="white" stroke-width="1.5" pointer-events="none"/>
                </g>
                <g id="zoomMin">
                        <use xlink:href="#rim" fill="#404040">
                                <set attributeName="fill" to="#808080" begin="zoomminus.mouseover" end="zoomminus.mouseout"/>
                        </use>
                        <path d="M-4,0h8" fill="none" stroke="white" stroke-width="1.5" pointer-events="none"/>
                </g>
                <g id="dirArrow">
                        <path fill="none" stroke="white" stroke-width="1.5" d="M0,-3.0v7 M-2.5,-0.5L0,-3.0L2.5,-0.5"/>
                </g>
               <g id="resetDef">
                       <use xlink:href="#rim2" fill="#404040">
                               <set attributeName="fill" to="#808080" begin="reset.mouseover" end="reset.mouseout"/>
                       </use>
               </g>
        </defs>

<script type="text/javascript">
var viewWidth = 1144;
var viewHeight = 87;
var sectionId = 'dynsection-20';
</script>
<script xlink:href="../../svgpan.js"/>
<svg id="graph" class="graph">
<g id="viewport">
<title>frontEnd.TurtleView.changePenColor</title>
<polygon fill="white" stroke="none" points="-4,4 -4,-83 1140,-83 1140,4 -4,4"/>
<!-- Node1 -->
<g id="node1" class="node"><title>Node1</title>
<polygon fill="#bfbfbf" stroke="black" points="0.5,-24 0.5,-54 145.5,-54 145.5,-24 0.5,-24"/>
<text text-anchor="start" x="8.5" y="-42" font-family="Helvetica,sans-Serif" font-size="10.00">frontEnd.TurtleView.change</text>
<text text-anchor="middle" x="73" y="-31" font-family="Helvetica,sans-Serif" font-size="10.00">PenColor</text>
</g>
<!-- Node2 -->
<g id="node2" class="node"><title>Node2</title>
<g id="a_node2"><a xlink:href="../../dc/dcd/classfront_end_1_1_turtle_view.html#afe6f3f772a1a6b802fadd5a9189c32bc" target="_top" xlink:title="frontEnd.TurtleView.addPen\lColorIndexListener">
<polygon fill="white" stroke="black" points="189,-49 189,-79 335,-79 335,-49 189,-49"/>
<text text-anchor="start" x="197" y="-67" font-family="Helvetica,sans-Serif" font-size="10.00">frontEnd.TurtleView.addPen</text>
<text text-anchor="middle" x="262" y="-56" font-family="Helvetica,sans-Serif" font-size="10.00">ColorIndexListener</text>
</a>
</g>
</g>
<!-- Node1&#45;&gt;Node2 -->
<g id="edge1" class="edge"><title>Node1&#45;&gt;Node2</title>
<path fill="none" stroke="midnightblue" d="M155.783,-49.9336C166.78,-51.4037 177.995,-52.9031 188.81,-54.3489"/>
<polygon fill="midnightblue" stroke="midnightblue" points="156.14,-46.4502 145.764,-48.5942 155.212,-53.3885 156.14,-46.4502"/>
</g>
<!-- Node5 -->
<g id="node5" class="node"><title>Node5</title>
<g id="a_node5"><a xlink:href="../../d5/df1/classfront_end_1_1_turtle_canvas.html#a86f38e34d4034991241fdb889a7c4570" target="_top" xlink:title="frontEnd.TurtleCanvas.change\lPenColor">
<polygon fill="white" stroke="black" points="182.5,-0 182.5,-30 341.5,-30 341.5,-0 182.5,-0"/>
<text text-anchor="start" x="190.5" y="-18" font-family="Helvetica,sans-Serif" font-size="10.00">frontEnd.TurtleCanvas.change</text>
<text text-anchor="middle" x="262" y="-7" font-family="Helvetica,sans-Serif" font-size="10.00">PenColor</text>
</a>
</g>
</g>
<!-- Node1&#45;&gt;Node5 -->
<g id="edge4" class="edge"><title>Node1&#45;&gt;Node5</title>
<path fill="none" stroke="midnightblue" d="M155.945,-28.4829C164.688,-27.3609 173.567,-26.2213 182.271,-25.1043"/>
<polygon fill="midnightblue" stroke="midnightblue" points="155.237,-25.045 145.764,-29.7896 156.128,-31.9881 155.237,-25.045"/>
</g>
<!-- Node3 -->
<g id="node3" class="node"><title>Node3</title>
<g id="a_node3"><a xlink:href="../../dc/dcd/classfront_end_1_1_turtle_view.html#a8a128529e6c726fb58825bfa0794b239" target="_top" xlink:title="frontEnd.TurtleView.addListeners">
<polygon fill="white" stroke="black" points="378.5,-54.5 378.5,-73.5 549.5,-73.5 549.5,-54.5 378.5,-54.5"/>
<text text-anchor="middle" x="464" y="-61.5" font-family="Helvetica,sans-Serif" font-size="10.00">frontEnd.TurtleView.addListeners</text>
</a>
</g>
</g>
<!-- Node2&#45;&gt;Node3 -->
<g id="edge2" class="edge"><title>Node2&#45;&gt;Node3</title>
<path fill="none" stroke="midnightblue" d="M345.488,-64C356.322,-64 367.439,-64 378.309,-64"/>
<polygon fill="midnightblue" stroke="midnightblue" points="345.205,-60.5001 335.205,-64 345.205,-67.5001 345.205,-60.5001"/>
</g>
<!-- Node4 -->
<g id="node4" class="node"><title>Node4</title>
<g id="a_node4"><a xlink:href="../../dc/dcd/classfront_end_1_1_turtle_view.html#a68db2241e0b2e23e1894492f87975e1b" target="_top" xlink:title="frontEnd.TurtleView.TurtleView">
<polygon fill="white" stroke="black" points="586.5,-54.5 586.5,-73.5 743.5,-73.5 743.5,-54.5 586.5,-54.5"/>
<text text-anchor="middle" x="665" y="-61.5" font-family="Helvetica,sans-Serif" font-size="10.00">frontEnd.TurtleView.TurtleView</text>
</a>
</g>
</g>
<!-- Node3&#45;&gt;Node4 -->
<g id="edge3" class="edge"><title>Node3&#45;&gt;Node4</title>
<path fill="none" stroke="midnightblue" d="M559.714,-64C568.633,-64 577.603,-64 586.336,-64"/>
<polygon fill="midnightblue" stroke="midnightblue" points="559.683,-60.5001 549.682,-64 559.682,-67.5001 559.683,-60.5001"/>
</g>
<!-- Node6 -->
<g id="node6" class="node"><title>Node6</title>
<g id="a_node6"><a xlink:href="../../d8/d1f/classfront_end_1_1_view.html#a8a032e4ed880f3099ab4d04846221219" target="_top" xlink:title="frontEnd.View.changePenColor">
<polygon fill="white" stroke="black" points="383,-5.5 383,-24.5 545,-24.5 545,-5.5 383,-5.5"/>
<text text-anchor="middle" x="464" y="-12.5" font-family="Helvetica,sans-Serif" font-size="10.00">frontEnd.View.changePenColor</text>
</a>
</g>
</g>
<!-- Node5&#45;&gt;Node6 -->
<g id="edge5" class="edge"><title>Node5&#45;&gt;Node6</title>
<path fill="none" stroke="midnightblue" d="M351.927,-15C362.164,-15 372.557,-15 382.672,-15"/>
<polygon fill="midnightblue" stroke="midnightblue" points="351.758,-11.5001 341.758,-15 351.758,-18.5001 351.758,-11.5001"/>
</g>
<!-- Node7 -->
<g id="node7" class="node"><title>Node7</title>
<g id="a_node7"><a xlink:href="../../d9/d49/classback_end_1_1_controller.html#a06c74a6c4bb360e826758f33e0dd1eb6" target="_top" xlink:title="backEnd.Controller.change\lPenColor">
<polygon fill="white" stroke="black" points="593,-0 593,-30 737,-30 737,-0 593,-0"/>
<text text-anchor="start" x="601" y="-18" font-family="Helvetica,sans-Serif" font-size="10.00">backEnd.Controller.change</text>
<text text-anchor="middle" x="665" y="-7" font-family="Helvetica,sans-Serif" font-size="10.00">PenColor</text>
</a>
</g>
</g>
<!-- Node6&#45;&gt;Node7 -->
<g id="edge6" class="edge"><title>Node6&#45;&gt;Node7</title>
<path fill="none" stroke="midnightblue" d="M555.134,-15C567.743,-15 580.554,-15 592.748,-15"/>
<polygon fill="midnightblue" stroke="midnightblue" points="555.081,-11.5001 545.081,-15 555.081,-18.5001 555.081,-11.5001"/>
</g>
<!-- Node8 -->
<g id="node8" class="node"><title>Node8</title>
<g id="a_node8"><a xlink:href="../../da/d04/classtitle_panes_1_1_control_title_pane.html#a34e6959ea802f029e594f26b77b9e736" target="_top" xlink:title="titlePanes.ControlTitlePane.make\lPenColorBox">
<polygon fill="white" stroke="black" points="780.5,-0 780.5,-30 953.5,-30 953.5,-0 780.5,-0"/>
<text text-anchor="start" x="788.5" y="-18" font-family="Helvetica,sans-Serif" font-size="10.00">titlePanes.ControlTitlePane.make</text>
<text text-anchor="middle" x="867" y="-7" font-family="Helvetica,sans-Serif" font-size="10.00">PenColorBox</text>
</a>
</g>
</g>
<!-- Node7&#45;&gt;Node8 -->
<g id="edge7" class="edge"><title>Node7&#45;&gt;Node8</title>
<path fill="none" stroke="midnightblue" d="M747.401,-15C758.287,-15 769.477,-15 780.432,-15"/>
<polygon fill="midnightblue" stroke="midnightblue" points="747.076,-11.5001 737.076,-15 747.076,-18.5001 747.076,-11.5001"/>
</g>
<!-- Node9 -->
<g id="node9" class="node"><title>Node9</title>
<g id="a_node9"><a xlink:href="../../da/d04/classtitle_panes_1_1_control_title_pane.html#ad9d4431a2657a30fedae46e0c9093867" target="_top" xlink:title="titlePanes.ControlTitlePane.\lControlTitlePane">
<polygon fill="white" stroke="black" points="990,-0 990,-30 1136,-30 1136,-0 990,-0"/>
<text text-anchor="start" x="998" y="-18" font-family="Helvetica,sans-Serif" font-size="10.00">titlePanes.ControlTitlePane.</text>
<text text-anchor="middle" x="1063" y="-7" font-family="Helvetica,sans-Serif" font-size="10.00">ControlTitlePane</text>
</a>
</g>
</g>
<!-- Node8&#45;&gt;Node9 -->
<g id="edge8" class="edge"><title>Node8&#45;&gt;Node9</title>
<path fill="none" stroke="midnightblue" d="M963.887,-15C972.622,-15 981.368,-15 989.843,-15"/>
<polygon fill="midnightblue" stroke="midnightblue" points="963.656,-11.5001 953.656,-15 963.656,-18.5001 963.656,-11.5001"/>
</g>
</g>
</svg>
        <g id="navigator" transform="translate(0 0)" fill="#404254">
                <rect fill="#f2f5e9" fill-opacity="0.5" stroke="#606060" stroke-width=".5" x="0" y="0" width="60" height="60"/>
                <use id="zoomplus" xlink:href="#zoomPlus" x="17" y="9" onmousedown="handleZoom(evt,'in')"/>
                <use id="zoomminus" xlink:href="#zoomMin" x="42" y="9" onmousedown="handleZoom(evt,'out')"/>
                <use id="reset" xlink:href="#resetDef" x="30" y="36" onmousedown="handleReset()"/>
                <g id="arrowUp" xlink:href="#dirArrow" transform="translate(30 24)" onmousedown="handlePan(0,-1)">
                  <use xlink:href="#rim" fill="#404040">
                        <set attributeName="fill" to="#808080" begin="arrowUp.mouseover" end="arrowUp.mouseout"/>
                  </use>
                  <path fill="none" stroke="white" stroke-width="1.5" d="M0,-3.0v7 M-2.5,-0.5L0,-3.0L2.5,-0.5"/>
                </g>
                <g id="arrowRight" xlink:href="#dirArrow" transform="rotate(90) translate(36 -43)" onmousedown="handlePan(1,0)">
                  <use xlink:href="#rim" fill="#404040">
                        <set attributeName="fill" to="#808080" begin="arrowRight.mouseover" end="arrowRight.mouseout"/>
                  </use>
                  <path fill="none" stroke="white" stroke-width="1.5" d="M0,-3.0v7 M-2.5,-0.5L0,-3.0L2.5,-0.5"/>
                </g>
                <g id="arrowDown" xlink:href="#dirArrow" transform="rotate(180) translate(-30 -48)" onmousedown="handlePan(0,1)">
                  <use xlink:href="#rim" fill="#404040">
                        <set attributeName="fill" to="#808080" begin="arrowDown.mouseover" end="arrowDown.mouseout"/>
                  </use>
                  <path fill="none" stroke="white" stroke-width="1.5" d="M0,-3.0v7 M-2.5,-0.5L0,-3.0L2.5,-0.5"/>
                </g>
                <g id="arrowLeft" xlink:href="#dirArrow" transform="rotate(270) translate(-36 17)" onmousedown="handlePan(-1,0)">
                  <use xlink:href="#rim" fill="#404040">
                        <set attributeName="fill" to="#808080" begin="arrowLeft.mouseover" end="arrowLeft.mouseout"/>
                  </use>
                  <path fill="none" stroke="white" stroke-width="1.5" d="M0,-3.0v7 M-2.5,-0.5L0,-3.0L2.5,-0.5"/>
                </g>
        </g>
        <svg viewBox="0 0 15 15" width="100%" height="30px" preserveAspectRatio="xMaxYMin meet">
         <g id="arrow_out" transform="scale(0.3 0.3)">
          <a xlink:href="classfront_end_1_1_turtle_view_ae388cacab199b191dbb44419e9574e86_icgraph_org.svg" target="_base">
           <rect id="button" ry="5" rx="5" y="6" x="6" height="38" width="38"
                fill="#f2f5e9" fill-opacity="0.5" stroke="#606060" stroke-width="1.0"/>
           <path id="arrow"
             d="M 11.500037,31.436501 C 11.940474,20.09759 22.043105,11.32322 32.158766,21.979434 L 37.068811,17.246167 C 37.068811,17.246167 37.088388,32 37.088388,32 L 22.160133,31.978069 C 22.160133,31.978069 26.997745,27.140456 26.997745,27.140456 C 18.528582,18.264221 13.291696,25.230495 11.500037,31.436501 z"
             style="fill:#404040;"/>
          </a>
         </g>
        </svg>
</svg>
