<?xml version="1.0" encoding="UTF-8" standalone="no"?>
<!DOCTYPE svg PUBLIC "-//W3C//DTD SVG 1.1//EN"
 "http://www.w3.org/Graphics/SVG/1.1/DTD/svg11.dtd">
<!-- Generated by graphviz version 2.36.0 (20140111.2315)
 -->
<!-- Title: frontEnd.TurtleView.drawLine Pages: 1 -->
<svg width="770pt" height="87pt"
 viewBox="0.00 0.00 770.00 87.00" xmlns="http://www.w3.org/2000/svg" xmlns:xlink="http://www.w3.org/1999/xlink">
<g id="graph0" class="graph" transform="scale(1 1) rotate(0) translate(4 83)">
<title>frontEnd.TurtleView.drawLine</title>
<polygon fill="white" stroke="none" points="-4,4 -4,-83 766,-83 766,4 -4,4"/>
<!-- Node1 -->
<g id="node1" class="node"><title>Node1</title>
<polygon fill="#bfbfbf" stroke="black" points="0,-29.5 0,-48.5 152,-48.5 152,-29.5 0,-29.5"/>
<text text-anchor="middle" x="76" y="-36.5" font-family="Helvetica,sans-Serif" font-size="10.00">frontEnd.TurtleView.drawLine</text>
</g>
<!-- Node2 -->
<g id="node2" class="node"><title>Node2</title>
<g id="a_node2"><a xlink:href="../../dc/dcd/classfront_end_1_1_turtle_view.html#a9337ced43a44df7b4ee7352a0f812746" target="_top" xlink:title="frontEnd.TurtleView.addXPosition\lListener">
<polygon fill="white" stroke="black" points="188.5,-49 188.5,-79 359.5,-79 359.5,-49 188.5,-49"/>
<text text-anchor="start" x="196.5" y="-67" font-family="Helvetica,sans-Serif" font-size="10.00">frontEnd.TurtleView.addXPosition</text>
<text text-anchor="middle" x="274" y="-56" font-family="Helvetica,sans-Serif" font-size="10.00">Listener</text>
</a>
</g>
</g>
<!-- Node1&#45;&gt;Node2 -->
<g id="edge1" class="edge"><title>Node1&#45;&gt;Node2</title>
<path fill="none" stroke="midnightblue" d="M161.604,-49.7914C170.484,-50.924 179.513,-52.0757 188.393,-53.2083"/>
<polygon fill="midnightblue" stroke="midnightblue" points="162.021,-46.3162 151.658,-48.5227 161.135,-53.26 162.021,-46.3162"/>
</g>
<!-- Node5 -->
<g id="node5" class="node"><title>Node5</title>
<g id="a_node5"><a xlink:href="../../dc/dcd/classfront_end_1_1_turtle_view.html#a4bf2e008a42ea6ee574a53fe3f137425" target="_top" xlink:title="frontEnd.TurtleView.addYPosition\lListener">
<polygon fill="white" stroke="black" points="189,-0 189,-30 359,-30 359,-0 189,-0"/>
<text text-anchor="start" x="197" y="-18" font-family="Helvetica,sans-Serif" font-size="10.00">frontEnd.TurtleView.addYPosition</text>
<text text-anchor="middle" x="274" y="-7" font-family="Helvetica,sans-Serif" font-size="10.00">Listener</text>
</a>
</g>
</g>
<!-- Node1&#45;&gt;Node5 -->
<g id="edge4" class="edge"><title>Node1&#45;&gt;Node5</title>
<path fill="none" stroke="midnightblue" d="M162.426,-28.5397C171.189,-27.4666 180.089,-26.3768 188.839,-25.3055"/>
<polygon fill="midnightblue" stroke="midnightblue" points="161.719,-25.1001 152.218,-29.7896 162.569,-32.0482 161.719,-25.1001"/>
</g>
<!-- Node3 -->
<g id="node3" class="node"><title>Node3</title>
<g id="a_node3"><a xlink:href="../../dc/dcd/classfront_end_1_1_turtle_view.html#a8a128529e6c726fb58825bfa0794b239" target="_top" xlink:title="frontEnd.TurtleView.addListeners">
<polygon fill="white" stroke="black" points="396.5,-29.5 396.5,-48.5 567.5,-48.5 567.5,-29.5 396.5,-29.5"/>
<text text-anchor="middle" x="482" y="-36.5" font-family="Helvetica,sans-Serif" font-size="10.00">frontEnd.TurtleView.addListeners</text>
</a>
</g>
</g>
<!-- Node2&#45;&gt;Node3 -->
<g id="edge2" class="edge"><title>Node2&#45;&gt;Node3</title>
<path fill="none" stroke="midnightblue" d="M369.732,-52.5034C380.732,-51.1684 391.859,-49.8181 402.606,-48.5138"/>
<polygon fill="midnightblue" stroke="midnightblue" points="369.185,-49.044 359.68,-53.7233 370.029,-55.993 369.185,-49.044"/>
</g>
<!-- Node4 -->
<g id="node4" class="node"><title>Node4</title>
<g id="a_node4"><a xlink:href="../../dc/dcd/classfront_end_1_1_turtle_view.html#a68db2241e0b2e23e1894492f87975e1b" target="_top" xlink:title="frontEnd.TurtleView.TurtleView">
<polygon fill="white" stroke="black" points="604.5,-29.5 604.5,-48.5 761.5,-48.5 761.5,-29.5 604.5,-29.5"/>
<text text-anchor="middle" x="683" y="-36.5" font-family="Helvetica,sans-Serif" font-size="10.00">frontEnd.TurtleView.TurtleView</text>
</a>
</g>
</g>
<!-- Node3&#45;&gt;Node4 -->
<g id="edge3" class="edge"><title>Node3&#45;&gt;Node4</title>
<path fill="none" stroke="midnightblue" d="M577.714,-39C586.633,-39 595.603,-39 604.336,-39"/>
<polygon fill="midnightblue" stroke="midnightblue" points="577.683,-35.5001 567.682,-39 577.682,-42.5001 577.683,-35.5001"/>
</g>
<!-- Node5&#45;&gt;Node3 -->
<g id="edge5" class="edge"><title>Node5&#45;&gt;Node3</title>
<path fill="none" stroke="midnightblue" d="M369.081,-25.9609C379.129,-27.1316 389.292,-28.3155 399.182,-29.4678"/>
<polygon fill="midnightblue" stroke="midnightblue" points="369.423,-22.4772 359.085,-24.7963 368.613,-29.4301 369.423,-22.4772"/>
</g>
</g>
</svg>
