<?xml version="1.0" encoding="UTF-8" standalone="no"?>
<!DOCTYPE svg PUBLIC "-//W3C//DTD SVG 1.1//EN"
 "http://www.w3.org/Graphics/SVG/1.1/DTD/svg11.dtd">
<!-- Generated by graphviz version 2.36.0 (20140111.2315)
 -->
<!-- Title: frontEnd.TurtleView.bindProperties Pages: 1 -->
<svg width="550pt" height="528pt"
 viewBox="0.00 0.00 550.00 528.00" xmlns="http://www.w3.org/2000/svg" xmlns:xlink="http://www.w3.org/1999/xlink">
<g id="graph0" class="graph" transform="scale(1 1) rotate(0) translate(4 524)">
<title>frontEnd.TurtleView.bindProperties</title>
<polygon fill="white" stroke="none" points="-4,4 -4,-524 546,-524 546,4 -4,4"/>
<!-- Node1 -->
<g id="node1" class="node"><title>Node1</title>
<polygon fill="#bfbfbf" stroke="black" points="0,-245 0,-275 130,-275 130,-245 0,-245"/>
<text text-anchor="start" x="8" y="-263" font-family="Helvetica,sans-Serif" font-size="10.00">frontEnd.TurtleView.bind</text>
<text text-anchor="middle" x="65" y="-252" font-family="Helvetica,sans-Serif" font-size="10.00">Properties</text>
</g>
<!-- Node2 -->
<g id="node2" class="node"><title>Node2</title>
<g id="a_node2"><a xlink:href="../../dd/d98/classback_end_1_1turtle_1_1_turtle_properties.html#a88c373084e3eea7099baa8f3a7035b96" target="_top" xlink:title="backEnd.turtle.TurtleProperties.get\lActivity">
<polygon fill="white" stroke="black" points="166,-490 166,-520 348,-520 348,-490 166,-490"/>
<text text-anchor="start" x="174" y="-508" font-family="Helvetica,sans-Serif" font-size="10.00">backEnd.turtle.TurtleProperties.get</text>
<text text-anchor="middle" x="257" y="-497" font-family="Helvetica,sans-Serif" font-size="10.00">Activity</text>
</a>
</g>
</g>
<!-- Node1&#45;&gt;Node2 -->
<g id="edge1" class="edge"><title>Node1&#45;&gt;Node2</title>
<path fill="none" stroke="midnightblue" d="M68.3856,-275.179C75.4715,-315.076 100.16,-423.688 166,-480 167.995,-481.706 170.097,-483.297 172.286,-484.779"/>
<polygon fill="midnightblue" stroke="midnightblue" points="170.715,-487.916 181.108,-489.978 174.269,-481.885 170.715,-487.916"/>
</g>
<!-- Node3 -->
<g id="node3" class="node"><title>Node3</title>
<g id="a_node3"><a xlink:href="../../dd/d98/classback_end_1_1turtle_1_1_turtle_properties.html#a4ce7b5928dc4e0a92caf8f42b9f5e8e4" target="_top" xlink:title="backEnd.turtle.TurtleProperties.get\lIsPenDown">
<polygon fill="white" stroke="black" points="166,-441 166,-471 348,-471 348,-441 166,-441"/>
<text text-anchor="start" x="174" y="-459" font-family="Helvetica,sans-Serif" font-size="10.00">backEnd.turtle.TurtleProperties.get</text>
<text text-anchor="middle" x="257" y="-448" font-family="Helvetica,sans-Serif" font-size="10.00">IsPenDown</text>
</a>
</g>
</g>
<!-- Node1&#45;&gt;Node3 -->
<g id="edge2" class="edge"><title>Node1&#45;&gt;Node3</title>
<path fill="none" stroke="midnightblue" d="M70.5196,-275.194C81.2759,-308.672 111.643,-389.135 166,-431 168.349,-432.809 170.821,-434.487 173.387,-436.044"/>
<polygon fill="midnightblue" stroke="midnightblue" points="171.962,-439.251 182.431,-440.882 175.265,-433.079 171.962,-439.251"/>
</g>
<!-- Node4 -->
<g id="node4" class="node"><title>Node4</title>
<g id="a_node4"><a xlink:href="../../dd/d98/classback_end_1_1turtle_1_1_turtle_properties.html#a11577b92931e41f2cda751087ce353a9" target="_top" xlink:title="backEnd.turtle.TurtleProperties.get\lLinesCleared">
<polygon fill="white" stroke="black" points="166,-392 166,-422 348,-422 348,-392 166,-392"/>
<text text-anchor="start" x="174" y="-410" font-family="Helvetica,sans-Serif" font-size="10.00">backEnd.turtle.TurtleProperties.get</text>
<text text-anchor="middle" x="257" y="-399" font-family="Helvetica,sans-Serif" font-size="10.00">LinesCleared</text>
</a>
</g>
</g>
<!-- Node1&#45;&gt;Node4 -->
<g id="edge3" class="edge"><title>Node1&#45;&gt;Node4</title>
<path fill="none" stroke="midnightblue" d="M74.2882,-275.301C89.1536,-301.271 122.865,-353.889 166,-382 169.176,-384.07 172.522,-385.97 175.981,-387.714"/>
<polygon fill="midnightblue" stroke="midnightblue" points="174.809,-391.026 185.361,-391.977 177.705,-384.653 174.809,-391.026"/>
</g>
<!-- Node5 -->
<g id="node5" class="node"><title>Node5</title>
<g id="a_node5"><a xlink:href="../../dd/d98/classback_end_1_1turtle_1_1_turtle_properties.html#a09adedf2b4333b1fbc10d7406d0c5974" target="_top" xlink:title="backEnd.turtle.TurtleProperties.get\lOrientation">
<polygon fill="white" stroke="black" points="166,-343 166,-373 348,-373 348,-343 166,-343"/>
<text text-anchor="start" x="174" y="-361" font-family="Helvetica,sans-Serif" font-size="10.00">backEnd.turtle.TurtleProperties.get</text>
<text text-anchor="middle" x="257" y="-350" font-family="Helvetica,sans-Serif" font-size="10.00">Orientation</text>
</a>
</g>
</g>
<!-- Node1&#45;&gt;Node5 -->
<g id="edge4" class="edge"><title>Node1&#45;&gt;Node5</title>
<path fill="none" stroke="midnightblue" d="M82.8226,-275.258C101.762,-291.69 134.076,-317.549 166,-333 170.926,-335.384 176.118,-337.575 181.42,-339.58"/>
<polygon fill="midnightblue" stroke="midnightblue" points="180.452,-342.951 191.047,-342.994 182.792,-336.353 180.452,-342.951"/>
</g>
<!-- Node6 -->
<g id="node6" class="node"><title>Node6</title>
<g id="a_node6"><a xlink:href="../../dd/d98/classback_end_1_1turtle_1_1_turtle_properties.html#a9556cab3d80da6af9c6a72736132e8af" target="_top" xlink:title="backEnd.turtle.TurtleProperties.get\lPenColorIndex">
<polygon fill="white" stroke="black" points="166,-294 166,-324 348,-324 348,-294 166,-294"/>
<text text-anchor="start" x="174" y="-312" font-family="Helvetica,sans-Serif" font-size="10.00">backEnd.turtle.TurtleProperties.get</text>
<text text-anchor="middle" x="257" y="-301" font-family="Helvetica,sans-Serif" font-size="10.00">PenColorIndex</text>
</a>
</g>
</g>
<!-- Node1&#45;&gt;Node6 -->
<g id="edge5" class="edge"><title>Node1&#45;&gt;Node6</title>
<path fill="none" stroke="midnightblue" d="M124.297,-275.035C144.45,-280.232 167.206,-286.101 188.064,-291.48"/>
<polygon fill="midnightblue" stroke="midnightblue" points="187.256,-294.886 197.813,-293.994 189.004,-288.107 187.256,-294.886"/>
</g>
<!-- Node7 -->
<g id="node7" class="node"><title>Node7</title>
<g id="a_node7"><a xlink:href="../../dd/d98/classback_end_1_1turtle_1_1_turtle_properties.html#a7c3d5001737c3c03c94a9bce97bd800e" target="_top" xlink:title="backEnd.turtle.TurtleProperties.get\lPenSize">
<polygon fill="white" stroke="black" points="166,-245 166,-275 348,-275 348,-245 166,-245"/>
<text text-anchor="start" x="174" y="-263" font-family="Helvetica,sans-Serif" font-size="10.00">backEnd.turtle.TurtleProperties.get</text>
<text text-anchor="middle" x="257" y="-252" font-family="Helvetica,sans-Serif" font-size="10.00">PenSize</text>
</a>
</g>
</g>
<!-- Node1&#45;&gt;Node7 -->
<g id="edge6" class="edge"><title>Node1&#45;&gt;Node7</title>
<path fill="none" stroke="midnightblue" d="M130.06,-260C138.346,-260 146.984,-260 155.681,-260"/>
<polygon fill="midnightblue" stroke="midnightblue" points="155.901,-263.5 165.901,-260 155.901,-256.5 155.901,-263.5"/>
</g>
<!-- Node8 -->
<g id="node8" class="node"><title>Node8</title>
<g id="a_node8"><a xlink:href="../../dd/d98/classback_end_1_1turtle_1_1_turtle_properties.html#a191499690c902bb5dbc8f1ed7e5373f9" target="_top" xlink:title="backEnd.turtle.TurtleProperties.get\lShapeIndex">
<polygon fill="white" stroke="black" points="166,-196 166,-226 348,-226 348,-196 166,-196"/>
<text text-anchor="start" x="174" y="-214" font-family="Helvetica,sans-Serif" font-size="10.00">backEnd.turtle.TurtleProperties.get</text>
<text text-anchor="middle" x="257" y="-203" font-family="Helvetica,sans-Serif" font-size="10.00">ShapeIndex</text>
</a>
</g>
</g>
<!-- Node1&#45;&gt;Node8 -->
<g id="edge7" class="edge"><title>Node1&#45;&gt;Node8</title>
<path fill="none" stroke="midnightblue" d="M124.297,-244.965C144.45,-239.768 167.206,-233.899 188.064,-228.52"/>
<polygon fill="midnightblue" stroke="midnightblue" points="189.004,-231.893 197.813,-226.006 187.256,-225.114 189.004,-231.893"/>
</g>
<!-- Node9 -->
<g id="node9" class="node"><title>Node9</title>
<g id="a_node9"><a xlink:href="../../dd/d98/classback_end_1_1turtle_1_1_turtle_properties.html#ac5a8fb9741a62254526df94664357507" target="_top" xlink:title="backEnd.turtle.TurtleProperties.get\lStampCount">
<polygon fill="white" stroke="black" points="166,-147 166,-177 348,-177 348,-147 166,-147"/>
<text text-anchor="start" x="174" y="-165" font-family="Helvetica,sans-Serif" font-size="10.00">backEnd.turtle.TurtleProperties.get</text>
<text text-anchor="middle" x="257" y="-154" font-family="Helvetica,sans-Serif" font-size="10.00">StampCount</text>
</a>
</g>
</g>
<!-- Node1&#45;&gt;Node9 -->
<g id="edge8" class="edge"><title>Node1&#45;&gt;Node9</title>
<path fill="none" stroke="midnightblue" d="M82.8226,-244.742C101.762,-228.31 134.076,-202.451 166,-187 170.926,-184.616 176.118,-182.425 181.42,-180.42"/>
<polygon fill="midnightblue" stroke="midnightblue" points="182.792,-183.647 191.047,-177.006 180.452,-177.049 182.792,-183.647"/>
</g>
<!-- Node10 -->
<g id="node10" class="node"><title>Node10</title>
<g id="a_node10"><a xlink:href="../../dd/d98/classback_end_1_1turtle_1_1_turtle_properties.html#a4dd7cee842b46c21aa71d0965d6c389d" target="_top" xlink:title="backEnd.turtle.TurtleProperties.get\lVisibility">
<polygon fill="white" stroke="black" points="166,-98 166,-128 348,-128 348,-98 166,-98"/>
<text text-anchor="start" x="174" y="-116" font-family="Helvetica,sans-Serif" font-size="10.00">backEnd.turtle.TurtleProperties.get</text>
<text text-anchor="middle" x="257" y="-105" font-family="Helvetica,sans-Serif" font-size="10.00">Visibility</text>
</a>
</g>
</g>
<!-- Node1&#45;&gt;Node10 -->
<g id="edge9" class="edge"><title>Node1&#45;&gt;Node10</title>
<path fill="none" stroke="midnightblue" d="M74.2882,-244.699C89.1536,-218.729 122.865,-166.111 166,-138 169.176,-135.93 172.522,-134.03 175.981,-132.286"/>
<polygon fill="midnightblue" stroke="midnightblue" points="177.705,-135.347 185.361,-128.023 174.809,-128.974 177.705,-135.347"/>
</g>
<!-- Node11 -->
<g id="node11" class="node"><title>Node11</title>
<g id="a_node11"><a xlink:href="../../dd/d98/classback_end_1_1turtle_1_1_turtle_properties.html#aa8cf92a7f1534967d3e1a597b4d91b1b" target="_top" xlink:title="backEnd.turtle.TurtleProperties.get\lXPosition">
<polygon fill="white" stroke="black" points="166,-49 166,-79 348,-79 348,-49 166,-49"/>
<text text-anchor="start" x="174" y="-67" font-family="Helvetica,sans-Serif" font-size="10.00">backEnd.turtle.TurtleProperties.get</text>
<text text-anchor="middle" x="257" y="-56" font-family="Helvetica,sans-Serif" font-size="10.00">XPosition</text>
</a>
</g>
</g>
<!-- Node1&#45;&gt;Node11 -->
<g id="edge10" class="edge"><title>Node1&#45;&gt;Node11</title>
<path fill="none" stroke="midnightblue" d="M70.5196,-244.806C81.2759,-211.328 111.643,-130.865 166,-89 168.349,-87.1911 170.821,-85.513 173.387,-83.9563"/>
<polygon fill="midnightblue" stroke="midnightblue" points="175.265,-86.9213 182.431,-79.1176 171.962,-80.7492 175.265,-86.9213"/>
</g>
<!-- Node13 -->
<g id="node13" class="node"><title>Node13</title>
<g id="a_node13"><a xlink:href="../../dd/d98/classback_end_1_1turtle_1_1_turtle_properties.html#a897599812322db6073189c88a192eea3" target="_top" xlink:title="backEnd.turtle.TurtleProperties.get\lYPosition">
<polygon fill="white" stroke="black" points="166,-0 166,-30 348,-30 348,-0 166,-0"/>
<text text-anchor="start" x="174" y="-18" font-family="Helvetica,sans-Serif" font-size="10.00">backEnd.turtle.TurtleProperties.get</text>
<text text-anchor="middle" x="257" y="-7" font-family="Helvetica,sans-Serif" font-size="10.00">YPosition</text>
</a>
</g>
</g>
<!-- Node1&#45;&gt;Node13 -->
<g id="edge12" class="edge"><title>Node1&#45;&gt;Node13</title>
<path fill="none" stroke="midnightblue" d="M68.3856,-244.821C75.4715,-204.924 100.16,-96.3124 166,-40 167.995,-38.2938 170.097,-36.7033 172.286,-35.2209"/>
<polygon fill="midnightblue" stroke="midnightblue" points="174.269,-38.1145 181.108,-30.0219 170.715,-32.0839 174.269,-38.1145"/>
</g>
<!-- Node12 -->
<g id="node12" class="node"><title>Node12</title>
<g id="a_node12"><a xlink:href="../../de/d6c/classback_end_1_1turtle_1_1_turtle_point.html#aab69296ace249631f5145d1f939b674b" target="_top" xlink:title="backEnd.turtle.TurtlePoint.get\lBindableX">
<polygon fill="white" stroke="black" points="384.5,-49 384.5,-79 541.5,-79 541.5,-49 384.5,-49"/>
<text text-anchor="start" x="392.5" y="-67" font-family="Helvetica,sans-Serif" font-size="10.00">backEnd.turtle.TurtlePoint.get</text>
<text text-anchor="middle" x="463" y="-56" font-family="Helvetica,sans-Serif" font-size="10.00">BindableX</text>
</a>
</g>
</g>
<!-- Node11&#45;&gt;Node12 -->
<g id="edge11" class="edge"><title>Node11&#45;&gt;Node12</title>
<path fill="none" stroke="midnightblue" d="M348.071,-64C356.74,-64 365.526,-64 374.173,-64"/>
<polygon fill="midnightblue" stroke="midnightblue" points="374.244,-67.5001 384.244,-64 374.244,-60.5001 374.244,-67.5001"/>
</g>
<!-- Node14 -->
<g id="node14" class="node"><title>Node14</title>
<g id="a_node14"><a xlink:href="../../de/d6c/classback_end_1_1turtle_1_1_turtle_point.html#a0ca1a9c836b28916daf2de5b6f0ecbf9" target="_top" xlink:title="backEnd.turtle.TurtlePoint.get\lBindableY">
<polygon fill="white" stroke="black" points="384.5,-0 384.5,-30 541.5,-30 541.5,-0 384.5,-0"/>
<text text-anchor="start" x="392.5" y="-18" font-family="Helvetica,sans-Serif" font-size="10.00">backEnd.turtle.TurtlePoint.get</text>
<text text-anchor="middle" x="463" y="-7" font-family="Helvetica,sans-Serif" font-size="10.00">BindableY</text>
</a>
</g>
</g>
<!-- Node13&#45;&gt;Node14 -->
<g id="edge13" class="edge"><title>Node13&#45;&gt;Node14</title>
<path fill="none" stroke="midnightblue" d="M348.071,-15C356.74,-15 365.526,-15 374.173,-15"/>
<polygon fill="midnightblue" stroke="midnightblue" points="374.244,-18.5001 384.244,-15 374.244,-11.5001 374.244,-18.5001"/>
</g>
</g>
</svg>
