<?xml version="1.0" encoding="UTF-8" standalone="no"?>
<!DOCTYPE svg PUBLIC "-//W3C//DTD SVG 1.1//EN"
 "http://www.w3.org/Graphics/SVG/1.1/DTD/svg11.dtd">
<!-- Generated by graphviz version 2.36.0 (20140111.2315)
 -->
<!-- Title: titlePanes.HelpTitlePane Pages: 1 -->
<svg width="140pt" height="96pt"
 viewBox="0.00 0.00 140.00 96.00" xmlns="http://www.w3.org/2000/svg" xmlns:xlink="http://www.w3.org/1999/xlink">
<g id="graph0" class="graph" transform="scale(1 1) rotate(0) translate(4 92)">
<title>titlePanes.HelpTitlePane</title>
<polygon fill="white" stroke="none" points="-4,4 -4,-92 136,-92 136,4 -4,4"/>
<!-- Node1 -->
<g id="node1" class="node"><title>Node1</title>
<polygon fill="#bfbfbf" stroke="black" points="1.5,-0.5 1.5,-19.5 132.5,-19.5 132.5,-0.5 1.5,-0.5"/>
<text text-anchor="middle" x="67" y="-7.5" font-family="Helvetica,sans-Serif" font-size="10.00">titlePanes.HelpTitlePane</text>
</g>
<!-- Node2 -->
<g id="node2" class="node"><title>Node2</title>
<polygon fill="white" stroke="#bfbfbf" points="-0.5,-68.5 -0.5,-87.5 64.5,-87.5 64.5,-68.5 -0.5,-68.5"/>
<text text-anchor="middle" x="32" y="-75.5" font-family="Helvetica,sans-Serif" font-size="10.00">TitledPane</text>
</g>
<!-- Node2&#45;&gt;Node1 -->
<g id="edge1" class="edge"><title>Node2&#45;&gt;Node1</title>
<path fill="none" stroke="midnightblue" d="M41.4469,-59.1859C48.1995,-46.4523 56.9981,-29.8607 62.3115,-19.8411"/>
<polygon fill="midnightblue" stroke="midnightblue" points="38.1686,-57.8972 36.5756,-68.3717 44.3528,-61.1768 38.1686,-57.8972"/>
</g>
<!-- Node3 -->
<g id="node3" class="node"><title>Node3</title>
<polygon fill="white" stroke="#bfbfbf" points="82.5,-68.5 82.5,-87.5 123.5,-87.5 123.5,-68.5 82.5,-68.5"/>
<text text-anchor="middle" x="103" y="-75.5" font-family="Helvetica,sans-Serif" font-size="10.00">VBox</text>
</g>
<!-- Node3&#45;&gt;Node1 -->
<g id="edge2" class="edge"><title>Node3&#45;&gt;Node1</title>
<path fill="none" stroke="#9a32cd" stroke-dasharray="5,2" d="M93.4889,-59.563C86.5172,-46.7815 77.3418,-29.9599 71.8224,-19.8411"/>
<polygon fill="#9a32cd" stroke="#9a32cd" points="90.4324,-61.2687 98.2936,-68.3717 96.5777,-57.9167 90.4324,-61.2687"/>
<text text-anchor="middle" x="108" y="-41.5" font-family="Helvetica,sans-Serif" font-size="10.00"> myRoot</text>
</g>
</g>
</svg>
