<?xml version="1.0" encoding="UTF-8" standalone="no"?>
<!DOCTYPE svg PUBLIC "-//W3C//DTD SVG 1.1//EN"
 "http://www.w3.org/Graphics/SVG/1.1/DTD/svg11.dtd">
<!-- Generated by graphviz version 2.36.0 (20140111.2315)
 -->
<!-- Title: titlePanes.decorators.VScrollableDecorator Pages: 1 -->
<svg width="182pt" height="178pt"
 viewBox="0.00 0.00 182.00 178.00" xmlns="http://www.w3.org/2000/svg" xmlns:xlink="http://www.w3.org/1999/xlink">
<g id="graph0" class="graph" transform="scale(1 1) rotate(0) translate(4 174)">
<title>titlePanes.decorators.VScrollableDecorator</title>
<polygon fill="white" stroke="none" points="-4,4 -4,-174 178,-174 178,4 -4,4"/>
<!-- Node1 -->
<g id="node1" class="node"><title>Node1</title>
<polygon fill="#bfbfbf" stroke="black" points="0,-1 0,-31 174,-31 174,-1 0,-1"/>
<text text-anchor="start" x="8" y="-19" font-family="Helvetica,sans-Serif" font-size="10.00">titlePanes.decorators.VScrollable</text>
<text text-anchor="middle" x="87" y="-8" font-family="Helvetica,sans-Serif" font-size="10.00">Decorator</text>
</g>
<!-- Node2 -->
<g id="node2" class="node"><title>Node2</title>
<g id="a_node2"><a xlink:href="../../d9/d1e/classtitle_panes_1_1decorators_1_1_title_pane_decorator.html" target="_top" xlink:title="titlePanes.decorators.Title\lPaneDecorator">
<polygon fill="white" stroke="black" points="17,-71 17,-101 157,-101 157,-71 17,-71"/>
<text text-anchor="start" x="25" y="-89" font-family="Helvetica,sans-Serif" font-size="10.00">titlePanes.decorators.Title</text>
<text text-anchor="middle" x="87" y="-78" font-family="Helvetica,sans-Serif" font-size="10.00">PaneDecorator</text>
</a>
</g>
</g>
<!-- Node2&#45;&gt;Node1 -->
<g id="edge1" class="edge"><title>Node2&#45;&gt;Node1</title>
<path fill="none" stroke="midnightblue" d="M87,-60.7688C87,-50.8141 87,-39.6384 87,-31.0716"/>
<polygon fill="midnightblue" stroke="midnightblue" points="83.5001,-60.9103 87,-70.9104 90.5001,-60.9104 83.5001,-60.9103"/>
</g>
<!-- Node3 -->
<g id="node3" class="node"><title>Node3</title>
<polygon fill="white" stroke="#bfbfbf" points="54.5,-150.5 54.5,-169.5 119.5,-169.5 119.5,-150.5 54.5,-150.5"/>
<text text-anchor="middle" x="87" y="-157.5" font-family="Helvetica,sans-Serif" font-size="10.00">TitledPane</text>
</g>
<!-- Node3&#45;&gt;Node2 -->
<g id="edge2" class="edge"><title>Node3&#45;&gt;Node2</title>
<path fill="none" stroke="#9a32cd" stroke-dasharray="5,2" d="M87,-140.085C87,-127.915 87,-112.354 87,-101.232"/>
<polygon fill="#9a32cd" stroke="#9a32cd" points="83.5001,-140.458 87,-150.458 90.5001,-140.458 83.5001,-140.458"/>
<text text-anchor="middle" x="108" y="-123.5" font-family="Helvetica,sans-Serif" font-size="10.00"> myPane</text>
</g>
</g>
</svg>
