<?xml version="1.0" encoding="UTF-8" standalone="no"?>
<!DOCTYPE svg PUBLIC "-//W3C//DTD SVG 1.1//EN"
 "http://www.w3.org/Graphics/SVG/1.1/DTD/svg11.dtd">
<!-- Generated by graphviz version 2.36.0 (20140111.2315)
 -->
<!-- Title: titlePanes.ControlTitlePane.makePenColorBox Pages: 1 -->
<svg width="938pt" height="38pt"
 viewBox="0.00 0.00 938.00 38.00" xmlns="http://www.w3.org/2000/svg" xmlns:xlink="http://www.w3.org/1999/xlink">
<g id="graph0" class="graph" transform="scale(1 1) rotate(0) translate(4 34)">
<title>titlePanes.ControlTitlePane.makePenColorBox</title>
<polygon fill="white" stroke="none" points="-4,4 -4,-34 934,-34 934,4 -4,4"/>
<!-- Node1 -->
<g id="node1" class="node"><title>Node1</title>
<polygon fill="#bfbfbf" stroke="black" points="0.5,-0 0.5,-30 173.5,-30 173.5,-0 0.5,-0"/>
<text text-anchor="start" x="8.5" y="-18" font-family="Helvetica,sans-Serif" font-size="10.00">titlePanes.ControlTitlePane.make</text>
<text text-anchor="middle" x="87" y="-7" font-family="Helvetica,sans-Serif" font-size="10.00">PenColorBox</text>
</g>
<!-- Node2 -->
<g id="node2" class="node"><title>Node2</title>
<g id="a_node2"><a xlink:href="../../d9/d49/classback_end_1_1_controller.html#a06c74a6c4bb360e826758f33e0dd1eb6" target="_top" xlink:title="backEnd.Controller.change\lPenColor">
<polygon fill="white" stroke="black" points="210,-0 210,-30 354,-30 354,-0 210,-0"/>
<text text-anchor="start" x="218" y="-18" font-family="Helvetica,sans-Serif" font-size="10.00">backEnd.Controller.change</text>
<text text-anchor="middle" x="282" y="-7" font-family="Helvetica,sans-Serif" font-size="10.00">PenColor</text>
</a>
</g>
</g>
<!-- Node1&#45;&gt;Node2 -->
<g id="edge1" class="edge"><title>Node1&#45;&gt;Node2</title>
<path fill="none" stroke="midnightblue" d="M173.777,-15C182.46,-15 191.26,-15 199.892,-15"/>
<polygon fill="midnightblue" stroke="midnightblue" points="199.931,-18.5001 209.93,-15 199.93,-11.5001 199.931,-18.5001"/>
</g>
<!-- Node3 -->
<g id="node3" class="node"><title>Node3</title>
<g id="a_node3"><a xlink:href="../../d8/d1f/classfront_end_1_1_view.html#a8a032e4ed880f3099ab4d04846221219" target="_top" xlink:title="frontEnd.View.changePenColor">
<polygon fill="white" stroke="black" points="390,-5.5 390,-24.5 552,-24.5 552,-5.5 390,-5.5"/>
<text text-anchor="middle" x="471" y="-12.5" font-family="Helvetica,sans-Serif" font-size="10.00">frontEnd.View.changePenColor</text>
</a>
</g>
</g>
<!-- Node2&#45;&gt;Node3 -->
<g id="edge2" class="edge"><title>Node2&#45;&gt;Node3</title>
<path fill="none" stroke="midnightblue" d="M354.23,-15C362.613,-15 371.25,-15 379.849,-15"/>
<polygon fill="midnightblue" stroke="midnightblue" points="379.908,-18.5001 389.908,-15 379.908,-11.5001 379.908,-18.5001"/>
</g>
<!-- Node4 -->
<g id="node4" class="node"><title>Node4</title>
<g id="a_node4"><a xlink:href="../../d5/df1/classfront_end_1_1_turtle_canvas.html#a86f38e34d4034991241fdb889a7c4570" target="_top" xlink:title="frontEnd.TurtleCanvas.change\lPenColor">
<polygon fill="white" stroke="black" points="588.5,-0 588.5,-30 747.5,-30 747.5,-0 588.5,-0"/>
<text text-anchor="start" x="596.5" y="-18" font-family="Helvetica,sans-Serif" font-size="10.00">frontEnd.TurtleCanvas.change</text>
<text text-anchor="middle" x="668" y="-7" font-family="Helvetica,sans-Serif" font-size="10.00">PenColor</text>
</a>
</g>
</g>
<!-- Node3&#45;&gt;Node4 -->
<g id="edge3" class="edge"><title>Node3&#45;&gt;Node4</title>
<path fill="none" stroke="midnightblue" d="M552.158,-15C560.765,-15 569.559,-15 578.259,-15"/>
<polygon fill="midnightblue" stroke="midnightblue" points="578.412,-18.5001 588.412,-15 578.412,-11.5001 578.412,-18.5001"/>
</g>
<!-- Node5 -->
<g id="node5" class="node"><title>Node5</title>
<g id="a_node5"><a xlink:href="../../dc/dcd/classfront_end_1_1_turtle_view.html#ae388cacab199b191dbb44419e9574e86" target="_top" xlink:title="frontEnd.TurtleView.change\lPenColor">
<polygon fill="white" stroke="black" points="784.5,-0 784.5,-30 929.5,-30 929.5,-0 784.5,-0"/>
<text text-anchor="start" x="792.5" y="-18" font-family="Helvetica,sans-Serif" font-size="10.00">frontEnd.TurtleView.change</text>
<text text-anchor="middle" x="857" y="-7" font-family="Helvetica,sans-Serif" font-size="10.00">PenColor</text>
</a>
</g>
</g>
<!-- Node4&#45;&gt;Node5 -->
<g id="edge4" class="edge"><title>Node4&#45;&gt;Node5</title>
<path fill="none" stroke="midnightblue" d="M747.763,-15C756.515,-15 765.445,-15 774.234,-15"/>
<polygon fill="midnightblue" stroke="midnightblue" points="774.467,-18.5001 784.467,-15 774.467,-11.5001 774.467,-18.5001"/>
</g>
</g>
</svg>
