<?xml version="1.0" encoding="UTF-8" standalone="no"?>
<!DOCTYPE svg PUBLIC "-//W3C//DTD SVG 1.1//EN"
 "http://www.w3.org/Graphics/SVG/1.1/DTD/svg11.dtd">
<!-- Generated by graphviz version 2.36.0 (20140111.2315)
 -->
<!-- Title: titlePanes.ControlTitlePane.handle Pages: 1 -->
<svg width="1854pt" height="368pt"
 viewBox="0.00 0.00 1854.00 367.55" xmlns="http://www.w3.org/2000/svg" xmlns:xlink="http://www.w3.org/1999/xlink">
<g id="graph0" class="graph" transform="scale(1 1) rotate(0) translate(4 363.549)">
<title>titlePanes.ControlTitlePane.handle</title>
<polygon fill="white" stroke="none" points="-4,4 -4,-363.549 1850,-363.549 1850,4 -4,4"/>
<!-- Node1 -->
<g id="node1" class="node"><title>Node1</title>
<polygon fill="#bfbfbf" stroke="black" points="0.5,-289.452 0.5,-308.452 179.5,-308.452 179.5,-289.452 0.5,-289.452"/>
<text text-anchor="middle" x="90" y="-296.452" font-family="Helvetica,sans-Serif" font-size="10.00">titlePanes.ControlTitlePane.handle</text>
</g>
<!-- Node2 -->
<g id="node2" class="node"><title>Node2</title>
<g id="a_node2"><a xlink:href="../../d9/d49/classback_end_1_1_controller.html#a3b0bbf0a084bb4fb63d118f66e7327b1" target="_top" xlink:title="backEnd.Controller.move10">
<polygon fill="white" stroke="black" points="216,-289.452 216,-308.452 364,-308.452 364,-289.452 216,-289.452"/>
<text text-anchor="middle" x="290" y="-296.452" font-family="Helvetica,sans-Serif" font-size="10.00">backEnd.Controller.move10</text>
</a>
</g>
</g>
<!-- Node1&#45;&gt;Node2 -->
<g id="edge1" class="edge"><title>Node1&#45;&gt;Node2</title>
<path fill="none" stroke="midnightblue" d="M179.576,-298.952C188.309,-298.952 197.151,-298.952 205.827,-298.952"/>
<polygon fill="midnightblue" stroke="midnightblue" points="205.918,-302.453 215.918,-298.952 205.918,-295.453 205.918,-302.453"/>
</g>
<!-- Node3 -->
<g id="node3" class="node"><title>Node3</title>
<g id="a_node3"><a xlink:href="../../d8/de9/classmain_1_1_resource_finder.html#abbbd9c7b9078fd263f546d15bba68d22" target="_top" xlink:title="main.ResourceFinder.getMy\lLanguageResources">
<polygon fill="white" stroke="black" points="1698.5,-244.952 1698.5,-274.952 1845.5,-274.952 1845.5,-244.952 1698.5,-244.952"/>
<text text-anchor="start" x="1706.5" y="-262.952" font-family="Helvetica,sans-Serif" font-size="10.00">main.ResourceFinder.getMy</text>
<text text-anchor="middle" x="1772" y="-251.952" font-family="Helvetica,sans-Serif" font-size="10.00">LanguageResources</text>
</a>
</g>
</g>
<!-- Node2&#45;&gt;Node3 -->
<g id="edge2" class="edge"><title>Node2&#45;&gt;Node3</title>
<path fill="none" stroke="midnightblue" d="M332.582,-308.49C401.778,-323.502 545.108,-350.952 668,-350.952 668,-350.952 668,-350.952 1310,-350.952 1466.7,-350.952 1513.11,-379.805 1662,-330.952 1693.83,-320.51 1725.36,-298.336 1746.26,-281.53"/>
<polygon fill="midnightblue" stroke="midnightblue" points="1748.5,-284.219 1753.99,-275.16 1744.05,-278.814 1748.5,-284.219"/>
</g>
<!-- Node4 -->
<g id="node4" class="node"><title>Node4</title>
<g id="a_node4"><a xlink:href="../../d9/d49/classback_end_1_1_controller.html#ad650f48d236eaf11c2d8591b04831900" target="_top" xlink:title="backEnd.Controller.runScript">
<polygon fill="white" stroke="black" points="400,-238.452 400,-257.452 552,-257.452 552,-238.452 400,-238.452"/>
<text text-anchor="middle" x="476" y="-245.452" font-family="Helvetica,sans-Serif" font-size="10.00">backEnd.Controller.runScript</text>
</a>
</g>
</g>
<!-- Node2&#45;&gt;Node4 -->
<g id="edge3" class="edge"><title>Node2&#45;&gt;Node4</title>
<path fill="none" stroke="midnightblue" d="M325.609,-289.36C355.421,-281.097 398.62,-269.123 430.904,-260.175"/>
<polygon fill="midnightblue" stroke="midnightblue" points="431.844,-263.546 440.546,-257.502 429.975,-256.8 431.844,-263.546"/>
</g>
<!-- Node5 -->
<g id="node5" class="node"><title>Node5</title>
<g id="a_node5"><a xlink:href="../../d8/d1f/classfront_end_1_1_view.html#a88014d18898a5c72ba7893e0d865a218" target="_top" xlink:title="frontEnd.View.addToHistory">
<polygon fill="white" stroke="black" points="596,-283.452 596,-302.452 742,-302.452 742,-283.452 596,-283.452"/>
<text text-anchor="middle" x="669" y="-290.452" font-family="Helvetica,sans-Serif" font-size="10.00">frontEnd.View.addToHistory</text>
</a>
</g>
</g>
<!-- Node4&#45;&gt;Node5 -->
<g id="edge4" class="edge"><title>Node4&#45;&gt;Node5</title>
<path fill="none" stroke="midnightblue" d="M517.506,-257.496C546.754,-264.387 586.442,-273.737 617.717,-281.106"/>
<polygon fill="midnightblue" stroke="midnightblue" points="617.016,-284.536 627.552,-283.423 618.621,-277.723 617.016,-284.536"/>
</g>
<!-- Node8 -->
<g id="node8" class="node"><title>Node8</title>
<g id="a_node8"><a xlink:href="../../d8/d1f/classfront_end_1_1_view.html#a22669dd74ac845d66d5b59ddeba13b5e" target="_top" xlink:title="frontEnd.View.printException">
<polygon fill="white" stroke="black" points="792,-197.452 792,-216.452 944,-216.452 944,-197.452 792,-197.452"/>
<text text-anchor="middle" x="868" y="-204.452" font-family="Helvetica,sans-Serif" font-size="10.00">frontEnd.View.printException</text>
</a>
</g>
</g>
<!-- Node4&#45;&gt;Node8 -->
<g id="edge7" class="edge"><title>Node4&#45;&gt;Node8</title>
<path fill="none" stroke="midnightblue" d="M526.863,-238.425C545.933,-235.043 567.92,-231.457 588,-228.952 652.793,-220.87 726.444,-215.21 781.798,-211.658"/>
<polygon fill="midnightblue" stroke="midnightblue" points="782.155,-215.142 791.914,-211.019 781.713,-208.156 782.155,-215.142"/>
</g>
<!-- Node10 -->
<g id="node10" class="node"><title>Node10</title>
<g id="a_node10"><a xlink:href="../../d9/d98/classback_end_1_1_model.html#ade764fd1c85a48fabb9abf3dfe8b8ceb" target="_top" xlink:title="backEnd.Model.runScript">
<polygon fill="white" stroke="black" points="601.5,-125.452 601.5,-144.452 736.5,-144.452 736.5,-125.452 601.5,-125.452"/>
<text text-anchor="middle" x="669" y="-132.452" font-family="Helvetica,sans-Serif" font-size="10.00">backEnd.Model.runScript</text>
</a>
</g>
</g>
<!-- Node4&#45;&gt;Node10 -->
<g id="edge9" class="edge"><title>Node4&#45;&gt;Node10</title>
<path fill="none" stroke="midnightblue" d="M493.285,-238.318C526.692,-218.554 603.17,-173.307 642.941,-149.778"/>
<polygon fill="midnightblue" stroke="midnightblue" points="644.932,-152.667 651.757,-144.562 641.368,-146.642 644.932,-152.667"/>
</g>
<!-- Node25 -->
<g id="node25" class="node"><title>Node25</title>
<g id="a_node25"><a xlink:href="../../d8/d1f/classfront_end_1_1_view.html#a59fa2dbe984da3217324979184d00559" target="_top" xlink:title="frontEnd.View.updateVariables">
<polygon fill="white" stroke="black" points="588.5,-238.452 588.5,-257.452 749.5,-257.452 749.5,-238.452 588.5,-238.452"/>
<text text-anchor="middle" x="669" y="-245.452" font-family="Helvetica,sans-Serif" font-size="10.00">frontEnd.View.updateVariables</text>
</a>
</g>
</g>
<!-- Node4&#45;&gt;Node25 -->
<g id="edge27" class="edge"><title>Node4&#45;&gt;Node25</title>
<path fill="none" stroke="midnightblue" d="M552.214,-247.952C560.768,-247.952 569.549,-247.952 578.266,-247.952"/>
<polygon fill="midnightblue" stroke="midnightblue" points="578.452,-251.453 588.452,-247.952 578.452,-244.453 578.452,-251.453"/>
</g>
<!-- Node6 -->
<g id="node6" class="node"><title>Node6</title>
<g id="a_node6"><a xlink:href="../../d8/dfc/classpanels_1_1_parameter_panel.html#a5f64bf2acdef3d7ca882a87ba8c78bf3" target="_top" xlink:title="panels.ParameterPanel.add\lToHistory">
<polygon fill="white" stroke="black" points="794,-284.952 794,-314.952 942,-314.952 942,-284.952 794,-284.952"/>
<text text-anchor="start" x="802" y="-302.952" font-family="Helvetica,sans-Serif" font-size="10.00">panels.ParameterPanel.add</text>
<text text-anchor="middle" x="868" y="-291.952" font-family="Helvetica,sans-Serif" font-size="10.00">ToHistory</text>
</a>
</g>
</g>
<!-- Node5&#45;&gt;Node6 -->
<g id="edge5" class="edge"><title>Node5&#45;&gt;Node6</title>
<path fill="none" stroke="midnightblue" d="M742.237,-295.519C755.625,-295.995 769.712,-296.496 783.406,-296.982"/>
<polygon fill="midnightblue" stroke="midnightblue" points="783.664,-300.493 793.782,-297.351 783.913,-293.498 783.664,-300.493"/>
</g>
<!-- Node7 -->
<g id="node7" class="node"><title>Node7</title>
<g id="a_node7"><a xlink:href="../../de/dff/classtitle_panes_1_1_history_title_pane.html#a14fe295c9a982a88b2f96e93758e021d" target="_top" xlink:title="titlePanes.HistoryTitlePane.add\lToHistory">
<polygon fill="white" stroke="black" points="998,-284.952 998,-314.952 1162,-314.952 1162,-284.952 998,-284.952"/>
<text text-anchor="start" x="1006" y="-302.952" font-family="Helvetica,sans-Serif" font-size="10.00">titlePanes.HistoryTitlePane.add</text>
<text text-anchor="middle" x="1080" y="-291.952" font-family="Helvetica,sans-Serif" font-size="10.00">ToHistory</text>
</a>
</g>
</g>
<!-- Node6&#45;&gt;Node7 -->
<g id="edge6" class="edge"><title>Node6&#45;&gt;Node7</title>
<path fill="none" stroke="midnightblue" d="M942.153,-299.952C956.772,-299.952 972.3,-299.952 987.449,-299.952"/>
<polygon fill="midnightblue" stroke="midnightblue" points="987.86,-303.453 997.86,-299.952 987.86,-296.453 987.86,-303.453"/>
</g>
<!-- Node9 -->
<g id="node9" class="node"><title>Node9</title>
<g id="a_node9"><a xlink:href="../../de/d03/classpanels_1_1_script_panel.html#acf94d4284961d6d9eabc8af4db9abe87" target="_top" xlink:title="panels.ScriptPanel.print\lException">
<polygon fill="white" stroke="black" points="1015.5,-186.952 1015.5,-216.952 1144.5,-216.952 1144.5,-186.952 1015.5,-186.952"/>
<text text-anchor="start" x="1023.5" y="-204.952" font-family="Helvetica,sans-Serif" font-size="10.00">panels.ScriptPanel.print</text>
<text text-anchor="middle" x="1080" y="-193.952" font-family="Helvetica,sans-Serif" font-size="10.00">Exception</text>
</a>
</g>
</g>
<!-- Node8&#45;&gt;Node9 -->
<g id="edge8" class="edge"><title>Node8&#45;&gt;Node9</title>
<path fill="none" stroke="midnightblue" d="M944.222,-205.161C964.065,-204.689 985.456,-204.18 1005.22,-203.709"/>
<polygon fill="midnightblue" stroke="midnightblue" points="1005.48,-207.204 1015.39,-203.467 1005.31,-200.206 1005.48,-207.204"/>
</g>
<!-- Node11 -->
<g id="node11" class="node"><title>Node11</title>
<g id="a_node11"><a xlink:href="../../d9/d1e/classback_end_1_1_parser.html#a163b8afd814babc8e7df59993f0d6440" target="_top" xlink:title="backEnd.Parser.parseScript">
<polygon fill="white" stroke="black" points="794.5,-88.4524 794.5,-107.452 941.5,-107.452 941.5,-88.4524 794.5,-88.4524"/>
<text text-anchor="middle" x="868" y="-95.4524" font-family="Helvetica,sans-Serif" font-size="10.00">backEnd.Parser.parseScript</text>
</a>
</g>
</g>
<!-- Node10&#45;&gt;Node11 -->
<g id="edge10" class="edge"><title>Node10&#45;&gt;Node11</title>
<path fill="none" stroke="midnightblue" d="M720.732,-125.424C746.827,-120.523 778.822,-114.514 806.228,-109.367"/>
<polygon fill="midnightblue" stroke="midnightblue" points="806.915,-112.799 816.098,-107.513 805.623,-105.919 806.915,-112.799"/>
</g>
<!-- Node12 -->
<g id="node12" class="node"><title>Node12</title>
<g id="a_node12"><a xlink:href="../../d9/d98/classback_end_1_1_model.html#a6b39dd199a5957068c032bb023f4b613" target="_top" xlink:title="backEnd.Model.getCommandsMap">
<polygon fill="white" stroke="black" points="1461.5,-29.4524 1461.5,-48.4524 1644.5,-48.4524 1644.5,-29.4524 1461.5,-29.4524"/>
<text text-anchor="middle" x="1553" y="-36.4524" font-family="Helvetica,sans-Serif" font-size="10.00">backEnd.Model.getCommandsMap</text>
</a>
</g>
</g>
<!-- Node11&#45;&gt;Node12 -->
<g id="edge11" class="edge"><title>Node11&#45;&gt;Node12</title>
<path fill="none" stroke="midnightblue" d="M880.686,-88.2915C900.738,-72.3858 943.645,-41.2256 986,-28.9524 1167.15,23.5401 1394.78,-8.28859 1497.4,-27.5156"/>
<polygon fill="midnightblue" stroke="midnightblue" points="1497.04,-31.0109 1507.52,-29.4481 1498.36,-24.1351 1497.04,-31.0109"/>
</g>
<!-- Node13 -->
<g id="node13" class="node"><title>Node13</title>
<g id="a_node13"><a xlink:href="../../d9/d1e/classback_end_1_1_parser.html#a653298ad53a1eea540beded2bb558ab4" target="_top" xlink:title="backEnd.Parser.makeTree">
<polygon fill="white" stroke="black" points="1010.5,-126.452 1010.5,-145.452 1149.5,-145.452 1149.5,-126.452 1010.5,-126.452"/>
<text text-anchor="middle" x="1080" y="-133.452" font-family="Helvetica,sans-Serif" font-size="10.00">backEnd.Parser.makeTree</text>
</a>
</g>
</g>
<!-- Node11&#45;&gt;Node13 -->
<g id="edge12" class="edge"><title>Node11&#45;&gt;Node13</title>
<path fill="none" stroke="midnightblue" d="M921.721,-107.492C950.429,-112.687 986.137,-119.149 1016.27,-124.601"/>
<polygon fill="midnightblue" stroke="midnightblue" points="1015.79,-128.072 1026.26,-126.409 1017.04,-121.184 1015.79,-128.072"/>
</g>
<!-- Node23 -->
<g id="node23" class="node"><title>Node23</title>
<g id="a_node23"><a xlink:href="../../d9/d1e/classback_end_1_1_parser.html#a71653c0a9d02d4b400e357b978260de6" target="_top" xlink:title="backEnd.Parser.removeComments">
<polygon fill="white" stroke="black" points="989,-88.4524 989,-107.452 1171,-107.452 1171,-88.4524 989,-88.4524"/>
<text text-anchor="middle" x="1080" y="-95.4524" font-family="Helvetica,sans-Serif" font-size="10.00">backEnd.Parser.removeComments</text>
</a>
</g>
</g>
<!-- Node11&#45;&gt;Node23 -->
<g id="edge25" class="edge"><title>Node11&#45;&gt;Node23</title>
<path fill="none" stroke="midnightblue" d="M941.564,-97.9524C953.538,-97.9524 966.136,-97.9524 978.646,-97.9524"/>
<polygon fill="midnightblue" stroke="midnightblue" points="978.646,-101.453 988.646,-97.9524 978.646,-94.4525 978.646,-101.453"/>
</g>
<!-- Node24 -->
<g id="node24" class="node"><title>Node24</title>
<g id="a_node24"><a xlink:href="../../d5/d62/classcommands_1_1templates_1_1_command.html#aa1c27b6285999798be609159ee5c7a83" target="_top" xlink:title="commands.templates.Command.to\lString">
<polygon fill="white" stroke="black" points="986,-38.9524 986,-68.9524 1174,-68.9524 1174,-38.9524 986,-38.9524"/>
<text text-anchor="start" x="994" y="-56.9524" font-family="Helvetica,sans-Serif" font-size="10.00">commands.templates.Command.to</text>
<text text-anchor="middle" x="1080" y="-45.9524" font-family="Helvetica,sans-Serif" font-size="10.00">String</text>
</a>
</g>
</g>
<!-- Node11&#45;&gt;Node24 -->
<g id="edge26" class="edge"><title>Node11&#45;&gt;Node24</title>
<path fill="none" stroke="midnightblue" d="M914.567,-88.4051C938.738,-83.3406 969.175,-76.9634 997.271,-71.0766"/>
<polygon fill="midnightblue" stroke="midnightblue" points="998.027,-74.4942 1007.1,-69.0178 996.592,-67.643 998.027,-74.4942"/>
</g>
<!-- Node13&#45;&gt;Node12 -->
<g id="edge23" class="edge"><title>Node13&#45;&gt;Node12</title>
<path fill="none" stroke="midnightblue" d="M1149.94,-128.134C1158.45,-125.397 1166.71,-121.764 1174,-116.952 1197.46,-101.468 1185.61,-78.9331 1210,-64.9524 1295.97,-15.6639 1414.7,-19.4711 1487.26,-28.1703"/>
<polygon fill="midnightblue" stroke="midnightblue" points="1486.83,-31.643 1497.19,-29.4253 1487.7,-24.6983 1486.83,-31.643"/>
</g>
<!-- Node14 -->
<g id="node14" class="node"><title>Node14</title>
<g id="a_node14"><a xlink:href="../../d5/d62/classcommands_1_1templates_1_1_command.html#a9ab84f2a1491a7283311891b8a6082dc" target="_top" xlink:title="commands.templates.Command.add\lChild">
<polygon fill="white" stroke="black" points="1210.5,-74.9524 1210.5,-104.952 1407.5,-104.952 1407.5,-74.9524 1210.5,-74.9524"/>
<text text-anchor="start" x="1218.5" y="-92.9524" font-family="Helvetica,sans-Serif" font-size="10.00">commands.templates.Command.add</text>
<text text-anchor="middle" x="1309" y="-81.9524" font-family="Helvetica,sans-Serif" font-size="10.00">Child</text>
</a>
</g>
</g>
<!-- Node13&#45;&gt;Node14 -->
<g id="edge13" class="edge"><title>Node13&#45;&gt;Node14</title>
<path fill="none" stroke="midnightblue" d="M1128.03,-126.421C1155.69,-120.817 1191.48,-113.565 1223.84,-107.006"/>
<polygon fill="midnightblue" stroke="midnightblue" points="1224.66,-110.412 1233.77,-104.995 1223.27,-103.551 1224.66,-110.412"/>
</g>
<!-- Node15 -->
<g id="node15" class="node"><title>Node15</title>
<g id="a_node15"><a xlink:href="../../d5/d1d/classcommands_1_1_command_factory.html#ac77125dd466e3e01fce01fc527e7f815" target="_top" xlink:title="commands.CommandFactory.build\lCommand">
<polygon fill="white" stroke="black" points="1218,-172.952 1218,-202.952 1400,-202.952 1400,-172.952 1218,-172.952"/>
<text text-anchor="start" x="1226" y="-190.952" font-family="Helvetica,sans-Serif" font-size="10.00">commands.CommandFactory.build</text>
<text text-anchor="middle" x="1309" y="-179.952" font-family="Helvetica,sans-Serif" font-size="10.00">Command</text>
</a>
</g>
</g>
<!-- Node13&#45;&gt;Node15 -->
<g id="edge14" class="edge"><title>Node13&#45;&gt;Node15</title>
<path fill="none" stroke="midnightblue" d="M1122.64,-145.49C1153.17,-152.485 1195.5,-162.181 1231.99,-170.541"/>
<polygon fill="midnightblue" stroke="midnightblue" points="1231.59,-174.039 1242.12,-172.861 1233.15,-167.216 1231.59,-174.039"/>
</g>
<!-- Node22 -->
<g id="node22" class="node"><title>Node22</title>
<g id="a_node22"><a xlink:href="../../d5/d62/classcommands_1_1templates_1_1_command.html#a0ca025dffda489d73ba4b6c12c7118fe" target="_top" xlink:title="commands.templates.Command.get\lNumChildrenNeeded">
<polygon fill="white" stroke="black" points="1212,-123.952 1212,-153.952 1406,-153.952 1406,-123.952 1212,-123.952"/>
<text text-anchor="start" x="1220" y="-141.952" font-family="Helvetica,sans-Serif" font-size="10.00">commands.templates.Command.get</text>
<text text-anchor="middle" x="1309" y="-130.952" font-family="Helvetica,sans-Serif" font-size="10.00">NumChildrenNeeded</text>
</a>
</g>
</g>
<!-- Node13&#45;&gt;Node22 -->
<g id="edge24" class="edge"><title>Node13&#45;&gt;Node22</title>
<path fill="none" stroke="midnightblue" d="M1149.72,-136.861C1166.09,-137.077 1183.93,-137.313 1201.54,-137.545"/>
<polygon fill="midnightblue" stroke="midnightblue" points="1201.83,-141.049 1211.87,-137.682 1201.92,-134.05 1201.83,-141.049"/>
</g>
<!-- Node15&#45;&gt;Node12 -->
<g id="edge20" class="edge"><title>Node15&#45;&gt;Node12</title>
<path fill="none" stroke="midnightblue" d="M1394.3,-172.778C1399.24,-170.01 1403.87,-166.762 1408,-162.952 1444.26,-129.501 1406.5,-90.0093 1444,-57.9524 1446.6,-55.7257 1449.38,-53.7181 1452.28,-51.91"/>
<polygon fill="midnightblue" stroke="midnightblue" points="1454.18,-54.8641 1461.35,-47.0638 1450.88,-48.6905 1454.18,-54.8641"/>
</g>
<!-- Node16 -->
<g id="node16" class="node"><title>Node16</title>
<g id="a_node16"><a xlink:href="../../d5/d1d/classcommands_1_1_command_factory.html#adcf456039b5d7285082f1e009f3d30b6" target="_top" xlink:title="commands.CommandFactory.checkCaps">
<polygon fill="white" stroke="black" points="1447,-204.452 1447,-223.452 1659,-223.452 1659,-204.452 1447,-204.452"/>
<text text-anchor="middle" x="1553" y="-211.452" font-family="Helvetica,sans-Serif" font-size="10.00">commands.CommandFactory.checkCaps</text>
</a>
</g>
</g>
<!-- Node15&#45;&gt;Node16 -->
<g id="edge15" class="edge"><title>Node15&#45;&gt;Node16</title>
<path fill="none" stroke="midnightblue" d="M1400.11,-197.634C1417.41,-199.493 1435.61,-201.448 1453.17,-203.335"/>
<polygon fill="midnightblue" stroke="midnightblue" points="1453.11,-206.848 1463.42,-204.436 1453.85,-199.888 1453.11,-206.848"/>
</g>
<!-- Node17 -->
<g id="node17" class="node"><title>Node17</title>
<g id="a_node17"><a xlink:href="../../d5/d1d/classcommands_1_1_command_factory.html#acae1571442d9f8e040df95c8a2742d8d" target="_top" xlink:title="commands.CommandFactory.check\lLanguage">
<polygon fill="white" stroke="black" points="1459,-154.952 1459,-184.952 1647,-184.952 1647,-154.952 1459,-154.952"/>
<text text-anchor="start" x="1467" y="-172.952" font-family="Helvetica,sans-Serif" font-size="10.00">commands.CommandFactory.check</text>
<text text-anchor="middle" x="1553" y="-161.952" font-family="Helvetica,sans-Serif" font-size="10.00">Language</text>
</a>
</g>
</g>
<!-- Node15&#45;&gt;Node17 -->
<g id="edge16" class="edge"><title>Node15&#45;&gt;Node17</title>
<path fill="none" stroke="midnightblue" d="M1400.11,-181.25C1416.03,-180.066 1432.7,-178.826 1448.94,-177.618"/>
<polygon fill="midnightblue" stroke="midnightblue" points="1449.27,-181.103 1458.98,-176.871 1448.75,-174.123 1449.27,-181.103"/>
</g>
<!-- Node18 -->
<g id="node18" class="node"><title>Node18</title>
<g id="a_node18"><a xlink:href="../../d5/d1d/classcommands_1_1_command_factory.html#a9206a1ef0f863c61cb5c894da3133ef8" target="_top" xlink:title="commands.CommandFactory.check\lUserCommand">
<polygon fill="white" stroke="black" points="1459,-105.952 1459,-135.952 1647,-135.952 1647,-105.952 1459,-105.952"/>
<text text-anchor="start" x="1467" y="-123.952" font-family="Helvetica,sans-Serif" font-size="10.00">commands.CommandFactory.check</text>
<text text-anchor="middle" x="1553" y="-112.952" font-family="Helvetica,sans-Serif" font-size="10.00">UserCommand</text>
</a>
</g>
</g>
<!-- Node15&#45;&gt;Node18 -->
<g id="edge18" class="edge"><title>Node15&#45;&gt;Node18</title>
<path fill="none" stroke="midnightblue" d="M1377.01,-172.898C1387.5,-169.959 1398.13,-166.631 1408,-162.952 1424.76,-156.706 1427.14,-150.938 1444,-144.952 1450.32,-142.707 1456.93,-140.628 1463.63,-138.711"/>
<polygon fill="midnightblue" stroke="midnightblue" points="1464.76,-142.03 1473.49,-136.018 1462.92,-135.277 1464.76,-142.03"/>
</g>
<!-- Node19 -->
<g id="node19" class="node"><title>Node19</title>
<g id="a_node19"><a xlink:href="../../d5/d1d/classcommands_1_1_command_factory.html#a221a82baff222f4552a38b521efd78b6" target="_top" xlink:title="commands.CommandFactory.checkVar">
<polygon fill="white" stroke="black" points="1451.5,-67.4524 1451.5,-86.4524 1654.5,-86.4524 1654.5,-67.4524 1451.5,-67.4524"/>
<text text-anchor="middle" x="1553" y="-74.4524" font-family="Helvetica,sans-Serif" font-size="10.00">commands.CommandFactory.checkVar</text>
</a>
</g>
</g>
<!-- Node15&#45;&gt;Node19 -->
<g id="edge19" class="edge"><title>Node15&#45;&gt;Node19</title>
<path fill="none" stroke="midnightblue" d="M1391.7,-172.925C1397.5,-170.14 1403.02,-166.847 1408,-162.952 1434.63,-142.126 1416.6,-115.757 1444,-95.9524 1446.54,-94.1156 1449.2,-92.4364 1451.96,-90.9023"/>
<polygon fill="midnightblue" stroke="midnightblue" points="1453.58,-94.0034 1461.04,-86.4806 1450.52,-87.709 1453.58,-94.0034"/>
</g>
<!-- Node20 -->
<g id="node20" class="node"><title>Node20</title>
<g id="a_node20"><a xlink:href="../../d5/d62/classcommands_1_1templates_1_1_command.html#a20741a5e32e24ff113701f7b2957e658" target="_top" xlink:title="commands.templates.Command.initialize\lCommand">
<polygon fill="white" stroke="black" points="1444.5,-291.952 1444.5,-321.952 1661.5,-321.952 1661.5,-291.952 1444.5,-291.952"/>
<text text-anchor="start" x="1452.5" y="-309.952" font-family="Helvetica,sans-Serif" font-size="10.00">commands.templates.Command.initialize</text>
<text text-anchor="middle" x="1553" y="-298.952" font-family="Helvetica,sans-Serif" font-size="10.00">Command</text>
</a>
</g>
</g>
<!-- Node15&#45;&gt;Node20 -->
<g id="edge21" class="edge"><title>Node15&#45;&gt;Node20</title>
<path fill="none" stroke="midnightblue" d="M1366.68,-203.036C1381.14,-208.658 1395.98,-216.143 1408,-225.952 1430.92,-244.665 1419.81,-264.918 1444,-281.952 1446.75,-283.891 1449.64,-285.682 1452.62,-287.336"/>
<polygon fill="midnightblue" stroke="midnightblue" points="1451.3,-290.592 1461.82,-291.897 1454.41,-284.32 1451.3,-290.592"/>
</g>
<!-- Node21 -->
<g id="node21" class="node"><title>Node21</title>
<g id="a_node21"><a xlink:href="../../d5/d1d/classcommands_1_1_command_factory.html#aa562012b61b9b1701eada2bea8caa1d8" target="_top" xlink:title="commands.CommandFactory.is\lNumeric">
<polygon fill="white" stroke="black" points="1469.5,-242.952 1469.5,-272.952 1636.5,-272.952 1636.5,-242.952 1469.5,-242.952"/>
<text text-anchor="start" x="1477.5" y="-260.952" font-family="Helvetica,sans-Serif" font-size="10.00">commands.CommandFactory.is</text>
<text text-anchor="middle" x="1553" y="-249.952" font-family="Helvetica,sans-Serif" font-size="10.00">Numeric</text>
</a>
</g>
</g>
<!-- Node15&#45;&gt;Node21 -->
<g id="edge22" class="edge"><title>Node15&#45;&gt;Node21</title>
<path fill="none" stroke="midnightblue" d="M1351.33,-202.981C1377.65,-212.267 1412.59,-224.066 1444,-232.952 1453.31,-235.585 1463.12,-238.148 1472.88,-240.566"/>
<polygon fill="midnightblue" stroke="midnightblue" points="1472.07,-243.969 1482.61,-242.934 1473.72,-237.168 1472.07,-243.969"/>
</g>
<!-- Node17&#45;&gt;Node3 -->
<g id="edge17" class="edge"><title>Node17&#45;&gt;Node3</title>
<path fill="none" stroke="midnightblue" d="M1632.18,-184.998C1642.36,-187.842 1652.54,-191.144 1662,-194.952 1690.74,-206.52 1720.8,-224.992 1742.05,-239.294"/>
<polygon fill="midnightblue" stroke="midnightblue" points="1740.08,-242.184 1750.31,-244.938 1744.03,-236.405 1740.08,-242.184"/>
</g>
<!-- Node25&#45;&gt;Node8 -->
<g id="edge28" class="edge"><title>Node25&#45;&gt;Node8</title>
<path fill="none" stroke="midnightblue" d="M715.691,-238.443C744.182,-232.513 781.043,-224.842 811.249,-218.555"/>
<polygon fill="midnightblue" stroke="midnightblue" points="812.139,-221.945 821.216,-216.481 810.713,-215.092 812.139,-221.945"/>
</g>
<!-- Node26 -->
<g id="node26" class="node"><title>Node26</title>
<g id="a_node26"><a xlink:href="../../d8/dfc/classpanels_1_1_parameter_panel.html#a0bf8e32fe635c48c8a057062e0534b62" target="_top" xlink:title="panels.ParameterPanel.update\lVariables">
<polygon fill="white" stroke="black" points="786,-235.952 786,-265.952 950,-265.952 950,-235.952 786,-235.952"/>
<text text-anchor="start" x="794" y="-253.952" font-family="Helvetica,sans-Serif" font-size="10.00">panels.ParameterPanel.update</text>
<text text-anchor="middle" x="868" y="-242.952" font-family="Helvetica,sans-Serif" font-size="10.00">Variables</text>
</a>
</g>
</g>
<!-- Node25&#45;&gt;Node26 -->
<g id="edge29" class="edge"><title>Node25&#45;&gt;Node26</title>
<path fill="none" stroke="midnightblue" d="M749.56,-249.164C758.156,-249.295 766.952,-249.429 775.673,-249.562"/>
<polygon fill="midnightblue" stroke="midnightblue" points="775.808,-253.064 785.86,-249.717 775.914,-246.065 775.808,-253.064"/>
</g>
<!-- Node27 -->
<g id="node27" class="node"><title>Node27</title>
<g id="a_node27"><a xlink:href="../../d0/d8f/classtitle_panes_1_1_variable_title_pane.html#a395dd58ae72e6111fce8e99be3c03842" target="_top" xlink:title="titlePanes.VariableTitle\lPane.updateVariables">
<polygon fill="white" stroke="black" points="1018,-235.952 1018,-265.952 1142,-265.952 1142,-235.952 1018,-235.952"/>
<text text-anchor="start" x="1026" y="-253.952" font-family="Helvetica,sans-Serif" font-size="10.00">titlePanes.VariableTitle</text>
<text text-anchor="middle" x="1080" y="-242.952" font-family="Helvetica,sans-Serif" font-size="10.00">Pane.updateVariables</text>
</a>
</g>
</g>
<!-- Node26&#45;&gt;Node27 -->
<g id="edge30" class="edge"><title>Node26&#45;&gt;Node27</title>
<path fill="none" stroke="midnightblue" d="M950.191,-250.952C969.181,-250.952 989.268,-250.952 1007.79,-250.952"/>
<polygon fill="midnightblue" stroke="midnightblue" points="1007.89,-254.453 1017.89,-250.952 1007.89,-247.453 1007.89,-254.453"/>
</g>
<!-- Node28 -->
<g id="node28" class="node"><title>Node28</title>
<g id="a_node28"><a xlink:href="../../d0/d8f/classtitle_panes_1_1_variable_title_pane.html#a007ec1abdc73761490261f283e07338e" target="_top" xlink:title="titlePanes.VariableTitle\lPane.writeVariables">
<polygon fill="white" stroke="black" points="1247,-235.952 1247,-265.952 1371,-265.952 1371,-235.952 1247,-235.952"/>
<text text-anchor="start" x="1255" y="-253.952" font-family="Helvetica,sans-Serif" font-size="10.00">titlePanes.VariableTitle</text>
<text text-anchor="middle" x="1309" y="-242.952" font-family="Helvetica,sans-Serif" font-size="10.00">Pane.writeVariables</text>
</a>
</g>
</g>
<!-- Node27&#45;&gt;Node28 -->
<g id="edge31" class="edge"><title>Node27&#45;&gt;Node28</title>
<path fill="none" stroke="midnightblue" d="M1142.13,-250.952C1171.27,-250.952 1206.31,-250.952 1236.66,-250.952"/>
<polygon fill="midnightblue" stroke="midnightblue" points="1236.76,-254.453 1246.76,-250.952 1236.76,-247.453 1236.76,-254.453"/>
</g>
</g>
</svg>
