<?xml version="1.0" encoding="UTF-8" standalone="no"?>
<!DOCTYPE svg PUBLIC "-//W3C//DTD SVG 1.1//EN"
 "http://www.w3.org/Graphics/SVG/1.1/DTD/svg11.dtd">
<!-- Generated by graphviz version 2.36.0 (20140111.2315)
 -->
<!-- Title: titlePanes.ControlTitlePane.makeButtons Pages: 1 -->
<!--zoomable 367 -->
<svg id="main" version="1.1" xmlns="http://www.w3.org/2000/svg" xmlns:xlink="http://www.w3.org/1999/xlink" xml:space="preserve" onload="init(evt)">
<style type="text/css"><![CDATA[
.edge:hover path { stroke: red; }
.edge:hover polygon { stroke: red; fill: red; }
]]></style>
<script type="text/javascript"><![CDATA[
var edges = document.getElementsByTagName('g');
if (edges && edges.length) {
  for (var i=0;i<edges.length;i++) {
    if (edges[i].id.substr(0,4)=='edge') {
      edges[i].setAttribute('class','edge');
    }
  }
}
]]></script>
        <defs>
                <circle id="rim" cx="0" cy="0" r="7"/>
                <circle id="rim2" cx="0" cy="0" r="3.5"/>
                <g id="zoomPlus">
                        <use xlink:href="#rim" fill="#404040">
                                <set attributeName="fill" to="#808080" begin="zoomplus.mouseover" end="zoomplus.mouseout"/>
                        </use>
                        <path d="M-4,0h8M0,-4v8" fill="none" stroke="white" stroke-width="1.5" pointer-events="none"/>
                </g>
                <g id="zoomMin">
                        <use xlink:href="#rim" fill="#404040">
                                <set attributeName="fill" to="#808080" begin="zoomminus.mouseover" end="zoomminus.mouseout"/>
                        </use>
                        <path d="M-4,0h8" fill="none" stroke="white" stroke-width="1.5" pointer-events="none"/>
                </g>
                <g id="dirArrow">
                        <path fill="none" stroke="white" stroke-width="1.5" d="M0,-3.0v7 M-2.5,-0.5L0,-3.0L2.5,-0.5"/>
                </g>
               <g id="resetDef">
                       <use xlink:href="#rim2" fill="#404040">
                               <set attributeName="fill" to="#808080" begin="reset.mouseover" end="reset.mouseout"/>
                       </use>
               </g>
        </defs>

<script type="text/javascript">
var viewWidth = 2066;
var viewHeight = 367;
var sectionId = 'dynsection-5';
</script>
<script xlink:href="../../svgpan.js"/>
<svg id="graph" class="graph">
<g id="viewport">
<title>titlePanes.ControlTitlePane.makeButtons</title>
<polygon fill="white" stroke="none" points="-4,4 -4,-362.677 2062,-362.677 2062,4 -4,4"/>
<!-- Node1 -->
<g id="node1" class="node"><title>Node1</title>
<polygon fill="#bfbfbf" stroke="black" points="0.5,-264.08 0.5,-294.08 173.5,-294.08 173.5,-264.08 0.5,-264.08"/>
<text text-anchor="start" x="8.5" y="-282.08" font-family="Helvetica,sans-Serif" font-size="10.00">titlePanes.ControlTitlePane.make</text>
<text text-anchor="middle" x="87" y="-271.08" font-family="Helvetica,sans-Serif" font-size="10.00">Buttons</text>
</g>
<!-- Node2 -->
<g id="node2" class="node"><title>Node2</title>
<g id="a_node2"><a xlink:href="../../da/d04/classtitle_panes_1_1_control_title_pane.html#ae994c7b4dd988b30fc824e9e893b3ccf" target="_top" xlink:title="titlePanes.ControlTitlePane.handle">
<polygon fill="white" stroke="black" points="211.5,-288.58 211.5,-307.58 390.5,-307.58 390.5,-288.58 211.5,-288.58"/>
<text text-anchor="middle" x="301" y="-295.58" font-family="Helvetica,sans-Serif" font-size="10.00">titlePanes.ControlTitlePane.handle</text>
</a>
</g>
</g>
<!-- Node1&#45;&gt;Node2 -->
<g id="edge1" class="edge"><title>Node1&#45;&gt;Node2</title>
<path fill="none" stroke="midnightblue" d="M173.617,-286.754C182.732,-287.571 192.055,-288.406 201.304,-289.235"/>
<polygon fill="midnightblue" stroke="midnightblue" points="201.025,-292.724 211.297,-290.131 201.65,-285.752 201.025,-292.724"/>
</g>
<!-- Node30 -->
<g id="node30" class="node"><title>Node30</title>
<g id="a_node30"><a xlink:href="../../da/d04/classtitle_panes_1_1_control_title_pane.html#ac2c40167d5b56309c214d48cdd8b5cbf" target="_top" xlink:title="titlePanes.ControlTitlePane.setSize">
<polygon fill="white" stroke="black" points="210,-250.58 210,-269.58 392,-269.58 392,-250.58 210,-250.58"/>
<text text-anchor="middle" x="301" y="-257.58" font-family="Helvetica,sans-Serif" font-size="10.00">titlePanes.ControlTitlePane.setSize</text>
</a>
</g>
</g>
<!-- Node1&#45;&gt;Node30 -->
<g id="edge33" class="edge"><title>Node1&#45;&gt;Node30</title>
<path fill="none" stroke="midnightblue" d="M173.617,-271.407C182.208,-270.637 190.983,-269.851 199.707,-269.069"/>
<polygon fill="midnightblue" stroke="midnightblue" points="200.263,-272.533 209.91,-268.155 199.638,-265.561 200.263,-272.533"/>
</g>
<!-- Node3 -->
<g id="node3" class="node"><title>Node3</title>
<g id="a_node3"><a xlink:href="../../d9/d49/classback_end_1_1_controller.html#a3b0bbf0a084bb4fb63d118f66e7327b1" target="_top" xlink:title="backEnd.Controller.move10">
<polygon fill="white" stroke="black" points="428,-288.58 428,-307.58 576,-307.58 576,-288.58 428,-288.58"/>
<text text-anchor="middle" x="502" y="-295.58" font-family="Helvetica,sans-Serif" font-size="10.00">backEnd.Controller.move10</text>
</a>
</g>
</g>
<!-- Node2&#45;&gt;Node3 -->
<g id="edge2" class="edge"><title>Node2&#45;&gt;Node3</title>
<path fill="none" stroke="midnightblue" d="M390.733,-298.08C399.77,-298.08 408.926,-298.08 417.9,-298.08"/>
<polygon fill="midnightblue" stroke="midnightblue" points="417.937,-301.581 427.937,-298.08 417.937,-294.581 417.937,-301.581"/>
</g>
<!-- Node4 -->
<g id="node4" class="node"><title>Node4</title>
<g id="a_node4"><a xlink:href="../../d8/de9/classmain_1_1_resource_finder.html#abbbd9c7b9078fd263f546d15bba68d22" target="_top" xlink:title="main.ResourceFinder.getMy\lLanguageResources">
<polygon fill="white" stroke="black" points="1910.5,-244.08 1910.5,-274.08 2057.5,-274.08 2057.5,-244.08 1910.5,-244.08"/>
<text text-anchor="start" x="1918.5" y="-262.08" font-family="Helvetica,sans-Serif" font-size="10.00">main.ResourceFinder.getMy</text>
<text text-anchor="middle" x="1984" y="-251.08" font-family="Helvetica,sans-Serif" font-size="10.00">LanguageResources</text>
</a>
</g>
</g>
<!-- Node3&#45;&gt;Node4 -->
<g id="edge3" class="edge"><title>Node3&#45;&gt;Node4</title>
<path fill="none" stroke="midnightblue" d="M544.582,-307.618C613.778,-322.63 757.108,-350.08 880,-350.08 880,-350.08 880,-350.08 1522,-350.08 1678.7,-350.08 1725.11,-378.933 1874,-330.08 1905.83,-319.638 1937.36,-297.464 1958.26,-280.658"/>
<polygon fill="midnightblue" stroke="midnightblue" points="1960.5,-283.347 1965.99,-274.288 1956.05,-277.942 1960.5,-283.347"/>
</g>
<!-- Node5 -->
<g id="node5" class="node"><title>Node5</title>
<g id="a_node5"><a xlink:href="../../d9/d49/classback_end_1_1_controller.html#ad650f48d236eaf11c2d8591b04831900" target="_top" xlink:title="backEnd.Controller.runScript">
<polygon fill="white" stroke="black" points="612,-237.58 612,-256.58 764,-256.58 764,-237.58 612,-237.58"/>
<text text-anchor="middle" x="688" y="-244.58" font-family="Helvetica,sans-Serif" font-size="10.00">backEnd.Controller.runScript</text>
</a>
</g>
</g>
<!-- Node3&#45;&gt;Node5 -->
<g id="edge4" class="edge"><title>Node3&#45;&gt;Node5</title>
<path fill="none" stroke="midnightblue" d="M537.609,-288.488C567.421,-280.225 610.62,-268.251 642.904,-259.303"/>
<polygon fill="midnightblue" stroke="midnightblue" points="643.844,-262.674 652.546,-256.63 641.975,-255.928 643.844,-262.674"/>
</g>
<!-- Node6 -->
<g id="node6" class="node"><title>Node6</title>
<g id="a_node6"><a xlink:href="../../d8/d1f/classfront_end_1_1_view.html#a88014d18898a5c72ba7893e0d865a218" target="_top" xlink:title="frontEnd.View.addToHistory">
<polygon fill="white" stroke="black" points="808,-282.58 808,-301.58 954,-301.58 954,-282.58 808,-282.58"/>
<text text-anchor="middle" x="881" y="-289.58" font-family="Helvetica,sans-Serif" font-size="10.00">frontEnd.View.addToHistory</text>
</a>
</g>
</g>
<!-- Node5&#45;&gt;Node6 -->
<g id="edge5" class="edge"><title>Node5&#45;&gt;Node6</title>
<path fill="none" stroke="midnightblue" d="M729.506,-256.624C758.754,-263.515 798.442,-272.865 829.717,-280.234"/>
<polygon fill="midnightblue" stroke="midnightblue" points="829.016,-283.664 839.552,-282.551 830.621,-276.851 829.016,-283.664"/>
</g>
<!-- Node9 -->
<g id="node9" class="node"><title>Node9</title>
<g id="a_node9"><a xlink:href="../../d8/d1f/classfront_end_1_1_view.html#a22669dd74ac845d66d5b59ddeba13b5e" target="_top" xlink:title="frontEnd.View.printException">
<polygon fill="white" stroke="black" points="1004,-196.58 1004,-215.58 1156,-215.58 1156,-196.58 1004,-196.58"/>
<text text-anchor="middle" x="1080" y="-203.58" font-family="Helvetica,sans-Serif" font-size="10.00">frontEnd.View.printException</text>
</a>
</g>
</g>
<!-- Node5&#45;&gt;Node9 -->
<g id="edge8" class="edge"><title>Node5&#45;&gt;Node9</title>
<path fill="none" stroke="midnightblue" d="M738.863,-237.553C757.933,-234.171 779.92,-230.585 800,-228.08 864.793,-219.998 938.444,-214.338 993.798,-210.786"/>
<polygon fill="midnightblue" stroke="midnightblue" points="994.155,-214.27 1003.91,-210.147 993.713,-207.284 994.155,-214.27"/>
</g>
<!-- Node11 -->
<g id="node11" class="node"><title>Node11</title>
<g id="a_node11"><a xlink:href="../../d9/d98/classback_end_1_1_model.html#ade764fd1c85a48fabb9abf3dfe8b8ceb" target="_top" xlink:title="backEnd.Model.runScript">
<polygon fill="white" stroke="black" points="813.5,-124.58 813.5,-143.58 948.5,-143.58 948.5,-124.58 813.5,-124.58"/>
<text text-anchor="middle" x="881" y="-131.58" font-family="Helvetica,sans-Serif" font-size="10.00">backEnd.Model.runScript</text>
</a>
</g>
</g>
<!-- Node5&#45;&gt;Node11 -->
<g id="edge10" class="edge"><title>Node5&#45;&gt;Node11</title>
<path fill="none" stroke="midnightblue" d="M705.285,-237.446C738.692,-217.682 815.17,-172.435 854.941,-148.906"/>
<polygon fill="midnightblue" stroke="midnightblue" points="856.932,-151.795 863.757,-143.69 853.368,-145.77 856.932,-151.795"/>
</g>
<!-- Node26 -->
<g id="node26" class="node"><title>Node26</title>
<g id="a_node26"><a xlink:href="../../d8/d1f/classfront_end_1_1_view.html#a59fa2dbe984da3217324979184d00559" target="_top" xlink:title="frontEnd.View.updateVariables">
<polygon fill="white" stroke="black" points="800.5,-237.58 800.5,-256.58 961.5,-256.58 961.5,-237.58 800.5,-237.58"/>
<text text-anchor="middle" x="881" y="-244.58" font-family="Helvetica,sans-Serif" font-size="10.00">frontEnd.View.updateVariables</text>
</a>
</g>
</g>
<!-- Node5&#45;&gt;Node26 -->
<g id="edge28" class="edge"><title>Node5&#45;&gt;Node26</title>
<path fill="none" stroke="midnightblue" d="M764.214,-247.08C772.768,-247.08 781.549,-247.08 790.266,-247.08"/>
<polygon fill="midnightblue" stroke="midnightblue" points="790.452,-250.581 800.452,-247.08 790.452,-243.581 790.452,-250.581"/>
</g>
<!-- Node7 -->
<g id="node7" class="node"><title>Node7</title>
<g id="a_node7"><a xlink:href="../../d8/dfc/classpanels_1_1_parameter_panel.html#a5f64bf2acdef3d7ca882a87ba8c78bf3" target="_top" xlink:title="panels.ParameterPanel.add\lToHistory">
<polygon fill="white" stroke="black" points="1006,-284.08 1006,-314.08 1154,-314.08 1154,-284.08 1006,-284.08"/>
<text text-anchor="start" x="1014" y="-302.08" font-family="Helvetica,sans-Serif" font-size="10.00">panels.ParameterPanel.add</text>
<text text-anchor="middle" x="1080" y="-291.08" font-family="Helvetica,sans-Serif" font-size="10.00">ToHistory</text>
</a>
</g>
</g>
<!-- Node6&#45;&gt;Node7 -->
<g id="edge6" class="edge"><title>Node6&#45;&gt;Node7</title>
<path fill="none" stroke="midnightblue" d="M954.237,-294.647C967.625,-295.123 981.712,-295.624 995.406,-296.11"/>
<polygon fill="midnightblue" stroke="midnightblue" points="995.664,-299.621 1005.78,-296.479 995.913,-292.626 995.664,-299.621"/>
</g>
<!-- Node8 -->
<g id="node8" class="node"><title>Node8</title>
<g id="a_node8"><a xlink:href="../../de/dff/classtitle_panes_1_1_history_title_pane.html#a14fe295c9a982a88b2f96e93758e021d" target="_top" xlink:title="titlePanes.HistoryTitlePane.add\lToHistory">
<polygon fill="white" stroke="black" points="1210,-284.08 1210,-314.08 1374,-314.08 1374,-284.08 1210,-284.08"/>
<text text-anchor="start" x="1218" y="-302.08" font-family="Helvetica,sans-Serif" font-size="10.00">titlePanes.HistoryTitlePane.add</text>
<text text-anchor="middle" x="1292" y="-291.08" font-family="Helvetica,sans-Serif" font-size="10.00">ToHistory</text>
</a>
</g>
</g>
<!-- Node7&#45;&gt;Node8 -->
<g id="edge7" class="edge"><title>Node7&#45;&gt;Node8</title>
<path fill="none" stroke="midnightblue" d="M1154.15,-299.08C1168.77,-299.08 1184.3,-299.08 1199.45,-299.08"/>
<polygon fill="midnightblue" stroke="midnightblue" points="1199.86,-302.581 1209.86,-299.08 1199.86,-295.581 1199.86,-302.581"/>
</g>
<!-- Node10 -->
<g id="node10" class="node"><title>Node10</title>
<g id="a_node10"><a xlink:href="../../de/d03/classpanels_1_1_script_panel.html#acf94d4284961d6d9eabc8af4db9abe87" target="_top" xlink:title="panels.ScriptPanel.print\lException">
<polygon fill="white" stroke="black" points="1227.5,-186.08 1227.5,-216.08 1356.5,-216.08 1356.5,-186.08 1227.5,-186.08"/>
<text text-anchor="start" x="1235.5" y="-204.08" font-family="Helvetica,sans-Serif" font-size="10.00">panels.ScriptPanel.print</text>
<text text-anchor="middle" x="1292" y="-193.08" font-family="Helvetica,sans-Serif" font-size="10.00">Exception</text>
</a>
</g>
</g>
<!-- Node9&#45;&gt;Node10 -->
<g id="edge9" class="edge"><title>Node9&#45;&gt;Node10</title>
<path fill="none" stroke="midnightblue" d="M1156.22,-204.289C1176.07,-203.817 1197.46,-203.308 1217.22,-202.837"/>
<polygon fill="midnightblue" stroke="midnightblue" points="1217.48,-206.332 1227.39,-202.595 1217.31,-199.334 1217.48,-206.332"/>
</g>
<!-- Node12 -->
<g id="node12" class="node"><title>Node12</title>
<g id="a_node12"><a xlink:href="../../d9/d1e/classback_end_1_1_parser.html#a163b8afd814babc8e7df59993f0d6440" target="_top" xlink:title="backEnd.Parser.parseScript">
<polygon fill="white" stroke="black" points="1006.5,-87.5805 1006.5,-106.58 1153.5,-106.58 1153.5,-87.5805 1006.5,-87.5805"/>
<text text-anchor="middle" x="1080" y="-94.5805" font-family="Helvetica,sans-Serif" font-size="10.00">backEnd.Parser.parseScript</text>
</a>
</g>
</g>
<!-- Node11&#45;&gt;Node12 -->
<g id="edge11" class="edge"><title>Node11&#45;&gt;Node12</title>
<path fill="none" stroke="midnightblue" d="M932.732,-124.552C958.827,-119.651 990.822,-113.642 1018.23,-108.495"/>
<polygon fill="midnightblue" stroke="midnightblue" points="1018.92,-111.927 1028.1,-106.641 1017.62,-105.047 1018.92,-111.927"/>
</g>
<!-- Node13 -->
<g id="node13" class="node"><title>Node13</title>
<g id="a_node13"><a xlink:href="../../d9/d98/classback_end_1_1_model.html#a6b39dd199a5957068c032bb023f4b613" target="_top" xlink:title="backEnd.Model.getCommandsMap">
<polygon fill="white" stroke="black" points="1673.5,-28.5805 1673.5,-47.5805 1856.5,-47.5805 1856.5,-28.5805 1673.5,-28.5805"/>
<text text-anchor="middle" x="1765" y="-35.5805" font-family="Helvetica,sans-Serif" font-size="10.00">backEnd.Model.getCommandsMap</text>
</a>
</g>
</g>
<!-- Node12&#45;&gt;Node13 -->
<g id="edge12" class="edge"><title>Node12&#45;&gt;Node13</title>
<path fill="none" stroke="midnightblue" d="M1092.72,-87.5795C1112.82,-71.9339 1155.79,-41.2678 1198,-29.0805 1378.7,23.0929 1605.54,-7.76964 1708.55,-26.6757"/>
<polygon fill="midnightblue" stroke="midnightblue" points="1707.95,-30.124 1718.42,-28.5211 1709.24,-23.2432 1707.95,-30.124"/>
</g>
<!-- Node14 -->
<g id="node14" class="node"><title>Node14</title>
<g id="a_node14"><a xlink:href="../../d9/d1e/classback_end_1_1_parser.html#a653298ad53a1eea540beded2bb558ab4" target="_top" xlink:title="backEnd.Parser.makeTree">
<polygon fill="white" stroke="black" points="1222.5,-125.58 1222.5,-144.58 1361.5,-144.58 1361.5,-125.58 1222.5,-125.58"/>
<text text-anchor="middle" x="1292" y="-132.58" font-family="Helvetica,sans-Serif" font-size="10.00">backEnd.Parser.makeTree</text>
</a>
</g>
</g>
<!-- Node12&#45;&gt;Node14 -->
<g id="edge13" class="edge"><title>Node12&#45;&gt;Node14</title>
<path fill="none" stroke="midnightblue" d="M1133.72,-106.62C1162.43,-111.815 1198.14,-118.277 1228.27,-123.729"/>
<polygon fill="midnightblue" stroke="midnightblue" points="1227.79,-127.2 1238.26,-125.537 1229.04,-120.312 1227.79,-127.2"/>
</g>
<!-- Node24 -->
<g id="node24" class="node"><title>Node24</title>
<g id="a_node24"><a xlink:href="../../d9/d1e/classback_end_1_1_parser.html#a71653c0a9d02d4b400e357b978260de6" target="_top" xlink:title="backEnd.Parser.removeComments">
<polygon fill="white" stroke="black" points="1201,-87.5805 1201,-106.58 1383,-106.58 1383,-87.5805 1201,-87.5805"/>
<text text-anchor="middle" x="1292" y="-94.5805" font-family="Helvetica,sans-Serif" font-size="10.00">backEnd.Parser.removeComments</text>
</a>
</g>
</g>
<!-- Node12&#45;&gt;Node24 -->
<g id="edge26" class="edge"><title>Node12&#45;&gt;Node24</title>
<path fill="none" stroke="midnightblue" d="M1153.56,-97.0805C1165.54,-97.0805 1178.14,-97.0805 1190.65,-97.0805"/>
<polygon fill="midnightblue" stroke="midnightblue" points="1190.65,-100.581 1200.65,-97.0805 1190.65,-93.5806 1190.65,-100.581"/>
</g>
<!-- Node25 -->
<g id="node25" class="node"><title>Node25</title>
<g id="a_node25"><a xlink:href="../../d5/d62/classcommands_1_1templates_1_1_command.html#aa1c27b6285999798be609159ee5c7a83" target="_top" xlink:title="commands.templates.Command.to\lString">
<polygon fill="white" stroke="black" points="1198,-38.0805 1198,-68.0805 1386,-68.0805 1386,-38.0805 1198,-38.0805"/>
<text text-anchor="start" x="1206" y="-56.0805" font-family="Helvetica,sans-Serif" font-size="10.00">commands.templates.Command.to</text>
<text text-anchor="middle" x="1292" y="-45.0805" font-family="Helvetica,sans-Serif" font-size="10.00">String</text>
</a>
</g>
</g>
<!-- Node12&#45;&gt;Node25 -->
<g id="edge27" class="edge"><title>Node12&#45;&gt;Node25</title>
<path fill="none" stroke="midnightblue" d="M1126.57,-87.5331C1150.74,-82.4687 1181.17,-76.0914 1209.27,-70.2046"/>
<polygon fill="midnightblue" stroke="midnightblue" points="1210.03,-73.6222 1219.1,-68.1458 1208.59,-66.771 1210.03,-73.6222"/>
</g>
<!-- Node14&#45;&gt;Node13 -->
<g id="edge24" class="edge"><title>Node14&#45;&gt;Node13</title>
<path fill="none" stroke="midnightblue" d="M1361.9,-127.199C1370.42,-124.472 1378.69,-120.858 1386,-116.08 1409.23,-100.903 1397.89,-78.8051 1422,-65.0805 1507.16,-16.6109 1624.1,-19.2868 1696.81,-27.3897"/>
<polygon fill="midnightblue" stroke="midnightblue" points="1696.43,-30.8687 1706.77,-28.5643 1697.25,-23.9169 1696.43,-30.8687"/>
</g>
<!-- Node15 -->
<g id="node15" class="node"><title>Node15</title>
<g id="a_node15"><a xlink:href="../../d5/d62/classcommands_1_1templates_1_1_command.html#a9ab84f2a1491a7283311891b8a6082dc" target="_top" xlink:title="commands.templates.Command.add\lChild">
<polygon fill="white" stroke="black" points="1422.5,-74.0805 1422.5,-104.08 1619.5,-104.08 1619.5,-74.0805 1422.5,-74.0805"/>
<text text-anchor="start" x="1430.5" y="-92.0805" font-family="Helvetica,sans-Serif" font-size="10.00">commands.templates.Command.add</text>
<text text-anchor="middle" x="1521" y="-81.0805" font-family="Helvetica,sans-Serif" font-size="10.00">Child</text>
</a>
</g>
</g>
<!-- Node14&#45;&gt;Node15 -->
<g id="edge14" class="edge"><title>Node14&#45;&gt;Node15</title>
<path fill="none" stroke="midnightblue" d="M1340.03,-125.549C1367.69,-119.945 1403.48,-112.693 1435.84,-106.134"/>
<polygon fill="midnightblue" stroke="midnightblue" points="1436.66,-109.54 1445.77,-104.123 1435.27,-102.679 1436.66,-109.54"/>
</g>
<!-- Node16 -->
<g id="node16" class="node"><title>Node16</title>
<g id="a_node16"><a xlink:href="../../d5/d1d/classcommands_1_1_command_factory.html#ac77125dd466e3e01fce01fc527e7f815" target="_top" xlink:title="commands.CommandFactory.build\lCommand">
<polygon fill="white" stroke="black" points="1430,-172.08 1430,-202.08 1612,-202.08 1612,-172.08 1430,-172.08"/>
<text text-anchor="start" x="1438" y="-190.08" font-family="Helvetica,sans-Serif" font-size="10.00">commands.CommandFactory.build</text>
<text text-anchor="middle" x="1521" y="-179.08" font-family="Helvetica,sans-Serif" font-size="10.00">Command</text>
</a>
</g>
</g>
<!-- Node14&#45;&gt;Node16 -->
<g id="edge15" class="edge"><title>Node14&#45;&gt;Node16</title>
<path fill="none" stroke="midnightblue" d="M1334.64,-144.618C1365.17,-151.613 1407.5,-161.309 1443.99,-169.669"/>
<polygon fill="midnightblue" stroke="midnightblue" points="1443.59,-173.167 1454.12,-171.989 1445.15,-166.344 1443.59,-173.167"/>
</g>
<!-- Node23 -->
<g id="node23" class="node"><title>Node23</title>
<g id="a_node23"><a xlink:href="../../d5/d62/classcommands_1_1templates_1_1_command.html#a0ca025dffda489d73ba4b6c12c7118fe" target="_top" xlink:title="commands.templates.Command.get\lNumChildrenNeeded">
<polygon fill="white" stroke="black" points="1424,-123.08 1424,-153.08 1618,-153.08 1618,-123.08 1424,-123.08"/>
<text text-anchor="start" x="1432" y="-141.08" font-family="Helvetica,sans-Serif" font-size="10.00">commands.templates.Command.get</text>
<text text-anchor="middle" x="1521" y="-130.08" font-family="Helvetica,sans-Serif" font-size="10.00">NumChildrenNeeded</text>
</a>
</g>
</g>
<!-- Node14&#45;&gt;Node23 -->
<g id="edge25" class="edge"><title>Node14&#45;&gt;Node23</title>
<path fill="none" stroke="midnightblue" d="M1361.72,-135.989C1378.09,-136.205 1395.93,-136.441 1413.54,-136.674"/>
<polygon fill="midnightblue" stroke="midnightblue" points="1413.83,-140.178 1423.87,-136.81 1413.92,-133.178 1413.83,-140.178"/>
</g>
<!-- Node16&#45;&gt;Node13 -->
<g id="edge21" class="edge"><title>Node16&#45;&gt;Node13</title>
<path fill="none" stroke="midnightblue" d="M1606.3,-171.906C1611.24,-169.139 1615.87,-165.89 1620,-162.08 1656.26,-128.629 1618.5,-89.1373 1656,-57.0805 1658.6,-54.8537 1661.38,-52.8462 1664.28,-51.038"/>
<polygon fill="midnightblue" stroke="midnightblue" points="1666.18,-53.9921 1673.35,-46.1918 1662.88,-47.8185 1666.18,-53.9921"/>
</g>
<!-- Node17 -->
<g id="node17" class="node"><title>Node17</title>
<g id="a_node17"><a xlink:href="../../d5/d1d/classcommands_1_1_command_factory.html#adcf456039b5d7285082f1e009f3d30b6" target="_top" xlink:title="commands.CommandFactory.checkCaps">
<polygon fill="white" stroke="black" points="1659,-203.58 1659,-222.58 1871,-222.58 1871,-203.58 1659,-203.58"/>
<text text-anchor="middle" x="1765" y="-210.58" font-family="Helvetica,sans-Serif" font-size="10.00">commands.CommandFactory.checkCaps</text>
</a>
</g>
</g>
<!-- Node16&#45;&gt;Node17 -->
<g id="edge16" class="edge"><title>Node16&#45;&gt;Node17</title>
<path fill="none" stroke="midnightblue" d="M1612.11,-196.762C1629.41,-198.621 1647.61,-200.576 1665.17,-202.463"/>
<polygon fill="midnightblue" stroke="midnightblue" points="1665.11,-205.976 1675.42,-203.564 1665.85,-199.016 1665.11,-205.976"/>
</g>
<!-- Node18 -->
<g id="node18" class="node"><title>Node18</title>
<g id="a_node18"><a xlink:href="../../d5/d1d/classcommands_1_1_command_factory.html#acae1571442d9f8e040df95c8a2742d8d" target="_top" xlink:title="commands.CommandFactory.check\lLanguage">
<polygon fill="white" stroke="black" points="1671,-154.08 1671,-184.08 1859,-184.08 1859,-154.08 1671,-154.08"/>
<text text-anchor="start" x="1679" y="-172.08" font-family="Helvetica,sans-Serif" font-size="10.00">commands.CommandFactory.check</text>
<text text-anchor="middle" x="1765" y="-161.08" font-family="Helvetica,sans-Serif" font-size="10.00">Language</text>
</a>
</g>
</g>
<!-- Node16&#45;&gt;Node18 -->
<g id="edge17" class="edge"><title>Node16&#45;&gt;Node18</title>
<path fill="none" stroke="midnightblue" d="M1612.11,-180.378C1628.03,-179.194 1644.7,-177.954 1660.94,-176.746"/>
<polygon fill="midnightblue" stroke="midnightblue" points="1661.27,-180.231 1670.98,-175.999 1660.75,-173.251 1661.27,-180.231"/>
</g>
<!-- Node19 -->
<g id="node19" class="node"><title>Node19</title>
<g id="a_node19"><a xlink:href="../../d5/d1d/classcommands_1_1_command_factory.html#a9206a1ef0f863c61cb5c894da3133ef8" target="_top" xlink:title="commands.CommandFactory.check\lUserCommand">
<polygon fill="white" stroke="black" points="1671,-105.08 1671,-135.08 1859,-135.08 1859,-105.08 1671,-105.08"/>
<text text-anchor="start" x="1679" y="-123.08" font-family="Helvetica,sans-Serif" font-size="10.00">commands.CommandFactory.check</text>
<text text-anchor="middle" x="1765" y="-112.08" font-family="Helvetica,sans-Serif" font-size="10.00">UserCommand</text>
</a>
</g>
</g>
<!-- Node16&#45;&gt;Node19 -->
<g id="edge19" class="edge"><title>Node16&#45;&gt;Node19</title>
<path fill="none" stroke="midnightblue" d="M1588.15,-172.048C1598.9,-169.08 1609.84,-165.737 1620,-162.08 1636.65,-156.088 1639.29,-150.887 1656,-145.08 1663.63,-142.432 1671.65,-139.979 1679.74,-137.731"/>
<polygon fill="midnightblue" stroke="midnightblue" points="1680.86,-141.054 1689.62,-135.09 1679.06,-134.292 1680.86,-141.054"/>
</g>
<!-- Node20 -->
<g id="node20" class="node"><title>Node20</title>
<g id="a_node20"><a xlink:href="../../d5/d1d/classcommands_1_1_command_factory.html#a221a82baff222f4552a38b521efd78b6" target="_top" xlink:title="commands.CommandFactory.checkVar">
<polygon fill="white" stroke="black" points="1663.5,-66.5805 1663.5,-85.5805 1866.5,-85.5805 1866.5,-66.5805 1663.5,-66.5805"/>
<text text-anchor="middle" x="1765" y="-73.5805" font-family="Helvetica,sans-Serif" font-size="10.00">commands.CommandFactory.checkVar</text>
</a>
</g>
</g>
<!-- Node16&#45;&gt;Node20 -->
<g id="edge20" class="edge"><title>Node16&#45;&gt;Node20</title>
<path fill="none" stroke="midnightblue" d="M1603.67,-172.018C1609.48,-169.241 1615.01,-165.959 1620,-162.08 1646.38,-141.578 1628.95,-115.692 1656,-96.0805 1659.12,-93.821 1662.41,-91.7935 1665.84,-89.9755"/>
<polygon fill="midnightblue" stroke="midnightblue" points="1667.6,-93.02 1675.2,-85.6368 1664.65,-86.67 1667.6,-93.02"/>
</g>
<!-- Node21 -->
<g id="node21" class="node"><title>Node21</title>
<g id="a_node21"><a xlink:href="../../d5/d62/classcommands_1_1templates_1_1_command.html#a20741a5e32e24ff113701f7b2957e658" target="_top" xlink:title="commands.templates.Command.initialize\lCommand">
<polygon fill="white" stroke="black" points="1656.5,-291.08 1656.5,-321.08 1873.5,-321.08 1873.5,-291.08 1656.5,-291.08"/>
<text text-anchor="start" x="1664.5" y="-309.08" font-family="Helvetica,sans-Serif" font-size="10.00">commands.templates.Command.initialize</text>
<text text-anchor="middle" x="1765" y="-298.08" font-family="Helvetica,sans-Serif" font-size="10.00">Command</text>
</a>
</g>
</g>
<!-- Node16&#45;&gt;Node21 -->
<g id="edge22" class="edge"><title>Node16&#45;&gt;Node21</title>
<path fill="none" stroke="midnightblue" d="M1576.84,-202.152C1591.86,-208.003 1607.45,-215.828 1620,-226.08 1642.63,-244.564 1632.04,-264.359 1656,-281.08 1658.76,-283.008 1661.65,-284.789 1664.64,-286.434"/>
<polygon fill="midnightblue" stroke="midnightblue" points="1663.34,-289.695 1673.85,-290.974 1666.43,-283.416 1663.34,-289.695"/>
</g>
<!-- Node22 -->
<g id="node22" class="node"><title>Node22</title>
<g id="a_node22"><a xlink:href="../../d5/d1d/classcommands_1_1_command_factory.html#aa562012b61b9b1701eada2bea8caa1d8" target="_top" xlink:title="commands.CommandFactory.is\lNumeric">
<polygon fill="white" stroke="black" points="1681.5,-242.08 1681.5,-272.08 1848.5,-272.08 1848.5,-242.08 1681.5,-242.08"/>
<text text-anchor="start" x="1689.5" y="-260.08" font-family="Helvetica,sans-Serif" font-size="10.00">commands.CommandFactory.is</text>
<text text-anchor="middle" x="1765" y="-249.08" font-family="Helvetica,sans-Serif" font-size="10.00">Numeric</text>
</a>
</g>
</g>
<!-- Node16&#45;&gt;Node22 -->
<g id="edge23" class="edge"><title>Node16&#45;&gt;Node22</title>
<path fill="none" stroke="midnightblue" d="M1563.33,-202.109C1589.65,-211.395 1624.59,-223.194 1656,-232.08 1665.31,-234.713 1675.12,-237.276 1684.88,-239.694"/>
<polygon fill="midnightblue" stroke="midnightblue" points="1684.07,-243.097 1694.61,-242.062 1685.72,-236.296 1684.07,-243.097"/>
</g>
<!-- Node18&#45;&gt;Node4 -->
<g id="edge18" class="edge"><title>Node18&#45;&gt;Node4</title>
<path fill="none" stroke="midnightblue" d="M1844.18,-184.126C1854.36,-186.97 1864.54,-190.272 1874,-194.08 1902.74,-205.648 1932.8,-224.12 1954.05,-238.422"/>
<polygon fill="midnightblue" stroke="midnightblue" points="1952.08,-241.312 1962.31,-244.066 1956.03,-235.533 1952.08,-241.312"/>
</g>
<!-- Node26&#45;&gt;Node9 -->
<g id="edge29" class="edge"><title>Node26&#45;&gt;Node9</title>
<path fill="none" stroke="midnightblue" d="M927.691,-237.571C956.182,-231.641 993.043,-223.97 1023.25,-217.683"/>
<polygon fill="midnightblue" stroke="midnightblue" points="1024.14,-221.073 1033.22,-215.609 1022.71,-214.22 1024.14,-221.073"/>
</g>
<!-- Node27 -->
<g id="node27" class="node"><title>Node27</title>
<g id="a_node27"><a xlink:href="../../d8/dfc/classpanels_1_1_parameter_panel.html#a0bf8e32fe635c48c8a057062e0534b62" target="_top" xlink:title="panels.ParameterPanel.update\lVariables">
<polygon fill="white" stroke="black" points="998,-235.08 998,-265.08 1162,-265.08 1162,-235.08 998,-235.08"/>
<text text-anchor="start" x="1006" y="-253.08" font-family="Helvetica,sans-Serif" font-size="10.00">panels.ParameterPanel.update</text>
<text text-anchor="middle" x="1080" y="-242.08" font-family="Helvetica,sans-Serif" font-size="10.00">Variables</text>
</a>
</g>
</g>
<!-- Node26&#45;&gt;Node27 -->
<g id="edge30" class="edge"><title>Node26&#45;&gt;Node27</title>
<path fill="none" stroke="midnightblue" d="M961.56,-248.292C970.156,-248.423 978.952,-248.557 987.673,-248.69"/>
<polygon fill="midnightblue" stroke="midnightblue" points="987.808,-252.192 997.86,-248.845 987.914,-245.193 987.808,-252.192"/>
</g>
<!-- Node28 -->
<g id="node28" class="node"><title>Node28</title>
<g id="a_node28"><a xlink:href="../../d0/d8f/classtitle_panes_1_1_variable_title_pane.html#a395dd58ae72e6111fce8e99be3c03842" target="_top" xlink:title="titlePanes.VariableTitle\lPane.updateVariables">
<polygon fill="white" stroke="black" points="1230,-235.08 1230,-265.08 1354,-265.08 1354,-235.08 1230,-235.08"/>
<text text-anchor="start" x="1238" y="-253.08" font-family="Helvetica,sans-Serif" font-size="10.00">titlePanes.VariableTitle</text>
<text text-anchor="middle" x="1292" y="-242.08" font-family="Helvetica,sans-Serif" font-size="10.00">Pane.updateVariables</text>
</a>
</g>
</g>
<!-- Node27&#45;&gt;Node28 -->
<g id="edge31" class="edge"><title>Node27&#45;&gt;Node28</title>
<path fill="none" stroke="midnightblue" d="M1162.19,-250.08C1181.18,-250.08 1201.27,-250.08 1219.79,-250.08"/>
<polygon fill="midnightblue" stroke="midnightblue" points="1219.89,-253.581 1229.89,-250.08 1219.89,-246.581 1219.89,-253.581"/>
</g>
<!-- Node29 -->
<g id="node29" class="node"><title>Node29</title>
<g id="a_node29"><a xlink:href="../../d0/d8f/classtitle_panes_1_1_variable_title_pane.html#a007ec1abdc73761490261f283e07338e" target="_top" xlink:title="titlePanes.VariableTitle\lPane.writeVariables">
<polygon fill="white" stroke="black" points="1459,-235.08 1459,-265.08 1583,-265.08 1583,-235.08 1459,-235.08"/>
<text text-anchor="start" x="1467" y="-253.08" font-family="Helvetica,sans-Serif" font-size="10.00">titlePanes.VariableTitle</text>
<text text-anchor="middle" x="1521" y="-242.08" font-family="Helvetica,sans-Serif" font-size="10.00">Pane.writeVariables</text>
</a>
</g>
</g>
<!-- Node28&#45;&gt;Node29 -->
<g id="edge32" class="edge"><title>Node28&#45;&gt;Node29</title>
<path fill="none" stroke="midnightblue" d="M1354.13,-250.08C1383.27,-250.08 1418.31,-250.08 1448.66,-250.08"/>
<polygon fill="midnightblue" stroke="midnightblue" points="1448.76,-253.581 1458.76,-250.08 1448.76,-246.581 1448.76,-253.581"/>
</g>
</g>
</svg>
        <g id="navigator" transform="translate(0 0)" fill="#404254">
                <rect fill="#f2f5e9" fill-opacity="0.5" stroke="#606060" stroke-width=".5" x="0" y="0" width="60" height="60"/>
                <use id="zoomplus" xlink:href="#zoomPlus" x="17" y="9" onmousedown="handleZoom(evt,'in')"/>
                <use id="zoomminus" xlink:href="#zoomMin" x="42" y="9" onmousedown="handleZoom(evt,'out')"/>
                <use id="reset" xlink:href="#resetDef" x="30" y="36" onmousedown="handleReset()"/>
                <g id="arrowUp" xlink:href="#dirArrow" transform="translate(30 24)" onmousedown="handlePan(0,-1)">
                  <use xlink:href="#rim" fill="#404040">
                        <set attributeName="fill" to="#808080" begin="arrowUp.mouseover" end="arrowUp.mouseout"/>
                  </use>
                  <path fill="none" stroke="white" stroke-width="1.5" d="M0,-3.0v7 M-2.5,-0.5L0,-3.0L2.5,-0.5"/>
                </g>
                <g id="arrowRight" xlink:href="#dirArrow" transform="rotate(90) translate(36 -43)" onmousedown="handlePan(1,0)">
                  <use xlink:href="#rim" fill="#404040">
                        <set attributeName="fill" to="#808080" begin="arrowRight.mouseover" end="arrowRight.mouseout"/>
                  </use>
                  <path fill="none" stroke="white" stroke-width="1.5" d="M0,-3.0v7 M-2.5,-0.5L0,-3.0L2.5,-0.5"/>
                </g>
                <g id="arrowDown" xlink:href="#dirArrow" transform="rotate(180) translate(-30 -48)" onmousedown="handlePan(0,1)">
                  <use xlink:href="#rim" fill="#404040">
                        <set attributeName="fill" to="#808080" begin="arrowDown.mouseover" end="arrowDown.mouseout"/>
                  </use>
                  <path fill="none" stroke="white" stroke-width="1.5" d="M0,-3.0v7 M-2.5,-0.5L0,-3.0L2.5,-0.5"/>
                </g>
                <g id="arrowLeft" xlink:href="#dirArrow" transform="rotate(270) translate(-36 17)" onmousedown="handlePan(-1,0)">
                  <use xlink:href="#rim" fill="#404040">
                        <set attributeName="fill" to="#808080" begin="arrowLeft.mouseover" end="arrowLeft.mouseout"/>
                  </use>
                  <path fill="none" stroke="white" stroke-width="1.5" d="M0,-3.0v7 M-2.5,-0.5L0,-3.0L2.5,-0.5"/>
                </g>
        </g>
        <svg viewBox="0 0 15 15" width="100%" height="30px" preserveAspectRatio="xMaxYMin meet">
         <g id="arrow_out" transform="scale(0.3 0.3)">
          <a xlink:href="classtitle_panes_1_1_control_title_pane_a974c75cbdf64007af637c8b19a26b215_cgraph_org.svg" target="_base">
           <rect id="button" ry="5" rx="5" y="6" x="6" height="38" width="38"
                fill="#f2f5e9" fill-opacity="0.5" stroke="#606060" stroke-width="1.0"/>
           <path id="arrow"
             d="M 11.500037,31.436501 C 11.940474,20.09759 22.043105,11.32322 32.158766,21.979434 L 37.068811,17.246167 C 37.068811,17.246167 37.088388,32 37.088388,32 L 22.160133,31.978069 C 22.160133,31.978069 26.997745,27.140456 26.997745,27.140456 C 18.528582,18.264221 13.291696,25.230495 11.500037,31.436501 z"
             style="fill:#404040;"/>
          </a>
         </g>
        </svg>
</svg>
