<?xml version="1.0" encoding="UTF-8" standalone="no"?>
<!DOCTYPE svg PUBLIC "-//W3C//DTD SVG 1.1//EN"
 "http://www.w3.org/Graphics/SVG/1.1/DTD/svg11.dtd">
<!-- Generated by graphviz version 2.36.0 (20140111.2315)
 -->
<!-- Title: titlePanes.ControlTitlePane.makeLocationFields Pages: 1 -->
<svg width="2064pt" height="360pt"
 viewBox="0.00 0.00 2064.00 359.69" xmlns="http://www.w3.org/2000/svg" xmlns:xlink="http://www.w3.org/1999/xlink">
<g id="graph0" class="graph" transform="scale(1 1) rotate(0) translate(4 355.685)">
<title>titlePanes.ControlTitlePane.makeLocationFields</title>
<polygon fill="white" stroke="none" points="-4,4 -4,-355.685 2060,-355.685 2060,4 -4,4"/>
<!-- Node1 -->
<g id="node1" class="node"><title>Node1</title>
<polygon fill="#bfbfbf" stroke="black" points="0.5,-251.089 0.5,-281.089 173.5,-281.089 173.5,-251.089 0.5,-251.089"/>
<text text-anchor="start" x="8.5" y="-269.089" font-family="Helvetica,sans-Serif" font-size="10.00">titlePanes.ControlTitlePane.make</text>
<text text-anchor="middle" x="87" y="-258.089" font-family="Helvetica,sans-Serif" font-size="10.00">LocationFields</text>
</g>
<!-- Node2 -->
<g id="node2" class="node"><title>Node2</title>
<g id="a_node2"><a xlink:href="../../da/d04/classtitle_panes_1_1_control_title_pane.html#ae994c7b4dd988b30fc824e9e893b3ccf" target="_top" xlink:title="titlePanes.ControlTitlePane.handle">
<polygon fill="white" stroke="black" points="210.5,-275.589 210.5,-294.589 389.5,-294.589 389.5,-275.589 210.5,-275.589"/>
<text text-anchor="middle" x="300" y="-282.589" font-family="Helvetica,sans-Serif" font-size="10.00">titlePanes.ControlTitlePane.handle</text>
</a>
</g>
</g>
<!-- Node1&#45;&gt;Node2 -->
<g id="edge1" class="edge"><title>Node1&#45;&gt;Node2</title>
<path fill="none" stroke="midnightblue" d="M173.518,-273.79C182.316,-274.582 191.306,-275.391 200.232,-276.195"/>
<polygon fill="midnightblue" stroke="midnightblue" points="199.995,-279.688 210.268,-277.099 200.622,-272.716 199.995,-279.688"/>
</g>
<!-- Node5 -->
<g id="node5" class="node"><title>Node5</title>
<g id="a_node5"><a xlink:href="../../d9/d49/classback_end_1_1_controller.html#ad650f48d236eaf11c2d8591b04831900" target="_top" xlink:title="backEnd.Controller.runScript">
<polygon fill="white" stroke="black" points="610,-237.589 610,-256.589 762,-256.589 762,-237.589 610,-237.589"/>
<text text-anchor="middle" x="686" y="-244.589" font-family="Helvetica,sans-Serif" font-size="10.00">backEnd.Controller.runScript</text>
</a>
</g>
</g>
<!-- Node1&#45;&gt;Node5 -->
<g id="edge33" class="edge"><title>Node1&#45;&gt;Node5</title>
<path fill="none" stroke="midnightblue" d="M173.536,-263.367C287.143,-259.751 486.627,-253.402 599.976,-249.795"/>
<polygon fill="midnightblue" stroke="midnightblue" points="600.115,-253.292 609.999,-249.476 599.892,-246.296 600.115,-253.292"/>
</g>
<!-- Node3 -->
<g id="node3" class="node"><title>Node3</title>
<g id="a_node3"><a xlink:href="../../d9/d49/classback_end_1_1_controller.html#a3b0bbf0a084bb4fb63d118f66e7327b1" target="_top" xlink:title="backEnd.Controller.move10">
<polygon fill="white" stroke="black" points="426,-275.589 426,-294.589 574,-294.589 574,-275.589 426,-275.589"/>
<text text-anchor="middle" x="500" y="-282.589" font-family="Helvetica,sans-Serif" font-size="10.00">backEnd.Controller.move10</text>
</a>
</g>
</g>
<!-- Node2&#45;&gt;Node3 -->
<g id="edge2" class="edge"><title>Node2&#45;&gt;Node3</title>
<path fill="none" stroke="midnightblue" d="M389.576,-285.089C398.309,-285.089 407.151,-285.089 415.827,-285.089"/>
<polygon fill="midnightblue" stroke="midnightblue" points="415.918,-288.589 425.918,-285.089 415.918,-281.589 415.918,-288.589"/>
</g>
<!-- Node4 -->
<g id="node4" class="node"><title>Node4</title>
<g id="a_node4"><a xlink:href="../../d8/de9/classmain_1_1_resource_finder.html#abbbd9c7b9078fd263f546d15bba68d22" target="_top" xlink:title="main.ResourceFinder.getMy\lLanguageResources">
<polygon fill="white" stroke="black" points="1908.5,-237.089 1908.5,-267.089 2055.5,-267.089 2055.5,-237.089 1908.5,-237.089"/>
<text text-anchor="start" x="1916.5" y="-255.089" font-family="Helvetica,sans-Serif" font-size="10.00">main.ResourceFinder.getMy</text>
<text text-anchor="middle" x="1982" y="-244.089" font-family="Helvetica,sans-Serif" font-size="10.00">LanguageResources</text>
</a>
</g>
</g>
<!-- Node3&#45;&gt;Node4 -->
<g id="edge3" class="edge"><title>Node3&#45;&gt;Node4</title>
<path fill="none" stroke="midnightblue" d="M537.9,-294.601C605.07,-311.056 752.014,-343.089 878,-343.089 878,-343.089 878,-343.089 1520,-343.089 1676.7,-343.089 1723.11,-371.941 1872,-323.089 1903.83,-312.646 1935.36,-290.473 1956.26,-273.666"/>
<polygon fill="midnightblue" stroke="midnightblue" points="1958.5,-276.355 1963.99,-267.297 1954.05,-270.951 1958.5,-276.355"/>
</g>
<!-- Node3&#45;&gt;Node5 -->
<g id="edge4" class="edge"><title>Node3&#45;&gt;Node5</title>
<path fill="none" stroke="midnightblue" d="M547.431,-275.5C572.149,-270.395 602.739,-264.078 628.792,-258.697"/>
<polygon fill="midnightblue" stroke="midnightblue" points="629.817,-262.059 638.903,-256.609 628.402,-255.204 629.817,-262.059"/>
</g>
<!-- Node6 -->
<g id="node6" class="node"><title>Node6</title>
<g id="a_node6"><a xlink:href="../../d8/d1f/classfront_end_1_1_view.html#a88014d18898a5c72ba7893e0d865a218" target="_top" xlink:title="frontEnd.View.addToHistory">
<polygon fill="white" stroke="black" points="806,-282.589 806,-301.589 952,-301.589 952,-282.589 806,-282.589"/>
<text text-anchor="middle" x="879" y="-289.589" font-family="Helvetica,sans-Serif" font-size="10.00">frontEnd.View.addToHistory</text>
</a>
</g>
</g>
<!-- Node5&#45;&gt;Node6 -->
<g id="edge5" class="edge"><title>Node5&#45;&gt;Node6</title>
<path fill="none" stroke="midnightblue" d="M727.506,-256.632C756.754,-263.523 796.442,-272.874 827.717,-280.242"/>
<polygon fill="midnightblue" stroke="midnightblue" points="827.016,-283.673 837.552,-282.559 828.621,-276.859 827.016,-283.673"/>
</g>
<!-- Node9 -->
<g id="node9" class="node"><title>Node9</title>
<g id="a_node9"><a xlink:href="../../d8/d1f/classfront_end_1_1_view.html#a22669dd74ac845d66d5b59ddeba13b5e" target="_top" xlink:title="frontEnd.View.printException">
<polygon fill="white" stroke="black" points="1002,-196.589 1002,-215.589 1154,-215.589 1154,-196.589 1002,-196.589"/>
<text text-anchor="middle" x="1078" y="-203.589" font-family="Helvetica,sans-Serif" font-size="10.00">frontEnd.View.printException</text>
</a>
</g>
</g>
<!-- Node5&#45;&gt;Node9 -->
<g id="edge8" class="edge"><title>Node5&#45;&gt;Node9</title>
<path fill="none" stroke="midnightblue" d="M736.863,-237.561C755.933,-234.179 777.92,-230.594 798,-228.089 862.793,-220.006 936.444,-214.347 991.798,-210.794"/>
<polygon fill="midnightblue" stroke="midnightblue" points="992.155,-214.279 1001.91,-210.155 991.713,-207.292 992.155,-214.279"/>
</g>
<!-- Node11 -->
<g id="node11" class="node"><title>Node11</title>
<g id="a_node11"><a xlink:href="../../d9/d98/classback_end_1_1_model.html#ade764fd1c85a48fabb9abf3dfe8b8ceb" target="_top" xlink:title="backEnd.Model.runScript">
<polygon fill="white" stroke="black" points="811.5,-132.589 811.5,-151.589 946.5,-151.589 946.5,-132.589 811.5,-132.589"/>
<text text-anchor="middle" x="879" y="-139.589" font-family="Helvetica,sans-Serif" font-size="10.00">backEnd.Model.runScript</text>
</a>
</g>
</g>
<!-- Node5&#45;&gt;Node11 -->
<g id="edge10" class="edge"><title>Node5&#45;&gt;Node11</title>
<path fill="none" stroke="midnightblue" d="M704.287,-237.586C737.867,-219.125 812.094,-178.32 851.776,-156.505"/>
<polygon fill="midnightblue" stroke="midnightblue" points="853.538,-159.531 860.615,-151.646 850.165,-153.397 853.538,-159.531"/>
</g>
<!-- Node26 -->
<g id="node26" class="node"><title>Node26</title>
<g id="a_node26"><a xlink:href="../../d8/d1f/classfront_end_1_1_view.html#a59fa2dbe984da3217324979184d00559" target="_top" xlink:title="frontEnd.View.updateVariables">
<polygon fill="white" stroke="black" points="798.5,-237.589 798.5,-256.589 959.5,-256.589 959.5,-237.589 798.5,-237.589"/>
<text text-anchor="middle" x="879" y="-244.589" font-family="Helvetica,sans-Serif" font-size="10.00">frontEnd.View.updateVariables</text>
</a>
</g>
</g>
<!-- Node5&#45;&gt;Node26 -->
<g id="edge28" class="edge"><title>Node5&#45;&gt;Node26</title>
<path fill="none" stroke="midnightblue" d="M762.214,-247.089C770.768,-247.089 779.549,-247.089 788.266,-247.089"/>
<polygon fill="midnightblue" stroke="midnightblue" points="788.452,-250.589 798.452,-247.089 788.452,-243.589 788.452,-250.589"/>
</g>
<!-- Node7 -->
<g id="node7" class="node"><title>Node7</title>
<g id="a_node7"><a xlink:href="../../d8/dfc/classpanels_1_1_parameter_panel.html#a5f64bf2acdef3d7ca882a87ba8c78bf3" target="_top" xlink:title="panels.ParameterPanel.add\lToHistory">
<polygon fill="white" stroke="black" points="1004,-284.089 1004,-314.089 1152,-314.089 1152,-284.089 1004,-284.089"/>
<text text-anchor="start" x="1012" y="-302.089" font-family="Helvetica,sans-Serif" font-size="10.00">panels.ParameterPanel.add</text>
<text text-anchor="middle" x="1078" y="-291.089" font-family="Helvetica,sans-Serif" font-size="10.00">ToHistory</text>
</a>
</g>
</g>
<!-- Node6&#45;&gt;Node7 -->
<g id="edge6" class="edge"><title>Node6&#45;&gt;Node7</title>
<path fill="none" stroke="midnightblue" d="M952.237,-294.656C965.625,-295.131 979.712,-295.632 993.406,-296.119"/>
<polygon fill="midnightblue" stroke="midnightblue" points="993.664,-299.63 1003.78,-296.487 993.913,-292.634 993.664,-299.63"/>
</g>
<!-- Node8 -->
<g id="node8" class="node"><title>Node8</title>
<g id="a_node8"><a xlink:href="../../de/dff/classtitle_panes_1_1_history_title_pane.html#a14fe295c9a982a88b2f96e93758e021d" target="_top" xlink:title="titlePanes.HistoryTitlePane.add\lToHistory">
<polygon fill="white" stroke="black" points="1208,-284.089 1208,-314.089 1372,-314.089 1372,-284.089 1208,-284.089"/>
<text text-anchor="start" x="1216" y="-302.089" font-family="Helvetica,sans-Serif" font-size="10.00">titlePanes.HistoryTitlePane.add</text>
<text text-anchor="middle" x="1290" y="-291.089" font-family="Helvetica,sans-Serif" font-size="10.00">ToHistory</text>
</a>
</g>
</g>
<!-- Node7&#45;&gt;Node8 -->
<g id="edge7" class="edge"><title>Node7&#45;&gt;Node8</title>
<path fill="none" stroke="midnightblue" d="M1152.15,-299.089C1166.77,-299.089 1182.3,-299.089 1197.45,-299.089"/>
<polygon fill="midnightblue" stroke="midnightblue" points="1197.86,-302.589 1207.86,-299.089 1197.86,-295.589 1197.86,-302.589"/>
</g>
<!-- Node10 -->
<g id="node10" class="node"><title>Node10</title>
<g id="a_node10"><a xlink:href="../../de/d03/classpanels_1_1_script_panel.html#acf94d4284961d6d9eabc8af4db9abe87" target="_top" xlink:title="panels.ScriptPanel.print\lException">
<polygon fill="white" stroke="black" points="1225.5,-186.089 1225.5,-216.089 1354.5,-216.089 1354.5,-186.089 1225.5,-186.089"/>
<text text-anchor="start" x="1233.5" y="-204.089" font-family="Helvetica,sans-Serif" font-size="10.00">panels.ScriptPanel.print</text>
<text text-anchor="middle" x="1290" y="-193.089" font-family="Helvetica,sans-Serif" font-size="10.00">Exception</text>
</a>
</g>
</g>
<!-- Node9&#45;&gt;Node10 -->
<g id="edge9" class="edge"><title>Node9&#45;&gt;Node10</title>
<path fill="none" stroke="midnightblue" d="M1154.22,-204.298C1174.07,-203.825 1195.46,-203.316 1215.22,-202.846"/>
<polygon fill="midnightblue" stroke="midnightblue" points="1215.48,-206.34 1225.39,-202.603 1215.31,-199.342 1215.48,-206.34"/>
</g>
<!-- Node12 -->
<g id="node12" class="node"><title>Node12</title>
<g id="a_node12"><a xlink:href="../../d9/d1e/classback_end_1_1_parser.html#a163b8afd814babc8e7df59993f0d6440" target="_top" xlink:title="backEnd.Parser.parseScript">
<polygon fill="white" stroke="black" points="1004.5,-88.5889 1004.5,-107.589 1151.5,-107.589 1151.5,-88.5889 1004.5,-88.5889"/>
<text text-anchor="middle" x="1078" y="-95.5889" font-family="Helvetica,sans-Serif" font-size="10.00">backEnd.Parser.parseScript</text>
</a>
</g>
</g>
<!-- Node11&#45;&gt;Node12 -->
<g id="edge11" class="edge"><title>Node11&#45;&gt;Node12</title>
<path fill="none" stroke="midnightblue" d="M922.746,-132.542C952.563,-125.882 992.542,-116.953 1024.33,-109.853"/>
<polygon fill="midnightblue" stroke="midnightblue" points="1025.34,-113.213 1034.34,-107.618 1023.81,-106.382 1025.34,-113.213"/>
</g>
<!-- Node13 -->
<g id="node13" class="node"><title>Node13</title>
<g id="a_node13"><a xlink:href="../../d9/d98/classback_end_1_1_model.html#a6b39dd199a5957068c032bb023f4b613" target="_top" xlink:title="backEnd.Model.getCommandsMap">
<polygon fill="white" stroke="black" points="1671.5,-21.5889 1671.5,-40.5889 1854.5,-40.5889 1854.5,-21.5889 1671.5,-21.5889"/>
<text text-anchor="middle" x="1763" y="-28.5889" font-family="Helvetica,sans-Serif" font-size="10.00">backEnd.Model.getCommandsMap</text>
</a>
</g>
</g>
<!-- Node12&#45;&gt;Node13 -->
<g id="edge12" class="edge"><title>Node12&#45;&gt;Node13</title>
<path fill="none" stroke="midnightblue" d="M1090.33,-88.5407C1110.18,-72.5019 1153.23,-40.7611 1196,-29.0889 1372.78,19.1568 1592.35,-3.94838 1698.57,-20.0541"/>
<polygon fill="midnightblue" stroke="midnightblue" points="1698.07,-23.5186 1708.49,-21.5882 1699.14,-16.6009 1698.07,-23.5186"/>
</g>
<!-- Node14 -->
<g id="node14" class="node"><title>Node14</title>
<g id="a_node14"><a xlink:href="../../d9/d1e/classback_end_1_1_parser.html#a653298ad53a1eea540beded2bb558ab4" target="_top" xlink:title="backEnd.Parser.makeTree">
<polygon fill="white" stroke="black" points="1220.5,-126.589 1220.5,-145.589 1359.5,-145.589 1359.5,-126.589 1220.5,-126.589"/>
<text text-anchor="middle" x="1290" y="-133.589" font-family="Helvetica,sans-Serif" font-size="10.00">backEnd.Parser.makeTree</text>
</a>
</g>
</g>
<!-- Node12&#45;&gt;Node14 -->
<g id="edge13" class="edge"><title>Node12&#45;&gt;Node14</title>
<path fill="none" stroke="midnightblue" d="M1131.72,-107.629C1160.43,-112.824 1196.14,-119.285 1226.27,-124.738"/>
<polygon fill="midnightblue" stroke="midnightblue" points="1225.79,-128.208 1236.26,-126.545 1227.04,-121.32 1225.79,-128.208"/>
</g>
<!-- Node24 -->
<g id="node24" class="node"><title>Node24</title>
<g id="a_node24"><a xlink:href="../../d9/d1e/classback_end_1_1_parser.html#a71653c0a9d02d4b400e357b978260de6" target="_top" xlink:title="backEnd.Parser.removeComments">
<polygon fill="white" stroke="black" points="1199,-88.5889 1199,-107.589 1381,-107.589 1381,-88.5889 1199,-88.5889"/>
<text text-anchor="middle" x="1290" y="-95.5889" font-family="Helvetica,sans-Serif" font-size="10.00">backEnd.Parser.removeComments</text>
</a>
</g>
</g>
<!-- Node12&#45;&gt;Node24 -->
<g id="edge26" class="edge"><title>Node12&#45;&gt;Node24</title>
<path fill="none" stroke="midnightblue" d="M1151.56,-98.0889C1163.54,-98.0889 1176.14,-98.0889 1188.65,-98.0889"/>
<polygon fill="midnightblue" stroke="midnightblue" points="1188.65,-101.589 1198.65,-98.0889 1188.65,-94.589 1188.65,-101.589"/>
</g>
<!-- Node25 -->
<g id="node25" class="node"><title>Node25</title>
<g id="a_node25"><a xlink:href="../../d5/d62/classcommands_1_1templates_1_1_command.html#aa1c27b6285999798be609159ee5c7a83" target="_top" xlink:title="commands.templates.Command.to\lString">
<polygon fill="white" stroke="black" points="1196,-39.0889 1196,-69.0889 1384,-69.0889 1384,-39.0889 1196,-39.0889"/>
<text text-anchor="start" x="1204" y="-57.0889" font-family="Helvetica,sans-Serif" font-size="10.00">commands.templates.Command.to</text>
<text text-anchor="middle" x="1290" y="-46.0889" font-family="Helvetica,sans-Serif" font-size="10.00">String</text>
</a>
</g>
</g>
<!-- Node12&#45;&gt;Node25 -->
<g id="edge27" class="edge"><title>Node12&#45;&gt;Node25</title>
<path fill="none" stroke="midnightblue" d="M1124.57,-88.5416C1148.74,-83.4771 1179.17,-77.0999 1207.27,-71.2131"/>
<polygon fill="midnightblue" stroke="midnightblue" points="1208.03,-74.6307 1217.1,-69.1543 1206.59,-67.7794 1208.03,-74.6307"/>
</g>
<!-- Node14&#45;&gt;Node13 -->
<g id="edge24" class="edge"><title>Node14&#45;&gt;Node13</title>
<path fill="none" stroke="midnightblue" d="M1359.98,-128.332C1368.49,-125.585 1376.73,-121.932 1384,-117.089 1407.7,-101.297 1395.51,-78.611 1420,-64.0889 1459.49,-40.6791 1575.11,-33.4897 1661.04,-31.4785"/>
<polygon fill="midnightblue" stroke="midnightblue" points="1661.18,-34.9764 1671.11,-31.2633 1661.03,-27.978 1661.18,-34.9764"/>
</g>
<!-- Node15 -->
<g id="node15" class="node"><title>Node15</title>
<g id="a_node15"><a xlink:href="../../d5/d62/classcommands_1_1templates_1_1_command.html#a9ab84f2a1491a7283311891b8a6082dc" target="_top" xlink:title="commands.templates.Command.add\lChild">
<polygon fill="white" stroke="black" points="1420.5,-74.0889 1420.5,-104.089 1617.5,-104.089 1617.5,-74.0889 1420.5,-74.0889"/>
<text text-anchor="start" x="1428.5" y="-92.0889" font-family="Helvetica,sans-Serif" font-size="10.00">commands.templates.Command.add</text>
<text text-anchor="middle" x="1519" y="-81.0889" font-family="Helvetica,sans-Serif" font-size="10.00">Child</text>
</a>
</g>
</g>
<!-- Node14&#45;&gt;Node15 -->
<g id="edge14" class="edge"><title>Node14&#45;&gt;Node15</title>
<path fill="none" stroke="midnightblue" d="M1337.84,-126.561C1352.61,-123.546 1368.99,-120.19 1384,-117.089 1400.93,-113.591 1419.05,-109.821 1436.33,-106.216"/>
<polygon fill="midnightblue" stroke="midnightblue" points="1437.31,-109.586 1446.38,-104.115 1435.88,-102.734 1437.31,-109.586"/>
</g>
<!-- Node16 -->
<g id="node16" class="node"><title>Node16</title>
<g id="a_node16"><a xlink:href="../../d5/d1d/classcommands_1_1_command_factory.html#ac77125dd466e3e01fce01fc527e7f815" target="_top" xlink:title="commands.CommandFactory.build\lCommand">
<polygon fill="white" stroke="black" points="1428,-172.089 1428,-202.089 1610,-202.089 1610,-172.089 1428,-172.089"/>
<text text-anchor="start" x="1436" y="-190.089" font-family="Helvetica,sans-Serif" font-size="10.00">commands.CommandFactory.build</text>
<text text-anchor="middle" x="1519" y="-179.089" font-family="Helvetica,sans-Serif" font-size="10.00">Command</text>
</a>
</g>
</g>
<!-- Node14&#45;&gt;Node16 -->
<g id="edge15" class="edge"><title>Node14&#45;&gt;Node16</title>
<path fill="none" stroke="midnightblue" d="M1333.43,-145.622C1363.58,-152.395 1404.91,-161.682 1440.83,-169.75"/>
<polygon fill="midnightblue" stroke="midnightblue" points="1440.27,-173.213 1450.8,-171.991 1441.81,-166.384 1440.27,-173.213"/>
</g>
<!-- Node23 -->
<g id="node23" class="node"><title>Node23</title>
<g id="a_node23"><a xlink:href="../../d5/d62/classcommands_1_1templates_1_1_command.html#a0ca025dffda489d73ba4b6c12c7118fe" target="_top" xlink:title="commands.templates.Command.get\lNumChildrenNeeded">
<polygon fill="white" stroke="black" points="1422,-123.089 1422,-153.089 1616,-153.089 1616,-123.089 1422,-123.089"/>
<text text-anchor="start" x="1430" y="-141.089" font-family="Helvetica,sans-Serif" font-size="10.00">commands.templates.Command.get</text>
<text text-anchor="middle" x="1519" y="-130.089" font-family="Helvetica,sans-Serif" font-size="10.00">NumChildrenNeeded</text>
</a>
</g>
</g>
<!-- Node14&#45;&gt;Node23 -->
<g id="edge25" class="edge"><title>Node14&#45;&gt;Node23</title>
<path fill="none" stroke="midnightblue" d="M1359.72,-136.694C1376.09,-136.839 1393.93,-136.996 1411.54,-137.151"/>
<polygon fill="midnightblue" stroke="midnightblue" points="1411.84,-140.654 1421.87,-137.242 1411.9,-133.654 1411.84,-140.654"/>
</g>
<!-- Node16&#45;&gt;Node13 -->
<g id="edge21" class="edge"><title>Node16&#45;&gt;Node13</title>
<path fill="none" stroke="midnightblue" d="M1604.39,-172.005C1609.31,-169.216 1613.91,-165.939 1618,-162.089 1656.09,-126.266 1614.59,-84.4463 1654,-50.0889 1656.58,-47.8371 1659.34,-45.8081 1662.22,-43.9815"/>
<polygon fill="midnightblue" stroke="midnightblue" points="1664.13,-46.931 1671.25,-39.0894 1660.79,-40.7765 1664.13,-46.931"/>
</g>
<!-- Node17 -->
<g id="node17" class="node"><title>Node17</title>
<g id="a_node17"><a xlink:href="../../d5/d1d/classcommands_1_1_command_factory.html#adcf456039b5d7285082f1e009f3d30b6" target="_top" xlink:title="commands.CommandFactory.checkCaps">
<polygon fill="white" stroke="black" points="1657,-196.589 1657,-215.589 1869,-215.589 1869,-196.589 1657,-196.589"/>
<text text-anchor="middle" x="1763" y="-203.589" font-family="Helvetica,sans-Serif" font-size="10.00">commands.CommandFactory.checkCaps</text>
</a>
</g>
</g>
<!-- Node16&#45;&gt;Node17 -->
<g id="edge16" class="edge"><title>Node16&#45;&gt;Node17</title>
<path fill="none" stroke="midnightblue" d="M1610.11,-194.164C1621.98,-195.095 1634.26,-196.06 1646.48,-197.019"/>
<polygon fill="midnightblue" stroke="midnightblue" points="1646.46,-200.529 1656.71,-197.822 1647.01,-193.55 1646.46,-200.529"/>
</g>
<!-- Node18 -->
<g id="node18" class="node"><title>Node18</title>
<g id="a_node18"><a xlink:href="../../d5/d1d/classcommands_1_1_command_factory.html#acae1571442d9f8e040df95c8a2742d8d" target="_top" xlink:title="commands.CommandFactory.check\lLanguage">
<polygon fill="white" stroke="black" points="1669,-147.089 1669,-177.089 1857,-177.089 1857,-147.089 1669,-147.089"/>
<text text-anchor="start" x="1677" y="-165.089" font-family="Helvetica,sans-Serif" font-size="10.00">commands.CommandFactory.check</text>
<text text-anchor="middle" x="1763" y="-154.089" font-family="Helvetica,sans-Serif" font-size="10.00">Language</text>
</a>
</g>
</g>
<!-- Node16&#45;&gt;Node18 -->
<g id="edge17" class="edge"><title>Node16&#45;&gt;Node18</title>
<path fill="none" stroke="midnightblue" d="M1610.11,-177.78C1626.03,-176.136 1642.7,-174.413 1658.94,-172.736"/>
<polygon fill="midnightblue" stroke="midnightblue" points="1659.4,-176.207 1668.98,-171.698 1658.68,-169.244 1659.4,-176.207"/>
</g>
<!-- Node19 -->
<g id="node19" class="node"><title>Node19</title>
<g id="a_node19"><a xlink:href="../../d5/d1d/classcommands_1_1_command_factory.html#a9206a1ef0f863c61cb5c894da3133ef8" target="_top" xlink:title="commands.CommandFactory.check\lUserCommand">
<polygon fill="white" stroke="black" points="1669,-98.0889 1669,-128.089 1857,-128.089 1857,-98.0889 1669,-98.0889"/>
<text text-anchor="start" x="1677" y="-116.089" font-family="Helvetica,sans-Serif" font-size="10.00">commands.CommandFactory.check</text>
<text text-anchor="middle" x="1763" y="-105.089" font-family="Helvetica,sans-Serif" font-size="10.00">UserCommand</text>
</a>
</g>
</g>
<!-- Node16&#45;&gt;Node19 -->
<g id="edge19" class="edge"><title>Node16&#45;&gt;Node19</title>
<path fill="none" stroke="midnightblue" d="M1591.43,-172.071C1600.55,-169.228 1609.61,-165.918 1618,-162.089 1635.72,-153.997 1636.16,-144.904 1654,-137.089 1658.77,-134.999 1663.74,-133.083 1668.82,-131.327"/>
<polygon fill="midnightblue" stroke="midnightblue" points="1670.24,-134.545 1678.69,-128.144 1668.1,-127.883 1670.24,-134.545"/>
</g>
<!-- Node20 -->
<g id="node20" class="node"><title>Node20</title>
<g id="a_node20"><a xlink:href="../../d5/d1d/classcommands_1_1_command_factory.html#a221a82baff222f4552a38b521efd78b6" target="_top" xlink:title="commands.CommandFactory.checkVar">
<polygon fill="white" stroke="black" points="1661.5,-59.5889 1661.5,-78.5889 1864.5,-78.5889 1864.5,-59.5889 1661.5,-59.5889"/>
<text text-anchor="middle" x="1763" y="-66.5889" font-family="Helvetica,sans-Serif" font-size="10.00">commands.CommandFactory.checkVar</text>
</a>
</g>
</g>
<!-- Node16&#45;&gt;Node20 -->
<g id="edge20" class="edge"><title>Node16&#45;&gt;Node20</title>
<path fill="none" stroke="midnightblue" d="M1602.36,-172.044C1607.94,-169.26 1613.24,-165.972 1618,-162.089 1646.35,-138.981 1624.8,-110.109 1654,-88.0889 1656.35,-86.3159 1658.81,-84.6877 1661.36,-83.1935"/>
<polygon fill="midnightblue" stroke="midnightblue" points="1663.02,-86.2754 1670.34,-78.6127 1659.84,-80.0401 1663.02,-86.2754"/>
</g>
<!-- Node21 -->
<g id="node21" class="node"><title>Node21</title>
<g id="a_node21"><a xlink:href="../../d5/d62/classcommands_1_1templates_1_1_command.html#a20741a5e32e24ff113701f7b2957e658" target="_top" xlink:title="commands.templates.Command.initialize\lCommand">
<polygon fill="white" stroke="black" points="1654.5,-284.089 1654.5,-314.089 1871.5,-314.089 1871.5,-284.089 1654.5,-284.089"/>
<text text-anchor="start" x="1662.5" y="-302.089" font-family="Helvetica,sans-Serif" font-size="10.00">commands.templates.Command.initialize</text>
<text text-anchor="middle" x="1763" y="-291.089" font-family="Helvetica,sans-Serif" font-size="10.00">Command</text>
</a>
</g>
</g>
<!-- Node16&#45;&gt;Node21 -->
<g id="edge22" class="edge"><title>Node16&#45;&gt;Node21</title>
<path fill="none" stroke="midnightblue" d="M1574.75,-202.091C1589.69,-207.784 1605.25,-215.325 1618,-225.089 1639.46,-241.519 1631.43,-259.227 1654,-274.089 1657.12,-276.141 1660.38,-278.026 1663.75,-279.757"/>
<polygon fill="midnightblue" stroke="midnightblue" points="1662.35,-282.967 1672.9,-283.989 1665.29,-276.614 1662.35,-282.967"/>
</g>
<!-- Node22 -->
<g id="node22" class="node"><title>Node22</title>
<g id="a_node22"><a xlink:href="../../d5/d1d/classcommands_1_1_command_factory.html#aa562012b61b9b1701eada2bea8caa1d8" target="_top" xlink:title="commands.CommandFactory.is\lNumeric">
<polygon fill="white" stroke="black" points="1679.5,-235.089 1679.5,-265.089 1846.5,-265.089 1846.5,-235.089 1679.5,-235.089"/>
<text text-anchor="start" x="1687.5" y="-253.089" font-family="Helvetica,sans-Serif" font-size="10.00">commands.CommandFactory.is</text>
<text text-anchor="middle" x="1763" y="-242.089" font-family="Helvetica,sans-Serif" font-size="10.00">Numeric</text>
</a>
</g>
</g>
<!-- Node16&#45;&gt;Node22 -->
<g id="edge23" class="edge"><title>Node16&#45;&gt;Node22</title>
<path fill="none" stroke="midnightblue" d="M1570.75,-202.111C1595.74,-209.348 1626.37,-217.977 1654,-225.089 1663.96,-227.652 1674.46,-230.234 1684.85,-232.715"/>
<polygon fill="midnightblue" stroke="midnightblue" points="1684.22,-236.162 1694.76,-235.06 1685.83,-229.35 1684.22,-236.162"/>
</g>
<!-- Node18&#45;&gt;Node4 -->
<g id="edge18" class="edge"><title>Node18&#45;&gt;Node4</title>
<path fill="none" stroke="midnightblue" d="M1842.18,-177.134C1852.36,-179.978 1862.54,-183.281 1872,-187.089 1900.74,-198.656 1930.8,-217.129 1952.05,-231.43"/>
<polygon fill="midnightblue" stroke="midnightblue" points="1950.08,-234.32 1960.31,-237.075 1954.03,-228.542 1950.08,-234.32"/>
</g>
<!-- Node26&#45;&gt;Node9 -->
<g id="edge29" class="edge"><title>Node26&#45;&gt;Node9</title>
<path fill="none" stroke="midnightblue" d="M925.691,-237.58C954.182,-231.65 991.043,-223.978 1021.25,-217.692"/>
<polygon fill="midnightblue" stroke="midnightblue" points="1022.14,-221.082 1031.22,-215.618 1020.71,-214.229 1022.14,-221.082"/>
</g>
<!-- Node27 -->
<g id="node27" class="node"><title>Node27</title>
<g id="a_node27"><a xlink:href="../../d8/dfc/classpanels_1_1_parameter_panel.html#a0bf8e32fe635c48c8a057062e0534b62" target="_top" xlink:title="panels.ParameterPanel.update\lVariables">
<polygon fill="white" stroke="black" points="996,-235.089 996,-265.089 1160,-265.089 1160,-235.089 996,-235.089"/>
<text text-anchor="start" x="1004" y="-253.089" font-family="Helvetica,sans-Serif" font-size="10.00">panels.ParameterPanel.update</text>
<text text-anchor="middle" x="1078" y="-242.089" font-family="Helvetica,sans-Serif" font-size="10.00">Variables</text>
</a>
</g>
</g>
<!-- Node26&#45;&gt;Node27 -->
<g id="edge30" class="edge"><title>Node26&#45;&gt;Node27</title>
<path fill="none" stroke="midnightblue" d="M959.56,-248.3C968.156,-248.431 976.952,-248.565 985.673,-248.698"/>
<polygon fill="midnightblue" stroke="midnightblue" points="985.808,-252.201 995.86,-248.853 985.914,-245.201 985.808,-252.201"/>
</g>
<!-- Node28 -->
<g id="node28" class="node"><title>Node28</title>
<g id="a_node28"><a xlink:href="../../d0/d8f/classtitle_panes_1_1_variable_title_pane.html#a395dd58ae72e6111fce8e99be3c03842" target="_top" xlink:title="titlePanes.VariableTitle\lPane.updateVariables">
<polygon fill="white" stroke="black" points="1228,-235.089 1228,-265.089 1352,-265.089 1352,-235.089 1228,-235.089"/>
<text text-anchor="start" x="1236" y="-253.089" font-family="Helvetica,sans-Serif" font-size="10.00">titlePanes.VariableTitle</text>
<text text-anchor="middle" x="1290" y="-242.089" font-family="Helvetica,sans-Serif" font-size="10.00">Pane.updateVariables</text>
</a>
</g>
</g>
<!-- Node27&#45;&gt;Node28 -->
<g id="edge31" class="edge"><title>Node27&#45;&gt;Node28</title>
<path fill="none" stroke="midnightblue" d="M1160.19,-250.089C1179.18,-250.089 1199.27,-250.089 1217.79,-250.089"/>
<polygon fill="midnightblue" stroke="midnightblue" points="1217.89,-253.589 1227.89,-250.089 1217.89,-246.589 1217.89,-253.589"/>
</g>
<!-- Node29 -->
<g id="node29" class="node"><title>Node29</title>
<g id="a_node29"><a xlink:href="../../d0/d8f/classtitle_panes_1_1_variable_title_pane.html#a007ec1abdc73761490261f283e07338e" target="_top" xlink:title="titlePanes.VariableTitle\lPane.writeVariables">
<polygon fill="white" stroke="black" points="1457,-235.089 1457,-265.089 1581,-265.089 1581,-235.089 1457,-235.089"/>
<text text-anchor="start" x="1465" y="-253.089" font-family="Helvetica,sans-Serif" font-size="10.00">titlePanes.VariableTitle</text>
<text text-anchor="middle" x="1519" y="-242.089" font-family="Helvetica,sans-Serif" font-size="10.00">Pane.writeVariables</text>
</a>
</g>
</g>
<!-- Node28&#45;&gt;Node29 -->
<g id="edge32" class="edge"><title>Node28&#45;&gt;Node29</title>
<path fill="none" stroke="midnightblue" d="M1352.13,-250.089C1381.27,-250.089 1416.31,-250.089 1446.66,-250.089"/>
<polygon fill="midnightblue" stroke="midnightblue" points="1446.76,-253.589 1456.76,-250.089 1446.76,-246.589 1446.76,-253.589"/>
</g>
</g>
</svg>
