<?xml version="1.0" encoding="UTF-8" standalone="no"?>
<!DOCTYPE svg PUBLIC "-//W3C//DTD SVG 1.1//EN"
 "http://www.w3.org/Graphics/SVG/1.1/DTD/svg11.dtd">
<!-- Generated by graphviz version 2.36.0 (20140111.2315)
 -->
<!-- Title: titlePanes.ControlTitlePane.makeLocationFields Pages: 1 -->
<svg width="364pt" height="38pt"
 viewBox="0.00 0.00 364.00 38.00" xmlns="http://www.w3.org/2000/svg" xmlns:xlink="http://www.w3.org/1999/xlink">
<g id="graph0" class="graph" transform="scale(1 1) rotate(0) translate(4 34)">
<title>titlePanes.ControlTitlePane.makeLocationFields</title>
<polygon fill="white" stroke="none" points="-4,4 -4,-34 360,-34 360,4 -4,4"/>
<!-- Node1 -->
<g id="node1" class="node"><title>Node1</title>
<polygon fill="#bfbfbf" stroke="black" points="0.5,-0 0.5,-30 173.5,-30 173.5,-0 0.5,-0"/>
<text text-anchor="start" x="8.5" y="-18" font-family="Helvetica,sans-Serif" font-size="10.00">titlePanes.ControlTitlePane.make</text>
<text text-anchor="middle" x="87" y="-7" font-family="Helvetica,sans-Serif" font-size="10.00">LocationFields</text>
</g>
<!-- Node2 -->
<g id="node2" class="node"><title>Node2</title>
<g id="a_node2"><a xlink:href="../../da/d04/classtitle_panes_1_1_control_title_pane.html#ad9d4431a2657a30fedae46e0c9093867" target="_top" xlink:title="titlePanes.ControlTitlePane.\lControlTitlePane">
<polygon fill="white" stroke="black" points="210,-0 210,-30 356,-30 356,-0 210,-0"/>
<text text-anchor="start" x="218" y="-18" font-family="Helvetica,sans-Serif" font-size="10.00">titlePanes.ControlTitlePane.</text>
<text text-anchor="middle" x="283" y="-7" font-family="Helvetica,sans-Serif" font-size="10.00">ControlTitlePane</text>
</a>
</g>
</g>
<!-- Node1&#45;&gt;Node2 -->
<g id="edge1" class="edge"><title>Node1&#45;&gt;Node2</title>
<path fill="none" stroke="midnightblue" d="M183.887,-15C192.622,-15 201.368,-15 209.843,-15"/>
<polygon fill="midnightblue" stroke="midnightblue" points="183.656,-11.5001 173.656,-15 183.656,-18.5001 183.656,-11.5001"/>
</g>
</g>
</svg>
