<?xml version="1.0" encoding="UTF-8" standalone="no"?>
<!DOCTYPE svg PUBLIC "-//W3C//DTD SVG 1.1//EN"
 "http://www.w3.org/Graphics/SVG/1.1/DTD/svg11.dtd">
<!-- Generated by graphviz version 2.36.0 (20140111.2315)
 -->
<!-- Title: titlePanes.ControlTitlePane.ControlTitlePane Pages: 1 -->
<svg width="2270pt" height="397pt"
 viewBox="0.00 0.00 2270.00 397.50" xmlns="http://www.w3.org/2000/svg" xmlns:xlink="http://www.w3.org/1999/xlink">
<g id="graph0" class="graph" transform="scale(1 1) rotate(0) translate(4 393.497)">
<title>titlePanes.ControlTitlePane.ControlTitlePane</title>
<polygon fill="white" stroke="none" points="-4,4 -4,-393.497 2266,-393.497 2266,4 -4,4"/>
<!-- Node1 -->
<g id="node1" class="node"><title>Node1</title>
<polygon fill="#bfbfbf" stroke="black" points="0,-116 0,-146 146,-146 146,-116 0,-116"/>
<text text-anchor="start" x="8" y="-134" font-family="Helvetica,sans-Serif" font-size="10.00">titlePanes.ControlTitlePane.</text>
<text text-anchor="middle" x="73" y="-123" font-family="Helvetica,sans-Serif" font-size="10.00">ControlTitlePane</text>
</g>
<!-- Node2 -->
<g id="node2" class="node"><title>Node2</title>
<g id="a_node2"><a xlink:href="../../da/d04/classtitle_panes_1_1_control_title_pane.html#a974c75cbdf64007af637c8b19a26b215" target="_top" xlink:title="titlePanes.ControlTitlePane.make\lButtons">
<polygon fill="white" stroke="black" points="182.5,-190 182.5,-220 355.5,-220 355.5,-190 182.5,-190"/>
<text text-anchor="start" x="190.5" y="-208" font-family="Helvetica,sans-Serif" font-size="10.00">titlePanes.ControlTitlePane.make</text>
<text text-anchor="middle" x="269" y="-197" font-family="Helvetica,sans-Serif" font-size="10.00">Buttons</text>
</a>
</g>
</g>
<!-- Node1&#45;&gt;Node2 -->
<g id="edge1" class="edge"><title>Node1&#45;&gt;Node2</title>
<path fill="none" stroke="midnightblue" d="M104.237,-146.126C125.626,-156.475 155.159,-170.068 182,-180 188.368,-182.357 195.067,-184.637 201.797,-186.798"/>
<polygon fill="midnightblue" stroke="midnightblue" points="201.057,-190.233 211.646,-189.874 203.144,-183.552 201.057,-190.233"/>
</g>
<!-- Node32 -->
<g id="node32" class="node"><title>Node32</title>
<g id="a_node32"><a xlink:href="../../da/d04/classtitle_panes_1_1_control_title_pane.html#a80c8fc43a10b25a7a0baef909b408f56" target="_top" xlink:title="titlePanes.ControlTitlePane.make\lHelpText">
<polygon fill="white" stroke="black" points="182.5,-141 182.5,-171 355.5,-171 355.5,-141 182.5,-141"/>
<text text-anchor="start" x="190.5" y="-159" font-family="Helvetica,sans-Serif" font-size="10.00">titlePanes.ControlTitlePane.make</text>
<text text-anchor="middle" x="269" y="-148" font-family="Helvetica,sans-Serif" font-size="10.00">HelpText</text>
</a>
</g>
</g>
<!-- Node1&#45;&gt;Node32 -->
<g id="edge35" class="edge"><title>Node1&#45;&gt;Node32</title>
<path fill="none" stroke="midnightblue" d="M146.238,-140.309C154.678,-141.397 163.386,-142.519 172.082,-143.639"/>
<polygon fill="midnightblue" stroke="midnightblue" points="171.904,-147.145 182.269,-144.952 172.798,-140.203 171.904,-147.145"/>
</g>
<!-- Node33 -->
<g id="node33" class="node"><title>Node33</title>
<g id="a_node33"><a xlink:href="../../da/d04/classtitle_panes_1_1_control_title_pane.html#af28eba60fefe51c70e763d51d9123ea3" target="_top" xlink:title="titlePanes.ControlTitlePane.make\lLocationFields">
<polygon fill="white" stroke="black" points="182.5,-92 182.5,-122 355.5,-122 355.5,-92 182.5,-92"/>
<text text-anchor="start" x="190.5" y="-110" font-family="Helvetica,sans-Serif" font-size="10.00">titlePanes.ControlTitlePane.make</text>
<text text-anchor="middle" x="269" y="-99" font-family="Helvetica,sans-Serif" font-size="10.00">LocationFields</text>
</a>
</g>
</g>
<!-- Node1&#45;&gt;Node33 -->
<g id="edge36" class="edge"><title>Node1&#45;&gt;Node33</title>
<path fill="none" stroke="midnightblue" d="M146.238,-122.063C154.678,-121.019 163.386,-119.942 172.082,-118.866"/>
<polygon fill="midnightblue" stroke="midnightblue" points="172.774,-122.307 182.269,-117.606 171.915,-115.36 172.774,-122.307"/>
</g>
<!-- Node34 -->
<g id="node34" class="node"><title>Node34</title>
<g id="a_node34"><a xlink:href="../../da/d04/classtitle_panes_1_1_control_title_pane.html#a34e6959ea802f029e594f26b77b9e736" target="_top" xlink:title="titlePanes.ControlTitlePane.make\lPenColorBox">
<polygon fill="white" stroke="black" points="182.5,-42 182.5,-72 355.5,-72 355.5,-42 182.5,-42"/>
<text text-anchor="start" x="190.5" y="-60" font-family="Helvetica,sans-Serif" font-size="10.00">titlePanes.ControlTitlePane.make</text>
<text text-anchor="middle" x="269" y="-49" font-family="Helvetica,sans-Serif" font-size="10.00">PenColorBox</text>
</a>
</g>
</g>
<!-- Node1&#45;&gt;Node34 -->
<g id="edge39" class="edge"><title>Node1&#45;&gt;Node34</title>
<path fill="none" stroke="midnightblue" d="M104.237,-115.874C125.626,-105.525 155.159,-91.9322 182,-82 188.368,-79.6435 195.067,-77.3634 201.797,-75.2023"/>
<polygon fill="midnightblue" stroke="midnightblue" points="203.144,-78.4483 211.646,-72.126 201.057,-71.7666 203.144,-78.4483"/>
</g>
<!-- Node3 -->
<g id="node3" class="node"><title>Node3</title>
<g id="a_node3"><a xlink:href="../../da/d04/classtitle_panes_1_1_control_title_pane.html#ac2c40167d5b56309c214d48cdd8b5cbf" target="_top" xlink:title="titlePanes.ControlTitlePane.setSize">
<polygon fill="white" stroke="black" points="392,-195.5 392,-214.5 574,-214.5 574,-195.5 392,-195.5"/>
<text text-anchor="middle" x="483" y="-202.5" font-family="Helvetica,sans-Serif" font-size="10.00">titlePanes.ControlTitlePane.setSize</text>
</a>
</g>
</g>
<!-- Node2&#45;&gt;Node3 -->
<g id="edge2" class="edge"><title>Node2&#45;&gt;Node3</title>
<path fill="none" stroke="midnightblue" d="M355.617,-205C364.208,-205 372.983,-205 381.707,-205"/>
<polygon fill="midnightblue" stroke="midnightblue" points="381.91,-208.5 391.91,-205 381.91,-201.5 381.91,-208.5"/>
</g>
<!-- Node4 -->
<g id="node4" class="node"><title>Node4</title>
<g id="a_node4"><a xlink:href="../../da/d04/classtitle_panes_1_1_control_title_pane.html#ae994c7b4dd988b30fc824e9e893b3ccf" target="_top" xlink:title="titlePanes.ControlTitlePane.handle">
<polygon fill="white" stroke="black" points="393.5,-146.5 393.5,-165.5 572.5,-165.5 572.5,-146.5 393.5,-146.5"/>
<text text-anchor="middle" x="483" y="-153.5" font-family="Helvetica,sans-Serif" font-size="10.00">titlePanes.ControlTitlePane.handle</text>
</a>
</g>
</g>
<!-- Node2&#45;&gt;Node4 -->
<g id="edge3" class="edge"><title>Node2&#45;&gt;Node4</title>
<path fill="none" stroke="midnightblue" d="M335.048,-189.965C365.86,-182.844 402.128,-174.461 430.924,-167.805"/>
<polygon fill="midnightblue" stroke="midnightblue" points="431.822,-171.19 440.777,-165.528 430.246,-164.37 431.822,-171.19"/>
</g>
<!-- Node5 -->
<g id="node5" class="node"><title>Node5</title>
<g id="a_node5"><a xlink:href="../../d9/d49/classback_end_1_1_controller.html#a3b0bbf0a084bb4fb63d118f66e7327b1" target="_top" xlink:title="backEnd.Controller.move10">
<polygon fill="white" stroke="black" points="617,-146.5 617,-165.5 765,-165.5 765,-146.5 617,-146.5"/>
<text text-anchor="middle" x="691" y="-153.5" font-family="Helvetica,sans-Serif" font-size="10.00">backEnd.Controller.move10</text>
</a>
</g>
</g>
<!-- Node4&#45;&gt;Node5 -->
<g id="edge4" class="edge"><title>Node4&#45;&gt;Node5</title>
<path fill="none" stroke="midnightblue" d="M572.558,-156C583.829,-156 595.336,-156 606.524,-156"/>
<polygon fill="midnightblue" stroke="midnightblue" points="606.692,-159.5 616.692,-156 606.692,-152.5 606.692,-159.5"/>
</g>
<!-- Node6 -->
<g id="node6" class="node"><title>Node6</title>
<g id="a_node6"><a xlink:href="../../d8/de9/classmain_1_1_resource_finder.html#abbbd9c7b9078fd263f546d15bba68d22" target="_top" xlink:title="main.ResourceFinder.getMy\lLanguageResources">
<polygon fill="white" stroke="black" points="2114.5,-279 2114.5,-309 2261.5,-309 2261.5,-279 2114.5,-279"/>
<text text-anchor="start" x="2122.5" y="-297" font-family="Helvetica,sans-Serif" font-size="10.00">main.ResourceFinder.getMy</text>
<text text-anchor="middle" x="2188" y="-286" font-family="Helvetica,sans-Serif" font-size="10.00">LanguageResources</text>
</a>
</g>
</g>
<!-- Node5&#45;&gt;Node6 -->
<g id="edge5" class="edge"><title>Node5&#45;&gt;Node6</title>
<path fill="none" stroke="midnightblue" d="M700.272,-165.715C738.794,-209.812 906.264,-389 1084,-389 1084,-389 1084,-389 1726,-389 1883.35,-389 1927.43,-396.701 2078,-351 2105.71,-342.588 2134.66,-327.091 2155.75,-314.377"/>
<polygon fill="midnightblue" stroke="midnightblue" points="2157.6,-317.349 2164.28,-309.127 2153.93,-311.387 2157.6,-317.349"/>
</g>
<!-- Node7 -->
<g id="node7" class="node"><title>Node7</title>
<g id="a_node7"><a xlink:href="../../d9/d49/classback_end_1_1_controller.html#ad650f48d236eaf11c2d8591b04831900" target="_top" xlink:title="backEnd.Controller.runScript">
<polygon fill="white" stroke="black" points="812,-106.5 812,-125.5 964,-125.5 964,-106.5 812,-106.5"/>
<text text-anchor="middle" x="888" y="-113.5" font-family="Helvetica,sans-Serif" font-size="10.00">backEnd.Controller.runScript</text>
</a>
</g>
</g>
<!-- Node5&#45;&gt;Node7 -->
<g id="edge6" class="edge"><title>Node5&#45;&gt;Node7</title>
<path fill="none" stroke="midnightblue" d="M738.707,-146.419C766.324,-140.754 801.483,-133.542 830.635,-127.562"/>
<polygon fill="midnightblue" stroke="midnightblue" points="831.581,-130.941 840.674,-125.503 830.174,-124.084 831.581,-130.941"/>
</g>
<!-- Node8 -->
<g id="node8" class="node"><title>Node8</title>
<g id="a_node8"><a xlink:href="../../d8/d1f/classfront_end_1_1_view.html#a88014d18898a5c72ba7893e0d865a218" target="_top" xlink:title="frontEnd.View.addToHistory">
<polygon fill="white" stroke="black" points="1012,-49.5 1012,-68.5 1158,-68.5 1158,-49.5 1012,-49.5"/>
<text text-anchor="middle" x="1085" y="-56.5" font-family="Helvetica,sans-Serif" font-size="10.00">frontEnd.View.addToHistory</text>
</a>
</g>
</g>
<!-- Node7&#45;&gt;Node8 -->
<g id="edge7" class="edge"><title>Node7&#45;&gt;Node8</title>
<path fill="none" stroke="midnightblue" d="M921.639,-106.459C954.541,-96.8418 1005.48,-81.9523 1041.51,-71.419"/>
<polygon fill="midnightblue" stroke="midnightblue" points="1042.64,-74.7368 1051.25,-68.5716 1040.67,-68.018 1042.64,-74.7368"/>
</g>
<!-- Node11 -->
<g id="node11" class="node"><title>Node11</title>
<g id="a_node11"><a xlink:href="../../d8/d1f/classfront_end_1_1_view.html#a22669dd74ac845d66d5b59ddeba13b5e" target="_top" xlink:title="frontEnd.View.printException">
<polygon fill="white" stroke="black" points="1208,-84.5 1208,-103.5 1360,-103.5 1360,-84.5 1208,-84.5"/>
<text text-anchor="middle" x="1284" y="-91.5" font-family="Helvetica,sans-Serif" font-size="10.00">frontEnd.View.printException</text>
</a>
</g>
</g>
<!-- Node7&#45;&gt;Node11 -->
<g id="edge10" class="edge"><title>Node7&#45;&gt;Node11</title>
<path fill="none" stroke="midnightblue" d="M964.036,-111.81C1030.75,-108.085 1128.23,-102.642 1197.85,-98.7547"/>
<polygon fill="midnightblue" stroke="midnightblue" points="1198.12,-102.245 1207.91,-98.1929 1197.73,-95.256 1198.12,-102.245"/>
</g>
<!-- Node13 -->
<g id="node13" class="node"><title>Node13</title>
<g id="a_node13"><a xlink:href="../../d9/d98/classback_end_1_1_model.html#ade764fd1c85a48fabb9abf3dfe8b8ceb" target="_top" xlink:title="backEnd.Model.runScript">
<polygon fill="white" stroke="black" points="1017.5,-192.5 1017.5,-211.5 1152.5,-211.5 1152.5,-192.5 1017.5,-192.5"/>
<text text-anchor="middle" x="1085" y="-199.5" font-family="Helvetica,sans-Serif" font-size="10.00">backEnd.Model.runScript</text>
</a>
</g>
</g>
<!-- Node7&#45;&gt;Node13 -->
<g id="edge12" class="edge"><title>Node7&#45;&gt;Node13</title>
<path fill="none" stroke="midnightblue" d="M910.613,-125.532C945.241,-140.804 1013.29,-170.815 1053.06,-188.356"/>
<polygon fill="midnightblue" stroke="midnightblue" points="1051.73,-191.592 1062.29,-192.425 1054.55,-185.188 1051.73,-191.592"/>
</g>
<!-- Node28 -->
<g id="node28" class="node"><title>Node28</title>
<g id="a_node28"><a xlink:href="../../d8/d1f/classfront_end_1_1_view.html#a59fa2dbe984da3217324979184d00559" target="_top" xlink:title="frontEnd.View.updateVariables">
<polygon fill="white" stroke="black" points="1004.5,-125.5 1004.5,-144.5 1165.5,-144.5 1165.5,-125.5 1004.5,-125.5"/>
<text text-anchor="middle" x="1085" y="-132.5" font-family="Helvetica,sans-Serif" font-size="10.00">frontEnd.View.updateVariables</text>
</a>
</g>
</g>
<!-- Node7&#45;&gt;Node28 -->
<g id="edge30" class="edge"><title>Node7&#45;&gt;Node28</title>
<path fill="none" stroke="midnightblue" d="M964.113,-123.319C974.011,-124.283 984.233,-125.279 994.343,-126.264"/>
<polygon fill="midnightblue" stroke="midnightblue" points="994.106,-129.758 1004.4,-127.244 994.785,-122.791 994.106,-129.758"/>
</g>
<!-- Node9 -->
<g id="node9" class="node"><title>Node9</title>
<g id="a_node9"><a xlink:href="../../d8/dfc/classpanels_1_1_parameter_panel.html#a5f64bf2acdef3d7ca882a87ba8c78bf3" target="_top" xlink:title="panels.ParameterPanel.add\lToHistory">
<polygon fill="white" stroke="black" points="1210,-30 1210,-60 1358,-60 1358,-30 1210,-30"/>
<text text-anchor="start" x="1218" y="-48" font-family="Helvetica,sans-Serif" font-size="10.00">panels.ParameterPanel.add</text>
<text text-anchor="middle" x="1284" y="-37" font-family="Helvetica,sans-Serif" font-size="10.00">ToHistory</text>
</a>
</g>
</g>
<!-- Node8&#45;&gt;Node9 -->
<g id="edge8" class="edge"><title>Node8&#45;&gt;Node9</title>
<path fill="none" stroke="midnightblue" d="M1158.24,-53.8664C1171.63,-52.9149 1185.71,-51.9139 1199.41,-50.9407"/>
<polygon fill="midnightblue" stroke="midnightblue" points="1200.06,-54.4034 1209.78,-50.2033 1199.56,-47.4211 1200.06,-54.4034"/>
</g>
<!-- Node10 -->
<g id="node10" class="node"><title>Node10</title>
<g id="a_node10"><a xlink:href="../../de/dff/classtitle_panes_1_1_history_title_pane.html#a14fe295c9a982a88b2f96e93758e021d" target="_top" xlink:title="titlePanes.HistoryTitlePane.add\lToHistory">
<polygon fill="white" stroke="black" points="1414,-25 1414,-55 1578,-55 1578,-25 1414,-25"/>
<text text-anchor="start" x="1422" y="-43" font-family="Helvetica,sans-Serif" font-size="10.00">titlePanes.HistoryTitlePane.add</text>
<text text-anchor="middle" x="1496" y="-32" font-family="Helvetica,sans-Serif" font-size="10.00">ToHistory</text>
</a>
</g>
</g>
<!-- Node9&#45;&gt;Node10 -->
<g id="edge9" class="edge"><title>Node9&#45;&gt;Node10</title>
<path fill="none" stroke="midnightblue" d="M1358.15,-43.2583C1372.77,-42.9102 1388.3,-42.5405 1403.45,-42.1798"/>
<polygon fill="midnightblue" stroke="midnightblue" points="1403.95,-45.669 1413.86,-41.9319 1403.78,-38.671 1403.95,-45.669"/>
</g>
<!-- Node12 -->
<g id="node12" class="node"><title>Node12</title>
<g id="a_node12"><a xlink:href="../../de/d03/classpanels_1_1_script_panel.html#acf94d4284961d6d9eabc8af4db9abe87" target="_top" xlink:title="panels.ScriptPanel.print\lException">
<polygon fill="white" stroke="black" points="1431.5,-74 1431.5,-104 1560.5,-104 1560.5,-74 1431.5,-74"/>
<text text-anchor="start" x="1439.5" y="-92" font-family="Helvetica,sans-Serif" font-size="10.00">panels.ScriptPanel.print</text>
<text text-anchor="middle" x="1496" y="-81" font-family="Helvetica,sans-Serif" font-size="10.00">Exception</text>
</a>
</g>
</g>
<!-- Node11&#45;&gt;Node12 -->
<g id="edge11" class="edge"><title>Node11&#45;&gt;Node12</title>
<path fill="none" stroke="midnightblue" d="M1360.22,-92.209C1380.07,-91.7365 1401.46,-91.2272 1421.22,-90.7566"/>
<polygon fill="midnightblue" stroke="midnightblue" points="1421.48,-94.2516 1431.39,-90.5144 1421.31,-87.2535 1421.48,-94.2516"/>
</g>
<!-- Node14 -->
<g id="node14" class="node"><title>Node14</title>
<g id="a_node14"><a xlink:href="../../d9/d1e/classback_end_1_1_parser.html#a163b8afd814babc8e7df59993f0d6440" target="_top" xlink:title="backEnd.Parser.parseScript">
<polygon fill="white" stroke="black" points="1210.5,-221.5 1210.5,-240.5 1357.5,-240.5 1357.5,-221.5 1210.5,-221.5"/>
<text text-anchor="middle" x="1284" y="-228.5" font-family="Helvetica,sans-Serif" font-size="10.00">backEnd.Parser.parseScript</text>
</a>
</g>
</g>
<!-- Node13&#45;&gt;Node14 -->
<g id="edge13" class="edge"><title>Node13&#45;&gt;Node14</title>
<path fill="none" stroke="midnightblue" d="M1150.78,-211.536C1169.12,-214.237 1189.25,-217.199 1208.14,-219.979"/>
<polygon fill="midnightblue" stroke="midnightblue" points="1207.78,-223.465 1218.18,-221.458 1208.8,-216.539 1207.78,-223.465"/>
</g>
<!-- Node15 -->
<g id="node15" class="node"><title>Node15</title>
<g id="a_node15"><a xlink:href="../../d9/d98/classback_end_1_1_model.html#a6b39dd199a5957068c032bb023f4b613" target="_top" xlink:title="backEnd.Model.getCommandsMap">
<polygon fill="white" stroke="black" points="1877.5,-322.5 1877.5,-341.5 2060.5,-341.5 2060.5,-322.5 1877.5,-322.5"/>
<text text-anchor="middle" x="1969" y="-329.5" font-family="Helvetica,sans-Serif" font-size="10.00">backEnd.Model.getCommandsMap</text>
</a>
</g>
</g>
<!-- Node14&#45;&gt;Node15 -->
<g id="edge14" class="edge"><title>Node14&#45;&gt;Node15</title>
<path fill="none" stroke="midnightblue" d="M1300.63,-240.584C1322.47,-253.513 1363.77,-276.272 1402,-288 1559.09,-336.185 1751.63,-340.271 1866.81,-337.26"/>
<polygon fill="midnightblue" stroke="midnightblue" points="1867.13,-340.753 1877.03,-336.969 1866.93,-333.755 1867.13,-340.753"/>
</g>
<!-- Node16 -->
<g id="node16" class="node"><title>Node16</title>
<g id="a_node16"><a xlink:href="../../d9/d1e/classback_end_1_1_parser.html#a653298ad53a1eea540beded2bb558ab4" target="_top" xlink:title="backEnd.Parser.makeTree">
<polygon fill="white" stroke="black" points="1426.5,-259.5 1426.5,-278.5 1565.5,-278.5 1565.5,-259.5 1426.5,-259.5"/>
<text text-anchor="middle" x="1496" y="-266.5" font-family="Helvetica,sans-Serif" font-size="10.00">backEnd.Parser.makeTree</text>
</a>
</g>
</g>
<!-- Node14&#45;&gt;Node16 -->
<g id="edge15" class="edge"><title>Node14&#45;&gt;Node16</title>
<path fill="none" stroke="midnightblue" d="M1337.72,-240.54C1366.43,-245.735 1402.14,-252.196 1432.27,-257.649"/>
<polygon fill="midnightblue" stroke="midnightblue" points="1431.79,-261.12 1442.26,-259.456 1433.04,-254.231 1431.79,-261.12"/>
</g>
<!-- Node26 -->
<g id="node26" class="node"><title>Node26</title>
<g id="a_node26"><a xlink:href="../../d9/d1e/classback_end_1_1_parser.html#a71653c0a9d02d4b400e357b978260de6" target="_top" xlink:title="backEnd.Parser.removeComments">
<polygon fill="white" stroke="black" points="1405,-221.5 1405,-240.5 1587,-240.5 1587,-221.5 1405,-221.5"/>
<text text-anchor="middle" x="1496" y="-228.5" font-family="Helvetica,sans-Serif" font-size="10.00">backEnd.Parser.removeComments</text>
</a>
</g>
</g>
<!-- Node14&#45;&gt;Node26 -->
<g id="edge28" class="edge"><title>Node14&#45;&gt;Node26</title>
<path fill="none" stroke="midnightblue" d="M1357.56,-231C1369.54,-231 1382.14,-231 1394.65,-231"/>
<polygon fill="midnightblue" stroke="midnightblue" points="1394.65,-234.5 1404.65,-231 1394.65,-227.5 1394.65,-234.5"/>
</g>
<!-- Node27 -->
<g id="node27" class="node"><title>Node27</title>
<g id="a_node27"><a xlink:href="../../d5/d62/classcommands_1_1templates_1_1_command.html#aa1c27b6285999798be609159ee5c7a83" target="_top" xlink:title="commands.templates.Command.to\lString">
<polygon fill="white" stroke="black" points="1402,-172 1402,-202 1590,-202 1590,-172 1402,-172"/>
<text text-anchor="start" x="1410" y="-190" font-family="Helvetica,sans-Serif" font-size="10.00">commands.templates.Command.to</text>
<text text-anchor="middle" x="1496" y="-179" font-family="Helvetica,sans-Serif" font-size="10.00">String</text>
</a>
</g>
</g>
<!-- Node14&#45;&gt;Node27 -->
<g id="edge29" class="edge"><title>Node14&#45;&gt;Node27</title>
<path fill="none" stroke="midnightblue" d="M1330.57,-221.453C1354.74,-216.388 1385.17,-210.011 1413.27,-204.124"/>
<polygon fill="midnightblue" stroke="midnightblue" points="1414.03,-207.542 1423.1,-202.065 1412.59,-200.691 1414.03,-207.542"/>
</g>
<!-- Node16&#45;&gt;Node15 -->
<g id="edge26" class="edge"><title>Node16&#45;&gt;Node15</title>
<path fill="none" stroke="midnightblue" d="M1543.74,-278.517C1568.18,-283.284 1598.63,-288.898 1626,-293 1706.81,-305.109 1798.86,-315.409 1867.09,-322.377"/>
<polygon fill="midnightblue" stroke="midnightblue" points="1867.1,-325.896 1877.4,-323.424 1867.81,-318.932 1867.1,-325.896"/>
</g>
<!-- Node17 -->
<g id="node17" class="node"><title>Node17</title>
<g id="a_node17"><a xlink:href="../../d5/d62/classcommands_1_1templates_1_1_command.html#a9ab84f2a1491a7283311891b8a6082dc" target="_top" xlink:title="commands.templates.Command.add\lChild">
<polygon fill="white" stroke="black" points="1626.5,-254 1626.5,-284 1823.5,-284 1823.5,-254 1626.5,-254"/>
<text text-anchor="start" x="1634.5" y="-272" font-family="Helvetica,sans-Serif" font-size="10.00">commands.templates.Command.add</text>
<text text-anchor="middle" x="1725" y="-261" font-family="Helvetica,sans-Serif" font-size="10.00">Child</text>
</a>
</g>
</g>
<!-- Node16&#45;&gt;Node17 -->
<g id="edge16" class="edge"><title>Node16&#45;&gt;Node17</title>
<path fill="none" stroke="midnightblue" d="M1565.72,-269C1581.65,-269 1598.98,-269 1616.13,-269"/>
<polygon fill="midnightblue" stroke="midnightblue" points="1616.2,-272.5 1626.2,-269 1616.2,-265.5 1616.2,-272.5"/>
</g>
<!-- Node18 -->
<g id="node18" class="node"><title>Node18</title>
<g id="a_node18"><a xlink:href="../../d5/d1d/classcommands_1_1_command_factory.html#ac77125dd466e3e01fce01fc527e7f815" target="_top" xlink:title="commands.CommandFactory.build\lCommand">
<polygon fill="white" stroke="black" points="1634,-156 1634,-186 1816,-186 1816,-156 1634,-156"/>
<text text-anchor="start" x="1642" y="-174" font-family="Helvetica,sans-Serif" font-size="10.00">commands.CommandFactory.build</text>
<text text-anchor="middle" x="1725" y="-163" font-family="Helvetica,sans-Serif" font-size="10.00">Command</text>
</a>
</g>
</g>
<!-- Node16&#45;&gt;Node18 -->
<g id="edge17" class="edge"><title>Node16&#45;&gt;Node18</title>
<path fill="none" stroke="midnightblue" d="M1565.58,-261.515C1574.24,-258.733 1582.64,-254.998 1590,-250 1614.17,-233.591 1602.15,-211.873 1626,-195 1628.13,-193.495 1630.34,-192.084 1632.62,-190.761"/>
<polygon fill="midnightblue" stroke="midnightblue" points="1634.41,-193.774 1641.7,-186.083 1631.2,-187.552 1634.41,-193.774"/>
</g>
<!-- Node25 -->
<g id="node25" class="node"><title>Node25</title>
<g id="a_node25"><a xlink:href="../../d5/d62/classcommands_1_1templates_1_1_command.html#a0ca025dffda489d73ba4b6c12c7118fe" target="_top" xlink:title="commands.templates.Command.get\lNumChildrenNeeded">
<polygon fill="white" stroke="black" points="1628,-205 1628,-235 1822,-235 1822,-205 1628,-205"/>
<text text-anchor="start" x="1636" y="-223" font-family="Helvetica,sans-Serif" font-size="10.00">commands.templates.Command.get</text>
<text text-anchor="middle" x="1725" y="-212" font-family="Helvetica,sans-Serif" font-size="10.00">NumChildrenNeeded</text>
</a>
</g>
</g>
<!-- Node16&#45;&gt;Node25 -->
<g id="edge27" class="edge"><title>Node16&#45;&gt;Node25</title>
<path fill="none" stroke="midnightblue" d="M1544.83,-259.408C1559.35,-256.447 1575.34,-253.139 1590,-250 1608.86,-245.963 1629.18,-241.481 1648.16,-237.24"/>
<polygon fill="midnightblue" stroke="midnightblue" points="1648.95,-240.649 1657.94,-235.047 1647.42,-233.818 1648.95,-240.649"/>
</g>
<!-- Node18&#45;&gt;Node15 -->
<g id="edge23" class="edge"><title>Node18&#45;&gt;Node15</title>
<path fill="none" stroke="midnightblue" d="M1812.25,-186.193C1816.47,-188.718 1820.43,-191.634 1824,-195 1863.58,-232.333 1819.37,-275.812 1860,-312 1862.68,-314.387 1865.55,-316.531 1868.57,-318.455"/>
<polygon fill="midnightblue" stroke="midnightblue" points="1866.97,-321.573 1877.42,-323.314 1870.34,-315.436 1866.97,-321.573"/>
</g>
<!-- Node19 -->
<g id="node19" class="node"><title>Node19</title>
<g id="a_node19"><a xlink:href="../../d5/d1d/classcommands_1_1_command_factory.html#adcf456039b5d7285082f1e009f3d30b6" target="_top" xlink:title="commands.CommandFactory.checkCaps">
<polygon fill="white" stroke="black" points="1863,-234.5 1863,-253.5 2075,-253.5 2075,-234.5 1863,-234.5"/>
<text text-anchor="middle" x="1969" y="-241.5" font-family="Helvetica,sans-Serif" font-size="10.00">commands.CommandFactory.checkCaps</text>
</a>
</g>
</g>
<!-- Node18&#45;&gt;Node19 -->
<g id="edge18" class="edge"><title>Node18&#45;&gt;Node19</title>
<path fill="none" stroke="midnightblue" d="M1801.84,-186.003C1809.49,-188.567 1817.01,-191.545 1824,-195 1842.42,-204.105 1841.33,-215.424 1860,-224 1866.55,-227.01 1873.52,-229.567 1880.65,-231.739"/>
<polygon fill="midnightblue" stroke="midnightblue" points="1879.87,-235.154 1890.44,-234.469 1881.75,-228.411 1879.87,-235.154"/>
</g>
<!-- Node20 -->
<g id="node20" class="node"><title>Node20</title>
<g id="a_node20"><a xlink:href="../../d5/d1d/classcommands_1_1_command_factory.html#acae1571442d9f8e040df95c8a2742d8d" target="_top" xlink:title="commands.CommandFactory.check\lLanguage">
<polygon fill="white" stroke="black" points="1875,-185 1875,-215 2063,-215 2063,-185 1875,-185"/>
<text text-anchor="start" x="1883" y="-203" font-family="Helvetica,sans-Serif" font-size="10.00">commands.CommandFactory.check</text>
<text text-anchor="middle" x="1969" y="-192" font-family="Helvetica,sans-Serif" font-size="10.00">Language</text>
</a>
</g>
</g>
<!-- Node18&#45;&gt;Node20 -->
<g id="edge19" class="edge"><title>Node18&#45;&gt;Node20</title>
<path fill="none" stroke="midnightblue" d="M1816.11,-181.799C1832.03,-183.706 1848.7,-185.704 1864.94,-187.65"/>
<polygon fill="midnightblue" stroke="midnightblue" points="1864.64,-191.139 1874.98,-188.853 1865.47,-184.188 1864.64,-191.139"/>
</g>
<!-- Node21 -->
<g id="node21" class="node"><title>Node21</title>
<g id="a_node21"><a xlink:href="../../d5/d1d/classcommands_1_1_command_factory.html#a9206a1ef0f863c61cb5c894da3133ef8" target="_top" xlink:title="commands.CommandFactory.check\lUserCommand">
<polygon fill="white" stroke="black" points="1875,-136 1875,-166 2063,-166 2063,-136 1875,-136"/>
<text text-anchor="start" x="1883" y="-154" font-family="Helvetica,sans-Serif" font-size="10.00">commands.CommandFactory.check</text>
<text text-anchor="middle" x="1969" y="-143" font-family="Helvetica,sans-Serif" font-size="10.00">UserCommand</text>
</a>
</g>
</g>
<!-- Node18&#45;&gt;Node21 -->
<g id="edge21" class="edge"><title>Node18&#45;&gt;Node21</title>
<path fill="none" stroke="midnightblue" d="M1816.11,-163.553C1832.03,-162.238 1848.7,-160.859 1864.94,-159.517"/>
<polygon fill="midnightblue" stroke="midnightblue" points="1865.3,-162.999 1874.98,-158.687 1864.73,-156.023 1865.3,-162.999"/>
</g>
<!-- Node22 -->
<g id="node22" class="node"><title>Node22</title>
<g id="a_node22"><a xlink:href="../../d5/d1d/classcommands_1_1_command_factory.html#a221a82baff222f4552a38b521efd78b6" target="_top" xlink:title="commands.CommandFactory.checkVar">
<polygon fill="white" stroke="black" points="1867.5,-97.5 1867.5,-116.5 2070.5,-116.5 2070.5,-97.5 1867.5,-97.5"/>
<text text-anchor="middle" x="1969" y="-104.5" font-family="Helvetica,sans-Serif" font-size="10.00">commands.CommandFactory.checkVar</text>
</a>
</g>
</g>
<!-- Node18&#45;&gt;Node22 -->
<g id="edge22" class="edge"><title>Node18&#45;&gt;Node22</title>
<path fill="none" stroke="midnightblue" d="M1794.47,-155.945C1804.51,-153.046 1814.62,-149.73 1824,-146 1841.01,-139.237 1842.75,-132.115 1860,-126 1867.87,-123.212 1876.21,-120.821 1884.63,-118.774"/>
<polygon fill="midnightblue" stroke="midnightblue" points="1885.55,-122.153 1894.53,-116.525 1884,-115.327 1885.55,-122.153"/>
</g>
<!-- Node23 -->
<g id="node23" class="node"><title>Node23</title>
<g id="a_node23"><a xlink:href="../../d5/d62/classcommands_1_1templates_1_1_command.html#a20741a5e32e24ff113701f7b2957e658" target="_top" xlink:title="commands.templates.Command.initialize\lCommand">
<polygon fill="white" stroke="black" points="1860.5,-48 1860.5,-78 2077.5,-78 2077.5,-48 1860.5,-48"/>
<text text-anchor="start" x="1868.5" y="-66" font-family="Helvetica,sans-Serif" font-size="10.00">commands.templates.Command.initialize</text>
<text text-anchor="middle" x="1969" y="-55" font-family="Helvetica,sans-Serif" font-size="10.00">Command</text>
</a>
</g>
</g>
<!-- Node18&#45;&gt;Node23 -->
<g id="edge24" class="edge"><title>Node18&#45;&gt;Node23</title>
<path fill="none" stroke="midnightblue" d="M1806.95,-155.848C1812.99,-153.094 1818.76,-149.841 1824,-146 1848.47,-128.063 1835.33,-105.663 1860,-88 1862.7,-86.0673 1865.53,-84.2815 1868.45,-82.6316"/>
<polygon fill="midnightblue" stroke="midnightblue" points="1870.13,-85.7055 1877.48,-78.0788 1866.98,-79.4547 1870.13,-85.7055"/>
</g>
<!-- Node24 -->
<g id="node24" class="node"><title>Node24</title>
<g id="a_node24"><a xlink:href="../../d5/d1d/classcommands_1_1_command_factory.html#aa562012b61b9b1701eada2bea8caa1d8" target="_top" xlink:title="commands.CommandFactory.is\lNumeric">
<polygon fill="white" stroke="black" points="1885.5,-273 1885.5,-303 2052.5,-303 2052.5,-273 1885.5,-273"/>
<text text-anchor="start" x="1893.5" y="-291" font-family="Helvetica,sans-Serif" font-size="10.00">commands.CommandFactory.is</text>
<text text-anchor="middle" x="1969" y="-280" font-family="Helvetica,sans-Serif" font-size="10.00">Numeric</text>
</a>
</g>
</g>
<!-- Node18&#45;&gt;Node24 -->
<g id="edge25" class="edge"><title>Node18&#45;&gt;Node24</title>
<path fill="none" stroke="midnightblue" d="M1809.63,-186.054C1814.73,-188.595 1819.58,-191.554 1824,-195 1850.97,-216.021 1832.9,-242.15 1860,-263 1864.96,-266.812 1870.39,-270.059 1876.11,-272.823"/>
<polygon fill="midnightblue" stroke="midnightblue" points="1874.72,-276.037 1885.29,-276.781 1877.49,-269.609 1874.72,-276.037"/>
</g>
<!-- Node20&#45;&gt;Node6 -->
<g id="edge20" class="edge"><title>Node20&#45;&gt;Node6</title>
<path fill="none" stroke="midnightblue" d="M2049.14,-215.054C2059.02,-217.881 2068.86,-221.178 2078,-225 2107.6,-237.374 2138.21,-257.507 2159.42,-272.84"/>
<polygon fill="midnightblue" stroke="midnightblue" points="2157.5,-275.77 2167.63,-278.872 2161.65,-270.13 2157.5,-275.77"/>
</g>
<!-- Node28&#45;&gt;Node11 -->
<g id="edge31" class="edge"><title>Node28&#45;&gt;Node11</title>
<path fill="none" stroke="midnightblue" d="M1131.69,-125.491C1160.18,-119.561 1197.04,-111.89 1227.25,-105.603"/>
<polygon fill="midnightblue" stroke="midnightblue" points="1228.14,-108.993 1237.22,-103.529 1226.71,-102.14 1228.14,-108.993"/>
</g>
<!-- Node29 -->
<g id="node29" class="node"><title>Node29</title>
<g id="a_node29"><a xlink:href="../../d8/dfc/classpanels_1_1_parameter_panel.html#a0bf8e32fe635c48c8a057062e0534b62" target="_top" xlink:title="panels.ParameterPanel.update\lVariables">
<polygon fill="white" stroke="black" points="1202,-123 1202,-153 1366,-153 1366,-123 1202,-123"/>
<text text-anchor="start" x="1210" y="-141" font-family="Helvetica,sans-Serif" font-size="10.00">panels.ParameterPanel.update</text>
<text text-anchor="middle" x="1284" y="-130" font-family="Helvetica,sans-Serif" font-size="10.00">Variables</text>
</a>
</g>
</g>
<!-- Node28&#45;&gt;Node29 -->
<g id="edge32" class="edge"><title>Node28&#45;&gt;Node29</title>
<path fill="none" stroke="midnightblue" d="M1165.56,-136.212C1174.16,-136.342 1182.95,-136.476 1191.67,-136.609"/>
<polygon fill="midnightblue" stroke="midnightblue" points="1191.81,-140.112 1201.86,-136.764 1191.91,-133.112 1191.81,-140.112"/>
</g>
<!-- Node30 -->
<g id="node30" class="node"><title>Node30</title>
<g id="a_node30"><a xlink:href="../../d0/d8f/classtitle_panes_1_1_variable_title_pane.html#a395dd58ae72e6111fce8e99be3c03842" target="_top" xlink:title="titlePanes.VariableTitle\lPane.updateVariables">
<polygon fill="white" stroke="black" points="1434,-123 1434,-153 1558,-153 1558,-123 1434,-123"/>
<text text-anchor="start" x="1442" y="-141" font-family="Helvetica,sans-Serif" font-size="10.00">titlePanes.VariableTitle</text>
<text text-anchor="middle" x="1496" y="-130" font-family="Helvetica,sans-Serif" font-size="10.00">Pane.updateVariables</text>
</a>
</g>
</g>
<!-- Node29&#45;&gt;Node30 -->
<g id="edge33" class="edge"><title>Node29&#45;&gt;Node30</title>
<path fill="none" stroke="midnightblue" d="M1366.19,-138C1385.18,-138 1405.27,-138 1423.79,-138"/>
<polygon fill="midnightblue" stroke="midnightblue" points="1423.89,-141.5 1433.89,-138 1423.89,-134.5 1423.89,-141.5"/>
</g>
<!-- Node31 -->
<g id="node31" class="node"><title>Node31</title>
<g id="a_node31"><a xlink:href="../../d0/d8f/classtitle_panes_1_1_variable_title_pane.html#a007ec1abdc73761490261f283e07338e" target="_top" xlink:title="titlePanes.VariableTitle\lPane.writeVariables">
<polygon fill="white" stroke="black" points="1663,-107 1663,-137 1787,-137 1787,-107 1663,-107"/>
<text text-anchor="start" x="1671" y="-125" font-family="Helvetica,sans-Serif" font-size="10.00">titlePanes.VariableTitle</text>
<text text-anchor="middle" x="1725" y="-114" font-family="Helvetica,sans-Serif" font-size="10.00">Pane.writeVariables</text>
</a>
</g>
</g>
<!-- Node30&#45;&gt;Node31 -->
<g id="edge34" class="edge"><title>Node30&#45;&gt;Node31</title>
<path fill="none" stroke="midnightblue" d="M1558.13,-133.691C1587.27,-131.637 1622.31,-129.167 1652.66,-127.028"/>
<polygon fill="midnightblue" stroke="midnightblue" points="1653.03,-130.511 1662.76,-126.316 1652.54,-123.528 1653.03,-130.511"/>
</g>
<!-- Node33&#45;&gt;Node4 -->
<g id="edge37" class="edge"><title>Node33&#45;&gt;Node4</title>
<path fill="none" stroke="midnightblue" d="M335.048,-122.035C365.86,-129.156 402.128,-137.539 430.924,-144.195"/>
<polygon fill="midnightblue" stroke="midnightblue" points="430.246,-147.63 440.777,-146.472 431.822,-140.81 430.246,-147.63"/>
</g>
<!-- Node33&#45;&gt;Node7 -->
<g id="edge38" class="edge"><title>Node33&#45;&gt;Node7</title>
<path fill="none" stroke="midnightblue" d="M355.791,-108.251C473.55,-109.969 684.01,-113.039 801.576,-114.754"/>
<polygon fill="midnightblue" stroke="midnightblue" points="801.564,-118.254 811.614,-114.9 801.666,-111.255 801.564,-118.254"/>
</g>
<!-- Node35 -->
<g id="node35" class="node"><title>Node35</title>
<g id="a_node35"><a xlink:href="../../d9/d49/classback_end_1_1_controller.html#a06c74a6c4bb360e826758f33e0dd1eb6" target="_top" xlink:title="backEnd.Controller.change\lPenColor">
<polygon fill="white" stroke="black" points="411,-40 411,-70 555,-70 555,-40 411,-40"/>
<text text-anchor="start" x="419" y="-58" font-family="Helvetica,sans-Serif" font-size="10.00">backEnd.Controller.change</text>
<text text-anchor="middle" x="483" y="-47" font-family="Helvetica,sans-Serif" font-size="10.00">PenColor</text>
</a>
</g>
</g>
<!-- Node34&#45;&gt;Node35 -->
<g id="edge40" class="edge"><title>Node34&#45;&gt;Node35</title>
<path fill="none" stroke="midnightblue" d="M355.617,-56.1923C370.463,-56.0522 385.864,-55.9069 400.593,-55.768"/>
<polygon fill="midnightblue" stroke="midnightblue" points="400.702,-59.2672 410.669,-55.6729 400.636,-52.2675 400.702,-59.2672"/>
</g>
<!-- Node36 -->
<g id="node36" class="node"><title>Node36</title>
<g id="a_node36"><a xlink:href="../../d8/d1f/classfront_end_1_1_view.html#a8a032e4ed880f3099ab4d04846221219" target="_top" xlink:title="frontEnd.View.changePenColor">
<polygon fill="white" stroke="black" points="610,-32.5 610,-51.5 772,-51.5 772,-32.5 610,-32.5"/>
<text text-anchor="middle" x="691" y="-39.5" font-family="Helvetica,sans-Serif" font-size="10.00">frontEnd.View.changePenColor</text>
</a>
</g>
</g>
<!-- Node35&#45;&gt;Node36 -->
<g id="edge41" class="edge"><title>Node35&#45;&gt;Node36</title>
<path fill="none" stroke="midnightblue" d="M555.182,-50.5079C569.544,-49.6016 584.822,-48.6374 599.738,-47.6961"/>
<polygon fill="midnightblue" stroke="midnightblue" points="600.231,-51.1721 609.991,-47.0491 599.79,-44.186 600.231,-51.1721"/>
</g>
<!-- Node37 -->
<g id="node37" class="node"><title>Node37</title>
<g id="a_node37"><a xlink:href="../../d5/df1/classfront_end_1_1_turtle_canvas.html#a86f38e34d4034991241fdb889a7c4570" target="_top" xlink:title="frontEnd.TurtleCanvas.change\lPenColor">
<polygon fill="white" stroke="black" points="808.5,-1 808.5,-31 967.5,-31 967.5,-1 808.5,-1"/>
<text text-anchor="start" x="816.5" y="-19" font-family="Helvetica,sans-Serif" font-size="10.00">frontEnd.TurtleCanvas.change</text>
<text text-anchor="middle" x="888" y="-8" font-family="Helvetica,sans-Serif" font-size="10.00">PenColor</text>
</a>
</g>
</g>
<!-- Node36&#45;&gt;Node37 -->
<g id="edge42" class="edge"><title>Node36&#45;&gt;Node37</title>
<path fill="none" stroke="midnightblue" d="M763.504,-32.4662C774.769,-30.9641 786.534,-29.3955 798.135,-27.8487"/>
<polygon fill="midnightblue" stroke="midnightblue" points="798.82,-31.2883 808.27,-26.4973 797.895,-24.3497 798.82,-31.2883"/>
</g>
<!-- Node38 -->
<g id="node38" class="node"><title>Node38</title>
<g id="a_node38"><a xlink:href="../../dc/dcd/classfront_end_1_1_turtle_view.html#ae388cacab199b191dbb44419e9574e86" target="_top" xlink:title="frontEnd.TurtleView.change\lPenColor">
<polygon fill="white" stroke="black" points="1012.5,-0 1012.5,-30 1157.5,-30 1157.5,-0 1012.5,-0"/>
<text text-anchor="start" x="1020.5" y="-18" font-family="Helvetica,sans-Serif" font-size="10.00">frontEnd.TurtleView.change</text>
<text text-anchor="middle" x="1085" y="-7" font-family="Helvetica,sans-Serif" font-size="10.00">PenColor</text>
</a>
</g>
</g>
<!-- Node37&#45;&gt;Node38 -->
<g id="edge43" class="edge"><title>Node37&#45;&gt;Node38</title>
<path fill="none" stroke="midnightblue" d="M967.752,-15.5961C979.001,-15.5385 990.596,-15.479 1001.91,-15.421"/>
<polygon fill="midnightblue" stroke="midnightblue" points="1002.22,-18.9196 1012.2,-15.3682 1002.18,-11.9196 1002.22,-18.9196"/>
</g>
</g>
</svg>
