<?xml version="1.0" encoding="UTF-8" standalone="no"?>
<!DOCTYPE svg PUBLIC "-//W3C//DTD SVG 1.1//EN"
 "http://www.w3.org/Graphics/SVG/1.1/DTD/svg11.dtd">
<!-- Generated by graphviz version 2.36.0 (20140111.2315)
 -->
<!-- Title: titlePanes.ControlTitlePane.handle Pages: 1 -->
<svg width="580pt" height="87pt"
 viewBox="0.00 0.00 580.00 87.00" xmlns="http://www.w3.org/2000/svg" xmlns:xlink="http://www.w3.org/1999/xlink">
<g id="graph0" class="graph" transform="scale(1 1) rotate(0) translate(4 83)">
<title>titlePanes.ControlTitlePane.handle</title>
<polygon fill="white" stroke="none" points="-4,4 -4,-83 576,-83 576,4 -4,4"/>
<!-- Node1 -->
<g id="node1" class="node"><title>Node1</title>
<polygon fill="#bfbfbf" stroke="black" points="0.5,-29.5 0.5,-48.5 179.5,-48.5 179.5,-29.5 0.5,-29.5"/>
<text text-anchor="middle" x="90" y="-36.5" font-family="Helvetica,sans-Serif" font-size="10.00">titlePanes.ControlTitlePane.handle</text>
</g>
<!-- Node2 -->
<g id="node2" class="node"><title>Node2</title>
<g id="a_node2"><a xlink:href="../../da/d04/classtitle_panes_1_1_control_title_pane.html#a974c75cbdf64007af637c8b19a26b215" target="_top" xlink:title="titlePanes.ControlTitlePane.make\lButtons">
<polygon fill="white" stroke="black" points="216.5,-49 216.5,-79 389.5,-79 389.5,-49 216.5,-49"/>
<text text-anchor="start" x="224.5" y="-67" font-family="Helvetica,sans-Serif" font-size="10.00">titlePanes.ControlTitlePane.make</text>
<text text-anchor="middle" x="303" y="-56" font-family="Helvetica,sans-Serif" font-size="10.00">Buttons</text>
</a>
</g>
</g>
<!-- Node1&#45;&gt;Node2 -->
<g id="edge1" class="edge"><title>Node1&#45;&gt;Node2</title>
<path fill="none" stroke="midnightblue" d="M181.438,-49.7154C192.98,-51.0829 204.768,-52.4796 216.233,-53.838"/>
<polygon fill="midnightblue" stroke="midnightblue" points="181.714,-46.2237 171.372,-48.5227 180.891,-53.1751 181.714,-46.2237"/>
</g>
<!-- Node4 -->
<g id="node4" class="node"><title>Node4</title>
<g id="a_node4"><a xlink:href="../../da/d04/classtitle_panes_1_1_control_title_pane.html#af28eba60fefe51c70e763d51d9123ea3" target="_top" xlink:title="titlePanes.ControlTitlePane.make\lLocationFields">
<polygon fill="white" stroke="black" points="216.5,-0 216.5,-30 389.5,-30 389.5,-0 216.5,-0"/>
<text text-anchor="start" x="224.5" y="-18" font-family="Helvetica,sans-Serif" font-size="10.00">titlePanes.ControlTitlePane.make</text>
<text text-anchor="middle" x="303" y="-7" font-family="Helvetica,sans-Serif" font-size="10.00">LocationFields</text>
</a>
</g>
</g>
<!-- Node1&#45;&gt;Node4 -->
<g id="edge3" class="edge"><title>Node1&#45;&gt;Node4</title>
<path fill="none" stroke="midnightblue" d="M184.72,-28.3399C195.241,-27.1432 205.919,-25.9286 216.331,-24.7443"/>
<polygon fill="midnightblue" stroke="midnightblue" points="184.236,-24.8723 174.696,-29.4801 185.027,-31.8274 184.236,-24.8723"/>
</g>
<!-- Node3 -->
<g id="node3" class="node"><title>Node3</title>
<g id="a_node3"><a xlink:href="../../da/d04/classtitle_panes_1_1_control_title_pane.html#ad9d4431a2657a30fedae46e0c9093867" target="_top" xlink:title="titlePanes.ControlTitlePane.\lControlTitlePane">
<polygon fill="white" stroke="black" points="426,-24 426,-54 572,-54 572,-24 426,-24"/>
<text text-anchor="start" x="434" y="-42" font-family="Helvetica,sans-Serif" font-size="10.00">titlePanes.ControlTitlePane.</text>
<text text-anchor="middle" x="499" y="-31" font-family="Helvetica,sans-Serif" font-size="10.00">ControlTitlePane</text>
</a>
</g>
</g>
<!-- Node2&#45;&gt;Node3 -->
<g id="edge2" class="edge"><title>Node2&#45;&gt;Node3</title>
<path fill="none" stroke="midnightblue" d="M399.602,-51.6801C408.431,-50.5423 417.276,-49.4026 425.843,-48.2985"/>
<polygon fill="midnightblue" stroke="midnightblue" points="399.127,-48.2124 389.656,-52.9619 400.021,-55.155 399.127,-48.2124"/>
</g>
<!-- Node4&#45;&gt;Node3 -->
<g id="edge4" class="edge"><title>Node4&#45;&gt;Node3</title>
<path fill="none" stroke="midnightblue" d="M399.602,-26.8271C408.431,-27.9193 417.276,-29.0135 425.843,-30.0734"/>
<polygon fill="midnightblue" stroke="midnightblue" points="400.01,-23.3509 389.656,-25.5966 399.151,-30.298 400.01,-23.3509"/>
</g>
</g>
</svg>
