<?xml version="1.0" encoding="UTF-8" standalone="no"?>
<!DOCTYPE svg PUBLIC "-//W3C//DTD SVG 1.1//EN"
 "http://www.w3.org/Graphics/SVG/1.1/DTD/svg11.dtd">
<!-- Generated by graphviz version 2.36.0 (20140111.2315)
 -->
<!-- Title: backEnd.Parser.makeTree Pages: 1 -->
<svg width="1484pt" height="177pt"
 viewBox="0.00 0.00 1484.00 177.00" xmlns="http://www.w3.org/2000/svg" xmlns:xlink="http://www.w3.org/1999/xlink">
<g id="graph0" class="graph" transform="scale(1 1) rotate(0) translate(4 173)">
<title>backEnd.Parser.makeTree</title>
<polygon fill="white" stroke="none" points="-4,4 -4,-173 1480,-173 1480,4 -4,4"/>
<!-- Node1 -->
<g id="node1" class="node"><title>Node1</title>
<polygon fill="#bfbfbf" stroke="black" points="0.5,-65.5 0.5,-84.5 139.5,-84.5 139.5,-65.5 0.5,-65.5"/>
<text text-anchor="middle" x="70" y="-72.5" font-family="Helvetica,sans-Serif" font-size="10.00">backEnd.Parser.makeTree</text>
</g>
<!-- Node2 -->
<g id="node2" class="node"><title>Node2</title>
<g id="a_node2"><a xlink:href="../../d9/d1e/classback_end_1_1_parser.html#a163b8afd814babc8e7df59993f0d6440" target="_top" xlink:title="backEnd.Parser.parseScript">
<polygon fill="white" stroke="black" points="176.5,-65.5 176.5,-84.5 323.5,-84.5 323.5,-65.5 176.5,-65.5"/>
<text text-anchor="middle" x="250" y="-72.5" font-family="Helvetica,sans-Serif" font-size="10.00">backEnd.Parser.parseScript</text>
</a>
</g>
</g>
<!-- Node1&#45;&gt;Node2 -->
<g id="edge1" class="edge"><title>Node1&#45;&gt;Node2</title>
<path fill="none" stroke="midnightblue" d="M149.833,-75C158.651,-75 167.603,-75 176.338,-75"/>
<polygon fill="midnightblue" stroke="midnightblue" points="149.565,-71.5001 139.565,-75 149.565,-78.5001 149.565,-71.5001"/>
</g>
<!-- Node3 -->
<g id="node3" class="node"><title>Node3</title>
<g id="a_node3"><a xlink:href="../../d9/d98/classback_end_1_1_model.html#ade764fd1c85a48fabb9abf3dfe8b8ceb" target="_top" xlink:title="backEnd.Model.runScript">
<polygon fill="white" stroke="black" points="360.5,-65.5 360.5,-84.5 495.5,-84.5 495.5,-65.5 360.5,-65.5"/>
<text text-anchor="middle" x="428" y="-72.5" font-family="Helvetica,sans-Serif" font-size="10.00">backEnd.Model.runScript</text>
</a>
</g>
</g>
<!-- Node2&#45;&gt;Node3 -->
<g id="edge2" class="edge"><title>Node2&#45;&gt;Node3</title>
<path fill="none" stroke="midnightblue" d="M333.694,-75C342.678,-75 351.736,-75 360.491,-75"/>
<polygon fill="midnightblue" stroke="midnightblue" points="333.602,-71.5001 323.602,-75 333.602,-78.5001 333.602,-71.5001"/>
</g>
<!-- Node4 -->
<g id="node4" class="node"><title>Node4</title>
<g id="a_node4"><a xlink:href="../../d9/d49/classback_end_1_1_controller.html#ad650f48d236eaf11c2d8591b04831900" target="_top" xlink:title="backEnd.Controller.runScript">
<polygon fill="white" stroke="black" points="532,-65.5 532,-84.5 684,-84.5 684,-65.5 532,-65.5"/>
<text text-anchor="middle" x="608" y="-72.5" font-family="Helvetica,sans-Serif" font-size="10.00">backEnd.Controller.runScript</text>
</a>
</g>
</g>
<!-- Node3&#45;&gt;Node4 -->
<g id="edge3" class="edge"><title>Node3&#45;&gt;Node4</title>
<path fill="none" stroke="midnightblue" d="M505.646,-75C514.341,-75 523.196,-75 531.871,-75"/>
<polygon fill="midnightblue" stroke="midnightblue" points="505.534,-71.5001 495.534,-75 505.534,-78.5001 505.534,-71.5001"/>
</g>
<!-- Node5 -->
<g id="node5" class="node"><title>Node5</title>
<g id="a_node5"><a xlink:href="../../de/d03/classpanels_1_1_script_panel.html#ae6ae56472ef1a975597bad69844662c6" target="_top" xlink:title="panels.ScriptPanel.handler">
<polygon fill="white" stroke="black" points="722.5,-130.5 722.5,-149.5 865.5,-149.5 865.5,-130.5 722.5,-130.5"/>
<text text-anchor="middle" x="794" y="-137.5" font-family="Helvetica,sans-Serif" font-size="10.00">panels.ScriptPanel.handler</text>
</a>
</g>
</g>
<!-- Node4&#45;&gt;Node5 -->
<g id="edge4" class="edge"><title>Node4&#45;&gt;Node5</title>
<path fill="none" stroke="midnightblue" d="M645.673,-87.9552C681.198,-100.505 734.232,-119.24 766.039,-130.476"/>
<polygon fill="midnightblue" stroke="midnightblue" points="646.745,-84.6218 636.15,-84.591 644.413,-91.2221 646.745,-84.6218"/>
</g>
<!-- Node7 -->
<g id="node7" class="node"><title>Node7</title>
<g id="a_node7"><a xlink:href="../../da/d04/classtitle_panes_1_1_control_title_pane.html#af28eba60fefe51c70e763d51d9123ea3" target="_top" xlink:title="titlePanes.ControlTitlePane.make\lLocationFields">
<polygon fill="white" stroke="black" points="1120.5,-0 1120.5,-30 1293.5,-30 1293.5,-0 1120.5,-0"/>
<text text-anchor="start" x="1128.5" y="-18" font-family="Helvetica,sans-Serif" font-size="10.00">titlePanes.ControlTitlePane.make</text>
<text text-anchor="middle" x="1207" y="-7" font-family="Helvetica,sans-Serif" font-size="10.00">LocationFields</text>
</a>
</g>
</g>
<!-- Node4&#45;&gt;Node7 -->
<g id="edge6" class="edge"><title>Node4&#45;&gt;Node7</title>
<path fill="none" stroke="midnightblue" d="M669.177,-63.7364C685.616,-60.9228 703.457,-58.1097 720,-56 859.641,-38.1916 1022.88,-26.222 1120.17,-20.018"/>
<polygon fill="midnightblue" stroke="midnightblue" points="668.399,-60.3191 659.147,-65.4821 669.599,-67.2155 668.399,-60.3191"/>
</g>
<!-- Node9 -->
<g id="node9" class="node"><title>Node9</title>
<g id="a_node9"><a xlink:href="../../d9/d49/classback_end_1_1_controller.html#a3b0bbf0a084bb4fb63d118f66e7327b1" target="_top" xlink:title="backEnd.Controller.move10">
<polygon fill="white" stroke="black" points="720,-65.5 720,-84.5 868,-84.5 868,-65.5 720,-65.5"/>
<text text-anchor="middle" x="794" y="-72.5" font-family="Helvetica,sans-Serif" font-size="10.00">backEnd.Controller.move10</text>
</a>
</g>
</g>
<!-- Node4&#45;&gt;Node9 -->
<g id="edge8" class="edge"><title>Node4&#45;&gt;Node9</title>
<path fill="none" stroke="midnightblue" d="M694.156,-75C702.765,-75 711.454,-75 719.92,-75"/>
<polygon fill="midnightblue" stroke="midnightblue" points="694.105,-71.5001 684.105,-75 694.105,-78.5001 694.105,-71.5001"/>
</g>
<!-- Node6 -->
<g id="node6" class="node"><title>Node6</title>
<g id="a_node6"><a xlink:href="../../de/d03/classpanels_1_1_script_panel.html#ac959f1785cff7409d857d3bea9b8ee63" target="_top" xlink:title="panels.ScriptPanel.Script\lPanel">
<polygon fill="white" stroke="black" points="926.5,-139 926.5,-169 1061.5,-169 1061.5,-139 926.5,-139"/>
<text text-anchor="start" x="934.5" y="-157" font-family="Helvetica,sans-Serif" font-size="10.00">panels.ScriptPanel.Script</text>
<text text-anchor="middle" x="994" y="-146" font-family="Helvetica,sans-Serif" font-size="10.00">Panel</text>
</a>
</g>
</g>
<!-- Node5&#45;&gt;Node6 -->
<g id="edge5" class="edge"><title>Node5&#45;&gt;Node6</title>
<path fill="none" stroke="midnightblue" d="M875.965,-145.725C892.719,-146.909 910.185,-148.144 926.358,-149.288"/>
<polygon fill="midnightblue" stroke="midnightblue" points="875.866,-142.209 865.644,-144.995 875.372,-149.192 875.866,-142.209"/>
</g>
<!-- Node8 -->
<g id="node8" class="node"><title>Node8</title>
<g id="a_node8"><a xlink:href="../../da/d04/classtitle_panes_1_1_control_title_pane.html#ad9d4431a2657a30fedae46e0c9093867" target="_top" xlink:title="titlePanes.ControlTitlePane.\lControlTitlePane">
<polygon fill="white" stroke="black" points="1330,-24 1330,-54 1476,-54 1476,-24 1330,-24"/>
<text text-anchor="start" x="1338" y="-42" font-family="Helvetica,sans-Serif" font-size="10.00">titlePanes.ControlTitlePane.</text>
<text text-anchor="middle" x="1403" y="-31" font-family="Helvetica,sans-Serif" font-size="10.00">ControlTitlePane</text>
</a>
</g>
</g>
<!-- Node7&#45;&gt;Node8 -->
<g id="edge7" class="edge"><title>Node7&#45;&gt;Node8</title>
<path fill="none" stroke="midnightblue" d="M1303.6,-26.8271C1312.43,-27.9193 1321.28,-29.0135 1329.84,-30.0734"/>
<polygon fill="midnightblue" stroke="midnightblue" points="1304.01,-23.3509 1293.66,-25.5966 1303.15,-30.298 1304.01,-23.3509"/>
</g>
<!-- Node10 -->
<g id="node10" class="node"><title>Node10</title>
<g id="a_node10"><a xlink:href="../../d9/d49/classback_end_1_1_controller.html#a7893477f39915a5169eb8da0dff60628" target="_top" xlink:title="backEnd.Controller.build\lKeyListener">
<polygon fill="white" stroke="black" points="928.5,-90 928.5,-120 1059.5,-120 1059.5,-90 928.5,-90"/>
<text text-anchor="start" x="936.5" y="-108" font-family="Helvetica,sans-Serif" font-size="10.00">backEnd.Controller.build</text>
<text text-anchor="middle" x="994" y="-97" font-family="Helvetica,sans-Serif" font-size="10.00">KeyListener</text>
</a>
</g>
</g>
<!-- Node9&#45;&gt;Node10 -->
<g id="edge9" class="edge"><title>Node9&#45;&gt;Node10</title>
<path fill="none" stroke="midnightblue" d="M868.076,-86.0721C887.787,-89.0587 908.974,-92.2687 928.198,-95.1816"/>
<polygon fill="midnightblue" stroke="midnightblue" points="868.332,-82.571 857.92,-84.5334 867.283,-89.492 868.332,-82.571"/>
</g>
<!-- Node12 -->
<g id="node12" class="node"><title>Node12</title>
<g id="a_node12"><a xlink:href="../../da/d04/classtitle_panes_1_1_control_title_pane.html#ae994c7b4dd988b30fc824e9e893b3ccf" target="_top" xlink:title="titlePanes.ControlTitlePane.handle">
<polygon fill="white" stroke="black" points="904.5,-51.5 904.5,-70.5 1083.5,-70.5 1083.5,-51.5 904.5,-51.5"/>
<text text-anchor="middle" x="994" y="-58.5" font-family="Helvetica,sans-Serif" font-size="10.00">titlePanes.ControlTitlePane.handle</text>
</a>
</g>
</g>
<!-- Node9&#45;&gt;Node12 -->
<g id="edge11" class="edge"><title>Node9&#45;&gt;Node12</title>
<path fill="none" stroke="midnightblue" d="M878.219,-69.1158C886.862,-68.5047 895.669,-67.882 904.369,-67.2668"/>
<polygon fill="midnightblue" stroke="midnightblue" points="877.894,-65.63 868.165,-69.8267 878.387,-72.6126 877.894,-65.63"/>
</g>
<!-- Node11 -->
<g id="node11" class="node"><title>Node11</title>
<g id="a_node11"><a xlink:href="../../d9/d49/classback_end_1_1_controller.html#a987136eaba0798749f393bac2a9a2400" target="_top" xlink:title="backEnd.Controller.Controller">
<polygon fill="white" stroke="black" points="1129.5,-98.5 1129.5,-117.5 1284.5,-117.5 1284.5,-98.5 1129.5,-98.5"/>
<text text-anchor="middle" x="1207" y="-105.5" font-family="Helvetica,sans-Serif" font-size="10.00">backEnd.Controller.Controller</text>
</a>
</g>
</g>
<!-- Node10&#45;&gt;Node11 -->
<g id="edge10" class="edge"><title>Node10&#45;&gt;Node11</title>
<path fill="none" stroke="midnightblue" d="M1069.94,-106.065C1089.15,-106.339 1109.84,-106.633 1129.15,-106.907"/>
<polygon fill="midnightblue" stroke="midnightblue" points="1069.79,-102.563 1059.74,-105.92 1069.69,-109.562 1069.79,-102.563"/>
</g>
<!-- Node12&#45;&gt;Node7 -->
<g id="edge14" class="edge"><title>Node12&#45;&gt;Node7</title>
<path fill="none" stroke="midnightblue" d="M1048.69,-49.2945C1075.53,-43.4436 1108.32,-36.2957 1137,-30.0427"/>
<polygon fill="midnightblue" stroke="midnightblue" points="1047.74,-45.919 1038.72,-51.4688 1049.24,-52.7583 1047.74,-45.919"/>
</g>
<!-- Node13 -->
<g id="node13" class="node"><title>Node13</title>
<g id="a_node13"><a xlink:href="../../da/d04/classtitle_panes_1_1_control_title_pane.html#a974c75cbdf64007af637c8b19a26b215" target="_top" xlink:title="titlePanes.ControlTitlePane.make\lButtons">
<polygon fill="white" stroke="black" points="1120.5,-49 1120.5,-79 1293.5,-79 1293.5,-49 1120.5,-49"/>
<text text-anchor="start" x="1128.5" y="-67" font-family="Helvetica,sans-Serif" font-size="10.00">titlePanes.ControlTitlePane.make</text>
<text text-anchor="middle" x="1207" y="-56" font-family="Helvetica,sans-Serif" font-size="10.00">Buttons</text>
</a>
</g>
</g>
<!-- Node12&#45;&gt;Node13 -->
<g id="edge12" class="edge"><title>Node12&#45;&gt;Node13</title>
<path fill="none" stroke="midnightblue" d="M1093.61,-62.4021C1102.55,-62.5291 1111.55,-62.6571 1120.36,-62.7824"/>
<polygon fill="midnightblue" stroke="midnightblue" points="1093.61,-58.9018 1083.57,-62.2592 1093.52,-65.9011 1093.61,-58.9018"/>
</g>
<!-- Node13&#45;&gt;Node8 -->
<g id="edge13" class="edge"><title>Node13&#45;&gt;Node8</title>
<path fill="none" stroke="midnightblue" d="M1303.6,-51.6801C1312.43,-50.5423 1321.28,-49.4026 1329.84,-48.2985"/>
<polygon fill="midnightblue" stroke="midnightblue" points="1303.13,-48.2124 1293.66,-52.9619 1304.02,-55.155 1303.13,-48.2124"/>
</g>
</g>
</svg>
