<?xml version="1.0" encoding="UTF-8" standalone="no"?>
<!DOCTYPE svg PUBLIC "-//W3C//DTD SVG 1.1//EN"
 "http://www.w3.org/Graphics/SVG/1.1/DTD/svg11.dtd">
<!-- Generated by graphviz version 2.36.0 (20140111.2315)
 -->
<!-- Title: backEnd.turtle.TurtlePoint Pages: 1 -->
<svg width="190pt" height="106pt"
 viewBox="0.00 0.00 190.00 106.00" xmlns="http://www.w3.org/2000/svg" xmlns:xlink="http://www.w3.org/1999/xlink">
<g id="graph0" class="graph" transform="scale(1 1) rotate(0) translate(4 102)">
<title>backEnd.turtle.TurtlePoint</title>
<polygon fill="white" stroke="none" points="-4,4 -4,-102 186,-102 186,4 -4,4"/>
<!-- Node1 -->
<g id="node1" class="node"><title>Node1</title>
<polygon fill="#bfbfbf" stroke="black" points="21,-0.5 21,-19.5 159,-19.5 159,-0.5 21,-0.5"/>
<text text-anchor="middle" x="90" y="-7.5" font-family="Helvetica,sans-Serif" font-size="10.00">backEnd.turtle.TurtlePoint</text>
</g>
<!-- Node2 -->
<g id="node2" class="node"><title>Node2</title>
<polygon fill="white" stroke="#bfbfbf" points="-0.5,-78.5 -0.5,-97.5 90.5,-97.5 90.5,-78.5 -0.5,-78.5"/>
<text text-anchor="middle" x="45" y="-85.5" font-family="Helvetica,sans-Serif" font-size="10.00">DoubleProperty</text>
</g>
<!-- Node2&#45;&gt;Node1 -->
<g id="edge1" class="edge"><title>Node2&#45;&gt;Node1</title>
<path fill="none" stroke="#9a32cd" stroke-dasharray="5,2" d="M44.7519,-68.1869C45.4121,-58.5428 47.485,-46.9727 53,-38 57.747,-30.2769 65.6034,-24.0779 72.8586,-19.5773"/>
<polygon fill="#9a32cd" stroke="#9a32cd" points="41.2489,-68.27 44.5041,-78.3523 48.2468,-68.4406 41.2489,-68.27"/>
<text text-anchor="middle" x="83.5" y="-52" font-family="Helvetica,sans-Serif" font-size="10.00"> myYPosition</text>
<text text-anchor="middle" x="83.5" y="-41" font-family="Helvetica,sans-Serif" font-size="10.00">myXPosition</text>
</g>
<!-- Node3 -->
<g id="node3" class="node"><title>Node3</title>
<polygon fill="white" stroke="#bfbfbf" points="109,-78.5 109,-97.5 163,-97.5 163,-78.5 109,-78.5"/>
<text text-anchor="middle" x="136" y="-85.5" font-family="Helvetica,sans-Serif" font-size="10.00">Point2D</text>
</g>
<!-- Node3&#45;&gt;Node1 -->
<g id="edge2" class="edge"><title>Node3&#45;&gt;Node1</title>
<path fill="none" stroke="#9a32cd" stroke-dasharray="5,2" d="M129.313,-68.644C125.472,-59.1393 120.184,-47.5562 114,-38 109.775,-31.4709 104.012,-24.9321 99.1925,-19.9249"/>
<polygon fill="#9a32cd" stroke="#9a32cd" points="126.157,-70.1891 133.005,-78.273 132.693,-67.6828 126.157,-70.1891"/>
<text text-anchor="middle" x="154" y="-46.5" font-family="Helvetica,sans-Serif" font-size="10.00"> myPosition</text>
</g>
</g>
</svg>
