<?xml version="1.0" encoding="UTF-8" standalone="no"?>
<!DOCTYPE svg PUBLIC "-//W3C//DTD SVG 1.1//EN"
 "http://www.w3.org/Graphics/SVG/1.1/DTD/svg11.dtd">
<!-- Generated by graphviz version 2.36.0 (20140111.2315)
 -->
<!-- Title: titlePanes.DisplayTitlePane.DisplayTitlePane Pages: 1 -->
<svg width="1344pt" height="136pt"
 viewBox="0.00 0.00 1344.00 136.00" xmlns="http://www.w3.org/2000/svg" xmlns:xlink="http://www.w3.org/1999/xlink">
<g id="graph0" class="graph" transform="scale(1 1) rotate(0) translate(4 132)">
<title>titlePanes.DisplayTitlePane.DisplayTitlePane</title>
<polygon fill="white" stroke="none" points="-4,4 -4,-132 1340,-132 1340,4 -4,4"/>
<!-- Node1 -->
<g id="node1" class="node"><title>Node1</title>
<polygon fill="#bfbfbf" stroke="black" points="0,-49 0,-79 146,-79 146,-49 0,-49"/>
<text text-anchor="start" x="8" y="-67" font-family="Helvetica,sans-Serif" font-size="10.00">titlePanes.DisplayTitlePane.</text>
<text text-anchor="middle" x="73" y="-56" font-family="Helvetica,sans-Serif" font-size="10.00">DisplayTitlePane</text>
</g>
<!-- Node2 -->
<g id="node2" class="node"><title>Node2</title>
<g id="a_node2"><a xlink:href="../../dd/d67/classtitle_panes_1_1_display_title_pane.html#a33c5ea499e7fcc2105a0fc0bab9d3081" target="_top" xlink:title="titlePanes.DisplayTitlePane.make\lBackgroundColorBox">
<polygon fill="white" stroke="black" points="182.5,-98 182.5,-128 355.5,-128 355.5,-98 182.5,-98"/>
<text text-anchor="start" x="190.5" y="-116" font-family="Helvetica,sans-Serif" font-size="10.00">titlePanes.DisplayTitlePane.make</text>
<text text-anchor="middle" x="269" y="-105" font-family="Helvetica,sans-Serif" font-size="10.00">BackgroundColorBox</text>
</a>
</g>
</g>
<!-- Node1&#45;&gt;Node2 -->
<g id="edge1" class="edge"><title>Node1&#45;&gt;Node2</title>
<path fill="none" stroke="midnightblue" d="M133.525,-79.0346C154.102,-84.2318 177.337,-90.1006 198.634,-95.4796"/>
<polygon fill="midnightblue" stroke="midnightblue" points="198.035,-98.9383 208.588,-97.9938 199.749,-92.1514 198.035,-98.9383"/>
</g>
<!-- Node3 -->
<g id="node3" class="node"><title>Node3</title>
<g id="a_node3"><a xlink:href="../../dd/d67/classtitle_panes_1_1_display_title_pane.html#a0ba90533306c4265f16848eaced84c33" target="_top" xlink:title="titlePanes.DisplayTitlePane.make\lGridLinesBox">
<polygon fill="white" stroke="black" points="182.5,-49 182.5,-79 355.5,-79 355.5,-49 182.5,-49"/>
<text text-anchor="start" x="190.5" y="-67" font-family="Helvetica,sans-Serif" font-size="10.00">titlePanes.DisplayTitlePane.make</text>
<text text-anchor="middle" x="269" y="-56" font-family="Helvetica,sans-Serif" font-size="10.00">GridLinesBox</text>
</a>
</g>
</g>
<!-- Node1&#45;&gt;Node3 -->
<g id="edge2" class="edge"><title>Node1&#45;&gt;Node3</title>
<path fill="none" stroke="midnightblue" d="M146.238,-64C154.678,-64 163.386,-64 172.082,-64"/>
<polygon fill="midnightblue" stroke="midnightblue" points="172.269,-67.5001 182.269,-64 172.269,-60.5001 172.269,-67.5001"/>
</g>
<!-- Node7 -->
<g id="node7" class="node"><title>Node7</title>
<g id="a_node7"><a xlink:href="../../dd/d67/classtitle_panes_1_1_display_title_pane.html#a331ac295d6888c6c41f9ff49b1cea23d" target="_top" xlink:title="titlePanes.DisplayTitlePane.make\lTurtleImageChooser">
<polygon fill="white" stroke="black" points="182.5,-0 182.5,-30 355.5,-30 355.5,-0 182.5,-0"/>
<text text-anchor="start" x="190.5" y="-18" font-family="Helvetica,sans-Serif" font-size="10.00">titlePanes.DisplayTitlePane.make</text>
<text text-anchor="middle" x="269" y="-7" font-family="Helvetica,sans-Serif" font-size="10.00">TurtleImageChooser</text>
</a>
</g>
</g>
<!-- Node1&#45;&gt;Node7 -->
<g id="edge6" class="edge"><title>Node1&#45;&gt;Node7</title>
<path fill="none" stroke="midnightblue" d="M133.525,-48.9654C154.102,-43.7682 177.337,-37.8994 198.634,-32.5204"/>
<polygon fill="midnightblue" stroke="midnightblue" points="199.749,-35.8486 208.588,-30.0062 198.035,-29.0617 199.749,-35.8486"/>
</g>
<!-- Node4 -->
<g id="node4" class="node"><title>Node4</title>
<g id="a_node4"><a xlink:href="../../d9/d49/classback_end_1_1_controller.html#a64526fc753c94df5ddc8527af8e50301" target="_top" xlink:title="backEnd.Controller.toggle\lGridLines">
<polygon fill="white" stroke="black" points="415.5,-49 415.5,-79 554.5,-79 554.5,-49 415.5,-49"/>
<text text-anchor="start" x="423.5" y="-67" font-family="Helvetica,sans-Serif" font-size="10.00">backEnd.Controller.toggle</text>
<text text-anchor="middle" x="485" y="-56" font-family="Helvetica,sans-Serif" font-size="10.00">GridLines</text>
</a>
</g>
</g>
<!-- Node3&#45;&gt;Node4 -->
<g id="edge3" class="edge"><title>Node3&#45;&gt;Node4</title>
<path fill="none" stroke="midnightblue" d="M355.501,-64C371.832,-64 388.859,-64 404.976,-64"/>
<polygon fill="midnightblue" stroke="midnightblue" points="405.419,-67.5001 415.419,-64 405.419,-60.5001 405.419,-67.5001"/>
</g>
<!-- Node5 -->
<g id="node5" class="node"><title>Node5</title>
<g id="a_node5"><a xlink:href="../../d8/d1f/classfront_end_1_1_view.html#a3b11e07ca0ec9c9f9a22583b736eb7b7" target="_top" xlink:title="frontEnd.View.toggleGrid\lLines">
<polygon fill="white" stroke="black" points="619,-49 619,-79 753,-79 753,-49 619,-49"/>
<text text-anchor="start" x="627" y="-67" font-family="Helvetica,sans-Serif" font-size="10.00">frontEnd.View.toggleGrid</text>
<text text-anchor="middle" x="686" y="-56" font-family="Helvetica,sans-Serif" font-size="10.00">Lines</text>
</a>
</g>
</g>
<!-- Node4&#45;&gt;Node5 -->
<g id="edge4" class="edge"><title>Node4&#45;&gt;Node5</title>
<path fill="none" stroke="midnightblue" d="M554.763,-64C572.137,-64 590.897,-64 608.621,-64"/>
<polygon fill="midnightblue" stroke="midnightblue" points="608.919,-67.5001 618.919,-64 608.919,-60.5001 608.919,-67.5001"/>
</g>
<!-- Node6 -->
<g id="node6" class="node"><title>Node6</title>
<g id="a_node6"><a xlink:href="../../d5/df1/classfront_end_1_1_turtle_canvas.html#a650ea975d84e53c9ccd1a612a286697f" target="_top" xlink:title="frontEnd.TurtleCanvas.toggle\lGridLines">
<polygon fill="white" stroke="black" points="794,-49 794,-79 948,-79 948,-49 794,-49"/>
<text text-anchor="start" x="802" y="-67" font-family="Helvetica,sans-Serif" font-size="10.00">frontEnd.TurtleCanvas.toggle</text>
<text text-anchor="middle" x="871" y="-56" font-family="Helvetica,sans-Serif" font-size="10.00">GridLines</text>
</a>
</g>
</g>
<!-- Node5&#45;&gt;Node6 -->
<g id="edge5" class="edge"><title>Node5&#45;&gt;Node6</title>
<path fill="none" stroke="midnightblue" d="M753.067,-64C762.972,-64 773.31,-64 783.562,-64"/>
<polygon fill="midnightblue" stroke="midnightblue" points="783.766,-67.5001 793.766,-64 783.766,-60.5001 783.766,-67.5001"/>
</g>
<!-- Node8 -->
<g id="node8" class="node"><title>Node8</title>
<g id="a_node8"><a xlink:href="../../dd/d67/classtitle_panes_1_1_display_title_pane.html#aceb12213a01d9cb060a64441ea46ed0f" target="_top" xlink:title="titlePanes.DisplayTitlePane.openFile">
<polygon fill="white" stroke="black" points="392.5,-5.5 392.5,-24.5 577.5,-24.5 577.5,-5.5 392.5,-5.5"/>
<text text-anchor="middle" x="485" y="-12.5" font-family="Helvetica,sans-Serif" font-size="10.00">titlePanes.DisplayTitlePane.openFile</text>
</a>
</g>
</g>
<!-- Node7&#45;&gt;Node8 -->
<g id="edge7" class="edge"><title>Node7&#45;&gt;Node8</title>
<path fill="none" stroke="midnightblue" d="M355.501,-15C364.298,-15 373.297,-15 382.248,-15"/>
<polygon fill="midnightblue" stroke="midnightblue" points="382.318,-18.5001 392.318,-15 382.318,-11.5001 382.318,-18.5001"/>
</g>
<!-- Node9 -->
<g id="node9" class="node"><title>Node9</title>
<g id="a_node9"><a xlink:href="../../d9/d49/classback_end_1_1_controller.html#a2d6485b9fa7484fee3a041924554fb2a" target="_top" xlink:title="backEnd.Controller.change\lTurtleImage">
<polygon fill="white" stroke="black" points="614,-0 614,-30 758,-30 758,-0 614,-0"/>
<text text-anchor="start" x="622" y="-18" font-family="Helvetica,sans-Serif" font-size="10.00">backEnd.Controller.change</text>
<text text-anchor="middle" x="686" y="-7" font-family="Helvetica,sans-Serif" font-size="10.00">TurtleImage</text>
</a>
</g>
</g>
<!-- Node8&#45;&gt;Node9 -->
<g id="edge8" class="edge"><title>Node8&#45;&gt;Node9</title>
<path fill="none" stroke="midnightblue" d="M577.637,-15C586.362,-15 595.168,-15 603.784,-15"/>
<polygon fill="midnightblue" stroke="midnightblue" points="603.796,-18.5001 613.796,-15 603.796,-11.5001 603.796,-18.5001"/>
</g>
<!-- Node10 -->
<g id="node10" class="node"><title>Node10</title>
<g id="a_node10"><a xlink:href="../../d8/d1f/classfront_end_1_1_view.html#ae7a2f6e6f22069bcaaf142dc37349dee" target="_top" xlink:title="frontEnd.View.changeTurtle\lImage">
<polygon fill="white" stroke="black" points="798.5,-0 798.5,-30 943.5,-30 943.5,-0 798.5,-0"/>
<text text-anchor="start" x="806.5" y="-18" font-family="Helvetica,sans-Serif" font-size="10.00">frontEnd.View.changeTurtle</text>
<text text-anchor="middle" x="871" y="-7" font-family="Helvetica,sans-Serif" font-size="10.00">Image</text>
</a>
</g>
</g>
<!-- Node9&#45;&gt;Node10 -->
<g id="edge9" class="edge"><title>Node9&#45;&gt;Node10</title>
<path fill="none" stroke="midnightblue" d="M758.015,-15C767.961,-15 778.248,-15 788.372,-15"/>
<polygon fill="midnightblue" stroke="midnightblue" points="788.422,-18.5001 798.422,-15 788.422,-11.5001 788.422,-18.5001"/>
</g>
<!-- Node11 -->
<g id="node11" class="node"><title>Node11</title>
<g id="a_node11"><a xlink:href="../../d5/df1/classfront_end_1_1_turtle_canvas.html#a4c8d20e109a3445a41c1c4a02928ad5c" target="_top" xlink:title="frontEnd.TurtleCanvas.change\lTurtleImage">
<polygon fill="white" stroke="black" points="984.5,-0 984.5,-30 1143.5,-30 1143.5,-0 984.5,-0"/>
<text text-anchor="start" x="992.5" y="-18" font-family="Helvetica,sans-Serif" font-size="10.00">frontEnd.TurtleCanvas.change</text>
<text text-anchor="middle" x="1064" y="-7" font-family="Helvetica,sans-Serif" font-size="10.00">TurtleImage</text>
</a>
</g>
</g>
<!-- Node10&#45;&gt;Node11 -->
<g id="edge10" class="edge"><title>Node10&#45;&gt;Node11</title>
<path fill="none" stroke="midnightblue" d="M943.665,-15C953.589,-15 963.879,-15 974.07,-15"/>
<polygon fill="midnightblue" stroke="midnightblue" points="974.209,-18.5001 984.209,-15 974.209,-11.5001 974.209,-18.5001"/>
</g>
<!-- Node12 -->
<g id="node12" class="node"><title>Node12</title>
<g id="a_node12"><a xlink:href="../../dc/dcd/classfront_end_1_1_turtle_view.html#af8d2b97ffef04e1b6ea796b9db58eed8" target="_top" xlink:title="frontEnd.TurtleView.setImage">
<polygon fill="white" stroke="black" points="1180.5,-5.5 1180.5,-24.5 1335.5,-24.5 1335.5,-5.5 1180.5,-5.5"/>
<text text-anchor="middle" x="1258" y="-12.5" font-family="Helvetica,sans-Serif" font-size="10.00">frontEnd.TurtleView.setImage</text>
</a>
</g>
</g>
<!-- Node11&#45;&gt;Node12 -->
<g id="edge11" class="edge"><title>Node11&#45;&gt;Node12</title>
<path fill="none" stroke="midnightblue" d="M1143.65,-15C1152.36,-15 1161.26,-15 1170.07,-15"/>
<polygon fill="midnightblue" stroke="midnightblue" points="1170.34,-18.5001 1180.34,-15 1170.34,-11.5001 1170.34,-18.5001"/>
</g>
</g>
</svg>
