<?xml version="1.0" encoding="UTF-8" standalone="no"?>
<!DOCTYPE svg PUBLIC "-//W3C//DTD SVG 1.1//EN"
 "http://www.w3.org/Graphics/SVG/1.1/DTD/svg11.dtd">
<!-- Generated by graphviz version 2.36.0 (20140111.2315)
 -->
<!-- Title: titlePanes.DisplayTitlePane.DisplayTitlePane Pages: 1 -->
<!--zoomable 136 -->
<svg id="main" version="1.1" xmlns="http://www.w3.org/2000/svg" xmlns:xlink="http://www.w3.org/1999/xlink" xml:space="preserve" onload="init(evt)">
<style type="text/css"><![CDATA[
.edge:hover path { stroke: red; }
.edge:hover polygon { stroke: red; fill: red; }
]]></style>
<script type="text/javascript"><![CDATA[
var edges = document.getElementsByTagName('g');
if (edges && edges.length) {
  for (var i=0;i<edges.length;i++) {
    if (edges[i].id.substr(0,4)=='edge') {
      edges[i].setAttribute('class','edge');
    }
  }
}
]]></script>
        <defs>
                <circle id="rim" cx="0" cy="0" r="7"/>
                <circle id="rim2" cx="0" cy="0" r="3.5"/>
                <g id="zoomPlus">
                        <use xlink:href="#rim" fill="#404040">
                                <set attributeName="fill" to="#808080" begin="zoomplus.mouseover" end="zoomplus.mouseout"/>
                        </use>
                        <path d="M-4,0h8M0,-4v8" fill="none" stroke="white" stroke-width="1.5" pointer-events="none"/>
                </g>
                <g id="zoomMin">
                        <use xlink:href="#rim" fill="#404040">
                                <set attributeName="fill" to="#808080" begin="zoomminus.mouseover" end="zoomminus.mouseout"/>
                        </use>
                        <path d="M-4,0h8" fill="none" stroke="white" stroke-width="1.5" pointer-events="none"/>
                </g>
                <g id="dirArrow">
                        <path fill="none" stroke="white" stroke-width="1.5" d="M0,-3.0v7 M-2.5,-0.5L0,-3.0L2.5,-0.5"/>
                </g>
               <g id="resetDef">
                       <use xlink:href="#rim2" fill="#404040">
                               <set attributeName="fill" to="#808080" begin="reset.mouseover" end="reset.mouseout"/>
                       </use>
               </g>
        </defs>

<script type="text/javascript">
var viewWidth = 1344;
var viewHeight = 136;
var sectionId = 'dynsection-2';
</script>
<script xlink:href="../../svgpan.js"/>
<svg id="graph" class="graph">
<g id="viewport">
<title>titlePanes.DisplayTitlePane.DisplayTitlePane</title>
<polygon fill="white" stroke="none" points="-4,4 -4,-132 1340,-132 1340,4 -4,4"/>
<!-- Node1 -->
<g id="node1" class="node"><title>Node1</title>
<polygon fill="#bfbfbf" stroke="black" points="0,-49 0,-79 146,-79 146,-49 0,-49"/>
<text text-anchor="start" x="8" y="-67" font-family="Helvetica,sans-Serif" font-size="10.00">titlePanes.DisplayTitlePane.</text>
<text text-anchor="middle" x="73" y="-56" font-family="Helvetica,sans-Serif" font-size="10.00">DisplayTitlePane</text>
</g>
<!-- Node2 -->
<g id="node2" class="node"><title>Node2</title>
<g id="a_node2"><a xlink:href="../../dd/d67/classtitle_panes_1_1_display_title_pane.html#a33c5ea499e7fcc2105a0fc0bab9d3081" target="_top" xlink:title="titlePanes.DisplayTitlePane.make\lBackgroundColorBox">
<polygon fill="white" stroke="black" points="182.5,-98 182.5,-128 355.5,-128 355.5,-98 182.5,-98"/>
<text text-anchor="start" x="190.5" y="-116" font-family="Helvetica,sans-Serif" font-size="10.00">titlePanes.DisplayTitlePane.make</text>
<text text-anchor="middle" x="269" y="-105" font-family="Helvetica,sans-Serif" font-size="10.00">BackgroundColorBox</text>
</a>
</g>
</g>
<!-- Node1&#45;&gt;Node2 -->
<g id="edge1" class="edge"><title>Node1&#45;&gt;Node2</title>
<path fill="none" stroke="midnightblue" d="M133.525,-79.0346C154.102,-84.2318 177.337,-90.1006 198.634,-95.4796"/>
<polygon fill="midnightblue" stroke="midnightblue" points="198.035,-98.9383 208.588,-97.9938 199.749,-92.1514 198.035,-98.9383"/>
</g>
<!-- Node3 -->
<g id="node3" class="node"><title>Node3</title>
<g id="a_node3"><a xlink:href="../../dd/d67/classtitle_panes_1_1_display_title_pane.html#a0ba90533306c4265f16848eaced84c33" target="_top" xlink:title="titlePanes.DisplayTitlePane.make\lGridLinesBox">
<polygon fill="white" stroke="black" points="182.5,-49 182.5,-79 355.5,-79 355.5,-49 182.5,-49"/>
<text text-anchor="start" x="190.5" y="-67" font-family="Helvetica,sans-Serif" font-size="10.00">titlePanes.DisplayTitlePane.make</text>
<text text-anchor="middle" x="269" y="-56" font-family="Helvetica,sans-Serif" font-size="10.00">GridLinesBox</text>
</a>
</g>
</g>
<!-- Node1&#45;&gt;Node3 -->
<g id="edge2" class="edge"><title>Node1&#45;&gt;Node3</title>
<path fill="none" stroke="midnightblue" d="M146.238,-64C154.678,-64 163.386,-64 172.082,-64"/>
<polygon fill="midnightblue" stroke="midnightblue" points="172.269,-67.5001 182.269,-64 172.269,-60.5001 172.269,-67.5001"/>
</g>
<!-- Node7 -->
<g id="node7" class="node"><title>Node7</title>
<g id="a_node7"><a xlink:href="../../dd/d67/classtitle_panes_1_1_display_title_pane.html#a331ac295d6888c6c41f9ff49b1cea23d" target="_top" xlink:title="titlePanes.DisplayTitlePane.make\lTurtleImageChooser">
<polygon fill="white" stroke="black" points="182.5,-0 182.5,-30 355.5,-30 355.5,-0 182.5,-0"/>
<text text-anchor="start" x="190.5" y="-18" font-family="Helvetica,sans-Serif" font-size="10.00">titlePanes.DisplayTitlePane.make</text>
<text text-anchor="middle" x="269" y="-7" font-family="Helvetica,sans-Serif" font-size="10.00">TurtleImageChooser</text>
</a>
</g>
</g>
<!-- Node1&#45;&gt;Node7 -->
<g id="edge6" class="edge"><title>Node1&#45;&gt;Node7</title>
<path fill="none" stroke="midnightblue" d="M133.525,-48.9654C154.102,-43.7682 177.337,-37.8994 198.634,-32.5204"/>
<polygon fill="midnightblue" stroke="midnightblue" points="199.749,-35.8486 208.588,-30.0062 198.035,-29.0617 199.749,-35.8486"/>
</g>
<!-- Node4 -->
<g id="node4" class="node"><title>Node4</title>
<g id="a_node4"><a xlink:href="../../d9/d49/classback_end_1_1_controller.html#a64526fc753c94df5ddc8527af8e50301" target="_top" xlink:title="backEnd.Controller.toggle\lGridLines">
<polygon fill="white" stroke="black" points="415.5,-49 415.5,-79 554.5,-79 554.5,-49 415.5,-49"/>
<text text-anchor="start" x="423.5" y="-67" font-family="Helvetica,sans-Serif" font-size="10.00">backEnd.Controller.toggle</text>
<text text-anchor="middle" x="485" y="-56" font-family="Helvetica,sans-Serif" font-size="10.00">GridLines</text>
</a>
</g>
</g>
<!-- Node3&#45;&gt;Node4 -->
<g id="edge3" class="edge"><title>Node3&#45;&gt;Node4</title>
<path fill="none" stroke="midnightblue" d="M355.501,-64C371.832,-64 388.859,-64 404.976,-64"/>
<polygon fill="midnightblue" stroke="midnightblue" points="405.419,-67.5001 415.419,-64 405.419,-60.5001 405.419,-67.5001"/>
</g>
<!-- Node5 -->
<g id="node5" class="node"><title>Node5</title>
<g id="a_node5"><a xlink:href="../../d8/d1f/classfront_end_1_1_view.html#a3b11e07ca0ec9c9f9a22583b736eb7b7" target="_top" xlink:title="frontEnd.View.toggleGrid\lLines">
<polygon fill="white" stroke="black" points="619,-49 619,-79 753,-79 753,-49 619,-49"/>
<text text-anchor="start" x="627" y="-67" font-family="Helvetica,sans-Serif" font-size="10.00">frontEnd.View.toggleGrid</text>
<text text-anchor="middle" x="686" y="-56" font-family="Helvetica,sans-Serif" font-size="10.00">Lines</text>
</a>
</g>
</g>
<!-- Node4&#45;&gt;Node5 -->
<g id="edge4" class="edge"><title>Node4&#45;&gt;Node5</title>
<path fill="none" stroke="midnightblue" d="M554.763,-64C572.137,-64 590.897,-64 608.621,-64"/>
<polygon fill="midnightblue" stroke="midnightblue" points="608.919,-67.5001 618.919,-64 608.919,-60.5001 608.919,-67.5001"/>
</g>
<!-- Node6 -->
<g id="node6" class="node"><title>Node6</title>
<g id="a_node6"><a xlink:href="../../d5/df1/classfront_end_1_1_turtle_canvas.html#a650ea975d84e53c9ccd1a612a286697f" target="_top" xlink:title="frontEnd.TurtleCanvas.toggle\lGridLines">
<polygon fill="white" stroke="black" points="794,-49 794,-79 948,-79 948,-49 794,-49"/>
<text text-anchor="start" x="802" y="-67" font-family="Helvetica,sans-Serif" font-size="10.00">frontEnd.TurtleCanvas.toggle</text>
<text text-anchor="middle" x="871" y="-56" font-family="Helvetica,sans-Serif" font-size="10.00">GridLines</text>
</a>
</g>
</g>
<!-- Node5&#45;&gt;Node6 -->
<g id="edge5" class="edge"><title>Node5&#45;&gt;Node6</title>
<path fill="none" stroke="midnightblue" d="M753.067,-64C762.972,-64 773.31,-64 783.562,-64"/>
<polygon fill="midnightblue" stroke="midnightblue" points="783.766,-67.5001 793.766,-64 783.766,-60.5001 783.766,-67.5001"/>
</g>
<!-- Node8 -->
<g id="node8" class="node"><title>Node8</title>
<g id="a_node8"><a xlink:href="../../dd/d67/classtitle_panes_1_1_display_title_pane.html#aceb12213a01d9cb060a64441ea46ed0f" target="_top" xlink:title="titlePanes.DisplayTitlePane.openFile">
<polygon fill="white" stroke="black" points="392.5,-5.5 392.5,-24.5 577.5,-24.5 577.5,-5.5 392.5,-5.5"/>
<text text-anchor="middle" x="485" y="-12.5" font-family="Helvetica,sans-Serif" font-size="10.00">titlePanes.DisplayTitlePane.openFile</text>
</a>
</g>
</g>
<!-- Node7&#45;&gt;Node8 -->
<g id="edge7" class="edge"><title>Node7&#45;&gt;Node8</title>
<path fill="none" stroke="midnightblue" d="M355.501,-15C364.298,-15 373.297,-15 382.248,-15"/>
<polygon fill="midnightblue" stroke="midnightblue" points="382.318,-18.5001 392.318,-15 382.318,-11.5001 382.318,-18.5001"/>
</g>
<!-- Node9 -->
<g id="node9" class="node"><title>Node9</title>
<g id="a_node9"><a xlink:href="../../d9/d49/classback_end_1_1_controller.html#a2d6485b9fa7484fee3a041924554fb2a" target="_top" xlink:title="backEnd.Controller.change\lTurtleImage">
<polygon fill="white" stroke="black" points="614,-0 614,-30 758,-30 758,-0 614,-0"/>
<text text-anchor="start" x="622" y="-18" font-family="Helvetica,sans-Serif" font-size="10.00">backEnd.Controller.change</text>
<text text-anchor="middle" x="686" y="-7" font-family="Helvetica,sans-Serif" font-size="10.00">TurtleImage</text>
</a>
</g>
</g>
<!-- Node8&#45;&gt;Node9 -->
<g id="edge8" class="edge"><title>Node8&#45;&gt;Node9</title>
<path fill="none" stroke="midnightblue" d="M577.637,-15C586.362,-15 595.168,-15 603.784,-15"/>
<polygon fill="midnightblue" stroke="midnightblue" points="603.796,-18.5001 613.796,-15 603.796,-11.5001 603.796,-18.5001"/>
</g>
<!-- Node10 -->
<g id="node10" class="node"><title>Node10</title>
<g id="a_node10"><a xlink:href="../../d8/d1f/classfront_end_1_1_view.html#ae7a2f6e6f22069bcaaf142dc37349dee" target="_top" xlink:title="frontEnd.View.changeTurtle\lImage">
<polygon fill="white" stroke="black" points="798.5,-0 798.5,-30 943.5,-30 943.5,-0 798.5,-0"/>
<text text-anchor="start" x="806.5" y="-18" font-family="Helvetica,sans-Serif" font-size="10.00">frontEnd.View.changeTurtle</text>
<text text-anchor="middle" x="871" y="-7" font-family="Helvetica,sans-Serif" font-size="10.00">Image</text>
</a>
</g>
</g>
<!-- Node9&#45;&gt;Node10 -->
<g id="edge9" class="edge"><title>Node9&#45;&gt;Node10</title>
<path fill="none" stroke="midnightblue" d="M758.015,-15C767.961,-15 778.248,-15 788.372,-15"/>
<polygon fill="midnightblue" stroke="midnightblue" points="788.422,-18.5001 798.422,-15 788.422,-11.5001 788.422,-18.5001"/>
</g>
<!-- Node11 -->
<g id="node11" class="node"><title>Node11</title>
<g id="a_node11"><a xlink:href="../../d5/df1/classfront_end_1_1_turtle_canvas.html#a4c8d20e109a3445a41c1c4a02928ad5c" target="_top" xlink:title="frontEnd.TurtleCanvas.change\lTurtleImage">
<polygon fill="white" stroke="black" points="984.5,-0 984.5,-30 1143.5,-30 1143.5,-0 984.5,-0"/>
<text text-anchor="start" x="992.5" y="-18" font-family="Helvetica,sans-Serif" font-size="10.00">frontEnd.TurtleCanvas.change</text>
<text text-anchor="middle" x="1064" y="-7" font-family="Helvetica,sans-Serif" font-size="10.00">TurtleImage</text>
</a>
</g>
</g>
<!-- Node10&#45;&gt;Node11 -->
<g id="edge10" class="edge"><title>Node10&#45;&gt;Node11</title>
<path fill="none" stroke="midnightblue" d="M943.665,-15C953.589,-15 963.879,-15 974.07,-15"/>
<polygon fill="midnightblue" stroke="midnightblue" points="974.209,-18.5001 984.209,-15 974.209,-11.5001 974.209,-18.5001"/>
</g>
<!-- Node12 -->
<g id="node12" class="node"><title>Node12</title>
<g id="a_node12"><a xlink:href="../../dc/dcd/classfront_end_1_1_turtle_view.html#af8d2b97ffef04e1b6ea796b9db58eed8" target="_top" xlink:title="frontEnd.TurtleView.setImage">
<polygon fill="white" stroke="black" points="1180.5,-5.5 1180.5,-24.5 1335.5,-24.5 1335.5,-5.5 1180.5,-5.5"/>
<text text-anchor="middle" x="1258" y="-12.5" font-family="Helvetica,sans-Serif" font-size="10.00">frontEnd.TurtleView.setImage</text>
</a>
</g>
</g>
<!-- Node11&#45;&gt;Node12 -->
<g id="edge11" class="edge"><title>Node11&#45;&gt;Node12</title>
<path fill="none" stroke="midnightblue" d="M1143.65,-15C1152.36,-15 1161.26,-15 1170.07,-15"/>
<polygon fill="midnightblue" stroke="midnightblue" points="1170.34,-18.5001 1180.34,-15 1170.34,-11.5001 1170.34,-18.5001"/>
</g>
</g>
</svg>
        <g id="navigator" transform="translate(0 0)" fill="#404254">
                <rect fill="#f2f5e9" fill-opacity="0.5" stroke="#606060" stroke-width=".5" x="0" y="0" width="60" height="60"/>
                <use id="zoomplus" xlink:href="#zoomPlus" x="17" y="9" onmousedown="handleZoom(evt,'in')"/>
                <use id="zoomminus" xlink:href="#zoomMin" x="42" y="9" onmousedown="handleZoom(evt,'out')"/>
                <use id="reset" xlink:href="#resetDef" x="30" y="36" onmousedown="handleReset()"/>
                <g id="arrowUp" xlink:href="#dirArrow" transform="translate(30 24)" onmousedown="handlePan(0,-1)">
                  <use xlink:href="#rim" fill="#404040">
                        <set attributeName="fill" to="#808080" begin="arrowUp.mouseover" end="arrowUp.mouseout"/>
                  </use>
                  <path fill="none" stroke="white" stroke-width="1.5" d="M0,-3.0v7 M-2.5,-0.5L0,-3.0L2.5,-0.5"/>
                </g>
                <g id="arrowRight" xlink:href="#dirArrow" transform="rotate(90) translate(36 -43)" onmousedown="handlePan(1,0)">
                  <use xlink:href="#rim" fill="#404040">
                        <set attributeName="fill" to="#808080" begin="arrowRight.mouseover" end="arrowRight.mouseout"/>
                  </use>
                  <path fill="none" stroke="white" stroke-width="1.5" d="M0,-3.0v7 M-2.5,-0.5L0,-3.0L2.5,-0.5"/>
                </g>
                <g id="arrowDown" xlink:href="#dirArrow" transform="rotate(180) translate(-30 -48)" onmousedown="handlePan(0,1)">
                  <use xlink:href="#rim" fill="#404040">
                        <set attributeName="fill" to="#808080" begin="arrowDown.mouseover" end="arrowDown.mouseout"/>
                  </use>
                  <path fill="none" stroke="white" stroke-width="1.5" d="M0,-3.0v7 M-2.5,-0.5L0,-3.0L2.5,-0.5"/>
                </g>
                <g id="arrowLeft" xlink:href="#dirArrow" transform="rotate(270) translate(-36 17)" onmousedown="handlePan(-1,0)">
                  <use xlink:href="#rim" fill="#404040">
                        <set attributeName="fill" to="#808080" begin="arrowLeft.mouseover" end="arrowLeft.mouseout"/>
                  </use>
                  <path fill="none" stroke="white" stroke-width="1.5" d="M0,-3.0v7 M-2.5,-0.5L0,-3.0L2.5,-0.5"/>
                </g>
        </g>
        <svg viewBox="0 0 15 15" width="100%" height="30px" preserveAspectRatio="xMaxYMin meet">
         <g id="arrow_out" transform="scale(0.3 0.3)">
          <a xlink:href="classtitle_panes_1_1_display_title_pane_ad07a1fec588c0ef5745d90ee1039143c_cgraph_org.svg" target="_base">
           <rect id="button" ry="5" rx="5" y="6" x="6" height="38" width="38"
                fill="#f2f5e9" fill-opacity="0.5" stroke="#606060" stroke-width="1.0"/>
           <path id="arrow"
             d="M 11.500037,31.436501 C 11.940474,20.09759 22.043105,11.32322 32.158766,21.979434 L 37.068811,17.246167 C 37.068811,17.246167 37.088388,32 37.088388,32 L 22.160133,31.978069 C 22.160133,31.978069 26.997745,27.140456 26.997745,27.140456 C 18.528582,18.264221 13.291696,25.230495 11.500037,31.436501 z"
             style="fill:#404040;"/>
          </a>
         </g>
        </svg>
</svg>
