<?xml version="1.0" encoding="UTF-8" standalone="no"?>
<!DOCTYPE svg PUBLIC "-//W3C//DTD SVG 1.1//EN"
 "http://www.w3.org/Graphics/SVG/1.1/DTD/svg11.dtd">
<!-- Generated by graphviz version 2.36.0 (20140111.2315)
 -->
<!-- Title: titlePanes.DisplayTitlePane.makeGridLinesBox Pages: 1 -->
<svg width="718pt" height="38pt"
 viewBox="0.00 0.00 718.00 38.00" xmlns="http://www.w3.org/2000/svg" xmlns:xlink="http://www.w3.org/1999/xlink">
<g id="graph0" class="graph" transform="scale(1 1) rotate(0) translate(4 34)">
<title>titlePanes.DisplayTitlePane.makeGridLinesBox</title>
<polygon fill="white" stroke="none" points="-4,4 -4,-34 714,-34 714,4 -4,4"/>
<!-- Node1 -->
<g id="node1" class="node"><title>Node1</title>
<polygon fill="#bfbfbf" stroke="black" points="0.5,-0 0.5,-30 173.5,-30 173.5,-0 0.5,-0"/>
<text text-anchor="start" x="8.5" y="-18" font-family="Helvetica,sans-Serif" font-size="10.00">titlePanes.DisplayTitlePane.make</text>
<text text-anchor="middle" x="87" y="-7" font-family="Helvetica,sans-Serif" font-size="10.00">GridLinesBox</text>
</g>
<!-- Node2 -->
<g id="node2" class="node"><title>Node2</title>
<g id="a_node2"><a xlink:href="../../d9/d49/classback_end_1_1_controller.html#a64526fc753c94df5ddc8527af8e50301" target="_top" xlink:title="backEnd.Controller.toggle\lGridLines">
<polygon fill="white" stroke="black" points="210.5,-0 210.5,-30 349.5,-30 349.5,-0 210.5,-0"/>
<text text-anchor="start" x="218.5" y="-18" font-family="Helvetica,sans-Serif" font-size="10.00">backEnd.Controller.toggle</text>
<text text-anchor="middle" x="280" y="-7" font-family="Helvetica,sans-Serif" font-size="10.00">GridLines</text>
</a>
</g>
</g>
<!-- Node1&#45;&gt;Node2 -->
<g id="edge1" class="edge"><title>Node1&#45;&gt;Node2</title>
<path fill="none" stroke="midnightblue" d="M173.723,-15C182.561,-15 191.513,-15 200.27,-15"/>
<polygon fill="midnightblue" stroke="midnightblue" points="200.443,-18.5001 210.443,-15 200.443,-11.5001 200.443,-18.5001"/>
</g>
<!-- Node3 -->
<g id="node3" class="node"><title>Node3</title>
<g id="a_node3"><a xlink:href="../../d8/d1f/classfront_end_1_1_view.html#a3b11e07ca0ec9c9f9a22583b736eb7b7" target="_top" xlink:title="frontEnd.View.toggleGrid\lLines">
<polygon fill="white" stroke="black" points="386,-0 386,-30 520,-30 520,-0 386,-0"/>
<text text-anchor="start" x="394" y="-18" font-family="Helvetica,sans-Serif" font-size="10.00">frontEnd.View.toggleGrid</text>
<text text-anchor="middle" x="453" y="-7" font-family="Helvetica,sans-Serif" font-size="10.00">Lines</text>
</a>
</g>
</g>
<!-- Node2&#45;&gt;Node3 -->
<g id="edge2" class="edge"><title>Node2&#45;&gt;Node3</title>
<path fill="none" stroke="midnightblue" d="M349.567,-15C358.182,-15 367.036,-15 375.76,-15"/>
<polygon fill="midnightblue" stroke="midnightblue" points="375.919,-18.5001 385.919,-15 375.919,-11.5001 375.919,-18.5001"/>
</g>
<!-- Node4 -->
<g id="node4" class="node"><title>Node4</title>
<g id="a_node4"><a xlink:href="../../d5/df1/classfront_end_1_1_turtle_canvas.html#a650ea975d84e53c9ccd1a612a286697f" target="_top" xlink:title="frontEnd.TurtleCanvas.toggle\lGridLines">
<polygon fill="white" stroke="black" points="556,-0 556,-30 710,-30 710,-0 556,-0"/>
<text text-anchor="start" x="564" y="-18" font-family="Helvetica,sans-Serif" font-size="10.00">frontEnd.TurtleCanvas.toggle</text>
<text text-anchor="middle" x="633" y="-7" font-family="Helvetica,sans-Serif" font-size="10.00">GridLines</text>
</a>
</g>
</g>
<!-- Node3&#45;&gt;Node4 -->
<g id="edge3" class="edge"><title>Node3&#45;&gt;Node4</title>
<path fill="none" stroke="midnightblue" d="M520.028,-15C528.419,-15 537.103,-15 545.752,-15"/>
<polygon fill="midnightblue" stroke="midnightblue" points="545.87,-18.5001 555.87,-15 545.87,-11.5001 545.87,-18.5001"/>
</g>
</g>
</svg>
