<?xml version="1.0" encoding="UTF-8" standalone="no"?>
<!DOCTYPE svg PUBLIC "-//W3C//DTD SVG 1.1//EN"
 "http://www.w3.org/Graphics/SVG/1.1/DTD/svg11.dtd">
<!-- Generated by graphviz version 2.36.0 (20140111.2315)
 -->
<!-- Title: commands.templates.TurtleCommand Pages: 1 -->
<svg width="570pt" height="1459pt"
 viewBox="0.00 0.00 570.00 1459.00" xmlns="http://www.w3.org/2000/svg" xmlns:xlink="http://www.w3.org/1999/xlink">
<g id="graph0" class="graph" transform="scale(1 1) rotate(0) translate(4 1455)">
<title>commands.templates.TurtleCommand</title>
<polygon fill="white" stroke="none" points="-4,4 -4,-1455 566,-1455 566,4 -4,4"/>
<!-- Node1 -->
<g id="node1" class="node"><title>Node1</title>
<polygon fill="#bfbfbf" stroke="black" points="212.5,-710 212.5,-740 363.5,-740 363.5,-710 212.5,-710"/>
<text text-anchor="start" x="220.5" y="-728" font-family="Helvetica,sans-Serif" font-size="10.00">commands.templates.Turtle</text>
<text text-anchor="middle" x="288" y="-717" font-family="Helvetica,sans-Serif" font-size="10.00">Command</text>
</g>
<!-- Node3 -->
<g id="node3" class="node"><title>Node3</title>
<g id="a_node3"><a xlink:href="../../da/d20/classcommands_1_1turtle__commands_1_1_ask_command.html" target="_top" xlink:title="commands.turtle_commands.\lAskCommand">
<polygon fill="white" stroke="black" points="400.5,-1421 400.5,-1451 561.5,-1451 561.5,-1421 400.5,-1421"/>
<text text-anchor="start" x="408.5" y="-1439" font-family="Helvetica,sans-Serif" font-size="10.00">commands.turtle_commands.</text>
<text text-anchor="middle" x="481" y="-1428" font-family="Helvetica,sans-Serif" font-size="10.00">AskCommand</text>
</a>
</g>
</g>
<!-- Node1&#45;&gt;Node3 -->
<g id="edge2" class="edge"><title>Node1&#45;&gt;Node3</title>
<path fill="none" stroke="midnightblue" d="M289.64,-750.328C292.961,-861.969 311.665,-1309.09 400,-1411 403.336,-1414.85 407.255,-1418.11 411.535,-1420.88"/>
<polygon fill="midnightblue" stroke="midnightblue" points="293.13,-749.938 289.35,-740.04 286.133,-750.135 293.13,-749.938"/>
</g>
<!-- Node4 -->
<g id="node4" class="node"><title>Node4</title>
<g id="a_node4"><a xlink:href="../../d0/d5e/classcommands_1_1turtle__commands_1_1_ask_with_command.html" target="_top" xlink:title="commands.turtle_commands.\lAskWithCommand">
<polygon fill="white" stroke="black" points="400.5,-1372 400.5,-1402 561.5,-1402 561.5,-1372 400.5,-1372"/>
<text text-anchor="start" x="408.5" y="-1390" font-family="Helvetica,sans-Serif" font-size="10.00">commands.turtle_commands.</text>
<text text-anchor="middle" x="481" y="-1379" font-family="Helvetica,sans-Serif" font-size="10.00">AskWithCommand</text>
</a>
</g>
</g>
<!-- Node1&#45;&gt;Node4 -->
<g id="edge3" class="edge"><title>Node1&#45;&gt;Node4</title>
<path fill="none" stroke="midnightblue" d="M289.981,-750.219C294.618,-856.682 317.676,-1268.18 400,-1362 403.359,-1365.83 407.295,-1369.08 411.587,-1371.83"/>
<polygon fill="midnightblue" stroke="midnightblue" points="293.472,-749.934 289.556,-740.09 286.478,-750.227 293.472,-749.934"/>
</g>
<!-- Node5 -->
<g id="node5" class="node"><title>Node5</title>
<g id="a_node5"><a xlink:href="../../da/d66/classcommands_1_1turtle__commands_1_1_back_command.html" target="_top" xlink:title="commands.turtle_commands.\lBackCommand">
<polygon fill="white" stroke="black" points="400.5,-1323 400.5,-1353 561.5,-1353 561.5,-1323 400.5,-1323"/>
<text text-anchor="start" x="408.5" y="-1341" font-family="Helvetica,sans-Serif" font-size="10.00">commands.turtle_commands.</text>
<text text-anchor="middle" x="481" y="-1330" font-family="Helvetica,sans-Serif" font-size="10.00">BackCommand</text>
</a>
</g>
</g>
<!-- Node1&#45;&gt;Node5 -->
<g id="edge4" class="edge"><title>Node1&#45;&gt;Node5</title>
<path fill="none" stroke="midnightblue" d="M290.38,-750.205C296.417,-851.456 323.695,-1227.26 400,-1313 403.386,-1316.8 407.341,-1320.04 411.647,-1322.78"/>
<polygon fill="midnightblue" stroke="midnightblue" points="293.862,-749.786 289.789,-740.005 286.874,-750.191 293.862,-749.786"/>
</g>
<!-- Node6 -->
<g id="node6" class="node"><title>Node6</title>
<g id="a_node6"><a xlink:href="../../df/d09/classcommands_1_1turtle__commands_1_1_clear_command.html" target="_top" xlink:title="commands.turtle_commands.\lClearCommand">
<polygon fill="white" stroke="black" points="400.5,-1274 400.5,-1304 561.5,-1304 561.5,-1274 400.5,-1274"/>
<text text-anchor="start" x="408.5" y="-1292" font-family="Helvetica,sans-Serif" font-size="10.00">commands.turtle_commands.</text>
<text text-anchor="middle" x="481" y="-1281" font-family="Helvetica,sans-Serif" font-size="10.00">ClearCommand</text>
</a>
</g>
</g>
<!-- Node1&#45;&gt;Node6 -->
<g id="edge5" class="edge"><title>Node1&#45;&gt;Node6</title>
<path fill="none" stroke="midnightblue" d="M290.854,-750.245C298.386,-846.141 329.705,-1186.32 400,-1264 403.515,-1267.88 407.623,-1271.17 412.088,-1273.95"/>
<polygon fill="midnightblue" stroke="midnightblue" points="294.326,-749.738 290.07,-740.035 287.346,-750.274 294.326,-749.738"/>
</g>
<!-- Node7 -->
<g id="node7" class="node"><title>Node7</title>
<g id="a_node7"><a xlink:href="../../d4/d6b/classcommands_1_1turtle__commands_1_1_clear_stamp_command.html" target="_top" xlink:title="commands.turtle_commands.\lClearStampCommand">
<polygon fill="white" stroke="black" points="400.5,-1225 400.5,-1255 561.5,-1255 561.5,-1225 400.5,-1225"/>
<text text-anchor="start" x="408.5" y="-1243" font-family="Helvetica,sans-Serif" font-size="10.00">commands.turtle_commands.</text>
<text text-anchor="middle" x="481" y="-1232" font-family="Helvetica,sans-Serif" font-size="10.00">ClearStampCommand</text>
</a>
</g>
</g>
<!-- Node1&#45;&gt;Node7 -->
<g id="edge6" class="edge"><title>Node1&#45;&gt;Node7</title>
<path fill="none" stroke="midnightblue" d="M291.42,-750.27C300.548,-840.527 335.686,-1145.32 400,-1215 403.553,-1218.85 407.688,-1222.11 412.173,-1224.87"/>
<polygon fill="midnightblue" stroke="midnightblue" points="294.884,-749.734 290.413,-740.129 287.918,-750.426 294.884,-749.734"/>
</g>
<!-- Node8 -->
<g id="node8" class="node"><title>Node8</title>
<g id="a_node8"><a xlink:href="../../db/d31/classcommands_1_1turtle__commands_1_1_forward_command.html" target="_top" xlink:title="commands.turtle_commands.\lForwardCommand">
<polygon fill="white" stroke="black" points="400.5,-1176 400.5,-1206 561.5,-1206 561.5,-1176 400.5,-1176"/>
<text text-anchor="start" x="408.5" y="-1194" font-family="Helvetica,sans-Serif" font-size="10.00">commands.turtle_commands.</text>
<text text-anchor="middle" x="481" y="-1183" font-family="Helvetica,sans-Serif" font-size="10.00">ForwardCommand</text>
</a>
</g>
</g>
<!-- Node1&#45;&gt;Node8 -->
<g id="edge7" class="edge"><title>Node1&#45;&gt;Node8</title>
<path fill="none" stroke="midnightblue" d="M292.132,-750.48C303.007,-835.007 341.68,-1104.3 400,-1166 403.598,-1169.81 407.767,-1173.04 412.274,-1175.78"/>
<polygon fill="midnightblue" stroke="midnightblue" points="295.592,-749.943 290.863,-740.462 288.648,-750.823 295.592,-749.943"/>
</g>
<!-- Node9 -->
<g id="node9" class="node"><title>Node9</title>
<g id="a_node9"><a xlink:href="../../d9/db0/classcommands_1_1turtle__commands_1_1_get_shape_command.html" target="_top" xlink:title="commands.turtle_commands.\lGetShapeCommand">
<polygon fill="white" stroke="black" points="400.5,-1127 400.5,-1157 561.5,-1157 561.5,-1127 400.5,-1127"/>
<text text-anchor="start" x="408.5" y="-1145" font-family="Helvetica,sans-Serif" font-size="10.00">commands.turtle_commands.</text>
<text text-anchor="middle" x="481" y="-1134" font-family="Helvetica,sans-Serif" font-size="10.00">GetShapeCommand</text>
</a>
</g>
</g>
<!-- Node1&#45;&gt;Node9 -->
<g id="edge8" class="edge"><title>Node1&#45;&gt;Node9</title>
<path fill="none" stroke="midnightblue" d="M288.419,-750.603C288.289,-819.703 297.651,-1011.86 400,-1117 403.755,-1120.86 408.096,-1124.12 412.775,-1126.89"/>
<polygon fill="midnightblue" stroke="midnightblue" points="291.922,-750.275 288.515,-740.243 284.923,-750.21 291.922,-750.275"/>
</g>
<!-- Node10 -->
<g id="node10" class="node"><title>Node10</title>
<g id="a_node10"><a xlink:href="../../da/d19/classcommands_1_1turtle__commands_1_1_heading_query.html" target="_top" xlink:title="commands.turtle_commands.\lHeadingQuery">
<polygon fill="white" stroke="black" points="400.5,-1078 400.5,-1108 561.5,-1108 561.5,-1078 400.5,-1078"/>
<text text-anchor="start" x="408.5" y="-1096" font-family="Helvetica,sans-Serif" font-size="10.00">commands.turtle_commands.</text>
<text text-anchor="middle" x="481" y="-1085" font-family="Helvetica,sans-Serif" font-size="10.00">HeadingQuery</text>
</a>
</g>
</g>
<!-- Node1&#45;&gt;Node10 -->
<g id="edge9" class="edge"><title>Node1&#45;&gt;Node10</title>
<path fill="none" stroke="midnightblue" d="M289.637,-750.368C292.613,-813.316 309.155,-978.068 400,-1068 403.93,-1071.89 408.455,-1075.18 413.314,-1077.95"/>
<polygon fill="midnightblue" stroke="midnightblue" points="293.126,-750.023 289.234,-740.169 286.132,-750.299 293.126,-750.023"/>
</g>
<!-- Node11 -->
<g id="node11" class="node"><title>Node11</title>
<g id="a_node11"><a xlink:href="../../d6/d23/classcommands_1_1turtle__commands_1_1_hide_turtle_command.html" target="_top" xlink:title="commands.turtle_commands.\lHideTurtleCommand">
<polygon fill="white" stroke="black" points="400.5,-1029 400.5,-1059 561.5,-1059 561.5,-1029 400.5,-1029"/>
<text text-anchor="start" x="408.5" y="-1047" font-family="Helvetica,sans-Serif" font-size="10.00">commands.turtle_commands.</text>
<text text-anchor="middle" x="481" y="-1036" font-family="Helvetica,sans-Serif" font-size="10.00">HideTurtleCommand</text>
</a>
</g>
</g>
<!-- Node1&#45;&gt;Node11 -->
<g id="edge10" class="edge"><title>Node1&#45;&gt;Node11</title>
<path fill="none" stroke="midnightblue" d="M291.203,-750.168C297.492,-806.581 320.571,-944.059 400,-1019 404.128,-1022.89 408.854,-1026.18 413.902,-1028.96"/>
<polygon fill="midnightblue" stroke="midnightblue" points="294.662,-749.598 290.157,-740.009 287.699,-750.315 294.662,-749.598"/>
</g>
<!-- Node12 -->
<g id="node12" class="node"><title>Node12</title>
<g id="a_node12"><a xlink:href="../../dd/dfb/classcommands_1_1turtle__commands_1_1_home_command.html" target="_top" xlink:title="commands.turtle_commands.\lHomeCommand">
<polygon fill="white" stroke="black" points="400.5,-980 400.5,-1010 561.5,-1010 561.5,-980 400.5,-980"/>
<text text-anchor="start" x="408.5" y="-998" font-family="Helvetica,sans-Serif" font-size="10.00">commands.turtle_commands.</text>
<text text-anchor="middle" x="481" y="-987" font-family="Helvetica,sans-Serif" font-size="10.00">HomeCommand</text>
</a>
</g>
</g>
<!-- Node1&#45;&gt;Node12 -->
<g id="edge11" class="edge"><title>Node1&#45;&gt;Node12</title>
<path fill="none" stroke="midnightblue" d="M293.329,-750.045C303.175,-799.424 331.892,-909.763 400,-970 404.36,-973.856 409.311,-977.117 414.561,-979.876"/>
<polygon fill="midnightblue" stroke="midnightblue" points="296.764,-749.374 291.458,-740.204 289.887,-750.682 296.764,-749.374"/>
</g>
<!-- Node13 -->
<g id="node13" class="node"><title>Node13</title>
<g id="a_node13"><a xlink:href="../../df/d62/classcommands_1_1turtle__commands_1_1_id_command.html" target="_top" xlink:title="commands.turtle_commands.\lIdCommand">
<polygon fill="white" stroke="black" points="400.5,-931 400.5,-961 561.5,-961 561.5,-931 400.5,-931"/>
<text text-anchor="start" x="408.5" y="-949" font-family="Helvetica,sans-Serif" font-size="10.00">commands.turtle_commands.</text>
<text text-anchor="middle" x="481" y="-938" font-family="Helvetica,sans-Serif" font-size="10.00">IdCommand</text>
</a>
</g>
</g>
<!-- Node1&#45;&gt;Node13 -->
<g id="edge12" class="edge"><title>Node1&#45;&gt;Node13</title>
<path fill="none" stroke="midnightblue" d="M296.313,-749.629C309.888,-791.118 342.918,-874.916 400,-921 404.755,-924.839 410.104,-928.091 415.722,-930.846"/>
<polygon fill="midnightblue" stroke="midnightblue" points="299.633,-748.519 293.278,-740.041 292.959,-750.631 299.633,-748.519"/>
</g>
<!-- Node14 -->
<g id="node14" class="node"><title>Node14</title>
<g id="a_node14"><a xlink:href="../../d4/dfe/classcommands_1_1turtle__commands_1_1_is_showing_query.html" target="_top" xlink:title="commands.turtle_commands.\lIsShowingQuery">
<polygon fill="white" stroke="black" points="400.5,-882 400.5,-912 561.5,-912 561.5,-882 400.5,-882"/>
<text text-anchor="start" x="408.5" y="-900" font-family="Helvetica,sans-Serif" font-size="10.00">commands.turtle_commands.</text>
<text text-anchor="middle" x="481" y="-889" font-family="Helvetica,sans-Serif" font-size="10.00">IsShowingQuery</text>
</a>
</g>
</g>
<!-- Node1&#45;&gt;Node14 -->
<g id="edge13" class="edge"><title>Node1&#45;&gt;Node14</title>
<path fill="none" stroke="midnightblue" d="M301.092,-749.285C318.544,-781.896 353.83,-839.492 400,-872 405.473,-875.854 411.562,-879.129 417.869,-881.911"/>
<polygon fill="midnightblue" stroke="midnightblue" points="304.186,-747.647 296.452,-740.406 297.982,-750.889 304.186,-747.647"/>
</g>
<!-- Node15 -->
<g id="node15" class="node"><title>Node15</title>
<g id="a_node15"><a xlink:href="../../d6/d55/classcommands_1_1turtle__commands_1_1_left_command.html" target="_top" xlink:title="commands.turtle_commands.\lLeftCommand">
<polygon fill="white" stroke="black" points="400.5,-833 400.5,-863 561.5,-863 561.5,-833 400.5,-833"/>
<text text-anchor="start" x="408.5" y="-851" font-family="Helvetica,sans-Serif" font-size="10.00">commands.turtle_commands.</text>
<text text-anchor="middle" x="481" y="-840" font-family="Helvetica,sans-Serif" font-size="10.00">LeftCommand</text>
</a>
</g>
</g>
<!-- Node1&#45;&gt;Node15 -->
<g id="edge14" class="edge"><title>Node1&#45;&gt;Node15</title>
<path fill="none" stroke="midnightblue" d="M309.229,-747.73C330.013,-769.817 364.295,-802.883 400,-823 406.719,-826.786 414.085,-830.075 421.542,-832.912"/>
<polygon fill="midnightblue" stroke="midnightblue" points="311.564,-745.1 302.205,-740.134 306.424,-749.852 311.564,-745.1"/>
</g>
<!-- Node16 -->
<g id="node16" class="node"><title>Node16</title>
<g id="a_node16"><a xlink:href="../../d1/d15/classcommands_1_1turtle__commands_1_1_pen_color_command.html" target="_top" xlink:title="commands.turtle_commands.\lPenColorCommand">
<polygon fill="white" stroke="black" points="400.5,-784 400.5,-814 561.5,-814 561.5,-784 400.5,-784"/>
<text text-anchor="start" x="408.5" y="-802" font-family="Helvetica,sans-Serif" font-size="10.00">commands.turtle_commands.</text>
<text text-anchor="middle" x="481" y="-791" font-family="Helvetica,sans-Serif" font-size="10.00">PenColorCommand</text>
</a>
</g>
</g>
<!-- Node1&#45;&gt;Node16 -->
<g id="edge15" class="edge"><title>Node1&#45;&gt;Node16</title>
<path fill="none" stroke="midnightblue" d="M329.831,-744.347C350.609,-753.852 376.401,-765.136 400,-774 409.263,-777.479 419.25,-780.874 428.922,-783.984"/>
<polygon fill="midnightblue" stroke="midnightblue" points="331.211,-741.128 320.664,-740.12 328.28,-747.485 331.211,-741.128"/>
</g>
<!-- Node17 -->
<g id="node17" class="node"><title>Node17</title>
<g id="a_node17"><a xlink:href="../../d6/dad/classcommands_1_1turtle__commands_1_1_pen_down_command.html" target="_top" xlink:title="commands.turtle_commands.\lPenDownCommand">
<polygon fill="white" stroke="black" points="400.5,-735 400.5,-765 561.5,-765 561.5,-735 400.5,-735"/>
<text text-anchor="start" x="408.5" y="-753" font-family="Helvetica,sans-Serif" font-size="10.00">commands.turtle_commands.</text>
<text text-anchor="middle" x="481" y="-742" font-family="Helvetica,sans-Serif" font-size="10.00">PenDownCommand</text>
</a>
</g>
</g>
<!-- Node1&#45;&gt;Node17 -->
<g id="edge16" class="edge"><title>Node1&#45;&gt;Node17</title>
<path fill="none" stroke="midnightblue" d="M373.624,-736.076C382.506,-737.239 391.515,-738.418 400.339,-739.573"/>
<polygon fill="midnightblue" stroke="midnightblue" points="374.036,-732.601 363.666,-734.773 373.127,-739.541 374.036,-732.601"/>
</g>
<!-- Node18 -->
<g id="node18" class="node"><title>Node18</title>
<g id="a_node18"><a xlink:href="../../dd/def/classcommands_1_1turtle__commands_1_1_pen_down_query.html" target="_top" xlink:title="commands.turtle_commands.\lPenDownQuery">
<polygon fill="white" stroke="black" points="400.5,-686 400.5,-716 561.5,-716 561.5,-686 400.5,-686"/>
<text text-anchor="start" x="408.5" y="-704" font-family="Helvetica,sans-Serif" font-size="10.00">commands.turtle_commands.</text>
<text text-anchor="middle" x="481" y="-693" font-family="Helvetica,sans-Serif" font-size="10.00">PenDownQuery</text>
</a>
</g>
</g>
<!-- Node1&#45;&gt;Node18 -->
<g id="edge17" class="edge"><title>Node1&#45;&gt;Node18</title>
<path fill="none" stroke="midnightblue" d="M373.624,-714.367C382.506,-713.251 391.515,-712.118 400.339,-711.01"/>
<polygon fill="midnightblue" stroke="midnightblue" points="373.152,-710.898 363.666,-715.618 374.025,-717.844 373.152,-710.898"/>
</g>
<!-- Node19 -->
<g id="node19" class="node"><title>Node19</title>
<g id="a_node19"><a xlink:href="../../d2/dd0/classcommands_1_1turtle__commands_1_1_pen_up_command.html" target="_top" xlink:title="commands.turtle_commands.\lPenUpCommand">
<polygon fill="white" stroke="black" points="400.5,-637 400.5,-667 561.5,-667 561.5,-637 400.5,-637"/>
<text text-anchor="start" x="408.5" y="-655" font-family="Helvetica,sans-Serif" font-size="10.00">commands.turtle_commands.</text>
<text text-anchor="middle" x="481" y="-644" font-family="Helvetica,sans-Serif" font-size="10.00">PenUpCommand</text>
</a>
</g>
</g>
<!-- Node1&#45;&gt;Node19 -->
<g id="edge18" class="edge"><title>Node1&#45;&gt;Node19</title>
<path fill="none" stroke="midnightblue" d="M329.789,-705.539C350.555,-696.005 376.351,-684.729 400,-676 408.434,-672.887 417.475,-669.874 426.335,-667.096"/>
<polygon fill="midnightblue" stroke="midnightblue" points="328.23,-702.403 320.627,-709.781 331.172,-708.755 328.23,-702.403"/>
</g>
<!-- Node20 -->
<g id="node20" class="node"><title>Node20</title>
<g id="a_node20"><a xlink:href="../../db/dad/classcommands_1_1turtle__commands_1_1_right_command.html" target="_top" xlink:title="commands.turtle_commands.\lRightCommand">
<polygon fill="white" stroke="black" points="400.5,-588 400.5,-618 561.5,-618 561.5,-588 400.5,-588"/>
<text text-anchor="start" x="408.5" y="-606" font-family="Helvetica,sans-Serif" font-size="10.00">commands.turtle_commands.</text>
<text text-anchor="middle" x="481" y="-595" font-family="Helvetica,sans-Serif" font-size="10.00">RightCommand</text>
</a>
</g>
</g>
<!-- Node1&#45;&gt;Node20 -->
<g id="edge19" class="edge"><title>Node1&#45;&gt;Node20</title>
<path fill="none" stroke="midnightblue" d="M309.18,-702.183C329.927,-680.029 364.18,-646.912 400,-627 406.083,-623.618 412.698,-620.661 419.431,-618.088"/>
<polygon fill="midnightblue" stroke="midnightblue" points="306.364,-700.074 302.17,-709.804 311.516,-704.813 306.364,-700.074"/>
</g>
<!-- Node21 -->
<g id="node21" class="node"><title>Node21</title>
<g id="a_node21"><a xlink:href="../../de/d5b/classcommands_1_1turtle__commands_1_1_set_heading_command.html" target="_top" xlink:title="commands.turtle_commands.\lSetHeadingCommand">
<polygon fill="white" stroke="black" points="400.5,-539 400.5,-569 561.5,-569 561.5,-539 400.5,-539"/>
<text text-anchor="start" x="408.5" y="-557" font-family="Helvetica,sans-Serif" font-size="10.00">commands.turtle_commands.</text>
<text text-anchor="middle" x="481" y="-546" font-family="Helvetica,sans-Serif" font-size="10.00">SetHeadingCommand</text>
</a>
</g>
</g>
<!-- Node1&#45;&gt;Node21 -->
<g id="edge20" class="edge"><title>Node1&#45;&gt;Node21</title>
<path fill="none" stroke="midnightblue" d="M301.039,-700.639C318.429,-667.94 353.645,-610.243 400,-578 404.881,-574.605 410.25,-571.682 415.826,-569.167"/>
<polygon fill="midnightblue" stroke="midnightblue" points="297.918,-699.055 296.416,-709.543 304.13,-702.281 297.918,-699.055"/>
</g>
<!-- Node22 -->
<g id="node22" class="node"><title>Node22</title>
<g id="a_node22"><a xlink:href="../../da/d6b/classcommands_1_1turtle__commands_1_1_set_pen_color.html" target="_top" xlink:title="commands.turtle_commands.\lSetPenColor">
<polygon fill="white" stroke="black" points="400.5,-490 400.5,-520 561.5,-520 561.5,-490 400.5,-490"/>
<text text-anchor="start" x="408.5" y="-508" font-family="Helvetica,sans-Serif" font-size="10.00">commands.turtle_commands.</text>
<text text-anchor="middle" x="481" y="-497" font-family="Helvetica,sans-Serif" font-size="10.00">SetPenColor</text>
</a>
</g>
</g>
<!-- Node1&#45;&gt;Node22 -->
<g id="edge21" class="edge"><title>Node1&#45;&gt;Node22</title>
<path fill="none" stroke="midnightblue" d="M296.257,-700.301C309.748,-658.707 342.656,-574.757 400,-529 404.307,-525.563 409.098,-522.618 414.135,-520.094"/>
<polygon fill="midnightblue" stroke="midnightblue" points="292.895,-699.325 293.242,-709.914 299.574,-701.419 292.895,-699.325"/>
</g>
<!-- Node23 -->
<g id="node23" class="node"><title>Node23</title>
<g id="a_node23"><a xlink:href="../../d2/df1/classcommands_1_1turtle__commands_1_1_set_position_command.html" target="_top" xlink:title="commands.turtle_commands.\lSetPositionCommand">
<polygon fill="white" stroke="black" points="400.5,-441 400.5,-471 561.5,-471 561.5,-441 400.5,-441"/>
<text text-anchor="start" x="408.5" y="-459" font-family="Helvetica,sans-Serif" font-size="10.00">commands.turtle_commands.</text>
<text text-anchor="middle" x="481" y="-448" font-family="Helvetica,sans-Serif" font-size="10.00">SetPositionCommand</text>
</a>
</g>
</g>
<!-- Node1&#45;&gt;Node23 -->
<g id="edge22" class="edge"><title>Node1&#45;&gt;Node23</title>
<path fill="none" stroke="midnightblue" d="M293.27,-699.888C303.011,-650.389 331.549,-539.847 400,-480 403.93,-476.564 408.337,-473.62 413.008,-471.097"/>
<polygon fill="midnightblue" stroke="midnightblue" points="289.823,-699.28 291.421,-709.754 296.703,-700.569 289.823,-699.28"/>
</g>
<!-- Node24 -->
<g id="node24" class="node"><title>Node24</title>
<g id="a_node24"><a xlink:href="../../d9/ded/classcommands_1_1turtle__commands_1_1_set_shape_command.html" target="_top" xlink:title="commands.turtle_commands.\lSetShapeCommand">
<polygon fill="white" stroke="black" points="400.5,-392 400.5,-422 561.5,-422 561.5,-392 400.5,-392"/>
<text text-anchor="start" x="408.5" y="-410" font-family="Helvetica,sans-Serif" font-size="10.00">commands.turtle_commands.</text>
<text text-anchor="middle" x="481" y="-399" font-family="Helvetica,sans-Serif" font-size="10.00">SetShapeCommand</text>
</a>
</g>
</g>
<!-- Node1&#45;&gt;Node24 -->
<g id="edge23" class="edge"><title>Node1&#45;&gt;Node24</title>
<path fill="none" stroke="midnightblue" d="M291.142,-699.767C297.306,-643.221 320.145,-505.486 400,-431 403.711,-427.538 407.903,-424.574 412.375,-422.037"/>
<polygon fill="midnightblue" stroke="midnightblue" points="287.636,-699.651 290.119,-709.951 294.601,-700.351 287.636,-699.651"/>
</g>
<!-- Node25 -->
<g id="node25" class="node"><title>Node25</title>
<g id="a_node25"><a xlink:href="../../d7/d3f/classcommands_1_1turtle__commands_1_1_set_stroke_size.html" target="_top" xlink:title="commands.turtle_commands.\lSetStrokeSize">
<polygon fill="white" stroke="black" points="400.5,-343 400.5,-373 561.5,-373 561.5,-343 400.5,-343"/>
<text text-anchor="start" x="408.5" y="-361" font-family="Helvetica,sans-Serif" font-size="10.00">commands.turtle_commands.</text>
<text text-anchor="middle" x="481" y="-350" font-family="Helvetica,sans-Serif" font-size="10.00">SetStrokeSize</text>
</a>
</g>
</g>
<!-- Node1&#45;&gt;Node25 -->
<g id="edge24" class="edge"><title>Node1&#45;&gt;Node25</title>
<path fill="none" stroke="midnightblue" d="M289.574,-699.568C292.405,-636.473 308.643,-471.412 400,-382 403.523,-378.552 407.522,-375.596 411.808,-373.063"/>
<polygon fill="midnightblue" stroke="midnightblue" points="286.068,-699.669 289.196,-709.791 293.063,-699.928 286.068,-699.669"/>
</g>
<!-- Node26 -->
<g id="node26" class="node"><title>Node26</title>
<g id="a_node26"><a xlink:href="../../d7/dda/classcommands_1_1turtle__commands_1_1_show_turtle_command.html" target="_top" xlink:title="commands.turtle_commands.\lShowTurtleCommand">
<polygon fill="white" stroke="black" points="400.5,-294 400.5,-324 561.5,-324 561.5,-294 400.5,-294"/>
<text text-anchor="start" x="408.5" y="-312" font-family="Helvetica,sans-Serif" font-size="10.00">commands.turtle_commands.</text>
<text text-anchor="middle" x="481" y="-301" font-family="Helvetica,sans-Serif" font-size="10.00">ShowTurtleCommand</text>
</a>
</g>
</g>
<!-- Node1&#45;&gt;Node26 -->
<g id="edge25" class="edge"><title>Node1&#45;&gt;Node26</title>
<path fill="none" stroke="midnightblue" d="M288.355,-699.334C288.062,-630.075 297.052,-437.558 400,-333 403.357,-329.59 407.178,-326.661 411.288,-324.144"/>
<polygon fill="midnightblue" stroke="midnightblue" points="284.859,-699.76 288.475,-709.718 291.859,-699.678 284.859,-699.76"/>
</g>
<!-- Node27 -->
<g id="node27" class="node"><title>Node27</title>
<g id="a_node27"><a xlink:href="../../d2/dd3/classcommands_1_1turtle__commands_1_1_stamp_command.html" target="_top" xlink:title="commands.turtle_commands.\lStampCommand">
<polygon fill="white" stroke="black" points="400.5,-245 400.5,-275 561.5,-275 561.5,-245 400.5,-245"/>
<text text-anchor="start" x="408.5" y="-263" font-family="Helvetica,sans-Serif" font-size="10.00">commands.turtle_commands.</text>
<text text-anchor="middle" x="481" y="-252" font-family="Helvetica,sans-Serif" font-size="10.00">StampCommand</text>
</a>
</g>
</g>
<!-- Node1&#45;&gt;Node27 -->
<g id="edge26" class="edge"><title>Node1&#45;&gt;Node27</title>
<path fill="none" stroke="midnightblue" d="M292.034,-700.057C302.724,-616.087 341.198,-345.502 400,-284 403.307,-280.541 407.09,-277.576 411.173,-275.033"/>
<polygon fill="midnightblue" stroke="midnightblue" points="288.56,-699.633 290.789,-709.99 295.505,-700.503 288.56,-699.633"/>
</g>
<!-- Node28 -->
<g id="node28" class="node"><title>Node28</title>
<g id="a_node28"><a xlink:href="../../d1/d00/classcommands_1_1turtle__commands_1_1_tell_command.html" target="_top" xlink:title="commands.turtle_commands.\lTellCommand">
<polygon fill="white" stroke="black" points="400.5,-196 400.5,-226 561.5,-226 561.5,-196 400.5,-196"/>
<text text-anchor="start" x="408.5" y="-214" font-family="Helvetica,sans-Serif" font-size="10.00">commands.turtle_commands.</text>
<text text-anchor="middle" x="481" y="-203" font-family="Helvetica,sans-Serif" font-size="10.00">TellCommand</text>
</a>
</g>
</g>
<!-- Node1&#45;&gt;Node28 -->
<g id="edge27" class="edge"><title>Node1&#45;&gt;Node28</title>
<path fill="none" stroke="midnightblue" d="M291.393,-699.705C300.428,-609.362 335.289,-304.316 400,-235 403.166,-231.608 406.791,-228.689 410.711,-226.178"/>
<polygon fill="midnightblue" stroke="midnightblue" points="287.89,-699.562 290.397,-709.856 294.857,-700.246 287.89,-699.562"/>
</g>
<!-- Node29 -->
<g id="node29" class="node"><title>Node29</title>
<g id="a_node29"><a xlink:href="../../db/d90/classcommands_1_1turtle__commands_1_1_towards_command.html" target="_top" xlink:title="commands.turtle_commands.\lTowardsCommand">
<polygon fill="white" stroke="black" points="400.5,-147 400.5,-177 561.5,-177 561.5,-147 400.5,-147"/>
<text text-anchor="start" x="408.5" y="-165" font-family="Helvetica,sans-Serif" font-size="10.00">commands.turtle_commands.</text>
<text text-anchor="middle" x="481" y="-154" font-family="Helvetica,sans-Serif" font-size="10.00">TowardsCommand</text>
</a>
</g>
</g>
<!-- Node1&#45;&gt;Node29 -->
<g id="edge28" class="edge"><title>Node1&#45;&gt;Node29</title>
<path fill="none" stroke="midnightblue" d="M290.827,-699.73C298.26,-603.743 329.262,-263.281 400,-186 403.133,-182.577 406.733,-179.635 410.634,-177.107"/>
<polygon fill="midnightblue" stroke="midnightblue" points="287.318,-699.714 290.054,-709.95 294.298,-700.242 287.318,-699.714"/>
</g>
<!-- Node30 -->
<g id="node30" class="node"><title>Node30</title>
<g id="a_node30"><a xlink:href="../../d4/da8/classcommands_1_1turtle__commands_1_1_turtles_command.html" target="_top" xlink:title="commands.turtle_commands.\lTurtlesCommand">
<polygon fill="white" stroke="black" points="400.5,-98 400.5,-128 561.5,-128 561.5,-98 400.5,-98"/>
<text text-anchor="start" x="408.5" y="-116" font-family="Helvetica,sans-Serif" font-size="10.00">commands.turtle_commands.</text>
<text text-anchor="middle" x="481" y="-105" font-family="Helvetica,sans-Serif" font-size="10.00">TurtlesCommand</text>
</a>
</g>
</g>
<!-- Node1&#45;&gt;Node30 -->
<g id="edge29" class="edge"><title>Node1&#45;&gt;Node30</title>
<path fill="none" stroke="midnightblue" d="M290.353,-699.771C296.283,-598.424 323.206,-222.302 400,-137 403.105,-133.551 406.683,-130.59 410.568,-128.048"/>
<polygon fill="midnightblue" stroke="midnightblue" points="286.846,-699.798 289.773,-709.98 293.834,-700.195 286.846,-699.798"/>
</g>
<!-- Node31 -->
<g id="node31" class="node"><title>Node31</title>
<g id="a_node31"><a xlink:href="../../d8/dcb/classcommands_1_1turtle__commands_1_1_x_cor_query.html" target="_top" xlink:title="commands.turtle_commands.\lXCorQuery">
<polygon fill="white" stroke="black" points="400.5,-49 400.5,-79 561.5,-79 561.5,-49 400.5,-49"/>
<text text-anchor="start" x="408.5" y="-67" font-family="Helvetica,sans-Serif" font-size="10.00">commands.turtle_commands.</text>
<text text-anchor="middle" x="481" y="-56" font-family="Helvetica,sans-Serif" font-size="10.00">XCorQuery</text>
</a>
</g>
</g>
<!-- Node1&#45;&gt;Node31 -->
<g id="edge30" class="edge"><title>Node1&#45;&gt;Node31</title>
<path fill="none" stroke="midnightblue" d="M289.953,-699.757C294.477,-593.194 317.142,-181.349 400,-88 402.984,-84.6382 406.418,-81.7386 410.15,-79.2387"/>
<polygon fill="midnightblue" stroke="midnightblue" points="286.45,-699.761 289.539,-709.896 293.444,-700.047 286.45,-699.761"/>
</g>
<!-- Node32 -->
<g id="node32" class="node"><title>Node32</title>
<g id="a_node32"><a xlink:href="../../d0/d94/classcommands_1_1turtle__commands_1_1_y_cor_query.html" target="_top" xlink:title="commands.turtle_commands.\lYCorQuery">
<polygon fill="white" stroke="black" points="400.5,-0 400.5,-30 561.5,-30 561.5,-0 400.5,-0"/>
<text text-anchor="start" x="408.5" y="-18" font-family="Helvetica,sans-Serif" font-size="10.00">commands.turtle_commands.</text>
<text text-anchor="middle" x="481" y="-7" font-family="Helvetica,sans-Serif" font-size="10.00">YCorQuery</text>
</a>
</g>
</g>
<!-- Node1&#45;&gt;Node32 -->
<g id="edge31" class="edge"><title>Node1&#45;&gt;Node32</title>
<path fill="none" stroke="midnightblue" d="M289.612,-699.647C292.814,-587.903 311.084,-140.403 400,-39 402.964,-35.6202 406.383,-32.707 410.103,-30.1969"/>
<polygon fill="midnightblue" stroke="midnightblue" points="286.105,-699.854 289.333,-709.945 293.103,-700.043 286.105,-699.854"/>
</g>
<!-- Node2 -->
<g id="node2" class="node"><title>Node2</title>
<g id="a_node2"><a xlink:href="../../d5/d62/classcommands_1_1templates_1_1_command.html" target="_top" xlink:title="commands.templates.Command">
<polygon fill="white" stroke="black" points="0,-715.5 0,-734.5 176,-734.5 176,-715.5 0,-715.5"/>
<text text-anchor="middle" x="88" y="-722.5" font-family="Helvetica,sans-Serif" font-size="10.00">commands.templates.Command</text>
</a>
</g>
</g>
<!-- Node2&#45;&gt;Node1 -->
<g id="edge1" class="edge"><title>Node2&#45;&gt;Node1</title>
<path fill="none" stroke="midnightblue" d="M186.329,-725C195.034,-725 203.756,-725 212.226,-725"/>
<polygon fill="midnightblue" stroke="midnightblue" points="186.134,-721.5 176.134,-725 186.134,-728.5 186.134,-721.5"/>
</g>
</g>
</svg>
