<?xml version="1.0" encoding="UTF-8" standalone="no"?>
<!DOCTYPE svg PUBLIC "-//W3C//DTD SVG 1.1//EN"
 "http://www.w3.org/Graphics/SVG/1.1/DTD/svg11.dtd">
<!-- Generated by graphviz version 2.36.0 (20140111.2315)
 -->
<!-- Title: commands.turtle_commands.GetShapeCommand.execute Pages: 1 -->
<svg width="668pt" height="182pt"
 viewBox="0.00 0.00 668.00 182.00" xmlns="http://www.w3.org/2000/svg" xmlns:xlink="http://www.w3.org/1999/xlink">
<g id="graph0" class="graph" transform="scale(1 1) rotate(0) translate(4 178)">
<title>commands.turtle_commands.GetShapeCommand.execute</title>
<polygon fill="white" stroke="none" points="-4,4 -4,-178 664,-178 664,4 -4,4"/>
<!-- Node1 -->
<g id="node1" class="node"><title>Node1</title>
<polygon fill="#bfbfbf" stroke="black" points="0.5,-49 0.5,-79 161.5,-79 161.5,-49 0.5,-49"/>
<text text-anchor="start" x="8.5" y="-67" font-family="Helvetica,sans-Serif" font-size="10.00">commands.turtle_commands.</text>
<text text-anchor="middle" x="81" y="-56" font-family="Helvetica,sans-Serif" font-size="10.00">GetShapeCommand.execute</text>
</g>
<!-- Node2 -->
<g id="node2" class="node"><title>Node2</title>
<g id="a_node2"><a xlink:href="../../d9/db0/classcommands_1_1turtle__commands_1_1_get_shape_command.html#a59fac561714243680173d868947d9068" target="_top" xlink:title="commands.turtle_commands.\lGetShapeCommand.executeTurtleCommand">
<polygon fill="white" stroke="black" points="198,-98 198,-128 430,-128 430,-98 198,-98"/>
<text text-anchor="start" x="206" y="-116" font-family="Helvetica,sans-Serif" font-size="10.00">commands.turtle_commands.</text>
<text text-anchor="middle" x="314" y="-105" font-family="Helvetica,sans-Serif" font-size="10.00">GetShapeCommand.executeTurtleCommand</text>
</a>
</g>
</g>
<!-- Node1&#45;&gt;Node2 -->
<g id="edge1" class="edge"><title>Node1&#45;&gt;Node2</title>
<path fill="none" stroke="midnightblue" d="M152.877,-79.0346C178.044,-84.373 206.55,-90.4198 232.464,-95.9166"/>
<polygon fill="midnightblue" stroke="midnightblue" points="231.748,-99.3425 242.257,-97.9938 233.201,-92.4949 231.748,-99.3425"/>
</g>
<!-- Node5 -->
<g id="node5" class="node"><title>Node5</title>
<g id="a_node5"><a xlink:href="../../dc/d36/classcommands_1_1templates_1_1_turtle_command.html#ae4d2a640c2db20e624d831deed30484d" target="_top" xlink:title="commands.templates.Turtle\lCommand.getMyTurtleManager">
<polygon fill="white" stroke="black" points="230.5,-49 230.5,-79 397.5,-79 397.5,-49 230.5,-49"/>
<text text-anchor="start" x="238.5" y="-67" font-family="Helvetica,sans-Serif" font-size="10.00">commands.templates.Turtle</text>
<text text-anchor="middle" x="314" y="-56" font-family="Helvetica,sans-Serif" font-size="10.00">Command.getMyTurtleManager</text>
</a>
</g>
</g>
<!-- Node1&#45;&gt;Node5 -->
<g id="edge4" class="edge"><title>Node1&#45;&gt;Node5</title>
<path fill="none" stroke="midnightblue" d="M161.821,-64C180.699,-64 200.988,-64 220.381,-64"/>
<polygon fill="midnightblue" stroke="midnightblue" points="220.428,-67.5001 230.428,-64 220.428,-60.5001 220.428,-67.5001"/>
</g>
<!-- Node7 -->
<g id="node7" class="node"><title>Node7</title>
<g id="a_node7"><a xlink:href="../../d5/d62/classcommands_1_1templates_1_1_command.html#a97358158dd12c0a83a49df3c1e379790" target="_top" xlink:title="commands.templates.Command.get\lValue">
<polygon fill="white" stroke="black" points="217,-0 217,-30 411,-30 411,-0 217,-0"/>
<text text-anchor="start" x="225" y="-18" font-family="Helvetica,sans-Serif" font-size="10.00">commands.templates.Command.get</text>
<text text-anchor="middle" x="314" y="-7" font-family="Helvetica,sans-Serif" font-size="10.00">Value</text>
</a>
</g>
</g>
<!-- Node1&#45;&gt;Node7 -->
<g id="edge6" class="edge"><title>Node1&#45;&gt;Node7</title>
<path fill="none" stroke="midnightblue" d="M151.298,-48.9878C166.67,-45.6791 182.885,-42.2059 198,-39 208.54,-36.7644 219.627,-34.4295 230.587,-32.1314"/>
<polygon fill="midnightblue" stroke="midnightblue" points="231.526,-35.5106 240.597,-30.0352 230.091,-28.6593 231.526,-35.5106"/>
</g>
<!-- Node3 -->
<g id="node3" class="node"><title>Node3</title>
<g id="a_node3"><a xlink:href="../../d4/d07/classback_end_1_1turtle_1_1_turtle_manager.html#abd8e7545c1f29c7714bc7aaf59d3875b" target="_top" xlink:title="backEnd.turtle.TurtleManager.get\lTurtleList">
<polygon fill="white" stroke="black" points="476,-144 476,-174 650,-174 650,-144 476,-144"/>
<text text-anchor="start" x="484" y="-162" font-family="Helvetica,sans-Serif" font-size="10.00">backEnd.turtle.TurtleManager.get</text>
<text text-anchor="middle" x="563" y="-151" font-family="Helvetica,sans-Serif" font-size="10.00">TurtleList</text>
</a>
</g>
</g>
<!-- Node2&#45;&gt;Node3 -->
<g id="edge2" class="edge"><title>Node2&#45;&gt;Node3</title>
<path fill="none" stroke="midnightblue" d="M395.877,-128.062C419.99,-132.553 446.574,-137.504 471.273,-142.104"/>
<polygon fill="midnightblue" stroke="midnightblue" points="470.892,-145.593 481.363,-143.983 472.173,-138.711 470.892,-145.593"/>
</g>
<!-- Node4 -->
<g id="node4" class="node"><title>Node4</title>
<g id="a_node4"><a xlink:href="../../d5/d62/classcommands_1_1templates_1_1_command.html#a632193b631b368f6ffbc514865f062e5" target="_top" xlink:title="commands.templates.Command.set\lValue">
<polygon fill="white" stroke="black" points="466,-95 466,-125 660,-125 660,-95 466,-95"/>
<text text-anchor="start" x="474" y="-113" font-family="Helvetica,sans-Serif" font-size="10.00">commands.templates.Command.set</text>
<text text-anchor="middle" x="563" y="-102" font-family="Helvetica,sans-Serif" font-size="10.00">Value</text>
</a>
</g>
</g>
<!-- Node2&#45;&gt;Node4 -->
<g id="edge3" class="edge"><title>Node2&#45;&gt;Node4</title>
<path fill="none" stroke="midnightblue" d="M430.184,-111.601C438.678,-111.498 447.225,-111.394 455.663,-111.292"/>
<polygon fill="midnightblue" stroke="midnightblue" points="455.934,-114.789 465.891,-111.167 455.849,-107.789 455.934,-114.789"/>
</g>
<!-- Node6 -->
<g id="node6" class="node"><title>Node6</title>
<g id="a_node6"><a xlink:href="../../d9/d98/classback_end_1_1_model.html#a1f54b1acaee5f2f608376ce454fa82f2" target="_top" xlink:title="backEnd.Model.getTurtleManager">
<polygon fill="white" stroke="black" points="475.5,-54.5 475.5,-73.5 650.5,-73.5 650.5,-54.5 475.5,-54.5"/>
<text text-anchor="middle" x="563" y="-61.5" font-family="Helvetica,sans-Serif" font-size="10.00">backEnd.Model.getTurtleManager</text>
</a>
</g>
</g>
<!-- Node5&#45;&gt;Node6 -->
<g id="edge5" class="edge"><title>Node5&#45;&gt;Node6</title>
<path fill="none" stroke="midnightblue" d="M397.591,-64C419.239,-64 442.777,-64 465.099,-64"/>
<polygon fill="midnightblue" stroke="midnightblue" points="465.258,-67.5001 475.258,-64 465.258,-60.5001 465.258,-67.5001"/>
</g>
</g>
</svg>
