<?xml version="1.0" encoding="UTF-8" standalone="no"?>
<!DOCTYPE svg PUBLIC "-//W3C//DTD SVG 1.1//EN"
 "http://www.w3.org/Graphics/SVG/1.1/DTD/svg11.dtd">
<!-- Generated by graphviz version 2.36.0 (20140111.2315)
 -->
<!-- Title: main.MasterWindow.setKeyListener Pages: 1 -->
<svg width="1140pt" height="77pt"
 viewBox="0.00 0.00 1140.00 77.00" xmlns="http://www.w3.org/2000/svg" xmlns:xlink="http://www.w3.org/1999/xlink">
<g id="graph0" class="graph" transform="scale(1 1) rotate(0) translate(4 73)">
<title>main.MasterWindow.setKeyListener</title>
<polygon fill="white" stroke="none" points="-4,4 -4,-73 1136,-73 1136,4 -4,4"/>
<!-- Node1 -->
<g id="node1" class="node"><title>Node1</title>
<polygon fill="#bfbfbf" stroke="black" points="0,-17 0,-47 146,-47 146,-17 0,-17"/>
<text text-anchor="start" x="8" y="-35" font-family="Helvetica,sans-Serif" font-size="10.00">main.MasterWindow.setKey</text>
<text text-anchor="middle" x="73" y="-24" font-family="Helvetica,sans-Serif" font-size="10.00">Listener</text>
</g>
<!-- Node2 -->
<g id="node2" class="node"><title>Node2</title>
<g id="a_node2"><a xlink:href="../../d7/d6c/classmain_1_1_master_window.html#afa6d7e233487e201b5da782358fd522f" target="_top" xlink:title="main.MasterWindow.buildWorkspace">
<polygon fill="white" stroke="black" points="392,-22.5 392,-41.5 580,-41.5 580,-22.5 392,-22.5"/>
<text text-anchor="middle" x="486" y="-29.5" font-family="Helvetica,sans-Serif" font-size="10.00">main.MasterWindow.buildWorkspace</text>
</a>
</g>
</g>
<!-- Node1&#45;&gt;Node2 -->
<g id="edge1" class="edge"><title>Node1&#45;&gt;Node2</title>
<path fill="none" stroke="midnightblue" d="M156.3,-32C224.299,-32 320.826,-32 391.689,-32"/>
<polygon fill="midnightblue" stroke="midnightblue" points="156.061,-28.5001 146.061,-32 156.061,-35.5001 156.061,-28.5001"/>
</g>
<!-- Node7 -->
<g id="node7" class="node"><title>Node7</title>
<g id="a_node7"><a xlink:href="../../d7/d6c/classmain_1_1_master_window.html#abee1c5dad0269124eb93728730b4b3a8" target="_top" xlink:title="main.MasterWindow.tabChanged">
<polygon fill="white" stroke="black" points="182.5,-3.5 182.5,-22.5 355.5,-22.5 355.5,-3.5 182.5,-3.5"/>
<text text-anchor="middle" x="269" y="-10.5" font-family="Helvetica,sans-Serif" font-size="10.00">main.MasterWindow.tabChanged</text>
</a>
</g>
</g>
<!-- Node1&#45;&gt;Node7 -->
<g id="edge6" class="edge"><title>Node1&#45;&gt;Node7</title>
<path fill="none" stroke="midnightblue" d="M156.252,-23.9443C164.859,-23.1014 173.625,-22.2429 182.269,-21.3963"/>
<polygon fill="midnightblue" stroke="midnightblue" points="155.85,-20.467 146.238,-24.9251 156.532,-27.4336 155.85,-20.467"/>
</g>
<!-- Node3 -->
<g id="node3" class="node"><title>Node3</title>
<g id="a_node3"><a xlink:href="../../de/d44/classmain_1_1_master_menu_bar.html#a05672abefed58f8f5e4a3704fca7f4e5" target="_top" xlink:title="main.MasterMenuBar.build\lNewWorkspaceMenuItem">
<polygon fill="white" stroke="black" points="616,-39 616,-69 760,-69 760,-39 616,-39"/>
<text text-anchor="start" x="624" y="-57" font-family="Helvetica,sans-Serif" font-size="10.00">main.MasterMenuBar.build</text>
<text text-anchor="middle" x="688" y="-46" font-family="Helvetica,sans-Serif" font-size="10.00">NewWorkspaceMenuItem</text>
</a>
</g>
</g>
<!-- Node2&#45;&gt;Node3 -->
<g id="edge2" class="edge"><title>Node2&#45;&gt;Node3</title>
<path fill="none" stroke="midnightblue" d="M583.552,-42.6207C594.465,-43.8212 605.433,-45.0276 615.935,-46.1829"/>
<polygon fill="midnightblue" stroke="midnightblue" points="583.882,-39.136 573.56,-41.5216 583.117,-46.0941 583.882,-39.136"/>
</g>
<!-- Node6 -->
<g id="node6" class="node"><title>Node6</title>
<g id="a_node6"><a xlink:href="../../d7/d6c/classmain_1_1_master_window.html#a929bc7bbd820aed32ae77e9b0362d30b" target="_top" xlink:title="main.MasterWindow.start">
<polygon fill="white" stroke="black" points="619.5,-0.5 619.5,-19.5 756.5,-19.5 756.5,-0.5 619.5,-0.5"/>
<text text-anchor="middle" x="688" y="-7.5" font-family="Helvetica,sans-Serif" font-size="10.00">main.MasterWindow.start</text>
</a>
</g>
</g>
<!-- Node2&#45;&gt;Node6 -->
<g id="edge5" class="edge"><title>Node2&#45;&gt;Node6</title>
<path fill="none" stroke="midnightblue" d="M583.651,-21.3683C595.702,-20.0428 607.817,-18.7101 619.297,-17.4474"/>
<polygon fill="midnightblue" stroke="midnightblue" points="583.117,-17.9059 573.56,-22.4784 583.882,-24.864 583.117,-17.9059"/>
</g>
<!-- Node4 -->
<g id="node4" class="node"><title>Node4</title>
<g id="a_node4"><a xlink:href="../../de/d44/classmain_1_1_master_menu_bar.html#a8ac360f52791db57913d7a4303e18867" target="_top" xlink:title="main.MasterMenuBar.build\lFileMenu">
<polygon fill="white" stroke="black" points="796,-39 796,-69 940,-69 940,-39 796,-39"/>
<text text-anchor="start" x="804" y="-57" font-family="Helvetica,sans-Serif" font-size="10.00">main.MasterMenuBar.build</text>
<text text-anchor="middle" x="868" y="-46" font-family="Helvetica,sans-Serif" font-size="10.00">FileMenu</text>
</a>
</g>
</g>
<!-- Node3&#45;&gt;Node4 -->
<g id="edge3" class="edge"><title>Node3&#45;&gt;Node4</title>
<path fill="none" stroke="midnightblue" d="M770.17,-54C778.789,-54 787.506,-54 795.995,-54"/>
<polygon fill="midnightblue" stroke="midnightblue" points="770.118,-50.5001 760.118,-54 770.118,-57.5001 770.118,-50.5001"/>
</g>
<!-- Node5 -->
<g id="node5" class="node"><title>Node5</title>
<g id="a_node5"><a xlink:href="../../de/d44/classmain_1_1_master_menu_bar.html#a1baeeae18c6cf1bb2c48541b48afe20c" target="_top" xlink:title="main.MasterMenuBar.Master\lMenuBar">
<polygon fill="white" stroke="black" points="976.5,-39 976.5,-69 1131.5,-69 1131.5,-39 976.5,-39"/>
<text text-anchor="start" x="984.5" y="-57" font-family="Helvetica,sans-Serif" font-size="10.00">main.MasterMenuBar.Master</text>
<text text-anchor="middle" x="1054" y="-46" font-family="Helvetica,sans-Serif" font-size="10.00">MenuBar</text>
</a>
</g>
</g>
<!-- Node4&#45;&gt;Node5 -->
<g id="edge4" class="edge"><title>Node4&#45;&gt;Node5</title>
<path fill="none" stroke="midnightblue" d="M950.219,-54C958.872,-54 967.654,-54 976.253,-54"/>
<polygon fill="midnightblue" stroke="midnightblue" points="950.139,-50.5001 940.139,-54 950.139,-57.5001 950.139,-50.5001"/>
</g>
<!-- Node7&#45;&gt;Node2 -->
<g id="edge7" class="edge"><title>Node7&#45;&gt;Node2</title>
<path fill="none" stroke="midnightblue" d="M365.745,-21.4612C374.447,-22.2302 383.253,-23.0084 391.931,-23.7753"/>
<polygon fill="midnightblue" stroke="midnightblue" points="365.861,-17.9579 355.591,-20.5639 365.245,-24.9307 365.861,-17.9579"/>
</g>
</g>
</svg>
