<?xml version="1.0" encoding="UTF-8" standalone="no"?>
<!DOCTYPE svg PUBLIC "-//W3C//DTD SVG 1.1//EN"
 "http://www.w3.org/Graphics/SVG/1.1/DTD/svg11.dtd">
<!-- Generated by graphviz version 2.36.0 (20140111.2315)
 -->
<!-- Title: main.MasterWindow.loadWorkspacePreferences Pages: 1 -->
<svg width="1028pt" height="87pt"
 viewBox="0.00 0.00 1028.00 87.00" xmlns="http://www.w3.org/2000/svg" xmlns:xlink="http://www.w3.org/1999/xlink">
<g id="graph0" class="graph" transform="scale(1 1) rotate(0) translate(4 83)">
<title>main.MasterWindow.loadWorkspacePreferences</title>
<polygon fill="white" stroke="none" points="-4,4 -4,-83 1024,-83 1024,4 -4,4"/>
<!-- Node1 -->
<g id="node1" class="node"><title>Node1</title>
<polygon fill="#bfbfbf" stroke="black" points="0.5,-24 0.5,-54 185.5,-54 185.5,-24 0.5,-24"/>
<text text-anchor="start" x="8.5" y="-42" font-family="Helvetica,sans-Serif" font-size="10.00">main.MasterWindow.loadWorkspace</text>
<text text-anchor="middle" x="93" y="-31" font-family="Helvetica,sans-Serif" font-size="10.00">Preferences</text>
</g>
<!-- Node2 -->
<g id="node2" class="node"><title>Node2</title>
<g id="a_node2"><a xlink:href="../../d3/d21/classfront_end_1_1_workspace.html#a8c4cac9cc8769a62ea233aa2b8714100" target="_top" xlink:title="frontEnd.Workspace.loadProperties\lFromFile">
<polygon fill="white" stroke="black" points="222.5,-24 222.5,-54 405.5,-54 405.5,-24 222.5,-24"/>
<text text-anchor="start" x="230.5" y="-42" font-family="Helvetica,sans-Serif" font-size="10.00">frontEnd.Workspace.loadProperties</text>
<text text-anchor="middle" x="314" y="-31" font-family="Helvetica,sans-Serif" font-size="10.00">FromFile</text>
</a>
</g>
</g>
<!-- Node1&#45;&gt;Node2 -->
<g id="edge1" class="edge"><title>Node1&#45;&gt;Node2</title>
<path fill="none" stroke="midnightblue" d="M185.607,-39C194.463,-39 203.481,-39 212.418,-39"/>
<polygon fill="midnightblue" stroke="midnightblue" points="212.462,-42.5001 222.462,-39 212.462,-35.5001 212.462,-42.5001"/>
</g>
<!-- Node3 -->
<g id="node3" class="node"><title>Node3</title>
<g id="a_node3"><a xlink:href="../../d3/d21/classfront_end_1_1_workspace.html#aa58474f37d15d3aeabc3f2c465128897" target="_top" xlink:title="frontEnd.Workspace.loadDisplay\lProperties">
<polygon fill="white" stroke="black" points="442.5,-49 442.5,-79 611.5,-79 611.5,-49 442.5,-49"/>
<text text-anchor="start" x="450.5" y="-67" font-family="Helvetica,sans-Serif" font-size="10.00">frontEnd.Workspace.loadDisplay</text>
<text text-anchor="middle" x="527" y="-56" font-family="Helvetica,sans-Serif" font-size="10.00">Properties</text>
</a>
</g>
</g>
<!-- Node2&#45;&gt;Node3 -->
<g id="edge2" class="edge"><title>Node2&#45;&gt;Node3</title>
<path fill="none" stroke="midnightblue" d="M405.708,-49.7473C414.553,-50.7954 423.541,-51.8603 432.414,-52.9116"/>
<polygon fill="midnightblue" stroke="midnightblue" points="432.028,-56.3903 442.37,-54.0913 432.852,-49.4389 432.028,-56.3903"/>
</g>
<!-- Node6 -->
<g id="node6" class="node"><title>Node6</title>
<g id="a_node6"><a xlink:href="../../d3/d21/classfront_end_1_1_workspace.html#a3212e0fc8e35130808c0ed6f7188593c" target="_top" xlink:title="frontEnd.Workspace.print\lProps">
<polygon fill="white" stroke="black" points="459,-0 459,-30 595,-30 595,-0 459,-0"/>
<text text-anchor="start" x="467" y="-18" font-family="Helvetica,sans-Serif" font-size="10.00">frontEnd.Workspace.print</text>
<text text-anchor="middle" x="527" y="-7" font-family="Helvetica,sans-Serif" font-size="10.00">Props</text>
</a>
</g>
</g>
<!-- Node2&#45;&gt;Node6 -->
<g id="edge5" class="edge"><title>Node2&#45;&gt;Node6</title>
<path fill="none" stroke="midnightblue" d="M405.708,-28.6826C420.088,-27.0468 434.843,-25.3685 448.875,-23.7725"/>
<polygon fill="midnightblue" stroke="midnightblue" points="449.408,-27.2345 458.948,-22.6267 448.617,-20.2794 449.408,-27.2345"/>
</g>
<!-- Node4 -->
<g id="node4" class="node"><title>Node4</title>
<g id="a_node4"><a xlink:href="../../d8/d1f/classfront_end_1_1_view.html#a2d6539ed8834e0dcc613be8ea607804c" target="_top" xlink:title="frontEnd.View.changeBackground\lColor">
<polygon fill="white" stroke="black" points="648,-49 648,-79 824,-79 824,-49 648,-49"/>
<text text-anchor="start" x="656" y="-67" font-family="Helvetica,sans-Serif" font-size="10.00">frontEnd.View.changeBackground</text>
<text text-anchor="middle" x="736" y="-56" font-family="Helvetica,sans-Serif" font-size="10.00">Color</text>
</a>
</g>
</g>
<!-- Node3&#45;&gt;Node4 -->
<g id="edge3" class="edge"><title>Node3&#45;&gt;Node4</title>
<path fill="none" stroke="midnightblue" d="M611.598,-64C620.147,-64 628.884,-64 637.564,-64"/>
<polygon fill="midnightblue" stroke="midnightblue" points="637.713,-67.5001 647.713,-64 637.713,-60.5001 637.713,-67.5001"/>
</g>
<!-- Node5 -->
<g id="node5" class="node"><title>Node5</title>
<g id="a_node5"><a xlink:href="../../d5/df1/classfront_end_1_1_turtle_canvas.html#a222a37326fc072937d76f29f5fe27bdc" target="_top" xlink:title="frontEnd.TurtleCanvas.change\lBackgroundColor">
<polygon fill="white" stroke="black" points="860.5,-49 860.5,-79 1019.5,-79 1019.5,-49 860.5,-49"/>
<text text-anchor="start" x="868.5" y="-67" font-family="Helvetica,sans-Serif" font-size="10.00">frontEnd.TurtleCanvas.change</text>
<text text-anchor="middle" x="940" y="-56" font-family="Helvetica,sans-Serif" font-size="10.00">BackgroundColor</text>
</a>
</g>
</g>
<!-- Node4&#45;&gt;Node5 -->
<g id="edge4" class="edge"><title>Node4&#45;&gt;Node5</title>
<path fill="none" stroke="midnightblue" d="M824.132,-64C832.804,-64 841.616,-64 850.304,-64"/>
<polygon fill="midnightblue" stroke="midnightblue" points="850.431,-67.5001 860.431,-64 850.431,-60.5001 850.431,-67.5001"/>
</g>
</g>
</svg>
