<?xml version="1.0" encoding="UTF-8" standalone="no"?>
<!DOCTYPE svg PUBLIC "-//W3C//DTD SVG 1.1//EN"
 "http://www.w3.org/Graphics/SVG/1.1/DTD/svg11.dtd">
<!-- Generated by graphviz version 2.36.0 (20140111.2315)
 -->
<!-- Title: main.MasterWindow.buildWorkspace Pages: 1 -->
<svg width="748pt" height="77pt"
 viewBox="0.00 0.00 748.00 77.00" xmlns="http://www.w3.org/2000/svg" xmlns:xlink="http://www.w3.org/1999/xlink">
<g id="graph0" class="graph" transform="scale(1 1) rotate(0) translate(4 73)">
<title>main.MasterWindow.buildWorkspace</title>
<polygon fill="white" stroke="none" points="-4,4 -4,-73 744,-73 744,4 -4,4"/>
<!-- Node1 -->
<g id="node1" class="node"><title>Node1</title>
<polygon fill="#bfbfbf" stroke="black" points="0,-22.5 0,-41.5 188,-41.5 188,-22.5 0,-22.5"/>
<text text-anchor="middle" x="94" y="-29.5" font-family="Helvetica,sans-Serif" font-size="10.00">main.MasterWindow.buildWorkspace</text>
</g>
<!-- Node2 -->
<g id="node2" class="node"><title>Node2</title>
<g id="a_node2"><a xlink:href="../../de/d44/classmain_1_1_master_menu_bar.html#a05672abefed58f8f5e4a3704fca7f4e5" target="_top" xlink:title="main.MasterMenuBar.build\lNewWorkspaceMenuItem">
<polygon fill="white" stroke="black" points="224,-39 224,-69 368,-69 368,-39 224,-39"/>
<text text-anchor="start" x="232" y="-57" font-family="Helvetica,sans-Serif" font-size="10.00">main.MasterMenuBar.build</text>
<text text-anchor="middle" x="296" y="-46" font-family="Helvetica,sans-Serif" font-size="10.00">NewWorkspaceMenuItem</text>
</a>
</g>
</g>
<!-- Node1&#45;&gt;Node2 -->
<g id="edge1" class="edge"><title>Node1&#45;&gt;Node2</title>
<path fill="none" stroke="midnightblue" d="M191.552,-42.6207C202.465,-43.8212 213.433,-45.0276 223.935,-46.1829"/>
<polygon fill="midnightblue" stroke="midnightblue" points="191.882,-39.136 181.56,-41.5216 191.117,-46.0941 191.882,-39.136"/>
</g>
<!-- Node5 -->
<g id="node5" class="node"><title>Node5</title>
<g id="a_node5"><a xlink:href="../../d7/d6c/classmain_1_1_master_window.html#a929bc7bbd820aed32ae77e9b0362d30b" target="_top" xlink:title="main.MasterWindow.start">
<polygon fill="white" stroke="black" points="227.5,-0.5 227.5,-19.5 364.5,-19.5 364.5,-0.5 227.5,-0.5"/>
<text text-anchor="middle" x="296" y="-7.5" font-family="Helvetica,sans-Serif" font-size="10.00">main.MasterWindow.start</text>
</a>
</g>
</g>
<!-- Node1&#45;&gt;Node5 -->
<g id="edge4" class="edge"><title>Node1&#45;&gt;Node5</title>
<path fill="none" stroke="midnightblue" d="M191.651,-21.3683C203.702,-20.0428 215.817,-18.7101 227.297,-17.4474"/>
<polygon fill="midnightblue" stroke="midnightblue" points="191.117,-17.9059 181.56,-22.4784 191.882,-24.864 191.117,-17.9059"/>
</g>
<!-- Node3 -->
<g id="node3" class="node"><title>Node3</title>
<g id="a_node3"><a xlink:href="../../de/d44/classmain_1_1_master_menu_bar.html#a8ac360f52791db57913d7a4303e18867" target="_top" xlink:title="main.MasterMenuBar.build\lFileMenu">
<polygon fill="white" stroke="black" points="404,-39 404,-69 548,-69 548,-39 404,-39"/>
<text text-anchor="start" x="412" y="-57" font-family="Helvetica,sans-Serif" font-size="10.00">main.MasterMenuBar.build</text>
<text text-anchor="middle" x="476" y="-46" font-family="Helvetica,sans-Serif" font-size="10.00">FileMenu</text>
</a>
</g>
</g>
<!-- Node2&#45;&gt;Node3 -->
<g id="edge2" class="edge"><title>Node2&#45;&gt;Node3</title>
<path fill="none" stroke="midnightblue" d="M378.17,-54C386.789,-54 395.506,-54 403.995,-54"/>
<polygon fill="midnightblue" stroke="midnightblue" points="378.118,-50.5001 368.118,-54 378.118,-57.5001 378.118,-50.5001"/>
</g>
<!-- Node4 -->
<g id="node4" class="node"><title>Node4</title>
<g id="a_node4"><a xlink:href="../../de/d44/classmain_1_1_master_menu_bar.html#a1baeeae18c6cf1bb2c48541b48afe20c" target="_top" xlink:title="main.MasterMenuBar.Master\lMenuBar">
<polygon fill="white" stroke="black" points="584.5,-39 584.5,-69 739.5,-69 739.5,-39 584.5,-39"/>
<text text-anchor="start" x="592.5" y="-57" font-family="Helvetica,sans-Serif" font-size="10.00">main.MasterMenuBar.Master</text>
<text text-anchor="middle" x="662" y="-46" font-family="Helvetica,sans-Serif" font-size="10.00">MenuBar</text>
</a>
</g>
</g>
<!-- Node3&#45;&gt;Node4 -->
<g id="edge3" class="edge"><title>Node3&#45;&gt;Node4</title>
<path fill="none" stroke="midnightblue" d="M558.219,-54C566.872,-54 575.654,-54 584.253,-54"/>
<polygon fill="midnightblue" stroke="midnightblue" points="558.139,-50.5001 548.139,-54 558.139,-57.5001 558.139,-50.5001"/>
</g>
</g>
</svg>
