<?xml version="1.0" encoding="UTF-8" standalone="no"?>
<!DOCTYPE svg PUBLIC "-//W3C//DTD SVG 1.1//EN"
 "http://www.w3.org/Graphics/SVG/1.1/DTD/svg11.dtd">
<!-- Generated by graphviz version 2.36.0 (20140111.2315)
 -->
<!-- Title: main.MasterWindow.buildWorkspace Pages: 1 -->
<svg width="786pt" height="103pt"
 viewBox="0.00 0.00 786.00 103.00" xmlns="http://www.w3.org/2000/svg" xmlns:xlink="http://www.w3.org/1999/xlink">
<g id="graph0" class="graph" transform="scale(1 1) rotate(0) translate(4 99)">
<title>main.MasterWindow.buildWorkspace</title>
<polygon fill="white" stroke="none" points="-4,4 -4,-99 782,-99 782,4 -4,4"/>
<!-- Node1 -->
<g id="node1" class="node"><title>Node1</title>
<polygon fill="#bfbfbf" stroke="black" points="0,-49.5 0,-68.5 188,-68.5 188,-49.5 0,-49.5"/>
<text text-anchor="middle" x="94" y="-56.5" font-family="Helvetica,sans-Serif" font-size="10.00">main.MasterWindow.buildWorkspace</text>
</g>
<!-- Node2 -->
<g id="node2" class="node"><title>Node2</title>
<g id="a_node2"><a xlink:href="../../d7/d6c/classmain_1_1_master_window.html#a791f641d5cb2a36b6ec1e9b5e1c0615a" target="_top" xlink:title="main.MasterWindow.setKey\lListener">
<polygon fill="white" stroke="black" points="442,-65 442,-95 588,-95 588,-65 442,-65"/>
<text text-anchor="start" x="450" y="-83" font-family="Helvetica,sans-Serif" font-size="10.00">main.MasterWindow.setKey</text>
<text text-anchor="middle" x="515" y="-72" font-family="Helvetica,sans-Serif" font-size="10.00">Listener</text>
</a>
</g>
</g>
<!-- Node1&#45;&gt;Node2 -->
<g id="edge1" class="edge"><title>Node1&#45;&gt;Node2</title>
<path fill="none" stroke="midnightblue" d="M148.161,-68.5316C171.366,-72.2506 198.946,-76.078 224,-78 293.852,-83.3588 373.445,-83.483 431.554,-82.4799"/>
<polygon fill="midnightblue" stroke="midnightblue" points="431.849,-85.9751 441.781,-82.2879 431.717,-78.9763 431.849,-85.9751"/>
</g>
<!-- Node4 -->
<g id="node4" class="node"><title>Node4</title>
<g id="a_node4"><a xlink:href="../../d7/d6c/classmain_1_1_master_window.html#a27163b7cb277c62142db5916aae078c0" target="_top" xlink:title="main.MasterWindow.setMouse\lListener">
<polygon fill="white" stroke="black" points="230.5,-0 230.5,-30 391.5,-30 391.5,-0 230.5,-0"/>
<text text-anchor="start" x="238.5" y="-18" font-family="Helvetica,sans-Serif" font-size="10.00">main.MasterWindow.setMouse</text>
<text text-anchor="middle" x="311" y="-7" font-family="Helvetica,sans-Serif" font-size="10.00">Listener</text>
</a>
</g>
</g>
<!-- Node1&#45;&gt;Node4 -->
<g id="edge3" class="edge"><title>Node1&#45;&gt;Node4</title>
<path fill="none" stroke="midnightblue" d="M141.652,-49.4527C166.399,-44.3882 197.56,-38.011 226.325,-32.1242"/>
<polygon fill="midnightblue" stroke="midnightblue" points="227.29,-35.4993 236.385,-30.0654 225.886,-28.6415 227.29,-35.4993"/>
</g>
<!-- Node6 -->
<g id="node6" class="node"><title>Node6</title>
<g id="a_node6"><a xlink:href="../../d7/d6c/classmain_1_1_master_window.html#abee1c5dad0269124eb93728730b4b3a8" target="_top" xlink:title="main.MasterWindow.tabChanged">
<polygon fill="white" stroke="black" points="224.5,-49.5 224.5,-68.5 397.5,-68.5 397.5,-49.5 224.5,-49.5"/>
<text text-anchor="middle" x="311" y="-56.5" font-family="Helvetica,sans-Serif" font-size="10.00">main.MasterWindow.tabChanged</text>
</a>
</g>
</g>
<!-- Node1&#45;&gt;Node6 -->
<g id="edge5" class="edge"><title>Node1&#45;&gt;Node6</title>
<path fill="none" stroke="midnightblue" d="M188.052,-59C196.698,-59 205.472,-59 214.143,-59"/>
<polygon fill="midnightblue" stroke="midnightblue" points="214.261,-62.5001 224.261,-59 214.261,-55.5001 214.261,-62.5001"/>
</g>
<!-- Node3 -->
<g id="node3" class="node"><title>Node3</title>
<g id="a_node3"><a xlink:href="../../d3/d21/classfront_end_1_1_workspace.html#af3ac2c0c8f0256e4a26281bacdfbc6b2" target="_top" xlink:title="frontEnd.Workspace.getKey\lListener">
<polygon fill="white" stroke="black" points="632,-65 632,-95 778,-95 778,-65 632,-65"/>
<text text-anchor="start" x="640" y="-83" font-family="Helvetica,sans-Serif" font-size="10.00">frontEnd.Workspace.getKey</text>
<text text-anchor="middle" x="705" y="-72" font-family="Helvetica,sans-Serif" font-size="10.00">Listener</text>
</a>
</g>
</g>
<!-- Node2&#45;&gt;Node3 -->
<g id="edge2" class="edge"><title>Node2&#45;&gt;Node3</title>
<path fill="none" stroke="midnightblue" d="M588.148,-80C599.089,-80 610.447,-80 621.586,-80"/>
<polygon fill="midnightblue" stroke="midnightblue" points="621.734,-83.5001 631.734,-80 621.734,-76.5001 621.734,-83.5001"/>
</g>
<!-- Node5 -->
<g id="node5" class="node"><title>Node5</title>
<g id="a_node5"><a xlink:href="../../d3/d21/classfront_end_1_1_workspace.html#a6c55c52266ada6b68172fb5ff6204211" target="_top" xlink:title="frontEnd.Workspace.getMouse\lListener">
<polygon fill="white" stroke="black" points="434.5,-0 434.5,-30 595.5,-30 595.5,-0 434.5,-0"/>
<text text-anchor="start" x="442.5" y="-18" font-family="Helvetica,sans-Serif" font-size="10.00">frontEnd.Workspace.getMouse</text>
<text text-anchor="middle" x="515" y="-7" font-family="Helvetica,sans-Serif" font-size="10.00">Listener</text>
</a>
</g>
</g>
<!-- Node4&#45;&gt;Node5 -->
<g id="edge4" class="edge"><title>Node4&#45;&gt;Node5</title>
<path fill="none" stroke="midnightblue" d="M391.546,-15C402.171,-15 413.129,-15 423.919,-15"/>
<polygon fill="midnightblue" stroke="midnightblue" points="424.195,-18.5001 434.195,-15 424.195,-11.5001 424.195,-18.5001"/>
</g>
<!-- Node6&#45;&gt;Node2 -->
<g id="edge6" class="edge"><title>Node6&#45;&gt;Node2</title>
<path fill="none" stroke="midnightblue" d="M397.666,-67.9059C408.945,-69.0784 420.485,-70.2781 431.706,-71.4447"/>
<polygon fill="midnightblue" stroke="midnightblue" points="431.596,-74.952 441.904,-72.5049 432.32,-67.9896 431.596,-74.952"/>
</g>
</g>
</svg>
