<?xml version="1.0" encoding="UTF-8" standalone="no"?>
<!DOCTYPE svg PUBLIC "-//W3C//DTD SVG 1.1//EN"
 "http://www.w3.org/Graphics/SVG/1.1/DTD/svg11.dtd">
<!-- Generated by graphviz version 2.36.0 (20140111.2315)
 -->
<!-- Title: main.MasterWindow.tabChanged Pages: 1 -->
<svg width="958pt" height="77pt"
 viewBox="0.00 0.00 958.00 77.00" xmlns="http://www.w3.org/2000/svg" xmlns:xlink="http://www.w3.org/1999/xlink">
<g id="graph0" class="graph" transform="scale(1 1) rotate(0) translate(4 73)">
<title>main.MasterWindow.tabChanged</title>
<polygon fill="white" stroke="none" points="-4,4 -4,-73 954,-73 954,4 -4,4"/>
<!-- Node1 -->
<g id="node1" class="node"><title>Node1</title>
<polygon fill="#bfbfbf" stroke="black" points="0.5,-22.5 0.5,-41.5 173.5,-41.5 173.5,-22.5 0.5,-22.5"/>
<text text-anchor="middle" x="87" y="-29.5" font-family="Helvetica,sans-Serif" font-size="10.00">main.MasterWindow.tabChanged</text>
</g>
<!-- Node2 -->
<g id="node2" class="node"><title>Node2</title>
<g id="a_node2"><a xlink:href="../../d7/d6c/classmain_1_1_master_window.html#afa6d7e233487e201b5da782358fd522f" target="_top" xlink:title="main.MasterWindow.buildWorkspace">
<polygon fill="white" stroke="black" points="210,-22.5 210,-41.5 398,-41.5 398,-22.5 210,-22.5"/>
<text text-anchor="middle" x="304" y="-29.5" font-family="Helvetica,sans-Serif" font-size="10.00">main.MasterWindow.buildWorkspace</text>
</a>
</g>
</g>
<!-- Node1&#45;&gt;Node2 -->
<g id="edge1" class="edge"><title>Node1&#45;&gt;Node2</title>
<path fill="none" stroke="midnightblue" d="M183.745,-32C192.447,-32 201.253,-32 209.931,-32"/>
<polygon fill="midnightblue" stroke="midnightblue" points="183.591,-28.5001 173.591,-32 183.591,-35.5001 183.591,-28.5001"/>
</g>
<!-- Node3 -->
<g id="node3" class="node"><title>Node3</title>
<g id="a_node3"><a xlink:href="../../de/d44/classmain_1_1_master_menu_bar.html#a05672abefed58f8f5e4a3704fca7f4e5" target="_top" xlink:title="main.MasterMenuBar.build\lNewWorkspaceMenuItem">
<polygon fill="white" stroke="black" points="434,-39 434,-69 578,-69 578,-39 434,-39"/>
<text text-anchor="start" x="442" y="-57" font-family="Helvetica,sans-Serif" font-size="10.00">main.MasterMenuBar.build</text>
<text text-anchor="middle" x="506" y="-46" font-family="Helvetica,sans-Serif" font-size="10.00">NewWorkspaceMenuItem</text>
</a>
</g>
</g>
<!-- Node2&#45;&gt;Node3 -->
<g id="edge2" class="edge"><title>Node2&#45;&gt;Node3</title>
<path fill="none" stroke="midnightblue" d="M401.552,-42.6207C412.465,-43.8212 423.433,-45.0276 433.935,-46.1829"/>
<polygon fill="midnightblue" stroke="midnightblue" points="401.882,-39.136 391.56,-41.5216 401.117,-46.0941 401.882,-39.136"/>
</g>
<!-- Node6 -->
<g id="node6" class="node"><title>Node6</title>
<g id="a_node6"><a xlink:href="../../d7/d6c/classmain_1_1_master_window.html#a929bc7bbd820aed32ae77e9b0362d30b" target="_top" xlink:title="main.MasterWindow.start">
<polygon fill="white" stroke="black" points="437.5,-0.5 437.5,-19.5 574.5,-19.5 574.5,-0.5 437.5,-0.5"/>
<text text-anchor="middle" x="506" y="-7.5" font-family="Helvetica,sans-Serif" font-size="10.00">main.MasterWindow.start</text>
</a>
</g>
</g>
<!-- Node2&#45;&gt;Node6 -->
<g id="edge5" class="edge"><title>Node2&#45;&gt;Node6</title>
<path fill="none" stroke="midnightblue" d="M401.651,-21.3683C413.702,-20.0428 425.817,-18.7101 437.297,-17.4474"/>
<polygon fill="midnightblue" stroke="midnightblue" points="401.117,-17.9059 391.56,-22.4784 401.882,-24.864 401.117,-17.9059"/>
</g>
<!-- Node4 -->
<g id="node4" class="node"><title>Node4</title>
<g id="a_node4"><a xlink:href="../../de/d44/classmain_1_1_master_menu_bar.html#a8ac360f52791db57913d7a4303e18867" target="_top" xlink:title="main.MasterMenuBar.build\lFileMenu">
<polygon fill="white" stroke="black" points="614,-39 614,-69 758,-69 758,-39 614,-39"/>
<text text-anchor="start" x="622" y="-57" font-family="Helvetica,sans-Serif" font-size="10.00">main.MasterMenuBar.build</text>
<text text-anchor="middle" x="686" y="-46" font-family="Helvetica,sans-Serif" font-size="10.00">FileMenu</text>
</a>
</g>
</g>
<!-- Node3&#45;&gt;Node4 -->
<g id="edge3" class="edge"><title>Node3&#45;&gt;Node4</title>
<path fill="none" stroke="midnightblue" d="M588.17,-54C596.789,-54 605.506,-54 613.995,-54"/>
<polygon fill="midnightblue" stroke="midnightblue" points="588.118,-50.5001 578.118,-54 588.118,-57.5001 588.118,-50.5001"/>
</g>
<!-- Node5 -->
<g id="node5" class="node"><title>Node5</title>
<g id="a_node5"><a xlink:href="../../de/d44/classmain_1_1_master_menu_bar.html#a1baeeae18c6cf1bb2c48541b48afe20c" target="_top" xlink:title="main.MasterMenuBar.Master\lMenuBar">
<polygon fill="white" stroke="black" points="794.5,-39 794.5,-69 949.5,-69 949.5,-39 794.5,-39"/>
<text text-anchor="start" x="802.5" y="-57" font-family="Helvetica,sans-Serif" font-size="10.00">main.MasterMenuBar.Master</text>
<text text-anchor="middle" x="872" y="-46" font-family="Helvetica,sans-Serif" font-size="10.00">MenuBar</text>
</a>
</g>
</g>
<!-- Node4&#45;&gt;Node5 -->
<g id="edge4" class="edge"><title>Node4&#45;&gt;Node5</title>
<path fill="none" stroke="midnightblue" d="M768.219,-54C776.872,-54 785.654,-54 794.253,-54"/>
<polygon fill="midnightblue" stroke="midnightblue" points="768.139,-50.5001 758.139,-54 768.139,-57.5001 768.139,-50.5001"/>
</g>
</g>
</svg>
