<?xml version="1.0" encoding="UTF-8" standalone="no"?>
<!DOCTYPE svg PUBLIC "-//W3C//DTD SVG 1.1//EN"
 "http://www.w3.org/Graphics/SVG/1.1/DTD/svg11.dtd">
<!-- Generated by graphviz version 2.36.0 (20140111.2315)
 -->
<!-- Title: panels.ParameterPanel Pages: 1 -->
<svg width="686pt" height="401pt"
 viewBox="0.00 0.00 686.00 401.00" xmlns="http://www.w3.org/2000/svg" xmlns:xlink="http://www.w3.org/1999/xlink">
<g id="graph0" class="graph" transform="scale(1 1) rotate(0) translate(4 397)">
<title>panels.ParameterPanel</title>
<polygon fill="white" stroke="none" points="-4,4 -4,-397 682,-397 682,4 -4,4"/>
<!-- Node1 -->
<g id="node1" class="node"><title>Node1</title>
<polygon fill="#bfbfbf" stroke="black" points="550.5,-227.5 550.5,-246.5 677.5,-246.5 677.5,-227.5 550.5,-227.5"/>
<text text-anchor="middle" x="614" y="-234.5" font-family="Helvetica,sans-Serif" font-size="10.00">panels.ParameterPanel</text>
</g>
<!-- Node2 -->
<g id="node2" class="node"><title>Node2</title>
<polygon fill="white" stroke="#bfbfbf" points="280,-373.5 280,-392.5 320,-392.5 320,-373.5 280,-373.5"/>
<text text-anchor="middle" x="300" y="-380.5" font-family="Helvetica,sans-Serif" font-size="10.00">Pane</text>
</g>
<!-- Node2&#45;&gt;Node1 -->
<g id="edge1" class="edge"><title>Node2&#45;&gt;Node1</title>
<path fill="none" stroke="midnightblue" d="M329.993,-386.883C376.307,-391.585 468.246,-394.63 532,-356 575.389,-329.71 600.899,-270.287 609.601,-246.809"/>
<polygon fill="midnightblue" stroke="midnightblue" points="330.362,-383.403 320.036,-385.773 329.586,-390.36 330.362,-383.403"/>
</g>
<!-- Node3 -->
<g id="node3" class="node"><title>Node3</title>
<g id="a_node3"><a xlink:href="../../da/d59/classtitle_panes_1_1_command_title_pane.html" target="_top" xlink:title="titlePanes.CommandTitlePane">
<polygon fill="white" stroke="black" points="220.5,-247.5 220.5,-266.5 379.5,-266.5 379.5,-247.5 220.5,-247.5"/>
<text text-anchor="middle" x="300" y="-254.5" font-family="Helvetica,sans-Serif" font-size="10.00">titlePanes.CommandTitlePane</text>
</a>
</g>
</g>
<!-- Node3&#45;&gt;Node1 -->
<g id="edge2" class="edge"><title>Node3&#45;&gt;Node1</title>
<path fill="none" stroke="#9a32cd" stroke-dasharray="5,2" d="M389.808,-251.307C441.033,-248.024 504.207,-243.974 550.255,-241.022"/>
<polygon fill="#9a32cd" stroke="#9a32cd" points="389.486,-247.821 379.731,-251.953 389.934,-254.806 389.486,-247.821"/>
<text text-anchor="middle" x="465" y="-254" font-family="Helvetica,sans-Serif" font-size="10.00"> myCommandTitlePane</text>
</g>
<!-- Node4 -->
<g id="node4" class="node"><title>Node4</title>
<polygon fill="white" stroke="#bfbfbf" points="28.5,-241.5 28.5,-260.5 93.5,-260.5 93.5,-241.5 28.5,-241.5"/>
<text text-anchor="middle" x="61" y="-248.5" font-family="Helvetica,sans-Serif" font-size="10.00">TitledPane</text>
</g>
<!-- Node4&#45;&gt;Node3 -->
<g id="edge3" class="edge"><title>Node4&#45;&gt;Node3</title>
<path fill="none" stroke="midnightblue" d="M103.732,-257.985C115.432,-259.643 128.183,-261.171 140,-262 166.173,-263.836 194.816,-263.621 220.493,-262.624"/>
<polygon fill="midnightblue" stroke="midnightblue" points="104.176,-254.513 93.7711,-256.508 103.15,-261.437 104.176,-254.513"/>
</g>
<!-- Node5 -->
<g id="node5" class="node"><title>Node5</title>
<g id="a_node5"><a xlink:href="../../da/d04/classtitle_panes_1_1_control_title_pane.html" target="_top" xlink:title="titlePanes.ControlTitlePane">
<polygon fill="white" stroke="black" points="228.5,-209.5 228.5,-228.5 371.5,-228.5 371.5,-209.5 228.5,-209.5"/>
<text text-anchor="middle" x="300" y="-216.5" font-family="Helvetica,sans-Serif" font-size="10.00">titlePanes.ControlTitlePane</text>
</a>
</g>
</g>
<!-- Node4&#45;&gt;Node5 -->
<g id="edge5" class="edge"><title>Node4&#45;&gt;Node5</title>
<path fill="none" stroke="midnightblue" d="M103.698,-247.751C131.594,-245.352 169.085,-241.691 202,-237 218.278,-234.68 235.988,-231.569 251.767,-228.586"/>
<polygon fill="midnightblue" stroke="midnightblue" points="103.178,-244.283 93.5064,-248.609 103.765,-251.258 103.178,-244.283"/>
</g>
<!-- Node6 -->
<g id="node6" class="node"><title>Node6</title>
<g id="a_node6"><a xlink:href="../../dd/d67/classtitle_panes_1_1_display_title_pane.html" target="_top" xlink:title="titlePanes.DisplayTitlePane">
<polygon fill="white" stroke="black" points="228.5,-335.5 228.5,-354.5 371.5,-354.5 371.5,-335.5 228.5,-335.5"/>
<text text-anchor="middle" x="300" y="-342.5" font-family="Helvetica,sans-Serif" font-size="10.00">titlePanes.DisplayTitlePane</text>
</a>
</g>
</g>
<!-- Node4&#45;&gt;Node6 -->
<g id="edge7" class="edge"><title>Node4&#45;&gt;Node6</title>
<path fill="none" stroke="midnightblue" d="M84.9082,-266.127C100.117,-275.76 120.753,-288.062 140,-297 174.166,-312.866 183.928,-314.145 220,-325 232.329,-328.71 245.874,-332.31 258.215,-335.409"/>
<polygon fill="midnightblue" stroke="midnightblue" points="86.5049,-262.993 76.2008,-260.528 82.7189,-268.881 86.5049,-262.993"/>
</g>
<!-- Node7 -->
<g id="node7" class="node"><title>Node7</title>
<g id="a_node7"><a xlink:href="../../d7/d28/classtitle_panes_1_1_load_variables_title_pane.html" target="_top" xlink:title="titlePanes.LoadVariables\lTitlePane">
<polygon fill="white" stroke="black" points="233.5,-286 233.5,-316 366.5,-316 366.5,-286 233.5,-286"/>
<text text-anchor="start" x="241.5" y="-304" font-family="Helvetica,sans-Serif" font-size="10.00">titlePanes.LoadVariables</text>
<text text-anchor="middle" x="300" y="-293" font-family="Helvetica,sans-Serif" font-size="10.00">TitlePane</text>
</a>
</g>
</g>
<!-- Node4&#45;&gt;Node7 -->
<g id="edge9" class="edge"><title>Node4&#45;&gt;Node7</title>
<path fill="none" stroke="midnightblue" d="M96.7314,-264C110.108,-268.629 125.622,-273.546 140,-277 170.266,-284.271 204.33,-289.762 233.142,-293.643"/>
<polygon fill="midnightblue" stroke="midnightblue" points="97.5681,-260.584 86.9733,-260.545 95.2316,-267.182 97.5681,-260.584"/>
</g>
<!-- Node8 -->
<g id="node8" class="node"><title>Node8</title>
<g id="a_node8"><a xlink:href="../../d1/dd4/classtitle_panes_1_1_help_title_pane.html" target="_top" xlink:title="titlePanes.HelpTitlePane">
<polygon fill="white" stroke="black" points="234.5,-171.5 234.5,-190.5 365.5,-190.5 365.5,-171.5 234.5,-171.5"/>
<text text-anchor="middle" x="300" y="-178.5" font-family="Helvetica,sans-Serif" font-size="10.00">titlePanes.HelpTitlePane</text>
</a>
</g>
</g>
<!-- Node4&#45;&gt;Node8 -->
<g id="edge11" class="edge"><title>Node4&#45;&gt;Node8</title>
<path fill="none" stroke="midnightblue" d="M103.61,-243.035C132.113,-236.716 170.338,-226.515 202,-212 210.74,-207.993 211.19,-203.85 220,-200 228.66,-196.215 238.199,-193.11 247.562,-190.588"/>
<polygon fill="midnightblue" stroke="midnightblue" points="102.622,-239.668 93.5792,-245.189 104.091,-246.512 102.622,-239.668"/>
</g>
<!-- Node10 -->
<g id="node10" class="node"><title>Node10</title>
<g id="a_node10"><a xlink:href="../../d0/d8f/classtitle_panes_1_1_variable_title_pane.html" target="_top" xlink:title="titlePanes.VariableTitlePane">
<polygon fill="white" stroke="black" points="226.5,-72.5 226.5,-91.5 373.5,-91.5 373.5,-72.5 226.5,-72.5"/>
<text text-anchor="middle" x="300" y="-79.5" font-family="Helvetica,sans-Serif" font-size="10.00">titlePanes.VariableTitlePane</text>
</a>
</g>
</g>
<!-- Node4&#45;&gt;Node10 -->
<g id="edge14" class="edge"><title>Node4&#45;&gt;Node10</title>
<path fill="none" stroke="midnightblue" d="M73.1686,-232.858C86.774,-211.999 111.502,-177.835 140,-156 164.001,-137.611 174.562,-140.7 202,-128 228.724,-115.63 259.41,-101.007 278.987,-91.6239"/>
<polygon fill="midnightblue" stroke="midnightblue" points="70.1405,-231.097 67.7265,-241.413 76.0468,-234.854 70.1405,-231.097"/>
</g>
<!-- Node13 -->
<g id="node13" class="node"><title>Node13</title>
<g id="a_node13"><a xlink:href="../../de/dff/classtitle_panes_1_1_history_title_pane.html" target="_top" xlink:title="titlePanes.HistoryTitlePane">
<polygon fill="white" stroke="black" points="228.5,-133.5 228.5,-152.5 371.5,-152.5 371.5,-133.5 228.5,-133.5"/>
<text text-anchor="middle" x="300" y="-140.5" font-family="Helvetica,sans-Serif" font-size="10.00">titlePanes.HistoryTitlePane</text>
</a>
</g>
</g>
<!-- Node4&#45;&gt;Node13 -->
<g id="edge19" class="edge"><title>Node4&#45;&gt;Node13</title>
<path fill="none" stroke="midnightblue" d="M93.6034,-237.251C122.833,-223.912 166.924,-202.185 202,-178 210.812,-171.924 210.513,-166.955 220,-162 227.377,-158.147 235.55,-155.061 243.76,-152.592"/>
<polygon fill="midnightblue" stroke="midnightblue" points="91.975,-234.145 84.2951,-241.444 94.8502,-240.528 91.975,-234.145"/>
</g>
<!-- Node5&#45;&gt;Node1 -->
<g id="edge4" class="edge"><title>Node5&#45;&gt;Node1</title>
<path fill="none" stroke="#9a32cd" stroke-dasharray="5,2" d="M381.848,-216.693C426.269,-216.268 482.287,-217.11 532,-222 544.098,-223.19 557.092,-225.243 569.053,-227.456"/>
<polygon fill="#9a32cd" stroke="#9a32cd" points="381.644,-213.195 371.687,-216.814 381.728,-220.194 381.644,-213.195"/>
<text text-anchor="middle" x="465" y="-225" font-family="Helvetica,sans-Serif" font-size="10.00"> myControlTitlePane</text>
</g>
<!-- Node6&#45;&gt;Node1 -->
<g id="edge6" class="edge"><title>Node6&#45;&gt;Node1</title>
<path fill="none" stroke="#9a32cd" stroke-dasharray="5,2" d="M381.797,-341.94C427.64,-337.658 485.053,-327.896 532,-306 562.805,-291.633 591.172,-262.273 604.692,-246.894"/>
<polygon fill="#9a32cd" stroke="#9a32cd" points="381.265,-338.473 371.604,-342.821 381.868,-345.447 381.265,-338.473"/>
<text text-anchor="middle" x="465" y="-344" font-family="Helvetica,sans-Serif" font-size="10.00"> myDisplayTitlePane</text>
</g>
<!-- Node7&#45;&gt;Node1 -->
<g id="edge8" class="edge"><title>Node7&#45;&gt;Node1</title>
<path fill="none" stroke="#9a32cd" stroke-dasharray="5,2" d="M376.715,-293.273C422.17,-287.711 480.901,-278.889 532,-266 551.986,-260.959 573.963,-252.925 589.976,-246.591"/>
<polygon fill="#9a32cd" stroke="#9a32cd" points="376.152,-289.815 366.639,-294.48 376.984,-296.766 376.152,-289.815"/>
<text text-anchor="middle" x="465" y="-294" font-family="Helvetica,sans-Serif" font-size="10.00"> myLoadPropertiesTitlePane</text>
</g>
<!-- Node8&#45;&gt;Node1 -->
<g id="edge10" class="edge"><title>Node8&#45;&gt;Node1</title>
<path fill="none" stroke="#9a32cd" stroke-dasharray="5,2" d="M375.784,-181.819C421.509,-183.786 480.844,-188.978 532,-202 554.714,-207.782 579.21,-219.154 595.245,-227.37"/>
<polygon fill="#9a32cd" stroke="#9a32cd" points="375.781,-178.316 365.653,-181.426 375.51,-185.311 375.781,-178.316"/>
<text text-anchor="middle" x="465" y="-205" font-family="Helvetica,sans-Serif" font-size="10.00"> myHelpTitlePane</text>
</g>
<!-- Node9 -->
<g id="node9" class="node"><title>Node9</title>
<polygon fill="white" stroke="#bfbfbf" points="40.5,-106.5 40.5,-125.5 81.5,-125.5 81.5,-106.5 40.5,-106.5"/>
<text text-anchor="middle" x="61" y="-113.5" font-family="Helvetica,sans-Serif" font-size="10.00">VBox</text>
</g>
<!-- Node9&#45;&gt;Node8 -->
<g id="edge12" class="edge"><title>Node9&#45;&gt;Node8</title>
<path fill="none" stroke="#9a32cd" stroke-dasharray="5,2" d="M90.9867,-128.866C105.498,-134.959 123.458,-141.983 140,-147 173.766,-157.241 212.466,-165.588 243.231,-171.448"/>
<polygon fill="#9a32cd" stroke="#9a32cd" points="92.1216,-125.544 81.5508,-124.832 89.37,-131.981 92.1216,-125.544"/>
<text text-anchor="middle" x="171" y="-166" font-family="Helvetica,sans-Serif" font-size="10.00"> myRoot</text>
</g>
<!-- Node9&#45;&gt;Node10 -->
<g id="edge15" class="edge"><title>Node9&#45;&gt;Node10</title>
<path fill="none" stroke="#9a32cd" stroke-dasharray="5,2" d="M91.8917,-111.712C127.058,-106.667 186.503,-98.1388 232.71,-91.5099"/>
<polygon fill="#9a32cd" stroke="#9a32cd" points="91.2005,-108.275 81.7988,-113.16 92.1946,-115.204 91.2005,-108.275"/>
<text text-anchor="middle" x="171" y="-108" font-family="Helvetica,sans-Serif" font-size="10.00"> myRoot</text>
</g>
<!-- Node9&#45;&gt;Node13 -->
<g id="edge20" class="edge"><title>Node9&#45;&gt;Node13</title>
<path fill="none" stroke="#9a32cd" stroke-dasharray="5,2" d="M92.019,-119.42C126.082,-123.3 182.804,-129.763 228.264,-134.941"/>
<polygon fill="#9a32cd" stroke="#9a32cd" points="92.1308,-115.91 81.7988,-118.256 91.3384,-122.865 92.1308,-115.91"/>
<text text-anchor="middle" x="171" y="-135" font-family="Helvetica,sans-Serif" font-size="10.00"> myRoot</text>
</g>
<!-- Node10&#45;&gt;Node1 -->
<g id="edge13" class="edge"><title>Node10&#45;&gt;Node1</title>
<path fill="none" stroke="#9a32cd" stroke-dasharray="5,2" d="M383.756,-83.5609C430.388,-87.8467 487.934,-99.1122 532,-127 572.281,-152.492 599.242,-205.765 608.968,-227.48"/>
<polygon fill="#9a32cd" stroke="#9a32cd" points="383.932,-80.0636 373.677,-82.7264 383.354,-87.0397 383.932,-80.0636"/>
<text text-anchor="middle" x="465" y="-130" font-family="Helvetica,sans-Serif" font-size="10.00"> myVariableTitlePane</text>
</g>
<!-- Node11 -->
<g id="node11" class="node"><title>Node11</title>
<polygon fill="white" stroke="#bfbfbf" points="0,-0.5 0,-19.5 122,-19.5 122,-0.5 0,-0.5"/>
<text text-anchor="middle" x="61" y="-7.5" font-family="Helvetica,sans-Serif" font-size="10.00">Map&lt; String, String &gt;</text>
</g>
<!-- Node11&#45;&gt;Node10 -->
<g id="edge16" class="edge"><title>Node11&#45;&gt;Node10</title>
<path fill="none" stroke="#9a32cd" stroke-dasharray="5,2" d="M115.646,-21.8254C141.886,-28.0111 173.814,-36.136 202,-45 227.79,-53.1107 256.66,-64.4196 276.146,-72.3943"/>
<polygon fill="#9a32cd" stroke="#9a32cd" points="116.42,-18.4122 105.887,-19.5521 114.832,-25.2296 116.42,-18.4122"/>
<text text-anchor="middle" x="171" y="-48" font-family="Helvetica,sans-Serif" font-size="10.00"> myVarMap</text>
</g>
<!-- Node12 -->
<g id="node12" class="node"><title>Node12</title>
<polygon fill="white" stroke="#bfbfbf" points="28.5,-38.5 28.5,-57.5 93.5,-57.5 93.5,-38.5 28.5,-38.5"/>
<text text-anchor="middle" x="61" y="-45.5" font-family="Helvetica,sans-Serif" font-size="10.00">Properties</text>
</g>
<!-- Node12&#45;&gt;Node10 -->
<g id="edge17" class="edge"><title>Node12&#45;&gt;Node10</title>
<path fill="none" stroke="#9a32cd" stroke-dasharray="5,2" d="M104.021,-54.0283C139.661,-59.1412 191.415,-66.5659 232.647,-72.4811"/>
<polygon fill="#9a32cd" stroke="#9a32cd" points="104.359,-50.541 93.9629,-52.5854 103.364,-57.4701 104.359,-50.541"/>
<text text-anchor="middle" x="171" y="-72" font-family="Helvetica,sans-Serif" font-size="10.00"> myVarProps</text>
</g>
<!-- Node13&#45;&gt;Node1 -->
<g id="edge18" class="edge"><title>Node13&#45;&gt;Node1</title>
<path fill="none" stroke="#9a32cd" stroke-dasharray="5,2" d="M381.827,-140.756C427.556,-142.224 484.847,-148.773 532,-169 563.048,-182.319 591.309,-211.621 604.75,-227.049"/>
<polygon fill="#9a32cd" stroke="#9a32cd" points="381.742,-137.253 371.659,-140.506 381.57,-144.251 381.742,-137.253"/>
<text text-anchor="middle" x="465" y="-172" font-family="Helvetica,sans-Serif" font-size="10.00"> myHistoryTitlePane</text>
</g>
</g>
</svg>
