<?xml version="1.0" encoding="UTF-8" standalone="no"?>
<!DOCTYPE svg PUBLIC "-//W3C//DTD SVG 1.1//EN"
 "http://www.w3.org/Graphics/SVG/1.1/DTD/svg11.dtd">
<!-- Generated by graphviz version 2.36.0 (20140111.2315)
 -->
<!-- Title: titlePanes.decorators.HScrollableDecorator.wrap Pages: 1 -->
<svg width="396pt" height="38pt"
 viewBox="0.00 0.00 396.00 38.00" xmlns="http://www.w3.org/2000/svg" xmlns:xlink="http://www.w3.org/1999/xlink">
<g id="graph0" class="graph" transform="scale(1 1) rotate(0) translate(4 34)">
<title>titlePanes.decorators.HScrollableDecorator.wrap</title>
<polygon fill="white" stroke="none" points="-4,4 -4,-34 392,-34 392,4 -4,4"/>
<!-- Node1 -->
<g id="node1" class="node"><title>Node1</title>
<polygon fill="#bfbfbf" stroke="black" points="0.5,-0 0.5,-30 175.5,-30 175.5,-0 0.5,-0"/>
<text text-anchor="start" x="8.5" y="-18" font-family="Helvetica,sans-Serif" font-size="10.00">titlePanes.decorators.HScrollable</text>
<text text-anchor="middle" x="88" y="-7" font-family="Helvetica,sans-Serif" font-size="10.00">Decorator.wrap</text>
</g>
<!-- Node2 -->
<g id="node2" class="node"><title>Node2</title>
<g id="a_node2"><a xlink:href="../../da/d61/classtitle_panes_1_1decorators_1_1_h_scrollable_decorator.html#a8a167849f1da2eae19dcade492d56831" target="_top" xlink:title="titlePanes.decorators.HScrollable\lDecorator.HScrollableDecorator">
<polygon fill="white" stroke="black" points="212.5,-0 212.5,-30 387.5,-30 387.5,-0 212.5,-0"/>
<text text-anchor="start" x="220.5" y="-18" font-family="Helvetica,sans-Serif" font-size="10.00">titlePanes.decorators.HScrollable</text>
<text text-anchor="middle" x="300" y="-7" font-family="Helvetica,sans-Serif" font-size="10.00">Decorator.HScrollableDecorator</text>
</a>
</g>
</g>
<!-- Node1&#45;&gt;Node2 -->
<g id="edge1" class="edge"><title>Node1&#45;&gt;Node2</title>
<path fill="none" stroke="midnightblue" d="M185.892,-15C194.679,-15 203.542,-15 212.233,-15"/>
<polygon fill="midnightblue" stroke="midnightblue" points="185.627,-11.5001 175.627,-15 185.627,-18.5001 185.627,-11.5001"/>
</g>
</g>
</svg>
