<?xml version="1.0" encoding="UTF-8" standalone="no"?>
<!DOCTYPE svg PUBLIC "-//W3C//DTD SVG 1.1//EN"
 "http://www.w3.org/Graphics/SVG/1.1/DTD/svg11.dtd">
<!-- Generated by graphviz version 2.36.0 (20140111.2315)
 -->
<!-- Title: commands.turtle_commands.SetHeadingCommand.executeTurtleCommand Pages: 1 -->
<svg width="398pt" height="48pt"
 viewBox="0.00 0.00 398.00 48.00" xmlns="http://www.w3.org/2000/svg" xmlns:xlink="http://www.w3.org/1999/xlink">
<g id="graph0" class="graph" transform="scale(1 1) rotate(0) translate(4 44)">
<title>commands.turtle_commands.SetHeadingCommand.executeTurtleCommand</title>
<polygon fill="white" stroke="none" points="-4,4 -4,-44 394,-44 394,4 -4,4"/>
<!-- Node1 -->
<g id="node1" class="node"><title>Node1</title>
<polygon fill="#bfbfbf" stroke="black" points="0,0.5 0,-40.5 190,-40.5 190,0.5 0,0.5"/>
<text text-anchor="start" x="8" y="-28.5" font-family="Helvetica,sans-Serif" font-size="10.00">commands.turtle_commands.</text>
<text text-anchor="start" x="8" y="-17.5" font-family="Helvetica,sans-Serif" font-size="10.00">SetHeadingCommand.executeTurtle</text>
<text text-anchor="middle" x="95" y="-6.5" font-family="Helvetica,sans-Serif" font-size="10.00">Command</text>
</g>
<!-- Node2 -->
<g id="node2" class="node"><title>Node2</title>
<g id="a_node2"><a xlink:href="../../de/d5b/classcommands_1_1turtle__commands_1_1_set_heading_command.html#a0820b8d48ea0912bf1190b7cb0cd3495" target="_top" xlink:title="commands.turtle_commands.\lSetHeadingCommand.execute">
<polygon fill="white" stroke="black" points="226,-5 226,-35 390,-35 390,-5 226,-5"/>
<text text-anchor="start" x="234" y="-23" font-family="Helvetica,sans-Serif" font-size="10.00">commands.turtle_commands.</text>
<text text-anchor="middle" x="308" y="-12" font-family="Helvetica,sans-Serif" font-size="10.00">SetHeadingCommand.execute</text>
</a>
</g>
</g>
<!-- Node1&#45;&gt;Node2 -->
<g id="edge1" class="edge"><title>Node1&#45;&gt;Node2</title>
<path fill="none" stroke="midnightblue" d="M200.224,-20C208.878,-20 217.544,-20 225.988,-20"/>
<polygon fill="midnightblue" stroke="midnightblue" points="200.084,-16.5001 190.084,-20 200.084,-23.5001 200.084,-16.5001"/>
</g>
</g>
</svg>
