<?xml version="1.0" encoding="UTF-8" standalone="no"?>
<!DOCTYPE svg PUBLIC "-//W3C//DTD SVG 1.1//EN"
 "http://www.w3.org/Graphics/SVG/1.1/DTD/svg11.dtd">
<!-- Generated by graphviz version 2.36.0 (20140111.2315)
 -->
<!-- Title: commands.turtle_commands.SetHeadingCommand.execute Pages: 1 -->
<svg width="632pt" height="219pt"
 viewBox="0.00 0.00 632.00 219.00" xmlns="http://www.w3.org/2000/svg" xmlns:xlink="http://www.w3.org/1999/xlink">
<g id="graph0" class="graph" transform="scale(1 1) rotate(0) translate(4 215)">
<title>commands.turtle_commands.SetHeadingCommand.execute</title>
<polygon fill="white" stroke="none" points="-4,4 -4,-215 628,-215 628,4 -4,4"/>
<!-- Node1 -->
<g id="node1" class="node"><title>Node1</title>
<polygon fill="#bfbfbf" stroke="black" points="0,-49 0,-79 164,-79 164,-49 0,-49"/>
<text text-anchor="start" x="8" y="-67" font-family="Helvetica,sans-Serif" font-size="10.00">commands.turtle_commands.</text>
<text text-anchor="middle" x="82" y="-56" font-family="Helvetica,sans-Serif" font-size="10.00">SetHeadingCommand.execute</text>
</g>
<!-- Node2 -->
<g id="node2" class="node"><title>Node2</title>
<g id="a_node2"><a xlink:href="../../de/d5b/classcommands_1_1turtle__commands_1_1_set_heading_command.html#a8f122b78e17681cdfaf251fb904a6c59" target="_top" xlink:title="commands.turtle_commands.\lSetHeadingCommand.executeTurtle\lCommand">
<polygon fill="white" stroke="black" points="202,-116.5 202,-157.5 392,-157.5 392,-116.5 202,-116.5"/>
<text text-anchor="start" x="210" y="-145.5" font-family="Helvetica,sans-Serif" font-size="10.00">commands.turtle_commands.</text>
<text text-anchor="start" x="210" y="-134.5" font-family="Helvetica,sans-Serif" font-size="10.00">SetHeadingCommand.executeTurtle</text>
<text text-anchor="middle" x="297" y="-123.5" font-family="Helvetica,sans-Serif" font-size="10.00">Command</text>
</a>
</g>
</g>
<!-- Node1&#45;&gt;Node2 -->
<g id="edge1" class="edge"><title>Node1&#45;&gt;Node2</title>
<path fill="none" stroke="midnightblue" d="M126.875,-79.0371C155.583,-88.876 193.707,-101.942 226.491,-113.178"/>
<polygon fill="midnightblue" stroke="midnightblue" points="225.435,-116.515 236.029,-116.447 227.704,-109.894 225.435,-116.515"/>
</g>
<!-- Node6 -->
<g id="node6" class="node"><title>Node6</title>
<g id="a_node6"><a xlink:href="../../dc/d36/classcommands_1_1templates_1_1_turtle_command.html#ae4d2a640c2db20e624d831deed30484d" target="_top" xlink:title="commands.templates.Turtle\lCommand.getMyTurtleManager">
<polygon fill="white" stroke="black" points="213.5,-49 213.5,-79 380.5,-79 380.5,-49 213.5,-49"/>
<text text-anchor="start" x="221.5" y="-67" font-family="Helvetica,sans-Serif" font-size="10.00">commands.templates.Turtle</text>
<text text-anchor="middle" x="297" y="-56" font-family="Helvetica,sans-Serif" font-size="10.00">Command.getMyTurtleManager</text>
</a>
</g>
</g>
<!-- Node1&#45;&gt;Node6 -->
<g id="edge5" class="edge"><title>Node1&#45;&gt;Node6</title>
<path fill="none" stroke="midnightblue" d="M164.134,-64C176.843,-64 190.064,-64 203.013,-64"/>
<polygon fill="midnightblue" stroke="midnightblue" points="203.326,-67.5001 213.326,-64 203.326,-60.5001 203.326,-67.5001"/>
</g>
<!-- Node8 -->
<g id="node8" class="node"><title>Node8</title>
<g id="a_node8"><a xlink:href="../../d5/d62/classcommands_1_1templates_1_1_command.html#a97358158dd12c0a83a49df3c1e379790" target="_top" xlink:title="commands.templates.Command.get\lValue">
<polygon fill="white" stroke="black" points="200,-0 200,-30 394,-30 394,-0 200,-0"/>
<text text-anchor="start" x="208" y="-18" font-family="Helvetica,sans-Serif" font-size="10.00">commands.templates.Command.get</text>
<text text-anchor="middle" x="297" y="-7" font-family="Helvetica,sans-Serif" font-size="10.00">Value</text>
</a>
</g>
</g>
<!-- Node1&#45;&gt;Node8 -->
<g id="edge7" class="edge"><title>Node1&#45;&gt;Node8</title>
<path fill="none" stroke="midnightblue" d="M148.355,-48.9654C171.253,-43.6976 197.151,-37.7399 220.791,-32.3016"/>
<polygon fill="midnightblue" stroke="midnightblue" points="221.808,-35.6591 230.769,-30.0062 220.239,-28.8373 221.808,-35.6591"/>
</g>
<!-- Node3 -->
<g id="node3" class="node"><title>Node3</title>
<g id="a_node3"><a xlink:href="../../d5/d62/classcommands_1_1templates_1_1_command.html#ae48716b79da0af7e6815fbe6fc113075" target="_top" xlink:title="commands.templates.Command.get\lMyChildren">
<polygon fill="white" stroke="black" points="430,-181 430,-211 624,-211 624,-181 430,-181"/>
<text text-anchor="start" x="438" y="-199" font-family="Helvetica,sans-Serif" font-size="10.00">commands.templates.Command.get</text>
<text text-anchor="middle" x="527" y="-188" font-family="Helvetica,sans-Serif" font-size="10.00">MyChildren</text>
</a>
</g>
</g>
<!-- Node2&#45;&gt;Node3 -->
<g id="edge2" class="edge"><title>Node2&#45;&gt;Node3</title>
<path fill="none" stroke="midnightblue" d="M377.423,-157.553C403.632,-164.335 432.533,-171.813 457.825,-178.358"/>
<polygon fill="midnightblue" stroke="midnightblue" points="457.133,-181.794 467.691,-180.911 458.886,-175.018 457.133,-181.794"/>
</g>
<!-- Node4 -->
<g id="node4" class="node"><title>Node4</title>
<g id="a_node4"><a xlink:href="../../d4/d07/classback_end_1_1turtle_1_1_turtle_manager.html#abd8e7545c1f29c7714bc7aaf59d3875b" target="_top" xlink:title="backEnd.turtle.TurtleManager.get\lTurtleList">
<polygon fill="white" stroke="black" points="440,-132 440,-162 614,-162 614,-132 440,-132"/>
<text text-anchor="start" x="448" y="-150" font-family="Helvetica,sans-Serif" font-size="10.00">backEnd.turtle.TurtleManager.get</text>
<text text-anchor="middle" x="527" y="-139" font-family="Helvetica,sans-Serif" font-size="10.00">TurtleList</text>
</a>
</g>
</g>
<!-- Node2&#45;&gt;Node4 -->
<g id="edge3" class="edge"><title>Node2&#45;&gt;Node4</title>
<path fill="none" stroke="midnightblue" d="M392.053,-141.125C404.415,-141.667 417.101,-142.224 429.503,-142.768"/>
<polygon fill="midnightblue" stroke="midnightblue" points="429.697,-146.279 439.841,-143.221 430.004,-139.286 429.697,-146.279"/>
</g>
<!-- Node5 -->
<g id="node5" class="node"><title>Node5</title>
<g id="a_node5"><a xlink:href="../../d5/d62/classcommands_1_1templates_1_1_command.html#a632193b631b368f6ffbc514865f062e5" target="_top" xlink:title="commands.templates.Command.set\lValue">
<polygon fill="white" stroke="black" points="430,-83 430,-113 624,-113 624,-83 430,-83"/>
<text text-anchor="start" x="438" y="-101" font-family="Helvetica,sans-Serif" font-size="10.00">commands.templates.Command.set</text>
<text text-anchor="middle" x="527" y="-90" font-family="Helvetica,sans-Serif" font-size="10.00">Value</text>
</a>
</g>
</g>
<!-- Node2&#45;&gt;Node5 -->
<g id="edge4" class="edge"><title>Node2&#45;&gt;Node5</title>
<path fill="none" stroke="midnightblue" d="M392.053,-120.912C403.936,-118.879 416.118,-116.796 428.06,-114.753"/>
<polygon fill="midnightblue" stroke="midnightblue" points="428.756,-118.185 438.023,-113.049 427.576,-111.285 428.756,-118.185"/>
</g>
<!-- Node7 -->
<g id="node7" class="node"><title>Node7</title>
<g id="a_node7"><a xlink:href="../../d9/d98/classback_end_1_1_model.html#a1f54b1acaee5f2f608376ce454fa82f2" target="_top" xlink:title="backEnd.Model.getTurtleManager">
<polygon fill="white" stroke="black" points="439.5,-44.5 439.5,-63.5 614.5,-63.5 614.5,-44.5 439.5,-44.5"/>
<text text-anchor="middle" x="527" y="-51.5" font-family="Helvetica,sans-Serif" font-size="10.00">backEnd.Model.getTurtleManager</text>
</a>
</g>
</g>
<!-- Node6&#45;&gt;Node7 -->
<g id="edge6" class="edge"><title>Node6&#45;&gt;Node7</title>
<path fill="none" stroke="midnightblue" d="M380.636,-60.3756C396.466,-59.6813 413.172,-58.9486 429.396,-58.237"/>
<polygon fill="midnightblue" stroke="midnightblue" points="429.586,-61.7321 439.423,-57.7972 429.279,-54.7389 429.586,-61.7321"/>
</g>
</g>
</svg>
