<?xml version="1.0" encoding="UTF-8" standalone="no"?>
<!DOCTYPE svg PUBLIC "-//W3C//DTD SVG 1.1//EN"
 "http://www.w3.org/Graphics/SVG/1.1/DTD/svg11.dtd">
<!-- Generated by graphviz version 2.36.0 (20140111.2315)
 -->
<!-- Title: titlePanes.VariableTitlePane.updateVariables Pages: 1 -->
<svg width="1510pt" height="177pt"
 viewBox="0.00 0.00 1510.00 177.00" xmlns="http://www.w3.org/2000/svg" xmlns:xlink="http://www.w3.org/1999/xlink">
<g id="graph0" class="graph" transform="scale(1 1) rotate(0) translate(4 173)">
<title>titlePanes.VariableTitlePane.updateVariables</title>
<polygon fill="white" stroke="none" points="-4,4 -4,-173 1506,-173 1506,4 -4,4"/>
<!-- Node1 -->
<g id="node1" class="node"><title>Node1</title>
<polygon fill="#bfbfbf" stroke="black" points="0,-60 0,-90 124,-90 124,-60 0,-60"/>
<text text-anchor="start" x="8" y="-78" font-family="Helvetica,sans-Serif" font-size="10.00">titlePanes.VariableTitle</text>
<text text-anchor="middle" x="62" y="-67" font-family="Helvetica,sans-Serif" font-size="10.00">Pane.updateVariables</text>
</g>
<!-- Node2 -->
<g id="node2" class="node"><title>Node2</title>
<g id="a_node2"><a xlink:href="../../d8/dfc/classpanels_1_1_parameter_panel.html#a0bf8e32fe635c48c8a057062e0534b62" target="_top" xlink:title="panels.ParameterPanel.update\lVariables">
<polygon fill="white" stroke="black" points="160,-60 160,-90 324,-90 324,-60 160,-60"/>
<text text-anchor="start" x="168" y="-78" font-family="Helvetica,sans-Serif" font-size="10.00">panels.ParameterPanel.update</text>
<text text-anchor="middle" x="242" y="-67" font-family="Helvetica,sans-Serif" font-size="10.00">Variables</text>
</a>
</g>
</g>
<!-- Node1&#45;&gt;Node2 -->
<g id="edge1" class="edge"><title>Node1&#45;&gt;Node2</title>
<path fill="none" stroke="midnightblue" d="M134.349,-75C142.728,-75 151.325,-75 159.825,-75"/>
<polygon fill="midnightblue" stroke="midnightblue" points="134.258,-71.5001 124.258,-75 134.257,-78.5001 134.258,-71.5001"/>
</g>
<!-- Node3 -->
<g id="node3" class="node"><title>Node3</title>
<g id="a_node3"><a xlink:href="../../d8/d1f/classfront_end_1_1_view.html#a59fa2dbe984da3217324979184d00559" target="_top" xlink:title="frontEnd.View.updateVariables">
<polygon fill="white" stroke="black" points="360.5,-65.5 360.5,-84.5 521.5,-84.5 521.5,-65.5 360.5,-65.5"/>
<text text-anchor="middle" x="441" y="-72.5" font-family="Helvetica,sans-Serif" font-size="10.00">frontEnd.View.updateVariables</text>
</a>
</g>
</g>
<!-- Node2&#45;&gt;Node3 -->
<g id="edge2" class="edge"><title>Node2&#45;&gt;Node3</title>
<path fill="none" stroke="midnightblue" d="M334.346,-75C342.977,-75 351.681,-75 360.192,-75"/>
<polygon fill="midnightblue" stroke="midnightblue" points="334.265,-71.5001 324.265,-75 334.265,-78.5001 334.265,-71.5001"/>
</g>
<!-- Node4 -->
<g id="node4" class="node"><title>Node4</title>
<g id="a_node4"><a xlink:href="../../d9/d49/classback_end_1_1_controller.html#ad650f48d236eaf11c2d8591b04831900" target="_top" xlink:title="backEnd.Controller.runScript">
<polygon fill="white" stroke="black" points="558,-65.5 558,-84.5 710,-84.5 710,-65.5 558,-65.5"/>
<text text-anchor="middle" x="634" y="-72.5" font-family="Helvetica,sans-Serif" font-size="10.00">backEnd.Controller.runScript</text>
</a>
</g>
</g>
<!-- Node3&#45;&gt;Node4 -->
<g id="edge3" class="edge"><title>Node3&#45;&gt;Node4</title>
<path fill="none" stroke="midnightblue" d="M531.787,-75C540.489,-75 549.254,-75 557.793,-75"/>
<polygon fill="midnightblue" stroke="midnightblue" points="531.618,-71.5001 521.618,-75 531.618,-78.5001 531.618,-71.5001"/>
</g>
<!-- Node5 -->
<g id="node5" class="node"><title>Node5</title>
<g id="a_node5"><a xlink:href="../../de/d03/classpanels_1_1_script_panel.html#ae6ae56472ef1a975597bad69844662c6" target="_top" xlink:title="panels.ScriptPanel.handler">
<polygon fill="white" stroke="black" points="748.5,-130.5 748.5,-149.5 891.5,-149.5 891.5,-130.5 748.5,-130.5"/>
<text text-anchor="middle" x="820" y="-137.5" font-family="Helvetica,sans-Serif" font-size="10.00">panels.ScriptPanel.handler</text>
</a>
</g>
</g>
<!-- Node4&#45;&gt;Node5 -->
<g id="edge4" class="edge"><title>Node4&#45;&gt;Node5</title>
<path fill="none" stroke="midnightblue" d="M671.673,-87.9552C707.198,-100.505 760.232,-119.24 792.039,-130.476"/>
<polygon fill="midnightblue" stroke="midnightblue" points="672.745,-84.6218 662.15,-84.591 670.413,-91.2221 672.745,-84.6218"/>
</g>
<!-- Node7 -->
<g id="node7" class="node"><title>Node7</title>
<g id="a_node7"><a xlink:href="../../da/d04/classtitle_panes_1_1_control_title_pane.html#af28eba60fefe51c70e763d51d9123ea3" target="_top" xlink:title="titlePanes.ControlTitlePane.make\lLocationFields">
<polygon fill="white" stroke="black" points="1146.5,-0 1146.5,-30 1319.5,-30 1319.5,-0 1146.5,-0"/>
<text text-anchor="start" x="1154.5" y="-18" font-family="Helvetica,sans-Serif" font-size="10.00">titlePanes.ControlTitlePane.make</text>
<text text-anchor="middle" x="1233" y="-7" font-family="Helvetica,sans-Serif" font-size="10.00">LocationFields</text>
</a>
</g>
</g>
<!-- Node4&#45;&gt;Node7 -->
<g id="edge6" class="edge"><title>Node4&#45;&gt;Node7</title>
<path fill="none" stroke="midnightblue" d="M695.177,-63.7364C711.616,-60.9228 729.457,-58.1097 746,-56 885.641,-38.1916 1048.88,-26.222 1146.17,-20.018"/>
<polygon fill="midnightblue" stroke="midnightblue" points="694.399,-60.3191 685.147,-65.4821 695.599,-67.2155 694.399,-60.3191"/>
</g>
<!-- Node9 -->
<g id="node9" class="node"><title>Node9</title>
<g id="a_node9"><a xlink:href="../../d9/d49/classback_end_1_1_controller.html#a3b0bbf0a084bb4fb63d118f66e7327b1" target="_top" xlink:title="backEnd.Controller.move10">
<polygon fill="white" stroke="black" points="746,-65.5 746,-84.5 894,-84.5 894,-65.5 746,-65.5"/>
<text text-anchor="middle" x="820" y="-72.5" font-family="Helvetica,sans-Serif" font-size="10.00">backEnd.Controller.move10</text>
</a>
</g>
</g>
<!-- Node4&#45;&gt;Node9 -->
<g id="edge8" class="edge"><title>Node4&#45;&gt;Node9</title>
<path fill="none" stroke="midnightblue" d="M720.156,-75C728.765,-75 737.454,-75 745.92,-75"/>
<polygon fill="midnightblue" stroke="midnightblue" points="720.105,-71.5001 710.105,-75 720.105,-78.5001 720.105,-71.5001"/>
</g>
<!-- Node6 -->
<g id="node6" class="node"><title>Node6</title>
<g id="a_node6"><a xlink:href="../../de/d03/classpanels_1_1_script_panel.html#ac959f1785cff7409d857d3bea9b8ee63" target="_top" xlink:title="panels.ScriptPanel.Script\lPanel">
<polygon fill="white" stroke="black" points="952.5,-139 952.5,-169 1087.5,-169 1087.5,-139 952.5,-139"/>
<text text-anchor="start" x="960.5" y="-157" font-family="Helvetica,sans-Serif" font-size="10.00">panels.ScriptPanel.Script</text>
<text text-anchor="middle" x="1020" y="-146" font-family="Helvetica,sans-Serif" font-size="10.00">Panel</text>
</a>
</g>
</g>
<!-- Node5&#45;&gt;Node6 -->
<g id="edge5" class="edge"><title>Node5&#45;&gt;Node6</title>
<path fill="none" stroke="midnightblue" d="M901.965,-145.725C918.719,-146.909 936.185,-148.144 952.358,-149.288"/>
<polygon fill="midnightblue" stroke="midnightblue" points="901.866,-142.209 891.644,-144.995 901.372,-149.192 901.866,-142.209"/>
</g>
<!-- Node8 -->
<g id="node8" class="node"><title>Node8</title>
<g id="a_node8"><a xlink:href="../../da/d04/classtitle_panes_1_1_control_title_pane.html#ad9d4431a2657a30fedae46e0c9093867" target="_top" xlink:title="titlePanes.ControlTitlePane.\lControlTitlePane">
<polygon fill="white" stroke="black" points="1356,-24 1356,-54 1502,-54 1502,-24 1356,-24"/>
<text text-anchor="start" x="1364" y="-42" font-family="Helvetica,sans-Serif" font-size="10.00">titlePanes.ControlTitlePane.</text>
<text text-anchor="middle" x="1429" y="-31" font-family="Helvetica,sans-Serif" font-size="10.00">ControlTitlePane</text>
</a>
</g>
</g>
<!-- Node7&#45;&gt;Node8 -->
<g id="edge7" class="edge"><title>Node7&#45;&gt;Node8</title>
<path fill="none" stroke="midnightblue" d="M1329.6,-26.8271C1338.43,-27.9193 1347.28,-29.0135 1355.84,-30.0734"/>
<polygon fill="midnightblue" stroke="midnightblue" points="1330.01,-23.3509 1319.66,-25.5966 1329.15,-30.298 1330.01,-23.3509"/>
</g>
<!-- Node10 -->
<g id="node10" class="node"><title>Node10</title>
<g id="a_node10"><a xlink:href="../../d9/d49/classback_end_1_1_controller.html#a7893477f39915a5169eb8da0dff60628" target="_top" xlink:title="backEnd.Controller.build\lKeyListener">
<polygon fill="white" stroke="black" points="954.5,-90 954.5,-120 1085.5,-120 1085.5,-90 954.5,-90"/>
<text text-anchor="start" x="962.5" y="-108" font-family="Helvetica,sans-Serif" font-size="10.00">backEnd.Controller.build</text>
<text text-anchor="middle" x="1020" y="-97" font-family="Helvetica,sans-Serif" font-size="10.00">KeyListener</text>
</a>
</g>
</g>
<!-- Node9&#45;&gt;Node10 -->
<g id="edge9" class="edge"><title>Node9&#45;&gt;Node10</title>
<path fill="none" stroke="midnightblue" d="M894.076,-86.0721C913.787,-89.0587 934.974,-92.2687 954.198,-95.1816"/>
<polygon fill="midnightblue" stroke="midnightblue" points="894.332,-82.571 883.92,-84.5334 893.283,-89.492 894.332,-82.571"/>
</g>
<!-- Node12 -->
<g id="node12" class="node"><title>Node12</title>
<g id="a_node12"><a xlink:href="../../da/d04/classtitle_panes_1_1_control_title_pane.html#ae994c7b4dd988b30fc824e9e893b3ccf" target="_top" xlink:title="titlePanes.ControlTitlePane.handle">
<polygon fill="white" stroke="black" points="930.5,-51.5 930.5,-70.5 1109.5,-70.5 1109.5,-51.5 930.5,-51.5"/>
<text text-anchor="middle" x="1020" y="-58.5" font-family="Helvetica,sans-Serif" font-size="10.00">titlePanes.ControlTitlePane.handle</text>
</a>
</g>
</g>
<!-- Node9&#45;&gt;Node12 -->
<g id="edge11" class="edge"><title>Node9&#45;&gt;Node12</title>
<path fill="none" stroke="midnightblue" d="M904.219,-69.1158C912.862,-68.5047 921.669,-67.882 930.369,-67.2668"/>
<polygon fill="midnightblue" stroke="midnightblue" points="903.894,-65.63 894.165,-69.8267 904.387,-72.6126 903.894,-65.63"/>
</g>
<!-- Node11 -->
<g id="node11" class="node"><title>Node11</title>
<g id="a_node11"><a xlink:href="../../d9/d49/classback_end_1_1_controller.html#a987136eaba0798749f393bac2a9a2400" target="_top" xlink:title="backEnd.Controller.Controller">
<polygon fill="white" stroke="black" points="1155.5,-98.5 1155.5,-117.5 1310.5,-117.5 1310.5,-98.5 1155.5,-98.5"/>
<text text-anchor="middle" x="1233" y="-105.5" font-family="Helvetica,sans-Serif" font-size="10.00">backEnd.Controller.Controller</text>
</a>
</g>
</g>
<!-- Node10&#45;&gt;Node11 -->
<g id="edge10" class="edge"><title>Node10&#45;&gt;Node11</title>
<path fill="none" stroke="midnightblue" d="M1095.94,-106.065C1115.15,-106.339 1135.84,-106.633 1155.15,-106.907"/>
<polygon fill="midnightblue" stroke="midnightblue" points="1095.79,-102.563 1085.74,-105.92 1095.69,-109.562 1095.79,-102.563"/>
</g>
<!-- Node12&#45;&gt;Node7 -->
<g id="edge14" class="edge"><title>Node12&#45;&gt;Node7</title>
<path fill="none" stroke="midnightblue" d="M1074.69,-49.2945C1101.53,-43.4436 1134.32,-36.2957 1163,-30.0427"/>
<polygon fill="midnightblue" stroke="midnightblue" points="1073.74,-45.919 1064.72,-51.4688 1075.24,-52.7583 1073.74,-45.919"/>
</g>
<!-- Node13 -->
<g id="node13" class="node"><title>Node13</title>
<g id="a_node13"><a xlink:href="../../da/d04/classtitle_panes_1_1_control_title_pane.html#a974c75cbdf64007af637c8b19a26b215" target="_top" xlink:title="titlePanes.ControlTitlePane.make\lButtons">
<polygon fill="white" stroke="black" points="1146.5,-49 1146.5,-79 1319.5,-79 1319.5,-49 1146.5,-49"/>
<text text-anchor="start" x="1154.5" y="-67" font-family="Helvetica,sans-Serif" font-size="10.00">titlePanes.ControlTitlePane.make</text>
<text text-anchor="middle" x="1233" y="-56" font-family="Helvetica,sans-Serif" font-size="10.00">Buttons</text>
</a>
</g>
</g>
<!-- Node12&#45;&gt;Node13 -->
<g id="edge12" class="edge"><title>Node12&#45;&gt;Node13</title>
<path fill="none" stroke="midnightblue" d="M1119.61,-62.4021C1128.55,-62.5291 1137.55,-62.6571 1146.36,-62.7824"/>
<polygon fill="midnightblue" stroke="midnightblue" points="1119.61,-58.9018 1109.57,-62.2592 1119.52,-65.9011 1119.61,-58.9018"/>
</g>
<!-- Node13&#45;&gt;Node8 -->
<g id="edge13" class="edge"><title>Node13&#45;&gt;Node8</title>
<path fill="none" stroke="midnightblue" d="M1329.6,-51.6801C1338.43,-50.5423 1347.28,-49.4026 1355.84,-48.2985"/>
<polygon fill="midnightblue" stroke="midnightblue" points="1329.13,-48.2124 1319.66,-52.9619 1330.02,-55.155 1329.13,-48.2124"/>
</g>
</g>
</svg>
