<?xml version="1.0" encoding="UTF-8" standalone="no"?>
<!DOCTYPE svg PUBLIC "-//W3C//DTD SVG 1.1//EN"
 "http://www.w3.org/Graphics/SVG/1.1/DTD/svg11.dtd">
<!-- Generated by graphviz version 2.36.0 (20140111.2315)
 -->
<!-- Title: backEnd.Model.setBackgroundIndex Pages: 1 -->
<svg width="398pt" height="38pt"
 viewBox="0.00 0.00 398.00 38.00" xmlns="http://www.w3.org/2000/svg" xmlns:xlink="http://www.w3.org/1999/xlink">
<g id="graph0" class="graph" transform="scale(1 1) rotate(0) translate(4 34)">
<title>backEnd.Model.setBackgroundIndex</title>
<polygon fill="white" stroke="none" points="-4,4 -4,-34 394,-34 394,4 -4,4"/>
<!-- Node1 -->
<g id="node1" class="node"><title>Node1</title>
<polygon fill="#bfbfbf" stroke="black" points="0,-0 0,-30 164,-30 164,-0 0,-0"/>
<text text-anchor="start" x="8" y="-18" font-family="Helvetica,sans-Serif" font-size="10.00">backEnd.Model.setBackground</text>
<text text-anchor="middle" x="82" y="-7" font-family="Helvetica,sans-Serif" font-size="10.00">Index</text>
</g>
<!-- Node2 -->
<g id="node2" class="node"><title>Node2</title>
<g id="a_node2"><a xlink:href="../../d4/d23/classcommands_1_1onechild_1_1_set_background_command.html#a4c9aef6528ef2c99c5197c5580dd8177" target="_top" xlink:title="commands.onechild.SetBackground\lCommand.execute">
<polygon fill="white" stroke="black" points="200,-0 200,-30 390,-30 390,-0 200,-0"/>
<text text-anchor="start" x="208" y="-18" font-family="Helvetica,sans-Serif" font-size="10.00">commands.onechild.SetBackground</text>
<text text-anchor="middle" x="295" y="-7" font-family="Helvetica,sans-Serif" font-size="10.00">Command.execute</text>
</a>
</g>
</g>
<!-- Node1&#45;&gt;Node2 -->
<g id="edge1" class="edge"><title>Node1&#45;&gt;Node2</title>
<path fill="none" stroke="midnightblue" d="M174.433,-15C182.82,-15 191.329,-15 199.741,-15"/>
<polygon fill="midnightblue" stroke="midnightblue" points="174.276,-11.5001 164.276,-15 174.276,-18.5001 174.276,-11.5001"/>
</g>
</g>
</svg>
