<?xml version="1.0" encoding="UTF-8" standalone="no"?>
<!DOCTYPE svg PUBLIC "-//W3C//DTD SVG 1.1//EN"
 "http://www.w3.org/Graphics/SVG/1.1/DTD/svg11.dtd">
<!-- Generated by graphviz version 2.36.0 (20140111.2315)
 -->
<!-- Title: backEnd.Model.getTurtleManager Pages: 1 -->
<svg width="848pt" height="1459pt"
 viewBox="0.00 0.00 848.00 1459.00" xmlns="http://www.w3.org/2000/svg" xmlns:xlink="http://www.w3.org/1999/xlink">
<g id="graph0" class="graph" transform="scale(1 1) rotate(0) translate(4 1455)">
<title>backEnd.Model.getTurtleManager</title>
<polygon fill="white" stroke="none" points="-4,4 -4,-1455 844,-1455 844,4 -4,4"/>
<!-- Node1 -->
<g id="node1" class="node"><title>Node1</title>
<polygon fill="#bfbfbf" stroke="black" points="0.5,-715.5 0.5,-734.5 175.5,-734.5 175.5,-715.5 0.5,-715.5"/>
<text text-anchor="middle" x="88" y="-722.5" font-family="Helvetica,sans-Serif" font-size="10.00">backEnd.Model.getTurtleManager</text>
</g>
<!-- Node2 -->
<g id="node2" class="node"><title>Node2</title>
<g id="a_node2"><a xlink:href="../../dc/d36/classcommands_1_1templates_1_1_turtle_command.html#ae4d2a640c2db20e624d831deed30484d" target="_top" xlink:title="commands.templates.Turtle\lCommand.getMyTurtleManager">
<polygon fill="white" stroke="black" points="212.5,-710 212.5,-740 379.5,-740 379.5,-710 212.5,-710"/>
<text text-anchor="start" x="220.5" y="-728" font-family="Helvetica,sans-Serif" font-size="10.00">commands.templates.Turtle</text>
<text text-anchor="middle" x="296" y="-717" font-family="Helvetica,sans-Serif" font-size="10.00">Command.getMyTurtleManager</text>
</a>
</g>
</g>
<!-- Node1&#45;&gt;Node2 -->
<g id="edge1" class="edge"><title>Node1&#45;&gt;Node2</title>
<path fill="none" stroke="midnightblue" d="M186.028,-725C194.806,-725 203.643,-725 212.281,-725"/>
<polygon fill="midnightblue" stroke="midnightblue" points="185.766,-721.5 175.765,-725 185.765,-728.5 185.766,-721.5"/>
</g>
<!-- Node3 -->
<g id="node3" class="node"><title>Node3</title>
<g id="a_node3"><a xlink:href="../../da/d20/classcommands_1_1turtle__commands_1_1_ask_command.html#a9f668e7b2778cf4241b59b11db58e211" target="_top" xlink:title="commands.turtle_commands.\lAskCommand.execute">
<polygon fill="white" stroke="black" points="418.5,-1421 418.5,-1451 579.5,-1451 579.5,-1421 418.5,-1421"/>
<text text-anchor="start" x="426.5" y="-1439" font-family="Helvetica,sans-Serif" font-size="10.00">commands.turtle_commands.</text>
<text text-anchor="middle" x="499" y="-1428" font-family="Helvetica,sans-Serif" font-size="10.00">AskCommand.execute</text>
</a>
</g>
</g>
<!-- Node2&#45;&gt;Node3 -->
<g id="edge2" class="edge"><title>Node2&#45;&gt;Node3</title>
<path fill="none" stroke="midnightblue" d="M297.94,-750.358C302.581,-862.126 326.566,-1309.71 416,-1411 419.349,-1414.79 423.255,-1418.02 427.511,-1420.76"/>
<polygon fill="midnightblue" stroke="midnightblue" points="301.425,-749.911 297.528,-740.058 294.43,-750.19 301.425,-749.911"/>
</g>
<!-- Node4 -->
<g id="node4" class="node"><title>Node4</title>
<g id="a_node4"><a xlink:href="../../d0/d5e/classcommands_1_1turtle__commands_1_1_ask_with_command.html#aed74c73cf16407cb097ecbcbd0110ecb" target="_top" xlink:title="commands.turtle_commands.\lAskWithCommand.execute">
<polygon fill="white" stroke="black" points="418.5,-1372 418.5,-1402 579.5,-1402 579.5,-1372 418.5,-1372"/>
<text text-anchor="start" x="426.5" y="-1390" font-family="Helvetica,sans-Serif" font-size="10.00">commands.turtle_commands.</text>
<text text-anchor="middle" x="499" y="-1379" font-family="Helvetica,sans-Serif" font-size="10.00">AskWithCommand.execute</text>
</a>
</g>
</g>
<!-- Node2&#45;&gt;Node4 -->
<g id="edge3" class="edge"><title>Node2&#45;&gt;Node4</title>
<path fill="none" stroke="midnightblue" d="M298.303,-750.249C304.298,-856.837 332.6,-1268.77 416,-1362 419.473,-1365.88 423.529,-1369.17 427.944,-1371.95"/>
<polygon fill="midnightblue" stroke="midnightblue" points="301.789,-749.902 297.749,-740.108 294.8,-750.284 301.789,-749.902"/>
</g>
<!-- Node5 -->
<g id="node5" class="node"><title>Node5</title>
<g id="a_node5"><a xlink:href="../../da/d66/classcommands_1_1turtle__commands_1_1_back_command.html#a6064fe4c8969503827730da561c9a7da" target="_top" xlink:title="commands.turtle_commands.\lBackCommand.execute">
<polygon fill="white" stroke="black" points="418.5,-1323 418.5,-1353 579.5,-1353 579.5,-1323 418.5,-1323"/>
<text text-anchor="start" x="426.5" y="-1341" font-family="Helvetica,sans-Serif" font-size="10.00">commands.turtle_commands.</text>
<text text-anchor="middle" x="499" y="-1330" font-family="Helvetica,sans-Serif" font-size="10.00">BackCommand.execute</text>
</a>
</g>
</g>
<!-- Node2&#45;&gt;Node5 -->
<g id="edge4" class="edge"><title>Node2&#45;&gt;Node5</title>
<path fill="none" stroke="midnightblue" d="M298.73,-750.236C306.168,-851.607 338.64,-1227.81 416,-1313 419.502,-1316.86 423.579,-1320.13 428.009,-1322.9"/>
<polygon fill="midnightblue" stroke="midnightblue" points="302.204,-749.748 297.997,-740.024 295.222,-750.248 302.204,-749.748"/>
</g>
<!-- Node6 -->
<g id="node6" class="node"><title>Node6</title>
<g id="a_node6"><a xlink:href="../../df/d09/classcommands_1_1turtle__commands_1_1_clear_command.html#a320f36405c7df1c95f2b14072ee69121" target="_top" xlink:title="commands.turtle_commands.\lClearCommand.execute">
<polygon fill="white" stroke="black" points="418.5,-1274 418.5,-1304 579.5,-1304 579.5,-1274 418.5,-1274"/>
<text text-anchor="start" x="426.5" y="-1292" font-family="Helvetica,sans-Serif" font-size="10.00">commands.turtle_commands.</text>
<text text-anchor="middle" x="499" y="-1281" font-family="Helvetica,sans-Serif" font-size="10.00">ClearCommand.execute</text>
</a>
</g>
</g>
<!-- Node2&#45;&gt;Node6 -->
<g id="edge5" class="edge"><title>Node2&#45;&gt;Node6</title>
<path fill="none" stroke="midnightblue" d="M299.236,-750.277C308.219,-846.289 344.672,-1186.83 416,-1264 419.536,-1267.83 423.637,-1271.07 428.084,-1273.83"/>
<polygon fill="midnightblue" stroke="midnightblue" points="302.697,-749.693 298.298,-740.054 295.727,-750.332 302.697,-749.693"/>
</g>
<!-- Node7 -->
<g id="node7" class="node"><title>Node7</title>
<g id="a_node7"><a xlink:href="../../d4/d6b/classcommands_1_1turtle__commands_1_1_clear_stamp_command.html#a1bd5a213993e5208bedf1e0263b8b313" target="_top" xlink:title="commands.turtle_commands.\lClearStampCommand.execute">
<polygon fill="white" stroke="black" points="416.5,-1225 416.5,-1255 581.5,-1255 581.5,-1225 416.5,-1225"/>
<text text-anchor="start" x="424.5" y="-1243" font-family="Helvetica,sans-Serif" font-size="10.00">commands.turtle_commands.</text>
<text text-anchor="middle" x="499" y="-1232" font-family="Helvetica,sans-Serif" font-size="10.00">ClearStampCommand.execute</text>
</a>
</g>
</g>
<!-- Node2&#45;&gt;Node7 -->
<g id="edge6" class="edge"><title>Node2&#45;&gt;Node7</title>
<path fill="none" stroke="midnightblue" d="M299.841,-750.302C310.471,-840.67 350.672,-1145.79 416,-1215 419.678,-1218.9 423.943,-1222.19 428.557,-1224.98"/>
<polygon fill="midnightblue" stroke="midnightblue" points="303.292,-749.68 298.665,-740.148 296.339,-750.485 303.292,-749.68"/>
</g>
<!-- Node8 -->
<g id="node8" class="node"><title>Node8</title>
<g id="a_node8"><a xlink:href="../../db/d31/classcommands_1_1turtle__commands_1_1_forward_command.html#a7b9e64ff5e8f0bacbebc88db90a682bc" target="_top" xlink:title="commands.turtle_commands.\lForwardCommand.execute">
<polygon fill="white" stroke="black" points="418.5,-1176 418.5,-1206 579.5,-1206 579.5,-1176 418.5,-1176"/>
<text text-anchor="start" x="426.5" y="-1194" font-family="Helvetica,sans-Serif" font-size="10.00">commands.turtle_commands.</text>
<text text-anchor="middle" x="499" y="-1183" font-family="Helvetica,sans-Serif" font-size="10.00">ForwardCommand.execute</text>
</a>
</g>
</g>
<!-- Node2&#45;&gt;Node8 -->
<g id="edge7" class="edge"><title>Node2&#45;&gt;Node8</title>
<path fill="none" stroke="midnightblue" d="M300.521,-749.95C312.848,-833.944 356.551,-1104.6 416,-1166 419.727,-1169.85 424.027,-1173.11 428.666,-1175.87"/>
<polygon fill="midnightblue" stroke="midnightblue" points="303.98,-749.409 299.082,-740.014 297.052,-750.413 303.98,-749.409"/>
</g>
<!-- Node9 -->
<g id="node9" class="node"><title>Node9</title>
<g id="a_node9"><a xlink:href="../../d9/db0/classcommands_1_1turtle__commands_1_1_get_shape_command.html#a4586179e0bc294584046bd557aa45c0e" target="_top" xlink:title="commands.turtle_commands.\lGetShapeCommand.execute">
<polygon fill="white" stroke="black" points="418.5,-1127 418.5,-1157 579.5,-1157 579.5,-1127 418.5,-1127"/>
<text text-anchor="start" x="426.5" y="-1145" font-family="Helvetica,sans-Serif" font-size="10.00">commands.turtle_commands.</text>
<text text-anchor="middle" x="499" y="-1134" font-family="Helvetica,sans-Serif" font-size="10.00">GetShapeCommand.execute</text>
</a>
</g>
</g>
<!-- Node2&#45;&gt;Node9 -->
<g id="edge8" class="edge"><title>Node2&#45;&gt;Node9</title>
<path fill="none" stroke="midnightblue" d="M296.966,-750.684C298.308,-819.988 311.733,-1012.61 416,-1117 419.892,-1120.9 424.371,-1124.19 429.187,-1126.97"/>
<polygon fill="midnightblue" stroke="midnightblue" points="300.461,-750.25 296.841,-740.293 293.462,-750.334 300.461,-750.25"/>
</g>
<!-- Node10 -->
<g id="node10" class="node"><title>Node10</title>
<g id="a_node10"><a xlink:href="../../da/d19/classcommands_1_1turtle__commands_1_1_heading_query.html#aeff9f68af56b6777c04ae21e08375fee" target="_top" xlink:title="commands.turtle_commands.\lHeadingQuery.execute">
<polygon fill="white" stroke="black" points="418.5,-1078 418.5,-1108 579.5,-1108 579.5,-1078 418.5,-1078"/>
<text text-anchor="start" x="426.5" y="-1096" font-family="Helvetica,sans-Serif" font-size="10.00">commands.turtle_commands.</text>
<text text-anchor="middle" x="499" y="-1085" font-family="Helvetica,sans-Serif" font-size="10.00">HeadingQuery.execute</text>
</a>
</g>
</g>
<!-- Node2&#45;&gt;Node10 -->
<g id="edge9" class="edge"><title>Node2&#45;&gt;Node10</title>
<path fill="none" stroke="midnightblue" d="M298.253,-750.448C302.754,-813.58 323.259,-978.719 416,-1068 419.967,-1071.82 424.5,-1075.06 429.353,-1077.8"/>
<polygon fill="midnightblue" stroke="midnightblue" points="301.73,-749.976 297.603,-740.218 294.744,-750.42 301.73,-749.976"/>
</g>
<!-- Node11 -->
<g id="node11" class="node"><title>Node11</title>
<g id="a_node11"><a xlink:href="../../d6/d23/classcommands_1_1turtle__commands_1_1_hide_turtle_command.html#aaee51dd86735dd045e8c6918c889365c" target="_top" xlink:title="commands.turtle_commands.\lHideTurtleCommand.execute">
<polygon fill="white" stroke="black" points="418.5,-1029 418.5,-1059 579.5,-1059 579.5,-1029 418.5,-1029"/>
<text text-anchor="start" x="426.5" y="-1047" font-family="Helvetica,sans-Serif" font-size="10.00">commands.turtle_commands.</text>
<text text-anchor="middle" x="499" y="-1036" font-family="Helvetica,sans-Serif" font-size="10.00">HideTurtleCommand.execute</text>
</a>
</g>
</g>
<!-- Node2&#45;&gt;Node11 -->
<g id="edge10" class="edge"><title>Node2&#45;&gt;Node11</title>
<path fill="none" stroke="midnightblue" d="M299.91,-750.245C307.78,-806.816 334.689,-944.597 416,-1019 420.172,-1022.82 424.913,-1026.05 429.961,-1028.79"/>
<polygon fill="midnightblue" stroke="midnightblue" points="303.345,-749.519 298.579,-740.057 296.404,-750.426 303.345,-749.519"/>
</g>
<!-- Node12 -->
<g id="node12" class="node"><title>Node12</title>
<g id="a_node12"><a xlink:href="../../dd/dfb/classcommands_1_1turtle__commands_1_1_home_command.html#aef0ad78e6e100992345edaf73ecd78c1" target="_top" xlink:title="commands.turtle_commands.\lHomeCommand.execute">
<polygon fill="white" stroke="black" points="418.5,-980 418.5,-1010 579.5,-1010 579.5,-980 418.5,-980"/>
<text text-anchor="start" x="426.5" y="-998" font-family="Helvetica,sans-Serif" font-size="10.00">commands.turtle_commands.</text>
<text text-anchor="middle" x="499" y="-987" font-family="Helvetica,sans-Serif" font-size="10.00">HomeCommand.execute</text>
</a>
</g>
</g>
<!-- Node2&#45;&gt;Node12 -->
<g id="edge11" class="edge"><title>Node2&#45;&gt;Node12</title>
<path fill="none" stroke="midnightblue" d="M302.162,-750.116C313.647,-799.62 346.012,-910.173 416,-970 420.525,-973.868 425.638,-977.138 431.045,-979.902"/>
<polygon fill="midnightblue" stroke="midnightblue" points="305.554,-749.248 299.964,-740.249 298.722,-750.77 305.554,-749.248"/>
</g>
<!-- Node13 -->
<g id="node13" class="node"><title>Node13</title>
<g id="a_node13"><a xlink:href="../../df/d62/classcommands_1_1turtle__commands_1_1_id_command.html#a07f0df55d06e9fc7ed7cec7edadb327d" target="_top" xlink:title="commands.turtle_commands.\lIdCommand.execute">
<polygon fill="white" stroke="black" points="418.5,-931 418.5,-961 579.5,-961 579.5,-931 418.5,-931"/>
<text text-anchor="start" x="426.5" y="-949" font-family="Helvetica,sans-Serif" font-size="10.00">commands.turtle_commands.</text>
<text text-anchor="middle" x="499" y="-938" font-family="Helvetica,sans-Serif" font-size="10.00">IdCommand.execute</text>
</a>
</g>
</g>
<!-- Node2&#45;&gt;Node13 -->
<g id="edge12" class="edge"><title>Node2&#45;&gt;Node13</title>
<path fill="none" stroke="midnightblue" d="M305.316,-749.686C320.581,-791.259 357.027,-875.18 416,-921 420.936,-924.835 426.46,-928.085 432.245,-930.838"/>
<polygon fill="midnightblue" stroke="midnightblue" points="308.545,-748.321 301.89,-740.077 301.952,-750.672 308.545,-748.321"/>
</g>
<!-- Node14 -->
<g id="node14" class="node"><title>Node14</title>
<g id="a_node14"><a xlink:href="../../d4/dfe/classcommands_1_1turtle__commands_1_1_is_showing_query.html#a36c93017acaed64792e490cfbe929300" target="_top" xlink:title="commands.turtle_commands.\lIsShowingQuery.execute">
<polygon fill="white" stroke="black" points="418.5,-882 418.5,-912 579.5,-912 579.5,-882 418.5,-882"/>
<text text-anchor="start" x="426.5" y="-900" font-family="Helvetica,sans-Serif" font-size="10.00">commands.turtle_commands.</text>
<text text-anchor="middle" x="499" y="-889" font-family="Helvetica,sans-Serif" font-size="10.00">IsShowingQuery.execute</text>
</a>
</g>
</g>
<!-- Node2&#45;&gt;Node14 -->
<g id="edge13" class="edge"><title>Node2&#45;&gt;Node14</title>
<path fill="none" stroke="midnightblue" d="M310.375,-749.314C329.556,-781.96 367.925,-839.595 416,-872 421.677,-875.827 427.961,-879.085 434.452,-881.856"/>
<polygon fill="midnightblue" stroke="midnightblue" points="313.283,-747.35 305.264,-740.425 307.214,-750.839 313.283,-747.35"/>
</g>
<!-- Node15 -->
<g id="node15" class="node"><title>Node15</title>
<g id="a_node15"><a xlink:href="../../d6/d55/classcommands_1_1turtle__commands_1_1_left_command.html#a953dcfa9ea19f47c019dacb50254cc1d" target="_top" xlink:title="commands.turtle_commands.\lLeftCommand.execute">
<polygon fill="white" stroke="black" points="418.5,-833 418.5,-863 579.5,-863 579.5,-833 418.5,-833"/>
<text text-anchor="start" x="426.5" y="-851" font-family="Helvetica,sans-Serif" font-size="10.00">commands.turtle_commands.</text>
<text text-anchor="middle" x="499" y="-840" font-family="Helvetica,sans-Serif" font-size="10.00">LeftCommand.execute</text>
</a>
</g>
</g>
<!-- Node2&#45;&gt;Node15 -->
<g id="edge14" class="edge"><title>Node2&#45;&gt;Node15</title>
<path fill="none" stroke="midnightblue" d="M318.682,-747.417C341.159,-769.485 378.237,-802.74 416,-823 423.082,-826.8 430.825,-830.109 438.635,-832.965"/>
<polygon fill="midnightblue" stroke="midnightblue" points="320.916,-744.701 311.364,-740.117 315.972,-749.657 320.916,-744.701"/>
</g>
<!-- Node16 -->
<g id="node16" class="node"><title>Node16</title>
<g id="a_node16"><a xlink:href="../../d1/d15/classcommands_1_1turtle__commands_1_1_pen_color_command.html#a1f19373d20288564123c75f30de2d0f9" target="_top" xlink:title="commands.turtle_commands.\lPenColorCommand.execute">
<polygon fill="white" stroke="black" points="418.5,-784 418.5,-814 579.5,-814 579.5,-784 418.5,-784"/>
<text text-anchor="start" x="426.5" y="-802" font-family="Helvetica,sans-Serif" font-size="10.00">commands.turtle_commands.</text>
<text text-anchor="middle" x="499" y="-791" font-family="Helvetica,sans-Serif" font-size="10.00">PenColorCommand.execute</text>
</a>
</g>
</g>
<!-- Node2&#45;&gt;Node16 -->
<g id="edge15" class="edge"><title>Node2&#45;&gt;Node16</title>
<path fill="none" stroke="midnightblue" d="M340.277,-743.976C362.681,-753.504 390.595,-764.92 416,-774 425.53,-777.406 435.783,-780.767 445.702,-783.866"/>
<polygon fill="midnightblue" stroke="midnightblue" points="341.606,-740.738 331.036,-740.02 338.851,-747.173 341.606,-740.738"/>
</g>
<!-- Node17 -->
<g id="node17" class="node"><title>Node17</title>
<g id="a_node17"><a xlink:href="../../d6/dad/classcommands_1_1turtle__commands_1_1_pen_down_command.html#ae68eb0c792c3148f505a535a2010c4ca" target="_top" xlink:title="commands.turtle_commands.\lPenDownCommand.execute">
<polygon fill="white" stroke="black" points="418.5,-735 418.5,-765 579.5,-765 579.5,-735 418.5,-735"/>
<text text-anchor="start" x="426.5" y="-753" font-family="Helvetica,sans-Serif" font-size="10.00">commands.turtle_commands.</text>
<text text-anchor="middle" x="499" y="-742" font-family="Helvetica,sans-Serif" font-size="10.00">PenDownCommand.execute</text>
</a>
</g>
</g>
<!-- Node2&#45;&gt;Node17 -->
<g id="edge16" class="edge"><title>Node2&#45;&gt;Node17</title>
<path fill="none" stroke="midnightblue" d="M389.571,-736.514C399.164,-737.707 408.854,-738.912 418.288,-740.086"/>
<polygon fill="midnightblue" stroke="midnightblue" points="389.98,-733.038 379.625,-735.277 389.116,-739.984 389.98,-733.038"/>
</g>
<!-- Node18 -->
<g id="node18" class="node"><title>Node18</title>
<g id="a_node18"><a xlink:href="../../dd/def/classcommands_1_1turtle__commands_1_1_pen_down_query.html#a44c3c19cff6c94f6b2e08a831332f6c4" target="_top" xlink:title="commands.turtle_commands.\lPenDownQuery.execute">
<polygon fill="white" stroke="black" points="418.5,-686 418.5,-716 579.5,-716 579.5,-686 418.5,-686"/>
<text text-anchor="start" x="426.5" y="-704" font-family="Helvetica,sans-Serif" font-size="10.00">commands.turtle_commands.</text>
<text text-anchor="middle" x="499" y="-693" font-family="Helvetica,sans-Serif" font-size="10.00">PenDownQuery.execute</text>
</a>
</g>
</g>
<!-- Node2&#45;&gt;Node18 -->
<g id="edge17" class="edge"><title>Node2&#45;&gt;Node18</title>
<path fill="none" stroke="midnightblue" d="M389.571,-713.947C399.164,-712.801 408.854,-711.644 418.288,-710.518"/>
<polygon fill="midnightblue" stroke="midnightblue" points="389.139,-710.473 379.625,-715.134 389.969,-717.424 389.139,-710.473"/>
</g>
<!-- Node19 -->
<g id="node19" class="node"><title>Node19</title>
<g id="a_node19"><a xlink:href="../../d2/dd0/classcommands_1_1turtle__commands_1_1_pen_up_command.html#a07d7143e0b66160d9edd87d49ac4543d" target="_top" xlink:title="commands.turtle_commands.\lPenUpCommand.execute">
<polygon fill="white" stroke="black" points="418.5,-637 418.5,-667 579.5,-667 579.5,-637 418.5,-637"/>
<text text-anchor="start" x="426.5" y="-655" font-family="Helvetica,sans-Serif" font-size="10.00">commands.turtle_commands.</text>
<text text-anchor="middle" x="499" y="-644" font-family="Helvetica,sans-Serif" font-size="10.00">PenUpCommand.execute</text>
</a>
</g>
</g>
<!-- Node2&#45;&gt;Node19 -->
<g id="edge18" class="edge"><title>Node2&#45;&gt;Node19</title>
<path fill="none" stroke="midnightblue" d="M341.588,-705.938C363.779,-696.727 391.116,-685.793 416,-677 425.683,-673.579 436.103,-670.185 446.159,-667.054"/>
<polygon fill="midnightblue" stroke="midnightblue" points="339.978,-702.817 332.099,-709.901 342.676,-709.276 339.978,-702.817"/>
</g>
<!-- Node20 -->
<g id="node20" class="node"><title>Node20</title>
<g id="a_node20"><a xlink:href="../../db/dad/classcommands_1_1turtle__commands_1_1_right_command.html#a356afbf240a6d680dbd8c39c17d00fbd" target="_top" xlink:title="commands.turtle_commands.\lRightCommand.execute">
<polygon fill="white" stroke="black" points="418.5,-588 418.5,-618 579.5,-618 579.5,-588 418.5,-588"/>
<text text-anchor="start" x="426.5" y="-606" font-family="Helvetica,sans-Serif" font-size="10.00">commands.turtle_commands.</text>
<text text-anchor="middle" x="499" y="-595" font-family="Helvetica,sans-Serif" font-size="10.00">RightCommand.execute</text>
</a>
</g>
</g>
<!-- Node2&#45;&gt;Node20 -->
<g id="edge19" class="edge"><title>Node2&#45;&gt;Node20</title>
<path fill="none" stroke="midnightblue" d="M319.105,-702.457C341.652,-680.623 378.552,-647.97 416,-628 423.092,-624.218 430.84,-620.92 438.652,-618.068"/>
<polygon fill="midnightblue" stroke="midnightblue" points="316.426,-700.182 311.751,-709.69 321.335,-705.173 316.426,-700.182"/>
</g>
<!-- Node21 -->
<g id="node21" class="node"><title>Node21</title>
<g id="a_node21"><a xlink:href="../../de/d5b/classcommands_1_1turtle__commands_1_1_set_heading_command.html#a0820b8d48ea0912bf1190b7cb0cd3495" target="_top" xlink:title="commands.turtle_commands.\lSetHeadingCommand.execute">
<polygon fill="white" stroke="black" points="417,-539 417,-569 581,-569 581,-539 417,-539"/>
<text text-anchor="start" x="425" y="-557" font-family="Helvetica,sans-Serif" font-size="10.00">commands.turtle_commands.</text>
<text text-anchor="middle" x="499" y="-546" font-family="Helvetica,sans-Serif" font-size="10.00">SetHeadingCommand.execute</text>
</a>
</g>
</g>
<!-- Node2&#45;&gt;Node21 -->
<g id="edge20" class="edge"><title>Node2&#45;&gt;Node21</title>
<path fill="none" stroke="midnightblue" d="M310.416,-700.853C329.645,-668.433 368.068,-611.192 416,-579 421.683,-575.183 427.972,-571.93 434.464,-569.163"/>
<polygon fill="midnightblue" stroke="midnightblue" points="307.285,-699.275 305.292,-709.681 313.339,-702.79 307.285,-699.275"/>
</g>
<!-- Node22 -->
<g id="node22" class="node"><title>Node22</title>
<g id="a_node22"><a xlink:href="../../da/d6b/classcommands_1_1turtle__commands_1_1_set_pen_color.html#a4c680c5c31ae61d1241f883d7b3514bc" target="_top" xlink:title="commands.turtle_commands.\lSetPenColor.execute">
<polygon fill="white" stroke="black" points="418.5,-490 418.5,-520 579.5,-520 579.5,-490 418.5,-490"/>
<text text-anchor="start" x="426.5" y="-508" font-family="Helvetica,sans-Serif" font-size="10.00">commands.turtle_commands.</text>
<text text-anchor="middle" x="499" y="-497" font-family="Helvetica,sans-Serif" font-size="10.00">SetPenColor.execute</text>
</a>
</g>
</g>
<!-- Node2&#45;&gt;Node22 -->
<g id="edge21" class="edge"><title>Node2&#45;&gt;Node22</title>
<path fill="none" stroke="midnightblue" d="M305.352,-700.44C320.671,-659.077 357.195,-575.582 416,-530 420.94,-526.17 426.467,-522.925 432.254,-520.174"/>
<polygon fill="midnightblue" stroke="midnightblue" points="302.005,-699.404 301.913,-709.999 308.591,-701.774 302.005,-699.404"/>
</g>
<!-- Node23 -->
<g id="node23" class="node"><title>Node23</title>
<g id="a_node23"><a xlink:href="../../d2/df1/classcommands_1_1turtle__commands_1_1_set_position_command.html#acd67ddeed20e6efb4f0a5c71f3e0ad41" target="_top" xlink:title="commands.turtle_commands.\lSetPositionCommand.execute">
<polygon fill="white" stroke="black" points="418,-441 418,-471 580,-471 580,-441 418,-441"/>
<text text-anchor="start" x="426" y="-459" font-family="Helvetica,sans-Serif" font-size="10.00">commands.turtle_commands.</text>
<text text-anchor="middle" x="499" y="-448" font-family="Helvetica,sans-Serif" font-size="10.00">SetPositionCommand.execute</text>
</a>
</g>
</g>
<!-- Node2&#45;&gt;Node23 -->
<g id="edge22" class="edge"><title>Node2&#45;&gt;Node23</title>
<path fill="none" stroke="midnightblue" d="M302.193,-699.985C313.735,-650.68 346.196,-540.573 416,-481 420.528,-477.135 425.644,-473.868 431.052,-471.106"/>
<polygon fill="midnightblue" stroke="midnightblue" points="298.762,-699.288 299.984,-709.813 305.592,-700.824 298.762,-699.288"/>
</g>
<!-- Node25 -->
<g id="node25" class="node"><title>Node25</title>
<g id="a_node25"><a xlink:href="../../d9/ded/classcommands_1_1turtle__commands_1_1_set_shape_command.html#ab651615547aea277ae832fcebf48423b" target="_top" xlink:title="commands.turtle_commands.\lSetShapeCommand.execute">
<polygon fill="white" stroke="black" points="418.5,-392 418.5,-422 579.5,-422 579.5,-392 418.5,-392"/>
<text text-anchor="start" x="426.5" y="-410" font-family="Helvetica,sans-Serif" font-size="10.00">commands.turtle_commands.</text>
<text text-anchor="middle" x="499" y="-399" font-family="Helvetica,sans-Serif" font-size="10.00">SetShapeCommand.execute</text>
</a>
</g>
</g>
<!-- Node2&#45;&gt;Node25 -->
<g id="edge25" class="edge"><title>Node2&#45;&gt;Node25</title>
<path fill="none" stroke="midnightblue" d="M299.937,-699.839C307.865,-643.457 334.882,-506.137 416,-432 420.175,-428.185 424.917,-424.951 429.966,-422.211"/>
<polygon fill="midnightblue" stroke="midnightblue" points="296.436,-699.621 298.596,-709.994 303.376,-700.538 296.436,-699.621"/>
</g>
<!-- Node26 -->
<g id="node26" class="node"><title>Node26</title>
<g id="a_node26"><a xlink:href="../../d7/d3f/classcommands_1_1turtle__commands_1_1_set_stroke_size.html#a4b0c43f45a8b003649cf6f1497fba393" target="_top" xlink:title="commands.turtle_commands.\lSetStrokeSize.execute">
<polygon fill="white" stroke="black" points="418.5,-343 418.5,-373 579.5,-373 579.5,-343 418.5,-343"/>
<text text-anchor="start" x="426.5" y="-361" font-family="Helvetica,sans-Serif" font-size="10.00">commands.turtle_commands.</text>
<text text-anchor="middle" x="499" y="-350" font-family="Helvetica,sans-Serif" font-size="10.00">SetStrokeSize.execute</text>
</a>
</g>
</g>
<!-- Node2&#45;&gt;Node26 -->
<g id="edge26" class="edge"><title>Node2&#45;&gt;Node26</title>
<path fill="none" stroke="midnightblue" d="M298.278,-699.624C302.835,-636.673 323.46,-472.006 416,-383 419.969,-379.183 424.503,-375.947 429.357,-373.203"/>
<polygon fill="midnightblue" stroke="midnightblue" points="294.771,-699.62 297.619,-709.825 301.756,-700.071 294.771,-699.62"/>
</g>
<!-- Node27 -->
<g id="node27" class="node"><title>Node27</title>
<g id="a_node27"><a xlink:href="../../d7/dda/classcommands_1_1turtle__commands_1_1_show_turtle_command.html#a0a886f8c26945d74cd640875b9a84b28" target="_top" xlink:title="commands.turtle_commands.\lShowTurtleCommand.execute">
<polygon fill="white" stroke="black" points="418.5,-294 418.5,-324 579.5,-324 579.5,-294 418.5,-294"/>
<text text-anchor="start" x="426.5" y="-312" font-family="Helvetica,sans-Serif" font-size="10.00">commands.turtle_commands.</text>
<text text-anchor="middle" x="499" y="-301" font-family="Helvetica,sans-Serif" font-size="10.00">ShowTurtleCommand.execute</text>
</a>
</g>
</g>
<!-- Node2&#45;&gt;Node27 -->
<g id="edge27" class="edge"><title>Node2&#45;&gt;Node27</title>
<path fill="none" stroke="midnightblue" d="M296.989,-699.38C298.387,-630.249 311.94,-438.111 416,-334 419.893,-330.105 424.373,-326.814 429.19,-324.033"/>
<polygon fill="midnightblue" stroke="midnightblue" points="293.484,-699.701 296.855,-709.745 300.484,-699.792 293.484,-699.701"/>
</g>
<!-- Node28 -->
<g id="node28" class="node"><title>Node28</title>
<g id="a_node28"><a xlink:href="../../d2/dd3/classcommands_1_1turtle__commands_1_1_stamp_command.html#a33c3d71416f2018768e69b504b6940dc" target="_top" xlink:title="commands.turtle_commands.\lStampCommand.execute">
<polygon fill="white" stroke="black" points="418.5,-245 418.5,-275 579.5,-275 579.5,-245 418.5,-245"/>
<text text-anchor="start" x="426.5" y="-263" font-family="Helvetica,sans-Serif" font-size="10.00">commands.turtle_commands.</text>
<text text-anchor="middle" x="499" y="-252" font-family="Helvetica,sans-Serif" font-size="10.00">StampCommand.execute</text>
</a>
</g>
</g>
<!-- Node2&#45;&gt;Node28 -->
<g id="edge28" class="edge"><title>Node2&#45;&gt;Node28</title>
<path fill="none" stroke="midnightblue" d="M300.612,-699.544C313.076,-615.102 356.791,-346.122 416,-285 419.728,-281.152 424.029,-277.891 428.668,-275.13"/>
<polygon fill="midnightblue" stroke="midnightblue" points="297.132,-699.152 299.155,-709.552 304.059,-700.161 297.132,-699.152"/>
</g>
<!-- Node29 -->
<g id="node29" class="node"><title>Node29</title>
<g id="a_node29"><a xlink:href="../../d1/d00/classcommands_1_1turtle__commands_1_1_tell_command.html#a5b187b4609637fee3e88d2a51681db1a" target="_top" xlink:title="commands.turtle_commands.\lTellCommand.execute">
<polygon fill="white" stroke="black" points="418.5,-196 418.5,-226 579.5,-226 579.5,-196 418.5,-196"/>
<text text-anchor="start" x="426.5" y="-214" font-family="Helvetica,sans-Serif" font-size="10.00">commands.turtle_commands.</text>
<text text-anchor="middle" x="499" y="-203" font-family="Helvetica,sans-Serif" font-size="10.00">TellCommand.execute</text>
</a>
</g>
</g>
<!-- Node2&#45;&gt;Node29 -->
<g id="edge29" class="edge"><title>Node2&#45;&gt;Node29</title>
<path fill="none" stroke="midnightblue" d="M299.848,-699.749C310.504,-609.564 350.782,-305.061 416,-236 419.679,-232.105 423.944,-228.81 428.559,-226.025"/>
<polygon fill="midnightblue" stroke="midnightblue" points="296.349,-699.545 298.67,-709.882 303.302,-700.353 296.349,-699.545"/>
</g>
<!-- Node30 -->
<g id="node30" class="node"><title>Node30</title>
<g id="a_node30"><a xlink:href="../../db/d90/classcommands_1_1turtle__commands_1_1_towards_command.html#a8cd9a083d87b20c53a805b4fe8e0aa06" target="_top" xlink:title="commands.turtle_commands.\lTowardsCommand.execute">
<polygon fill="white" stroke="black" points="418.5,-147 418.5,-177 579.5,-177 579.5,-147 418.5,-147"/>
<text text-anchor="start" x="426.5" y="-165" font-family="Helvetica,sans-Serif" font-size="10.00">commands.turtle_commands.</text>
<text text-anchor="middle" x="499" y="-154" font-family="Helvetica,sans-Serif" font-size="10.00">TowardsCommand.execute</text>
</a>
</g>
</g>
<!-- Node2&#45;&gt;Node30 -->
<g id="edge30" class="edge"><title>Node2&#45;&gt;Node30</title>
<path fill="none" stroke="midnightblue" d="M299.243,-699.769C308.251,-603.934 344.783,-264.019 416,-187 419.536,-183.175 423.639,-179.929 428.086,-177.175"/>
<polygon fill="midnightblue" stroke="midnightblue" points="295.735,-699.694 298.302,-709.973 302.706,-700.337 295.735,-699.694"/>
</g>
<!-- Node32 -->
<g id="node32" class="node"><title>Node32</title>
<g id="a_node32"><a xlink:href="../../d4/da8/classcommands_1_1turtle__commands_1_1_turtles_command.html#a7381223a6f538fcfb9f630f656dd6385" target="_top" xlink:title="commands.turtle_commands.\lTurtlesCommand.execute">
<polygon fill="white" stroke="black" points="418.5,-98 418.5,-128 579.5,-128 579.5,-98 418.5,-98"/>
<text text-anchor="start" x="426.5" y="-116" font-family="Helvetica,sans-Serif" font-size="10.00">commands.turtle_commands.</text>
<text text-anchor="middle" x="499" y="-105" font-family="Helvetica,sans-Serif" font-size="10.00">TurtlesCommand.execute</text>
</a>
</g>
</g>
<!-- Node2&#45;&gt;Node32 -->
<g id="edge33" class="edge"><title>Node2&#45;&gt;Node32</title>
<path fill="none" stroke="midnightblue" d="M298.76,-699.475C306.27,-597.787 338.837,-222.943 416,-138 419.503,-134.144 423.58,-130.876 428.01,-128.105"/>
<polygon fill="midnightblue" stroke="midnightblue" points="295.249,-699.503 298.02,-709.729 302.231,-700.007 295.249,-699.503"/>
</g>
<!-- Node33 -->
<g id="node33" class="node"><title>Node33</title>
<g id="a_node33"><a xlink:href="../../d8/dcb/classcommands_1_1turtle__commands_1_1_x_cor_query.html#a81bf278aa55931e1f63dc46fe7cc6604" target="_top" xlink:title="commands.turtle_commands.\lXCorQuery.execute">
<polygon fill="white" stroke="black" points="418.5,-49 418.5,-79 579.5,-79 579.5,-49 418.5,-49"/>
<text text-anchor="start" x="426.5" y="-67" font-family="Helvetica,sans-Serif" font-size="10.00">commands.turtle_commands.</text>
<text text-anchor="middle" x="499" y="-56" font-family="Helvetica,sans-Serif" font-size="10.00">XCorQuery.execute</text>
</a>
</g>
</g>
<!-- Node2&#45;&gt;Node33 -->
<g id="edge34" class="edge"><title>Node2&#45;&gt;Node33</title>
<path fill="none" stroke="midnightblue" d="M298.309,-699.79C304.328,-593.369 332.714,-182.081 416,-89 419.473,-85.1181 423.53,-81.8303 427.945,-79.0468"/>
<polygon fill="midnightblue" stroke="midnightblue" points="294.806,-699.738 297.752,-709.915 301.796,-700.123 294.806,-699.738"/>
</g>
<!-- Node34 -->
<g id="node34" class="node"><title>Node34</title>
<g id="a_node34"><a xlink:href="../../d0/d94/classcommands_1_1turtle__commands_1_1_y_cor_query.html#aa1fa450ce3d9885534a8a51ca854aeae" target="_top" xlink:title="commands.turtle_commands.\lYCorQuery.execute">
<polygon fill="white" stroke="black" points="418.5,-0 418.5,-30 579.5,-30 579.5,-0 418.5,-0"/>
<text text-anchor="start" x="426.5" y="-18" font-family="Helvetica,sans-Serif" font-size="10.00">commands.turtle_commands.</text>
<text text-anchor="middle" x="499" y="-7" font-family="Helvetica,sans-Serif" font-size="10.00">YCorQuery.execute</text>
</a>
</g>
</g>
<!-- Node2&#45;&gt;Node34 -->
<g id="edge35" class="edge"><title>Node2&#45;&gt;Node34</title>
<path fill="none" stroke="midnightblue" d="M297.945,-699.679C302.61,-588.072 326.68,-141.135 416,-40 419.35,-36.2072 423.256,-32.9809 427.512,-30.2374"/>
<polygon fill="midnightblue" stroke="midnightblue" points="294.436,-699.831 297.531,-709.963 301.43,-700.112 294.436,-699.831"/>
</g>
<!-- Node24 -->
<g id="node24" class="node"><title>Node24</title>
<g id="a_node24"><a xlink:href="../../d2/df1/classcommands_1_1turtle__commands_1_1_set_position_command.html#a3b86ee87ea44f3075f71a98f001b86a5" target="_top" xlink:title="commands.turtle_commands.\lSetPositionCommand.executeTurtle\lCommand">
<polygon fill="white" stroke="black" points="635,-435.5 635,-476.5 823,-476.5 823,-435.5 635,-435.5"/>
<text text-anchor="start" x="643" y="-464.5" font-family="Helvetica,sans-Serif" font-size="10.00">commands.turtle_commands.</text>
<text text-anchor="start" x="643" y="-453.5" font-family="Helvetica,sans-Serif" font-size="10.00">SetPositionCommand.executeTurtle</text>
<text text-anchor="middle" x="729" y="-442.5" font-family="Helvetica,sans-Serif" font-size="10.00">Command</text>
</a>
</g>
</g>
<!-- Node23&#45;&gt;Node24 -->
<g id="edge23" class="edge"><title>Node23&#45;&gt;Node24</title>
<path fill="none" stroke="midnightblue" d="M590.138,-449.383C604.836,-449.217 620.088,-449.206 634.856,-449.351"/>
<polygon fill="midnightblue" stroke="midnightblue" points="590.014,-445.884 580.064,-449.523 590.111,-452.884 590.014,-445.884"/>
</g>
<!-- Node24&#45;&gt;Node23 -->
<g id="edge24" class="edge"><title>Node24&#45;&gt;Node23</title>
<path fill="none" stroke="midnightblue" d="M624.568,-462.724C609.631,-462.797 594.451,-462.715 580.064,-462.477"/>
<polygon fill="midnightblue" stroke="midnightblue" points="624.882,-466.222 634.856,-462.649 624.831,-459.222 624.882,-466.222"/>
</g>
<!-- Node31 -->
<g id="node31" class="node"><title>Node31</title>
<g id="a_node31"><a xlink:href="../../db/d90/classcommands_1_1turtle__commands_1_1_towards_command.html#afc72967a871441377946f43e8ff47895" target="_top" xlink:title="commands.turtle_commands.\lTowardsCommand.executeTurtleCommand">
<polygon fill="white" stroke="black" points="618.5,-147 618.5,-177 839.5,-177 839.5,-147 618.5,-147"/>
<text text-anchor="start" x="626.5" y="-165" font-family="Helvetica,sans-Serif" font-size="10.00">commands.turtle_commands.</text>
<text text-anchor="middle" x="729" y="-154" font-family="Helvetica,sans-Serif" font-size="10.00">TowardsCommand.executeTurtleCommand</text>
</a>
</g>
</g>
<!-- Node30&#45;&gt;Node31 -->
<g id="edge31" class="edge"><title>Node30&#45;&gt;Node31</title>
<path fill="none" stroke="midnightblue" d="M589.784,-155.387C599.131,-155.28 608.706,-155.235 618.242,-155.254"/>
<polygon fill="midnightblue" stroke="midnightblue" points="589.693,-151.888 579.743,-155.529 589.792,-158.887 589.693,-151.888"/>
</g>
<!-- Node31&#45;&gt;Node30 -->
<g id="edge32" class="edge"><title>Node31&#45;&gt;Node30</title>
<path fill="none" stroke="midnightblue" d="M608.196,-168.742C598.564,-168.716 588.988,-168.626 579.743,-168.471"/>
<polygon fill="midnightblue" stroke="midnightblue" points="608.24,-172.242 618.242,-168.746 608.243,-165.242 608.24,-172.242"/>
</g>
</g>
</svg>
