<?xml version="1.0" encoding="UTF-8" standalone="no"?>
<!DOCTYPE svg PUBLIC "-//W3C//DTD SVG 1.1//EN"
 "http://www.w3.org/Graphics/SVG/1.1/DTD/svg11.dtd">
<!-- Generated by graphviz version 2.36.0 (20140111.2315)
 -->
<!-- Title: backEnd.Model.runScript Pages: 1 -->
<svg width="1224pt" height="301pt"
 viewBox="0.00 0.00 1224.00 301.00" xmlns="http://www.w3.org/2000/svg" xmlns:xlink="http://www.w3.org/1999/xlink">
<g id="graph0" class="graph" transform="scale(1 1) rotate(0) translate(4 297)">
<title>backEnd.Model.runScript</title>
<polygon fill="white" stroke="none" points="-4,4 -4,-297 1220,-297 1220,4 -4,4"/>
<!-- Node1 -->
<g id="node1" class="node"><title>Node1</title>
<polygon fill="#bfbfbf" stroke="black" points="0.5,-210.5 0.5,-229.5 135.5,-229.5 135.5,-210.5 0.5,-210.5"/>
<text text-anchor="middle" x="68" y="-217.5" font-family="Helvetica,sans-Serif" font-size="10.00">backEnd.Model.runScript</text>
</g>
<!-- Node2 -->
<g id="node2" class="node"><title>Node2</title>
<g id="a_node2"><a xlink:href="../../d9/d1e/classback_end_1_1_parser.html#a163b8afd814babc8e7df59993f0d6440" target="_top" xlink:title="backEnd.Parser.parseScript">
<polygon fill="white" stroke="black" points="172.5,-210.5 172.5,-229.5 319.5,-229.5 319.5,-210.5 172.5,-210.5"/>
<text text-anchor="middle" x="246" y="-217.5" font-family="Helvetica,sans-Serif" font-size="10.00">backEnd.Parser.parseScript</text>
</a>
</g>
</g>
<!-- Node1&#45;&gt;Node2 -->
<g id="edge1" class="edge"><title>Node1&#45;&gt;Node2</title>
<path fill="none" stroke="midnightblue" d="M135.538,-220C144.308,-220 153.381,-220 162.379,-220"/>
<polygon fill="midnightblue" stroke="midnightblue" points="162.485,-223.5 172.485,-220 162.485,-216.5 162.485,-223.5"/>
</g>
<!-- Node3 -->
<g id="node3" class="node"><title>Node3</title>
<g id="a_node3"><a xlink:href="../../d9/d98/classback_end_1_1_model.html#a6b39dd199a5957068c032bb023f4b613" target="_top" xlink:title="backEnd.Model.getCommandsMap">
<polygon fill="white" stroke="black" points="831.5,-273.5 831.5,-292.5 1014.5,-292.5 1014.5,-273.5 831.5,-273.5"/>
<text text-anchor="middle" x="923" y="-280.5" font-family="Helvetica,sans-Serif" font-size="10.00">backEnd.Model.getCommandsMap</text>
</a>
</g>
</g>
<!-- Node2&#45;&gt;Node3 -->
<g id="edge2" class="edge"><title>Node2&#45;&gt;Node3</title>
<path fill="none" stroke="midnightblue" d="M268.61,-229.643C290.239,-238.786 324.708,-251.989 356,-258 516.57,-288.847 707.264,-290.174 821.255,-287.312"/>
<polygon fill="midnightblue" stroke="midnightblue" points="821.46,-290.808 831.363,-287.043 821.274,-283.811 821.46,-290.808"/>
</g>
<!-- Node4 -->
<g id="node4" class="node"><title>Node4</title>
<g id="a_node4"><a xlink:href="../../d9/d1e/classback_end_1_1_parser.html#a71653c0a9d02d4b400e357b978260de6" target="_top" xlink:title="backEnd.Parser.removeComments">
<polygon fill="white" stroke="black" points="359,-229.5 359,-248.5 541,-248.5 541,-229.5 359,-229.5"/>
<text text-anchor="middle" x="450" y="-236.5" font-family="Helvetica,sans-Serif" font-size="10.00">backEnd.Parser.removeComments</text>
</a>
</g>
</g>
<!-- Node2&#45;&gt;Node4 -->
<g id="edge3" class="edge"><title>Node2&#45;&gt;Node4</title>
<path fill="none" stroke="midnightblue" d="M319.641,-226.833C329.043,-227.717 338.802,-228.635 348.554,-229.552"/>
<polygon fill="midnightblue" stroke="midnightblue" points="348.415,-233.054 358.699,-230.506 349.071,-226.085 348.415,-233.054"/>
</g>
<!-- Node5 -->
<g id="node5" class="node"><title>Node5</title>
<g id="a_node5"><a xlink:href="../../d9/d1e/classback_end_1_1_parser.html#a653298ad53a1eea540beded2bb558ab4" target="_top" xlink:title="backEnd.Parser.makeTree">
<polygon fill="white" stroke="black" points="380.5,-191.5 380.5,-210.5 519.5,-210.5 519.5,-191.5 380.5,-191.5"/>
<text text-anchor="middle" x="450" y="-198.5" font-family="Helvetica,sans-Serif" font-size="10.00">backEnd.Parser.makeTree</text>
</a>
</g>
</g>
<!-- Node2&#45;&gt;Node5 -->
<g id="edge4" class="edge"><title>Node2&#45;&gt;Node5</title>
<path fill="none" stroke="midnightblue" d="M319.641,-213.167C336.033,-211.626 353.509,-209.982 370.143,-208.417"/>
<polygon fill="midnightblue" stroke="midnightblue" points="370.745,-211.876 380.374,-207.455 370.09,-204.907 370.745,-211.876"/>
</g>
<!-- Node16 -->
<g id="node16" class="node"><title>Node16</title>
<g id="a_node16"><a xlink:href="../../d5/d62/classcommands_1_1templates_1_1_command.html#aa1c27b6285999798be609159ee5c7a83" target="_top" xlink:title="commands.templates.Command.to\lString">
<polygon fill="white" stroke="black" points="356,-142 356,-172 544,-172 544,-142 356,-142"/>
<text text-anchor="start" x="364" y="-160" font-family="Helvetica,sans-Serif" font-size="10.00">commands.templates.Command.to</text>
<text text-anchor="middle" x="450" y="-149" font-family="Helvetica,sans-Serif" font-size="10.00">String</text>
</a>
</g>
</g>
<!-- Node2&#45;&gt;Node16 -->
<g id="edge17" class="edge"><title>Node2&#45;&gt;Node16</title>
<path fill="none" stroke="midnightblue" d="M272.812,-210.405C294.788,-202.38 327.273,-190.856 356,-182 363.924,-179.557 372.268,-177.123 380.571,-174.785"/>
<polygon fill="midnightblue" stroke="midnightblue" points="381.575,-178.139 390.274,-172.09 379.702,-171.394 381.575,-178.139"/>
</g>
<!-- Node5&#45;&gt;Node3 -->
<g id="edge5" class="edge"><title>Node5&#45;&gt;Node3</title>
<path fill="none" stroke="midnightblue" d="M501.201,-210.532C525.057,-215.013 553.983,-220.374 580,-225 675.084,-241.907 785.244,-260.391 854.282,-271.843"/>
<polygon fill="midnightblue" stroke="midnightblue" points="853.725,-275.298 864.162,-273.48 854.869,-268.392 853.725,-275.298"/>
</g>
<!-- Node6 -->
<g id="node6" class="node"><title>Node6</title>
<g id="a_node6"><a xlink:href="../../d5/d1d/classcommands_1_1_command_factory.html#ac77125dd466e3e01fce01fc527e7f815" target="_top" xlink:title="commands.CommandFactory.build\lCommand">
<polygon fill="white" stroke="black" points="588,-186 588,-216 770,-216 770,-186 588,-186"/>
<text text-anchor="start" x="596" y="-204" font-family="Helvetica,sans-Serif" font-size="10.00">commands.CommandFactory.build</text>
<text text-anchor="middle" x="679" y="-193" font-family="Helvetica,sans-Serif" font-size="10.00">Command</text>
</a>
</g>
</g>
<!-- Node5&#45;&gt;Node6 -->
<g id="edge6" class="edge"><title>Node5&#45;&gt;Node6</title>
<path fill="none" stroke="midnightblue" d="M519.724,-201C537.948,-201 558.006,-201 577.542,-201"/>
<polygon fill="midnightblue" stroke="midnightblue" points="577.698,-204.5 587.698,-201 577.698,-197.5 577.698,-204.5"/>
</g>
<!-- Node14 -->
<g id="node14" class="node"><title>Node14</title>
<g id="a_node14"><a xlink:href="../../d5/d62/classcommands_1_1templates_1_1_command.html#a9ab84f2a1491a7283311891b8a6082dc" target="_top" xlink:title="commands.templates.Command.add\lChild">
<polygon fill="white" stroke="black" points="580.5,-137 580.5,-167 777.5,-167 777.5,-137 580.5,-137"/>
<text text-anchor="start" x="588.5" y="-155" font-family="Helvetica,sans-Serif" font-size="10.00">commands.templates.Command.add</text>
<text text-anchor="middle" x="679" y="-144" font-family="Helvetica,sans-Serif" font-size="10.00">Child</text>
</a>
</g>
</g>
<!-- Node5&#45;&gt;Node14 -->
<g id="edge15" class="edge"><title>Node5&#45;&gt;Node14</title>
<path fill="none" stroke="midnightblue" d="M495.469,-191.449C510.843,-188.144 528.179,-184.413 544,-181 561.669,-177.188 580.646,-173.086 598.6,-169.201"/>
<polygon fill="midnightblue" stroke="midnightblue" points="599.422,-172.605 608.455,-167.069 597.941,-165.763 599.422,-172.605"/>
</g>
<!-- Node15 -->
<g id="node15" class="node"><title>Node15</title>
<g id="a_node15"><a xlink:href="../../d5/d62/classcommands_1_1templates_1_1_command.html#a0ca025dffda489d73ba4b6c12c7118fe" target="_top" xlink:title="commands.templates.Command.get\lNumChildrenNeeded">
<polygon fill="white" stroke="black" points="582,-88 582,-118 776,-118 776,-88 582,-88"/>
<text text-anchor="start" x="590" y="-106" font-family="Helvetica,sans-Serif" font-size="10.00">commands.templates.Command.get</text>
<text text-anchor="middle" x="679" y="-95" font-family="Helvetica,sans-Serif" font-size="10.00">NumChildrenNeeded</text>
</a>
</g>
</g>
<!-- Node5&#45;&gt;Node15 -->
<g id="edge16" class="edge"><title>Node5&#45;&gt;Node15</title>
<path fill="none" stroke="midnightblue" d="M519.558,-192.663C528.225,-189.805 536.626,-186.016 544,-181 567.85,-164.777 556.382,-143.559 580,-127 582.133,-125.504 584.35,-124.101 586.632,-122.785"/>
<polygon fill="midnightblue" stroke="midnightblue" points="588.422,-125.801 595.728,-118.129 585.232,-119.57 588.422,-125.801"/>
</g>
<!-- Node6&#45;&gt;Node3 -->
<g id="edge7" class="edge"><title>Node6&#45;&gt;Node3</title>
<path fill="none" stroke="midnightblue" d="M743.937,-216.056C755.659,-220.061 767.497,-224.993 778,-231 796.841,-241.776 794.532,-254.402 814,-264 818.909,-266.42 824.078,-268.537 829.386,-270.387"/>
<polygon fill="midnightblue" stroke="midnightblue" points="828.475,-273.769 839.065,-273.438 830.579,-267.093 828.475,-273.769"/>
</g>
<!-- Node7 -->
<g id="node7" class="node"><title>Node7</title>
<g id="a_node7"><a xlink:href="../../d5/d1d/classcommands_1_1_command_factory.html#adcf456039b5d7285082f1e009f3d30b6" target="_top" xlink:title="commands.CommandFactory.checkCaps">
<polygon fill="white" stroke="black" points="817,-235.5 817,-254.5 1029,-254.5 1029,-235.5 817,-235.5"/>
<text text-anchor="middle" x="923" y="-242.5" font-family="Helvetica,sans-Serif" font-size="10.00">commands.CommandFactory.checkCaps</text>
</a>
</g>
</g>
<!-- Node6&#45;&gt;Node7 -->
<g id="edge8" class="edge"><title>Node6&#45;&gt;Node7</title>
<path fill="none" stroke="midnightblue" d="M762.606,-216.019C794.329,-221.787 829.98,-228.269 859.509,-233.638"/>
<polygon fill="midnightblue" stroke="midnightblue" points="859.217,-237.142 869.682,-235.488 860.469,-230.255 859.217,-237.142"/>
</g>
<!-- Node8 -->
<g id="node8" class="node"><title>Node8</title>
<g id="a_node8"><a xlink:href="../../d5/d1d/classcommands_1_1_command_factory.html#acae1571442d9f8e040df95c8a2742d8d" target="_top" xlink:title="commands.CommandFactory.check\lLanguage">
<polygon fill="white" stroke="black" points="829,-186 829,-216 1017,-216 1017,-186 829,-186"/>
<text text-anchor="start" x="837" y="-204" font-family="Helvetica,sans-Serif" font-size="10.00">commands.CommandFactory.check</text>
<text text-anchor="middle" x="923" y="-193" font-family="Helvetica,sans-Serif" font-size="10.00">Language</text>
</a>
</g>
</g>
<!-- Node6&#45;&gt;Node8 -->
<g id="edge9" class="edge"><title>Node6&#45;&gt;Node8</title>
<path fill="none" stroke="midnightblue" d="M770.112,-201C786.026,-201 802.704,-201 818.941,-201"/>
<polygon fill="midnightblue" stroke="midnightblue" points="818.983,-204.5 828.983,-201 818.983,-197.5 818.983,-204.5"/>
</g>
<!-- Node10 -->
<g id="node10" class="node"><title>Node10</title>
<g id="a_node10"><a xlink:href="../../d5/d62/classcommands_1_1templates_1_1_command.html#a20741a5e32e24ff113701f7b2957e658" target="_top" xlink:title="commands.templates.Command.initialize\lCommand">
<polygon fill="white" stroke="black" points="814.5,-137 814.5,-167 1031.5,-167 1031.5,-137 814.5,-137"/>
<text text-anchor="start" x="822.5" y="-155" font-family="Helvetica,sans-Serif" font-size="10.00">commands.templates.Command.initialize</text>
<text text-anchor="middle" x="923" y="-144" font-family="Helvetica,sans-Serif" font-size="10.00">Command</text>
</a>
</g>
</g>
<!-- Node6&#45;&gt;Node10 -->
<g id="edge11" class="edge"><title>Node6&#45;&gt;Node10</title>
<path fill="none" stroke="midnightblue" d="M754.253,-185.965C780.734,-180.604 810.744,-174.527 837.988,-169.011"/>
<polygon fill="midnightblue" stroke="midnightblue" points="838.781,-172.421 847.888,-167.006 837.392,-165.56 838.781,-172.421"/>
</g>
<!-- Node11 -->
<g id="node11" class="node"><title>Node11</title>
<g id="a_node11"><a xlink:href="../../d5/d1d/classcommands_1_1_command_factory.html#a221a82baff222f4552a38b521efd78b6" target="_top" xlink:title="commands.CommandFactory.checkVar">
<polygon fill="white" stroke="black" points="821.5,-98.5 821.5,-117.5 1024.5,-117.5 1024.5,-98.5 821.5,-98.5"/>
<text text-anchor="middle" x="923" y="-105.5" font-family="Helvetica,sans-Serif" font-size="10.00">commands.CommandFactory.checkVar</text>
</a>
</g>
</g>
<!-- Node6&#45;&gt;Node11 -->
<g id="edge12" class="edge"><title>Node6&#45;&gt;Node11</title>
<path fill="none" stroke="midnightblue" d="M759.633,-185.819C766.101,-183.073 772.323,-179.83 778,-176 800.403,-160.887 791.042,-141.255 814,-127 817.361,-124.913 820.888,-123.04 824.532,-121.359"/>
<polygon fill="midnightblue" stroke="midnightblue" points="825.873,-124.592 833.803,-117.566 823.222,-118.113 825.873,-124.592"/>
</g>
<!-- Node12 -->
<g id="node12" class="node"><title>Node12</title>
<g id="a_node12"><a xlink:href="../../d5/d1d/classcommands_1_1_command_factory.html#aa562012b61b9b1701eada2bea8caa1d8" target="_top" xlink:title="commands.CommandFactory.is\lNumeric">
<polygon fill="white" stroke="black" points="839.5,-49 839.5,-79 1006.5,-79 1006.5,-49 839.5,-49"/>
<text text-anchor="start" x="847.5" y="-67" font-family="Helvetica,sans-Serif" font-size="10.00">commands.CommandFactory.is</text>
<text text-anchor="middle" x="923" y="-56" font-family="Helvetica,sans-Serif" font-size="10.00">Numeric</text>
</a>
</g>
</g>
<!-- Node6&#45;&gt;Node12 -->
<g id="edge13" class="edge"><title>Node6&#45;&gt;Node12</title>
<path fill="none" stroke="midnightblue" d="M763.567,-185.778C768.743,-183.027 773.621,-179.795 778,-176 809.622,-148.593 782.074,-116.053 814,-89 818.866,-84.8766 824.282,-81.4019 830.024,-78.4769"/>
<polygon fill="midnightblue" stroke="midnightblue" points="831.596,-81.6082 839.284,-74.3188 828.728,-75.2224 831.596,-81.6082"/>
</g>
<!-- Node13 -->
<g id="node13" class="node"><title>Node13</title>
<g id="a_node13"><a xlink:href="../../d5/d1d/classcommands_1_1_command_factory.html#a9206a1ef0f863c61cb5c894da3133ef8" target="_top" xlink:title="commands.CommandFactory.check\lUserCommand">
<polygon fill="white" stroke="black" points="829,-0 829,-30 1017,-30 1017,-0 829,-0"/>
<text text-anchor="start" x="837" y="-18" font-family="Helvetica,sans-Serif" font-size="10.00">commands.CommandFactory.check</text>
<text text-anchor="middle" x="923" y="-7" font-family="Helvetica,sans-Serif" font-size="10.00">UserCommand</text>
</a>
</g>
</g>
<!-- Node6&#45;&gt;Node13 -->
<g id="edge14" class="edge"><title>Node6&#45;&gt;Node13</title>
<path fill="none" stroke="midnightblue" d="M765.085,-185.899C769.773,-183.108 774.137,-179.835 778,-176 822.676,-131.644 768.639,-82.6561 814,-39 815.937,-37.1353 817.986,-35.4028 820.128,-33.7936"/>
<polygon fill="midnightblue" stroke="midnightblue" points="822.315,-36.5476 828.812,-28.1792 818.514,-30.669 822.315,-36.5476"/>
</g>
<!-- Node9 -->
<g id="node9" class="node"><title>Node9</title>
<g id="a_node9"><a xlink:href="../../d8/de9/classmain_1_1_resource_finder.html#abbbd9c7b9078fd263f546d15bba68d22" target="_top" xlink:title="main.ResourceFinder.getMy\lLanguageResources">
<polygon fill="white" stroke="black" points="1068.5,-186 1068.5,-216 1215.5,-216 1215.5,-186 1068.5,-186"/>
<text text-anchor="start" x="1076.5" y="-204" font-family="Helvetica,sans-Serif" font-size="10.00">main.ResourceFinder.getMy</text>
<text text-anchor="middle" x="1142" y="-193" font-family="Helvetica,sans-Serif" font-size="10.00">LanguageResources</text>
</a>
</g>
</g>
<!-- Node8&#45;&gt;Node9 -->
<g id="edge10" class="edge"><title>Node8&#45;&gt;Node9</title>
<path fill="none" stroke="midnightblue" d="M1017.29,-201C1030.93,-201 1044.89,-201 1058.3,-201"/>
<polygon fill="midnightblue" stroke="midnightblue" points="1058.43,-204.5 1068.43,-201 1058.43,-197.5 1058.43,-204.5"/>
</g>
</g>
</svg>
