<?xml version="1.0" encoding="UTF-8" standalone="no"?>
<!DOCTYPE svg PUBLIC "-//W3C//DTD SVG 1.1//EN"
 "http://www.w3.org/Graphics/SVG/1.1/DTD/svg11.dtd">
<!-- Generated by graphviz version 2.36.0 (20140111.2315)
 -->
<!-- Title: backEnd.Model.setupTurtleManager Pages: 1 -->
<svg width="818pt" height="136pt"
 viewBox="0.00 0.00 818.00 136.00" xmlns="http://www.w3.org/2000/svg" xmlns:xlink="http://www.w3.org/1999/xlink">
<g id="graph0" class="graph" transform="scale(1 1) rotate(0) translate(4 132)">
<title>backEnd.Model.setupTurtleManager</title>
<polygon fill="white" stroke="none" points="-4,4 -4,-132 814,-132 814,4 -4,4"/>
<!-- Node1 -->
<g id="node1" class="node"><title>Node1</title>
<polygon fill="#bfbfbf" stroke="black" points="0,-49 0,-79 144,-79 144,-49 0,-49"/>
<text text-anchor="start" x="8" y="-67" font-family="Helvetica,sans-Serif" font-size="10.00">backEnd.Model.setupTurtle</text>
<text text-anchor="middle" x="72" y="-56" font-family="Helvetica,sans-Serif" font-size="10.00">Manager</text>
</g>
<!-- Node2 -->
<g id="node2" class="node"><title>Node2</title>
<g id="a_node2"><a xlink:href="../../d8/d1f/classfront_end_1_1_view.html#a5f864e2a9d6a4d2ce9ac88833d6e4c88" target="_top" xlink:title="frontEnd.View.getCanvasHeight">
<polygon fill="white" stroke="black" points="192.5,-97.5 192.5,-116.5 359.5,-116.5 359.5,-97.5 192.5,-97.5"/>
<text text-anchor="middle" x="276" y="-104.5" font-family="Helvetica,sans-Serif" font-size="10.00">frontEnd.View.getCanvasHeight</text>
</a>
</g>
</g>
<!-- Node1&#45;&gt;Node2 -->
<g id="edge1" class="edge"><title>Node1&#45;&gt;Node2</title>
<path fill="none" stroke="midnightblue" d="M143.65,-79.0393C168.836,-84.4007 196.798,-90.353 220.427,-95.383"/>
<polygon fill="midnightblue" stroke="midnightblue" points="219.758,-98.8189 230.268,-97.4777 221.215,-91.9723 219.758,-98.8189"/>
</g>
<!-- Node4 -->
<g id="node4" class="node"><title>Node4</title>
<g id="a_node4"><a xlink:href="../../d8/d1f/classfront_end_1_1_view.html#ac93be255ff8412cce583dab2ed555d3d" target="_top" xlink:title="frontEnd.View.getCanvasWidth">
<polygon fill="white" stroke="black" points="195.5,-54.5 195.5,-73.5 356.5,-73.5 356.5,-54.5 195.5,-54.5"/>
<text text-anchor="middle" x="276" y="-61.5" font-family="Helvetica,sans-Serif" font-size="10.00">frontEnd.View.getCanvasWidth</text>
</a>
</g>
</g>
<!-- Node1&#45;&gt;Node4 -->
<g id="edge3" class="edge"><title>Node1&#45;&gt;Node4</title>
<path fill="none" stroke="midnightblue" d="M144.218,-64C157.433,-64 171.395,-64 185.083,-64"/>
<polygon fill="midnightblue" stroke="midnightblue" points="185.479,-67.5001 195.479,-64 185.479,-60.5001 185.479,-67.5001"/>
</g>
<!-- Node6 -->
<g id="node6" class="node"><title>Node6</title>
<g id="a_node6"><a xlink:href="../../d4/d07/classback_end_1_1turtle_1_1_turtle_manager.html#ac514debd7deab42db9d2f5337359ea6a" target="_top" xlink:title="backEnd.turtle.TurtleManager.update\lActiveTurtleList">
<polygon fill="white" stroke="black" points="180,-3 180,-33 372,-33 372,-3 180,-3"/>
<text text-anchor="start" x="188" y="-21" font-family="Helvetica,sans-Serif" font-size="10.00">backEnd.turtle.TurtleManager.update</text>
<text text-anchor="middle" x="276" y="-10" font-family="Helvetica,sans-Serif" font-size="10.00">ActiveTurtleList</text>
</a>
</g>
</g>
<!-- Node1&#45;&gt;Node6 -->
<g id="edge5" class="edge"><title>Node1&#45;&gt;Node6</title>
<path fill="none" stroke="midnightblue" d="M139.142,-48.9379C158.337,-44.5669 179.445,-39.76 199.183,-35.2652"/>
<polygon fill="midnightblue" stroke="midnightblue" points="200.081,-38.6505 209.054,-33.0174 198.527,-31.8252 200.081,-38.6505"/>
</g>
<!-- Node3 -->
<g id="node3" class="node"><title>Node3</title>
<g id="a_node3"><a xlink:href="../../d5/df1/classfront_end_1_1_turtle_canvas.html#a9fd25f94290ec11f35de8756e4f262d5" target="_top" xlink:title="frontEnd.TurtleCanvas.get\lBoundingHeight">
<polygon fill="white" stroke="black" points="433,-98 433,-128 573,-128 573,-98 433,-98"/>
<text text-anchor="start" x="441" y="-116" font-family="Helvetica,sans-Serif" font-size="10.00">frontEnd.TurtleCanvas.get</text>
<text text-anchor="middle" x="503" y="-105" font-family="Helvetica,sans-Serif" font-size="10.00">BoundingHeight</text>
</a>
</g>
</g>
<!-- Node2&#45;&gt;Node3 -->
<g id="edge2" class="edge"><title>Node2&#45;&gt;Node3</title>
<path fill="none" stroke="midnightblue" d="M359.504,-109.2C380.104,-109.749 402.152,-110.337 422.599,-110.883"/>
<polygon fill="midnightblue" stroke="midnightblue" points="422.72,-114.387 432.81,-111.155 422.907,-107.39 422.72,-114.387"/>
</g>
<!-- Node5 -->
<g id="node5" class="node"><title>Node5</title>
<g id="a_node5"><a xlink:href="../../d5/df1/classfront_end_1_1_turtle_canvas.html#a6ec2eaa226ff6aa7e998ec226902ac9f" target="_top" xlink:title="frontEnd.TurtleCanvas.get\lBoundingWidth">
<polygon fill="white" stroke="black" points="433,-49 433,-79 573,-79 573,-49 433,-49"/>
<text text-anchor="start" x="441" y="-67" font-family="Helvetica,sans-Serif" font-size="10.00">frontEnd.TurtleCanvas.get</text>
<text text-anchor="middle" x="503" y="-56" font-family="Helvetica,sans-Serif" font-size="10.00">BoundingWidth</text>
</a>
</g>
</g>
<!-- Node4&#45;&gt;Node5 -->
<g id="edge4" class="edge"><title>Node4&#45;&gt;Node5</title>
<path fill="none" stroke="midnightblue" d="M356.643,-64C378.143,-64 401.397,-64 422.868,-64"/>
<polygon fill="midnightblue" stroke="midnightblue" points="422.921,-67.5001 432.921,-64 422.921,-60.5001 422.921,-67.5001"/>
</g>
<!-- Node7 -->
<g id="node7" class="node"><title>Node7</title>
<g id="a_node7"><a xlink:href="../../d4/d07/classback_end_1_1turtle_1_1_turtle_manager.html#a84ec440cfc5cbefdfab52c661599b956" target="_top" xlink:title="backEnd.turtle.TurtleManager.create\lTurtleList">
<polygon fill="white" stroke="black" points="408.5,-0 408.5,-30 597.5,-30 597.5,-0 408.5,-0"/>
<text text-anchor="start" x="416.5" y="-18" font-family="Helvetica,sans-Serif" font-size="10.00">backEnd.turtle.TurtleManager.create</text>
<text text-anchor="middle" x="503" y="-7" font-family="Helvetica,sans-Serif" font-size="10.00">TurtleList</text>
</a>
</g>
</g>
<!-- Node6&#45;&gt;Node7 -->
<g id="edge6" class="edge"><title>Node6&#45;&gt;Node7</title>
<path fill="none" stroke="midnightblue" d="M372.094,-16.7321C380.715,-16.6171 389.475,-16.5003 398.166,-16.3845"/>
<polygon fill="midnightblue" stroke="midnightblue" points="398.371,-19.8821 408.323,-16.249 398.278,-12.8828 398.371,-19.8821"/>
</g>
<!-- Node8 -->
<g id="node8" class="node"><title>Node8</title>
<g id="a_node8"><a xlink:href="../../d4/d07/classback_end_1_1turtle_1_1_turtle_manager.html#a7c50d7becc5092e99d3eff1d6fc2d1f6" target="_top" xlink:title="backEnd.turtle.TurtleManager.add\lNewTurtle">
<polygon fill="white" stroke="black" points="634,-0 634,-30 810,-30 810,-0 634,-0"/>
<text text-anchor="start" x="642" y="-18" font-family="Helvetica,sans-Serif" font-size="10.00">backEnd.turtle.TurtleManager.add</text>
<text text-anchor="middle" x="722" y="-7" font-family="Helvetica,sans-Serif" font-size="10.00">NewTurtle</text>
</a>
</g>
</g>
<!-- Node7&#45;&gt;Node8 -->
<g id="edge7" class="edge"><title>Node7&#45;&gt;Node8</title>
<path fill="none" stroke="midnightblue" d="M597.602,-15C606.259,-15 615.045,-15 623.734,-15"/>
<polygon fill="midnightblue" stroke="midnightblue" points="623.875,-18.5001 633.875,-15 623.875,-11.5001 623.875,-18.5001"/>
</g>
</g>
</svg>
