<?xml version="1.0" encoding="UTF-8" standalone="no"?>
<!DOCTYPE svg PUBLIC "-//W3C//DTD SVG 1.1//EN"
 "http://www.w3.org/Graphics/SVG/1.1/DTD/svg11.dtd">
<!-- Generated by graphviz version 2.36.0 (20140111.2315)
 -->
<!-- Title: backEnd.Model.getCommandsMap Pages: 1 -->
<svg width="1922pt" height="177pt"
 viewBox="0.00 0.00 1922.00 177.00" xmlns="http://www.w3.org/2000/svg" xmlns:xlink="http://www.w3.org/1999/xlink">
<g id="graph0" class="graph" transform="scale(1 1) rotate(0) translate(4 173)">
<title>backEnd.Model.getCommandsMap</title>
<polygon fill="white" stroke="none" points="-4,4 -4,-173 1918,-173 1918,4 -4,4"/>
<!-- Node1 -->
<g id="node1" class="node"><title>Node1</title>
<polygon fill="#bfbfbf" stroke="black" points="0.5,-87.5 0.5,-106.5 183.5,-106.5 183.5,-87.5 0.5,-87.5"/>
<text text-anchor="middle" x="92" y="-94.5" font-family="Helvetica,sans-Serif" font-size="10.00">backEnd.Model.getCommandsMap</text>
</g>
<!-- Node2 -->
<g id="node2" class="node"><title>Node2</title>
<g id="a_node2"><a xlink:href="../../d5/d1d/classcommands_1_1_command_factory.html#ac77125dd466e3e01fce01fc527e7f815" target="_top" xlink:title="commands.CommandFactory.build\lCommand">
<polygon fill="white" stroke="black" points="220,-82 220,-112 402,-112 402,-82 220,-82"/>
<text text-anchor="start" x="228" y="-100" font-family="Helvetica,sans-Serif" font-size="10.00">commands.CommandFactory.build</text>
<text text-anchor="middle" x="311" y="-89" font-family="Helvetica,sans-Serif" font-size="10.00">Command</text>
</a>
</g>
</g>
<!-- Node1&#45;&gt;Node2 -->
<g id="edge1" class="edge"><title>Node1&#45;&gt;Node2</title>
<path fill="none" stroke="midnightblue" d="M193.92,-97C202.603,-97 211.352,-97 219.941,-97"/>
<polygon fill="midnightblue" stroke="midnightblue" points="193.77,-93.5001 183.77,-97 193.77,-100.5 193.77,-93.5001"/>
</g>
<!-- Node3 -->
<g id="node3" class="node"><title>Node3</title>
<g id="a_node3"><a xlink:href="../../d9/d1e/classback_end_1_1_parser.html#a653298ad53a1eea540beded2bb558ab4" target="_top" xlink:title="backEnd.Parser.makeTree">
<polygon fill="white" stroke="black" points="438.5,-87.5 438.5,-106.5 577.5,-106.5 577.5,-87.5 438.5,-87.5"/>
<text text-anchor="middle" x="508" y="-94.5" font-family="Helvetica,sans-Serif" font-size="10.00">backEnd.Parser.makeTree</text>
</a>
</g>
</g>
<!-- Node1&#45;&gt;Node3 -->
<g id="edge17" class="edge"><title>Node1&#45;&gt;Node3</title>
<path fill="none" stroke="midnightblue" d="M143.033,-108.689C166.292,-113.546 194.409,-118.603 220,-121 300.536,-128.543 321.621,-130.069 402,-121 426.342,-118.254 453.266,-112.033 473.756,-106.614"/>
<polygon fill="midnightblue" stroke="midnightblue" points="143.561,-105.223 133.051,-106.556 142.098,-112.069 143.561,-105.223"/>
</g>
<!-- Node4 -->
<g id="node4" class="node"><title>Node4</title>
<g id="a_node4"><a xlink:href="../../d9/d1e/classback_end_1_1_parser.html#a163b8afd814babc8e7df59993f0d6440" target="_top" xlink:title="backEnd.Parser.parseScript">
<polygon fill="white" stroke="black" points="614.5,-65.5 614.5,-84.5 761.5,-84.5 761.5,-65.5 614.5,-65.5"/>
<text text-anchor="middle" x="688" y="-72.5" font-family="Helvetica,sans-Serif" font-size="10.00">backEnd.Parser.parseScript</text>
</a>
</g>
</g>
<!-- Node1&#45;&gt;Node4 -->
<g id="edge18" class="edge"><title>Node1&#45;&gt;Node4</title>
<path fill="none" stroke="midnightblue" d="M140.844,-85.2976C164.502,-80.0972 193.581,-74.5756 220,-72 358.998,-58.4491 522.37,-64.4919 614.388,-69.896"/>
<polygon fill="midnightblue" stroke="midnightblue" points="140.049,-81.8889 131.06,-87.4972 141.584,-88.7185 140.049,-81.8889"/>
</g>
<!-- Node2&#45;&gt;Node3 -->
<g id="edge2" class="edge"><title>Node2&#45;&gt;Node3</title>
<path fill="none" stroke="midnightblue" d="M412.086,-97C420.952,-97 429.789,-97 438.304,-97"/>
<polygon fill="midnightblue" stroke="midnightblue" points="412.08,-93.5001 402.08,-97 412.08,-100.5 412.08,-93.5001"/>
</g>
<!-- Node3&#45;&gt;Node4 -->
<g id="edge3" class="edge"><title>Node3&#45;&gt;Node4</title>
<path fill="none" stroke="midnightblue" d="M587.545,-87.2921C596.456,-86.1908 605.508,-85.072 614.338,-83.9807"/>
<polygon fill="midnightblue" stroke="midnightblue" points="587.06,-83.8254 577.565,-88.5257 587.919,-90.7726 587.06,-83.8254"/>
</g>
<!-- Node5 -->
<g id="node5" class="node"><title>Node5</title>
<g id="a_node5"><a xlink:href="../../d9/d98/classback_end_1_1_model.html#ade764fd1c85a48fabb9abf3dfe8b8ceb" target="_top" xlink:title="backEnd.Model.runScript">
<polygon fill="white" stroke="black" points="798.5,-65.5 798.5,-84.5 933.5,-84.5 933.5,-65.5 798.5,-65.5"/>
<text text-anchor="middle" x="866" y="-72.5" font-family="Helvetica,sans-Serif" font-size="10.00">backEnd.Model.runScript</text>
</a>
</g>
</g>
<!-- Node4&#45;&gt;Node5 -->
<g id="edge4" class="edge"><title>Node4&#45;&gt;Node5</title>
<path fill="none" stroke="midnightblue" d="M771.694,-75C780.678,-75 789.736,-75 798.491,-75"/>
<polygon fill="midnightblue" stroke="midnightblue" points="771.602,-71.5001 761.602,-75 771.602,-78.5001 771.602,-71.5001"/>
</g>
<!-- Node6 -->
<g id="node6" class="node"><title>Node6</title>
<g id="a_node6"><a xlink:href="../../d9/d49/classback_end_1_1_controller.html#ad650f48d236eaf11c2d8591b04831900" target="_top" xlink:title="backEnd.Controller.runScript">
<polygon fill="white" stroke="black" points="970,-65.5 970,-84.5 1122,-84.5 1122,-65.5 970,-65.5"/>
<text text-anchor="middle" x="1046" y="-72.5" font-family="Helvetica,sans-Serif" font-size="10.00">backEnd.Controller.runScript</text>
</a>
</g>
</g>
<!-- Node5&#45;&gt;Node6 -->
<g id="edge5" class="edge"><title>Node5&#45;&gt;Node6</title>
<path fill="none" stroke="midnightblue" d="M943.646,-75C952.341,-75 961.196,-75 969.871,-75"/>
<polygon fill="midnightblue" stroke="midnightblue" points="943.534,-71.5001 933.534,-75 943.534,-78.5001 943.534,-71.5001"/>
</g>
<!-- Node7 -->
<g id="node7" class="node"><title>Node7</title>
<g id="a_node7"><a xlink:href="../../de/d03/classpanels_1_1_script_panel.html#ae6ae56472ef1a975597bad69844662c6" target="_top" xlink:title="panels.ScriptPanel.handler">
<polygon fill="white" stroke="black" points="1160.5,-130.5 1160.5,-149.5 1303.5,-149.5 1303.5,-130.5 1160.5,-130.5"/>
<text text-anchor="middle" x="1232" y="-137.5" font-family="Helvetica,sans-Serif" font-size="10.00">panels.ScriptPanel.handler</text>
</a>
</g>
</g>
<!-- Node6&#45;&gt;Node7 -->
<g id="edge6" class="edge"><title>Node6&#45;&gt;Node7</title>
<path fill="none" stroke="midnightblue" d="M1083.67,-87.9552C1119.2,-100.505 1172.23,-119.24 1204.04,-130.476"/>
<polygon fill="midnightblue" stroke="midnightblue" points="1084.74,-84.6218 1074.15,-84.591 1082.41,-91.2221 1084.74,-84.6218"/>
</g>
<!-- Node9 -->
<g id="node9" class="node"><title>Node9</title>
<g id="a_node9"><a xlink:href="../../da/d04/classtitle_panes_1_1_control_title_pane.html#af28eba60fefe51c70e763d51d9123ea3" target="_top" xlink:title="titlePanes.ControlTitlePane.make\lLocationFields">
<polygon fill="white" stroke="black" points="1558.5,-0 1558.5,-30 1731.5,-30 1731.5,-0 1558.5,-0"/>
<text text-anchor="start" x="1566.5" y="-18" font-family="Helvetica,sans-Serif" font-size="10.00">titlePanes.ControlTitlePane.make</text>
<text text-anchor="middle" x="1645" y="-7" font-family="Helvetica,sans-Serif" font-size="10.00">LocationFields</text>
</a>
</g>
</g>
<!-- Node6&#45;&gt;Node9 -->
<g id="edge8" class="edge"><title>Node6&#45;&gt;Node9</title>
<path fill="none" stroke="midnightblue" d="M1107.18,-63.7364C1123.62,-60.9228 1141.46,-58.1097 1158,-56 1297.64,-38.1916 1460.88,-26.222 1558.17,-20.018"/>
<polygon fill="midnightblue" stroke="midnightblue" points="1106.4,-60.3191 1097.15,-65.4821 1107.6,-67.2155 1106.4,-60.3191"/>
</g>
<!-- Node11 -->
<g id="node11" class="node"><title>Node11</title>
<g id="a_node11"><a xlink:href="../../d9/d49/classback_end_1_1_controller.html#a3b0bbf0a084bb4fb63d118f66e7327b1" target="_top" xlink:title="backEnd.Controller.move10">
<polygon fill="white" stroke="black" points="1158,-65.5 1158,-84.5 1306,-84.5 1306,-65.5 1158,-65.5"/>
<text text-anchor="middle" x="1232" y="-72.5" font-family="Helvetica,sans-Serif" font-size="10.00">backEnd.Controller.move10</text>
</a>
</g>
</g>
<!-- Node6&#45;&gt;Node11 -->
<g id="edge10" class="edge"><title>Node6&#45;&gt;Node11</title>
<path fill="none" stroke="midnightblue" d="M1132.16,-75C1140.76,-75 1149.45,-75 1157.92,-75"/>
<polygon fill="midnightblue" stroke="midnightblue" points="1132.11,-71.5001 1122.11,-75 1132.11,-78.5001 1132.11,-71.5001"/>
</g>
<!-- Node8 -->
<g id="node8" class="node"><title>Node8</title>
<g id="a_node8"><a xlink:href="../../de/d03/classpanels_1_1_script_panel.html#ac959f1785cff7409d857d3bea9b8ee63" target="_top" xlink:title="panels.ScriptPanel.Script\lPanel">
<polygon fill="white" stroke="black" points="1364.5,-139 1364.5,-169 1499.5,-169 1499.5,-139 1364.5,-139"/>
<text text-anchor="start" x="1372.5" y="-157" font-family="Helvetica,sans-Serif" font-size="10.00">panels.ScriptPanel.Script</text>
<text text-anchor="middle" x="1432" y="-146" font-family="Helvetica,sans-Serif" font-size="10.00">Panel</text>
</a>
</g>
</g>
<!-- Node7&#45;&gt;Node8 -->
<g id="edge7" class="edge"><title>Node7&#45;&gt;Node8</title>
<path fill="none" stroke="midnightblue" d="M1313.97,-145.725C1330.72,-146.909 1348.19,-148.144 1364.36,-149.288"/>
<polygon fill="midnightblue" stroke="midnightblue" points="1313.87,-142.209 1303.64,-144.995 1313.37,-149.192 1313.87,-142.209"/>
</g>
<!-- Node10 -->
<g id="node10" class="node"><title>Node10</title>
<g id="a_node10"><a xlink:href="../../da/d04/classtitle_panes_1_1_control_title_pane.html#ad9d4431a2657a30fedae46e0c9093867" target="_top" xlink:title="titlePanes.ControlTitlePane.\lControlTitlePane">
<polygon fill="white" stroke="black" points="1768,-24 1768,-54 1914,-54 1914,-24 1768,-24"/>
<text text-anchor="start" x="1776" y="-42" font-family="Helvetica,sans-Serif" font-size="10.00">titlePanes.ControlTitlePane.</text>
<text text-anchor="middle" x="1841" y="-31" font-family="Helvetica,sans-Serif" font-size="10.00">ControlTitlePane</text>
</a>
</g>
</g>
<!-- Node9&#45;&gt;Node10 -->
<g id="edge9" class="edge"><title>Node9&#45;&gt;Node10</title>
<path fill="none" stroke="midnightblue" d="M1741.6,-26.8271C1750.43,-27.9193 1759.28,-29.0135 1767.84,-30.0734"/>
<polygon fill="midnightblue" stroke="midnightblue" points="1742.01,-23.3509 1731.66,-25.5966 1741.15,-30.298 1742.01,-23.3509"/>
</g>
<!-- Node12 -->
<g id="node12" class="node"><title>Node12</title>
<g id="a_node12"><a xlink:href="../../d9/d49/classback_end_1_1_controller.html#a7893477f39915a5169eb8da0dff60628" target="_top" xlink:title="backEnd.Controller.build\lKeyListener">
<polygon fill="white" stroke="black" points="1366.5,-90 1366.5,-120 1497.5,-120 1497.5,-90 1366.5,-90"/>
<text text-anchor="start" x="1374.5" y="-108" font-family="Helvetica,sans-Serif" font-size="10.00">backEnd.Controller.build</text>
<text text-anchor="middle" x="1432" y="-97" font-family="Helvetica,sans-Serif" font-size="10.00">KeyListener</text>
</a>
</g>
</g>
<!-- Node11&#45;&gt;Node12 -->
<g id="edge11" class="edge"><title>Node11&#45;&gt;Node12</title>
<path fill="none" stroke="midnightblue" d="M1306.08,-86.0721C1325.79,-89.0587 1346.97,-92.2687 1366.2,-95.1816"/>
<polygon fill="midnightblue" stroke="midnightblue" points="1306.33,-82.571 1295.92,-84.5334 1305.28,-89.492 1306.33,-82.571"/>
</g>
<!-- Node14 -->
<g id="node14" class="node"><title>Node14</title>
<g id="a_node14"><a xlink:href="../../da/d04/classtitle_panes_1_1_control_title_pane.html#ae994c7b4dd988b30fc824e9e893b3ccf" target="_top" xlink:title="titlePanes.ControlTitlePane.handle">
<polygon fill="white" stroke="black" points="1342.5,-51.5 1342.5,-70.5 1521.5,-70.5 1521.5,-51.5 1342.5,-51.5"/>
<text text-anchor="middle" x="1432" y="-58.5" font-family="Helvetica,sans-Serif" font-size="10.00">titlePanes.ControlTitlePane.handle</text>
</a>
</g>
</g>
<!-- Node11&#45;&gt;Node14 -->
<g id="edge13" class="edge"><title>Node11&#45;&gt;Node14</title>
<path fill="none" stroke="midnightblue" d="M1316.22,-69.1158C1324.86,-68.5047 1333.67,-67.882 1342.37,-67.2668"/>
<polygon fill="midnightblue" stroke="midnightblue" points="1315.89,-65.63 1306.17,-69.8267 1316.39,-72.6126 1315.89,-65.63"/>
</g>
<!-- Node13 -->
<g id="node13" class="node"><title>Node13</title>
<g id="a_node13"><a xlink:href="../../d9/d49/classback_end_1_1_controller.html#a987136eaba0798749f393bac2a9a2400" target="_top" xlink:title="backEnd.Controller.Controller">
<polygon fill="white" stroke="black" points="1567.5,-98.5 1567.5,-117.5 1722.5,-117.5 1722.5,-98.5 1567.5,-98.5"/>
<text text-anchor="middle" x="1645" y="-105.5" font-family="Helvetica,sans-Serif" font-size="10.00">backEnd.Controller.Controller</text>
</a>
</g>
</g>
<!-- Node12&#45;&gt;Node13 -->
<g id="edge12" class="edge"><title>Node12&#45;&gt;Node13</title>
<path fill="none" stroke="midnightblue" d="M1507.94,-106.065C1527.15,-106.339 1547.84,-106.633 1567.15,-106.907"/>
<polygon fill="midnightblue" stroke="midnightblue" points="1507.79,-102.563 1497.74,-105.92 1507.69,-109.562 1507.79,-102.563"/>
</g>
<!-- Node14&#45;&gt;Node9 -->
<g id="edge16" class="edge"><title>Node14&#45;&gt;Node9</title>
<path fill="none" stroke="midnightblue" d="M1486.69,-49.2945C1513.53,-43.4436 1546.32,-36.2957 1575,-30.0427"/>
<polygon fill="midnightblue" stroke="midnightblue" points="1485.74,-45.919 1476.72,-51.4688 1487.24,-52.7583 1485.74,-45.919"/>
</g>
<!-- Node15 -->
<g id="node15" class="node"><title>Node15</title>
<g id="a_node15"><a xlink:href="../../da/d04/classtitle_panes_1_1_control_title_pane.html#a974c75cbdf64007af637c8b19a26b215" target="_top" xlink:title="titlePanes.ControlTitlePane.make\lButtons">
<polygon fill="white" stroke="black" points="1558.5,-49 1558.5,-79 1731.5,-79 1731.5,-49 1558.5,-49"/>
<text text-anchor="start" x="1566.5" y="-67" font-family="Helvetica,sans-Serif" font-size="10.00">titlePanes.ControlTitlePane.make</text>
<text text-anchor="middle" x="1645" y="-56" font-family="Helvetica,sans-Serif" font-size="10.00">Buttons</text>
</a>
</g>
</g>
<!-- Node14&#45;&gt;Node15 -->
<g id="edge14" class="edge"><title>Node14&#45;&gt;Node15</title>
<path fill="none" stroke="midnightblue" d="M1531.61,-62.4021C1540.55,-62.5291 1549.55,-62.6571 1558.36,-62.7824"/>
<polygon fill="midnightblue" stroke="midnightblue" points="1531.61,-58.9018 1521.57,-62.2592 1531.52,-65.9011 1531.61,-58.9018"/>
</g>
<!-- Node15&#45;&gt;Node10 -->
<g id="edge15" class="edge"><title>Node15&#45;&gt;Node10</title>
<path fill="none" stroke="midnightblue" d="M1741.6,-51.6801C1750.43,-50.5423 1759.28,-49.4026 1767.84,-48.2985"/>
<polygon fill="midnightblue" stroke="midnightblue" points="1741.13,-48.2124 1731.66,-52.9619 1742.02,-55.155 1741.13,-48.2124"/>
</g>
</g>
</svg>
