<?xml version="1.0" encoding="UTF-8" standalone="no"?>
<!DOCTYPE svg PUBLIC "-//W3C//DTD SVG 1.1//EN"
 "http://www.w3.org/Graphics/SVG/1.1/DTD/svg11.dtd">
<!-- Generated by graphviz version 2.36.0 (20140111.2315)
 -->
<!-- Title: backEnd.Model.setVariableProperties Pages: 1 -->
<svg width="730pt" height="38pt"
 viewBox="0.00 0.00 730.00 38.00" xmlns="http://www.w3.org/2000/svg" xmlns:xlink="http://www.w3.org/1999/xlink">
<g id="graph0" class="graph" transform="scale(1 1) rotate(0) translate(4 34)">
<title>backEnd.Model.setVariableProperties</title>
<polygon fill="white" stroke="none" points="-4,4 -4,-34 726,-34 726,4 -4,4"/>
<!-- Node1 -->
<g id="node1" class="node"><title>Node1</title>
<polygon fill="#bfbfbf" stroke="black" points="0.5,-0 0.5,-30 145.5,-30 145.5,-0 0.5,-0"/>
<text text-anchor="start" x="8.5" y="-18" font-family="Helvetica,sans-Serif" font-size="10.00">backEnd.Model.setVariable</text>
<text text-anchor="middle" x="73" y="-7" font-family="Helvetica,sans-Serif" font-size="10.00">Properties</text>
</g>
<!-- Node2 -->
<g id="node2" class="node"><title>Node2</title>
<g id="a_node2"><a xlink:href="../../d9/d49/classback_end_1_1_controller.html#acf935e88b95d20cbba2c7d112f9c2f54" target="_top" xlink:title="backEnd.Controller.setVariable\lProperties">
<polygon fill="white" stroke="black" points="182,-0 182,-30 344,-30 344,-0 182,-0"/>
<text text-anchor="start" x="190" y="-18" font-family="Helvetica,sans-Serif" font-size="10.00">backEnd.Controller.setVariable</text>
<text text-anchor="middle" x="263" y="-7" font-family="Helvetica,sans-Serif" font-size="10.00">Properties</text>
</a>
</g>
</g>
<!-- Node1&#45;&gt;Node2 -->
<g id="edge1" class="edge"><title>Node1&#45;&gt;Node2</title>
<path fill="none" stroke="midnightblue" d="M155.693,-15C164.353,-15 173.154,-15 181.796,-15"/>
<polygon fill="midnightblue" stroke="midnightblue" points="155.611,-11.5001 145.611,-15 155.611,-18.5001 155.611,-11.5001"/>
</g>
<!-- Node3 -->
<g id="node3" class="node"><title>Node3</title>
<g id="a_node3"><a xlink:href="../../d7/d28/classtitle_panes_1_1_load_variables_title_pane.html#a3ab37d9b46d60d0562afb24edaa6a707" target="_top" xlink:title="titlePanes.LoadVariables\lTitlePane.openFile">
<polygon fill="white" stroke="black" points="380.5,-0 380.5,-30 513.5,-30 513.5,-0 380.5,-0"/>
<text text-anchor="start" x="388.5" y="-18" font-family="Helvetica,sans-Serif" font-size="10.00">titlePanes.LoadVariables</text>
<text text-anchor="middle" x="447" y="-7" font-family="Helvetica,sans-Serif" font-size="10.00">TitlePane.openFile</text>
</a>
</g>
</g>
<!-- Node2&#45;&gt;Node3 -->
<g id="edge2" class="edge"><title>Node2&#45;&gt;Node3</title>
<path fill="none" stroke="midnightblue" d="M354.355,-15C363.116,-15 371.885,-15 380.338,-15"/>
<polygon fill="midnightblue" stroke="midnightblue" points="354.093,-11.5001 344.093,-15 354.093,-18.5001 354.093,-11.5001"/>
</g>
<!-- Node4 -->
<g id="node4" class="node"><title>Node4</title>
<g id="a_node4"><a xlink:href="../../d7/d28/classtitle_panes_1_1_load_variables_title_pane.html#af7eb41c10127c811d6d8b0ee8d6cf879" target="_top" xlink:title="titlePanes.LoadVariables\lTitlePane.LoadVariablesTitlePane">
<polygon fill="white" stroke="black" points="550,-0 550,-30 722,-30 722,-0 550,-0"/>
<text text-anchor="start" x="558" y="-18" font-family="Helvetica,sans-Serif" font-size="10.00">titlePanes.LoadVariables</text>
<text text-anchor="middle" x="636" y="-7" font-family="Helvetica,sans-Serif" font-size="10.00">TitlePane.LoadVariablesTitlePane</text>
</a>
</g>
</g>
<!-- Node3&#45;&gt;Node4 -->
<g id="edge3" class="edge"><title>Node3&#45;&gt;Node4</title>
<path fill="none" stroke="midnightblue" d="M523.936,-15C532.454,-15 541.174,-15 549.798,-15"/>
<polygon fill="midnightblue" stroke="midnightblue" points="523.666,-11.5001 513.666,-15 523.666,-18.5001 523.666,-11.5001"/>
</g>
</g>
</svg>
