<?xml version="1.0" encoding="UTF-8" standalone="no"?>
<!DOCTYPE svg PUBLIC "-//W3C//DTD SVG 1.1//EN"
 "http://www.w3.org/Graphics/SVG/1.1/DTD/svg11.dtd">
<!-- Generated by graphviz version 2.36.0 (20140111.2315)
 -->
<!-- Title: commands.turtle_commands.SetShapeCommand.execute Pages: 1 -->
<svg width="668pt" height="229pt"
 viewBox="0.00 0.00 668.00 229.00" xmlns="http://www.w3.org/2000/svg" xmlns:xlink="http://www.w3.org/1999/xlink">
<g id="graph0" class="graph" transform="scale(1 1) rotate(0) translate(4 225)">
<title>commands.turtle_commands.SetShapeCommand.execute</title>
<polygon fill="white" stroke="none" points="-4,4 -4,-225 664,-225 664,4 -4,4"/>
<!-- Node1 -->
<g id="node1" class="node"><title>Node1</title>
<polygon fill="#bfbfbf" stroke="black" points="0.5,-98 0.5,-128 161.5,-128 161.5,-98 0.5,-98"/>
<text text-anchor="start" x="8.5" y="-116" font-family="Helvetica,sans-Serif" font-size="10.00">commands.turtle_commands.</text>
<text text-anchor="middle" x="81" y="-105" font-family="Helvetica,sans-Serif" font-size="10.00">SetShapeCommand.execute</text>
</g>
<!-- Node2 -->
<g id="node2" class="node"><title>Node2</title>
<g id="a_node2"><a xlink:href="../../d9/ded/classcommands_1_1turtle__commands_1_1_set_shape_command.html#ae2fe0870797e44323f23fc46caf2b629" target="_top" xlink:title="commands.turtle_commands.\lSetShapeCommand.executeTurtleCommand">
<polygon fill="white" stroke="black" points="198.5,-186 198.5,-216 429.5,-216 429.5,-186 198.5,-186"/>
<text text-anchor="start" x="206.5" y="-204" font-family="Helvetica,sans-Serif" font-size="10.00">commands.turtle_commands.</text>
<text text-anchor="middle" x="314" y="-193" font-family="Helvetica,sans-Serif" font-size="10.00">SetShapeCommand.executeTurtleCommand</text>
</a>
</g>
</g>
<!-- Node1&#45;&gt;Node2 -->
<g id="edge1" class="edge"><title>Node1&#45;&gt;Node2</title>
<path fill="none" stroke="midnightblue" d="M108.473,-128.233C131.534,-141.011 166.173,-159.042 198,-171 210.082,-175.54 223.127,-179.652 235.941,-183.275"/>
<polygon fill="midnightblue" stroke="midnightblue" points="235.106,-186.675 245.676,-185.949 236.96,-179.925 235.106,-186.675"/>
</g>
<!-- Node4 -->
<g id="node4" class="node"><title>Node4</title>
<g id="a_node4"><a xlink:href="../../d5/d62/classcommands_1_1templates_1_1_command.html#a97358158dd12c0a83a49df3c1e379790" target="_top" xlink:title="commands.templates.Command.get\lValue">
<polygon fill="white" stroke="black" points="466,-142 466,-172 660,-172 660,-142 466,-142"/>
<text text-anchor="start" x="474" y="-160" font-family="Helvetica,sans-Serif" font-size="10.00">commands.templates.Command.get</text>
<text text-anchor="middle" x="563" y="-149" font-family="Helvetica,sans-Serif" font-size="10.00">Value</text>
</a>
</g>
</g>
<!-- Node1&#45;&gt;Node4 -->
<g id="edge7" class="edge"><title>Node1&#45;&gt;Node4</title>
<path fill="none" stroke="midnightblue" d="M146.136,-128.049C162.929,-131.499 181.074,-134.796 198,-137 284.315,-148.237 382.944,-153.172 455.745,-155.334"/>
<polygon fill="midnightblue" stroke="midnightblue" points="455.747,-158.835 465.842,-155.621 455.946,-151.838 455.747,-158.835"/>
</g>
<!-- Node5 -->
<g id="node5" class="node"><title>Node5</title>
<g id="a_node5"><a xlink:href="../../d5/d62/classcommands_1_1templates_1_1_command.html#ae48716b79da0af7e6815fbe6fc113075" target="_top" xlink:title="commands.templates.Command.get\lMyChildren">
<polygon fill="white" stroke="black" points="217,-98 217,-128 411,-128 411,-98 217,-98"/>
<text text-anchor="start" x="225" y="-116" font-family="Helvetica,sans-Serif" font-size="10.00">commands.templates.Command.get</text>
<text text-anchor="middle" x="314" y="-105" font-family="Helvetica,sans-Serif" font-size="10.00">MyChildren</text>
</a>
</g>
</g>
<!-- Node1&#45;&gt;Node5 -->
<g id="edge4" class="edge"><title>Node1&#45;&gt;Node5</title>
<path fill="none" stroke="midnightblue" d="M161.821,-113C176.231,-113 191.463,-113 206.49,-113"/>
<polygon fill="midnightblue" stroke="midnightblue" points="206.849,-116.5 216.849,-113 206.849,-109.5 206.849,-116.5"/>
</g>
<!-- Node6 -->
<g id="node6" class="node"><title>Node6</title>
<g id="a_node6"><a xlink:href="../../dc/d36/classcommands_1_1templates_1_1_turtle_command.html#ae4d2a640c2db20e624d831deed30484d" target="_top" xlink:title="commands.templates.Turtle\lCommand.getMyTurtleManager">
<polygon fill="white" stroke="black" points="230.5,-49 230.5,-79 397.5,-79 397.5,-49 230.5,-49"/>
<text text-anchor="start" x="238.5" y="-67" font-family="Helvetica,sans-Serif" font-size="10.00">commands.templates.Turtle</text>
<text text-anchor="middle" x="314" y="-56" font-family="Helvetica,sans-Serif" font-size="10.00">Command.getMyTurtleManager</text>
</a>
</g>
</g>
<!-- Node1&#45;&gt;Node6 -->
<g id="edge5" class="edge"><title>Node1&#45;&gt;Node6</title>
<path fill="none" stroke="midnightblue" d="M152.877,-97.9654C178.044,-92.627 206.55,-86.5802 232.464,-81.0834"/>
<polygon fill="midnightblue" stroke="midnightblue" points="233.201,-84.5051 242.257,-79.0062 231.748,-77.6575 233.201,-84.5051"/>
</g>
<!-- Node8 -->
<g id="node8" class="node"><title>Node8</title>
<g id="a_node8"><a xlink:href="../../d5/d62/classcommands_1_1templates_1_1_command.html#a632193b631b368f6ffbc514865f062e5" target="_top" xlink:title="commands.templates.Command.set\lValue">
<polygon fill="white" stroke="black" points="217,-0 217,-30 411,-30 411,-0 217,-0"/>
<text text-anchor="start" x="225" y="-18" font-family="Helvetica,sans-Serif" font-size="10.00">commands.templates.Command.set</text>
<text text-anchor="middle" x="314" y="-7" font-family="Helvetica,sans-Serif" font-size="10.00">Value</text>
</a>
</g>
</g>
<!-- Node1&#45;&gt;Node8 -->
<g id="edge8" class="edge"><title>Node1&#45;&gt;Node8</title>
<path fill="none" stroke="midnightblue" d="M101.373,-97.8158C123.515,-81.1988 161.435,-54.9396 198,-40 204.354,-37.404 211.02,-35.0588 217.808,-32.9433"/>
<polygon fill="midnightblue" stroke="midnightblue" points="219.208,-36.1802 227.818,-30.0057 217.237,-29.4634 219.208,-36.1802"/>
</g>
<!-- Node3 -->
<g id="node3" class="node"><title>Node3</title>
<g id="a_node3"><a xlink:href="../../d4/d07/classback_end_1_1turtle_1_1_turtle_manager.html#abd8e7545c1f29c7714bc7aaf59d3875b" target="_top" xlink:title="backEnd.turtle.TurtleManager.get\lTurtleList">
<polygon fill="white" stroke="black" points="476,-191 476,-221 650,-221 650,-191 476,-191"/>
<text text-anchor="start" x="484" y="-209" font-family="Helvetica,sans-Serif" font-size="10.00">backEnd.turtle.TurtleManager.get</text>
<text text-anchor="middle" x="563" y="-198" font-family="Helvetica,sans-Serif" font-size="10.00">TurtleList</text>
</a>
</g>
</g>
<!-- Node2&#45;&gt;Node3 -->
<g id="edge2" class="edge"><title>Node2&#45;&gt;Node3</title>
<path fill="none" stroke="midnightblue" d="M429.823,-203.324C441.808,-203.567 453.902,-203.812 465.652,-204.05"/>
<polygon fill="midnightblue" stroke="midnightblue" points="465.808,-207.553 475.877,-204.257 465.95,-200.555 465.808,-207.553"/>
</g>
<!-- Node2&#45;&gt;Node4 -->
<g id="edge3" class="edge"><title>Node2&#45;&gt;Node4</title>
<path fill="none" stroke="midnightblue" d="M399.313,-185.981C421.347,-182.056 445.239,-177.8 467.754,-173.789"/>
<polygon fill="midnightblue" stroke="midnightblue" points="468.417,-177.226 477.648,-172.026 467.189,-170.334 468.417,-177.226"/>
</g>
<!-- Node7 -->
<g id="node7" class="node"><title>Node7</title>
<g id="a_node7"><a xlink:href="../../d9/d98/classback_end_1_1_model.html#a1f54b1acaee5f2f608376ce454fa82f2" target="_top" xlink:title="backEnd.Model.getTurtleManager">
<polygon fill="white" stroke="black" points="475.5,-54.5 475.5,-73.5 650.5,-73.5 650.5,-54.5 475.5,-54.5"/>
<text text-anchor="middle" x="563" y="-61.5" font-family="Helvetica,sans-Serif" font-size="10.00">backEnd.Model.getTurtleManager</text>
</a>
</g>
</g>
<!-- Node6&#45;&gt;Node7 -->
<g id="edge6" class="edge"><title>Node6&#45;&gt;Node7</title>
<path fill="none" stroke="midnightblue" d="M397.591,-64C419.239,-64 442.777,-64 465.099,-64"/>
<polygon fill="midnightblue" stroke="midnightblue" points="465.258,-67.5001 475.258,-64 465.258,-60.5001 465.258,-67.5001"/>
</g>
</g>
</svg>
