<?xml version="1.0" encoding="UTF-8" standalone="no"?>
<!DOCTYPE svg PUBLIC "-//W3C//DTD SVG 1.1//EN"
 "http://www.w3.org/Graphics/SVG/1.1/DTD/svg11.dtd">
<!-- Generated by graphviz version 2.36.0 (20140111.2315)
 -->
<!-- Title: commands.onechild.ArcTangentCommand.toString Pages: 1 -->
<svg width="614pt" height="61pt"
 viewBox="0.00 0.00 614.00 61.00" xmlns="http://www.w3.org/2000/svg" xmlns:xlink="http://www.w3.org/1999/xlink">
<g id="graph0" class="graph" transform="scale(1 1) rotate(0) translate(4 57)">
<title>commands.onechild.ArcTangentCommand.toString</title>
<polygon fill="white" stroke="none" points="-4,4 -4,-57 610,-57 610,4 -4,4"/>
<!-- Node1 -->
<g id="node1" class="node"><title>Node1</title>
<polygon fill="#bfbfbf" stroke="black" points="0,-1 0,-31 170,-31 170,-1 0,-1"/>
<text text-anchor="start" x="8" y="-19" font-family="Helvetica,sans-Serif" font-size="10.00">commands.onechild.ArcTangent</text>
<text text-anchor="middle" x="85" y="-8" font-family="Helvetica,sans-Serif" font-size="10.00">Command.toString</text>
</g>
<!-- Node2 -->
<g id="node2" class="node"><title>Node2</title>
<g id="a_node2"><a xlink:href="../../dc/d89/classcommands_1_1onechild_1_1_arc_tangent_command.html#a801d4772d589e4dd2b0ac623d5293cee" target="_top" xlink:title="commands.onechild.ArcTangent\lCommand.execute">
<polygon fill="white" stroke="black" points="206,-23 206,-53 376,-53 376,-23 206,-23"/>
<text text-anchor="start" x="214" y="-41" font-family="Helvetica,sans-Serif" font-size="10.00">commands.onechild.ArcTangent</text>
<text text-anchor="middle" x="291" y="-30" font-family="Helvetica,sans-Serif" font-size="10.00">Command.execute</text>
</a>
</g>
</g>
<!-- Node1&#45;&gt;Node2 -->
<g id="edge1" class="edge"><title>Node1&#45;&gt;Node2</title>
<path fill="none" stroke="midnightblue" d="M170.152,-25.0753C178.593,-25.9855 187.202,-26.914 195.739,-27.8346"/>
<polygon fill="midnightblue" stroke="midnightblue" points="195.394,-31.3176 205.712,-28.9101 196.145,-24.358 195.394,-31.3176"/>
</g>
<!-- Node3 -->
<g id="node3" class="node"><title>Node3</title>
<g id="a_node3"><a xlink:href="../../d5/d62/classcommands_1_1templates_1_1_command.html#ae48716b79da0af7e6815fbe6fc113075" target="_top" xlink:title="commands.templates.Command.get\lMyChildren">
<polygon fill="white" stroke="black" points="412,-1 412,-31 606,-31 606,-1 412,-1"/>
<text text-anchor="start" x="420" y="-19" font-family="Helvetica,sans-Serif" font-size="10.00">commands.templates.Command.get</text>
<text text-anchor="middle" x="509" y="-8" font-family="Helvetica,sans-Serif" font-size="10.00">MyChildren</text>
</a>
</g>
</g>
<!-- Node1&#45;&gt;Node3 -->
<g id="edge3" class="edge"><title>Node1&#45;&gt;Node3</title>
<path fill="none" stroke="midnightblue" d="M170.245,-14.4186C182.246,-14.2449 194.436,-14.0964 206,-14 281.553,-13.3704 300.447,-13.4277 376,-14 384.319,-14.063 392.932,-14.1484 401.589,-14.2485"/>
<polygon fill="midnightblue" stroke="midnightblue" points="401.715,-17.7502 411.757,-14.3723 401.801,-10.7507 401.715,-17.7502"/>
</g>
<!-- Node2&#45;&gt;Node3 -->
<g id="edge2" class="edge"><title>Node2&#45;&gt;Node3</title>
<path fill="none" stroke="midnightblue" d="M376.13,-29.4312C384.559,-28.5727 393.192,-27.6934 401.809,-26.8157"/>
<polygon fill="midnightblue" stroke="midnightblue" points="402.312,-30.2828 411.905,-25.7874 401.602,-23.3188 402.312,-30.2828"/>
</g>
</g>
</svg>
