<?xml version="1.0" encoding="UTF-8" standalone="no"?>
<!DOCTYPE svg PUBLIC "-//W3C//DTD SVG 1.1//EN"
 "http://www.w3.org/Graphics/SVG/1.1/DTD/svg11.dtd">
<!-- Generated by graphviz version 2.36.0 (20140111.2315)
 -->
<!-- Title: commands.turtle_commands.HideTurtleCommand.execute Pages: 1 -->
<svg width="600pt" height="97pt"
 viewBox="0.00 0.00 600.00 97.00" xmlns="http://www.w3.org/2000/svg" xmlns:xlink="http://www.w3.org/1999/xlink">
<g id="graph0" class="graph" transform="scale(1 1) rotate(0) translate(4 93)">
<title>commands.turtle_commands.HideTurtleCommand.execute</title>
<polygon fill="white" stroke="none" points="-4,4 -4,-93 596,-93 596,4 -4,4"/>
<!-- Node1 -->
<g id="node1" class="node"><title>Node1</title>
<polygon fill="#bfbfbf" stroke="black" points="0.5,-27 0.5,-57 161.5,-57 161.5,-27 0.5,-27"/>
<text text-anchor="start" x="8.5" y="-45" font-family="Helvetica,sans-Serif" font-size="10.00">commands.turtle_commands.</text>
<text text-anchor="middle" x="81" y="-34" font-family="Helvetica,sans-Serif" font-size="10.00">HideTurtleCommand.execute</text>
</g>
<!-- Node2 -->
<g id="node2" class="node"><title>Node2</title>
<g id="a_node2"><a xlink:href="../../d6/d23/classcommands_1_1turtle__commands_1_1_hide_turtle_command.html#aaef253edecb729da97d7e3448e84ae87" target="_top" xlink:title="commands.turtle_commands.\lHideTurtleCommand.executeTurtle\lCommand">
<polygon fill="white" stroke="black" points="198.5,-48.5 198.5,-89.5 379.5,-89.5 379.5,-48.5 198.5,-48.5"/>
<text text-anchor="start" x="206.5" y="-77.5" font-family="Helvetica,sans-Serif" font-size="10.00">commands.turtle_commands.</text>
<text text-anchor="start" x="206.5" y="-66.5" font-family="Helvetica,sans-Serif" font-size="10.00">HideTurtleCommand.executeTurtle</text>
<text text-anchor="middle" x="289" y="-55.5" font-family="Helvetica,sans-Serif" font-size="10.00">Command</text>
</a>
</g>
</g>
<!-- Node1&#45;&gt;Node2 -->
<g id="edge1" class="edge"><title>Node1&#45;&gt;Node2</title>
<path fill="none" stroke="midnightblue" d="M161.645,-52.4389C170.365,-53.5818 179.32,-54.7555 188.243,-55.925"/>
<polygon fill="midnightblue" stroke="midnightblue" points="187.919,-59.4124 198.289,-57.2418 188.829,-52.4718 187.919,-59.4124"/>
</g>
<!-- Node4 -->
<g id="node4" class="node"><title>Node4</title>
<g id="a_node4"><a xlink:href="../../dc/d36/classcommands_1_1templates_1_1_turtle_command.html#ae4d2a640c2db20e624d831deed30484d" target="_top" xlink:title="commands.templates.Turtle\lCommand.getMyTurtleManager">
<polygon fill="white" stroke="black" points="205.5,-0 205.5,-30 372.5,-30 372.5,-0 205.5,-0"/>
<text text-anchor="start" x="213.5" y="-18" font-family="Helvetica,sans-Serif" font-size="10.00">commands.templates.Turtle</text>
<text text-anchor="middle" x="289" y="-7" font-family="Helvetica,sans-Serif" font-size="10.00">Command.getMyTurtleManager</text>
</a>
</g>
</g>
<!-- Node1&#45;&gt;Node4 -->
<g id="edge3" class="edge"><title>Node1&#45;&gt;Node4</title>
<path fill="none" stroke="midnightblue" d="M161.645,-31.5611C172.567,-30.1296 183.859,-28.6495 194.994,-27.1901"/>
<polygon fill="midnightblue" stroke="midnightblue" points="195.7,-30.6276 205.16,-25.8576 194.79,-23.687 195.7,-30.6276"/>
</g>
<!-- Node3 -->
<g id="node3" class="node"><title>Node3</title>
<g id="a_node3"><a xlink:href="../../d4/d07/classback_end_1_1turtle_1_1_turtle_manager.html#abd8e7545c1f29c7714bc7aaf59d3875b" target="_top" xlink:title="backEnd.turtle.TurtleManager.get\lTurtleList">
<polygon fill="white" stroke="black" points="417,-54 417,-84 591,-84 591,-54 417,-54"/>
<text text-anchor="start" x="425" y="-72" font-family="Helvetica,sans-Serif" font-size="10.00">backEnd.turtle.TurtleManager.get</text>
<text text-anchor="middle" x="504" y="-61" font-family="Helvetica,sans-Serif" font-size="10.00">TurtleList</text>
</a>
</g>
</g>
<!-- Node2&#45;&gt;Node3 -->
<g id="edge2" class="edge"><title>Node2&#45;&gt;Node3</title>
<path fill="none" stroke="midnightblue" d="M379.714,-69C388.635,-69 397.718,-69 406.703,-69"/>
<polygon fill="midnightblue" stroke="midnightblue" points="406.792,-72.5001 416.792,-69 406.792,-65.5001 406.792,-72.5001"/>
</g>
<!-- Node5 -->
<g id="node5" class="node"><title>Node5</title>
<g id="a_node5"><a xlink:href="../../d9/d98/classback_end_1_1_model.html#a1f54b1acaee5f2f608376ce454fa82f2" target="_top" xlink:title="backEnd.Model.getTurtleManager">
<polygon fill="white" stroke="black" points="416.5,-5.5 416.5,-24.5 591.5,-24.5 591.5,-5.5 416.5,-5.5"/>
<text text-anchor="middle" x="504" y="-12.5" font-family="Helvetica,sans-Serif" font-size="10.00">backEnd.Model.getTurtleManager</text>
</a>
</g>
</g>
<!-- Node4&#45;&gt;Node5 -->
<g id="edge4" class="edge"><title>Node4&#45;&gt;Node5</title>
<path fill="none" stroke="midnightblue" d="M372.656,-15C383.579,-15 394.855,-15 405.991,-15"/>
<polygon fill="midnightblue" stroke="midnightblue" points="406.164,-18.5001 416.164,-15 406.164,-11.5001 406.164,-18.5001"/>
</g>
</g>
</svg>
