<?xml version="1.0" encoding="UTF-8" standalone="no"?>
<!DOCTYPE svg PUBLIC "-//W3C//DTD SVG 1.1//EN"
 "http://www.w3.org/Graphics/SVG/1.1/DTD/svg11.dtd">
<!-- Generated by graphviz version 2.36.0 (20140111.2315)
 -->
<!-- Title: commands.turtle_commands.PenUpCommand.execute Pages: 1 -->
<svg width="634pt" height="87pt"
 viewBox="0.00 0.00 634.00 87.00" xmlns="http://www.w3.org/2000/svg" xmlns:xlink="http://www.w3.org/1999/xlink">
<g id="graph0" class="graph" transform="scale(1 1) rotate(0) translate(4 83)">
<title>commands.turtle_commands.PenUpCommand.execute</title>
<polygon fill="white" stroke="none" points="-4,4 -4,-83 630,-83 630,4 -4,4"/>
<!-- Node1 -->
<g id="node1" class="node"><title>Node1</title>
<polygon fill="#bfbfbf" stroke="black" points="0.5,-24 0.5,-54 161.5,-54 161.5,-24 0.5,-24"/>
<text text-anchor="start" x="8.5" y="-42" font-family="Helvetica,sans-Serif" font-size="10.00">commands.turtle_commands.</text>
<text text-anchor="middle" x="81" y="-31" font-family="Helvetica,sans-Serif" font-size="10.00">PenUpCommand.execute</text>
</g>
<!-- Node2 -->
<g id="node2" class="node"><title>Node2</title>
<g id="a_node2"><a xlink:href="../../d2/dd0/classcommands_1_1turtle__commands_1_1_pen_up_command.html#a002100c37ff4d8f997166c62d1913fa4" target="_top" xlink:title="commands.turtle_commands.\lPenUpCommand.executeTurtleCommand">
<polygon fill="white" stroke="black" points="198.5,-49 198.5,-79 413.5,-79 413.5,-49 198.5,-49"/>
<text text-anchor="start" x="206.5" y="-67" font-family="Helvetica,sans-Serif" font-size="10.00">commands.turtle_commands.</text>
<text text-anchor="middle" x="306" y="-56" font-family="Helvetica,sans-Serif" font-size="10.00">PenUpCommand.executeTurtleCommand</text>
</a>
</g>
</g>
<!-- Node1&#45;&gt;Node2 -->
<g id="edge1" class="edge"><title>Node1&#45;&gt;Node2</title>
<path fill="none" stroke="midnightblue" d="M161.564,-47.9197C170.197,-48.8876 179.11,-49.8868 188.069,-50.8912"/>
<polygon fill="midnightblue" stroke="midnightblue" points="187.865,-54.3901 198.193,-52.0261 188.645,-47.4337 187.865,-54.3901"/>
</g>
<!-- Node4 -->
<g id="node4" class="node"><title>Node4</title>
<g id="a_node4"><a xlink:href="../../dc/d36/classcommands_1_1templates_1_1_turtle_command.html#ae4d2a640c2db20e624d831deed30484d" target="_top" xlink:title="commands.templates.Turtle\lCommand.getMyTurtleManager">
<polygon fill="white" stroke="black" points="222.5,-0 222.5,-30 389.5,-30 389.5,-0 222.5,-0"/>
<text text-anchor="start" x="230.5" y="-18" font-family="Helvetica,sans-Serif" font-size="10.00">commands.templates.Turtle</text>
<text text-anchor="middle" x="306" y="-7" font-family="Helvetica,sans-Serif" font-size="10.00">Command.getMyTurtleManager</text>
</a>
</g>
</g>
<!-- Node1&#45;&gt;Node4 -->
<g id="edge3" class="edge"><title>Node1&#45;&gt;Node4</title>
<path fill="none" stroke="midnightblue" d="M161.564,-30.4371C177.93,-28.6757 195.299,-26.8064 212.089,-24.9994"/>
<polygon fill="midnightblue" stroke="midnightblue" points="212.886,-28.4339 222.454,-23.8838 212.137,-21.4741 212.886,-28.4339"/>
</g>
<!-- Node3 -->
<g id="node3" class="node"><title>Node3</title>
<g id="a_node3"><a xlink:href="../../d4/d07/classback_end_1_1turtle_1_1_turtle_manager.html#abd8e7545c1f29c7714bc7aaf59d3875b" target="_top" xlink:title="backEnd.turtle.TurtleManager.get\lTurtleList">
<polygon fill="white" stroke="black" points="451,-49 451,-79 625,-79 625,-49 451,-49"/>
<text text-anchor="start" x="459" y="-67" font-family="Helvetica,sans-Serif" font-size="10.00">backEnd.turtle.TurtleManager.get</text>
<text text-anchor="middle" x="538" y="-56" font-family="Helvetica,sans-Serif" font-size="10.00">TurtleList</text>
</a>
</g>
</g>
<!-- Node2&#45;&gt;Node3 -->
<g id="edge2" class="edge"><title>Node2&#45;&gt;Node3</title>
<path fill="none" stroke="midnightblue" d="M413.584,-64C422.634,-64 431.754,-64 440.717,-64"/>
<polygon fill="midnightblue" stroke="midnightblue" points="440.76,-67.5001 450.76,-64 440.76,-60.5001 440.76,-67.5001"/>
</g>
<!-- Node5 -->
<g id="node5" class="node"><title>Node5</title>
<g id="a_node5"><a xlink:href="../../d9/d98/classback_end_1_1_model.html#a1f54b1acaee5f2f608376ce454fa82f2" target="_top" xlink:title="backEnd.Model.getTurtleManager">
<polygon fill="white" stroke="black" points="450.5,-5.5 450.5,-24.5 625.5,-24.5 625.5,-5.5 450.5,-5.5"/>
<text text-anchor="middle" x="538" y="-12.5" font-family="Helvetica,sans-Serif" font-size="10.00">backEnd.Model.getTurtleManager</text>
</a>
</g>
</g>
<!-- Node4&#45;&gt;Node5 -->
<g id="edge4" class="edge"><title>Node4&#45;&gt;Node5</title>
<path fill="none" stroke="midnightblue" d="M389.71,-15C406.028,-15 423.29,-15 440.028,-15"/>
<polygon fill="midnightblue" stroke="midnightblue" points="440.37,-18.5001 450.37,-15 440.37,-11.5001 440.37,-18.5001"/>
</g>
</g>
</svg>
