<?xml version="1.0" encoding="UTF-8" standalone="no"?>
<!DOCTYPE svg PUBLIC "-//W3C//DTD SVG 1.1//EN"
 "http://www.w3.org/Graphics/SVG/1.1/DTD/svg11.dtd">
<!-- Generated by graphviz version 2.36.0 (20140111.2315)
 -->
<!-- Title: exceptions.SLogoException Pages: 1 -->
<svg width="193pt" height="96pt"
 viewBox="0.00 0.00 193.00 96.00" xmlns="http://www.w3.org/2000/svg" xmlns:xlink="http://www.w3.org/1999/xlink">
<g id="graph0" class="graph" transform="scale(1 1) rotate(0) translate(4 92)">
<title>exceptions.SLogoException</title>
<polygon fill="white" stroke="none" points="-4,4 -4,-92 189,-92 189,4 -4,4"/>
<!-- Node1 -->
<g id="node1" class="node"><title>Node1</title>
<polygon fill="#bfbfbf" stroke="black" points="28,-0.5 28,-19.5 176,-19.5 176,-0.5 28,-0.5"/>
<text text-anchor="middle" x="102" y="-7.5" font-family="Helvetica,sans-Serif" font-size="10.00">exceptions.SLogoException</text>
</g>
<!-- Node2 -->
<g id="node2" class="node"><title>Node2</title>
<polygon fill="white" stroke="#bfbfbf" points="0,-68.5 0,-87.5 102,-87.5 102,-68.5 0,-68.5"/>
<text text-anchor="middle" x="51" y="-75.5" font-family="Helvetica,sans-Serif" font-size="10.00">RuntimeException</text>
</g>
<!-- Node2&#45;&gt;Node1 -->
<g id="edge1" class="edge"><title>Node2&#45;&gt;Node1</title>
<path fill="none" stroke="midnightblue" d="M63.8967,-60.3101C73.8389,-47.4437 87.1958,-30.1583 95.1682,-19.8411"/>
<polygon fill="midnightblue" stroke="midnightblue" points="61.0124,-58.3187 57.6674,-68.3717 66.5514,-62.5989 61.0124,-58.3187"/>
</g>
<!-- Node3 -->
<g id="node3" class="node"><title>Node3</title>
<polygon fill="white" stroke="#bfbfbf" points="120.5,-68.5 120.5,-87.5 185.5,-87.5 185.5,-68.5 120.5,-68.5"/>
<text text-anchor="middle" x="153" y="-75.5" font-family="Helvetica,sans-Serif" font-size="10.00">Formatter</text>
</g>
<!-- Node3&#45;&gt;Node1 -->
<g id="edge2" class="edge"><title>Node3&#45;&gt;Node1</title>
<path fill="none" stroke="#9a32cd" stroke-dasharray="5,2" d="M140.103,-60.3101C130.161,-47.4437 116.804,-30.1583 108.832,-19.8411"/>
<polygon fill="#9a32cd" stroke="#9a32cd" points="137.449,-62.5989 146.333,-68.3717 142.988,-58.3187 137.449,-62.5989"/>
<text text-anchor="middle" x="157.5" y="-41.5" font-family="Helvetica,sans-Serif" font-size="10.00"> formatter</text>
</g>
</g>
</svg>
