<?xml version="1.0" encoding="UTF-8" standalone="no"?>
<!DOCTYPE svg PUBLIC "-//W3C//DTD SVG 1.1//EN"
 "http://www.w3.org/Graphics/SVG/1.1/DTD/svg11.dtd">
<!-- Generated by graphviz version 2.36.0 (20140111.2315)
 -->
<!-- Title: commands.variable_commands.MakeCommand Pages: 1 -->
<svg width="370pt" height="326pt"
 viewBox="0.00 0.00 370.00 326.00" xmlns="http://www.w3.org/2000/svg" xmlns:xlink="http://www.w3.org/1999/xlink">
<g id="graph0" class="graph" transform="scale(1 1) rotate(0) translate(4 322)">
<title>commands.variable_commands.MakeCommand</title>
<polygon fill="white" stroke="none" points="-4,4 -4,-322 366,-322 366,4 -4,4"/>
<!-- Node1 -->
<g id="node1" class="node"><title>Node1</title>
<polygon fill="#bfbfbf" stroke="black" points="150.5,-1 150.5,-31 323.5,-31 323.5,-1 150.5,-1"/>
<text text-anchor="start" x="158.5" y="-19" font-family="Helvetica,sans-Serif" font-size="10.00">commands.variable_commands.</text>
<text text-anchor="middle" x="237" y="-8" font-family="Helvetica,sans-Serif" font-size="10.00">MakeCommand</text>
</g>
<!-- Node2 -->
<g id="node2" class="node"><title>Node2</title>
<g id="a_node2"><a xlink:href="../../d0/d45/classcommands_1_1templates_1_1_two_child_command.html" target="_top" xlink:title="commands.templates.TwoChild\lCommand">
<polygon fill="white" stroke="black" points="76.5,-71 76.5,-101 241.5,-101 241.5,-71 76.5,-71"/>
<text text-anchor="start" x="84.5" y="-89" font-family="Helvetica,sans-Serif" font-size="10.00">commands.templates.TwoChild</text>
<text text-anchor="middle" x="159" y="-78" font-family="Helvetica,sans-Serif" font-size="10.00">Command</text>
</a>
</g>
</g>
<!-- Node2&#45;&gt;Node1 -->
<g id="edge1" class="edge"><title>Node2&#45;&gt;Node1</title>
<path fill="none" stroke="midnightblue" d="M182.85,-64.2073C195.172,-53.4654 209.882,-40.6409 220.859,-31.0716"/>
<polygon fill="midnightblue" stroke="midnightblue" points="180.399,-61.7008 175.162,-70.9104 184.999,-66.9772 180.399,-61.7008"/>
</g>
<!-- Node3 -->
<g id="node3" class="node"><title>Node3</title>
<g id="a_node3"><a xlink:href="../../d5/d62/classcommands_1_1templates_1_1_command.html" target="_top" xlink:title="commands.templates.Command">
<polygon fill="white" stroke="black" points="67,-150.5 67,-169.5 243,-169.5 243,-150.5 67,-150.5"/>
<text text-anchor="middle" x="155" y="-157.5" font-family="Helvetica,sans-Serif" font-size="10.00">commands.templates.Command</text>
</a>
</g>
</g>
<!-- Node3&#45;&gt;Node2 -->
<g id="edge2" class="edge"><title>Node3&#45;&gt;Node2</title>
<path fill="none" stroke="midnightblue" d="M156.03,-140.46C156.709,-128.236 157.585,-112.468 158.209,-101.232"/>
<polygon fill="midnightblue" stroke="midnightblue" points="152.535,-140.279 155.475,-150.458 159.524,-140.667 152.535,-140.279"/>
</g>
<!-- Node4 -->
<g id="node4" class="node"><title>Node4</title>
<polygon fill="white" stroke="#bfbfbf" points="-0.5,-219 -0.5,-249 152.5,-249 152.5,-219 -0.5,-219"/>
<text text-anchor="start" x="7.5" y="-237" font-family="Helvetica,sans-Serif" font-size="10.00">List&lt; commands.templates.</text>
<text text-anchor="middle" x="76" y="-226" font-family="Helvetica,sans-Serif" font-size="10.00">Command &gt;</text>
</g>
<!-- Node4&#45;&gt;Node3 -->
<g id="edge3" class="edge"><title>Node4&#45;&gt;Node3</title>
<path fill="none" stroke="#9a32cd" stroke-dasharray="5,2" d="M71.4928,-208.579C71.4245,-201.372 72.7321,-193.855 77,-188 83.2464,-179.431 92.3991,-173.56 102.256,-169.543"/>
<polygon fill="#9a32cd" stroke="#9a32cd" points="68.0195,-209.036 72.3926,-218.686 74.9919,-208.415 68.0195,-209.036"/>
<text text-anchor="middle" x="106" y="-191.5" font-family="Helvetica,sans-Serif" font-size="10.00"> myChildren</text>
</g>
<!-- Node5 -->
<g id="node5" class="node"><title>Node5</title>
<g id="a_node5"><a xlink:href="../../d8/d6a/classback_end_1_1_variable_manager.html" target="_top" xlink:title="backEnd.VariableManager">
<polygon fill="white" stroke="black" points="186,-224.5 186,-243.5 326,-243.5 326,-224.5 186,-224.5"/>
<text text-anchor="middle" x="256" y="-231.5" font-family="Helvetica,sans-Serif" font-size="10.00">backEnd.VariableManager</text>
</a>
</g>
</g>
<!-- Node5&#45;&gt;Node1 -->
<g id="edge7" class="edge"><title>Node5&#45;&gt;Node1</title>
<path fill="none" stroke="#9a32cd" stroke-dasharray="5,2" d="M256.852,-214.193C257.106,-206.128 257.255,-196.601 257,-188 255.444,-135.486 257.845,-121.948 250,-70 247.991,-56.6976 244.211,-41.8456 241.243,-31.2559"/>
<polygon fill="#9a32cd" stroke="#9a32cd" points="253.348,-214.244 256.457,-224.372 260.343,-214.516 253.348,-214.244"/>
<text text-anchor="middle" x="294" y="-123.5" font-family="Helvetica,sans-Serif" font-size="10.00"> myVarManager</text>
</g>
<!-- Node5&#45;&gt;Node3 -->
<g id="edge4" class="edge"><title>Node5&#45;&gt;Node3</title>
<path fill="none" stroke="#9a32cd" stroke-dasharray="5,2" d="M185.699,-220.673C175.003,-215.862 165.164,-209.204 158,-200 151.326,-191.426 151.823,-178.335 153.134,-169.723"/>
<polygon fill="#9a32cd" stroke="#9a32cd" points="184.686,-224.036 195.273,-224.443 187.251,-217.523 184.686,-224.036"/>
<text text-anchor="middle" x="207.5" y="-191.5" font-family="Helvetica,sans-Serif" font-size="10.00"> myVariableManager</text>
</g>
<!-- Node6 -->
<g id="node6" class="node"><title>Node6</title>
<polygon fill="white" stroke="#bfbfbf" points="139.5,-298.5 139.5,-317.5 254.5,-317.5 254.5,-298.5 139.5,-298.5"/>
<text text-anchor="middle" x="197" y="-305.5" font-family="Helvetica,sans-Serif" font-size="10.00">Stack&lt; Properties &gt;</text>
</g>
<!-- Node6&#45;&gt;Node5 -->
<g id="edge5" class="edge"><title>Node6&#45;&gt;Node5</title>
<path fill="none" stroke="#9a32cd" stroke-dasharray="5,2" d="M191.228,-288.421C190.178,-281.581 190.375,-274.036 194,-268 200.969,-256.397 213.55,-248.652 225.567,-243.6"/>
<polygon fill="#9a32cd" stroke="#9a32cd" points="187.855,-289.365 193.589,-298.274 194.662,-287.733 187.855,-289.365"/>
<text text-anchor="middle" x="241" y="-271.5" font-family="Helvetica,sans-Serif" font-size="10.00"> myStoredVariables</text>
</g>
<!-- Node7 -->
<g id="node7" class="node"><title>Node7</title>
<polygon fill="white" stroke="#bfbfbf" points="281.5,-298.5 281.5,-317.5 346.5,-317.5 346.5,-298.5 281.5,-298.5"/>
<text text-anchor="middle" x="314" y="-305.5" font-family="Helvetica,sans-Serif" font-size="10.00">Properties</text>
</g>
<!-- Node7&#45;&gt;Node5 -->
<g id="edge6" class="edge"><title>Node7&#45;&gt;Node5</title>
<path fill="none" stroke="#9a32cd" stroke-dasharray="5,2" d="M305.487,-289.199C301.791,-282.271 297.133,-274.462 292,-268 284.723,-258.838 274.83,-249.964 267.257,-243.731"/>
<polygon fill="#9a32cd" stroke="#9a32cd" points="302.528,-291.104 310.155,-298.458 308.779,-287.953 302.528,-291.104"/>
<text text-anchor="middle" x="331" y="-271.5" font-family="Helvetica,sans-Serif" font-size="10.00"> myVariables</text>
</g>
</g>
</svg>
