<?xml version="1.0" encoding="UTF-8" standalone="no"?>
<!DOCTYPE svg PUBLIC "-//W3C//DTD SVG 1.1//EN"
 "http://www.w3.org/Graphics/SVG/1.1/DTD/svg11.dtd">
<!-- Generated by graphviz version 2.36.0 (20140111.2315)
 -->
<!-- Title: commands.turtle_commands.ClearCommand.executeTurtleCommand Pages: 1 -->
<svg width="416pt" height="38pt"
 viewBox="0.00 0.00 416.00 38.00" xmlns="http://www.w3.org/2000/svg" xmlns:xlink="http://www.w3.org/1999/xlink">
<g id="graph0" class="graph" transform="scale(1 1) rotate(0) translate(4 34)">
<title>commands.turtle_commands.ClearCommand.executeTurtleCommand</title>
<polygon fill="white" stroke="none" points="-4,4 -4,-34 412,-34 412,4 -4,4"/>
<!-- Node1 -->
<g id="node1" class="node"><title>Node1</title>
<polygon fill="#bfbfbf" stroke="black" points="0.5,-0 0.5,-30 209.5,-30 209.5,-0 0.5,-0"/>
<text text-anchor="start" x="8.5" y="-18" font-family="Helvetica,sans-Serif" font-size="10.00">commands.turtle_commands.</text>
<text text-anchor="middle" x="105" y="-7" font-family="Helvetica,sans-Serif" font-size="10.00">ClearCommand.executeTurtleCommand</text>
</g>
<!-- Node2 -->
<g id="node2" class="node"><title>Node2</title>
<g id="a_node2"><a xlink:href="../../df/d09/classcommands_1_1turtle__commands_1_1_clear_command.html#a320f36405c7df1c95f2b14072ee69121" target="_top" xlink:title="commands.turtle_commands.\lClearCommand.execute">
<polygon fill="white" stroke="black" points="246.5,-0 246.5,-30 407.5,-30 407.5,-0 246.5,-0"/>
<text text-anchor="start" x="254.5" y="-18" font-family="Helvetica,sans-Serif" font-size="10.00">commands.turtle_commands.</text>
<text text-anchor="middle" x="327" y="-7" font-family="Helvetica,sans-Serif" font-size="10.00">ClearCommand.execute</text>
</a>
</g>
</g>
<!-- Node1&#45;&gt;Node2 -->
<g id="edge1" class="edge"><title>Node1&#45;&gt;Node2</title>
<path fill="none" stroke="midnightblue" d="M219.717,-15C228.715,-15 237.679,-15 246.368,-15"/>
<polygon fill="midnightblue" stroke="midnightblue" points="219.558,-11.5001 209.558,-15 219.558,-18.5001 219.558,-11.5001"/>
</g>
</g>
</svg>
