<?xml version="1.0" encoding="UTF-8" standalone="no"?>
<!DOCTYPE svg PUBLIC "-//W3C//DTD SVG 1.1//EN"
 "http://www.w3.org/Graphics/SVG/1.1/DTD/svg11.dtd">
<!-- Generated by graphviz version 2.36.0 (20140111.2315)
 -->
<!-- Title: commands.turtle_commands.ClearCommand.execute Pages: 1 -->
<svg width="646pt" height="182pt"
 viewBox="0.00 0.00 646.00 182.00" xmlns="http://www.w3.org/2000/svg" xmlns:xlink="http://www.w3.org/1999/xlink">
<g id="graph0" class="graph" transform="scale(1 1) rotate(0) translate(4 178)">
<title>commands.turtle_commands.ClearCommand.execute</title>
<polygon fill="white" stroke="none" points="-4,4 -4,-178 642,-178 642,4 -4,4"/>
<!-- Node1 -->
<g id="node1" class="node"><title>Node1</title>
<polygon fill="#bfbfbf" stroke="black" points="0.5,-49 0.5,-79 161.5,-79 161.5,-49 0.5,-49"/>
<text text-anchor="start" x="8.5" y="-67" font-family="Helvetica,sans-Serif" font-size="10.00">commands.turtle_commands.</text>
<text text-anchor="middle" x="81" y="-56" font-family="Helvetica,sans-Serif" font-size="10.00">ClearCommand.execute</text>
</g>
<!-- Node2 -->
<g id="node2" class="node"><title>Node2</title>
<g id="a_node2"><a xlink:href="../../df/d09/classcommands_1_1turtle__commands_1_1_clear_command.html#a0c3b57e989de96e174c744e0fd2f03a2" target="_top" xlink:title="commands.turtle_commands.\lClearCommand.executeTurtleCommand">
<polygon fill="white" stroke="black" points="198.5,-98 198.5,-128 407.5,-128 407.5,-98 198.5,-98"/>
<text text-anchor="start" x="206.5" y="-116" font-family="Helvetica,sans-Serif" font-size="10.00">commands.turtle_commands.</text>
<text text-anchor="middle" x="303" y="-105" font-family="Helvetica,sans-Serif" font-size="10.00">ClearCommand.executeTurtleCommand</text>
</a>
</g>
</g>
<!-- Node1&#45;&gt;Node2 -->
<g id="edge1" class="edge"><title>Node1&#45;&gt;Node2</title>
<path fill="none" stroke="midnightblue" d="M149.502,-79.0346C173.259,-84.3259 200.141,-90.3133 224.646,-95.7712"/>
<polygon fill="midnightblue" stroke="midnightblue" points="224.104,-99.236 234.625,-97.9938 225.625,-92.4034 224.104,-99.236"/>
</g>
<!-- Node5 -->
<g id="node5" class="node"><title>Node5</title>
<g id="a_node5"><a xlink:href="../../dc/d36/classcommands_1_1templates_1_1_turtle_command.html#ae4d2a640c2db20e624d831deed30484d" target="_top" xlink:title="commands.templates.Turtle\lCommand.getMyTurtleManager">
<polygon fill="white" stroke="black" points="219.5,-49 219.5,-79 386.5,-79 386.5,-49 219.5,-49"/>
<text text-anchor="start" x="227.5" y="-67" font-family="Helvetica,sans-Serif" font-size="10.00">commands.templates.Turtle</text>
<text text-anchor="middle" x="303" y="-56" font-family="Helvetica,sans-Serif" font-size="10.00">Command.getMyTurtleManager</text>
</a>
</g>
</g>
<!-- Node1&#45;&gt;Node5 -->
<g id="edge4" class="edge"><title>Node1&#45;&gt;Node5</title>
<path fill="none" stroke="midnightblue" d="M161.736,-64C177.069,-64 193.252,-64 208.963,-64"/>
<polygon fill="midnightblue" stroke="midnightblue" points="209.205,-67.5001 219.205,-64 209.205,-60.5001 209.205,-67.5001"/>
</g>
<!-- Node7 -->
<g id="node7" class="node"><title>Node7</title>
<g id="a_node7"><a xlink:href="../../d5/d62/classcommands_1_1templates_1_1_command.html#a97358158dd12c0a83a49df3c1e379790" target="_top" xlink:title="commands.templates.Command.get\lValue">
<polygon fill="white" stroke="black" points="206,-0 206,-30 400,-30 400,-0 206,-0"/>
<text text-anchor="start" x="214" y="-18" font-family="Helvetica,sans-Serif" font-size="10.00">commands.templates.Command.get</text>
<text text-anchor="middle" x="303" y="-7" font-family="Helvetica,sans-Serif" font-size="10.00">Value</text>
</a>
</g>
</g>
<!-- Node1&#45;&gt;Node7 -->
<g id="edge6" class="edge"><title>Node1&#45;&gt;Node7</title>
<path fill="none" stroke="midnightblue" d="M149.502,-48.9654C173.259,-43.6741 200.141,-37.6867 224.646,-32.2288"/>
<polygon fill="midnightblue" stroke="midnightblue" points="225.625,-35.5966 234.625,-30.0062 224.104,-28.764 225.625,-35.5966"/>
</g>
<!-- Node3 -->
<g id="node3" class="node"><title>Node3</title>
<g id="a_node3"><a xlink:href="../../d4/d07/classback_end_1_1turtle_1_1_turtle_manager.html#abd8e7545c1f29c7714bc7aaf59d3875b" target="_top" xlink:title="backEnd.turtle.TurtleManager.get\lTurtleList">
<polygon fill="white" stroke="black" points="454,-144 454,-174 628,-174 628,-144 454,-144"/>
<text text-anchor="start" x="462" y="-162" font-family="Helvetica,sans-Serif" font-size="10.00">backEnd.turtle.TurtleManager.get</text>
<text text-anchor="middle" x="541" y="-151" font-family="Helvetica,sans-Serif" font-size="10.00">TurtleList</text>
</a>
</g>
</g>
<!-- Node2&#45;&gt;Node3 -->
<g id="edge2" class="edge"><title>Node2&#45;&gt;Node3</title>
<path fill="none" stroke="midnightblue" d="M381.275,-128.062C404.212,-132.533 429.489,-137.46 452.999,-142.042"/>
<polygon fill="midnightblue" stroke="midnightblue" points="452.469,-145.505 462.954,-143.983 453.809,-138.634 452.469,-145.505"/>
</g>
<!-- Node4 -->
<g id="node4" class="node"><title>Node4</title>
<g id="a_node4"><a xlink:href="../../d5/d62/classcommands_1_1templates_1_1_command.html#a632193b631b368f6ffbc514865f062e5" target="_top" xlink:title="commands.templates.Command.set\lValue">
<polygon fill="white" stroke="black" points="444,-95 444,-125 638,-125 638,-95 444,-95"/>
<text text-anchor="start" x="452" y="-113" font-family="Helvetica,sans-Serif" font-size="10.00">commands.templates.Command.set</text>
<text text-anchor="middle" x="541" y="-102" font-family="Helvetica,sans-Serif" font-size="10.00">Value</text>
</a>
</g>
</g>
<!-- Node2&#45;&gt;Node4 -->
<g id="edge3" class="edge"><title>Node2&#45;&gt;Node4</title>
<path fill="none" stroke="midnightblue" d="M407.513,-111.684C416.148,-111.574 424.887,-111.463 433.543,-111.353"/>
<polygon fill="midnightblue" stroke="midnightblue" points="433.7,-114.852 443.655,-111.225 433.611,-107.852 433.7,-114.852"/>
</g>
<!-- Node6 -->
<g id="node6" class="node"><title>Node6</title>
<g id="a_node6"><a xlink:href="../../d9/d98/classback_end_1_1_model.html#a1f54b1acaee5f2f608376ce454fa82f2" target="_top" xlink:title="backEnd.Model.getTurtleManager">
<polygon fill="white" stroke="black" points="453.5,-54.5 453.5,-73.5 628.5,-73.5 628.5,-54.5 453.5,-54.5"/>
<text text-anchor="middle" x="541" y="-61.5" font-family="Helvetica,sans-Serif" font-size="10.00">backEnd.Model.getTurtleManager</text>
</a>
</g>
</g>
<!-- Node5&#45;&gt;Node6 -->
<g id="edge5" class="edge"><title>Node5&#45;&gt;Node6</title>
<path fill="none" stroke="midnightblue" d="M386.541,-64C404.907,-64 424.536,-64 443.408,-64"/>
<polygon fill="midnightblue" stroke="midnightblue" points="443.499,-67.5001 453.499,-64 443.499,-60.5001 443.499,-67.5001"/>
</g>
</g>
</svg>
