<?xml version="1.0" encoding="UTF-8" standalone="no"?>
<!DOCTYPE svg PUBLIC "-//W3C//DTD SVG 1.1//EN"
 "http://www.w3.org/Graphics/SVG/1.1/DTD/svg11.dtd">
<!-- Generated by graphviz version 2.36.0 (20140111.2315)
 -->
<!-- Title: titlePanes.decorators.TitlePaneDecorator Pages: 1 -->
<svg width="360pt" height="87pt"
 viewBox="0.00 0.00 360.00 87.00" xmlns="http://www.w3.org/2000/svg" xmlns:xlink="http://www.w3.org/1999/xlink">
<g id="graph0" class="graph" transform="scale(1 1) rotate(0) translate(4 83)">
<title>titlePanes.decorators.TitlePaneDecorator</title>
<polygon fill="white" stroke="none" points="-4,4 -4,-83 356,-83 356,4 -4,4"/>
<!-- Node1 -->
<g id="node1" class="node"><title>Node1</title>
<polygon fill="#bfbfbf" stroke="black" points="0,-24 0,-54 140,-54 140,-24 0,-24"/>
<text text-anchor="start" x="8" y="-42" font-family="Helvetica,sans-Serif" font-size="10.00">titlePanes.decorators.Title</text>
<text text-anchor="middle" x="70" y="-31" font-family="Helvetica,sans-Serif" font-size="10.00">PaneDecorator</text>
</g>
<!-- Node2 -->
<g id="node2" class="node"><title>Node2</title>
<g id="a_node2"><a xlink:href="../../da/d61/classtitle_panes_1_1decorators_1_1_h_scrollable_decorator.html" target="_top" xlink:title="titlePanes.decorators.HScrollable\lDecorator">
<polygon fill="white" stroke="black" points="176.5,-49 176.5,-79 351.5,-79 351.5,-49 176.5,-49"/>
<text text-anchor="start" x="184.5" y="-67" font-family="Helvetica,sans-Serif" font-size="10.00">titlePanes.decorators.HScrollable</text>
<text text-anchor="middle" x="264" y="-56" font-family="Helvetica,sans-Serif" font-size="10.00">Decorator</text>
</a>
</g>
</g>
<!-- Node1&#45;&gt;Node2 -->
<g id="edge1" class="edge"><title>Node1&#45;&gt;Node2</title>
<path fill="none" stroke="midnightblue" d="M150.054,-49.2934C158.668,-50.4151 167.47,-51.5612 176.17,-52.6941"/>
<polygon fill="midnightblue" stroke="midnightblue" points="150.413,-45.8108 140.045,-47.9903 149.509,-52.7522 150.413,-45.8108"/>
</g>
<!-- Node3 -->
<g id="node3" class="node"><title>Node3</title>
<g id="a_node3"><a xlink:href="../../d1/db2/classtitle_panes_1_1decorators_1_1_v_scrollable_decorator.html" target="_top" xlink:title="titlePanes.decorators.VScrollable\lDecorator">
<polygon fill="white" stroke="black" points="177,-0 177,-30 351,-30 351,-0 177,-0"/>
<text text-anchor="start" x="185" y="-18" font-family="Helvetica,sans-Serif" font-size="10.00">titlePanes.decorators.VScrollable</text>
<text text-anchor="middle" x="264" y="-7" font-family="Helvetica,sans-Serif" font-size="10.00">Decorator</text>
</a>
</g>
</g>
<!-- Node1&#45;&gt;Node3 -->
<g id="edge2" class="edge"><title>Node1&#45;&gt;Node3</title>
<path fill="none" stroke="midnightblue" d="M150.239,-29.0951C159.014,-27.9982 167.982,-26.8773 176.837,-25.7704"/>
<polygon fill="midnightblue" stroke="midnightblue" points="149.534,-25.656 140.045,-30.3694 150.402,-32.6019 149.534,-25.656"/>
</g>
</g>
</svg>
