<?xml version="1.0" encoding="UTF-8" standalone="no"?>
<!DOCTYPE svg PUBLIC "-//W3C//DTD SVG 1.1//EN"
 "http://www.w3.org/Graphics/SVG/1.1/DTD/svg11.dtd">
<!-- Generated by graphviz version 2.36.0 (20140111.2315)
 -->
<!-- Title: backEnd.turtle.TurtleProperties Pages: 1 -->
<svg width="367pt" height="242pt"
 viewBox="0.00 0.00 367.00 242.00" xmlns="http://www.w3.org/2000/svg" xmlns:xlink="http://www.w3.org/1999/xlink">
<g id="graph0" class="graph" transform="scale(1 1) rotate(0) translate(4 238)">
<title>backEnd.turtle.TurtleProperties</title>
<polygon fill="white" stroke="none" points="-4,4 -4,-238 363,-238 363,4 -4,4"/>
<!-- Node1 -->
<g id="node1" class="node"><title>Node1</title>
<polygon fill="#bfbfbf" stroke="black" points="94.5,-0.5 94.5,-19.5 257.5,-19.5 257.5,-0.5 94.5,-0.5"/>
<text text-anchor="middle" x="176" y="-7.5" font-family="Helvetica,sans-Serif" font-size="10.00">backEnd.turtle.TurtleProperties</text>
</g>
<!-- Node2 -->
<g id="node2" class="node"><title>Node2</title>
<polygon fill="white" stroke="#bfbfbf" points="-0.5,-214.5 -0.5,-233.5 90.5,-233.5 90.5,-214.5 -0.5,-214.5"/>
<text text-anchor="middle" x="45" y="-221.5" font-family="Helvetica,sans-Serif" font-size="10.00">DoubleProperty</text>
</g>
<!-- Node2&#45;&gt;Node1 -->
<g id="edge1" class="edge"><title>Node2&#45;&gt;Node1</title>
<path fill="none" stroke="#9a32cd" stroke-dasharray="5,2" d="M33.0902,-205.937C17.3433,-181.068 -6.18345,-134.117 14,-100 40.8777,-54.5671 100.104,-30.7739 139.008,-19.5695"/>
<polygon fill="#9a32cd" stroke="#9a32cd" points="30.198,-207.909 38.6371,-214.314 36.0346,-204.044 30.198,-207.909"/>
<text text-anchor="middle" x="56" y="-147.5" font-family="Helvetica,sans-Serif" font-size="10.00"> myShapeIndex</text>
<text text-anchor="middle" x="56" y="-136.5" font-family="Helvetica,sans-Serif" font-size="10.00">myPenColorIndex</text>
<text text-anchor="middle" x="56" y="-125.5" font-family="Helvetica,sans-Serif" font-size="10.00">myStampCount</text>
<text text-anchor="middle" x="56" y="-114.5" font-family="Helvetica,sans-Serif" font-size="10.00">myPenSize</text>
<text text-anchor="middle" x="56" y="-103.5" font-family="Helvetica,sans-Serif" font-size="10.00">myOrientation</text>
</g>
<!-- Node3 -->
<g id="node3" class="node"><title>Node3</title>
<g id="a_node3"><a xlink:href="../../de/d6c/classback_end_1_1turtle_1_1_turtle_point.html" target="_top" xlink:title="backEnd.turtle.TurtlePoint">
<polygon fill="white" stroke="black" points="107,-118.5 107,-137.5 245,-137.5 245,-118.5 107,-118.5"/>
<text text-anchor="middle" x="176" y="-125.5" font-family="Helvetica,sans-Serif" font-size="10.00">backEnd.turtle.TurtlePoint</text>
</a>
</g>
</g>
<!-- Node2&#45;&gt;Node3 -->
<g id="edge3" class="edge"><title>Node2&#45;&gt;Node3</title>
<path fill="none" stroke="#9a32cd" stroke-dasharray="5,2" d="M64.8386,-208.005C77.878,-198.215 95.3579,-185.216 111,-174 129.069,-161.043 150.299,-146.464 163.453,-137.505"/>
<polygon fill="#9a32cd" stroke="#9a32cd" points="62.4824,-205.398 56.598,-214.208 66.6924,-210.99 62.4824,-205.398"/>
<text text-anchor="middle" x="141.5" y="-188" font-family="Helvetica,sans-Serif" font-size="10.00"> myYPosition</text>
<text text-anchor="middle" x="141.5" y="-177" font-family="Helvetica,sans-Serif" font-size="10.00">myXPosition</text>
</g>
<!-- Node3&#45;&gt;Node1 -->
<g id="edge2" class="edge"><title>Node3&#45;&gt;Node1</title>
<path fill="none" stroke="#9a32cd" stroke-dasharray="5,2" d="M176,-108.025C176,-82.464 176,-38.0408 176,-19.5048"/>
<polygon fill="#9a32cd" stroke="#9a32cd" points="172.5,-108.281 176,-118.281 179.5,-108.281 172.5,-108.281"/>
<text text-anchor="middle" x="204" y="-57.5" font-family="Helvetica,sans-Serif" font-size="10.00"> myPosition</text>
</g>
<!-- Node4 -->
<g id="node4" class="node"><title>Node4</title>
<polygon fill="white" stroke="#bfbfbf" points="149,-214.5 149,-233.5 203,-233.5 203,-214.5 149,-214.5"/>
<text text-anchor="middle" x="176" y="-221.5" font-family="Helvetica,sans-Serif" font-size="10.00">Point2D</text>
</g>
<!-- Node4&#45;&gt;Node3 -->
<g id="edge4" class="edge"><title>Node4&#45;&gt;Node3</title>
<path fill="none" stroke="#9a32cd" stroke-dasharray="5,2" d="M176,-204.143C176,-183.915 176,-152.678 176,-137.654"/>
<polygon fill="#9a32cd" stroke="#9a32cd" points="172.5,-204.325 176,-214.325 179.5,-204.325 172.5,-204.325"/>
<text text-anchor="middle" x="204" y="-182.5" font-family="Helvetica,sans-Serif" font-size="10.00"> myPosition</text>
</g>
<!-- Node5 -->
<g id="node5" class="node"><title>Node5</title>
<polygon fill="white" stroke="#bfbfbf" points="263,-118.5 263,-137.5 359,-137.5 359,-118.5 263,-118.5"/>
<text text-anchor="middle" x="311" y="-125.5" font-family="Helvetica,sans-Serif" font-size="10.00">BooleanProperty</text>
</g>
<!-- Node5&#45;&gt;Node1 -->
<g id="edge5" class="edge"><title>Node5&#45;&gt;Node1</title>
<path fill="none" stroke="#9a32cd" stroke-dasharray="5,2" d="M300.01,-109.784C286.806,-90.2314 263.024,-58.4033 236,-38 225.699,-30.2223 212.801,-24.0502 201.606,-19.5816"/>
<polygon fill="#9a32cd" stroke="#9a32cd" points="297.189,-111.864 305.611,-118.293 303.036,-108.015 297.189,-111.864"/>
<text text-anchor="middle" x="319" y="-74" font-family="Helvetica,sans-Serif" font-size="10.00"> myLinesCleared</text>
<text text-anchor="middle" x="319" y="-63" font-family="Helvetica,sans-Serif" font-size="10.00">myVisibility</text>
<text text-anchor="middle" x="319" y="-52" font-family="Helvetica,sans-Serif" font-size="10.00">myActivity</text>
<text text-anchor="middle" x="319" y="-41" font-family="Helvetica,sans-Serif" font-size="10.00">myPenState</text>
</g>
</g>
</svg>
