<?xml version="1.0" encoding="UTF-8" standalone="no"?>
<!DOCTYPE svg PUBLIC "-//W3C//DTD SVG 1.1//EN"
 "http://www.w3.org/Graphics/SVG/1.1/DTD/svg11.dtd">
<!-- Generated by graphviz version 2.36.0 (20140111.2315)
 -->
<!-- Title: commands.variable_commands.DoTimesCommand Pages: 1 -->
<svg width="1222pt" height="127pt"
 viewBox="0.00 0.00 1222.00 127.00" xmlns="http://www.w3.org/2000/svg" xmlns:xlink="http://www.w3.org/1999/xlink">
<g id="graph0" class="graph" transform="scale(1 1) rotate(0) translate(4 123)">
<title>commands.variable_commands.DoTimesCommand</title>
<polygon fill="white" stroke="none" points="-4,4 -4,-123 1218,-123 1218,4 -4,4"/>
<!-- Node1 -->
<g id="node1" class="node"><title>Node1</title>
<polygon fill="#bfbfbf" stroke="black" points="1040.5,-39 1040.5,-69 1213.5,-69 1213.5,-39 1040.5,-39"/>
<text text-anchor="start" x="1048.5" y="-57" font-family="Helvetica,sans-Serif" font-size="10.00">commands.variable_commands.</text>
<text text-anchor="middle" x="1127" y="-46" font-family="Helvetica,sans-Serif" font-size="10.00">DoTimesCommand</text>
</g>
<!-- Node2 -->
<g id="node2" class="node"><title>Node2</title>
<g id="a_node2"><a xlink:href="../../d0/d45/classcommands_1_1templates_1_1_two_child_command.html" target="_top" xlink:title="commands.templates.TwoChild\lCommand">
<polygon fill="white" stroke="black" points="750.5,-39 750.5,-69 915.5,-69 915.5,-39 750.5,-39"/>
<text text-anchor="start" x="758.5" y="-57" font-family="Helvetica,sans-Serif" font-size="10.00">commands.templates.TwoChild</text>
<text text-anchor="middle" x="833" y="-46" font-family="Helvetica,sans-Serif" font-size="10.00">Command</text>
</a>
</g>
</g>
<!-- Node2&#45;&gt;Node1 -->
<g id="edge1" class="edge"><title>Node2&#45;&gt;Node1</title>
<path fill="none" stroke="midnightblue" d="M925.912,-54C962.554,-54 1004.49,-54 1040.47,-54"/>
<polygon fill="midnightblue" stroke="midnightblue" points="925.727,-50.5001 915.727,-54 925.727,-57.5001 925.727,-50.5001"/>
</g>
<!-- Node3 -->
<g id="node3" class="node"><title>Node3</title>
<g id="a_node3"><a xlink:href="../../d5/d62/classcommands_1_1templates_1_1_command.html" target="_top" xlink:title="commands.templates.Command">
<polygon fill="white" stroke="black" points="536,-77.5 536,-96.5 712,-96.5 712,-77.5 536,-77.5"/>
<text text-anchor="middle" x="624" y="-84.5" font-family="Helvetica,sans-Serif" font-size="10.00">commands.templates.Command</text>
</a>
</g>
</g>
<!-- Node3&#45;&gt;Node1 -->
<g id="edge8" class="edge"><title>Node3&#45;&gt;Node1</title>
<path fill="none" stroke="#9a32cd" stroke-dasharray="5,2" d="M722.105,-85.2668C725.444,-85.1811 728.75,-85.0922 732,-85 861.058,-81.3393 893.727,-82.6785 1022,-68 1027.97,-67.3165 1034.13,-66.5766 1040.34,-65.8061"/>
<polygon fill="#9a32cd" stroke="#9a32cd" points="721.925,-81.7701 712.014,-85.5142 722.097,-88.768 721.925,-81.7701"/>
<text text-anchor="middle" x="833" y="-88" font-family="Helvetica,sans-Serif" font-size="10.00"> myVariable</text>
</g>
<!-- Node3&#45;&gt;Node2 -->
<g id="edge2" class="edge"><title>Node3&#45;&gt;Node2</title>
<path fill="none" stroke="midnightblue" d="M694.855,-75.8636C712.603,-73.0343 731.832,-69.9689 750.118,-67.0537"/>
<polygon fill="midnightblue" stroke="midnightblue" points="693.92,-72.4685 684.595,-77.4993 695.022,-79.3813 693.92,-72.4685"/>
</g>
<!-- Node4 -->
<g id="node4" class="node"><title>Node4</title>
<polygon fill="white" stroke="#bfbfbf" points="246.5,-89 246.5,-119 399.5,-119 399.5,-89 246.5,-89"/>
<text text-anchor="start" x="254.5" y="-107" font-family="Helvetica,sans-Serif" font-size="10.00">List&lt; commands.templates.</text>
<text text-anchor="middle" x="323" y="-96" font-family="Helvetica,sans-Serif" font-size="10.00">Command &gt;</text>
</g>
<!-- Node4&#45;&gt;Node3 -->
<g id="edge3" class="edge"><title>Node4&#45;&gt;Node3</title>
<path fill="none" stroke="#9a32cd" stroke-dasharray="5,2" d="M409.975,-99.1118C449.467,-96.8664 496.225,-94.208 535.858,-91.9546"/>
<polygon fill="#9a32cd" stroke="#9a32cd" points="409.622,-95.6261 399.837,-99.6882 410.019,-102.615 409.622,-95.6261"/>
<text text-anchor="middle" x="468" y="-101" font-family="Helvetica,sans-Serif" font-size="10.00"> myChildren</text>
</g>
<!-- Node5 -->
<g id="node5" class="node"><title>Node5</title>
<g id="a_node5"><a xlink:href="../../d8/d6a/classback_end_1_1_variable_manager.html" target="_top" xlink:title="backEnd.VariableManager">
<polygon fill="white" stroke="black" points="253,-50.5 253,-69.5 393,-69.5 393,-50.5 253,-50.5"/>
<text text-anchor="middle" x="323" y="-57.5" font-family="Helvetica,sans-Serif" font-size="10.00">backEnd.VariableManager</text>
</a>
</g>
</g>
<!-- Node5&#45;&gt;Node3 -->
<g id="edge4" class="edge"><title>Node5&#45;&gt;Node3</title>
<path fill="none" stroke="#9a32cd" stroke-dasharray="5,2" d="M403.346,-66.8168C438.482,-69.8706 480.308,-73.5537 518,-77 523.835,-77.5335 529.853,-78.0899 535.915,-78.6552"/>
<polygon fill="#9a32cd" stroke="#9a32cd" points="403.412,-63.3095 393.147,-65.9317 402.807,-70.2833 403.412,-63.3095"/>
<text text-anchor="middle" x="468" y="-80" font-family="Helvetica,sans-Serif" font-size="10.00"> myVariableManager</text>
</g>
<!-- Node6 -->
<g id="node6" class="node"><title>Node6</title>
<polygon fill="white" stroke="#bfbfbf" points="0.5,-69.5 0.5,-88.5 115.5,-88.5 115.5,-69.5 0.5,-69.5"/>
<text text-anchor="middle" x="58" y="-76.5" font-family="Helvetica,sans-Serif" font-size="10.00">Stack&lt; Properties &gt;</text>
</g>
<!-- Node6&#45;&gt;Node5 -->
<g id="edge5" class="edge"><title>Node6&#45;&gt;Node5</title>
<path fill="none" stroke="#9a32cd" stroke-dasharray="5,2" d="M125.896,-74.1672C164.71,-71.3631 213.517,-67.8372 252.729,-65.0044"/>
<polygon fill="#9a32cd" stroke="#9a32cd" points="125.465,-70.6891 115.743,-74.9007 125.97,-77.6709 125.465,-70.6891"/>
<text text-anchor="middle" x="181" y="-77" font-family="Helvetica,sans-Serif" font-size="10.00"> myStoredVariables</text>
</g>
<!-- Node7 -->
<g id="node7" class="node"><title>Node7</title>
<polygon fill="white" stroke="#bfbfbf" points="25.5,-31.5 25.5,-50.5 90.5,-50.5 90.5,-31.5 25.5,-31.5"/>
<text text-anchor="middle" x="58" y="-38.5" font-family="Helvetica,sans-Serif" font-size="10.00">Properties</text>
</g>
<!-- Node7&#45;&gt;Node5 -->
<g id="edge6" class="edge"><title>Node7&#45;&gt;Node5</title>
<path fill="none" stroke="#9a32cd" stroke-dasharray="5,2" d="M100.869,-43.9327C135.07,-46.338 184.664,-49.8479 228,-53 236.079,-53.5877 244.548,-54.2098 252.955,-54.831"/>
<polygon fill="#9a32cd" stroke="#9a32cd" points="100.994,-40.4329 90.7732,-43.2233 100.503,-47.4157 100.994,-40.4329"/>
<text text-anchor="middle" x="181" y="-56" font-family="Helvetica,sans-Serif" font-size="10.00"> myVariables</text>
</g>
<!-- Node8 -->
<g id="node8" class="node"><title>Node8</title>
<polygon fill="white" stroke="#bfbfbf" points="772,-0.5 772,-19.5 894,-19.5 894,-0.5 772,-0.5"/>
<text text-anchor="middle" x="833" y="-7.5" font-family="Helvetica,sans-Serif" font-size="10.00">Map&lt; String, String &gt;</text>
</g>
<!-- Node8&#45;&gt;Node1 -->
<g id="edge7" class="edge"><title>Node8&#45;&gt;Node1</title>
<path fill="none" stroke="#9a32cd" stroke-dasharray="5,2" d="M904.048,-20.5553C945.028,-26.7303 997.072,-34.5725 1040.46,-41.1108"/>
<polygon fill="#9a32cd" stroke="#9a32cd" points="904.558,-17.0927 894.149,-19.0635 903.515,-24.0145 904.558,-17.0927"/>
<text text-anchor="middle" x="978" y="-41" font-family="Helvetica,sans-Serif" font-size="10.00"> myLocalVariables</text>
</g>
</g>
</svg>
