<?xml version="1.0" encoding="UTF-8" standalone="no"?>
<!DOCTYPE svg PUBLIC "-//W3C//DTD SVG 1.1//EN"
 "http://www.w3.org/Graphics/SVG/1.1/DTD/svg11.dtd">
<!-- Generated by graphviz version 2.36.0 (20140111.2315)
 -->
<!-- Title: commands.turtle_commands.SetPenColor.execute Pages: 1 -->
<svg width="630pt" height="229pt"
 viewBox="0.00 0.00 630.00 229.00" xmlns="http://www.w3.org/2000/svg" xmlns:xlink="http://www.w3.org/1999/xlink">
<g id="graph0" class="graph" transform="scale(1 1) rotate(0) translate(4 225)">
<title>commands.turtle_commands.SetPenColor.execute</title>
<polygon fill="white" stroke="none" points="-4,4 -4,-225 626,-225 626,4 -4,4"/>
<!-- Node1 -->
<g id="node1" class="node"><title>Node1</title>
<polygon fill="#bfbfbf" stroke="black" points="0.5,-98 0.5,-128 161.5,-128 161.5,-98 0.5,-98"/>
<text text-anchor="start" x="8.5" y="-116" font-family="Helvetica,sans-Serif" font-size="10.00">commands.turtle_commands.</text>
<text text-anchor="middle" x="81" y="-105" font-family="Helvetica,sans-Serif" font-size="10.00">SetPenColor.execute</text>
</g>
<!-- Node2 -->
<g id="node2" class="node"><title>Node2</title>
<g id="a_node2"><a xlink:href="../../da/d6b/classcommands_1_1turtle__commands_1_1_set_pen_color.html#aade863cd135c1a0c28c0e8df280617f7" target="_top" xlink:title="commands.turtle_commands.\lSetPenColor.executeTurtleCommand">
<polygon fill="white" stroke="black" points="199,-186 199,-216 391,-216 391,-186 199,-186"/>
<text text-anchor="start" x="207" y="-204" font-family="Helvetica,sans-Serif" font-size="10.00">commands.turtle_commands.</text>
<text text-anchor="middle" x="295" y="-193" font-family="Helvetica,sans-Serif" font-size="10.00">SetPenColor.executeTurtleCommand</text>
</a>
</g>
</g>
<!-- Node1&#45;&gt;Node2 -->
<g id="edge1" class="edge"><title>Node1&#45;&gt;Node2</title>
<path fill="none" stroke="midnightblue" d="M109.083,-128.101C132.235,-140.628 166.676,-158.37 198,-171 208.521,-175.242 219.886,-179.264 230.987,-182.903"/>
<polygon fill="midnightblue" stroke="midnightblue" points="230.056,-186.28 240.647,-185.998 232.192,-179.614 230.056,-186.28"/>
</g>
<!-- Node4 -->
<g id="node4" class="node"><title>Node4</title>
<g id="a_node4"><a xlink:href="../../d5/d62/classcommands_1_1templates_1_1_command.html#a97358158dd12c0a83a49df3c1e379790" target="_top" xlink:title="commands.templates.Command.get\lValue">
<polygon fill="white" stroke="black" points="428,-142 428,-172 622,-172 622,-142 428,-142"/>
<text text-anchor="start" x="436" y="-160" font-family="Helvetica,sans-Serif" font-size="10.00">commands.templates.Command.get</text>
<text text-anchor="middle" x="525" y="-149" font-family="Helvetica,sans-Serif" font-size="10.00">Value</text>
</a>
</g>
</g>
<!-- Node1&#45;&gt;Node4 -->
<g id="edge7" class="edge"><title>Node1&#45;&gt;Node4</title>
<path fill="none" stroke="midnightblue" d="M146.449,-128.037C163.157,-131.466 181.183,-134.756 198,-137 270.958,-146.735 353.744,-151.739 417.634,-154.308"/>
<polygon fill="midnightblue" stroke="midnightblue" points="417.593,-157.809 427.722,-154.7 417.865,-150.814 417.593,-157.809"/>
</g>
<!-- Node5 -->
<g id="node5" class="node"><title>Node5</title>
<g id="a_node5"><a xlink:href="../../d5/d62/classcommands_1_1templates_1_1_command.html#ae48716b79da0af7e6815fbe6fc113075" target="_top" xlink:title="commands.templates.Command.get\lMyChildren">
<polygon fill="white" stroke="black" points="198,-98 198,-128 392,-128 392,-98 198,-98"/>
<text text-anchor="start" x="206" y="-116" font-family="Helvetica,sans-Serif" font-size="10.00">commands.templates.Command.get</text>
<text text-anchor="middle" x="295" y="-105" font-family="Helvetica,sans-Serif" font-size="10.00">MyChildren</text>
</a>
</g>
</g>
<!-- Node1&#45;&gt;Node5 -->
<g id="edge4" class="edge"><title>Node1&#45;&gt;Node5</title>
<path fill="none" stroke="midnightblue" d="M161.544,-113C170.166,-113 179.037,-113 187.91,-113"/>
<polygon fill="midnightblue" stroke="midnightblue" points="187.914,-116.5 197.914,-113 187.914,-109.5 187.914,-116.5"/>
</g>
<!-- Node6 -->
<g id="node6" class="node"><title>Node6</title>
<g id="a_node6"><a xlink:href="../../dc/d36/classcommands_1_1templates_1_1_turtle_command.html#ae4d2a640c2db20e624d831deed30484d" target="_top" xlink:title="commands.templates.Turtle\lCommand.getMyTurtleManager">
<polygon fill="white" stroke="black" points="211.5,-49 211.5,-79 378.5,-79 378.5,-49 211.5,-49"/>
<text text-anchor="start" x="219.5" y="-67" font-family="Helvetica,sans-Serif" font-size="10.00">commands.templates.Turtle</text>
<text text-anchor="middle" x="295" y="-56" font-family="Helvetica,sans-Serif" font-size="10.00">Command.getMyTurtleManager</text>
</a>
</g>
</g>
<!-- Node1&#45;&gt;Node6 -->
<g id="edge5" class="edge"><title>Node1&#45;&gt;Node6</title>
<path fill="none" stroke="midnightblue" d="M147.048,-97.9654C169.839,-92.6976 195.615,-86.7399 219.144,-81.3016"/>
<polygon fill="midnightblue" stroke="midnightblue" points="220.12,-84.6683 229.075,-79.0062 218.544,-77.8481 220.12,-84.6683"/>
</g>
<!-- Node8 -->
<g id="node8" class="node"><title>Node8</title>
<g id="a_node8"><a xlink:href="../../d5/d62/classcommands_1_1templates_1_1_command.html#a632193b631b368f6ffbc514865f062e5" target="_top" xlink:title="commands.templates.Command.set\lValue">
<polygon fill="white" stroke="black" points="198,-0 198,-30 392,-30 392,-0 198,-0"/>
<text text-anchor="start" x="206" y="-18" font-family="Helvetica,sans-Serif" font-size="10.00">commands.templates.Command.set</text>
<text text-anchor="middle" x="295" y="-7" font-family="Helvetica,sans-Serif" font-size="10.00">Value</text>
</a>
</g>
</g>
<!-- Node1&#45;&gt;Node8 -->
<g id="edge8" class="edge"><title>Node1&#45;&gt;Node8</title>
<path fill="none" stroke="midnightblue" d="M101.892,-97.7937C124.192,-81.4064 161.965,-55.5861 198,-40 203.757,-37.5098 209.82,-35.2222 215.984,-33.1298"/>
<polygon fill="midnightblue" stroke="midnightblue" points="217.273,-36.3918 225.724,-30.0016 215.133,-29.727 217.273,-36.3918"/>
</g>
<!-- Node3 -->
<g id="node3" class="node"><title>Node3</title>
<g id="a_node3"><a xlink:href="../../d4/d07/classback_end_1_1turtle_1_1_turtle_manager.html#abd8e7545c1f29c7714bc7aaf59d3875b" target="_top" xlink:title="backEnd.turtle.TurtleManager.get\lTurtleList">
<polygon fill="white" stroke="black" points="438,-191 438,-221 612,-221 612,-191 438,-191"/>
<text text-anchor="start" x="446" y="-209" font-family="Helvetica,sans-Serif" font-size="10.00">backEnd.turtle.TurtleManager.get</text>
<text text-anchor="middle" x="525" y="-198" font-family="Helvetica,sans-Serif" font-size="10.00">TurtleList</text>
</a>
</g>
</g>
<!-- Node2&#45;&gt;Node3 -->
<g id="edge2" class="edge"><title>Node2&#45;&gt;Node3</title>
<path fill="none" stroke="midnightblue" d="M391.042,-203.084C403.165,-203.35 415.583,-203.622 427.725,-203.889"/>
<polygon fill="midnightblue" stroke="midnightblue" points="427.774,-207.391 437.848,-204.111 427.927,-200.392 427.774,-207.391"/>
</g>
<!-- Node2&#45;&gt;Node4 -->
<g id="edge3" class="edge"><title>Node2&#45;&gt;Node4</title>
<path fill="none" stroke="midnightblue" d="M373.827,-185.981C393.893,-182.108 415.627,-177.914 436.164,-173.951"/>
<polygon fill="midnightblue" stroke="midnightblue" points="436.981,-177.358 446.137,-172.026 435.655,-170.485 436.981,-177.358"/>
</g>
<!-- Node7 -->
<g id="node7" class="node"><title>Node7</title>
<g id="a_node7"><a xlink:href="../../d9/d98/classback_end_1_1_model.html#a1f54b1acaee5f2f608376ce454fa82f2" target="_top" xlink:title="backEnd.Model.getTurtleManager">
<polygon fill="white" stroke="black" points="437.5,-54.5 437.5,-73.5 612.5,-73.5 612.5,-54.5 437.5,-54.5"/>
<text text-anchor="middle" x="525" y="-61.5" font-family="Helvetica,sans-Serif" font-size="10.00">backEnd.Model.getTurtleManager</text>
</a>
</g>
</g>
<!-- Node6&#45;&gt;Node7 -->
<g id="edge6" class="edge"><title>Node6&#45;&gt;Node7</title>
<path fill="none" stroke="midnightblue" d="M378.636,-64C394.466,-64 411.172,-64 427.396,-64"/>
<polygon fill="midnightblue" stroke="midnightblue" points="427.423,-67.5001 437.423,-64 427.423,-60.5001 427.423,-67.5001"/>
</g>
</g>
</svg>
