<?xml version="1.0" encoding="UTF-8" standalone="no"?>
<!DOCTYPE svg PUBLIC "-//W3C//DTD SVG 1.1//EN"
 "http://www.w3.org/Graphics/SVG/1.1/DTD/svg11.dtd">
<!-- Generated by graphviz version 2.36.0 (20140111.2315)
 -->
<!-- Title: frontEnd.Workspace.getKeyListener Pages: 1 -->
<!--zoomable 77 -->
<svg id="main" version="1.1" xmlns="http://www.w3.org/2000/svg" xmlns:xlink="http://www.w3.org/1999/xlink" xml:space="preserve" onload="init(evt)">
<style type="text/css"><![CDATA[
.edge:hover path { stroke: red; }
.edge:hover polygon { stroke: red; fill: red; }
]]></style>
<script type="text/javascript"><![CDATA[
var edges = document.getElementsByTagName('g');
if (edges && edges.length) {
  for (var i=0;i<edges.length;i++) {
    if (edges[i].id.substr(0,4)=='edge') {
      edges[i].setAttribute('class','edge');
    }
  }
}
]]></script>
        <defs>
                <circle id="rim" cx="0" cy="0" r="7"/>
                <circle id="rim2" cx="0" cy="0" r="3.5"/>
                <g id="zoomPlus">
                        <use xlink:href="#rim" fill="#404040">
                                <set attributeName="fill" to="#808080" begin="zoomplus.mouseover" end="zoomplus.mouseout"/>
                        </use>
                        <path d="M-4,0h8M0,-4v8" fill="none" stroke="white" stroke-width="1.5" pointer-events="none"/>
                </g>
                <g id="zoomMin">
                        <use xlink:href="#rim" fill="#404040">
                                <set attributeName="fill" to="#808080" begin="zoomminus.mouseover" end="zoomminus.mouseout"/>
                        </use>
                        <path d="M-4,0h8" fill="none" stroke="white" stroke-width="1.5" pointer-events="none"/>
                </g>
                <g id="dirArrow">
                        <path fill="none" stroke="white" stroke-width="1.5" d="M0,-3.0v7 M-2.5,-0.5L0,-3.0L2.5,-0.5"/>
                </g>
               <g id="resetDef">
                       <use xlink:href="#rim2" fill="#404040">
                               <set attributeName="fill" to="#808080" begin="reset.mouseover" end="reset.mouseout"/>
                       </use>
               </g>
        </defs>

<script type="text/javascript">
var viewWidth = 1322;
var viewHeight = 77;
var sectionId = 'dynsection-2';
</script>
<script xlink:href="../../svgpan.js"/>
<svg id="graph" class="graph">
<g id="viewport">
<title>frontEnd.Workspace.getKeyListener</title>
<polygon fill="white" stroke="none" points="-4,4 -4,-73 1318,-73 1318,4 -4,4"/>
<!-- Node1 -->
<g id="node1" class="node"><title>Node1</title>
<polygon fill="#bfbfbf" stroke="black" points="0,-17 0,-47 146,-47 146,-17 0,-17"/>
<text text-anchor="start" x="8" y="-35" font-family="Helvetica,sans-Serif" font-size="10.00">frontEnd.Workspace.getKey</text>
<text text-anchor="middle" x="73" y="-24" font-family="Helvetica,sans-Serif" font-size="10.00">Listener</text>
</g>
<!-- Node2 -->
<g id="node2" class="node"><title>Node2</title>
<g id="a_node2"><a xlink:href="../../d7/d6c/classmain_1_1_master_window.html#a791f641d5cb2a36b6ec1e9b5e1c0615a" target="_top" xlink:title="main.MasterWindow.setKey\lListener">
<polygon fill="white" stroke="black" points="182,-17 182,-47 328,-47 328,-17 182,-17"/>
<text text-anchor="start" x="190" y="-35" font-family="Helvetica,sans-Serif" font-size="10.00">main.MasterWindow.setKey</text>
<text text-anchor="middle" x="255" y="-24" font-family="Helvetica,sans-Serif" font-size="10.00">Listener</text>
</a>
</g>
</g>
<!-- Node1&#45;&gt;Node2 -->
<g id="edge1" class="edge"><title>Node1&#45;&gt;Node2</title>
<path fill="none" stroke="midnightblue" d="M156.439,-32C164.906,-32 173.464,-32 181.808,-32"/>
<polygon fill="midnightblue" stroke="midnightblue" points="156.176,-28.5001 146.176,-32 156.176,-35.5001 156.176,-28.5001"/>
</g>
<!-- Node3 -->
<g id="node3" class="node"><title>Node3</title>
<g id="a_node3"><a xlink:href="../../d7/d6c/classmain_1_1_master_window.html#afa6d7e233487e201b5da782358fd522f" target="_top" xlink:title="main.MasterWindow.buildWorkspace">
<polygon fill="white" stroke="black" points="574,-22.5 574,-41.5 762,-41.5 762,-22.5 574,-22.5"/>
<text text-anchor="middle" x="668" y="-29.5" font-family="Helvetica,sans-Serif" font-size="10.00">main.MasterWindow.buildWorkspace</text>
</a>
</g>
</g>
<!-- Node2&#45;&gt;Node3 -->
<g id="edge2" class="edge"><title>Node2&#45;&gt;Node3</title>
<path fill="none" stroke="midnightblue" d="M338.3,-32C406.299,-32 502.826,-32 573.689,-32"/>
<polygon fill="midnightblue" stroke="midnightblue" points="338.061,-28.5001 328.061,-32 338.061,-35.5001 338.061,-28.5001"/>
</g>
<!-- Node8 -->
<g id="node8" class="node"><title>Node8</title>
<g id="a_node8"><a xlink:href="../../d7/d6c/classmain_1_1_master_window.html#abee1c5dad0269124eb93728730b4b3a8" target="_top" xlink:title="main.MasterWindow.tabChanged">
<polygon fill="white" stroke="black" points="364.5,-3.5 364.5,-22.5 537.5,-22.5 537.5,-3.5 364.5,-3.5"/>
<text text-anchor="middle" x="451" y="-10.5" font-family="Helvetica,sans-Serif" font-size="10.00">main.MasterWindow.tabChanged</text>
</a>
</g>
</g>
<!-- Node2&#45;&gt;Node8 -->
<g id="edge7" class="edge"><title>Node2&#45;&gt;Node8</title>
<path fill="none" stroke="midnightblue" d="M338.252,-23.9443C346.859,-23.1014 355.625,-22.2429 364.269,-21.3963"/>
<polygon fill="midnightblue" stroke="midnightblue" points="337.85,-20.467 328.238,-24.9251 338.532,-27.4336 337.85,-20.467"/>
</g>
<!-- Node4 -->
<g id="node4" class="node"><title>Node4</title>
<g id="a_node4"><a xlink:href="../../de/d44/classmain_1_1_master_menu_bar.html#a05672abefed58f8f5e4a3704fca7f4e5" target="_top" xlink:title="main.MasterMenuBar.build\lNewWorkspaceMenuItem">
<polygon fill="white" stroke="black" points="798,-39 798,-69 942,-69 942,-39 798,-39"/>
<text text-anchor="start" x="806" y="-57" font-family="Helvetica,sans-Serif" font-size="10.00">main.MasterMenuBar.build</text>
<text text-anchor="middle" x="870" y="-46" font-family="Helvetica,sans-Serif" font-size="10.00">NewWorkspaceMenuItem</text>
</a>
</g>
</g>
<!-- Node3&#45;&gt;Node4 -->
<g id="edge3" class="edge"><title>Node3&#45;&gt;Node4</title>
<path fill="none" stroke="midnightblue" d="M765.552,-42.6207C776.465,-43.8212 787.433,-45.0276 797.935,-46.1829"/>
<polygon fill="midnightblue" stroke="midnightblue" points="765.882,-39.136 755.56,-41.5216 765.117,-46.0941 765.882,-39.136"/>
</g>
<!-- Node7 -->
<g id="node7" class="node"><title>Node7</title>
<g id="a_node7"><a xlink:href="../../d7/d6c/classmain_1_1_master_window.html#a929bc7bbd820aed32ae77e9b0362d30b" target="_top" xlink:title="main.MasterWindow.start">
<polygon fill="white" stroke="black" points="801.5,-0.5 801.5,-19.5 938.5,-19.5 938.5,-0.5 801.5,-0.5"/>
<text text-anchor="middle" x="870" y="-7.5" font-family="Helvetica,sans-Serif" font-size="10.00">main.MasterWindow.start</text>
</a>
</g>
</g>
<!-- Node3&#45;&gt;Node7 -->
<g id="edge6" class="edge"><title>Node3&#45;&gt;Node7</title>
<path fill="none" stroke="midnightblue" d="M765.651,-21.3683C777.702,-20.0428 789.817,-18.7101 801.297,-17.4474"/>
<polygon fill="midnightblue" stroke="midnightblue" points="765.117,-17.9059 755.56,-22.4784 765.882,-24.864 765.117,-17.9059"/>
</g>
<!-- Node5 -->
<g id="node5" class="node"><title>Node5</title>
<g id="a_node5"><a xlink:href="../../de/d44/classmain_1_1_master_menu_bar.html#a8ac360f52791db57913d7a4303e18867" target="_top" xlink:title="main.MasterMenuBar.build\lFileMenu">
<polygon fill="white" stroke="black" points="978,-39 978,-69 1122,-69 1122,-39 978,-39"/>
<text text-anchor="start" x="986" y="-57" font-family="Helvetica,sans-Serif" font-size="10.00">main.MasterMenuBar.build</text>
<text text-anchor="middle" x="1050" y="-46" font-family="Helvetica,sans-Serif" font-size="10.00">FileMenu</text>
</a>
</g>
</g>
<!-- Node4&#45;&gt;Node5 -->
<g id="edge4" class="edge"><title>Node4&#45;&gt;Node5</title>
<path fill="none" stroke="midnightblue" d="M952.17,-54C960.789,-54 969.506,-54 977.995,-54"/>
<polygon fill="midnightblue" stroke="midnightblue" points="952.118,-50.5001 942.118,-54 952.118,-57.5001 952.118,-50.5001"/>
</g>
<!-- Node6 -->
<g id="node6" class="node"><title>Node6</title>
<g id="a_node6"><a xlink:href="../../de/d44/classmain_1_1_master_menu_bar.html#a1baeeae18c6cf1bb2c48541b48afe20c" target="_top" xlink:title="main.MasterMenuBar.Master\lMenuBar">
<polygon fill="white" stroke="black" points="1158.5,-39 1158.5,-69 1313.5,-69 1313.5,-39 1158.5,-39"/>
<text text-anchor="start" x="1166.5" y="-57" font-family="Helvetica,sans-Serif" font-size="10.00">main.MasterMenuBar.Master</text>
<text text-anchor="middle" x="1236" y="-46" font-family="Helvetica,sans-Serif" font-size="10.00">MenuBar</text>
</a>
</g>
</g>
<!-- Node5&#45;&gt;Node6 -->
<g id="edge5" class="edge"><title>Node5&#45;&gt;Node6</title>
<path fill="none" stroke="midnightblue" d="M1132.22,-54C1140.87,-54 1149.65,-54 1158.25,-54"/>
<polygon fill="midnightblue" stroke="midnightblue" points="1132.14,-50.5001 1122.14,-54 1132.14,-57.5001 1132.14,-50.5001"/>
</g>
<!-- Node8&#45;&gt;Node3 -->
<g id="edge8" class="edge"><title>Node8&#45;&gt;Node3</title>
<path fill="none" stroke="midnightblue" d="M547.745,-21.4612C556.447,-22.2302 565.253,-23.0084 573.931,-23.7753"/>
<polygon fill="midnightblue" stroke="midnightblue" points="547.861,-17.9579 537.591,-20.5639 547.245,-24.9307 547.861,-17.9579"/>
</g>
</g>
</svg>
        <g id="navigator" transform="translate(0 0)" fill="#404254">
                <rect fill="#f2f5e9" fill-opacity="0.5" stroke="#606060" stroke-width=".5" x="0" y="0" width="60" height="60"/>
                <use id="zoomplus" xlink:href="#zoomPlus" x="17" y="9" onmousedown="handleZoom(evt,'in')"/>
                <use id="zoomminus" xlink:href="#zoomMin" x="42" y="9" onmousedown="handleZoom(evt,'out')"/>
                <use id="reset" xlink:href="#resetDef" x="30" y="36" onmousedown="handleReset()"/>
                <g id="arrowUp" xlink:href="#dirArrow" transform="translate(30 24)" onmousedown="handlePan(0,-1)">
                  <use xlink:href="#rim" fill="#404040">
                        <set attributeName="fill" to="#808080" begin="arrowUp.mouseover" end="arrowUp.mouseout"/>
                  </use>
                  <path fill="none" stroke="white" stroke-width="1.5" d="M0,-3.0v7 M-2.5,-0.5L0,-3.0L2.5,-0.5"/>
                </g>
                <g id="arrowRight" xlink:href="#dirArrow" transform="rotate(90) translate(36 -43)" onmousedown="handlePan(1,0)">
                  <use xlink:href="#rim" fill="#404040">
                        <set attributeName="fill" to="#808080" begin="arrowRight.mouseover" end="arrowRight.mouseout"/>
                  </use>
                  <path fill="none" stroke="white" stroke-width="1.5" d="M0,-3.0v7 M-2.5,-0.5L0,-3.0L2.5,-0.5"/>
                </g>
                <g id="arrowDown" xlink:href="#dirArrow" transform="rotate(180) translate(-30 -48)" onmousedown="handlePan(0,1)">
                  <use xlink:href="#rim" fill="#404040">
                        <set attributeName="fill" to="#808080" begin="arrowDown.mouseover" end="arrowDown.mouseout"/>
                  </use>
                  <path fill="none" stroke="white" stroke-width="1.5" d="M0,-3.0v7 M-2.5,-0.5L0,-3.0L2.5,-0.5"/>
                </g>
                <g id="arrowLeft" xlink:href="#dirArrow" transform="rotate(270) translate(-36 17)" onmousedown="handlePan(-1,0)">
                  <use xlink:href="#rim" fill="#404040">
                        <set attributeName="fill" to="#808080" begin="arrowLeft.mouseover" end="arrowLeft.mouseout"/>
                  </use>
                  <path fill="none" stroke="white" stroke-width="1.5" d="M0,-3.0v7 M-2.5,-0.5L0,-3.0L2.5,-0.5"/>
                </g>
        </g>
        <svg viewBox="0 0 15 15" width="100%" height="30px" preserveAspectRatio="xMaxYMin meet">
         <g id="arrow_out" transform="scale(0.3 0.3)">
          <a xlink:href="classfront_end_1_1_workspace_af3ac2c0c8f0256e4a26281bacdfbc6b2_icgraph_org.svg" target="_base">
           <rect id="button" ry="5" rx="5" y="6" x="6" height="38" width="38"
                fill="#f2f5e9" fill-opacity="0.5" stroke="#606060" stroke-width="1.0"/>
           <path id="arrow"
             d="M 11.500037,31.436501 C 11.940474,20.09759 22.043105,11.32322 32.158766,21.979434 L 37.068811,17.246167 C 37.068811,17.246167 37.088388,32 37.088388,32 L 22.160133,31.978069 C 22.160133,31.978069 26.997745,27.140456 26.997745,27.140456 C 18.528582,18.264221 13.291696,25.230495 11.500037,31.436501 z"
             style="fill:#404040;"/>
          </a>
         </g>
        </svg>
</svg>
