<?xml version="1.0" encoding="UTF-8" standalone="no"?>
<!DOCTYPE svg PUBLIC "-//W3C//DTD SVG 1.1//EN"
 "http://www.w3.org/Graphics/SVG/1.1/DTD/svg11.dtd">
<!-- Generated by graphviz version 2.36.0 (20140111.2315)
 -->
<!-- Title: frontEnd.Workspace.saveDisplayProperties Pages: 1 -->
<!--zoomable 38 -->
<svg id="main" version="1.1" xmlns="http://www.w3.org/2000/svg" xmlns:xlink="http://www.w3.org/1999/xlink" xml:space="preserve" onload="init(evt)">
<style type="text/css"><![CDATA[
.edge:hover path { stroke: red; }
.edge:hover polygon { stroke: red; fill: red; }
]]></style>
<script type="text/javascript"><![CDATA[
var edges = document.getElementsByTagName('g');
if (edges && edges.length) {
  for (var i=0;i<edges.length;i++) {
    if (edges[i].id.substr(0,4)=='edge') {
      edges[i].setAttribute('class','edge');
    }
  }
}
]]></script>
        <defs>
                <circle id="rim" cx="0" cy="0" r="7"/>
                <circle id="rim2" cx="0" cy="0" r="3.5"/>
                <g id="zoomPlus">
                        <use xlink:href="#rim" fill="#404040">
                                <set attributeName="fill" to="#808080" begin="zoomplus.mouseover" end="zoomplus.mouseout"/>
                        </use>
                        <path d="M-4,0h8M0,-4v8" fill="none" stroke="white" stroke-width="1.5" pointer-events="none"/>
                </g>
                <g id="zoomMin">
                        <use xlink:href="#rim" fill="#404040">
                                <set attributeName="fill" to="#808080" begin="zoomminus.mouseover" end="zoomminus.mouseout"/>
                        </use>
                        <path d="M-4,0h8" fill="none" stroke="white" stroke-width="1.5" pointer-events="none"/>
                </g>
                <g id="dirArrow">
                        <path fill="none" stroke="white" stroke-width="1.5" d="M0,-3.0v7 M-2.5,-0.5L0,-3.0L2.5,-0.5"/>
                </g>
               <g id="resetDef">
                       <use xlink:href="#rim2" fill="#404040">
                               <set attributeName="fill" to="#808080" begin="reset.mouseover" end="reset.mouseout"/>
                       </use>
               </g>
        </defs>

<script type="text/javascript">
var viewWidth = 1412;
var viewHeight = 38;
var sectionId = 'dynsection-10';
</script>
<script xlink:href="../../svgpan.js"/>
<svg id="graph" class="graph">
<g id="viewport">
<title>frontEnd.Workspace.saveDisplayProperties</title>
<polygon fill="white" stroke="none" points="-4,4 -4,-34 1408,-34 1408,4 -4,4"/>
<!-- Node1 -->
<g id="node1" class="node"><title>Node1</title>
<polygon fill="#bfbfbf" stroke="black" points="0.5,-0 0.5,-30 171.5,-30 171.5,-0 0.5,-0"/>
<text text-anchor="start" x="8.5" y="-18" font-family="Helvetica,sans-Serif" font-size="10.00">frontEnd.Workspace.saveDisplay</text>
<text text-anchor="middle" x="86" y="-7" font-family="Helvetica,sans-Serif" font-size="10.00">Properties</text>
</g>
<!-- Node2 -->
<g id="node2" class="node"><title>Node2</title>
<g id="a_node2"><a xlink:href="../../d3/d21/classfront_end_1_1_workspace.html#a897ddb52dc6c71e7fce97d198343692d" target="_top" xlink:title="frontEnd.Workspace.saveProperties\lToFile">
<polygon fill="white" stroke="black" points="208.5,-0 208.5,-30 393.5,-30 393.5,-0 208.5,-0"/>
<text text-anchor="start" x="216.5" y="-18" font-family="Helvetica,sans-Serif" font-size="10.00">frontEnd.Workspace.saveProperties</text>
<text text-anchor="middle" x="301" y="-7" font-family="Helvetica,sans-Serif" font-size="10.00">ToFile</text>
</a>
</g>
</g>
<!-- Node1&#45;&gt;Node2 -->
<g id="edge1" class="edge"><title>Node1&#45;&gt;Node2</title>
<path fill="none" stroke="midnightblue" d="M181.954,-15C190.66,-15 199.471,-15 208.149,-15"/>
<polygon fill="midnightblue" stroke="midnightblue" points="181.795,-11.5001 171.795,-15 181.795,-18.5001 181.795,-11.5001"/>
</g>
<!-- Node3 -->
<g id="node3" class="node"><title>Node3</title>
<g id="a_node3"><a xlink:href="../../d7/d6c/classmain_1_1_master_window.html#a9caa01ef95b15769b285ffda84e8f56c" target="_top" xlink:title="main.MasterWindow.saveWorkspace\lPreferences">
<polygon fill="white" stroke="black" points="430,-0 430,-30 618,-30 618,-0 430,-0"/>
<text text-anchor="start" x="438" y="-18" font-family="Helvetica,sans-Serif" font-size="10.00">main.MasterWindow.saveWorkspace</text>
<text text-anchor="middle" x="524" y="-7" font-family="Helvetica,sans-Serif" font-size="10.00">Preferences</text>
</a>
</g>
</g>
<!-- Node2&#45;&gt;Node3 -->
<g id="edge2" class="edge"><title>Node2&#45;&gt;Node3</title>
<path fill="none" stroke="midnightblue" d="M403.868,-15C412.479,-15 421.161,-15 429.702,-15"/>
<polygon fill="midnightblue" stroke="midnightblue" points="403.804,-11.5001 393.804,-15 403.804,-18.5001 403.804,-11.5001"/>
</g>
<!-- Node4 -->
<g id="node4" class="node"><title>Node4</title>
<g id="a_node4"><a xlink:href="../../de/d44/classmain_1_1_master_menu_bar.html#a249553b44a3e0ed097a3b350b7711f49" target="_top" xlink:title="main.MasterMenuBar.saveWorkspace\lPreferences">
<polygon fill="white" stroke="black" points="654.5,-0 654.5,-30 849.5,-30 849.5,-0 654.5,-0"/>
<text text-anchor="start" x="662.5" y="-18" font-family="Helvetica,sans-Serif" font-size="10.00">main.MasterMenuBar.saveWorkspace</text>
<text text-anchor="middle" x="752" y="-7" font-family="Helvetica,sans-Serif" font-size="10.00">Preferences</text>
</a>
</g>
</g>
<!-- Node3&#45;&gt;Node4 -->
<g id="edge3" class="edge"><title>Node3&#45;&gt;Node4</title>
<path fill="none" stroke="midnightblue" d="M628.341,-15C636.997,-15 645.728,-15 654.331,-15"/>
<polygon fill="midnightblue" stroke="midnightblue" points="628.228,-11.5001 618.228,-15 628.228,-18.5001 628.228,-11.5001"/>
</g>
<!-- Node5 -->
<g id="node5" class="node"><title>Node5</title>
<g id="a_node5"><a xlink:href="../../de/d44/classmain_1_1_master_menu_bar.html#acb0484fe23459ec4b49c4db8c09ee067" target="_top" xlink:title="main.MasterMenuBar.build\lSavePreferencesMenuItem">
<polygon fill="white" stroke="black" points="886,-0 886,-30 1032,-30 1032,-0 886,-0"/>
<text text-anchor="start" x="894" y="-18" font-family="Helvetica,sans-Serif" font-size="10.00">main.MasterMenuBar.build</text>
<text text-anchor="middle" x="959" y="-7" font-family="Helvetica,sans-Serif" font-size="10.00">SavePreferencesMenuItem</text>
</a>
</g>
</g>
<!-- Node4&#45;&gt;Node5 -->
<g id="edge4" class="edge"><title>Node4&#45;&gt;Node5</title>
<path fill="none" stroke="midnightblue" d="M860.041,-15C868.764,-15 877.442,-15 885.823,-15"/>
<polygon fill="midnightblue" stroke="midnightblue" points="859.797,-11.5001 849.797,-15 859.797,-18.5001 859.797,-11.5001"/>
</g>
<!-- Node6 -->
<g id="node6" class="node"><title>Node6</title>
<g id="a_node6"><a xlink:href="../../de/d44/classmain_1_1_master_menu_bar.html#a8ac360f52791db57913d7a4303e18867" target="_top" xlink:title="main.MasterMenuBar.build\lFileMenu">
<polygon fill="white" stroke="black" points="1068,-0 1068,-30 1212,-30 1212,-0 1068,-0"/>
<text text-anchor="start" x="1076" y="-18" font-family="Helvetica,sans-Serif" font-size="10.00">main.MasterMenuBar.build</text>
<text text-anchor="middle" x="1140" y="-7" font-family="Helvetica,sans-Serif" font-size="10.00">FileMenu</text>
</a>
</g>
</g>
<!-- Node5&#45;&gt;Node6 -->
<g id="edge5" class="edge"><title>Node5&#45;&gt;Node6</title>
<path fill="none" stroke="midnightblue" d="M1042.11,-15C1050.75,-15 1059.49,-15 1067.99,-15"/>
<polygon fill="midnightblue" stroke="midnightblue" points="1042.03,-11.5001 1032.03,-15 1042.03,-18.5001 1042.03,-11.5001"/>
</g>
<!-- Node7 -->
<g id="node7" class="node"><title>Node7</title>
<g id="a_node7"><a xlink:href="../../de/d44/classmain_1_1_master_menu_bar.html#a1baeeae18c6cf1bb2c48541b48afe20c" target="_top" xlink:title="main.MasterMenuBar.Master\lMenuBar">
<polygon fill="white" stroke="black" points="1248.5,-0 1248.5,-30 1403.5,-30 1403.5,-0 1248.5,-0"/>
<text text-anchor="start" x="1256.5" y="-18" font-family="Helvetica,sans-Serif" font-size="10.00">main.MasterMenuBar.Master</text>
<text text-anchor="middle" x="1326" y="-7" font-family="Helvetica,sans-Serif" font-size="10.00">MenuBar</text>
</a>
</g>
</g>
<!-- Node6&#45;&gt;Node7 -->
<g id="edge6" class="edge"><title>Node6&#45;&gt;Node7</title>
<path fill="none" stroke="midnightblue" d="M1222.22,-15C1230.87,-15 1239.65,-15 1248.25,-15"/>
<polygon fill="midnightblue" stroke="midnightblue" points="1222.14,-11.5001 1212.14,-15 1222.14,-18.5001 1222.14,-11.5001"/>
</g>
</g>
</svg>
        <g id="navigator" transform="translate(0 0)" fill="#404254">
                <rect fill="#f2f5e9" fill-opacity="0.5" stroke="#606060" stroke-width=".5" x="0" y="0" width="60" height="60"/>
                <use id="zoomplus" xlink:href="#zoomPlus" x="17" y="9" onmousedown="handleZoom(evt,'in')"/>
                <use id="zoomminus" xlink:href="#zoomMin" x="42" y="9" onmousedown="handleZoom(evt,'out')"/>
                <use id="reset" xlink:href="#resetDef" x="30" y="36" onmousedown="handleReset()"/>
                <g id="arrowUp" xlink:href="#dirArrow" transform="translate(30 24)" onmousedown="handlePan(0,-1)">
                  <use xlink:href="#rim" fill="#404040">
                        <set attributeName="fill" to="#808080" begin="arrowUp.mouseover" end="arrowUp.mouseout"/>
                  </use>
                  <path fill="none" stroke="white" stroke-width="1.5" d="M0,-3.0v7 M-2.5,-0.5L0,-3.0L2.5,-0.5"/>
                </g>
                <g id="arrowRight" xlink:href="#dirArrow" transform="rotate(90) translate(36 -43)" onmousedown="handlePan(1,0)">
                  <use xlink:href="#rim" fill="#404040">
                        <set attributeName="fill" to="#808080" begin="arrowRight.mouseover" end="arrowRight.mouseout"/>
                  </use>
                  <path fill="none" stroke="white" stroke-width="1.5" d="M0,-3.0v7 M-2.5,-0.5L0,-3.0L2.5,-0.5"/>
                </g>
                <g id="arrowDown" xlink:href="#dirArrow" transform="rotate(180) translate(-30 -48)" onmousedown="handlePan(0,1)">
                  <use xlink:href="#rim" fill="#404040">
                        <set attributeName="fill" to="#808080" begin="arrowDown.mouseover" end="arrowDown.mouseout"/>
                  </use>
                  <path fill="none" stroke="white" stroke-width="1.5" d="M0,-3.0v7 M-2.5,-0.5L0,-3.0L2.5,-0.5"/>
                </g>
                <g id="arrowLeft" xlink:href="#dirArrow" transform="rotate(270) translate(-36 17)" onmousedown="handlePan(-1,0)">
                  <use xlink:href="#rim" fill="#404040">
                        <set attributeName="fill" to="#808080" begin="arrowLeft.mouseover" end="arrowLeft.mouseout"/>
                  </use>
                  <path fill="none" stroke="white" stroke-width="1.5" d="M0,-3.0v7 M-2.5,-0.5L0,-3.0L2.5,-0.5"/>
                </g>
        </g>
        <svg viewBox="0 0 15 15" width="100%" height="30px" preserveAspectRatio="xMaxYMin meet">
         <g id="arrow_out" transform="scale(0.3 0.3)">
          <a xlink:href="classfront_end_1_1_workspace_a483993a49176099425a0eca9c8da73ca_icgraph_org.svg" target="_base">
           <rect id="button" ry="5" rx="5" y="6" x="6" height="38" width="38"
                fill="#f2f5e9" fill-opacity="0.5" stroke="#606060" stroke-width="1.0"/>
           <path id="arrow"
             d="M 11.500037,31.436501 C 11.940474,20.09759 22.043105,11.32322 32.158766,21.979434 L 37.068811,17.246167 C 37.068811,17.246167 37.088388,32 37.088388,32 L 22.160133,31.978069 C 22.160133,31.978069 26.997745,27.140456 26.997745,27.140456 C 18.528582,18.264221 13.291696,25.230495 11.500037,31.436501 z"
             style="fill:#404040;"/>
          </a>
         </g>
        </svg>
</svg>
