<?xml version="1.0" encoding="UTF-8" standalone="no"?>
<!DOCTYPE svg PUBLIC "-//W3C//DTD SVG 1.1//EN"
 "http://www.w3.org/Graphics/SVG/1.1/DTD/svg11.dtd">
<!-- Generated by graphviz version 2.36.0 (20140111.2315)
 -->
<!-- Title: frontEnd.Workspace.saveDisplayProperties Pages: 1 -->
<svg width="550pt" height="38pt"
 viewBox="0.00 0.00 550.00 38.00" xmlns="http://www.w3.org/2000/svg" xmlns:xlink="http://www.w3.org/1999/xlink">
<g id="graph0" class="graph" transform="scale(1 1) rotate(0) translate(4 34)">
<title>frontEnd.Workspace.saveDisplayProperties</title>
<polygon fill="white" stroke="none" points="-4,4 -4,-34 546,-34 546,4 -4,4"/>
<!-- Node1 -->
<g id="node1" class="node"><title>Node1</title>
<polygon fill="#bfbfbf" stroke="black" points="0.5,-0 0.5,-30 171.5,-30 171.5,-0 0.5,-0"/>
<text text-anchor="start" x="8.5" y="-18" font-family="Helvetica,sans-Serif" font-size="10.00">frontEnd.Workspace.saveDisplay</text>
<text text-anchor="middle" x="86" y="-7" font-family="Helvetica,sans-Serif" font-size="10.00">Properties</text>
</g>
<!-- Node2 -->
<g id="node2" class="node"><title>Node2</title>
<g id="a_node2"><a xlink:href="../../d8/d1f/classfront_end_1_1_view.html#a1b425074f6c6cd928ea31c5edddfe04b" target="_top" xlink:title="frontEnd.View.getBackground\lColor">
<polygon fill="white" stroke="black" points="208.5,-0 208.5,-30 365.5,-30 365.5,-0 208.5,-0"/>
<text text-anchor="start" x="216.5" y="-18" font-family="Helvetica,sans-Serif" font-size="10.00">frontEnd.View.getBackground</text>
<text text-anchor="middle" x="287" y="-7" font-family="Helvetica,sans-Serif" font-size="10.00">Color</text>
</a>
</g>
</g>
<!-- Node1&#45;&gt;Node2 -->
<g id="edge1" class="edge"><title>Node1&#45;&gt;Node2</title>
<path fill="none" stroke="midnightblue" d="M171.682,-15C180.426,-15 189.326,-15 198.104,-15"/>
<polygon fill="midnightblue" stroke="midnightblue" points="198.336,-18.5001 208.336,-15 198.336,-11.5001 198.336,-18.5001"/>
</g>
<!-- Node3 -->
<g id="node3" class="node"><title>Node3</title>
<g id="a_node3"><a xlink:href="../../d5/df1/classfront_end_1_1_turtle_canvas.html#a83c9d8f63e6b94f271fdd7f039c7895f" target="_top" xlink:title="frontEnd.TurtleCanvas.get\lBackgroundColor">
<polygon fill="white" stroke="black" points="402,-0 402,-30 542,-30 542,-0 402,-0"/>
<text text-anchor="start" x="410" y="-18" font-family="Helvetica,sans-Serif" font-size="10.00">frontEnd.TurtleCanvas.get</text>
<text text-anchor="middle" x="472" y="-7" font-family="Helvetica,sans-Serif" font-size="10.00">BackgroundColor</text>
</a>
</g>
</g>
<!-- Node2&#45;&gt;Node3 -->
<g id="edge2" class="edge"><title>Node2&#45;&gt;Node3</title>
<path fill="none" stroke="midnightblue" d="M365.608,-15C374.291,-15 383.144,-15 391.845,-15"/>
<polygon fill="midnightblue" stroke="midnightblue" points="391.97,-18.5001 401.97,-15 391.97,-11.5001 391.97,-18.5001"/>
</g>
</g>
</svg>
