<?xml version="1.0" encoding="UTF-8" standalone="no"?>
<!DOCTYPE svg PUBLIC "-//W3C//DTD SVG 1.1//EN"
 "http://www.w3.org/Graphics/SVG/1.1/DTD/svg11.dtd">
<!-- Generated by graphviz version 2.36.0 (20140111.2315)
 -->
<!-- Title: frontEnd.Workspace.loadDisplayProperties Pages: 1 -->
<svg width="586pt" height="38pt"
 viewBox="0.00 0.00 586.00 38.00" xmlns="http://www.w3.org/2000/svg" xmlns:xlink="http://www.w3.org/1999/xlink">
<g id="graph0" class="graph" transform="scale(1 1) rotate(0) translate(4 34)">
<title>frontEnd.Workspace.loadDisplayProperties</title>
<polygon fill="white" stroke="none" points="-4,4 -4,-34 582,-34 582,4 -4,4"/>
<!-- Node1 -->
<g id="node1" class="node"><title>Node1</title>
<polygon fill="#bfbfbf" stroke="black" points="0.5,-0 0.5,-30 169.5,-30 169.5,-0 0.5,-0"/>
<text text-anchor="start" x="8.5" y="-18" font-family="Helvetica,sans-Serif" font-size="10.00">frontEnd.Workspace.loadDisplay</text>
<text text-anchor="middle" x="85" y="-7" font-family="Helvetica,sans-Serif" font-size="10.00">Properties</text>
</g>
<!-- Node2 -->
<g id="node2" class="node"><title>Node2</title>
<g id="a_node2"><a xlink:href="../../d8/d1f/classfront_end_1_1_view.html#a2d6539ed8834e0dcc613be8ea607804c" target="_top" xlink:title="frontEnd.View.changeBackground\lColor">
<polygon fill="white" stroke="black" points="206,-0 206,-30 382,-30 382,-0 206,-0"/>
<text text-anchor="start" x="214" y="-18" font-family="Helvetica,sans-Serif" font-size="10.00">frontEnd.View.changeBackground</text>
<text text-anchor="middle" x="294" y="-7" font-family="Helvetica,sans-Serif" font-size="10.00">Color</text>
</a>
</g>
</g>
<!-- Node1&#45;&gt;Node2 -->
<g id="edge1" class="edge"><title>Node1&#45;&gt;Node2</title>
<path fill="none" stroke="midnightblue" d="M169.598,-15C178.147,-15 186.884,-15 195.564,-15"/>
<polygon fill="midnightblue" stroke="midnightblue" points="195.713,-18.5001 205.713,-15 195.713,-11.5001 195.713,-18.5001"/>
</g>
<!-- Node3 -->
<g id="node3" class="node"><title>Node3</title>
<g id="a_node3"><a xlink:href="../../d5/df1/classfront_end_1_1_turtle_canvas.html#a222a37326fc072937d76f29f5fe27bdc" target="_top" xlink:title="frontEnd.TurtleCanvas.change\lBackgroundColor">
<polygon fill="white" stroke="black" points="418.5,-0 418.5,-30 577.5,-30 577.5,-0 418.5,-0"/>
<text text-anchor="start" x="426.5" y="-18" font-family="Helvetica,sans-Serif" font-size="10.00">frontEnd.TurtleCanvas.change</text>
<text text-anchor="middle" x="498" y="-7" font-family="Helvetica,sans-Serif" font-size="10.00">BackgroundColor</text>
</a>
</g>
</g>
<!-- Node2&#45;&gt;Node3 -->
<g id="edge2" class="edge"><title>Node2&#45;&gt;Node3</title>
<path fill="none" stroke="midnightblue" d="M382.132,-15C390.804,-15 399.616,-15 408.304,-15"/>
<polygon fill="midnightblue" stroke="midnightblue" points="408.431,-18.5001 418.431,-15 408.431,-11.5001 408.431,-18.5001"/>
</g>
</g>
</svg>
