<?xml version="1.0" encoding="UTF-8" standalone="no"?>
<!DOCTYPE svg PUBLIC "-//W3C//DTD SVG 1.1//EN"
 "http://www.w3.org/Graphics/SVG/1.1/DTD/svg11.dtd">
<!-- Generated by graphviz version 2.36.0 (20140111.2315)
 -->
<!-- Title: frontEnd.Workspace.savePropertiesToFile Pages: 1 -->
<svg width="772pt" height="38pt"
 viewBox="0.00 0.00 772.00 38.00" xmlns="http://www.w3.org/2000/svg" xmlns:xlink="http://www.w3.org/1999/xlink">
<g id="graph0" class="graph" transform="scale(1 1) rotate(0) translate(4 34)">
<title>frontEnd.Workspace.savePropertiesToFile</title>
<polygon fill="white" stroke="none" points="-4,4 -4,-34 768,-34 768,4 -4,4"/>
<!-- Node1 -->
<g id="node1" class="node"><title>Node1</title>
<polygon fill="#bfbfbf" stroke="black" points="0.5,-0 0.5,-30 185.5,-30 185.5,-0 0.5,-0"/>
<text text-anchor="start" x="8.5" y="-18" font-family="Helvetica,sans-Serif" font-size="10.00">frontEnd.Workspace.saveProperties</text>
<text text-anchor="middle" x="93" y="-7" font-family="Helvetica,sans-Serif" font-size="10.00">ToFile</text>
</g>
<!-- Node2 -->
<g id="node2" class="node"><title>Node2</title>
<g id="a_node2"><a xlink:href="../../d3/d21/classfront_end_1_1_workspace.html#a483993a49176099425a0eca9c8da73ca" target="_top" xlink:title="frontEnd.Workspace.saveDisplay\lProperties">
<polygon fill="white" stroke="black" points="222.5,-0 222.5,-30 393.5,-30 393.5,-0 222.5,-0"/>
<text text-anchor="start" x="230.5" y="-18" font-family="Helvetica,sans-Serif" font-size="10.00">frontEnd.Workspace.saveDisplay</text>
<text text-anchor="middle" x="308" y="-7" font-family="Helvetica,sans-Serif" font-size="10.00">Properties</text>
</a>
</g>
</g>
<!-- Node1&#45;&gt;Node2 -->
<g id="edge1" class="edge"><title>Node1&#45;&gt;Node2</title>
<path fill="none" stroke="midnightblue" d="M185.567,-15C194.32,-15 203.21,-15 211.994,-15"/>
<polygon fill="midnightblue" stroke="midnightblue" points="212.243,-18.5001 222.243,-15 212.243,-11.5001 212.243,-18.5001"/>
</g>
<!-- Node3 -->
<g id="node3" class="node"><title>Node3</title>
<g id="a_node3"><a xlink:href="../../d8/d1f/classfront_end_1_1_view.html#a1b425074f6c6cd928ea31c5edddfe04b" target="_top" xlink:title="frontEnd.View.getBackground\lColor">
<polygon fill="white" stroke="black" points="430.5,-0 430.5,-30 587.5,-30 587.5,-0 430.5,-0"/>
<text text-anchor="start" x="438.5" y="-18" font-family="Helvetica,sans-Serif" font-size="10.00">frontEnd.View.getBackground</text>
<text text-anchor="middle" x="509" y="-7" font-family="Helvetica,sans-Serif" font-size="10.00">Color</text>
</a>
</g>
</g>
<!-- Node2&#45;&gt;Node3 -->
<g id="edge2" class="edge"><title>Node2&#45;&gt;Node3</title>
<path fill="none" stroke="midnightblue" d="M393.682,-15C402.426,-15 411.326,-15 420.104,-15"/>
<polygon fill="midnightblue" stroke="midnightblue" points="420.336,-18.5001 430.336,-15 420.336,-11.5001 420.336,-18.5001"/>
</g>
<!-- Node4 -->
<g id="node4" class="node"><title>Node4</title>
<g id="a_node4"><a xlink:href="../../d5/df1/classfront_end_1_1_turtle_canvas.html#a83c9d8f63e6b94f271fdd7f039c7895f" target="_top" xlink:title="frontEnd.TurtleCanvas.get\lBackgroundColor">
<polygon fill="white" stroke="black" points="624,-0 624,-30 764,-30 764,-0 624,-0"/>
<text text-anchor="start" x="632" y="-18" font-family="Helvetica,sans-Serif" font-size="10.00">frontEnd.TurtleCanvas.get</text>
<text text-anchor="middle" x="694" y="-7" font-family="Helvetica,sans-Serif" font-size="10.00">BackgroundColor</text>
</a>
</g>
</g>
<!-- Node3&#45;&gt;Node4 -->
<g id="edge3" class="edge"><title>Node3&#45;&gt;Node4</title>
<path fill="none" stroke="midnightblue" d="M587.608,-15C596.291,-15 605.144,-15 613.845,-15"/>
<polygon fill="midnightblue" stroke="midnightblue" points="613.97,-18.5001 623.97,-15 613.97,-11.5001 613.97,-18.5001"/>
</g>
</g>
</svg>
