<?xml version="1.0" encoding="UTF-8" standalone="no"?>
<!DOCTYPE svg PUBLIC "-//W3C//DTD SVG 1.1//EN"
 "http://www.w3.org/Graphics/SVG/1.1/DTD/svg11.dtd">
<!-- Generated by graphviz version 2.36.0 (20140111.2315)
 -->
<!-- Title: frontEnd.Workspace.loadPropertiesFromFile Pages: 1 -->
<svg width="1198pt" height="38pt"
 viewBox="0.00 0.00 1198.00 38.00" xmlns="http://www.w3.org/2000/svg" xmlns:xlink="http://www.w3.org/1999/xlink">
<g id="graph0" class="graph" transform="scale(1 1) rotate(0) translate(4 34)">
<title>frontEnd.Workspace.loadPropertiesFromFile</title>
<polygon fill="white" stroke="none" points="-4,4 -4,-34 1194,-34 1194,4 -4,4"/>
<!-- Node1 -->
<g id="node1" class="node"><title>Node1</title>
<polygon fill="#bfbfbf" stroke="black" points="0.5,-0 0.5,-30 183.5,-30 183.5,-0 0.5,-0"/>
<text text-anchor="start" x="8.5" y="-18" font-family="Helvetica,sans-Serif" font-size="10.00">frontEnd.Workspace.loadProperties</text>
<text text-anchor="middle" x="92" y="-7" font-family="Helvetica,sans-Serif" font-size="10.00">FromFile</text>
</g>
<!-- Node2 -->
<g id="node2" class="node"><title>Node2</title>
<g id="a_node2"><a xlink:href="../../d7/d6c/classmain_1_1_master_window.html#a4438aa75b2c8333790b6dbe970e233f8" target="_top" xlink:title="main.MasterWindow.loadWorkspace\lPreferences">
<polygon fill="white" stroke="black" points="220.5,-0 220.5,-30 405.5,-30 405.5,-0 220.5,-0"/>
<text text-anchor="start" x="228.5" y="-18" font-family="Helvetica,sans-Serif" font-size="10.00">main.MasterWindow.loadWorkspace</text>
<text text-anchor="middle" x="313" y="-7" font-family="Helvetica,sans-Serif" font-size="10.00">Preferences</text>
</a>
</g>
</g>
<!-- Node1&#45;&gt;Node2 -->
<g id="edge1" class="edge"><title>Node1&#45;&gt;Node2</title>
<path fill="none" stroke="midnightblue" d="M193.658,-15C202.556,-15 211.533,-15 220.352,-15"/>
<polygon fill="midnightblue" stroke="midnightblue" points="193.657,-11.5001 183.657,-15 193.656,-18.5001 193.657,-11.5001"/>
</g>
<!-- Node3 -->
<g id="node3" class="node"><title>Node3</title>
<g id="a_node3"><a xlink:href="../../de/d44/classmain_1_1_master_menu_bar.html#a73c9d9af24d1ec86213ff7e56bafda6f" target="_top" xlink:title="main.MasterMenuBar.loadWorkspace\lPreferences">
<polygon fill="white" stroke="black" points="442.5,-0 442.5,-30 635.5,-30 635.5,-0 442.5,-0"/>
<text text-anchor="start" x="450.5" y="-18" font-family="Helvetica,sans-Serif" font-size="10.00">main.MasterMenuBar.loadWorkspace</text>
<text text-anchor="middle" x="539" y="-7" font-family="Helvetica,sans-Serif" font-size="10.00">Preferences</text>
</a>
</g>
</g>
<!-- Node2&#45;&gt;Node3 -->
<g id="edge2" class="edge"><title>Node2&#45;&gt;Node3</title>
<path fill="none" stroke="midnightblue" d="M416.014,-15C424.796,-15 433.661,-15 442.39,-15"/>
<polygon fill="midnightblue" stroke="midnightblue" points="415.756,-11.5001 405.756,-15 415.756,-18.5001 415.756,-11.5001"/>
</g>
<!-- Node4 -->
<g id="node4" class="node"><title>Node4</title>
<g id="a_node4"><a xlink:href="../../de/d44/classmain_1_1_master_menu_bar.html#a035108ff7b484d9883d62cef618156da" target="_top" xlink:title="main.MasterMenuBar.build\lLoadPreferencesMenuItem">
<polygon fill="white" stroke="black" points="672.5,-0 672.5,-30 817.5,-30 817.5,-0 672.5,-0"/>
<text text-anchor="start" x="680.5" y="-18" font-family="Helvetica,sans-Serif" font-size="10.00">main.MasterMenuBar.build</text>
<text text-anchor="middle" x="745" y="-7" font-family="Helvetica,sans-Serif" font-size="10.00">LoadPreferencesMenuItem</text>
</a>
</g>
</g>
<!-- Node3&#45;&gt;Node4 -->
<g id="edge3" class="edge"><title>Node3&#45;&gt;Node4</title>
<path fill="none" stroke="midnightblue" d="M645.846,-15C654.806,-15 663.726,-15 672.33,-15"/>
<polygon fill="midnightblue" stroke="midnightblue" points="645.728,-11.5001 635.728,-15 645.728,-18.5001 645.728,-11.5001"/>
</g>
<!-- Node5 -->
<g id="node5" class="node"><title>Node5</title>
<g id="a_node5"><a xlink:href="../../de/d44/classmain_1_1_master_menu_bar.html#a8ac360f52791db57913d7a4303e18867" target="_top" xlink:title="main.MasterMenuBar.build\lFileMenu">
<polygon fill="white" stroke="black" points="854,-0 854,-30 998,-30 998,-0 854,-0"/>
<text text-anchor="start" x="862" y="-18" font-family="Helvetica,sans-Serif" font-size="10.00">main.MasterMenuBar.build</text>
<text text-anchor="middle" x="926" y="-7" font-family="Helvetica,sans-Serif" font-size="10.00">FileMenu</text>
</a>
</g>
</g>
<!-- Node4&#45;&gt;Node5 -->
<g id="edge4" class="edge"><title>Node4&#45;&gt;Node5</title>
<path fill="none" stroke="midnightblue" d="M827.71,-15C836.448,-15 845.287,-15 853.888,-15"/>
<polygon fill="midnightblue" stroke="midnightblue" points="827.517,-11.5001 817.517,-15 827.517,-18.5001 827.517,-11.5001"/>
</g>
<!-- Node6 -->
<g id="node6" class="node"><title>Node6</title>
<g id="a_node6"><a xlink:href="../../de/d44/classmain_1_1_master_menu_bar.html#a1baeeae18c6cf1bb2c48541b48afe20c" target="_top" xlink:title="main.MasterMenuBar.Master\lMenuBar">
<polygon fill="white" stroke="black" points="1034.5,-0 1034.5,-30 1189.5,-30 1189.5,-0 1034.5,-0"/>
<text text-anchor="start" x="1042.5" y="-18" font-family="Helvetica,sans-Serif" font-size="10.00">main.MasterMenuBar.Master</text>
<text text-anchor="middle" x="1112" y="-7" font-family="Helvetica,sans-Serif" font-size="10.00">MenuBar</text>
</a>
</g>
</g>
<!-- Node5&#45;&gt;Node6 -->
<g id="edge5" class="edge"><title>Node5&#45;&gt;Node6</title>
<path fill="none" stroke="midnightblue" d="M1008.22,-15C1016.87,-15 1025.65,-15 1034.25,-15"/>
<polygon fill="midnightblue" stroke="midnightblue" points="1008.14,-11.5001 998.139,-15 1008.14,-18.5001 1008.14,-11.5001"/>
</g>
</g>
</svg>
